G04 (created by PCBNEW (2013-05-31 BZR 4019)-stable) date 12/30/2013 4:19:26 PM*
%MOIN*%
G04 Gerber Fmt 3.4, Leading zero omitted, Abs format*
%FSLAX34Y34*%
G01*
G70*
G90*
G04 APERTURE LIST*
%ADD10C,0.00590551*%
%ADD11C,0.004*%
%ADD12C,0.00787402*%
%ADD13C,0.00976378*%
%ADD14C,0.011811*%
%ADD15C,0.0026*%
%ADD16C,0.008*%
%ADD17C,0.006*%
%ADD18C,0.005*%
%ADD19C,0.0047*%
%ADD20C,0.0078*%
%ADD21C,0.0035*%
%ADD22C,0.0045*%
%ADD23C,0.003*%
%ADD24C,0.000175*%
%ADD25C,0.0025*%
%ADD26C,0.00125*%
%ADD27R,0.037X0.062*%
%ADD28R,0.028X0.062*%
%ADD29R,0.037X0.057*%
%ADD30C,0.057*%
%ADD31R,0.0316X0.0434*%
%ADD32R,0.057X0.037*%
%ADD33R,0.0986X0.072*%
%ADD34O,0.0986X0.072*%
%ADD35C,0.0632*%
%ADD36C,0.192*%
%ADD37R,0.077X0.077*%
%ADD38R,0.0521575X0.147827*%
%ADD39R,0.062X0.037*%
G04 APERTURE END LIST*
G54D10*
G54D11*
X-12154Y-980D02*
X-12154Y-780D01*
X-12202Y-780D01*
X-12230Y-790D01*
X-12249Y-809D01*
X-12259Y-828D01*
X-12269Y-866D01*
X-12269Y-895D01*
X-12259Y-933D01*
X-12249Y-952D01*
X-12230Y-971D01*
X-12202Y-980D01*
X-12154Y-980D01*
X-12345Y-923D02*
X-12440Y-923D01*
X-12326Y-980D02*
X-12392Y-780D01*
X-12459Y-980D01*
X-12526Y-980D02*
X-12526Y-780D01*
X-12611Y-971D02*
X-12640Y-980D01*
X-12688Y-980D01*
X-12707Y-971D01*
X-12716Y-961D01*
X-12726Y-942D01*
X-12726Y-923D01*
X-12716Y-904D01*
X-12707Y-895D01*
X-12688Y-885D01*
X-12650Y-876D01*
X-12630Y-866D01*
X-12621Y-857D01*
X-12611Y-838D01*
X-12611Y-819D01*
X-12621Y-800D01*
X-12630Y-790D01*
X-12650Y-780D01*
X-12697Y-780D01*
X-12726Y-790D01*
X-12850Y-885D02*
X-12850Y-980D01*
X-12783Y-780D02*
X-12850Y-885D01*
X-12916Y-780D01*
X-12935Y-1000D02*
X-13088Y-1000D01*
X-13135Y-980D02*
X-13135Y-780D01*
X-13230Y-980D02*
X-13230Y-780D01*
X-13345Y-980D01*
X-13345Y-780D01*
X-14997Y-790D02*
X-14978Y-780D01*
X-14950Y-780D01*
X-14921Y-790D01*
X-14902Y-809D01*
X-14892Y-828D01*
X-14883Y-866D01*
X-14883Y-895D01*
X-14892Y-933D01*
X-14902Y-952D01*
X-14921Y-971D01*
X-14950Y-980D01*
X-14969Y-980D01*
X-14997Y-971D01*
X-15007Y-961D01*
X-15007Y-895D01*
X-14969Y-895D01*
X-15092Y-980D02*
X-15092Y-780D01*
X-15207Y-980D01*
X-15207Y-780D01*
X-15302Y-980D02*
X-15302Y-780D01*
X-15350Y-780D01*
X-15378Y-790D01*
X-15397Y-809D01*
X-15407Y-828D01*
X-15416Y-866D01*
X-15416Y-895D01*
X-15407Y-933D01*
X-15397Y-952D01*
X-15378Y-971D01*
X-15350Y-980D01*
X-15302Y-980D01*
X-14835Y-4780D02*
X-14835Y-4580D01*
X-14902Y-4723D01*
X-14969Y-4580D01*
X-14969Y-4780D01*
X-15064Y-4780D02*
X-15064Y-4580D01*
X-15150Y-4771D02*
X-15178Y-4780D01*
X-15226Y-4780D01*
X-15245Y-4771D01*
X-15254Y-4761D01*
X-15264Y-4742D01*
X-15264Y-4723D01*
X-15254Y-4704D01*
X-15245Y-4695D01*
X-15226Y-4685D01*
X-15188Y-4676D01*
X-15169Y-4666D01*
X-15159Y-4657D01*
X-15150Y-4638D01*
X-15150Y-4619D01*
X-15159Y-4600D01*
X-15169Y-4590D01*
X-15188Y-4580D01*
X-15235Y-4580D01*
X-15264Y-4590D01*
X-15388Y-4580D02*
X-15426Y-4580D01*
X-15445Y-4590D01*
X-15464Y-4609D01*
X-15473Y-4647D01*
X-15473Y-4714D01*
X-15464Y-4752D01*
X-15445Y-4771D01*
X-15426Y-4780D01*
X-15388Y-4780D01*
X-15369Y-4771D01*
X-15350Y-4752D01*
X-15340Y-4714D01*
X-15340Y-4647D01*
X-15350Y-4609D01*
X-15369Y-4590D01*
X-15388Y-4580D01*
X-12633Y-4780D02*
X-12633Y-4580D01*
X-12680Y-4580D01*
X-12709Y-4590D01*
X-12728Y-4609D01*
X-12738Y-4628D01*
X-12747Y-4666D01*
X-12747Y-4695D01*
X-12738Y-4733D01*
X-12728Y-4752D01*
X-12709Y-4771D01*
X-12680Y-4780D01*
X-12633Y-4780D01*
X-12823Y-4723D02*
X-12919Y-4723D01*
X-12804Y-4780D02*
X-12871Y-4580D01*
X-12938Y-4780D01*
X-13004Y-4780D02*
X-13004Y-4580D01*
X-13090Y-4771D02*
X-13119Y-4780D01*
X-13166Y-4780D01*
X-13185Y-4771D01*
X-13195Y-4761D01*
X-13204Y-4742D01*
X-13204Y-4723D01*
X-13195Y-4704D01*
X-13185Y-4695D01*
X-13166Y-4685D01*
X-13128Y-4676D01*
X-13109Y-4666D01*
X-13100Y-4657D01*
X-13090Y-4638D01*
X-13090Y-4619D01*
X-13100Y-4600D01*
X-13109Y-4590D01*
X-13128Y-4580D01*
X-13176Y-4580D01*
X-13204Y-4590D01*
X-13328Y-4685D02*
X-13328Y-4780D01*
X-13261Y-4580D02*
X-13328Y-4685D01*
X-13395Y-4580D01*
X-14019Y-7783D02*
X-14219Y-7783D01*
X-14219Y-7830D01*
X-14209Y-7859D01*
X-14190Y-7878D01*
X-14171Y-7888D01*
X-14133Y-7897D01*
X-14104Y-7897D01*
X-14066Y-7888D01*
X-14047Y-7878D01*
X-14028Y-7859D01*
X-14019Y-7830D01*
X-14019Y-7783D01*
X-14076Y-7973D02*
X-14076Y-8069D01*
X-14019Y-7954D02*
X-14219Y-8021D01*
X-14019Y-8088D01*
X-14019Y-8154D02*
X-14219Y-8154D01*
X-14028Y-8240D02*
X-14019Y-8269D01*
X-14019Y-8316D01*
X-14028Y-8335D01*
X-14038Y-8345D01*
X-14057Y-8354D01*
X-14076Y-8354D01*
X-14095Y-8345D01*
X-14104Y-8335D01*
X-14114Y-8316D01*
X-14123Y-8278D01*
X-14133Y-8259D01*
X-14142Y-8250D01*
X-14161Y-8240D01*
X-14180Y-8240D01*
X-14200Y-8250D01*
X-14209Y-8259D01*
X-14219Y-8278D01*
X-14219Y-8326D01*
X-14209Y-8354D01*
X-14114Y-8478D02*
X-14019Y-8478D01*
X-14219Y-8411D02*
X-14114Y-8478D01*
X-14219Y-8545D01*
X-14019Y-5695D02*
X-14219Y-5695D01*
X-14076Y-5761D01*
X-14219Y-5828D01*
X-14019Y-5828D01*
X-14076Y-5914D02*
X-14076Y-6009D01*
X-14019Y-5895D02*
X-14219Y-5961D01*
X-14019Y-6028D01*
X-14019Y-6095D02*
X-14219Y-6095D01*
X-14019Y-6190D02*
X-14219Y-6190D01*
X-14019Y-6304D01*
X-14219Y-6304D01*
X-9485Y-8095D02*
X-9485Y-8004D01*
X-9485Y-8050D02*
X-9645Y-8050D01*
X-9622Y-8034D01*
X-9607Y-8019D01*
X-9599Y-8004D01*
X-9645Y-6542D02*
X-9645Y-6557D01*
X-9637Y-6572D01*
X-9630Y-6580D01*
X-9614Y-6588D01*
X-9584Y-6595D01*
X-9546Y-6595D01*
X-9515Y-6588D01*
X-9500Y-6580D01*
X-9492Y-6572D01*
X-9485Y-6557D01*
X-9485Y-6542D01*
X-9492Y-6527D01*
X-9500Y-6519D01*
X-9515Y-6511D01*
X-9546Y-6504D01*
X-9584Y-6504D01*
X-9614Y-6511D01*
X-9630Y-6519D01*
X-9637Y-6527D01*
X-9645Y-6542D01*
G54D12*
X-11450Y250D02*
X-11450Y2250D01*
X-15450Y250D02*
X-15450Y2250D01*
X-1450Y2250D02*
X-1450Y250D01*
X-1450Y250D02*
X-15450Y250D01*
X-15450Y2250D02*
X-1450Y2250D01*
X250Y-14250D02*
X250Y-3250D01*
X1250Y-14250D02*
X250Y-14250D01*
X1250Y-3250D02*
X1250Y-14250D01*
X1250Y-3250D02*
X1250Y-2250D01*
X250Y-3250D02*
X1250Y-3250D01*
X250Y-2250D02*
X250Y-3250D01*
X1250Y-2250D02*
X250Y-2250D01*
G54D13*
X-15961Y541D02*
X-15738Y541D01*
X-15850Y541D02*
X-15850Y932D01*
X-15812Y876D01*
X-15775Y839D01*
X-15738Y820D01*
X-15738Y1895D02*
X-15757Y1913D01*
X-15794Y1932D01*
X-15887Y1932D01*
X-15924Y1913D01*
X-15942Y1895D01*
X-15961Y1858D01*
X-15961Y1820D01*
X-15942Y1765D01*
X-15719Y1541D01*
X-15961Y1541D01*
X-24713Y-17079D02*
X-24732Y-17061D01*
X-24769Y-17042D01*
X-24862Y-17042D01*
X-24899Y-17061D01*
X-24917Y-17079D01*
X-24936Y-17116D01*
X-24936Y-17154D01*
X-24917Y-17209D01*
X-24694Y-17433D01*
X-24936Y-17433D01*
X-24936Y-18433D02*
X-24713Y-18433D01*
X-24825Y-18433D02*
X-24825Y-18042D01*
X-24787Y-18098D01*
X-24750Y-18135D01*
X-24713Y-18154D01*
X-711Y-17958D02*
X-711Y-17567D01*
X-860Y-17567D01*
X-897Y-17586D01*
X-916Y-17604D01*
X-934Y-17641D01*
X-934Y-17697D01*
X-916Y-17734D01*
X-897Y-17753D01*
X-860Y-17772D01*
X-711Y-17772D01*
X-1120Y-17958D02*
X-1195Y-17958D01*
X-1232Y-17939D01*
X-1251Y-17920D01*
X-1288Y-17865D01*
X-1306Y-17790D01*
X-1306Y-17641D01*
X-1288Y-17604D01*
X-1269Y-17586D01*
X-1232Y-17567D01*
X-1158Y-17567D01*
X-1120Y-17586D01*
X-1102Y-17604D01*
X-1083Y-17641D01*
X-1083Y-17734D01*
X-1102Y-17772D01*
X-1120Y-17790D01*
X-1158Y-17809D01*
X-1232Y-17809D01*
X-1269Y-17790D01*
X-1288Y-17772D01*
X-1306Y-17734D01*
X-636Y991D02*
X-636Y1382D01*
X-785Y1382D01*
X-822Y1363D01*
X-841Y1345D01*
X-859Y1308D01*
X-859Y1252D01*
X-841Y1215D01*
X-822Y1196D01*
X-785Y1177D01*
X-636Y1177D01*
X-1083Y1215D02*
X-1045Y1233D01*
X-1027Y1252D01*
X-1008Y1289D01*
X-1008Y1308D01*
X-1027Y1345D01*
X-1045Y1363D01*
X-1083Y1382D01*
X-1157Y1382D01*
X-1194Y1363D01*
X-1213Y1345D01*
X-1231Y1308D01*
X-1231Y1289D01*
X-1213Y1252D01*
X-1194Y1233D01*
X-1157Y1215D01*
X-1083Y1215D01*
X-1045Y1196D01*
X-1027Y1177D01*
X-1008Y1140D01*
X-1008Y1066D01*
X-1027Y1029D01*
X-1045Y1010D01*
X-1083Y991D01*
X-1157Y991D01*
X-1194Y1010D01*
X-1213Y1029D01*
X-1231Y1066D01*
X-1231Y1140D01*
X-1213Y1177D01*
X-1194Y1196D01*
X-1157Y1215D01*
G54D12*
X-1475Y-18800D02*
X-24575Y-18800D01*
X-1475Y-16700D02*
X-1475Y-18800D01*
X-24575Y-16700D02*
X-1475Y-16700D01*
X-24575Y-18800D02*
X-24575Y-16700D01*
G54D14*
X-30020Y-11903D02*
X-29992Y-11987D01*
X-29964Y-12015D01*
X-29907Y-12044D01*
X-29823Y-12044D01*
X-29767Y-12015D01*
X-29739Y-11987D01*
X-29710Y-11931D01*
X-29710Y-11706D01*
X-30301Y-11706D01*
X-30301Y-11903D01*
X-30273Y-11959D01*
X-30245Y-11987D01*
X-30189Y-12015D01*
X-30132Y-12015D01*
X-30076Y-11987D01*
X-30048Y-11959D01*
X-30020Y-11903D01*
X-30020Y-11706D01*
X-29710Y-12297D02*
X-30104Y-12297D01*
X-29992Y-12297D02*
X-30048Y-12325D01*
X-30076Y-12353D01*
X-30104Y-12409D01*
X-30104Y-12465D01*
X-29710Y-12915D02*
X-30020Y-12915D01*
X-30076Y-12887D01*
X-30104Y-12831D01*
X-30104Y-12719D01*
X-30076Y-12662D01*
X-29739Y-12915D02*
X-29710Y-12859D01*
X-29710Y-12719D01*
X-29739Y-12662D01*
X-29795Y-12634D01*
X-29851Y-12634D01*
X-29907Y-12662D01*
X-29935Y-12719D01*
X-29935Y-12859D01*
X-29964Y-12915D01*
X-29710Y-13197D02*
X-30104Y-13197D01*
X-30301Y-13197D02*
X-30273Y-13168D01*
X-30245Y-13197D01*
X-30273Y-13225D01*
X-30301Y-13197D01*
X-30245Y-13197D01*
X-30104Y-13478D02*
X-29710Y-13478D01*
X-30048Y-13478D02*
X-30076Y-13506D01*
X-30104Y-13562D01*
X-30104Y-13647D01*
X-30076Y-13703D01*
X-30020Y-13731D01*
X-29710Y-13731D01*
X-30020Y-14209D02*
X-29992Y-14293D01*
X-29964Y-14321D01*
X-29907Y-14350D01*
X-29823Y-14350D01*
X-29767Y-14321D01*
X-29739Y-14293D01*
X-29710Y-14237D01*
X-29710Y-14012D01*
X-30301Y-14012D01*
X-30301Y-14209D01*
X-30273Y-14265D01*
X-30245Y-14293D01*
X-30189Y-14321D01*
X-30132Y-14321D01*
X-30076Y-14293D01*
X-30048Y-14265D01*
X-30020Y-14209D01*
X-30020Y-14012D01*
X-29710Y-14687D02*
X-29739Y-14631D01*
X-29767Y-14603D01*
X-29823Y-14575D01*
X-29992Y-14575D01*
X-30048Y-14603D01*
X-30076Y-14631D01*
X-30104Y-14687D01*
X-30104Y-14771D01*
X-30076Y-14828D01*
X-30048Y-14856D01*
X-29992Y-14884D01*
X-29823Y-14884D01*
X-29767Y-14856D01*
X-29739Y-14828D01*
X-29710Y-14771D01*
X-29710Y-14687D01*
X-29710Y-15390D02*
X-30020Y-15390D01*
X-30076Y-15362D01*
X-30104Y-15306D01*
X-30104Y-15193D01*
X-30076Y-15137D01*
X-29739Y-15390D02*
X-29710Y-15334D01*
X-29710Y-15193D01*
X-29739Y-15137D01*
X-29795Y-15109D01*
X-29851Y-15109D01*
X-29907Y-15137D01*
X-29935Y-15193D01*
X-29935Y-15334D01*
X-29964Y-15390D01*
X-29710Y-15671D02*
X-30104Y-15671D01*
X-29992Y-15671D02*
X-30048Y-15699D01*
X-30076Y-15728D01*
X-30104Y-15784D01*
X-30104Y-15840D01*
X-29710Y-16290D02*
X-30301Y-16290D01*
X-29739Y-16290D02*
X-29710Y-16234D01*
X-29710Y-16121D01*
X-29739Y-16065D01*
X-29767Y-16037D01*
X-29823Y-16009D01*
X-29992Y-16009D01*
X-30048Y-16037D01*
X-30076Y-16065D01*
X-30104Y-16121D01*
X-30104Y-16234D01*
X-30076Y-16290D01*
X-29710Y-17359D02*
X-29992Y-17162D01*
X-29710Y-17021D02*
X-30301Y-17021D01*
X-30301Y-17246D01*
X-30273Y-17302D01*
X-30245Y-17330D01*
X-30189Y-17359D01*
X-30104Y-17359D01*
X-30048Y-17330D01*
X-30020Y-17302D01*
X-29992Y-17246D01*
X-29992Y-17021D01*
X-29710Y-17921D02*
X-29710Y-17584D01*
X-29710Y-17752D02*
X-30301Y-17752D01*
X-30217Y-17696D01*
X-30160Y-17640D01*
X-30132Y-17584D01*
G54D15*
X-23425Y-12300D02*
X-22625Y-12300D01*
X-22625Y-12300D02*
X-22625Y-13100D01*
X-23425Y-13100D02*
X-22625Y-13100D01*
X-23425Y-12300D02*
X-23425Y-13100D01*
G54D16*
X-22711Y-12307D02*
X-23339Y-12307D01*
X-23339Y-13093D02*
X-22711Y-13093D01*
X-22632Y-12975D02*
G75*
G02X-22710Y-13092I-97J-19D01*
G74*
G01*
X-23339Y-13093D02*
G75*
G02X-23418Y-12975I19J98D01*
G74*
G01*
X-23417Y-12424D02*
G75*
G02X-23339Y-12307I97J19D01*
G74*
G01*
X-22710Y-12306D02*
G75*
G02X-22631Y-12424I-19J-98D01*
G74*
G01*
G54D15*
X-23400Y-13300D02*
X-22600Y-13300D01*
X-22600Y-13300D02*
X-22600Y-14100D01*
X-23400Y-14100D02*
X-22600Y-14100D01*
X-23400Y-13300D02*
X-23400Y-14100D01*
G54D16*
X-22686Y-13307D02*
X-23314Y-13307D01*
X-23314Y-14093D02*
X-22686Y-14093D01*
X-22607Y-13975D02*
G75*
G02X-22685Y-14092I-97J-19D01*
G74*
G01*
X-23314Y-14093D02*
G75*
G02X-23393Y-13975I19J98D01*
G74*
G01*
X-23392Y-13424D02*
G75*
G02X-23314Y-13307I97J19D01*
G74*
G01*
X-22685Y-13306D02*
G75*
G02X-22606Y-13424I-19J-98D01*
G74*
G01*
G54D15*
X-4560Y-11600D02*
X-3890Y-11600D01*
X-3890Y-11600D02*
X-3890Y-12390D01*
X-4560Y-12390D02*
X-3890Y-12390D01*
X-4560Y-11600D02*
X-4560Y-12390D01*
G54D17*
X-3950Y-11600D02*
X-4950Y-11600D01*
X-3850Y-11700D02*
X-3850Y-12300D01*
X-5050Y-11700D02*
X-5050Y-12300D01*
X-4950Y-12400D02*
X-3950Y-12400D01*
G54D18*
X-4050Y-12200D02*
X-4525Y-12200D01*
X-4525Y-12200D02*
X-4525Y-11800D01*
X-4525Y-11800D02*
X-4050Y-11800D01*
X-4050Y-11800D02*
X-4050Y-12200D01*
G54D17*
X-3850Y-12300D02*
G75*
G02X-3950Y-12400I-100J0D01*
G74*
G01*
X-4950Y-12400D02*
G75*
G02X-5050Y-12300I0J100D01*
G74*
G01*
X-5050Y-11700D02*
G75*
G02X-4950Y-11600I100J0D01*
G74*
G01*
X-3950Y-11600D02*
G75*
G02X-3850Y-11700I0J-100D01*
G74*
G01*
X-24925Y-13800D02*
G75*
G03X-24925Y-13800I-100J0D01*
G74*
G01*
X-24025Y-13600D02*
X-25225Y-13600D01*
X-25225Y-13600D02*
X-25225Y-14800D01*
X-25225Y-14800D02*
X-24025Y-14800D01*
X-24025Y-14800D02*
X-24025Y-13600D01*
G54D16*
X-5711Y-11157D02*
X-6339Y-11157D01*
X-6339Y-11943D02*
X-5711Y-11943D01*
X-5632Y-11825D02*
G75*
G02X-5710Y-11942I-97J-19D01*
G74*
G01*
X-6339Y-11943D02*
G75*
G02X-6418Y-11825I19J98D01*
G74*
G01*
X-6417Y-11274D02*
G75*
G02X-6339Y-11157I97J19D01*
G74*
G01*
X-5710Y-11156D02*
G75*
G02X-5631Y-11274I-19J-98D01*
G74*
G01*
G54D18*
X-26425Y-15575D02*
X-25525Y-15575D01*
X-25525Y-15575D02*
X-25525Y-15075D01*
X-25525Y-15075D02*
X-26425Y-15075D01*
X-26425Y-15075D02*
X-26425Y-15575D01*
X-26425Y-13775D02*
X-25525Y-13775D01*
X-25525Y-13775D02*
X-25525Y-13275D01*
X-25525Y-13275D02*
X-26425Y-13275D01*
X-26425Y-13275D02*
X-26425Y-13775D01*
X-26425Y-14675D02*
X-25525Y-14675D01*
X-25525Y-14675D02*
X-25525Y-14175D01*
X-25525Y-14175D02*
X-26425Y-14175D01*
X-26425Y-14175D02*
X-26425Y-14675D01*
X-26425Y-12950D02*
X-25525Y-12950D01*
X-25525Y-12950D02*
X-25525Y-12450D01*
X-25525Y-12450D02*
X-26425Y-12450D01*
X-26425Y-12450D02*
X-26425Y-12950D01*
X-24763Y-300D02*
G75*
G03X-24763Y-300I-316J0D01*
G74*
G01*
X-2075Y-8850D02*
X-1775Y-8650D01*
X-2775Y-8850D02*
X-1750Y-8850D01*
X-1750Y-8850D02*
X-1750Y-8250D01*
X-1750Y-8250D02*
X-2775Y-8250D01*
X-2775Y-8250D02*
X-2775Y-8850D01*
X-2000Y-12400D02*
X-1700Y-12200D01*
X-2700Y-12400D02*
X-1675Y-12400D01*
X-1675Y-12400D02*
X-1675Y-11800D01*
X-1675Y-11800D02*
X-2700Y-11800D01*
X-2700Y-11800D02*
X-2700Y-12400D01*
X-2075Y-4700D02*
X-1775Y-4500D01*
X-2775Y-4700D02*
X-1750Y-4700D01*
X-1750Y-4700D02*
X-1750Y-4100D01*
X-1750Y-4100D02*
X-2775Y-4100D01*
X-2775Y-4100D02*
X-2775Y-4700D01*
G54D15*
X-16500Y-11470D02*
X-17170Y-11470D01*
X-17170Y-11470D02*
X-17170Y-10680D01*
X-16500Y-10680D02*
X-17170Y-10680D01*
X-16500Y-11470D02*
X-16500Y-10680D01*
G54D17*
X-17110Y-11470D02*
X-16110Y-11470D01*
X-17210Y-11370D02*
X-17210Y-10770D01*
X-16010Y-11370D02*
X-16010Y-10770D01*
X-16110Y-10670D02*
X-17110Y-10670D01*
G54D18*
X-17010Y-10870D02*
X-16535Y-10870D01*
X-16535Y-10870D02*
X-16535Y-11270D01*
X-16535Y-11270D02*
X-17010Y-11270D01*
X-17010Y-11270D02*
X-17010Y-10870D01*
G54D17*
X-17210Y-10770D02*
G75*
G02X-17110Y-10670I100J0D01*
G74*
G01*
X-16110Y-10670D02*
G75*
G02X-16010Y-10770I0J-100D01*
G74*
G01*
X-16010Y-11370D02*
G75*
G02X-16110Y-11470I-100J0D01*
G74*
G01*
X-17110Y-11470D02*
G75*
G02X-17210Y-11370I0J100D01*
G74*
G01*
G54D18*
X-24280Y-160D02*
X-24280Y-1060D01*
X-24280Y-1060D02*
X-23780Y-1060D01*
X-23780Y-1060D02*
X-23780Y-160D01*
X-23780Y-160D02*
X-24280Y-160D01*
G54D19*
X-3094Y-8772D02*
X-3094Y-9047D01*
X-3094Y-8378D02*
X-3094Y-8103D01*
X-3606Y-8772D02*
X-3606Y-9047D01*
X-3606Y-8103D02*
X-3606Y-8378D01*
X-3600Y-9047D02*
X-3100Y-9047D01*
X-3100Y-8103D02*
X-3600Y-8103D01*
X-3094Y-4597D02*
X-3094Y-4872D01*
X-3094Y-4203D02*
X-3094Y-3928D01*
X-3606Y-4597D02*
X-3606Y-4872D01*
X-3606Y-3928D02*
X-3606Y-4203D01*
X-3600Y-4872D02*
X-3100Y-4872D01*
X-3100Y-3928D02*
X-3600Y-3928D01*
X-3069Y-12322D02*
X-3069Y-12597D01*
X-3069Y-11928D02*
X-3069Y-11653D01*
X-3581Y-12322D02*
X-3581Y-12597D01*
X-3581Y-11653D02*
X-3581Y-11928D01*
X-3575Y-12597D02*
X-3075Y-12597D01*
X-3075Y-11653D02*
X-3575Y-11653D01*
G54D20*
X-13273Y-3173D02*
X-11226Y-3173D01*
X-11226Y-3173D02*
X-11226Y-1126D01*
X-11226Y-1126D02*
X-13273Y-1126D01*
X-13273Y-1126D02*
X-13273Y-3173D01*
X-13769Y-1319D02*
X-13942Y-1319D01*
X-14120Y-1736D02*
X-14068Y-1768D01*
X-14068Y-1768D02*
X-14005Y-1819D01*
X-14005Y-1819D02*
X-13950Y-1886D01*
X-13950Y-1886D02*
X-13938Y-1921D01*
X-13938Y-1921D02*
X-13938Y-1319D01*
X-13938Y-1319D02*
X-14112Y-1319D01*
X-13549Y-1598D02*
X-13549Y-1677D01*
X-13588Y-1677D02*
X-13588Y-1598D01*
X-13627Y-1559D02*
X-13627Y-1716D01*
X-13667Y-1716D02*
X-13667Y-1559D01*
X-13706Y-1520D02*
X-13706Y-1756D01*
X-13431Y-1638D02*
X-13746Y-1480D01*
X-13746Y-1480D02*
X-13746Y-1795D01*
X-13746Y-1795D02*
X-13431Y-1638D01*
G54D15*
X-14225Y-7160D02*
X-14225Y-6490D01*
X-14225Y-6490D02*
X-13435Y-6490D01*
X-13435Y-7160D02*
X-13435Y-6490D01*
X-14225Y-7160D02*
X-13435Y-7160D01*
G54D17*
X-14225Y-6550D02*
X-14225Y-7550D01*
X-14125Y-6450D02*
X-13525Y-6450D01*
X-14125Y-7650D02*
X-13525Y-7650D01*
X-13425Y-7550D02*
X-13425Y-6550D01*
G54D18*
X-13625Y-6650D02*
X-13625Y-7125D01*
X-13625Y-7125D02*
X-14025Y-7125D01*
X-14025Y-7125D02*
X-14025Y-6650D01*
X-14025Y-6650D02*
X-13625Y-6650D01*
G54D17*
X-13525Y-6450D02*
G75*
G02X-13425Y-6550I0J-100D01*
G74*
G01*
X-13425Y-7550D02*
G75*
G02X-13525Y-7650I-100J0D01*
G74*
G01*
X-14125Y-7650D02*
G75*
G02X-14225Y-7550I0J100D01*
G74*
G01*
X-14225Y-6550D02*
G75*
G02X-14125Y-6450I100J0D01*
G74*
G01*
G54D15*
X-13990Y-4775D02*
X-14660Y-4775D01*
X-14660Y-4775D02*
X-14660Y-3985D01*
X-13990Y-3985D02*
X-14660Y-3985D01*
X-13990Y-4775D02*
X-13990Y-3985D01*
G54D17*
X-14600Y-4775D02*
X-13600Y-4775D01*
X-14700Y-4675D02*
X-14700Y-4075D01*
X-13500Y-4675D02*
X-13500Y-4075D01*
X-13600Y-3975D02*
X-14600Y-3975D01*
G54D18*
X-14500Y-4175D02*
X-14025Y-4175D01*
X-14025Y-4175D02*
X-14025Y-4575D01*
X-14025Y-4575D02*
X-14500Y-4575D01*
X-14500Y-4575D02*
X-14500Y-4175D01*
G54D17*
X-14700Y-4075D02*
G75*
G02X-14600Y-3975I100J0D01*
G74*
G01*
X-13600Y-3975D02*
G75*
G02X-13500Y-4075I0J-100D01*
G74*
G01*
X-13500Y-4675D02*
G75*
G02X-13600Y-4775I-100J0D01*
G74*
G01*
X-14600Y-4775D02*
G75*
G02X-14700Y-4675I0J100D01*
G74*
G01*
G54D15*
X-13990Y-1050D02*
X-14660Y-1050D01*
X-14660Y-1050D02*
X-14660Y-260D01*
X-13990Y-260D02*
X-14660Y-260D01*
X-13990Y-1050D02*
X-13990Y-260D01*
G54D17*
X-14600Y-1050D02*
X-13600Y-1050D01*
X-14700Y-950D02*
X-14700Y-350D01*
X-13500Y-950D02*
X-13500Y-350D01*
X-13600Y-250D02*
X-14600Y-250D01*
G54D18*
X-14500Y-450D02*
X-14025Y-450D01*
X-14025Y-450D02*
X-14025Y-850D01*
X-14025Y-850D02*
X-14500Y-850D01*
X-14500Y-850D02*
X-14500Y-450D01*
G54D17*
X-14700Y-350D02*
G75*
G02X-14600Y-250I100J0D01*
G74*
G01*
X-13600Y-250D02*
G75*
G02X-13500Y-350I0J-100D01*
G74*
G01*
X-13500Y-950D02*
G75*
G02X-13600Y-1050I-100J0D01*
G74*
G01*
X-14600Y-1050D02*
G75*
G02X-14700Y-950I0J100D01*
G74*
G01*
G54D15*
X-9675Y-7870D02*
X-9675Y-7190D01*
X-9675Y-7190D02*
X-8905Y-7190D01*
X-8905Y-7870D02*
X-8905Y-7190D01*
X-9675Y-7870D02*
X-8905Y-7870D01*
G54D17*
X-9675Y-6800D02*
X-9675Y-7800D01*
X-9575Y-6700D02*
X-8975Y-6700D01*
X-9575Y-7900D02*
X-8975Y-7900D01*
X-8875Y-7800D02*
X-8875Y-6800D01*
G54D18*
X-9075Y-7225D02*
X-9075Y-7700D01*
X-9075Y-7700D02*
X-9475Y-7700D01*
X-9475Y-7700D02*
X-9475Y-7225D01*
X-9475Y-7225D02*
X-9075Y-7225D01*
G54D17*
X-8975Y-6700D02*
G75*
G02X-8875Y-6800I0J-100D01*
G74*
G01*
X-8875Y-7800D02*
G75*
G02X-8975Y-7900I-100J0D01*
G74*
G01*
X-9575Y-7900D02*
G75*
G02X-9675Y-7800I0J100D01*
G74*
G01*
X-9675Y-6800D02*
G75*
G02X-9575Y-6700I100J0D01*
G74*
G01*
G54D21*
X-23542Y-12732D02*
X-23565Y-12739D01*
X-23603Y-12739D01*
X-23618Y-12732D01*
X-23625Y-12724D01*
X-23633Y-12709D01*
X-23633Y-12694D01*
X-23625Y-12678D01*
X-23618Y-12671D01*
X-23603Y-12663D01*
X-23572Y-12655D01*
X-23557Y-12648D01*
X-23549Y-12640D01*
X-23542Y-12625D01*
X-23542Y-12610D01*
X-23549Y-12595D01*
X-23557Y-12587D01*
X-23572Y-12579D01*
X-23610Y-12579D01*
X-23633Y-12587D01*
X-23747Y-12579D02*
X-23747Y-12694D01*
X-23740Y-12716D01*
X-23725Y-12732D01*
X-23702Y-12739D01*
X-23686Y-12739D01*
X-23892Y-12633D02*
X-23892Y-12739D01*
X-23854Y-12572D02*
X-23816Y-12686D01*
X-23915Y-12686D01*
X-22160Y-12719D02*
X-22236Y-12719D01*
X-22145Y-12764D02*
X-22198Y-12604D01*
X-22252Y-12764D01*
X-22297Y-12620D02*
X-22305Y-12612D01*
X-22320Y-12604D01*
X-22358Y-12604D01*
X-22374Y-12612D01*
X-22381Y-12620D01*
X-22389Y-12635D01*
X-22389Y-12650D01*
X-22381Y-12673D01*
X-22290Y-12764D01*
X-22389Y-12764D01*
X-22792Y-14407D02*
X-22815Y-14414D01*
X-22853Y-14414D01*
X-22868Y-14407D01*
X-22875Y-14399D01*
X-22883Y-14384D01*
X-22883Y-14369D01*
X-22875Y-14353D01*
X-22868Y-14346D01*
X-22853Y-14338D01*
X-22822Y-14330D01*
X-22807Y-14323D01*
X-22799Y-14315D01*
X-22792Y-14300D01*
X-22792Y-14285D01*
X-22799Y-14270D01*
X-22807Y-14262D01*
X-22822Y-14254D01*
X-22860Y-14254D01*
X-22883Y-14262D01*
X-22997Y-14254D02*
X-22997Y-14369D01*
X-22990Y-14391D01*
X-22975Y-14407D01*
X-22952Y-14414D01*
X-22936Y-14414D01*
X-23150Y-14254D02*
X-23074Y-14254D01*
X-23066Y-14330D01*
X-23074Y-14323D01*
X-23089Y-14315D01*
X-23127Y-14315D01*
X-23142Y-14323D01*
X-23150Y-14330D01*
X-23157Y-14346D01*
X-23157Y-14384D01*
X-23150Y-14399D01*
X-23142Y-14407D01*
X-23127Y-14414D01*
X-23089Y-14414D01*
X-23074Y-14407D01*
X-23066Y-14399D01*
X-22160Y-13694D02*
X-22236Y-13694D01*
X-22145Y-13739D02*
X-22198Y-13579D01*
X-22252Y-13739D01*
X-22389Y-13739D02*
X-22297Y-13739D01*
X-22343Y-13739D02*
X-22343Y-13579D01*
X-22328Y-13602D01*
X-22313Y-13617D01*
X-22297Y-13625D01*
X-4267Y-11457D02*
X-4290Y-11464D01*
X-4328Y-11464D01*
X-4343Y-11457D01*
X-4350Y-11449D01*
X-4358Y-11434D01*
X-4358Y-11419D01*
X-4350Y-11403D01*
X-4343Y-11396D01*
X-4328Y-11388D01*
X-4297Y-11380D01*
X-4282Y-11373D01*
X-4274Y-11365D01*
X-4267Y-11350D01*
X-4267Y-11335D01*
X-4274Y-11320D01*
X-4282Y-11312D01*
X-4297Y-11304D01*
X-4335Y-11304D01*
X-4358Y-11312D01*
X-4472Y-11304D02*
X-4472Y-11419D01*
X-4465Y-11441D01*
X-4450Y-11457D01*
X-4427Y-11464D01*
X-4411Y-11464D01*
X-4632Y-11464D02*
X-4541Y-11464D01*
X-4587Y-11464D02*
X-4587Y-11304D01*
X-4571Y-11327D01*
X-4556Y-11342D01*
X-4541Y-11350D01*
X-3947Y-12664D02*
X-3893Y-12588D01*
X-3855Y-12664D02*
X-3855Y-12504D01*
X-3916Y-12504D01*
X-3931Y-12512D01*
X-3939Y-12520D01*
X-3947Y-12535D01*
X-3947Y-12558D01*
X-3939Y-12573D01*
X-3931Y-12580D01*
X-3916Y-12588D01*
X-3855Y-12588D01*
X-4015Y-12580D02*
X-4069Y-12580D01*
X-4091Y-12664D02*
X-4015Y-12664D01*
X-4015Y-12504D01*
X-4091Y-12504D01*
X-4213Y-12580D02*
X-4160Y-12580D01*
X-4160Y-12664D02*
X-4160Y-12504D01*
X-4236Y-12504D01*
X-4297Y-12603D02*
X-4419Y-12603D01*
X-4488Y-12657D02*
X-4510Y-12664D01*
X-4549Y-12664D01*
X-4564Y-12657D01*
X-4571Y-12649D01*
X-4579Y-12634D01*
X-4579Y-12619D01*
X-4571Y-12603D01*
X-4564Y-12596D01*
X-4549Y-12588D01*
X-4518Y-12580D01*
X-4503Y-12573D01*
X-4495Y-12565D01*
X-4488Y-12550D01*
X-4488Y-12535D01*
X-4495Y-12520D01*
X-4503Y-12512D01*
X-4518Y-12504D01*
X-4556Y-12504D01*
X-4579Y-12512D01*
X-4739Y-12664D02*
X-4686Y-12588D01*
X-4648Y-12664D02*
X-4648Y-12504D01*
X-4709Y-12504D01*
X-4724Y-12512D01*
X-4731Y-12520D01*
X-4739Y-12535D01*
X-4739Y-12558D01*
X-4731Y-12573D01*
X-4724Y-12580D01*
X-4709Y-12588D01*
X-4648Y-12588D01*
X-4861Y-12580D02*
X-4884Y-12588D01*
X-4891Y-12596D01*
X-4899Y-12611D01*
X-4899Y-12634D01*
X-4891Y-12649D01*
X-4884Y-12657D01*
X-4869Y-12664D01*
X-4808Y-12664D01*
X-4808Y-12504D01*
X-4861Y-12504D01*
X-4876Y-12512D01*
X-4884Y-12520D01*
X-4891Y-12535D01*
X-4891Y-12550D01*
X-4884Y-12565D01*
X-4876Y-12573D01*
X-4861Y-12580D01*
X-4808Y-12580D01*
X-4960Y-12520D02*
X-4968Y-12512D01*
X-4983Y-12504D01*
X-5021Y-12504D01*
X-5036Y-12512D01*
X-5044Y-12520D01*
X-5051Y-12535D01*
X-5051Y-12550D01*
X-5044Y-12573D01*
X-4952Y-12664D01*
X-5051Y-12664D01*
G54D17*
X-24295Y-12261D02*
X-24295Y-12585D01*
X-24314Y-12623D01*
X-24333Y-12642D01*
X-24371Y-12661D01*
X-24447Y-12661D01*
X-24485Y-12642D01*
X-24504Y-12623D01*
X-24523Y-12585D01*
X-24523Y-12261D01*
X-24923Y-12661D02*
X-24695Y-12661D01*
X-24809Y-12661D02*
X-24809Y-12261D01*
X-24771Y-12319D01*
X-24733Y-12357D01*
X-24695Y-12376D01*
G54D21*
X-5800Y-12187D02*
X-5823Y-12194D01*
X-5861Y-12194D01*
X-5876Y-12187D01*
X-5883Y-12179D01*
X-5891Y-12164D01*
X-5891Y-12149D01*
X-5883Y-12133D01*
X-5876Y-12126D01*
X-5861Y-12118D01*
X-5830Y-12110D01*
X-5815Y-12103D01*
X-5807Y-12095D01*
X-5800Y-12080D01*
X-5800Y-12065D01*
X-5807Y-12050D01*
X-5815Y-12042D01*
X-5830Y-12034D01*
X-5868Y-12034D01*
X-5891Y-12042D01*
X-6005Y-12034D02*
X-6005Y-12149D01*
X-5998Y-12171D01*
X-5983Y-12187D01*
X-5960Y-12194D01*
X-5944Y-12194D01*
X-6066Y-12034D02*
X-6165Y-12034D01*
X-6112Y-12095D01*
X-6135Y-12095D01*
X-6150Y-12103D01*
X-6158Y-12110D01*
X-6165Y-12126D01*
X-6165Y-12164D01*
X-6158Y-12179D01*
X-6150Y-12187D01*
X-6135Y-12194D01*
X-6089Y-12194D01*
X-6074Y-12187D01*
X-6066Y-12179D01*
X-5253Y-10764D02*
X-5253Y-10604D01*
X-5344Y-10764D01*
X-5344Y-10604D01*
X-5451Y-10604D02*
X-5481Y-10604D01*
X-5497Y-10612D01*
X-5512Y-10627D01*
X-5520Y-10658D01*
X-5520Y-10711D01*
X-5512Y-10741D01*
X-5497Y-10757D01*
X-5481Y-10764D01*
X-5451Y-10764D01*
X-5436Y-10757D01*
X-5420Y-10741D01*
X-5413Y-10711D01*
X-5413Y-10658D01*
X-5420Y-10627D01*
X-5436Y-10612D01*
X-5451Y-10604D01*
X-5763Y-10680D02*
X-5786Y-10688D01*
X-5794Y-10696D01*
X-5801Y-10711D01*
X-5801Y-10734D01*
X-5794Y-10749D01*
X-5786Y-10757D01*
X-5771Y-10764D01*
X-5710Y-10764D01*
X-5710Y-10604D01*
X-5763Y-10604D01*
X-5779Y-10612D01*
X-5786Y-10620D01*
X-5794Y-10635D01*
X-5794Y-10650D01*
X-5786Y-10665D01*
X-5779Y-10673D01*
X-5763Y-10680D01*
X-5710Y-10680D01*
X-5870Y-10764D02*
X-5870Y-10604D01*
X-5939Y-10719D02*
X-6015Y-10719D01*
X-5923Y-10764D02*
X-5977Y-10604D01*
X-6030Y-10764D01*
X-6076Y-10757D02*
X-6099Y-10764D01*
X-6137Y-10764D01*
X-6152Y-10757D01*
X-6160Y-10749D01*
X-6167Y-10734D01*
X-6167Y-10719D01*
X-6160Y-10703D01*
X-6152Y-10696D01*
X-6137Y-10688D01*
X-6106Y-10680D01*
X-6091Y-10673D01*
X-6083Y-10665D01*
X-6076Y-10650D01*
X-6076Y-10635D01*
X-6083Y-10620D01*
X-6091Y-10612D01*
X-6106Y-10604D01*
X-6144Y-10604D01*
X-6167Y-10612D01*
X-6411Y-10680D02*
X-6358Y-10680D01*
X-6358Y-10764D02*
X-6358Y-10604D01*
X-6434Y-10604D01*
X-6495Y-10764D02*
X-6495Y-10604D01*
X-6647Y-10764D02*
X-6571Y-10764D01*
X-6571Y-10604D01*
X-6678Y-10604D02*
X-6769Y-10604D01*
X-6723Y-10764D02*
X-6723Y-10604D01*
G54D22*
X-26670Y-15405D02*
X-26610Y-15310D01*
X-26567Y-15405D02*
X-26567Y-15205D01*
X-26635Y-15205D01*
X-26652Y-15215D01*
X-26661Y-15225D01*
X-26670Y-15244D01*
X-26670Y-15272D01*
X-26661Y-15291D01*
X-26652Y-15301D01*
X-26635Y-15310D01*
X-26567Y-15310D01*
X-26824Y-15272D02*
X-26824Y-15405D01*
X-26781Y-15196D02*
X-26738Y-15339D01*
X-26850Y-15339D01*
X-25945Y-13605D02*
X-25885Y-13510D01*
X-25842Y-13605D02*
X-25842Y-13405D01*
X-25910Y-13405D01*
X-25927Y-13415D01*
X-25936Y-13425D01*
X-25945Y-13444D01*
X-25945Y-13472D01*
X-25936Y-13491D01*
X-25927Y-13501D01*
X-25910Y-13510D01*
X-25842Y-13510D01*
X-26013Y-13425D02*
X-26022Y-13415D01*
X-26039Y-13405D01*
X-26082Y-13405D01*
X-26099Y-13415D01*
X-26107Y-13425D01*
X-26116Y-13444D01*
X-26116Y-13463D01*
X-26107Y-13491D01*
X-26005Y-13605D01*
X-26116Y-13605D01*
X-26670Y-14505D02*
X-26610Y-14410D01*
X-26567Y-14505D02*
X-26567Y-14305D01*
X-26635Y-14305D01*
X-26652Y-14315D01*
X-26661Y-14325D01*
X-26670Y-14344D01*
X-26670Y-14372D01*
X-26661Y-14391D01*
X-26652Y-14401D01*
X-26635Y-14410D01*
X-26567Y-14410D01*
X-26730Y-14305D02*
X-26841Y-14305D01*
X-26781Y-14382D01*
X-26807Y-14382D01*
X-26824Y-14391D01*
X-26832Y-14401D01*
X-26841Y-14420D01*
X-26841Y-14467D01*
X-26832Y-14486D01*
X-26824Y-14496D01*
X-26807Y-14505D01*
X-26755Y-14505D01*
X-26738Y-14496D01*
X-26730Y-14486D01*
X-26645Y-12780D02*
X-26585Y-12685D01*
X-26542Y-12780D02*
X-26542Y-12580D01*
X-26610Y-12580D01*
X-26627Y-12590D01*
X-26636Y-12600D01*
X-26645Y-12619D01*
X-26645Y-12647D01*
X-26636Y-12666D01*
X-26627Y-12676D01*
X-26610Y-12685D01*
X-26542Y-12685D01*
X-26816Y-12780D02*
X-26713Y-12780D01*
X-26765Y-12780D02*
X-26765Y-12580D01*
X-26747Y-12609D01*
X-26730Y-12628D01*
X-26713Y-12638D01*
G54D18*
X-24932Y118D02*
X-24932Y318D01*
X-25008Y318D01*
X-25027Y308D01*
X-25037Y299D01*
X-25046Y279D01*
X-25046Y251D01*
X-25037Y232D01*
X-25027Y222D01*
X-25008Y213D01*
X-24932Y213D01*
X-25218Y251D02*
X-25218Y118D01*
X-25170Y327D02*
X-25122Y184D01*
X-25246Y184D01*
X-24683Y-1002D02*
X-24740Y-1021D01*
X-24759Y-1040D01*
X-24778Y-1078D01*
X-24778Y-1135D01*
X-24759Y-1173D01*
X-24740Y-1192D01*
X-24702Y-1211D01*
X-24550Y-1211D01*
X-24550Y-811D01*
X-24683Y-811D01*
X-24721Y-830D01*
X-24740Y-850D01*
X-24759Y-888D01*
X-24759Y-926D01*
X-24740Y-964D01*
X-24721Y-983D01*
X-24683Y-1002D01*
X-24550Y-1002D01*
X-24892Y-811D02*
X-25121Y-811D01*
X-25007Y-1211D02*
X-25007Y-811D01*
X-25483Y-1211D02*
X-25350Y-1021D01*
X-25254Y-1211D02*
X-25254Y-811D01*
X-25407Y-811D01*
X-25445Y-830D01*
X-25464Y-850D01*
X-25483Y-888D01*
X-25483Y-945D01*
X-25464Y-983D01*
X-25445Y-1002D01*
X-25407Y-1021D01*
X-25254Y-1021D01*
X-25635Y-1192D02*
X-25692Y-1211D01*
X-25788Y-1211D01*
X-25826Y-1192D01*
X-25845Y-1173D01*
X-25864Y-1135D01*
X-25864Y-1097D01*
X-25845Y-1059D01*
X-25826Y-1040D01*
X-25788Y-1021D01*
X-25711Y-1002D01*
X-25673Y-983D01*
X-25654Y-964D01*
X-25635Y-926D01*
X-25635Y-888D01*
X-25654Y-850D01*
X-25673Y-830D01*
X-25711Y-811D01*
X-25807Y-811D01*
X-25864Y-830D01*
X-25978Y-811D02*
X-26207Y-811D01*
X-26092Y-1211D02*
X-26092Y-811D01*
G54D23*
X-1578Y-8771D02*
X-1335Y-8771D01*
X-1307Y-8785D01*
X-1292Y-8800D01*
X-1278Y-8828D01*
X-1278Y-8885D01*
X-1292Y-8914D01*
X-1307Y-8928D01*
X-1335Y-8942D01*
X-1578Y-8942D01*
X-1578Y-9214D02*
X-1578Y-9157D01*
X-1564Y-9128D01*
X-1550Y-9114D01*
X-1507Y-9085D01*
X-1450Y-9071D01*
X-1335Y-9071D01*
X-1307Y-9085D01*
X-1292Y-9100D01*
X-1278Y-9128D01*
X-1278Y-9185D01*
X-1292Y-9214D01*
X-1307Y-9228D01*
X-1335Y-9242D01*
X-1407Y-9242D01*
X-1435Y-9228D01*
X-1450Y-9214D01*
X-1464Y-9185D01*
X-1464Y-9128D01*
X-1450Y-9100D01*
X-1435Y-9085D01*
X-1407Y-9071D01*
X-1528Y-12321D02*
X-1285Y-12321D01*
X-1257Y-12335D01*
X-1242Y-12350D01*
X-1228Y-12378D01*
X-1228Y-12435D01*
X-1242Y-12464D01*
X-1257Y-12478D01*
X-1285Y-12492D01*
X-1528Y-12492D01*
X-1528Y-12607D02*
X-1528Y-12807D01*
X-1228Y-12678D01*
X-1578Y-4571D02*
X-1335Y-4571D01*
X-1307Y-4585D01*
X-1292Y-4600D01*
X-1278Y-4628D01*
X-1278Y-4685D01*
X-1292Y-4714D01*
X-1307Y-4728D01*
X-1335Y-4742D01*
X-1578Y-4742D01*
X-1578Y-5028D02*
X-1578Y-4885D01*
X-1435Y-4871D01*
X-1450Y-4885D01*
X-1464Y-4914D01*
X-1464Y-4985D01*
X-1450Y-5014D01*
X-1435Y-5028D01*
X-1407Y-5042D01*
X-1335Y-5042D01*
X-1307Y-5028D01*
X-1292Y-5014D01*
X-1278Y-4985D01*
X-1278Y-4914D01*
X-1292Y-4885D01*
X-1307Y-4871D01*
G54D21*
X-16327Y-10547D02*
X-16350Y-10554D01*
X-16388Y-10554D01*
X-16403Y-10547D01*
X-16410Y-10539D01*
X-16418Y-10524D01*
X-16418Y-10509D01*
X-16410Y-10493D01*
X-16403Y-10486D01*
X-16388Y-10478D01*
X-16357Y-10470D01*
X-16342Y-10463D01*
X-16334Y-10455D01*
X-16327Y-10440D01*
X-16327Y-10425D01*
X-16334Y-10410D01*
X-16342Y-10402D01*
X-16357Y-10394D01*
X-16395Y-10394D01*
X-16418Y-10402D01*
X-16532Y-10394D02*
X-16532Y-10509D01*
X-16525Y-10531D01*
X-16510Y-10547D01*
X-16487Y-10554D01*
X-16471Y-10554D01*
X-16616Y-10554D02*
X-16647Y-10554D01*
X-16662Y-10547D01*
X-16670Y-10539D01*
X-16685Y-10516D01*
X-16692Y-10486D01*
X-16692Y-10425D01*
X-16685Y-10410D01*
X-16677Y-10402D01*
X-16662Y-10394D01*
X-16631Y-10394D01*
X-16616Y-10402D01*
X-16609Y-10410D01*
X-16601Y-10425D01*
X-16601Y-10463D01*
X-16609Y-10478D01*
X-16616Y-10486D01*
X-16631Y-10493D01*
X-16662Y-10493D01*
X-16677Y-10486D01*
X-16685Y-10478D01*
X-16692Y-10463D01*
G54D24*
X-16521Y-11069D02*
X-16521Y-11062D01*
X-16524Y-11063D02*
X-16524Y-11063D01*
X-16525Y-11062D01*
X-16526Y-11062D01*
X-16527Y-11063D01*
X-16527Y-11063D01*
X-16528Y-11064D01*
X-16528Y-11064D01*
X-16527Y-11065D01*
X-16523Y-11069D01*
X-16528Y-11069D01*
X-16535Y-11069D02*
X-16534Y-11069D01*
X-16533Y-11069D01*
X-16533Y-11069D01*
X-16532Y-11069D01*
X-16531Y-11068D01*
X-16531Y-11068D01*
X-16530Y-11066D01*
X-16530Y-11065D01*
X-16531Y-11064D01*
X-16531Y-11063D01*
X-16532Y-11063D01*
X-16533Y-11062D01*
X-16533Y-11062D01*
X-16534Y-11063D01*
X-16535Y-11063D01*
X-16543Y-11067D02*
X-16546Y-11067D01*
X-16542Y-11069D02*
X-16544Y-11062D01*
X-16547Y-11069D01*
X-16552Y-11069D02*
X-16552Y-11062D01*
X-16552Y-11069D02*
X-16551Y-11069D01*
X-16550Y-11069D01*
X-16549Y-11069D01*
X-16549Y-11069D01*
X-16549Y-11068D01*
X-16549Y-11066D01*
X-16549Y-11065D01*
X-16549Y-11065D01*
X-16550Y-11065D01*
X-16551Y-11065D01*
X-16552Y-11065D01*
X-16558Y-11069D02*
X-16558Y-11062D01*
X-16558Y-11069D02*
X-16558Y-11069D01*
X-16556Y-11069D01*
X-16556Y-11069D01*
X-16555Y-11069D01*
X-16555Y-11068D01*
X-16555Y-11066D01*
X-16555Y-11065D01*
X-16556Y-11065D01*
X-16556Y-11065D01*
X-16558Y-11065D01*
X-16558Y-11065D01*
X-16562Y-11069D02*
X-16562Y-11065D01*
X-16562Y-11066D02*
X-16562Y-11065D01*
X-16562Y-11065D01*
X-16563Y-11065D01*
X-16564Y-11065D01*
X-16569Y-11069D02*
X-16568Y-11069D01*
X-16567Y-11069D01*
X-16566Y-11069D01*
X-16566Y-11068D01*
X-16566Y-11066D01*
X-16566Y-11065D01*
X-16567Y-11065D01*
X-16568Y-11065D01*
X-16569Y-11065D01*
X-16569Y-11066D01*
X-16569Y-11066D01*
X-16566Y-11067D01*
X-16572Y-11069D02*
X-16572Y-11069D01*
X-16574Y-11069D01*
X-16574Y-11069D01*
X-16575Y-11068D01*
X-16575Y-11068D01*
X-16574Y-11067D01*
X-16574Y-11067D01*
X-16573Y-11067D01*
X-16572Y-11067D01*
X-16572Y-11066D01*
X-16572Y-11066D01*
X-16572Y-11065D01*
X-16573Y-11065D01*
X-16574Y-11065D01*
X-16574Y-11065D01*
X-16577Y-11069D02*
X-16578Y-11069D01*
X-16579Y-11069D01*
X-16580Y-11069D01*
X-16580Y-11068D01*
X-16580Y-11068D01*
X-16580Y-11067D01*
X-16579Y-11067D01*
X-16578Y-11067D01*
X-16578Y-11067D01*
X-16577Y-11066D01*
X-16577Y-11066D01*
X-16578Y-11065D01*
X-16578Y-11065D01*
X-16579Y-11065D01*
X-16580Y-11065D01*
X-16588Y-11069D02*
X-16589Y-11069D01*
X-16591Y-11069D01*
X-16592Y-11069D01*
X-16592Y-11069D01*
X-16592Y-11068D01*
X-16592Y-11067D01*
X-16592Y-11067D01*
X-16592Y-11066D01*
X-16591Y-11066D01*
X-16590Y-11066D01*
X-16589Y-11065D01*
X-16589Y-11065D01*
X-16588Y-11064D01*
X-16588Y-11064D01*
X-16589Y-11063D01*
X-16589Y-11063D01*
X-16590Y-11062D01*
X-16591Y-11062D01*
X-16592Y-11063D01*
X-16598Y-11069D02*
X-16597Y-11069D01*
X-16596Y-11069D01*
X-16595Y-11069D01*
X-16595Y-11068D01*
X-16595Y-11066D01*
X-16595Y-11065D01*
X-16596Y-11065D01*
X-16597Y-11065D01*
X-16598Y-11065D01*
X-16598Y-11066D01*
X-16598Y-11066D01*
X-16595Y-11067D01*
X-16602Y-11069D02*
X-16602Y-11069D01*
X-16601Y-11068D01*
X-16601Y-11062D01*
X-16608Y-11069D02*
X-16607Y-11069D01*
X-16606Y-11069D01*
X-16605Y-11069D01*
X-16605Y-11068D01*
X-16605Y-11066D01*
X-16605Y-11065D01*
X-16606Y-11065D01*
X-16607Y-11065D01*
X-16608Y-11065D01*
X-16608Y-11066D01*
X-16608Y-11066D01*
X-16605Y-11067D01*
X-16614Y-11069D02*
X-16613Y-11069D01*
X-16612Y-11069D01*
X-16611Y-11069D01*
X-16611Y-11069D01*
X-16611Y-11068D01*
X-16611Y-11066D01*
X-16611Y-11065D01*
X-16611Y-11065D01*
X-16612Y-11065D01*
X-16613Y-11065D01*
X-16614Y-11065D01*
X-16616Y-11065D02*
X-16619Y-11065D01*
X-16617Y-11062D02*
X-16617Y-11068D01*
X-16617Y-11069D01*
X-16618Y-11069D01*
X-16619Y-11069D01*
X-16628Y-11072D02*
X-16628Y-11072D01*
X-16627Y-11071D01*
X-16627Y-11070D01*
X-16627Y-11069D01*
X-16626Y-11067D01*
X-16626Y-11066D01*
X-16627Y-11064D01*
X-16627Y-11063D01*
X-16627Y-11063D01*
X-16628Y-11062D01*
X-16628Y-11061D01*
X-16631Y-11063D02*
X-16631Y-11063D01*
X-16632Y-11062D01*
X-16633Y-11062D01*
X-16634Y-11063D01*
X-16634Y-11063D01*
X-16635Y-11064D01*
X-16635Y-11064D01*
X-16634Y-11065D01*
X-16630Y-11069D01*
X-16635Y-11069D01*
X-16643Y-11069D02*
X-16643Y-11069D01*
X-16642Y-11069D01*
X-16641Y-11068D01*
X-16640Y-11066D01*
X-16639Y-11065D01*
X-16639Y-11064D01*
X-16639Y-11063D01*
X-16639Y-11063D01*
X-16640Y-11062D01*
X-16640Y-11062D01*
X-16641Y-11063D01*
X-16641Y-11063D01*
X-16641Y-11064D01*
X-16641Y-11064D01*
X-16640Y-11065D01*
X-16638Y-11066D01*
X-16638Y-11066D01*
X-16638Y-11067D01*
X-16638Y-11068D01*
X-16638Y-11069D01*
X-16638Y-11069D01*
X-16639Y-11069D01*
X-16640Y-11069D01*
X-16641Y-11069D01*
X-16641Y-11069D01*
X-16642Y-11067D01*
X-16642Y-11066D01*
X-16642Y-11066D01*
X-16646Y-11062D02*
X-16650Y-11062D01*
X-16648Y-11065D01*
X-16649Y-11065D01*
X-16649Y-11065D01*
X-16650Y-11066D01*
X-16650Y-11066D01*
X-16650Y-11068D01*
X-16650Y-11069D01*
X-16649Y-11069D01*
X-16649Y-11069D01*
X-16647Y-11069D01*
X-16646Y-11069D01*
X-16646Y-11069D01*
X-16653Y-11069D02*
X-16653Y-11062D01*
X-16657Y-11069D01*
X-16657Y-11062D01*
X-16664Y-11069D02*
X-16664Y-11069D01*
X-16663Y-11069D01*
X-16662Y-11069D01*
X-16661Y-11069D01*
X-16661Y-11068D01*
X-16660Y-11068D01*
X-16660Y-11066D01*
X-16660Y-11065D01*
X-16660Y-11064D01*
X-16661Y-11063D01*
X-16661Y-11063D01*
X-16662Y-11062D01*
X-16663Y-11062D01*
X-16664Y-11063D01*
X-16664Y-11063D01*
X-16667Y-11072D02*
X-16667Y-11072D01*
X-16668Y-11071D01*
X-16668Y-11070D01*
X-16668Y-11069D01*
X-16669Y-11067D01*
X-16669Y-11066D01*
X-16668Y-11064D01*
X-16668Y-11063D01*
X-16668Y-11063D01*
X-16667Y-11062D01*
X-16667Y-11061D01*
G54D21*
G54D25*
X-16987Y-11324D02*
X-16923Y-11247D01*
X-16952Y-11223D01*
X-16963Y-11220D01*
X-16969Y-11221D01*
X-16979Y-11225D01*
X-16988Y-11236D01*
X-16991Y-11247D01*
X-16990Y-11253D01*
X-16986Y-11263D01*
X-16957Y-11288D01*
X-17042Y-11241D02*
X-17078Y-11210D01*
X-17053Y-11269D02*
X-17014Y-11171D01*
X-17104Y-11226D01*
X-17123Y-11204D02*
X-17137Y-11199D01*
X-17155Y-11183D01*
X-17159Y-11173D01*
X-17160Y-11167D01*
X-17157Y-11156D01*
X-17151Y-11149D01*
X-17142Y-11145D01*
X-17135Y-11144D01*
X-17125Y-11147D01*
X-17107Y-11155D01*
X-17096Y-11158D01*
X-17090Y-11157D01*
X-17080Y-11153D01*
X-17074Y-11146D01*
X-17071Y-11135D01*
X-17072Y-11129D01*
X-17076Y-11119D01*
X-17094Y-11104D01*
X-17108Y-11098D01*
X-17127Y-11076D02*
X-17171Y-11039D01*
X-17213Y-11134D02*
X-17149Y-11058D01*
X-17227Y-11054D02*
X-17253Y-11033D01*
X-17297Y-11064D02*
X-17261Y-11094D01*
X-17197Y-11018D01*
X-17233Y-10987D01*
G54D21*
G54D22*
X-23469Y-474D02*
X-23564Y-414D01*
X-23469Y-371D02*
X-23669Y-371D01*
X-23669Y-440D01*
X-23659Y-457D01*
X-23650Y-465D01*
X-23630Y-474D01*
X-23602Y-474D01*
X-23583Y-465D01*
X-23573Y-457D01*
X-23564Y-440D01*
X-23564Y-371D01*
X-23650Y-542D02*
X-23659Y-551D01*
X-23669Y-568D01*
X-23669Y-611D01*
X-23659Y-628D01*
X-23650Y-637D01*
X-23630Y-645D01*
X-23611Y-645D01*
X-23583Y-637D01*
X-23469Y-534D01*
X-23469Y-645D01*
X-23669Y-800D02*
X-23669Y-765D01*
X-23659Y-748D01*
X-23650Y-740D01*
X-23621Y-722D01*
X-23583Y-714D01*
X-23507Y-714D01*
X-23488Y-722D01*
X-23478Y-731D01*
X-23469Y-748D01*
X-23469Y-782D01*
X-23478Y-800D01*
X-23488Y-808D01*
X-23507Y-817D01*
X-23554Y-817D01*
X-23573Y-808D01*
X-23583Y-800D01*
X-23592Y-782D01*
X-23592Y-748D01*
X-23583Y-731D01*
X-23573Y-722D01*
X-23554Y-714D01*
X-3234Y-9361D02*
X-3225Y-9371D01*
X-3200Y-9380D01*
X-3182Y-9380D01*
X-3157Y-9371D01*
X-3140Y-9352D01*
X-3131Y-9333D01*
X-3122Y-9295D01*
X-3122Y-9266D01*
X-3131Y-9228D01*
X-3140Y-9209D01*
X-3157Y-9190D01*
X-3182Y-9180D01*
X-3200Y-9180D01*
X-3225Y-9190D01*
X-3234Y-9200D01*
X-3405Y-9380D02*
X-3302Y-9380D01*
X-3354Y-9380D02*
X-3354Y-9180D01*
X-3337Y-9209D01*
X-3320Y-9228D01*
X-3302Y-9238D01*
X-3508Y-9266D02*
X-3491Y-9257D01*
X-3482Y-9247D01*
X-3474Y-9228D01*
X-3474Y-9219D01*
X-3482Y-9200D01*
X-3491Y-9190D01*
X-3508Y-9180D01*
X-3542Y-9180D01*
X-3560Y-9190D01*
X-3568Y-9200D01*
X-3577Y-9219D01*
X-3577Y-9228D01*
X-3568Y-9247D01*
X-3560Y-9257D01*
X-3542Y-9266D01*
X-3508Y-9266D01*
X-3491Y-9276D01*
X-3482Y-9285D01*
X-3474Y-9304D01*
X-3474Y-9342D01*
X-3482Y-9361D01*
X-3491Y-9371D01*
X-3508Y-9380D01*
X-3542Y-9380D01*
X-3560Y-9371D01*
X-3568Y-9361D01*
X-3577Y-9342D01*
X-3577Y-9304D01*
X-3568Y-9285D01*
X-3560Y-9276D01*
X-3542Y-9266D01*
X-3234Y-5211D02*
X-3225Y-5221D01*
X-3200Y-5230D01*
X-3182Y-5230D01*
X-3157Y-5221D01*
X-3140Y-5202D01*
X-3131Y-5183D01*
X-3122Y-5145D01*
X-3122Y-5116D01*
X-3131Y-5078D01*
X-3140Y-5059D01*
X-3157Y-5040D01*
X-3182Y-5030D01*
X-3200Y-5030D01*
X-3225Y-5040D01*
X-3234Y-5050D01*
X-3405Y-5230D02*
X-3302Y-5230D01*
X-3354Y-5230D02*
X-3354Y-5030D01*
X-3337Y-5059D01*
X-3320Y-5078D01*
X-3302Y-5088D01*
X-3491Y-5230D02*
X-3525Y-5230D01*
X-3542Y-5221D01*
X-3551Y-5211D01*
X-3568Y-5183D01*
X-3577Y-5145D01*
X-3577Y-5069D01*
X-3568Y-5050D01*
X-3560Y-5040D01*
X-3542Y-5030D01*
X-3508Y-5030D01*
X-3491Y-5040D01*
X-3482Y-5050D01*
X-3474Y-5069D01*
X-3474Y-5116D01*
X-3482Y-5135D01*
X-3491Y-5145D01*
X-3508Y-5154D01*
X-3542Y-5154D01*
X-3560Y-5145D01*
X-3568Y-5135D01*
X-3577Y-5116D01*
X-3234Y-12911D02*
X-3225Y-12921D01*
X-3200Y-12930D01*
X-3182Y-12930D01*
X-3157Y-12921D01*
X-3140Y-12902D01*
X-3131Y-12883D01*
X-3122Y-12845D01*
X-3122Y-12816D01*
X-3131Y-12778D01*
X-3140Y-12759D01*
X-3157Y-12740D01*
X-3182Y-12730D01*
X-3200Y-12730D01*
X-3225Y-12740D01*
X-3234Y-12750D01*
X-3405Y-12930D02*
X-3302Y-12930D01*
X-3354Y-12930D02*
X-3354Y-12730D01*
X-3337Y-12759D01*
X-3320Y-12778D01*
X-3302Y-12788D01*
X-3465Y-12730D02*
X-3585Y-12730D01*
X-3508Y-12930D01*
G54D20*
X-9872Y-1559D02*
X-9872Y-1166D01*
X-10022Y-1166D01*
X-10059Y-1184D01*
X-10078Y-1203D01*
X-10097Y-1240D01*
X-10097Y-1297D01*
X-10078Y-1334D01*
X-10059Y-1353D01*
X-10022Y-1371D01*
X-9872Y-1371D01*
X-10471Y-1559D02*
X-10247Y-1559D01*
X-10359Y-1559D02*
X-10359Y-1166D01*
X-10321Y-1222D01*
X-10284Y-1259D01*
X-10247Y-1278D01*
X-10714Y-1166D02*
X-10752Y-1166D01*
X-10789Y-1184D01*
X-10808Y-1203D01*
X-10827Y-1240D01*
X-10845Y-1315D01*
X-10845Y-1409D01*
X-10827Y-1484D01*
X-10808Y-1521D01*
X-10789Y-1540D01*
X-10752Y-1559D01*
X-10714Y-1559D01*
X-10677Y-1540D01*
X-10658Y-1521D01*
X-10640Y-1484D01*
X-10621Y-1409D01*
X-10621Y-1315D01*
X-10640Y-1240D01*
X-10658Y-1203D01*
X-10677Y-1184D01*
X-10714Y-1166D01*
G54D21*
X-13192Y-7317D02*
X-13185Y-7340D01*
X-13185Y-7378D01*
X-13192Y-7393D01*
X-13200Y-7400D01*
X-13215Y-7408D01*
X-13230Y-7408D01*
X-13246Y-7400D01*
X-13253Y-7393D01*
X-13261Y-7378D01*
X-13269Y-7347D01*
X-13276Y-7332D01*
X-13284Y-7324D01*
X-13299Y-7317D01*
X-13314Y-7317D01*
X-13330Y-7324D01*
X-13337Y-7332D01*
X-13345Y-7347D01*
X-13345Y-7385D01*
X-13337Y-7408D01*
X-13345Y-7522D02*
X-13230Y-7522D01*
X-13208Y-7515D01*
X-13192Y-7500D01*
X-13185Y-7477D01*
X-13185Y-7461D01*
X-13330Y-7591D02*
X-13337Y-7599D01*
X-13345Y-7614D01*
X-13345Y-7652D01*
X-13337Y-7667D01*
X-13330Y-7675D01*
X-13314Y-7682D01*
X-13299Y-7682D01*
X-13276Y-7675D01*
X-13185Y-7583D01*
X-13185Y-7682D01*
X-14538Y-7016D02*
X-14528Y-7007D01*
X-14519Y-6978D01*
X-14519Y-6959D01*
X-14528Y-6930D01*
X-14547Y-6911D01*
X-14566Y-6902D01*
X-14604Y-6892D01*
X-14633Y-6892D01*
X-14671Y-6902D01*
X-14690Y-6911D01*
X-14709Y-6930D01*
X-14719Y-6959D01*
X-14719Y-6978D01*
X-14709Y-7007D01*
X-14700Y-7016D01*
X-14528Y-7092D02*
X-14519Y-7121D01*
X-14519Y-7169D01*
X-14528Y-7188D01*
X-14538Y-7197D01*
X-14557Y-7207D01*
X-14576Y-7207D01*
X-14595Y-7197D01*
X-14604Y-7188D01*
X-14614Y-7169D01*
X-14623Y-7130D01*
X-14633Y-7111D01*
X-14642Y-7102D01*
X-14661Y-7092D01*
X-14680Y-7092D01*
X-14700Y-7102D01*
X-14709Y-7111D01*
X-14719Y-7130D01*
X-14719Y-7178D01*
X-14709Y-7207D01*
X-14942Y-4357D02*
X-14965Y-4364D01*
X-15003Y-4364D01*
X-15018Y-4357D01*
X-15025Y-4349D01*
X-15033Y-4334D01*
X-15033Y-4319D01*
X-15025Y-4303D01*
X-15018Y-4296D01*
X-15003Y-4288D01*
X-14972Y-4280D01*
X-14957Y-4273D01*
X-14949Y-4265D01*
X-14942Y-4250D01*
X-14942Y-4235D01*
X-14949Y-4220D01*
X-14957Y-4212D01*
X-14972Y-4204D01*
X-15010Y-4204D01*
X-15033Y-4212D01*
X-15147Y-4204D02*
X-15147Y-4319D01*
X-15140Y-4341D01*
X-15125Y-4357D01*
X-15102Y-4364D01*
X-15086Y-4364D01*
X-15292Y-4204D02*
X-15262Y-4204D01*
X-15246Y-4212D01*
X-15239Y-4220D01*
X-15224Y-4242D01*
X-15216Y-4273D01*
X-15216Y-4334D01*
X-15224Y-4349D01*
X-15231Y-4357D01*
X-15246Y-4364D01*
X-15277Y-4364D01*
X-15292Y-4357D01*
X-15300Y-4349D01*
X-15307Y-4334D01*
X-15307Y-4296D01*
X-15300Y-4280D01*
X-15292Y-4273D01*
X-15277Y-4265D01*
X-15246Y-4265D01*
X-15231Y-4273D01*
X-15224Y-4280D01*
X-15216Y-4296D01*
G54D26*
X-13902Y-4392D02*
X-13902Y-4342D01*
X-13914Y-4342D01*
X-13921Y-4344D01*
X-13926Y-4349D01*
X-13929Y-4354D01*
X-13931Y-4363D01*
X-13931Y-4370D01*
X-13929Y-4380D01*
X-13926Y-4385D01*
X-13921Y-4389D01*
X-13914Y-4392D01*
X-13902Y-4392D01*
X-13950Y-4377D02*
X-13974Y-4377D01*
X-13945Y-4392D02*
X-13962Y-4342D01*
X-13979Y-4392D01*
X-13995Y-4392D02*
X-13995Y-4342D01*
X-14017Y-4389D02*
X-14024Y-4392D01*
X-14036Y-4392D01*
X-14040Y-4389D01*
X-14043Y-4387D01*
X-14045Y-4382D01*
X-14045Y-4377D01*
X-14043Y-4373D01*
X-14040Y-4370D01*
X-14036Y-4368D01*
X-14026Y-4366D01*
X-14021Y-4363D01*
X-14019Y-4361D01*
X-14017Y-4356D01*
X-14017Y-4351D01*
X-14019Y-4347D01*
X-14021Y-4344D01*
X-14026Y-4342D01*
X-14038Y-4342D01*
X-14045Y-4344D01*
X-14076Y-4368D02*
X-14076Y-4392D01*
X-14059Y-4342D02*
X-14076Y-4368D01*
X-14093Y-4342D01*
X-14098Y-4397D02*
X-14136Y-4397D01*
X-14157Y-4342D02*
X-14167Y-4342D01*
X-14171Y-4344D01*
X-14176Y-4349D01*
X-14179Y-4358D01*
X-14179Y-4375D01*
X-14176Y-4385D01*
X-14171Y-4389D01*
X-14167Y-4392D01*
X-14157Y-4392D01*
X-14152Y-4389D01*
X-14148Y-4385D01*
X-14145Y-4375D01*
X-14145Y-4358D01*
X-14148Y-4349D01*
X-14152Y-4344D01*
X-14157Y-4342D01*
X-14200Y-4342D02*
X-14200Y-4382D01*
X-14202Y-4387D01*
X-14205Y-4389D01*
X-14210Y-4392D01*
X-14219Y-4392D01*
X-14224Y-4389D01*
X-14226Y-4387D01*
X-14229Y-4382D01*
X-14229Y-4342D01*
X-14245Y-4342D02*
X-14274Y-4342D01*
X-14260Y-4392D02*
X-14260Y-4342D01*
G54D21*
X-13761Y-3830D02*
X-13761Y-3630D01*
X-13809Y-3630D01*
X-13838Y-3640D01*
X-13857Y-3659D01*
X-13866Y-3678D01*
X-13876Y-3716D01*
X-13876Y-3745D01*
X-13866Y-3783D01*
X-13857Y-3802D01*
X-13838Y-3821D01*
X-13809Y-3830D01*
X-13761Y-3830D01*
X-14000Y-3630D02*
X-14038Y-3630D01*
X-14057Y-3640D01*
X-14076Y-3659D01*
X-14085Y-3697D01*
X-14085Y-3764D01*
X-14076Y-3802D01*
X-14057Y-3821D01*
X-14038Y-3830D01*
X-14000Y-3830D01*
X-13980Y-3821D01*
X-13961Y-3802D01*
X-13952Y-3764D01*
X-13952Y-3697D01*
X-13961Y-3659D01*
X-13980Y-3640D01*
X-14000Y-3630D01*
X-14171Y-3630D02*
X-14171Y-3792D01*
X-14180Y-3811D01*
X-14190Y-3821D01*
X-14209Y-3830D01*
X-14247Y-3830D01*
X-14266Y-3821D01*
X-14276Y-3811D01*
X-14285Y-3792D01*
X-14285Y-3630D01*
X-14352Y-3630D02*
X-14466Y-3630D01*
X-14409Y-3830D02*
X-14409Y-3630D01*
X-13417Y-107D02*
X-13440Y-114D01*
X-13478Y-114D01*
X-13493Y-107D01*
X-13500Y-99D01*
X-13508Y-84D01*
X-13508Y-69D01*
X-13500Y-53D01*
X-13493Y-46D01*
X-13478Y-38D01*
X-13447Y-30D01*
X-13432Y-23D01*
X-13424Y-15D01*
X-13417Y0D01*
X-13417Y14D01*
X-13424Y30D01*
X-13432Y37D01*
X-13447Y45D01*
X-13485Y45D01*
X-13508Y37D01*
X-13622Y45D02*
X-13622Y-69D01*
X-13615Y-91D01*
X-13600Y-107D01*
X-13577Y-114D01*
X-13561Y-114D01*
X-13683Y45D02*
X-13790Y45D01*
X-13721Y-114D01*
G54D26*
X-13925Y-667D02*
X-13925Y-617D01*
X-13937Y-617D01*
X-13944Y-619D01*
X-13949Y-624D01*
X-13951Y-629D01*
X-13954Y-638D01*
X-13954Y-645D01*
X-13951Y-655D01*
X-13949Y-660D01*
X-13944Y-664D01*
X-13937Y-667D01*
X-13925Y-667D01*
X-13973Y-652D02*
X-13996Y-652D01*
X-13968Y-667D02*
X-13985Y-617D01*
X-14001Y-667D01*
X-14018Y-667D02*
X-14018Y-617D01*
X-14039Y-664D02*
X-14046Y-667D01*
X-14058Y-667D01*
X-14063Y-664D01*
X-14065Y-662D01*
X-14068Y-657D01*
X-14068Y-652D01*
X-14065Y-648D01*
X-14063Y-645D01*
X-14058Y-643D01*
X-14049Y-641D01*
X-14044Y-638D01*
X-14042Y-636D01*
X-14039Y-631D01*
X-14039Y-626D01*
X-14042Y-622D01*
X-14044Y-619D01*
X-14049Y-617D01*
X-14061Y-617D01*
X-14068Y-619D01*
X-14099Y-643D02*
X-14099Y-667D01*
X-14082Y-617D02*
X-14099Y-643D01*
X-14115Y-617D01*
X-14120Y-672D02*
X-14158Y-672D01*
X-14199Y-662D02*
X-14196Y-664D01*
X-14189Y-667D01*
X-14185Y-667D01*
X-14177Y-664D01*
X-14173Y-660D01*
X-14170Y-655D01*
X-14168Y-645D01*
X-14168Y-638D01*
X-14170Y-629D01*
X-14173Y-624D01*
X-14177Y-619D01*
X-14185Y-617D01*
X-14189Y-617D01*
X-14196Y-619D01*
X-14199Y-622D01*
X-14218Y-664D02*
X-14225Y-667D01*
X-14237Y-667D01*
X-14242Y-664D01*
X-14244Y-662D01*
X-14246Y-657D01*
X-14246Y-652D01*
X-14244Y-648D01*
X-14242Y-645D01*
X-14237Y-643D01*
X-14227Y-641D01*
X-14223Y-638D01*
X-14220Y-636D01*
X-14218Y-631D01*
X-14218Y-626D01*
X-14220Y-622D01*
X-14223Y-619D01*
X-14227Y-617D01*
X-14239Y-617D01*
X-14246Y-619D01*
G54D21*
X-13983Y-130D02*
X-13983Y69D01*
X-14030Y69D01*
X-14059Y59D01*
X-14078Y40D01*
X-14088Y21D01*
X-14097Y-16D01*
X-14097Y-45D01*
X-14088Y-83D01*
X-14078Y-102D01*
X-14059Y-121D01*
X-14030Y-130D01*
X-13983Y-130D01*
X-14173Y-73D02*
X-14269Y-73D01*
X-14154Y-130D02*
X-14221Y69D01*
X-14288Y-130D01*
X-14354Y-130D02*
X-14354Y69D01*
X-14440Y-121D02*
X-14469Y-130D01*
X-14516Y-130D01*
X-14535Y-121D01*
X-14545Y-111D01*
X-14554Y-92D01*
X-14554Y-73D01*
X-14545Y-54D01*
X-14535Y-45D01*
X-14516Y-35D01*
X-14478Y-26D01*
X-14459Y-16D01*
X-14450Y-7D01*
X-14440Y11D01*
X-14440Y30D01*
X-14450Y50D01*
X-14459Y59D01*
X-14478Y69D01*
X-14526Y69D01*
X-14554Y59D01*
X-14678Y-35D02*
X-14678Y-130D01*
X-14611Y69D02*
X-14678Y-35D01*
X-14745Y69D01*
X-8637Y-7217D02*
X-8630Y-7240D01*
X-8630Y-7278D01*
X-8637Y-7293D01*
X-8645Y-7300D01*
X-8660Y-7308D01*
X-8675Y-7308D01*
X-8691Y-7300D01*
X-8698Y-7293D01*
X-8706Y-7278D01*
X-8714Y-7247D01*
X-8721Y-7232D01*
X-8729Y-7224D01*
X-8744Y-7217D01*
X-8759Y-7217D01*
X-8775Y-7224D01*
X-8782Y-7232D01*
X-8790Y-7247D01*
X-8790Y-7285D01*
X-8782Y-7308D01*
X-8790Y-7422D02*
X-8675Y-7422D01*
X-8653Y-7415D01*
X-8637Y-7400D01*
X-8630Y-7377D01*
X-8630Y-7361D01*
X-8721Y-7521D02*
X-8729Y-7506D01*
X-8736Y-7499D01*
X-8752Y-7491D01*
X-8759Y-7491D01*
X-8775Y-7499D01*
X-8782Y-7506D01*
X-8790Y-7521D01*
X-8790Y-7552D01*
X-8782Y-7567D01*
X-8775Y-7575D01*
X-8759Y-7582D01*
X-8752Y-7582D01*
X-8736Y-7575D01*
X-8729Y-7567D01*
X-8721Y-7552D01*
X-8721Y-7521D01*
X-8714Y-7506D01*
X-8706Y-7499D01*
X-8691Y-7491D01*
X-8660Y-7491D01*
X-8645Y-7499D01*
X-8637Y-7506D01*
X-8630Y-7521D01*
X-8630Y-7552D01*
X-8637Y-7567D01*
X-8645Y-7575D01*
X-8660Y-7582D01*
X-8691Y-7582D01*
X-8706Y-7575D01*
X-8714Y-7567D01*
X-8721Y-7552D01*
X-9895Y-7011D02*
X-9887Y-7003D01*
X-9880Y-6980D01*
X-9880Y-6965D01*
X-9887Y-6942D01*
X-9903Y-6927D01*
X-9918Y-6920D01*
X-9948Y-6912D01*
X-9971Y-6912D01*
X-10002Y-6920D01*
X-10017Y-6927D01*
X-10032Y-6942D01*
X-10040Y-6965D01*
X-10040Y-6980D01*
X-10032Y-7003D01*
X-10025Y-7011D01*
X-9880Y-7156D02*
X-9880Y-7080D01*
X-10040Y-7080D01*
X-9880Y-7209D02*
X-10040Y-7209D01*
X-9880Y-7300D02*
X-9971Y-7232D01*
X-10040Y-7300D02*
X-9948Y-7209D01*
X-9887Y-7361D02*
X-9880Y-7384D01*
X-9880Y-7422D01*
X-9887Y-7438D01*
X-9895Y-7445D01*
X-9910Y-7453D01*
X-9925Y-7453D01*
X-9941Y-7445D01*
X-9948Y-7438D01*
X-9956Y-7422D01*
X-9964Y-7392D01*
X-9971Y-7377D01*
X-9979Y-7369D01*
X-9994Y-7361D01*
X-10009Y-7361D01*
X-10025Y-7369D01*
X-10032Y-7377D01*
X-10040Y-7392D01*
X-10040Y-7430D01*
X-10032Y-7453D01*
X-9964Y-7521D02*
X-9964Y-7575D01*
X-9880Y-7598D02*
X-9880Y-7521D01*
X-10040Y-7521D01*
X-10040Y-7598D01*
X-9880Y-7742D02*
X-9880Y-7666D01*
X-10040Y-7666D01*
%LPC*%
G54D27*
X-23182Y-12700D03*
X-22863Y-12700D03*
X-23157Y-13700D03*
X-22838Y-13700D03*
X-4770Y-12000D03*
X-4450Y-12000D03*
X-4130Y-12000D03*
G54D28*
X-25010Y-13325D03*
X-24755Y-13325D03*
X-24495Y-13325D03*
X-24240Y-13325D03*
X-24240Y-15075D03*
X-24495Y-15075D03*
X-24755Y-15075D03*
X-25010Y-15075D03*
G54D27*
X-6202Y-11550D03*
X-5848Y-11550D03*
G54D29*
X-26275Y-15325D03*
X-25675Y-15325D03*
X-26275Y-13525D03*
X-25675Y-13525D03*
X-26275Y-14425D03*
X-25675Y-14425D03*
X-26275Y-12700D03*
X-25675Y-12700D03*
G54D30*
X-23000Y-14940D03*
X-9159Y-14340D03*
X-13350Y-15450D03*
X-7190Y-15760D03*
X-12825Y-11425D03*
X-25080Y-300D03*
G54D31*
X-1900Y-8050D03*
X-2275Y-8050D03*
X-2650Y-8050D03*
X-2650Y-9050D03*
X-2275Y-9050D03*
X-1900Y-9050D03*
X-1825Y-11600D03*
X-2200Y-11600D03*
X-2575Y-11600D03*
X-2575Y-12600D03*
X-2200Y-12600D03*
X-1825Y-12600D03*
X-1900Y-3900D03*
X-2275Y-3900D03*
X-2650Y-3900D03*
X-2650Y-4900D03*
X-2275Y-4900D03*
X-1900Y-4900D03*
G54D27*
X-16290Y-11070D03*
X-16610Y-11070D03*
X-16930Y-11070D03*
G54D32*
X-24030Y-310D03*
X-24030Y-910D03*
G54D30*
X-10275Y-11625D03*
G54D32*
X-3350Y-8275D03*
X-3350Y-8875D03*
X-3350Y-4100D03*
X-3350Y-4700D03*
X-3325Y-11825D03*
X-3325Y-12425D03*
G54D33*
X750Y-1750D03*
G54D34*
X750Y-2750D03*
X750Y-3750D03*
X750Y-4750D03*
X750Y-5750D03*
X750Y-6750D03*
X750Y-7750D03*
X750Y-8750D03*
X750Y-9750D03*
X750Y-10750D03*
X750Y-11750D03*
X750Y-12750D03*
X750Y-13750D03*
X750Y-14750D03*
G54D35*
X-11937Y1750D03*
X-11937Y750D03*
X-12937Y1750D03*
X-12937Y750D03*
X-13921Y750D03*
X-13921Y1750D03*
X-14905Y1750D03*
X-14905Y750D03*
X-10968Y750D03*
X-10968Y1750D03*
X-9984Y1750D03*
X-9984Y750D03*
G54D36*
X0Y-16500D03*
X-26000Y-17750D03*
X0Y0D03*
G54D37*
X-24000Y-18250D03*
G54D35*
X-24000Y-17250D03*
X-23000Y-18250D03*
X-23000Y-17250D03*
X-22000Y-18250D03*
X-22000Y-17250D03*
X-21000Y-18250D03*
X-21000Y-17250D03*
X-20000Y-18250D03*
X-20000Y-17250D03*
X-19000Y-18250D03*
X-19000Y-17250D03*
X-18000Y-18250D03*
X-18000Y-17250D03*
X-17000Y-18250D03*
X-17000Y-17250D03*
X-16000Y-18250D03*
X-16000Y-17250D03*
X-15000Y-18250D03*
X-15000Y-17250D03*
X-14000Y-18250D03*
X-14000Y-17250D03*
X-13000Y-18250D03*
X-13000Y-17250D03*
X-12000Y-18250D03*
X-12000Y-17250D03*
X-11000Y-18250D03*
X-11000Y-17250D03*
X-10000Y-18250D03*
X-10000Y-17250D03*
X-9000Y-18250D03*
X-9000Y-17250D03*
X-8000Y-18250D03*
X-8000Y-17250D03*
X-7000Y-18250D03*
X-7000Y-17250D03*
X-6000Y-18250D03*
X-6000Y-17250D03*
X-5000Y-18250D03*
X-5000Y-17250D03*
X-4000Y-18250D03*
X-4000Y-17250D03*
X-3000Y-18250D03*
X-3000Y-17250D03*
X-2000Y-18250D03*
X-2000Y-17250D03*
X-9000Y750D03*
X-9000Y1750D03*
X-8000Y750D03*
X-8000Y1750D03*
X-7000Y750D03*
X-7000Y1750D03*
X-6000Y750D03*
X-6000Y1750D03*
X-5000Y750D03*
X-5000Y1750D03*
X-4000Y750D03*
X-4000Y1750D03*
X-3000Y750D03*
X-3000Y1750D03*
X-2000Y750D03*
X-2000Y1750D03*
G54D38*
X-12750Y-1077D03*
X-12750Y-3222D03*
X-11750Y-1077D03*
X-11750Y-3222D03*
G54D39*
X-13825Y-7370D03*
X-13825Y-7050D03*
X-13825Y-6730D03*
G54D27*
X-13780Y-4375D03*
X-14100Y-4375D03*
X-14420Y-4375D03*
X-13780Y-650D03*
X-14100Y-650D03*
X-14420Y-650D03*
G54D39*
X-9275Y-7620D03*
X-9275Y-7300D03*
X-9275Y-6980D03*
M02*
