G04 (created by PCBNEW (2013-05-31 BZR 4019)-stable) date 6/26/2014 3:48:14 PM*
%MOIN*%
G04 Gerber Fmt 3.4, Leading zero omitted, Abs format*
%FSLAX34Y34*%
G01*
G70*
G90*
G04 APERTURE LIST*
%ADD10C,0.00590551*%
%ADD11O,0.0787402X0.0590551*%
%ADD12R,0.0787402X0.0590551*%
%ADD13C,0.18*%
%ADD14R,0.065X0.065*%
%ADD15C,0.06*%
%ADD16C,0.055*%
%ADD17C,0.024*%
%ADD18C,0.008*%
%ADD19C,0.01*%
G04 APERTURE END LIST*
G54D10*
G54D11*
X-333Y-5250D03*
X863Y-5250D03*
X863Y-6250D03*
X-333Y-6250D03*
X-333Y-7250D03*
X863Y-7250D03*
X863Y-8250D03*
X-333Y-8250D03*
X-333Y-9250D03*
X863Y-9250D03*
G54D12*
X863Y-11250D03*
G54D11*
X-333Y-11250D03*
X863Y-10250D03*
X-333Y-10250D03*
G54D13*
X50Y-16500D03*
X-25950Y-17750D03*
X-25950Y1250D03*
X50Y0D03*
G54D14*
X-23950Y-18250D03*
G54D15*
X-23950Y-17250D03*
X-22950Y-18250D03*
X-22950Y-17250D03*
X-21950Y-18250D03*
X-21950Y-17250D03*
X-20950Y-18250D03*
X-20950Y-17250D03*
X-19950Y-18250D03*
X-19950Y-17250D03*
X-18950Y-18250D03*
X-18950Y-17250D03*
X-17950Y-18250D03*
X-17950Y-17250D03*
X-16950Y-18250D03*
X-16950Y-17250D03*
X-15950Y-18250D03*
X-15950Y-17250D03*
X-14950Y-18250D03*
X-14950Y-17250D03*
X-13950Y-18250D03*
X-13950Y-17250D03*
X-12950Y-18250D03*
X-12950Y-17250D03*
X-11950Y-18250D03*
X-11950Y-17250D03*
X-10950Y-18250D03*
X-10950Y-17250D03*
X-9950Y-18250D03*
X-9950Y-17250D03*
X-8950Y-18250D03*
X-8950Y-17250D03*
X-7950Y-18250D03*
X-7950Y-17250D03*
X-6950Y-18250D03*
X-6950Y-17250D03*
X-5950Y-18250D03*
X-5950Y-17250D03*
X-4950Y-18250D03*
X-4950Y-17250D03*
X-3950Y-18250D03*
X-3950Y-17250D03*
X-2950Y-18250D03*
X-2950Y-17250D03*
X-1950Y-18250D03*
X-1950Y-17250D03*
G54D14*
X-23950Y750D03*
G54D15*
X-23950Y1750D03*
X-22950Y750D03*
X-22950Y1750D03*
X-21950Y750D03*
X-21950Y1750D03*
X-20950Y750D03*
X-20950Y1750D03*
X-19950Y750D03*
X-19950Y1750D03*
X-18950Y750D03*
X-18950Y1750D03*
X-17950Y750D03*
X-17950Y1750D03*
X-16950Y750D03*
X-16950Y1750D03*
X-15950Y750D03*
X-15950Y1750D03*
X-14950Y750D03*
X-14950Y1750D03*
X-13950Y750D03*
X-13950Y1750D03*
X-12950Y750D03*
X-12950Y1750D03*
X-11950Y750D03*
X-11950Y1750D03*
X-10950Y750D03*
X-10950Y1750D03*
X-9950Y750D03*
X-9950Y1750D03*
X-8950Y750D03*
X-8950Y1750D03*
X-7950Y750D03*
X-7950Y1750D03*
X-6950Y750D03*
X-6950Y1750D03*
X-5950Y750D03*
X-5950Y1750D03*
X-4950Y750D03*
X-4950Y1750D03*
X-3950Y750D03*
X-3950Y1750D03*
X-2950Y750D03*
X-2950Y1750D03*
X-1950Y750D03*
X-1950Y1750D03*
G54D16*
X-27100Y-440D03*
X-27100Y-1425D03*
X-27100Y-2409D03*
X-28399Y-440D03*
X-28399Y-1425D03*
X-28399Y-2409D03*
G54D17*
X-8425Y-9750D03*
X-4175Y-10000D03*
X-5875Y-13050D03*
X-4000Y-8300D03*
X-10825Y-375D03*
X-3575Y-3525D03*
X-13850Y-10325D03*
X-28200Y-12575D03*
X-15050Y-14850D03*
X-12175Y-12925D03*
X-24300Y-12825D03*
X-20900Y-12925D03*
X-18900Y-15250D03*
X-11325Y-15100D03*
X-9800Y-2700D03*
X-12250Y-4250D03*
X-9000Y-15400D03*
X-1175Y-8550D03*
X-3300Y-9375D03*
X-1450Y-5350D03*
X-8575Y-11500D03*
X-3500Y-14600D03*
X-1025Y-12975D03*
X-3200Y-13075D03*
X-9500Y-9550D03*
X-6650Y-2750D03*
X-4550Y-4425D03*
X-13900Y-10800D03*
X-10300Y-12650D03*
X-11000Y-11300D03*
X-1050Y-12500D03*
X-7325Y-16700D03*
X-12525Y-12650D03*
X-12700Y-15250D03*
X-12325Y-10125D03*
X-23160Y-2650D03*
X-19100Y-14800D03*
X-19650Y-13700D03*
X-22125Y-15675D03*
X-11125Y-10725D03*
X-1375Y-7975D03*
X-1450Y-8900D03*
X-1450Y-2575D03*
X-1200Y-4450D03*
X-1300Y-6950D03*
X-1275Y-10150D03*
X-1350Y-11125D03*
X-675Y-12000D03*
X-1300Y-13725D03*
X-11275Y-13625D03*
X-8775Y-12825D03*
X-6700Y-14500D03*
X-3425Y-14000D03*
X-6950Y-6925D03*
X-9350Y-11150D03*
X-12875Y-13700D03*
X-12250Y-9675D03*
X-10075Y-9575D03*
X-10875Y-10375D03*
X-11550Y-9225D03*
X-13475Y-8650D03*
X-21700Y-14850D03*
X-18300Y-15575D03*
X-11700Y-15725D03*
X-9700Y-16350D03*
X-13350Y-9750D03*
X-12225Y-11350D03*
X-14175Y-5925D03*
X-4975Y-13975D03*
X-6200Y-7825D03*
G54D18*
X-975Y-5075D02*
X-975Y-4800D01*
X-1250Y-5350D02*
X-975Y-5075D01*
X-1450Y-5350D02*
X-1250Y-5350D01*
X-3125Y-9550D02*
X-3300Y-9375D01*
X-1425Y-9550D02*
X-3125Y-9550D01*
X-650Y-8775D02*
X-1425Y-9550D01*
X-25Y-8775D02*
X-650Y-8775D01*
X225Y-8525D02*
X-25Y-8775D01*
X225Y-4775D02*
X225Y-8525D01*
X-75Y-4475D02*
X225Y-4775D01*
X-650Y-4475D02*
X-75Y-4475D01*
X-975Y-4800D02*
X-650Y-4475D01*
G54D10*
G36*
X-1145Y-17675D02*
X-1553Y-18083D01*
X-1585Y-18006D01*
X-1706Y-17885D01*
X-1864Y-17820D01*
X-2035Y-17819D01*
X-2193Y-17885D01*
X-2314Y-18006D01*
X-2379Y-18164D01*
X-2380Y-18335D01*
X-2314Y-18493D01*
X-2193Y-18614D01*
X-2116Y-18646D01*
X-2420Y-18950D01*
X-2519Y-18950D01*
X-2519Y-18164D01*
X-2585Y-18006D01*
X-2706Y-17885D01*
X-2864Y-17820D01*
X-3035Y-17819D01*
X-3193Y-17885D01*
X-3314Y-18006D01*
X-3379Y-18164D01*
X-3380Y-18335D01*
X-3314Y-18493D01*
X-3193Y-18614D01*
X-3035Y-18679D01*
X-2864Y-18680D01*
X-2706Y-18614D01*
X-2585Y-18493D01*
X-2520Y-18335D01*
X-2519Y-18164D01*
X-2519Y-18950D01*
X-3519Y-18950D01*
X-3519Y-18164D01*
X-3585Y-18006D01*
X-3706Y-17885D01*
X-3864Y-17820D01*
X-4035Y-17819D01*
X-4193Y-17885D01*
X-4314Y-18006D01*
X-4379Y-18164D01*
X-4380Y-18335D01*
X-4314Y-18493D01*
X-4193Y-18614D01*
X-4035Y-18679D01*
X-3864Y-18680D01*
X-3706Y-18614D01*
X-3585Y-18493D01*
X-3520Y-18335D01*
X-3519Y-18164D01*
X-3519Y-18950D01*
X-4519Y-18950D01*
X-4519Y-18164D01*
X-4585Y-18006D01*
X-4706Y-17885D01*
X-4864Y-17820D01*
X-5035Y-17819D01*
X-5193Y-17885D01*
X-5314Y-18006D01*
X-5379Y-18164D01*
X-5380Y-18335D01*
X-5314Y-18493D01*
X-5193Y-18614D01*
X-5035Y-18679D01*
X-4864Y-18680D01*
X-4706Y-18614D01*
X-4585Y-18493D01*
X-4520Y-18335D01*
X-4519Y-18164D01*
X-4519Y-18950D01*
X-5519Y-18950D01*
X-5519Y-18164D01*
X-5585Y-18006D01*
X-5706Y-17885D01*
X-5864Y-17820D01*
X-6035Y-17819D01*
X-6193Y-17885D01*
X-6314Y-18006D01*
X-6379Y-18164D01*
X-6380Y-18335D01*
X-6314Y-18493D01*
X-6193Y-18614D01*
X-6035Y-18679D01*
X-5864Y-18680D01*
X-5706Y-18614D01*
X-5585Y-18493D01*
X-5520Y-18335D01*
X-5519Y-18164D01*
X-5519Y-18950D01*
X-6519Y-18950D01*
X-6519Y-18164D01*
X-6585Y-18006D01*
X-6706Y-17885D01*
X-6864Y-17820D01*
X-7035Y-17819D01*
X-7193Y-17885D01*
X-7314Y-18006D01*
X-7379Y-18164D01*
X-7380Y-18335D01*
X-7314Y-18493D01*
X-7193Y-18614D01*
X-7035Y-18679D01*
X-6864Y-18680D01*
X-6706Y-18614D01*
X-6585Y-18493D01*
X-6520Y-18335D01*
X-6519Y-18164D01*
X-6519Y-18950D01*
X-8519Y-18950D01*
X-8519Y-18164D01*
X-8519Y-17164D01*
X-8585Y-17006D01*
X-8706Y-16885D01*
X-8864Y-16820D01*
X-9035Y-16819D01*
X-9193Y-16885D01*
X-9314Y-17006D01*
X-9379Y-17164D01*
X-9380Y-17335D01*
X-9314Y-17493D01*
X-9193Y-17614D01*
X-9035Y-17679D01*
X-8864Y-17680D01*
X-8706Y-17614D01*
X-8585Y-17493D01*
X-8520Y-17335D01*
X-8519Y-17164D01*
X-8519Y-18164D01*
X-8585Y-18006D01*
X-8706Y-17885D01*
X-8864Y-17820D01*
X-9035Y-17819D01*
X-9193Y-17885D01*
X-9314Y-18006D01*
X-9379Y-18164D01*
X-9380Y-18335D01*
X-9314Y-18493D01*
X-9193Y-18614D01*
X-9035Y-18679D01*
X-8864Y-18680D01*
X-8706Y-18614D01*
X-8585Y-18493D01*
X-8520Y-18335D01*
X-8519Y-18164D01*
X-8519Y-18950D01*
X-9449Y-18950D01*
X-9449Y-16300D01*
X-9487Y-16208D01*
X-9558Y-16138D01*
X-9650Y-16100D01*
X-9749Y-16099D01*
X-9841Y-16137D01*
X-9911Y-16208D01*
X-9949Y-16300D01*
X-9950Y-16399D01*
X-9912Y-16491D01*
X-9841Y-16561D01*
X-9749Y-16599D01*
X-9650Y-16600D01*
X-9558Y-16562D01*
X-9488Y-16491D01*
X-9450Y-16399D01*
X-9449Y-16300D01*
X-9449Y-18950D01*
X-9519Y-18950D01*
X-9519Y-18164D01*
X-9519Y-17164D01*
X-9585Y-17006D01*
X-9706Y-16885D01*
X-9864Y-16820D01*
X-10035Y-16819D01*
X-10193Y-16885D01*
X-10314Y-17006D01*
X-10379Y-17164D01*
X-10380Y-17335D01*
X-10314Y-17493D01*
X-10193Y-17614D01*
X-10035Y-17679D01*
X-9864Y-17680D01*
X-9706Y-17614D01*
X-9585Y-17493D01*
X-9520Y-17335D01*
X-9519Y-17164D01*
X-9519Y-18164D01*
X-9585Y-18006D01*
X-9706Y-17885D01*
X-9864Y-17820D01*
X-10035Y-17819D01*
X-10193Y-17885D01*
X-10314Y-18006D01*
X-10379Y-18164D01*
X-10380Y-18335D01*
X-10314Y-18493D01*
X-10193Y-18614D01*
X-10035Y-18679D01*
X-9864Y-18680D01*
X-9706Y-18614D01*
X-9585Y-18493D01*
X-9520Y-18335D01*
X-9519Y-18164D01*
X-9519Y-18950D01*
X-10519Y-18950D01*
X-10519Y-18164D01*
X-10519Y-17164D01*
X-10585Y-17006D01*
X-10706Y-16885D01*
X-10864Y-16820D01*
X-11035Y-16819D01*
X-11193Y-16885D01*
X-11314Y-17006D01*
X-11379Y-17164D01*
X-11380Y-17335D01*
X-11314Y-17493D01*
X-11193Y-17614D01*
X-11035Y-17679D01*
X-10864Y-17680D01*
X-10706Y-17614D01*
X-10585Y-17493D01*
X-10520Y-17335D01*
X-10519Y-17164D01*
X-10519Y-18164D01*
X-10585Y-18006D01*
X-10706Y-17885D01*
X-10864Y-17820D01*
X-11035Y-17819D01*
X-11193Y-17885D01*
X-11314Y-18006D01*
X-11379Y-18164D01*
X-11380Y-18335D01*
X-11314Y-18493D01*
X-11193Y-18614D01*
X-11035Y-18679D01*
X-10864Y-18680D01*
X-10706Y-18614D01*
X-10585Y-18493D01*
X-10520Y-18335D01*
X-10519Y-18164D01*
X-10519Y-18950D01*
X-11449Y-18950D01*
X-11449Y-15675D01*
X-11487Y-15583D01*
X-11558Y-15513D01*
X-11650Y-15475D01*
X-11749Y-15474D01*
X-11841Y-15512D01*
X-11911Y-15583D01*
X-11949Y-15675D01*
X-11950Y-15774D01*
X-11912Y-15866D01*
X-11841Y-15936D01*
X-11749Y-15974D01*
X-11650Y-15975D01*
X-11558Y-15937D01*
X-11488Y-15866D01*
X-11450Y-15774D01*
X-11449Y-15675D01*
X-11449Y-18950D01*
X-11519Y-18950D01*
X-11519Y-18164D01*
X-11519Y-17164D01*
X-11585Y-17006D01*
X-11706Y-16885D01*
X-11864Y-16820D01*
X-11974Y-16819D01*
X-11974Y-11300D01*
X-11999Y-11239D01*
X-11999Y-9625D01*
X-12037Y-9533D01*
X-12108Y-9463D01*
X-12200Y-9425D01*
X-12299Y-9424D01*
X-12391Y-9462D01*
X-12461Y-9533D01*
X-12499Y-9625D01*
X-12500Y-9724D01*
X-12462Y-9816D01*
X-12395Y-9883D01*
X-12466Y-9912D01*
X-12536Y-9983D01*
X-12574Y-10075D01*
X-12575Y-10174D01*
X-12537Y-10266D01*
X-12466Y-10336D01*
X-12374Y-10374D01*
X-12275Y-10375D01*
X-12183Y-10337D01*
X-12113Y-10266D01*
X-12075Y-10174D01*
X-12074Y-10075D01*
X-12112Y-9983D01*
X-12179Y-9916D01*
X-12108Y-9887D01*
X-12038Y-9816D01*
X-12000Y-9724D01*
X-11999Y-9625D01*
X-11999Y-11239D01*
X-12012Y-11208D01*
X-12083Y-11138D01*
X-12175Y-11100D01*
X-12274Y-11099D01*
X-12366Y-11137D01*
X-12436Y-11208D01*
X-12474Y-11300D01*
X-12475Y-11399D01*
X-12437Y-11491D01*
X-12366Y-11561D01*
X-12274Y-11599D01*
X-12175Y-11600D01*
X-12083Y-11562D01*
X-12013Y-11491D01*
X-11975Y-11399D01*
X-11974Y-11300D01*
X-11974Y-16819D01*
X-12035Y-16819D01*
X-12193Y-16885D01*
X-12274Y-16966D01*
X-12274Y-12600D01*
X-12312Y-12508D01*
X-12383Y-12438D01*
X-12475Y-12400D01*
X-12574Y-12399D01*
X-12666Y-12437D01*
X-12736Y-12508D01*
X-12774Y-12600D01*
X-12775Y-12699D01*
X-12737Y-12791D01*
X-12666Y-12861D01*
X-12574Y-12899D01*
X-12475Y-12900D01*
X-12383Y-12862D01*
X-12313Y-12791D01*
X-12275Y-12699D01*
X-12274Y-12600D01*
X-12274Y-16966D01*
X-12314Y-17006D01*
X-12379Y-17164D01*
X-12380Y-17335D01*
X-12314Y-17493D01*
X-12193Y-17614D01*
X-12035Y-17679D01*
X-11864Y-17680D01*
X-11706Y-17614D01*
X-11585Y-17493D01*
X-11520Y-17335D01*
X-11519Y-17164D01*
X-11519Y-18164D01*
X-11585Y-18006D01*
X-11706Y-17885D01*
X-11864Y-17820D01*
X-12035Y-17819D01*
X-12193Y-17885D01*
X-12314Y-18006D01*
X-12379Y-18164D01*
X-12380Y-18335D01*
X-12314Y-18493D01*
X-12193Y-18614D01*
X-12035Y-18679D01*
X-11864Y-18680D01*
X-11706Y-18614D01*
X-11585Y-18493D01*
X-11520Y-18335D01*
X-11519Y-18164D01*
X-11519Y-18950D01*
X-12449Y-18950D01*
X-12449Y-15200D01*
X-12487Y-15108D01*
X-12558Y-15038D01*
X-12624Y-15010D01*
X-12624Y-13650D01*
X-12662Y-13558D01*
X-12733Y-13488D01*
X-12825Y-13450D01*
X-12924Y-13449D01*
X-13016Y-13487D01*
X-13086Y-13558D01*
X-13099Y-13589D01*
X-13099Y-9700D01*
X-13137Y-9608D01*
X-13208Y-9538D01*
X-13224Y-9531D01*
X-13224Y-8600D01*
X-13262Y-8508D01*
X-13333Y-8438D01*
X-13425Y-8400D01*
X-13519Y-8399D01*
X-13519Y835D01*
X-13519Y1835D01*
X-13585Y1993D01*
X-13706Y2114D01*
X-13864Y2179D01*
X-14035Y2180D01*
X-14193Y2114D01*
X-14314Y1993D01*
X-14379Y1835D01*
X-14380Y1664D01*
X-14314Y1506D01*
X-14193Y1385D01*
X-14035Y1320D01*
X-13864Y1319D01*
X-13706Y1385D01*
X-13585Y1506D01*
X-13520Y1664D01*
X-13519Y1835D01*
X-13519Y835D01*
X-13585Y993D01*
X-13706Y1114D01*
X-13864Y1179D01*
X-14035Y1180D01*
X-14193Y1114D01*
X-14314Y993D01*
X-14379Y835D01*
X-14380Y664D01*
X-14314Y506D01*
X-14193Y385D01*
X-14035Y320D01*
X-13864Y319D01*
X-13706Y385D01*
X-13585Y506D01*
X-13520Y664D01*
X-13519Y835D01*
X-13519Y-8399D01*
X-13524Y-8399D01*
X-13616Y-8437D01*
X-13686Y-8508D01*
X-13724Y-8600D01*
X-13725Y-8699D01*
X-13687Y-8791D01*
X-13616Y-8861D01*
X-13524Y-8899D01*
X-13425Y-8900D01*
X-13333Y-8862D01*
X-13263Y-8791D01*
X-13225Y-8699D01*
X-13224Y-8600D01*
X-13224Y-9531D01*
X-13300Y-9500D01*
X-13399Y-9499D01*
X-13491Y-9537D01*
X-13561Y-9608D01*
X-13599Y-9700D01*
X-13600Y-9799D01*
X-13562Y-9891D01*
X-13491Y-9961D01*
X-13399Y-9999D01*
X-13300Y-10000D01*
X-13208Y-9962D01*
X-13138Y-9891D01*
X-13100Y-9799D01*
X-13099Y-9700D01*
X-13099Y-13589D01*
X-13124Y-13650D01*
X-13125Y-13749D01*
X-13087Y-13841D01*
X-13016Y-13911D01*
X-12924Y-13949D01*
X-12825Y-13950D01*
X-12733Y-13912D01*
X-12663Y-13841D01*
X-12625Y-13749D01*
X-12624Y-13650D01*
X-12624Y-15010D01*
X-12650Y-15000D01*
X-12749Y-14999D01*
X-12841Y-15037D01*
X-12911Y-15108D01*
X-12949Y-15200D01*
X-12950Y-15299D01*
X-12912Y-15391D01*
X-12841Y-15461D01*
X-12749Y-15499D01*
X-12650Y-15500D01*
X-12558Y-15462D01*
X-12488Y-15391D01*
X-12450Y-15299D01*
X-12449Y-15200D01*
X-12449Y-18950D01*
X-12519Y-18950D01*
X-12519Y-18164D01*
X-12519Y-17164D01*
X-12585Y-17006D01*
X-12706Y-16885D01*
X-12864Y-16820D01*
X-13035Y-16819D01*
X-13193Y-16885D01*
X-13314Y-17006D01*
X-13379Y-17164D01*
X-13380Y-17335D01*
X-13314Y-17493D01*
X-13193Y-17614D01*
X-13035Y-17679D01*
X-12864Y-17680D01*
X-12706Y-17614D01*
X-12585Y-17493D01*
X-12520Y-17335D01*
X-12519Y-17164D01*
X-12519Y-18164D01*
X-12585Y-18006D01*
X-12706Y-17885D01*
X-12864Y-17820D01*
X-13035Y-17819D01*
X-13193Y-17885D01*
X-13314Y-18006D01*
X-13379Y-18164D01*
X-13380Y-18335D01*
X-13314Y-18493D01*
X-13193Y-18614D01*
X-13035Y-18679D01*
X-12864Y-18680D01*
X-12706Y-18614D01*
X-12585Y-18493D01*
X-12520Y-18335D01*
X-12519Y-18164D01*
X-12519Y-18950D01*
X-13519Y-18950D01*
X-13519Y-18164D01*
X-13519Y-17164D01*
X-13585Y-17006D01*
X-13649Y-16941D01*
X-13649Y-10750D01*
X-13687Y-10658D01*
X-13758Y-10588D01*
X-13850Y-10550D01*
X-13924Y-10549D01*
X-13924Y-5875D01*
X-13962Y-5783D01*
X-14033Y-5713D01*
X-14125Y-5675D01*
X-14224Y-5674D01*
X-14316Y-5712D01*
X-14386Y-5783D01*
X-14424Y-5875D01*
X-14425Y-5974D01*
X-14387Y-6066D01*
X-14316Y-6136D01*
X-14224Y-6174D01*
X-14125Y-6175D01*
X-14033Y-6137D01*
X-13963Y-6066D01*
X-13925Y-5974D01*
X-13924Y-5875D01*
X-13924Y-10549D01*
X-13949Y-10549D01*
X-14041Y-10587D01*
X-14111Y-10658D01*
X-14149Y-10750D01*
X-14150Y-10849D01*
X-14112Y-10941D01*
X-14041Y-11011D01*
X-13949Y-11049D01*
X-13850Y-11050D01*
X-13758Y-11012D01*
X-13688Y-10941D01*
X-13650Y-10849D01*
X-13649Y-10750D01*
X-13649Y-16941D01*
X-13706Y-16885D01*
X-13864Y-16820D01*
X-14035Y-16819D01*
X-14193Y-16885D01*
X-14314Y-17006D01*
X-14379Y-17164D01*
X-14380Y-17335D01*
X-14314Y-17493D01*
X-14193Y-17614D01*
X-14035Y-17679D01*
X-13864Y-17680D01*
X-13706Y-17614D01*
X-13585Y-17493D01*
X-13520Y-17335D01*
X-13519Y-17164D01*
X-13519Y-18164D01*
X-13585Y-18006D01*
X-13706Y-17885D01*
X-13864Y-17820D01*
X-14035Y-17819D01*
X-14193Y-17885D01*
X-14314Y-18006D01*
X-14379Y-18164D01*
X-14380Y-18335D01*
X-14314Y-18493D01*
X-14193Y-18614D01*
X-14035Y-18679D01*
X-13864Y-18680D01*
X-13706Y-18614D01*
X-13585Y-18493D01*
X-13520Y-18335D01*
X-13519Y-18164D01*
X-13519Y-18950D01*
X-14519Y-18950D01*
X-14519Y-18164D01*
X-14519Y-17164D01*
X-14519Y835D01*
X-14519Y1835D01*
X-14585Y1993D01*
X-14706Y2114D01*
X-14864Y2179D01*
X-15035Y2180D01*
X-15193Y2114D01*
X-15314Y1993D01*
X-15379Y1835D01*
X-15380Y1664D01*
X-15314Y1506D01*
X-15193Y1385D01*
X-15035Y1320D01*
X-14864Y1319D01*
X-14706Y1385D01*
X-14585Y1506D01*
X-14520Y1664D01*
X-14519Y1835D01*
X-14519Y835D01*
X-14585Y993D01*
X-14706Y1114D01*
X-14864Y1179D01*
X-15035Y1180D01*
X-15193Y1114D01*
X-15314Y993D01*
X-15379Y835D01*
X-15380Y664D01*
X-15314Y506D01*
X-15193Y385D01*
X-15035Y320D01*
X-14864Y319D01*
X-14706Y385D01*
X-14585Y506D01*
X-14520Y664D01*
X-14519Y835D01*
X-14519Y-17164D01*
X-14585Y-17006D01*
X-14706Y-16885D01*
X-14864Y-16820D01*
X-15035Y-16819D01*
X-15193Y-16885D01*
X-15314Y-17006D01*
X-15379Y-17164D01*
X-15380Y-17335D01*
X-15314Y-17493D01*
X-15193Y-17614D01*
X-15035Y-17679D01*
X-14864Y-17680D01*
X-14706Y-17614D01*
X-14585Y-17493D01*
X-14520Y-17335D01*
X-14519Y-17164D01*
X-14519Y-18164D01*
X-14585Y-18006D01*
X-14706Y-17885D01*
X-14864Y-17820D01*
X-15035Y-17819D01*
X-15193Y-17885D01*
X-15314Y-18006D01*
X-15379Y-18164D01*
X-15380Y-18335D01*
X-15314Y-18493D01*
X-15193Y-18614D01*
X-15035Y-18679D01*
X-14864Y-18680D01*
X-14706Y-18614D01*
X-14585Y-18493D01*
X-14520Y-18335D01*
X-14519Y-18164D01*
X-14519Y-18950D01*
X-15519Y-18950D01*
X-15519Y-18164D01*
X-15519Y-17164D01*
X-15519Y835D01*
X-15519Y1835D01*
X-15585Y1993D01*
X-15706Y2114D01*
X-15864Y2179D01*
X-16035Y2180D01*
X-16193Y2114D01*
X-16314Y1993D01*
X-16379Y1835D01*
X-16380Y1664D01*
X-16314Y1506D01*
X-16193Y1385D01*
X-16035Y1320D01*
X-15864Y1319D01*
X-15706Y1385D01*
X-15585Y1506D01*
X-15520Y1664D01*
X-15519Y1835D01*
X-15519Y835D01*
X-15585Y993D01*
X-15706Y1114D01*
X-15864Y1179D01*
X-16035Y1180D01*
X-16193Y1114D01*
X-16314Y993D01*
X-16379Y835D01*
X-16380Y664D01*
X-16314Y506D01*
X-16193Y385D01*
X-16035Y320D01*
X-15864Y319D01*
X-15706Y385D01*
X-15585Y506D01*
X-15520Y664D01*
X-15519Y835D01*
X-15519Y-17164D01*
X-15585Y-17006D01*
X-15706Y-16885D01*
X-15864Y-16820D01*
X-16035Y-16819D01*
X-16193Y-16885D01*
X-16314Y-17006D01*
X-16379Y-17164D01*
X-16380Y-17335D01*
X-16314Y-17493D01*
X-16193Y-17614D01*
X-16035Y-17679D01*
X-15864Y-17680D01*
X-15706Y-17614D01*
X-15585Y-17493D01*
X-15520Y-17335D01*
X-15519Y-17164D01*
X-15519Y-18164D01*
X-15585Y-18006D01*
X-15706Y-17885D01*
X-15864Y-17820D01*
X-16035Y-17819D01*
X-16193Y-17885D01*
X-16314Y-18006D01*
X-16379Y-18164D01*
X-16380Y-18335D01*
X-16314Y-18493D01*
X-16193Y-18614D01*
X-16035Y-18679D01*
X-15864Y-18680D01*
X-15706Y-18614D01*
X-15585Y-18493D01*
X-15520Y-18335D01*
X-15519Y-18164D01*
X-15519Y-18950D01*
X-16519Y-18950D01*
X-16519Y-18164D01*
X-16519Y-17164D01*
X-16519Y835D01*
X-16519Y1835D01*
X-16585Y1993D01*
X-16706Y2114D01*
X-16864Y2179D01*
X-17035Y2180D01*
X-17193Y2114D01*
X-17314Y1993D01*
X-17379Y1835D01*
X-17380Y1664D01*
X-17314Y1506D01*
X-17193Y1385D01*
X-17035Y1320D01*
X-16864Y1319D01*
X-16706Y1385D01*
X-16585Y1506D01*
X-16520Y1664D01*
X-16519Y1835D01*
X-16519Y835D01*
X-16585Y993D01*
X-16706Y1114D01*
X-16864Y1179D01*
X-17035Y1180D01*
X-17193Y1114D01*
X-17314Y993D01*
X-17379Y835D01*
X-17380Y664D01*
X-17314Y506D01*
X-17193Y385D01*
X-17035Y320D01*
X-16864Y319D01*
X-16706Y385D01*
X-16585Y506D01*
X-16520Y664D01*
X-16519Y835D01*
X-16519Y-17164D01*
X-16585Y-17006D01*
X-16706Y-16885D01*
X-16864Y-16820D01*
X-17035Y-16819D01*
X-17193Y-16885D01*
X-17314Y-17006D01*
X-17379Y-17164D01*
X-17380Y-17335D01*
X-17314Y-17493D01*
X-17193Y-17614D01*
X-17035Y-17679D01*
X-16864Y-17680D01*
X-16706Y-17614D01*
X-16585Y-17493D01*
X-16520Y-17335D01*
X-16519Y-17164D01*
X-16519Y-18164D01*
X-16585Y-18006D01*
X-16706Y-17885D01*
X-16864Y-17820D01*
X-17035Y-17819D01*
X-17193Y-17885D01*
X-17314Y-18006D01*
X-17379Y-18164D01*
X-17380Y-18335D01*
X-17314Y-18493D01*
X-17193Y-18614D01*
X-17035Y-18679D01*
X-16864Y-18680D01*
X-16706Y-18614D01*
X-16585Y-18493D01*
X-16520Y-18335D01*
X-16519Y-18164D01*
X-16519Y-18950D01*
X-17519Y-18950D01*
X-17519Y-18164D01*
X-17519Y-17164D01*
X-17519Y835D01*
X-17519Y1835D01*
X-17585Y1993D01*
X-17706Y2114D01*
X-17864Y2179D01*
X-18035Y2180D01*
X-18193Y2114D01*
X-18314Y1993D01*
X-18379Y1835D01*
X-18380Y1664D01*
X-18314Y1506D01*
X-18193Y1385D01*
X-18035Y1320D01*
X-17864Y1319D01*
X-17706Y1385D01*
X-17585Y1506D01*
X-17520Y1664D01*
X-17519Y1835D01*
X-17519Y835D01*
X-17585Y993D01*
X-17706Y1114D01*
X-17864Y1179D01*
X-18035Y1180D01*
X-18193Y1114D01*
X-18314Y993D01*
X-18379Y835D01*
X-18380Y664D01*
X-18314Y506D01*
X-18193Y385D01*
X-18035Y320D01*
X-17864Y319D01*
X-17706Y385D01*
X-17585Y506D01*
X-17520Y664D01*
X-17519Y835D01*
X-17519Y-17164D01*
X-17585Y-17006D01*
X-17706Y-16885D01*
X-17864Y-16820D01*
X-18035Y-16819D01*
X-18049Y-16826D01*
X-18049Y-15525D01*
X-18087Y-15433D01*
X-18158Y-15363D01*
X-18250Y-15325D01*
X-18349Y-15324D01*
X-18441Y-15362D01*
X-18511Y-15433D01*
X-18519Y-15452D01*
X-18519Y835D01*
X-18519Y1835D01*
X-18585Y1993D01*
X-18706Y2114D01*
X-18864Y2179D01*
X-19035Y2180D01*
X-19193Y2114D01*
X-19314Y1993D01*
X-19379Y1835D01*
X-19380Y1664D01*
X-19314Y1506D01*
X-19193Y1385D01*
X-19035Y1320D01*
X-18864Y1319D01*
X-18706Y1385D01*
X-18585Y1506D01*
X-18520Y1664D01*
X-18519Y1835D01*
X-18519Y835D01*
X-18585Y993D01*
X-18706Y1114D01*
X-18864Y1179D01*
X-19035Y1180D01*
X-19193Y1114D01*
X-19314Y993D01*
X-19379Y835D01*
X-19380Y664D01*
X-19314Y506D01*
X-19193Y385D01*
X-19035Y320D01*
X-18864Y319D01*
X-18706Y385D01*
X-18585Y506D01*
X-18520Y664D01*
X-18519Y835D01*
X-18519Y-15452D01*
X-18549Y-15525D01*
X-18550Y-15624D01*
X-18512Y-15716D01*
X-18441Y-15786D01*
X-18349Y-15824D01*
X-18250Y-15825D01*
X-18158Y-15787D01*
X-18088Y-15716D01*
X-18050Y-15624D01*
X-18049Y-15525D01*
X-18049Y-16826D01*
X-18193Y-16885D01*
X-18314Y-17006D01*
X-18379Y-17164D01*
X-18380Y-17335D01*
X-18314Y-17493D01*
X-18193Y-17614D01*
X-18035Y-17679D01*
X-17864Y-17680D01*
X-17706Y-17614D01*
X-17585Y-17493D01*
X-17520Y-17335D01*
X-17519Y-17164D01*
X-17519Y-18164D01*
X-17585Y-18006D01*
X-17706Y-17885D01*
X-17864Y-17820D01*
X-18035Y-17819D01*
X-18193Y-17885D01*
X-18314Y-18006D01*
X-18379Y-18164D01*
X-18380Y-18335D01*
X-18314Y-18493D01*
X-18193Y-18614D01*
X-18035Y-18679D01*
X-17864Y-18680D01*
X-17706Y-18614D01*
X-17585Y-18493D01*
X-17520Y-18335D01*
X-17519Y-18164D01*
X-17519Y-18950D01*
X-18519Y-18950D01*
X-18519Y-18164D01*
X-18519Y-17164D01*
X-18585Y-17006D01*
X-18706Y-16885D01*
X-18849Y-16825D01*
X-18849Y-14750D01*
X-18887Y-14658D01*
X-18958Y-14588D01*
X-19050Y-14550D01*
X-19149Y-14549D01*
X-19241Y-14587D01*
X-19311Y-14658D01*
X-19349Y-14750D01*
X-19350Y-14849D01*
X-19312Y-14941D01*
X-19241Y-15011D01*
X-19149Y-15049D01*
X-19050Y-15050D01*
X-18958Y-15012D01*
X-18888Y-14941D01*
X-18850Y-14849D01*
X-18849Y-14750D01*
X-18849Y-16825D01*
X-18864Y-16820D01*
X-19035Y-16819D01*
X-19193Y-16885D01*
X-19314Y-17006D01*
X-19379Y-17164D01*
X-19380Y-17335D01*
X-19314Y-17493D01*
X-19193Y-17614D01*
X-19035Y-17679D01*
X-18864Y-17680D01*
X-18706Y-17614D01*
X-18585Y-17493D01*
X-18520Y-17335D01*
X-18519Y-17164D01*
X-18519Y-18164D01*
X-18585Y-18006D01*
X-18706Y-17885D01*
X-18864Y-17820D01*
X-19035Y-17819D01*
X-19193Y-17885D01*
X-19314Y-18006D01*
X-19379Y-18164D01*
X-19380Y-18335D01*
X-19314Y-18493D01*
X-19193Y-18614D01*
X-19035Y-18679D01*
X-18864Y-18680D01*
X-18706Y-18614D01*
X-18585Y-18493D01*
X-18520Y-18335D01*
X-18519Y-18164D01*
X-18519Y-18950D01*
X-19399Y-18950D01*
X-19399Y-13650D01*
X-19437Y-13558D01*
X-19508Y-13488D01*
X-19519Y-13483D01*
X-19519Y835D01*
X-19519Y1835D01*
X-19585Y1993D01*
X-19706Y2114D01*
X-19864Y2179D01*
X-20035Y2180D01*
X-20193Y2114D01*
X-20314Y1993D01*
X-20379Y1835D01*
X-20380Y1664D01*
X-20314Y1506D01*
X-20193Y1385D01*
X-20035Y1320D01*
X-19864Y1319D01*
X-19706Y1385D01*
X-19585Y1506D01*
X-19520Y1664D01*
X-19519Y1835D01*
X-19519Y835D01*
X-19585Y993D01*
X-19706Y1114D01*
X-19864Y1179D01*
X-20035Y1180D01*
X-20193Y1114D01*
X-20314Y993D01*
X-20379Y835D01*
X-20380Y664D01*
X-20314Y506D01*
X-20193Y385D01*
X-20035Y320D01*
X-19864Y319D01*
X-19706Y385D01*
X-19585Y506D01*
X-19520Y664D01*
X-19519Y835D01*
X-19519Y-13483D01*
X-19600Y-13450D01*
X-19699Y-13449D01*
X-19791Y-13487D01*
X-19861Y-13558D01*
X-19899Y-13650D01*
X-19900Y-13749D01*
X-19862Y-13841D01*
X-19791Y-13911D01*
X-19699Y-13949D01*
X-19600Y-13950D01*
X-19508Y-13912D01*
X-19438Y-13841D01*
X-19400Y-13749D01*
X-19399Y-13650D01*
X-19399Y-18950D01*
X-19519Y-18950D01*
X-19519Y-18164D01*
X-19519Y-17164D01*
X-19585Y-17006D01*
X-19706Y-16885D01*
X-19864Y-16820D01*
X-20035Y-16819D01*
X-20193Y-16885D01*
X-20314Y-17006D01*
X-20379Y-17164D01*
X-20380Y-17335D01*
X-20314Y-17493D01*
X-20193Y-17614D01*
X-20035Y-17679D01*
X-19864Y-17680D01*
X-19706Y-17614D01*
X-19585Y-17493D01*
X-19520Y-17335D01*
X-19519Y-17164D01*
X-19519Y-18164D01*
X-19585Y-18006D01*
X-19706Y-17885D01*
X-19864Y-17820D01*
X-20035Y-17819D01*
X-20193Y-17885D01*
X-20314Y-18006D01*
X-20379Y-18164D01*
X-20380Y-18335D01*
X-20314Y-18493D01*
X-20193Y-18614D01*
X-20035Y-18679D01*
X-19864Y-18680D01*
X-19706Y-18614D01*
X-19585Y-18493D01*
X-19520Y-18335D01*
X-19519Y-18164D01*
X-19519Y-18950D01*
X-20519Y-18950D01*
X-20519Y-18164D01*
X-20519Y-17164D01*
X-20519Y835D01*
X-20519Y1835D01*
X-20585Y1993D01*
X-20706Y2114D01*
X-20864Y2179D01*
X-21035Y2180D01*
X-21193Y2114D01*
X-21314Y1993D01*
X-21379Y1835D01*
X-21380Y1664D01*
X-21314Y1506D01*
X-21193Y1385D01*
X-21035Y1320D01*
X-20864Y1319D01*
X-20706Y1385D01*
X-20585Y1506D01*
X-20520Y1664D01*
X-20519Y1835D01*
X-20519Y835D01*
X-20585Y993D01*
X-20706Y1114D01*
X-20864Y1179D01*
X-21035Y1180D01*
X-21193Y1114D01*
X-21314Y993D01*
X-21379Y835D01*
X-21380Y664D01*
X-21314Y506D01*
X-21193Y385D01*
X-21035Y320D01*
X-20864Y319D01*
X-20706Y385D01*
X-20585Y506D01*
X-20520Y664D01*
X-20519Y835D01*
X-20519Y-17164D01*
X-20585Y-17006D01*
X-20706Y-16885D01*
X-20864Y-16820D01*
X-21035Y-16819D01*
X-21193Y-16885D01*
X-21314Y-17006D01*
X-21379Y-17164D01*
X-21380Y-17335D01*
X-21314Y-17493D01*
X-21193Y-17614D01*
X-21035Y-17679D01*
X-20864Y-17680D01*
X-20706Y-17614D01*
X-20585Y-17493D01*
X-20520Y-17335D01*
X-20519Y-17164D01*
X-20519Y-18164D01*
X-20585Y-18006D01*
X-20706Y-17885D01*
X-20864Y-17820D01*
X-21035Y-17819D01*
X-21193Y-17885D01*
X-21314Y-18006D01*
X-21379Y-18164D01*
X-21380Y-18335D01*
X-21314Y-18493D01*
X-21193Y-18614D01*
X-21035Y-18679D01*
X-20864Y-18680D01*
X-20706Y-18614D01*
X-20585Y-18493D01*
X-20520Y-18335D01*
X-20519Y-18164D01*
X-20519Y-18950D01*
X-21449Y-18950D01*
X-21449Y-14800D01*
X-21487Y-14708D01*
X-21519Y-14676D01*
X-21519Y835D01*
X-21519Y1835D01*
X-21585Y1993D01*
X-21706Y2114D01*
X-21864Y2179D01*
X-22035Y2180D01*
X-22193Y2114D01*
X-22314Y1993D01*
X-22379Y1835D01*
X-22380Y1664D01*
X-22314Y1506D01*
X-22193Y1385D01*
X-22035Y1320D01*
X-21864Y1319D01*
X-21706Y1385D01*
X-21585Y1506D01*
X-21520Y1664D01*
X-21519Y1835D01*
X-21519Y835D01*
X-21585Y993D01*
X-21706Y1114D01*
X-21864Y1179D01*
X-22035Y1180D01*
X-22193Y1114D01*
X-22314Y993D01*
X-22379Y835D01*
X-22380Y664D01*
X-22314Y506D01*
X-22193Y385D01*
X-22035Y320D01*
X-21864Y319D01*
X-21706Y385D01*
X-21585Y506D01*
X-21520Y664D01*
X-21519Y835D01*
X-21519Y-14676D01*
X-21558Y-14638D01*
X-21650Y-14600D01*
X-21749Y-14599D01*
X-21841Y-14637D01*
X-21911Y-14708D01*
X-21949Y-14800D01*
X-21950Y-14899D01*
X-21912Y-14991D01*
X-21841Y-15061D01*
X-21749Y-15099D01*
X-21650Y-15100D01*
X-21558Y-15062D01*
X-21488Y-14991D01*
X-21450Y-14899D01*
X-21449Y-14800D01*
X-21449Y-18950D01*
X-21519Y-18950D01*
X-21519Y-18164D01*
X-21519Y-17164D01*
X-21585Y-17006D01*
X-21706Y-16885D01*
X-21864Y-16820D01*
X-21874Y-16820D01*
X-21874Y-15625D01*
X-21912Y-15533D01*
X-21983Y-15463D01*
X-22075Y-15425D01*
X-22174Y-15424D01*
X-22266Y-15462D01*
X-22336Y-15533D01*
X-22374Y-15625D01*
X-22375Y-15724D01*
X-22337Y-15816D01*
X-22266Y-15886D01*
X-22174Y-15924D01*
X-22075Y-15925D01*
X-21983Y-15887D01*
X-21913Y-15816D01*
X-21875Y-15724D01*
X-21874Y-15625D01*
X-21874Y-16820D01*
X-22035Y-16819D01*
X-22193Y-16885D01*
X-22314Y-17006D01*
X-22379Y-17164D01*
X-22380Y-17335D01*
X-22314Y-17493D01*
X-22193Y-17614D01*
X-22035Y-17679D01*
X-21864Y-17680D01*
X-21706Y-17614D01*
X-21585Y-17493D01*
X-21520Y-17335D01*
X-21519Y-17164D01*
X-21519Y-18164D01*
X-21585Y-18006D01*
X-21706Y-17885D01*
X-21864Y-17820D01*
X-22035Y-17819D01*
X-22193Y-17885D01*
X-22314Y-18006D01*
X-22379Y-18164D01*
X-22380Y-18335D01*
X-22314Y-18493D01*
X-22193Y-18614D01*
X-22035Y-18679D01*
X-21864Y-18680D01*
X-21706Y-18614D01*
X-21585Y-18493D01*
X-21520Y-18335D01*
X-21519Y-18164D01*
X-21519Y-18950D01*
X-22519Y-18950D01*
X-22519Y-18164D01*
X-22519Y-17164D01*
X-22519Y835D01*
X-22519Y1835D01*
X-22585Y1993D01*
X-22706Y2114D01*
X-22864Y2179D01*
X-23035Y2180D01*
X-23193Y2114D01*
X-23314Y1993D01*
X-23379Y1835D01*
X-23380Y1664D01*
X-23314Y1506D01*
X-23193Y1385D01*
X-23035Y1320D01*
X-22864Y1319D01*
X-22706Y1385D01*
X-22585Y1506D01*
X-22520Y1664D01*
X-22519Y1835D01*
X-22519Y835D01*
X-22585Y993D01*
X-22706Y1114D01*
X-22864Y1179D01*
X-23035Y1180D01*
X-23193Y1114D01*
X-23314Y993D01*
X-23379Y835D01*
X-23380Y664D01*
X-23314Y506D01*
X-23193Y385D01*
X-23035Y320D01*
X-22864Y319D01*
X-22706Y385D01*
X-22585Y506D01*
X-22520Y664D01*
X-22519Y835D01*
X-22519Y-17164D01*
X-22585Y-17006D01*
X-22706Y-16885D01*
X-22864Y-16820D01*
X-22909Y-16820D01*
X-22909Y-2600D01*
X-22947Y-2508D01*
X-23018Y-2438D01*
X-23110Y-2400D01*
X-23209Y-2399D01*
X-23301Y-2437D01*
X-23371Y-2508D01*
X-23409Y-2600D01*
X-23410Y-2699D01*
X-23372Y-2791D01*
X-23301Y-2861D01*
X-23209Y-2899D01*
X-23110Y-2900D01*
X-23018Y-2862D01*
X-22948Y-2791D01*
X-22910Y-2699D01*
X-22909Y-2600D01*
X-22909Y-16820D01*
X-23035Y-16819D01*
X-23193Y-16885D01*
X-23314Y-17006D01*
X-23379Y-17164D01*
X-23380Y-17335D01*
X-23314Y-17493D01*
X-23193Y-17614D01*
X-23035Y-17679D01*
X-22864Y-17680D01*
X-22706Y-17614D01*
X-22585Y-17493D01*
X-22520Y-17335D01*
X-22519Y-17164D01*
X-22519Y-18164D01*
X-22585Y-18006D01*
X-22706Y-17885D01*
X-22864Y-17820D01*
X-23035Y-17819D01*
X-23193Y-17885D01*
X-23314Y-18006D01*
X-23379Y-18164D01*
X-23380Y-18335D01*
X-23314Y-18493D01*
X-23193Y-18614D01*
X-23035Y-18679D01*
X-22864Y-18680D01*
X-22706Y-18614D01*
X-22585Y-18493D01*
X-22520Y-18335D01*
X-22519Y-18164D01*
X-22519Y-18950D01*
X-23494Y-18950D01*
X-23494Y-18549D01*
X-23494Y-17899D01*
X-23494Y450D01*
X-23494Y1100D01*
X-23514Y1148D01*
X-23519Y1153D01*
X-23519Y1835D01*
X-23585Y1993D01*
X-23706Y2114D01*
X-23864Y2179D01*
X-24035Y2180D01*
X-24193Y2114D01*
X-24314Y1993D01*
X-24379Y1835D01*
X-24380Y1664D01*
X-24314Y1506D01*
X-24193Y1385D01*
X-24035Y1320D01*
X-23864Y1319D01*
X-23706Y1385D01*
X-23585Y1506D01*
X-23520Y1664D01*
X-23519Y1835D01*
X-23519Y1153D01*
X-23551Y1185D01*
X-23599Y1204D01*
X-23650Y1205D01*
X-24300Y1205D01*
X-24348Y1185D01*
X-24385Y1148D01*
X-24404Y1100D01*
X-24405Y1049D01*
X-24405Y399D01*
X-24385Y351D01*
X-24348Y314D01*
X-24300Y295D01*
X-24249Y294D01*
X-23599Y294D01*
X-23551Y314D01*
X-23514Y351D01*
X-23495Y399D01*
X-23494Y450D01*
X-23494Y-17899D01*
X-23514Y-17851D01*
X-23519Y-17846D01*
X-23519Y-17164D01*
X-23585Y-17006D01*
X-23706Y-16885D01*
X-23864Y-16820D01*
X-24035Y-16819D01*
X-24193Y-16885D01*
X-24314Y-17006D01*
X-24379Y-17164D01*
X-24380Y-17335D01*
X-24314Y-17493D01*
X-24193Y-17614D01*
X-24035Y-17679D01*
X-23864Y-17680D01*
X-23706Y-17614D01*
X-23585Y-17493D01*
X-23520Y-17335D01*
X-23519Y-17164D01*
X-23519Y-17846D01*
X-23551Y-17814D01*
X-23599Y-17795D01*
X-23650Y-17794D01*
X-24300Y-17794D01*
X-24348Y-17814D01*
X-24385Y-17851D01*
X-24404Y-17899D01*
X-24405Y-17950D01*
X-24405Y-18600D01*
X-24385Y-18648D01*
X-24348Y-18685D01*
X-24300Y-18704D01*
X-24249Y-18705D01*
X-23599Y-18705D01*
X-23551Y-18685D01*
X-23514Y-18648D01*
X-23495Y-18600D01*
X-23494Y-18549D01*
X-23494Y-18950D01*
X-24919Y-18950D01*
X-24919Y-17546D01*
X-25076Y-17167D01*
X-25365Y-16877D01*
X-25744Y-16720D01*
X-26153Y-16719D01*
X-26532Y-16876D01*
X-26822Y-17165D01*
X-26979Y-17544D01*
X-26980Y-17953D01*
X-26823Y-18332D01*
X-26534Y-18622D01*
X-26155Y-18779D01*
X-25746Y-18780D01*
X-25367Y-18623D01*
X-25077Y-18334D01*
X-24920Y-17955D01*
X-24919Y-17546D01*
X-24919Y-18950D01*
X-29250Y-18950D01*
X-29250Y-18929D01*
X-31650Y-16454D01*
X-31650Y-10950D01*
X-23600Y-10950D01*
X-23600Y-3550D01*
X-24919Y-3550D01*
X-24919Y1453D01*
X-25076Y1832D01*
X-25365Y2122D01*
X-25744Y2279D01*
X-26153Y2280D01*
X-26532Y2123D01*
X-26822Y1834D01*
X-26979Y1455D01*
X-26980Y1046D01*
X-26823Y667D01*
X-26534Y377D01*
X-26155Y220D01*
X-25746Y219D01*
X-25367Y376D01*
X-25077Y665D01*
X-24920Y1044D01*
X-24919Y1453D01*
X-24919Y-3550D01*
X-26570Y-3550D01*
X-26570Y-1500D01*
X-26581Y-1292D01*
X-26639Y-1152D01*
X-26695Y-1137D01*
X-26695Y-360D01*
X-26756Y-211D01*
X-26870Y-97D01*
X-27019Y-35D01*
X-27180Y-35D01*
X-27329Y-97D01*
X-27443Y-211D01*
X-27505Y-359D01*
X-27505Y-520D01*
X-27443Y-669D01*
X-27330Y-783D01*
X-27181Y-845D01*
X-27020Y-845D01*
X-26871Y-784D01*
X-26757Y-670D01*
X-26695Y-521D01*
X-26695Y-360D01*
X-26695Y-1137D01*
X-26732Y-1127D01*
X-26803Y-1198D01*
X-26803Y-1057D01*
X-26827Y-964D01*
X-27024Y-895D01*
X-27233Y-906D01*
X-27373Y-964D01*
X-27397Y-1057D01*
X-27100Y-1354D01*
X-26803Y-1057D01*
X-26803Y-1198D01*
X-27029Y-1425D01*
X-26732Y-1722D01*
X-26639Y-1697D01*
X-26570Y-1500D01*
X-26570Y-3550D01*
X-26695Y-3550D01*
X-26695Y-2329D01*
X-26756Y-2180D01*
X-26803Y-2133D01*
X-26803Y-1792D01*
X-27100Y-1495D01*
X-27171Y-1566D01*
X-27171Y-1425D01*
X-27468Y-1127D01*
X-27560Y-1152D01*
X-27630Y-1349D01*
X-27618Y-1557D01*
X-27560Y-1697D01*
X-27468Y-1722D01*
X-27171Y-1425D01*
X-27171Y-1566D01*
X-27397Y-1792D01*
X-27373Y-1885D01*
X-27176Y-1954D01*
X-26967Y-1943D01*
X-26827Y-1885D01*
X-26803Y-1792D01*
X-26803Y-2133D01*
X-26870Y-2066D01*
X-27019Y-2004D01*
X-27180Y-2004D01*
X-27329Y-2065D01*
X-27443Y-2179D01*
X-27505Y-2328D01*
X-27505Y-2489D01*
X-27443Y-2638D01*
X-27330Y-2752D01*
X-27181Y-2814D01*
X-27020Y-2814D01*
X-26871Y-2752D01*
X-26757Y-2638D01*
X-26695Y-2490D01*
X-26695Y-2329D01*
X-26695Y-3550D01*
X-27869Y-3550D01*
X-27869Y-1500D01*
X-27881Y-1292D01*
X-27939Y-1152D01*
X-27994Y-1137D01*
X-27994Y-360D01*
X-28056Y-211D01*
X-28169Y-97D01*
X-28318Y-35D01*
X-28479Y-35D01*
X-28628Y-97D01*
X-28742Y-211D01*
X-28804Y-359D01*
X-28804Y-520D01*
X-28743Y-669D01*
X-28629Y-783D01*
X-28480Y-845D01*
X-28319Y-845D01*
X-28170Y-784D01*
X-28056Y-670D01*
X-27994Y-521D01*
X-27994Y-360D01*
X-27994Y-1137D01*
X-28031Y-1127D01*
X-28102Y-1198D01*
X-28102Y-1057D01*
X-28126Y-964D01*
X-28323Y-895D01*
X-28532Y-906D01*
X-28672Y-964D01*
X-28696Y-1057D01*
X-28399Y-1354D01*
X-28102Y-1057D01*
X-28102Y-1198D01*
X-28328Y-1425D01*
X-28031Y-1722D01*
X-27939Y-1697D01*
X-27869Y-1500D01*
X-27869Y-3550D01*
X-27994Y-3550D01*
X-27994Y-2329D01*
X-28056Y-2180D01*
X-28102Y-2133D01*
X-28102Y-1792D01*
X-28399Y-1495D01*
X-28696Y-1792D01*
X-28672Y-1885D01*
X-28475Y-1954D01*
X-28266Y-1943D01*
X-28126Y-1885D01*
X-28102Y-1792D01*
X-28102Y-2133D01*
X-28169Y-2066D01*
X-28318Y-2004D01*
X-28479Y-2004D01*
X-28628Y-2065D01*
X-28742Y-2179D01*
X-28804Y-2328D01*
X-28804Y-2489D01*
X-28743Y-2638D01*
X-28629Y-2752D01*
X-28480Y-2814D01*
X-28319Y-2814D01*
X-28170Y-2752D01*
X-28056Y-2638D01*
X-27994Y-2490D01*
X-27994Y-2329D01*
X-27994Y-3550D01*
X-28900Y-3550D01*
X-28900Y-1601D01*
X-28860Y-1697D01*
X-28767Y-1722D01*
X-28470Y-1425D01*
X-28767Y-1127D01*
X-28860Y-1152D01*
X-28900Y-1265D01*
X-28900Y2450D01*
X-13100Y2450D01*
X-13100Y2153D01*
X-13193Y2114D01*
X-13314Y1993D01*
X-13379Y1835D01*
X-13380Y1664D01*
X-13314Y1506D01*
X-13193Y1385D01*
X-13100Y1346D01*
X-13100Y1153D01*
X-13193Y1114D01*
X-13314Y993D01*
X-13379Y835D01*
X-13380Y664D01*
X-13314Y506D01*
X-13193Y385D01*
X-13100Y346D01*
X-13100Y-3950D01*
X-12800Y-3950D01*
X-12800Y-2250D01*
X-9625Y-2250D01*
X-9625Y-5350D01*
X-11904Y-5350D01*
X-11975Y-5279D01*
X-11975Y-4775D01*
X-12275Y-4775D01*
X-12275Y-8270D01*
X-11570Y-8974D01*
X-11599Y-8974D01*
X-11691Y-9012D01*
X-11761Y-9083D01*
X-11799Y-9175D01*
X-11800Y-9274D01*
X-11762Y-9366D01*
X-11691Y-9436D01*
X-11599Y-9474D01*
X-11500Y-9475D01*
X-11408Y-9437D01*
X-11338Y-9366D01*
X-11300Y-9274D01*
X-11300Y-9245D01*
X-10300Y-10245D01*
X-10300Y-11979D01*
X-10450Y-12129D01*
X-10450Y-12275D01*
X-10450Y-12446D01*
X-10511Y-12508D01*
X-10549Y-12600D01*
X-10550Y-12699D01*
X-10512Y-12791D01*
X-10450Y-12853D01*
X-10450Y-13704D01*
X-10624Y-13879D01*
X-10624Y-10325D01*
X-10662Y-10233D01*
X-10733Y-10163D01*
X-10825Y-10125D01*
X-10924Y-10124D01*
X-11016Y-10162D01*
X-11086Y-10233D01*
X-11124Y-10325D01*
X-11125Y-10424D01*
X-11104Y-10475D01*
X-11174Y-10474D01*
X-11266Y-10512D01*
X-11336Y-10583D01*
X-11374Y-10675D01*
X-11375Y-10774D01*
X-11337Y-10866D01*
X-11266Y-10936D01*
X-11174Y-10974D01*
X-11075Y-10975D01*
X-10983Y-10937D01*
X-10913Y-10866D01*
X-10875Y-10774D01*
X-10874Y-10675D01*
X-10895Y-10624D01*
X-10825Y-10625D01*
X-10733Y-10587D01*
X-10663Y-10516D01*
X-10625Y-10424D01*
X-10624Y-10325D01*
X-10624Y-13879D01*
X-10749Y-14004D01*
X-10749Y-11250D01*
X-10787Y-11158D01*
X-10858Y-11088D01*
X-10950Y-11050D01*
X-11049Y-11049D01*
X-11141Y-11087D01*
X-11211Y-11158D01*
X-11249Y-11250D01*
X-11250Y-11349D01*
X-11212Y-11441D01*
X-11141Y-11511D01*
X-11049Y-11549D01*
X-10950Y-11550D01*
X-10858Y-11512D01*
X-10788Y-11441D01*
X-10750Y-11349D01*
X-10749Y-11250D01*
X-10749Y-14004D01*
X-11024Y-14279D01*
X-11024Y-13575D01*
X-11062Y-13483D01*
X-11133Y-13413D01*
X-11225Y-13375D01*
X-11324Y-13374D01*
X-11416Y-13412D01*
X-11486Y-13483D01*
X-11524Y-13575D01*
X-11525Y-13674D01*
X-11487Y-13766D01*
X-11416Y-13836D01*
X-11324Y-13874D01*
X-11225Y-13875D01*
X-11133Y-13837D01*
X-11063Y-13766D01*
X-11025Y-13674D01*
X-11024Y-13575D01*
X-11024Y-14279D01*
X-11050Y-14304D01*
X-11050Y-15975D01*
X-9420Y-15975D01*
X-8475Y-16920D01*
X-8475Y-17850D01*
X-8107Y-17850D01*
X-8193Y-17885D01*
X-8314Y-18006D01*
X-8379Y-18164D01*
X-8380Y-18335D01*
X-8314Y-18493D01*
X-8193Y-18614D01*
X-8035Y-18679D01*
X-7864Y-18680D01*
X-7706Y-18614D01*
X-7585Y-18493D01*
X-7520Y-18335D01*
X-7519Y-18164D01*
X-7585Y-18006D01*
X-7706Y-17885D01*
X-7792Y-17850D01*
X-7150Y-17850D01*
X-7150Y-17632D01*
X-7035Y-17679D01*
X-6864Y-17680D01*
X-6706Y-17614D01*
X-6585Y-17493D01*
X-6520Y-17335D01*
X-6519Y-17164D01*
X-6585Y-17006D01*
X-6691Y-16900D01*
X-6208Y-16900D01*
X-6314Y-17006D01*
X-6379Y-17164D01*
X-6380Y-17335D01*
X-6314Y-17493D01*
X-6193Y-17614D01*
X-6035Y-17679D01*
X-5864Y-17680D01*
X-5706Y-17614D01*
X-5585Y-17493D01*
X-5520Y-17335D01*
X-5519Y-17164D01*
X-5585Y-17006D01*
X-5691Y-16900D01*
X-5208Y-16900D01*
X-5314Y-17006D01*
X-5379Y-17164D01*
X-5380Y-17335D01*
X-5314Y-17493D01*
X-5193Y-17614D01*
X-5035Y-17679D01*
X-4864Y-17680D01*
X-4706Y-17614D01*
X-4585Y-17493D01*
X-4520Y-17335D01*
X-4519Y-17164D01*
X-4585Y-17006D01*
X-4691Y-16900D01*
X-4208Y-16900D01*
X-4314Y-17006D01*
X-4379Y-17164D01*
X-4380Y-17335D01*
X-4314Y-17493D01*
X-4193Y-17614D01*
X-4035Y-17679D01*
X-3864Y-17680D01*
X-3706Y-17614D01*
X-3585Y-17493D01*
X-3520Y-17335D01*
X-3519Y-17164D01*
X-3585Y-17006D01*
X-3691Y-16900D01*
X-3208Y-16900D01*
X-3314Y-17006D01*
X-3379Y-17164D01*
X-3380Y-17335D01*
X-3314Y-17493D01*
X-3193Y-17614D01*
X-3035Y-17679D01*
X-2864Y-17680D01*
X-2706Y-17614D01*
X-2585Y-17493D01*
X-2520Y-17335D01*
X-2519Y-17164D01*
X-2585Y-17006D01*
X-2691Y-16900D01*
X-2208Y-16900D01*
X-2314Y-17006D01*
X-2379Y-17164D01*
X-2380Y-17335D01*
X-2314Y-17493D01*
X-2193Y-17614D01*
X-2035Y-17679D01*
X-1864Y-17680D01*
X-1706Y-17614D01*
X-1585Y-17493D01*
X-1520Y-17335D01*
X-1520Y-17300D01*
X-1145Y-17675D01*
X-1145Y-17675D01*
G37*
G54D19*
X-1145Y-17675D02*
X-1553Y-18083D01*
X-1585Y-18006D01*
X-1706Y-17885D01*
X-1864Y-17820D01*
X-2035Y-17819D01*
X-2193Y-17885D01*
X-2314Y-18006D01*
X-2379Y-18164D01*
X-2380Y-18335D01*
X-2314Y-18493D01*
X-2193Y-18614D01*
X-2116Y-18646D01*
X-2420Y-18950D01*
X-2519Y-18950D01*
X-2519Y-18164D01*
X-2585Y-18006D01*
X-2706Y-17885D01*
X-2864Y-17820D01*
X-3035Y-17819D01*
X-3193Y-17885D01*
X-3314Y-18006D01*
X-3379Y-18164D01*
X-3380Y-18335D01*
X-3314Y-18493D01*
X-3193Y-18614D01*
X-3035Y-18679D01*
X-2864Y-18680D01*
X-2706Y-18614D01*
X-2585Y-18493D01*
X-2520Y-18335D01*
X-2519Y-18164D01*
X-2519Y-18950D01*
X-3519Y-18950D01*
X-3519Y-18164D01*
X-3585Y-18006D01*
X-3706Y-17885D01*
X-3864Y-17820D01*
X-4035Y-17819D01*
X-4193Y-17885D01*
X-4314Y-18006D01*
X-4379Y-18164D01*
X-4380Y-18335D01*
X-4314Y-18493D01*
X-4193Y-18614D01*
X-4035Y-18679D01*
X-3864Y-18680D01*
X-3706Y-18614D01*
X-3585Y-18493D01*
X-3520Y-18335D01*
X-3519Y-18164D01*
X-3519Y-18950D01*
X-4519Y-18950D01*
X-4519Y-18164D01*
X-4585Y-18006D01*
X-4706Y-17885D01*
X-4864Y-17820D01*
X-5035Y-17819D01*
X-5193Y-17885D01*
X-5314Y-18006D01*
X-5379Y-18164D01*
X-5380Y-18335D01*
X-5314Y-18493D01*
X-5193Y-18614D01*
X-5035Y-18679D01*
X-4864Y-18680D01*
X-4706Y-18614D01*
X-4585Y-18493D01*
X-4520Y-18335D01*
X-4519Y-18164D01*
X-4519Y-18950D01*
X-5519Y-18950D01*
X-5519Y-18164D01*
X-5585Y-18006D01*
X-5706Y-17885D01*
X-5864Y-17820D01*
X-6035Y-17819D01*
X-6193Y-17885D01*
X-6314Y-18006D01*
X-6379Y-18164D01*
X-6380Y-18335D01*
X-6314Y-18493D01*
X-6193Y-18614D01*
X-6035Y-18679D01*
X-5864Y-18680D01*
X-5706Y-18614D01*
X-5585Y-18493D01*
X-5520Y-18335D01*
X-5519Y-18164D01*
X-5519Y-18950D01*
X-6519Y-18950D01*
X-6519Y-18164D01*
X-6585Y-18006D01*
X-6706Y-17885D01*
X-6864Y-17820D01*
X-7035Y-17819D01*
X-7193Y-17885D01*
X-7314Y-18006D01*
X-7379Y-18164D01*
X-7380Y-18335D01*
X-7314Y-18493D01*
X-7193Y-18614D01*
X-7035Y-18679D01*
X-6864Y-18680D01*
X-6706Y-18614D01*
X-6585Y-18493D01*
X-6520Y-18335D01*
X-6519Y-18164D01*
X-6519Y-18950D01*
X-8519Y-18950D01*
X-8519Y-18164D01*
X-8519Y-17164D01*
X-8585Y-17006D01*
X-8706Y-16885D01*
X-8864Y-16820D01*
X-9035Y-16819D01*
X-9193Y-16885D01*
X-9314Y-17006D01*
X-9379Y-17164D01*
X-9380Y-17335D01*
X-9314Y-17493D01*
X-9193Y-17614D01*
X-9035Y-17679D01*
X-8864Y-17680D01*
X-8706Y-17614D01*
X-8585Y-17493D01*
X-8520Y-17335D01*
X-8519Y-17164D01*
X-8519Y-18164D01*
X-8585Y-18006D01*
X-8706Y-17885D01*
X-8864Y-17820D01*
X-9035Y-17819D01*
X-9193Y-17885D01*
X-9314Y-18006D01*
X-9379Y-18164D01*
X-9380Y-18335D01*
X-9314Y-18493D01*
X-9193Y-18614D01*
X-9035Y-18679D01*
X-8864Y-18680D01*
X-8706Y-18614D01*
X-8585Y-18493D01*
X-8520Y-18335D01*
X-8519Y-18164D01*
X-8519Y-18950D01*
X-9449Y-18950D01*
X-9449Y-16300D01*
X-9487Y-16208D01*
X-9558Y-16138D01*
X-9650Y-16100D01*
X-9749Y-16099D01*
X-9841Y-16137D01*
X-9911Y-16208D01*
X-9949Y-16300D01*
X-9950Y-16399D01*
X-9912Y-16491D01*
X-9841Y-16561D01*
X-9749Y-16599D01*
X-9650Y-16600D01*
X-9558Y-16562D01*
X-9488Y-16491D01*
X-9450Y-16399D01*
X-9449Y-16300D01*
X-9449Y-18950D01*
X-9519Y-18950D01*
X-9519Y-18164D01*
X-9519Y-17164D01*
X-9585Y-17006D01*
X-9706Y-16885D01*
X-9864Y-16820D01*
X-10035Y-16819D01*
X-10193Y-16885D01*
X-10314Y-17006D01*
X-10379Y-17164D01*
X-10380Y-17335D01*
X-10314Y-17493D01*
X-10193Y-17614D01*
X-10035Y-17679D01*
X-9864Y-17680D01*
X-9706Y-17614D01*
X-9585Y-17493D01*
X-9520Y-17335D01*
X-9519Y-17164D01*
X-9519Y-18164D01*
X-9585Y-18006D01*
X-9706Y-17885D01*
X-9864Y-17820D01*
X-10035Y-17819D01*
X-10193Y-17885D01*
X-10314Y-18006D01*
X-10379Y-18164D01*
X-10380Y-18335D01*
X-10314Y-18493D01*
X-10193Y-18614D01*
X-10035Y-18679D01*
X-9864Y-18680D01*
X-9706Y-18614D01*
X-9585Y-18493D01*
X-9520Y-18335D01*
X-9519Y-18164D01*
X-9519Y-18950D01*
X-10519Y-18950D01*
X-10519Y-18164D01*
X-10519Y-17164D01*
X-10585Y-17006D01*
X-10706Y-16885D01*
X-10864Y-16820D01*
X-11035Y-16819D01*
X-11193Y-16885D01*
X-11314Y-17006D01*
X-11379Y-17164D01*
X-11380Y-17335D01*
X-11314Y-17493D01*
X-11193Y-17614D01*
X-11035Y-17679D01*
X-10864Y-17680D01*
X-10706Y-17614D01*
X-10585Y-17493D01*
X-10520Y-17335D01*
X-10519Y-17164D01*
X-10519Y-18164D01*
X-10585Y-18006D01*
X-10706Y-17885D01*
X-10864Y-17820D01*
X-11035Y-17819D01*
X-11193Y-17885D01*
X-11314Y-18006D01*
X-11379Y-18164D01*
X-11380Y-18335D01*
X-11314Y-18493D01*
X-11193Y-18614D01*
X-11035Y-18679D01*
X-10864Y-18680D01*
X-10706Y-18614D01*
X-10585Y-18493D01*
X-10520Y-18335D01*
X-10519Y-18164D01*
X-10519Y-18950D01*
X-11449Y-18950D01*
X-11449Y-15675D01*
X-11487Y-15583D01*
X-11558Y-15513D01*
X-11650Y-15475D01*
X-11749Y-15474D01*
X-11841Y-15512D01*
X-11911Y-15583D01*
X-11949Y-15675D01*
X-11950Y-15774D01*
X-11912Y-15866D01*
X-11841Y-15936D01*
X-11749Y-15974D01*
X-11650Y-15975D01*
X-11558Y-15937D01*
X-11488Y-15866D01*
X-11450Y-15774D01*
X-11449Y-15675D01*
X-11449Y-18950D01*
X-11519Y-18950D01*
X-11519Y-18164D01*
X-11519Y-17164D01*
X-11585Y-17006D01*
X-11706Y-16885D01*
X-11864Y-16820D01*
X-11974Y-16819D01*
X-11974Y-11300D01*
X-11999Y-11239D01*
X-11999Y-9625D01*
X-12037Y-9533D01*
X-12108Y-9463D01*
X-12200Y-9425D01*
X-12299Y-9424D01*
X-12391Y-9462D01*
X-12461Y-9533D01*
X-12499Y-9625D01*
X-12500Y-9724D01*
X-12462Y-9816D01*
X-12395Y-9883D01*
X-12466Y-9912D01*
X-12536Y-9983D01*
X-12574Y-10075D01*
X-12575Y-10174D01*
X-12537Y-10266D01*
X-12466Y-10336D01*
X-12374Y-10374D01*
X-12275Y-10375D01*
X-12183Y-10337D01*
X-12113Y-10266D01*
X-12075Y-10174D01*
X-12074Y-10075D01*
X-12112Y-9983D01*
X-12179Y-9916D01*
X-12108Y-9887D01*
X-12038Y-9816D01*
X-12000Y-9724D01*
X-11999Y-9625D01*
X-11999Y-11239D01*
X-12012Y-11208D01*
X-12083Y-11138D01*
X-12175Y-11100D01*
X-12274Y-11099D01*
X-12366Y-11137D01*
X-12436Y-11208D01*
X-12474Y-11300D01*
X-12475Y-11399D01*
X-12437Y-11491D01*
X-12366Y-11561D01*
X-12274Y-11599D01*
X-12175Y-11600D01*
X-12083Y-11562D01*
X-12013Y-11491D01*
X-11975Y-11399D01*
X-11974Y-11300D01*
X-11974Y-16819D01*
X-12035Y-16819D01*
X-12193Y-16885D01*
X-12274Y-16966D01*
X-12274Y-12600D01*
X-12312Y-12508D01*
X-12383Y-12438D01*
X-12475Y-12400D01*
X-12574Y-12399D01*
X-12666Y-12437D01*
X-12736Y-12508D01*
X-12774Y-12600D01*
X-12775Y-12699D01*
X-12737Y-12791D01*
X-12666Y-12861D01*
X-12574Y-12899D01*
X-12475Y-12900D01*
X-12383Y-12862D01*
X-12313Y-12791D01*
X-12275Y-12699D01*
X-12274Y-12600D01*
X-12274Y-16966D01*
X-12314Y-17006D01*
X-12379Y-17164D01*
X-12380Y-17335D01*
X-12314Y-17493D01*
X-12193Y-17614D01*
X-12035Y-17679D01*
X-11864Y-17680D01*
X-11706Y-17614D01*
X-11585Y-17493D01*
X-11520Y-17335D01*
X-11519Y-17164D01*
X-11519Y-18164D01*
X-11585Y-18006D01*
X-11706Y-17885D01*
X-11864Y-17820D01*
X-12035Y-17819D01*
X-12193Y-17885D01*
X-12314Y-18006D01*
X-12379Y-18164D01*
X-12380Y-18335D01*
X-12314Y-18493D01*
X-12193Y-18614D01*
X-12035Y-18679D01*
X-11864Y-18680D01*
X-11706Y-18614D01*
X-11585Y-18493D01*
X-11520Y-18335D01*
X-11519Y-18164D01*
X-11519Y-18950D01*
X-12449Y-18950D01*
X-12449Y-15200D01*
X-12487Y-15108D01*
X-12558Y-15038D01*
X-12624Y-15010D01*
X-12624Y-13650D01*
X-12662Y-13558D01*
X-12733Y-13488D01*
X-12825Y-13450D01*
X-12924Y-13449D01*
X-13016Y-13487D01*
X-13086Y-13558D01*
X-13099Y-13589D01*
X-13099Y-9700D01*
X-13137Y-9608D01*
X-13208Y-9538D01*
X-13224Y-9531D01*
X-13224Y-8600D01*
X-13262Y-8508D01*
X-13333Y-8438D01*
X-13425Y-8400D01*
X-13519Y-8399D01*
X-13519Y835D01*
X-13519Y1835D01*
X-13585Y1993D01*
X-13706Y2114D01*
X-13864Y2179D01*
X-14035Y2180D01*
X-14193Y2114D01*
X-14314Y1993D01*
X-14379Y1835D01*
X-14380Y1664D01*
X-14314Y1506D01*
X-14193Y1385D01*
X-14035Y1320D01*
X-13864Y1319D01*
X-13706Y1385D01*
X-13585Y1506D01*
X-13520Y1664D01*
X-13519Y1835D01*
X-13519Y835D01*
X-13585Y993D01*
X-13706Y1114D01*
X-13864Y1179D01*
X-14035Y1180D01*
X-14193Y1114D01*
X-14314Y993D01*
X-14379Y835D01*
X-14380Y664D01*
X-14314Y506D01*
X-14193Y385D01*
X-14035Y320D01*
X-13864Y319D01*
X-13706Y385D01*
X-13585Y506D01*
X-13520Y664D01*
X-13519Y835D01*
X-13519Y-8399D01*
X-13524Y-8399D01*
X-13616Y-8437D01*
X-13686Y-8508D01*
X-13724Y-8600D01*
X-13725Y-8699D01*
X-13687Y-8791D01*
X-13616Y-8861D01*
X-13524Y-8899D01*
X-13425Y-8900D01*
X-13333Y-8862D01*
X-13263Y-8791D01*
X-13225Y-8699D01*
X-13224Y-8600D01*
X-13224Y-9531D01*
X-13300Y-9500D01*
X-13399Y-9499D01*
X-13491Y-9537D01*
X-13561Y-9608D01*
X-13599Y-9700D01*
X-13600Y-9799D01*
X-13562Y-9891D01*
X-13491Y-9961D01*
X-13399Y-9999D01*
X-13300Y-10000D01*
X-13208Y-9962D01*
X-13138Y-9891D01*
X-13100Y-9799D01*
X-13099Y-9700D01*
X-13099Y-13589D01*
X-13124Y-13650D01*
X-13125Y-13749D01*
X-13087Y-13841D01*
X-13016Y-13911D01*
X-12924Y-13949D01*
X-12825Y-13950D01*
X-12733Y-13912D01*
X-12663Y-13841D01*
X-12625Y-13749D01*
X-12624Y-13650D01*
X-12624Y-15010D01*
X-12650Y-15000D01*
X-12749Y-14999D01*
X-12841Y-15037D01*
X-12911Y-15108D01*
X-12949Y-15200D01*
X-12950Y-15299D01*
X-12912Y-15391D01*
X-12841Y-15461D01*
X-12749Y-15499D01*
X-12650Y-15500D01*
X-12558Y-15462D01*
X-12488Y-15391D01*
X-12450Y-15299D01*
X-12449Y-15200D01*
X-12449Y-18950D01*
X-12519Y-18950D01*
X-12519Y-18164D01*
X-12519Y-17164D01*
X-12585Y-17006D01*
X-12706Y-16885D01*
X-12864Y-16820D01*
X-13035Y-16819D01*
X-13193Y-16885D01*
X-13314Y-17006D01*
X-13379Y-17164D01*
X-13380Y-17335D01*
X-13314Y-17493D01*
X-13193Y-17614D01*
X-13035Y-17679D01*
X-12864Y-17680D01*
X-12706Y-17614D01*
X-12585Y-17493D01*
X-12520Y-17335D01*
X-12519Y-17164D01*
X-12519Y-18164D01*
X-12585Y-18006D01*
X-12706Y-17885D01*
X-12864Y-17820D01*
X-13035Y-17819D01*
X-13193Y-17885D01*
X-13314Y-18006D01*
X-13379Y-18164D01*
X-13380Y-18335D01*
X-13314Y-18493D01*
X-13193Y-18614D01*
X-13035Y-18679D01*
X-12864Y-18680D01*
X-12706Y-18614D01*
X-12585Y-18493D01*
X-12520Y-18335D01*
X-12519Y-18164D01*
X-12519Y-18950D01*
X-13519Y-18950D01*
X-13519Y-18164D01*
X-13519Y-17164D01*
X-13585Y-17006D01*
X-13649Y-16941D01*
X-13649Y-10750D01*
X-13687Y-10658D01*
X-13758Y-10588D01*
X-13850Y-10550D01*
X-13924Y-10549D01*
X-13924Y-5875D01*
X-13962Y-5783D01*
X-14033Y-5713D01*
X-14125Y-5675D01*
X-14224Y-5674D01*
X-14316Y-5712D01*
X-14386Y-5783D01*
X-14424Y-5875D01*
X-14425Y-5974D01*
X-14387Y-6066D01*
X-14316Y-6136D01*
X-14224Y-6174D01*
X-14125Y-6175D01*
X-14033Y-6137D01*
X-13963Y-6066D01*
X-13925Y-5974D01*
X-13924Y-5875D01*
X-13924Y-10549D01*
X-13949Y-10549D01*
X-14041Y-10587D01*
X-14111Y-10658D01*
X-14149Y-10750D01*
X-14150Y-10849D01*
X-14112Y-10941D01*
X-14041Y-11011D01*
X-13949Y-11049D01*
X-13850Y-11050D01*
X-13758Y-11012D01*
X-13688Y-10941D01*
X-13650Y-10849D01*
X-13649Y-10750D01*
X-13649Y-16941D01*
X-13706Y-16885D01*
X-13864Y-16820D01*
X-14035Y-16819D01*
X-14193Y-16885D01*
X-14314Y-17006D01*
X-14379Y-17164D01*
X-14380Y-17335D01*
X-14314Y-17493D01*
X-14193Y-17614D01*
X-14035Y-17679D01*
X-13864Y-17680D01*
X-13706Y-17614D01*
X-13585Y-17493D01*
X-13520Y-17335D01*
X-13519Y-17164D01*
X-13519Y-18164D01*
X-13585Y-18006D01*
X-13706Y-17885D01*
X-13864Y-17820D01*
X-14035Y-17819D01*
X-14193Y-17885D01*
X-14314Y-18006D01*
X-14379Y-18164D01*
X-14380Y-18335D01*
X-14314Y-18493D01*
X-14193Y-18614D01*
X-14035Y-18679D01*
X-13864Y-18680D01*
X-13706Y-18614D01*
X-13585Y-18493D01*
X-13520Y-18335D01*
X-13519Y-18164D01*
X-13519Y-18950D01*
X-14519Y-18950D01*
X-14519Y-18164D01*
X-14519Y-17164D01*
X-14519Y835D01*
X-14519Y1835D01*
X-14585Y1993D01*
X-14706Y2114D01*
X-14864Y2179D01*
X-15035Y2180D01*
X-15193Y2114D01*
X-15314Y1993D01*
X-15379Y1835D01*
X-15380Y1664D01*
X-15314Y1506D01*
X-15193Y1385D01*
X-15035Y1320D01*
X-14864Y1319D01*
X-14706Y1385D01*
X-14585Y1506D01*
X-14520Y1664D01*
X-14519Y1835D01*
X-14519Y835D01*
X-14585Y993D01*
X-14706Y1114D01*
X-14864Y1179D01*
X-15035Y1180D01*
X-15193Y1114D01*
X-15314Y993D01*
X-15379Y835D01*
X-15380Y664D01*
X-15314Y506D01*
X-15193Y385D01*
X-15035Y320D01*
X-14864Y319D01*
X-14706Y385D01*
X-14585Y506D01*
X-14520Y664D01*
X-14519Y835D01*
X-14519Y-17164D01*
X-14585Y-17006D01*
X-14706Y-16885D01*
X-14864Y-16820D01*
X-15035Y-16819D01*
X-15193Y-16885D01*
X-15314Y-17006D01*
X-15379Y-17164D01*
X-15380Y-17335D01*
X-15314Y-17493D01*
X-15193Y-17614D01*
X-15035Y-17679D01*
X-14864Y-17680D01*
X-14706Y-17614D01*
X-14585Y-17493D01*
X-14520Y-17335D01*
X-14519Y-17164D01*
X-14519Y-18164D01*
X-14585Y-18006D01*
X-14706Y-17885D01*
X-14864Y-17820D01*
X-15035Y-17819D01*
X-15193Y-17885D01*
X-15314Y-18006D01*
X-15379Y-18164D01*
X-15380Y-18335D01*
X-15314Y-18493D01*
X-15193Y-18614D01*
X-15035Y-18679D01*
X-14864Y-18680D01*
X-14706Y-18614D01*
X-14585Y-18493D01*
X-14520Y-18335D01*
X-14519Y-18164D01*
X-14519Y-18950D01*
X-15519Y-18950D01*
X-15519Y-18164D01*
X-15519Y-17164D01*
X-15519Y835D01*
X-15519Y1835D01*
X-15585Y1993D01*
X-15706Y2114D01*
X-15864Y2179D01*
X-16035Y2180D01*
X-16193Y2114D01*
X-16314Y1993D01*
X-16379Y1835D01*
X-16380Y1664D01*
X-16314Y1506D01*
X-16193Y1385D01*
X-16035Y1320D01*
X-15864Y1319D01*
X-15706Y1385D01*
X-15585Y1506D01*
X-15520Y1664D01*
X-15519Y1835D01*
X-15519Y835D01*
X-15585Y993D01*
X-15706Y1114D01*
X-15864Y1179D01*
X-16035Y1180D01*
X-16193Y1114D01*
X-16314Y993D01*
X-16379Y835D01*
X-16380Y664D01*
X-16314Y506D01*
X-16193Y385D01*
X-16035Y320D01*
X-15864Y319D01*
X-15706Y385D01*
X-15585Y506D01*
X-15520Y664D01*
X-15519Y835D01*
X-15519Y-17164D01*
X-15585Y-17006D01*
X-15706Y-16885D01*
X-15864Y-16820D01*
X-16035Y-16819D01*
X-16193Y-16885D01*
X-16314Y-17006D01*
X-16379Y-17164D01*
X-16380Y-17335D01*
X-16314Y-17493D01*
X-16193Y-17614D01*
X-16035Y-17679D01*
X-15864Y-17680D01*
X-15706Y-17614D01*
X-15585Y-17493D01*
X-15520Y-17335D01*
X-15519Y-17164D01*
X-15519Y-18164D01*
X-15585Y-18006D01*
X-15706Y-17885D01*
X-15864Y-17820D01*
X-16035Y-17819D01*
X-16193Y-17885D01*
X-16314Y-18006D01*
X-16379Y-18164D01*
X-16380Y-18335D01*
X-16314Y-18493D01*
X-16193Y-18614D01*
X-16035Y-18679D01*
X-15864Y-18680D01*
X-15706Y-18614D01*
X-15585Y-18493D01*
X-15520Y-18335D01*
X-15519Y-18164D01*
X-15519Y-18950D01*
X-16519Y-18950D01*
X-16519Y-18164D01*
X-16519Y-17164D01*
X-16519Y835D01*
X-16519Y1835D01*
X-16585Y1993D01*
X-16706Y2114D01*
X-16864Y2179D01*
X-17035Y2180D01*
X-17193Y2114D01*
X-17314Y1993D01*
X-17379Y1835D01*
X-17380Y1664D01*
X-17314Y1506D01*
X-17193Y1385D01*
X-17035Y1320D01*
X-16864Y1319D01*
X-16706Y1385D01*
X-16585Y1506D01*
X-16520Y1664D01*
X-16519Y1835D01*
X-16519Y835D01*
X-16585Y993D01*
X-16706Y1114D01*
X-16864Y1179D01*
X-17035Y1180D01*
X-17193Y1114D01*
X-17314Y993D01*
X-17379Y835D01*
X-17380Y664D01*
X-17314Y506D01*
X-17193Y385D01*
X-17035Y320D01*
X-16864Y319D01*
X-16706Y385D01*
X-16585Y506D01*
X-16520Y664D01*
X-16519Y835D01*
X-16519Y-17164D01*
X-16585Y-17006D01*
X-16706Y-16885D01*
X-16864Y-16820D01*
X-17035Y-16819D01*
X-17193Y-16885D01*
X-17314Y-17006D01*
X-17379Y-17164D01*
X-17380Y-17335D01*
X-17314Y-17493D01*
X-17193Y-17614D01*
X-17035Y-17679D01*
X-16864Y-17680D01*
X-16706Y-17614D01*
X-16585Y-17493D01*
X-16520Y-17335D01*
X-16519Y-17164D01*
X-16519Y-18164D01*
X-16585Y-18006D01*
X-16706Y-17885D01*
X-16864Y-17820D01*
X-17035Y-17819D01*
X-17193Y-17885D01*
X-17314Y-18006D01*
X-17379Y-18164D01*
X-17380Y-18335D01*
X-17314Y-18493D01*
X-17193Y-18614D01*
X-17035Y-18679D01*
X-16864Y-18680D01*
X-16706Y-18614D01*
X-16585Y-18493D01*
X-16520Y-18335D01*
X-16519Y-18164D01*
X-16519Y-18950D01*
X-17519Y-18950D01*
X-17519Y-18164D01*
X-17519Y-17164D01*
X-17519Y835D01*
X-17519Y1835D01*
X-17585Y1993D01*
X-17706Y2114D01*
X-17864Y2179D01*
X-18035Y2180D01*
X-18193Y2114D01*
X-18314Y1993D01*
X-18379Y1835D01*
X-18380Y1664D01*
X-18314Y1506D01*
X-18193Y1385D01*
X-18035Y1320D01*
X-17864Y1319D01*
X-17706Y1385D01*
X-17585Y1506D01*
X-17520Y1664D01*
X-17519Y1835D01*
X-17519Y835D01*
X-17585Y993D01*
X-17706Y1114D01*
X-17864Y1179D01*
X-18035Y1180D01*
X-18193Y1114D01*
X-18314Y993D01*
X-18379Y835D01*
X-18380Y664D01*
X-18314Y506D01*
X-18193Y385D01*
X-18035Y320D01*
X-17864Y319D01*
X-17706Y385D01*
X-17585Y506D01*
X-17520Y664D01*
X-17519Y835D01*
X-17519Y-17164D01*
X-17585Y-17006D01*
X-17706Y-16885D01*
X-17864Y-16820D01*
X-18035Y-16819D01*
X-18049Y-16826D01*
X-18049Y-15525D01*
X-18087Y-15433D01*
X-18158Y-15363D01*
X-18250Y-15325D01*
X-18349Y-15324D01*
X-18441Y-15362D01*
X-18511Y-15433D01*
X-18519Y-15452D01*
X-18519Y835D01*
X-18519Y1835D01*
X-18585Y1993D01*
X-18706Y2114D01*
X-18864Y2179D01*
X-19035Y2180D01*
X-19193Y2114D01*
X-19314Y1993D01*
X-19379Y1835D01*
X-19380Y1664D01*
X-19314Y1506D01*
X-19193Y1385D01*
X-19035Y1320D01*
X-18864Y1319D01*
X-18706Y1385D01*
X-18585Y1506D01*
X-18520Y1664D01*
X-18519Y1835D01*
X-18519Y835D01*
X-18585Y993D01*
X-18706Y1114D01*
X-18864Y1179D01*
X-19035Y1180D01*
X-19193Y1114D01*
X-19314Y993D01*
X-19379Y835D01*
X-19380Y664D01*
X-19314Y506D01*
X-19193Y385D01*
X-19035Y320D01*
X-18864Y319D01*
X-18706Y385D01*
X-18585Y506D01*
X-18520Y664D01*
X-18519Y835D01*
X-18519Y-15452D01*
X-18549Y-15525D01*
X-18550Y-15624D01*
X-18512Y-15716D01*
X-18441Y-15786D01*
X-18349Y-15824D01*
X-18250Y-15825D01*
X-18158Y-15787D01*
X-18088Y-15716D01*
X-18050Y-15624D01*
X-18049Y-15525D01*
X-18049Y-16826D01*
X-18193Y-16885D01*
X-18314Y-17006D01*
X-18379Y-17164D01*
X-18380Y-17335D01*
X-18314Y-17493D01*
X-18193Y-17614D01*
X-18035Y-17679D01*
X-17864Y-17680D01*
X-17706Y-17614D01*
X-17585Y-17493D01*
X-17520Y-17335D01*
X-17519Y-17164D01*
X-17519Y-18164D01*
X-17585Y-18006D01*
X-17706Y-17885D01*
X-17864Y-17820D01*
X-18035Y-17819D01*
X-18193Y-17885D01*
X-18314Y-18006D01*
X-18379Y-18164D01*
X-18380Y-18335D01*
X-18314Y-18493D01*
X-18193Y-18614D01*
X-18035Y-18679D01*
X-17864Y-18680D01*
X-17706Y-18614D01*
X-17585Y-18493D01*
X-17520Y-18335D01*
X-17519Y-18164D01*
X-17519Y-18950D01*
X-18519Y-18950D01*
X-18519Y-18164D01*
X-18519Y-17164D01*
X-18585Y-17006D01*
X-18706Y-16885D01*
X-18849Y-16825D01*
X-18849Y-14750D01*
X-18887Y-14658D01*
X-18958Y-14588D01*
X-19050Y-14550D01*
X-19149Y-14549D01*
X-19241Y-14587D01*
X-19311Y-14658D01*
X-19349Y-14750D01*
X-19350Y-14849D01*
X-19312Y-14941D01*
X-19241Y-15011D01*
X-19149Y-15049D01*
X-19050Y-15050D01*
X-18958Y-15012D01*
X-18888Y-14941D01*
X-18850Y-14849D01*
X-18849Y-14750D01*
X-18849Y-16825D01*
X-18864Y-16820D01*
X-19035Y-16819D01*
X-19193Y-16885D01*
X-19314Y-17006D01*
X-19379Y-17164D01*
X-19380Y-17335D01*
X-19314Y-17493D01*
X-19193Y-17614D01*
X-19035Y-17679D01*
X-18864Y-17680D01*
X-18706Y-17614D01*
X-18585Y-17493D01*
X-18520Y-17335D01*
X-18519Y-17164D01*
X-18519Y-18164D01*
X-18585Y-18006D01*
X-18706Y-17885D01*
X-18864Y-17820D01*
X-19035Y-17819D01*
X-19193Y-17885D01*
X-19314Y-18006D01*
X-19379Y-18164D01*
X-19380Y-18335D01*
X-19314Y-18493D01*
X-19193Y-18614D01*
X-19035Y-18679D01*
X-18864Y-18680D01*
X-18706Y-18614D01*
X-18585Y-18493D01*
X-18520Y-18335D01*
X-18519Y-18164D01*
X-18519Y-18950D01*
X-19399Y-18950D01*
X-19399Y-13650D01*
X-19437Y-13558D01*
X-19508Y-13488D01*
X-19519Y-13483D01*
X-19519Y835D01*
X-19519Y1835D01*
X-19585Y1993D01*
X-19706Y2114D01*
X-19864Y2179D01*
X-20035Y2180D01*
X-20193Y2114D01*
X-20314Y1993D01*
X-20379Y1835D01*
X-20380Y1664D01*
X-20314Y1506D01*
X-20193Y1385D01*
X-20035Y1320D01*
X-19864Y1319D01*
X-19706Y1385D01*
X-19585Y1506D01*
X-19520Y1664D01*
X-19519Y1835D01*
X-19519Y835D01*
X-19585Y993D01*
X-19706Y1114D01*
X-19864Y1179D01*
X-20035Y1180D01*
X-20193Y1114D01*
X-20314Y993D01*
X-20379Y835D01*
X-20380Y664D01*
X-20314Y506D01*
X-20193Y385D01*
X-20035Y320D01*
X-19864Y319D01*
X-19706Y385D01*
X-19585Y506D01*
X-19520Y664D01*
X-19519Y835D01*
X-19519Y-13483D01*
X-19600Y-13450D01*
X-19699Y-13449D01*
X-19791Y-13487D01*
X-19861Y-13558D01*
X-19899Y-13650D01*
X-19900Y-13749D01*
X-19862Y-13841D01*
X-19791Y-13911D01*
X-19699Y-13949D01*
X-19600Y-13950D01*
X-19508Y-13912D01*
X-19438Y-13841D01*
X-19400Y-13749D01*
X-19399Y-13650D01*
X-19399Y-18950D01*
X-19519Y-18950D01*
X-19519Y-18164D01*
X-19519Y-17164D01*
X-19585Y-17006D01*
X-19706Y-16885D01*
X-19864Y-16820D01*
X-20035Y-16819D01*
X-20193Y-16885D01*
X-20314Y-17006D01*
X-20379Y-17164D01*
X-20380Y-17335D01*
X-20314Y-17493D01*
X-20193Y-17614D01*
X-20035Y-17679D01*
X-19864Y-17680D01*
X-19706Y-17614D01*
X-19585Y-17493D01*
X-19520Y-17335D01*
X-19519Y-17164D01*
X-19519Y-18164D01*
X-19585Y-18006D01*
X-19706Y-17885D01*
X-19864Y-17820D01*
X-20035Y-17819D01*
X-20193Y-17885D01*
X-20314Y-18006D01*
X-20379Y-18164D01*
X-20380Y-18335D01*
X-20314Y-18493D01*
X-20193Y-18614D01*
X-20035Y-18679D01*
X-19864Y-18680D01*
X-19706Y-18614D01*
X-19585Y-18493D01*
X-19520Y-18335D01*
X-19519Y-18164D01*
X-19519Y-18950D01*
X-20519Y-18950D01*
X-20519Y-18164D01*
X-20519Y-17164D01*
X-20519Y835D01*
X-20519Y1835D01*
X-20585Y1993D01*
X-20706Y2114D01*
X-20864Y2179D01*
X-21035Y2180D01*
X-21193Y2114D01*
X-21314Y1993D01*
X-21379Y1835D01*
X-21380Y1664D01*
X-21314Y1506D01*
X-21193Y1385D01*
X-21035Y1320D01*
X-20864Y1319D01*
X-20706Y1385D01*
X-20585Y1506D01*
X-20520Y1664D01*
X-20519Y1835D01*
X-20519Y835D01*
X-20585Y993D01*
X-20706Y1114D01*
X-20864Y1179D01*
X-21035Y1180D01*
X-21193Y1114D01*
X-21314Y993D01*
X-21379Y835D01*
X-21380Y664D01*
X-21314Y506D01*
X-21193Y385D01*
X-21035Y320D01*
X-20864Y319D01*
X-20706Y385D01*
X-20585Y506D01*
X-20520Y664D01*
X-20519Y835D01*
X-20519Y-17164D01*
X-20585Y-17006D01*
X-20706Y-16885D01*
X-20864Y-16820D01*
X-21035Y-16819D01*
X-21193Y-16885D01*
X-21314Y-17006D01*
X-21379Y-17164D01*
X-21380Y-17335D01*
X-21314Y-17493D01*
X-21193Y-17614D01*
X-21035Y-17679D01*
X-20864Y-17680D01*
X-20706Y-17614D01*
X-20585Y-17493D01*
X-20520Y-17335D01*
X-20519Y-17164D01*
X-20519Y-18164D01*
X-20585Y-18006D01*
X-20706Y-17885D01*
X-20864Y-17820D01*
X-21035Y-17819D01*
X-21193Y-17885D01*
X-21314Y-18006D01*
X-21379Y-18164D01*
X-21380Y-18335D01*
X-21314Y-18493D01*
X-21193Y-18614D01*
X-21035Y-18679D01*
X-20864Y-18680D01*
X-20706Y-18614D01*
X-20585Y-18493D01*
X-20520Y-18335D01*
X-20519Y-18164D01*
X-20519Y-18950D01*
X-21449Y-18950D01*
X-21449Y-14800D01*
X-21487Y-14708D01*
X-21519Y-14676D01*
X-21519Y835D01*
X-21519Y1835D01*
X-21585Y1993D01*
X-21706Y2114D01*
X-21864Y2179D01*
X-22035Y2180D01*
X-22193Y2114D01*
X-22314Y1993D01*
X-22379Y1835D01*
X-22380Y1664D01*
X-22314Y1506D01*
X-22193Y1385D01*
X-22035Y1320D01*
X-21864Y1319D01*
X-21706Y1385D01*
X-21585Y1506D01*
X-21520Y1664D01*
X-21519Y1835D01*
X-21519Y835D01*
X-21585Y993D01*
X-21706Y1114D01*
X-21864Y1179D01*
X-22035Y1180D01*
X-22193Y1114D01*
X-22314Y993D01*
X-22379Y835D01*
X-22380Y664D01*
X-22314Y506D01*
X-22193Y385D01*
X-22035Y320D01*
X-21864Y319D01*
X-21706Y385D01*
X-21585Y506D01*
X-21520Y664D01*
X-21519Y835D01*
X-21519Y-14676D01*
X-21558Y-14638D01*
X-21650Y-14600D01*
X-21749Y-14599D01*
X-21841Y-14637D01*
X-21911Y-14708D01*
X-21949Y-14800D01*
X-21950Y-14899D01*
X-21912Y-14991D01*
X-21841Y-15061D01*
X-21749Y-15099D01*
X-21650Y-15100D01*
X-21558Y-15062D01*
X-21488Y-14991D01*
X-21450Y-14899D01*
X-21449Y-14800D01*
X-21449Y-18950D01*
X-21519Y-18950D01*
X-21519Y-18164D01*
X-21519Y-17164D01*
X-21585Y-17006D01*
X-21706Y-16885D01*
X-21864Y-16820D01*
X-21874Y-16820D01*
X-21874Y-15625D01*
X-21912Y-15533D01*
X-21983Y-15463D01*
X-22075Y-15425D01*
X-22174Y-15424D01*
X-22266Y-15462D01*
X-22336Y-15533D01*
X-22374Y-15625D01*
X-22375Y-15724D01*
X-22337Y-15816D01*
X-22266Y-15886D01*
X-22174Y-15924D01*
X-22075Y-15925D01*
X-21983Y-15887D01*
X-21913Y-15816D01*
X-21875Y-15724D01*
X-21874Y-15625D01*
X-21874Y-16820D01*
X-22035Y-16819D01*
X-22193Y-16885D01*
X-22314Y-17006D01*
X-22379Y-17164D01*
X-22380Y-17335D01*
X-22314Y-17493D01*
X-22193Y-17614D01*
X-22035Y-17679D01*
X-21864Y-17680D01*
X-21706Y-17614D01*
X-21585Y-17493D01*
X-21520Y-17335D01*
X-21519Y-17164D01*
X-21519Y-18164D01*
X-21585Y-18006D01*
X-21706Y-17885D01*
X-21864Y-17820D01*
X-22035Y-17819D01*
X-22193Y-17885D01*
X-22314Y-18006D01*
X-22379Y-18164D01*
X-22380Y-18335D01*
X-22314Y-18493D01*
X-22193Y-18614D01*
X-22035Y-18679D01*
X-21864Y-18680D01*
X-21706Y-18614D01*
X-21585Y-18493D01*
X-21520Y-18335D01*
X-21519Y-18164D01*
X-21519Y-18950D01*
X-22519Y-18950D01*
X-22519Y-18164D01*
X-22519Y-17164D01*
X-22519Y835D01*
X-22519Y1835D01*
X-22585Y1993D01*
X-22706Y2114D01*
X-22864Y2179D01*
X-23035Y2180D01*
X-23193Y2114D01*
X-23314Y1993D01*
X-23379Y1835D01*
X-23380Y1664D01*
X-23314Y1506D01*
X-23193Y1385D01*
X-23035Y1320D01*
X-22864Y1319D01*
X-22706Y1385D01*
X-22585Y1506D01*
X-22520Y1664D01*
X-22519Y1835D01*
X-22519Y835D01*
X-22585Y993D01*
X-22706Y1114D01*
X-22864Y1179D01*
X-23035Y1180D01*
X-23193Y1114D01*
X-23314Y993D01*
X-23379Y835D01*
X-23380Y664D01*
X-23314Y506D01*
X-23193Y385D01*
X-23035Y320D01*
X-22864Y319D01*
X-22706Y385D01*
X-22585Y506D01*
X-22520Y664D01*
X-22519Y835D01*
X-22519Y-17164D01*
X-22585Y-17006D01*
X-22706Y-16885D01*
X-22864Y-16820D01*
X-22909Y-16820D01*
X-22909Y-2600D01*
X-22947Y-2508D01*
X-23018Y-2438D01*
X-23110Y-2400D01*
X-23209Y-2399D01*
X-23301Y-2437D01*
X-23371Y-2508D01*
X-23409Y-2600D01*
X-23410Y-2699D01*
X-23372Y-2791D01*
X-23301Y-2861D01*
X-23209Y-2899D01*
X-23110Y-2900D01*
X-23018Y-2862D01*
X-22948Y-2791D01*
X-22910Y-2699D01*
X-22909Y-2600D01*
X-22909Y-16820D01*
X-23035Y-16819D01*
X-23193Y-16885D01*
X-23314Y-17006D01*
X-23379Y-17164D01*
X-23380Y-17335D01*
X-23314Y-17493D01*
X-23193Y-17614D01*
X-23035Y-17679D01*
X-22864Y-17680D01*
X-22706Y-17614D01*
X-22585Y-17493D01*
X-22520Y-17335D01*
X-22519Y-17164D01*
X-22519Y-18164D01*
X-22585Y-18006D01*
X-22706Y-17885D01*
X-22864Y-17820D01*
X-23035Y-17819D01*
X-23193Y-17885D01*
X-23314Y-18006D01*
X-23379Y-18164D01*
X-23380Y-18335D01*
X-23314Y-18493D01*
X-23193Y-18614D01*
X-23035Y-18679D01*
X-22864Y-18680D01*
X-22706Y-18614D01*
X-22585Y-18493D01*
X-22520Y-18335D01*
X-22519Y-18164D01*
X-22519Y-18950D01*
X-23494Y-18950D01*
X-23494Y-18549D01*
X-23494Y-17899D01*
X-23494Y450D01*
X-23494Y1100D01*
X-23514Y1148D01*
X-23519Y1153D01*
X-23519Y1835D01*
X-23585Y1993D01*
X-23706Y2114D01*
X-23864Y2179D01*
X-24035Y2180D01*
X-24193Y2114D01*
X-24314Y1993D01*
X-24379Y1835D01*
X-24380Y1664D01*
X-24314Y1506D01*
X-24193Y1385D01*
X-24035Y1320D01*
X-23864Y1319D01*
X-23706Y1385D01*
X-23585Y1506D01*
X-23520Y1664D01*
X-23519Y1835D01*
X-23519Y1153D01*
X-23551Y1185D01*
X-23599Y1204D01*
X-23650Y1205D01*
X-24300Y1205D01*
X-24348Y1185D01*
X-24385Y1148D01*
X-24404Y1100D01*
X-24405Y1049D01*
X-24405Y399D01*
X-24385Y351D01*
X-24348Y314D01*
X-24300Y295D01*
X-24249Y294D01*
X-23599Y294D01*
X-23551Y314D01*
X-23514Y351D01*
X-23495Y399D01*
X-23494Y450D01*
X-23494Y-17899D01*
X-23514Y-17851D01*
X-23519Y-17846D01*
X-23519Y-17164D01*
X-23585Y-17006D01*
X-23706Y-16885D01*
X-23864Y-16820D01*
X-24035Y-16819D01*
X-24193Y-16885D01*
X-24314Y-17006D01*
X-24379Y-17164D01*
X-24380Y-17335D01*
X-24314Y-17493D01*
X-24193Y-17614D01*
X-24035Y-17679D01*
X-23864Y-17680D01*
X-23706Y-17614D01*
X-23585Y-17493D01*
X-23520Y-17335D01*
X-23519Y-17164D01*
X-23519Y-17846D01*
X-23551Y-17814D01*
X-23599Y-17795D01*
X-23650Y-17794D01*
X-24300Y-17794D01*
X-24348Y-17814D01*
X-24385Y-17851D01*
X-24404Y-17899D01*
X-24405Y-17950D01*
X-24405Y-18600D01*
X-24385Y-18648D01*
X-24348Y-18685D01*
X-24300Y-18704D01*
X-24249Y-18705D01*
X-23599Y-18705D01*
X-23551Y-18685D01*
X-23514Y-18648D01*
X-23495Y-18600D01*
X-23494Y-18549D01*
X-23494Y-18950D01*
X-24919Y-18950D01*
X-24919Y-17546D01*
X-25076Y-17167D01*
X-25365Y-16877D01*
X-25744Y-16720D01*
X-26153Y-16719D01*
X-26532Y-16876D01*
X-26822Y-17165D01*
X-26979Y-17544D01*
X-26980Y-17953D01*
X-26823Y-18332D01*
X-26534Y-18622D01*
X-26155Y-18779D01*
X-25746Y-18780D01*
X-25367Y-18623D01*
X-25077Y-18334D01*
X-24920Y-17955D01*
X-24919Y-17546D01*
X-24919Y-18950D01*
X-29250Y-18950D01*
X-29250Y-18929D01*
X-31650Y-16454D01*
X-31650Y-10950D01*
X-23600Y-10950D01*
X-23600Y-3550D01*
X-24919Y-3550D01*
X-24919Y1453D01*
X-25076Y1832D01*
X-25365Y2122D01*
X-25744Y2279D01*
X-26153Y2280D01*
X-26532Y2123D01*
X-26822Y1834D01*
X-26979Y1455D01*
X-26980Y1046D01*
X-26823Y667D01*
X-26534Y377D01*
X-26155Y220D01*
X-25746Y219D01*
X-25367Y376D01*
X-25077Y665D01*
X-24920Y1044D01*
X-24919Y1453D01*
X-24919Y-3550D01*
X-26570Y-3550D01*
X-26570Y-1500D01*
X-26581Y-1292D01*
X-26639Y-1152D01*
X-26695Y-1137D01*
X-26695Y-360D01*
X-26756Y-211D01*
X-26870Y-97D01*
X-27019Y-35D01*
X-27180Y-35D01*
X-27329Y-97D01*
X-27443Y-211D01*
X-27505Y-359D01*
X-27505Y-520D01*
X-27443Y-669D01*
X-27330Y-783D01*
X-27181Y-845D01*
X-27020Y-845D01*
X-26871Y-784D01*
X-26757Y-670D01*
X-26695Y-521D01*
X-26695Y-360D01*
X-26695Y-1137D01*
X-26732Y-1127D01*
X-26803Y-1198D01*
X-26803Y-1057D01*
X-26827Y-964D01*
X-27024Y-895D01*
X-27233Y-906D01*
X-27373Y-964D01*
X-27397Y-1057D01*
X-27100Y-1354D01*
X-26803Y-1057D01*
X-26803Y-1198D01*
X-27029Y-1425D01*
X-26732Y-1722D01*
X-26639Y-1697D01*
X-26570Y-1500D01*
X-26570Y-3550D01*
X-26695Y-3550D01*
X-26695Y-2329D01*
X-26756Y-2180D01*
X-26803Y-2133D01*
X-26803Y-1792D01*
X-27100Y-1495D01*
X-27171Y-1566D01*
X-27171Y-1425D01*
X-27468Y-1127D01*
X-27560Y-1152D01*
X-27630Y-1349D01*
X-27618Y-1557D01*
X-27560Y-1697D01*
X-27468Y-1722D01*
X-27171Y-1425D01*
X-27171Y-1566D01*
X-27397Y-1792D01*
X-27373Y-1885D01*
X-27176Y-1954D01*
X-26967Y-1943D01*
X-26827Y-1885D01*
X-26803Y-1792D01*
X-26803Y-2133D01*
X-26870Y-2066D01*
X-27019Y-2004D01*
X-27180Y-2004D01*
X-27329Y-2065D01*
X-27443Y-2179D01*
X-27505Y-2328D01*
X-27505Y-2489D01*
X-27443Y-2638D01*
X-27330Y-2752D01*
X-27181Y-2814D01*
X-27020Y-2814D01*
X-26871Y-2752D01*
X-26757Y-2638D01*
X-26695Y-2490D01*
X-26695Y-2329D01*
X-26695Y-3550D01*
X-27869Y-3550D01*
X-27869Y-1500D01*
X-27881Y-1292D01*
X-27939Y-1152D01*
X-27994Y-1137D01*
X-27994Y-360D01*
X-28056Y-211D01*
X-28169Y-97D01*
X-28318Y-35D01*
X-28479Y-35D01*
X-28628Y-97D01*
X-28742Y-211D01*
X-28804Y-359D01*
X-28804Y-520D01*
X-28743Y-669D01*
X-28629Y-783D01*
X-28480Y-845D01*
X-28319Y-845D01*
X-28170Y-784D01*
X-28056Y-670D01*
X-27994Y-521D01*
X-27994Y-360D01*
X-27994Y-1137D01*
X-28031Y-1127D01*
X-28102Y-1198D01*
X-28102Y-1057D01*
X-28126Y-964D01*
X-28323Y-895D01*
X-28532Y-906D01*
X-28672Y-964D01*
X-28696Y-1057D01*
X-28399Y-1354D01*
X-28102Y-1057D01*
X-28102Y-1198D01*
X-28328Y-1425D01*
X-28031Y-1722D01*
X-27939Y-1697D01*
X-27869Y-1500D01*
X-27869Y-3550D01*
X-27994Y-3550D01*
X-27994Y-2329D01*
X-28056Y-2180D01*
X-28102Y-2133D01*
X-28102Y-1792D01*
X-28399Y-1495D01*
X-28696Y-1792D01*
X-28672Y-1885D01*
X-28475Y-1954D01*
X-28266Y-1943D01*
X-28126Y-1885D01*
X-28102Y-1792D01*
X-28102Y-2133D01*
X-28169Y-2066D01*
X-28318Y-2004D01*
X-28479Y-2004D01*
X-28628Y-2065D01*
X-28742Y-2179D01*
X-28804Y-2328D01*
X-28804Y-2489D01*
X-28743Y-2638D01*
X-28629Y-2752D01*
X-28480Y-2814D01*
X-28319Y-2814D01*
X-28170Y-2752D01*
X-28056Y-2638D01*
X-27994Y-2490D01*
X-27994Y-2329D01*
X-27994Y-3550D01*
X-28900Y-3550D01*
X-28900Y-1601D01*
X-28860Y-1697D01*
X-28767Y-1722D01*
X-28470Y-1425D01*
X-28767Y-1127D01*
X-28860Y-1152D01*
X-28900Y-1265D01*
X-28900Y2450D01*
X-13100Y2450D01*
X-13100Y2153D01*
X-13193Y2114D01*
X-13314Y1993D01*
X-13379Y1835D01*
X-13380Y1664D01*
X-13314Y1506D01*
X-13193Y1385D01*
X-13100Y1346D01*
X-13100Y1153D01*
X-13193Y1114D01*
X-13314Y993D01*
X-13379Y835D01*
X-13380Y664D01*
X-13314Y506D01*
X-13193Y385D01*
X-13100Y346D01*
X-13100Y-3950D01*
X-12800Y-3950D01*
X-12800Y-2250D01*
X-9625Y-2250D01*
X-9625Y-5350D01*
X-11904Y-5350D01*
X-11975Y-5279D01*
X-11975Y-4775D01*
X-12275Y-4775D01*
X-12275Y-8270D01*
X-11570Y-8974D01*
X-11599Y-8974D01*
X-11691Y-9012D01*
X-11761Y-9083D01*
X-11799Y-9175D01*
X-11800Y-9274D01*
X-11762Y-9366D01*
X-11691Y-9436D01*
X-11599Y-9474D01*
X-11500Y-9475D01*
X-11408Y-9437D01*
X-11338Y-9366D01*
X-11300Y-9274D01*
X-11300Y-9245D01*
X-10300Y-10245D01*
X-10300Y-11979D01*
X-10450Y-12129D01*
X-10450Y-12275D01*
X-10450Y-12446D01*
X-10511Y-12508D01*
X-10549Y-12600D01*
X-10550Y-12699D01*
X-10512Y-12791D01*
X-10450Y-12853D01*
X-10450Y-13704D01*
X-10624Y-13879D01*
X-10624Y-10325D01*
X-10662Y-10233D01*
X-10733Y-10163D01*
X-10825Y-10125D01*
X-10924Y-10124D01*
X-11016Y-10162D01*
X-11086Y-10233D01*
X-11124Y-10325D01*
X-11125Y-10424D01*
X-11104Y-10475D01*
X-11174Y-10474D01*
X-11266Y-10512D01*
X-11336Y-10583D01*
X-11374Y-10675D01*
X-11375Y-10774D01*
X-11337Y-10866D01*
X-11266Y-10936D01*
X-11174Y-10974D01*
X-11075Y-10975D01*
X-10983Y-10937D01*
X-10913Y-10866D01*
X-10875Y-10774D01*
X-10874Y-10675D01*
X-10895Y-10624D01*
X-10825Y-10625D01*
X-10733Y-10587D01*
X-10663Y-10516D01*
X-10625Y-10424D01*
X-10624Y-10325D01*
X-10624Y-13879D01*
X-10749Y-14004D01*
X-10749Y-11250D01*
X-10787Y-11158D01*
X-10858Y-11088D01*
X-10950Y-11050D01*
X-11049Y-11049D01*
X-11141Y-11087D01*
X-11211Y-11158D01*
X-11249Y-11250D01*
X-11250Y-11349D01*
X-11212Y-11441D01*
X-11141Y-11511D01*
X-11049Y-11549D01*
X-10950Y-11550D01*
X-10858Y-11512D01*
X-10788Y-11441D01*
X-10750Y-11349D01*
X-10749Y-11250D01*
X-10749Y-14004D01*
X-11024Y-14279D01*
X-11024Y-13575D01*
X-11062Y-13483D01*
X-11133Y-13413D01*
X-11225Y-13375D01*
X-11324Y-13374D01*
X-11416Y-13412D01*
X-11486Y-13483D01*
X-11524Y-13575D01*
X-11525Y-13674D01*
X-11487Y-13766D01*
X-11416Y-13836D01*
X-11324Y-13874D01*
X-11225Y-13875D01*
X-11133Y-13837D01*
X-11063Y-13766D01*
X-11025Y-13674D01*
X-11024Y-13575D01*
X-11024Y-14279D01*
X-11050Y-14304D01*
X-11050Y-15975D01*
X-9420Y-15975D01*
X-8475Y-16920D01*
X-8475Y-17850D01*
X-8107Y-17850D01*
X-8193Y-17885D01*
X-8314Y-18006D01*
X-8379Y-18164D01*
X-8380Y-18335D01*
X-8314Y-18493D01*
X-8193Y-18614D01*
X-8035Y-18679D01*
X-7864Y-18680D01*
X-7706Y-18614D01*
X-7585Y-18493D01*
X-7520Y-18335D01*
X-7519Y-18164D01*
X-7585Y-18006D01*
X-7706Y-17885D01*
X-7792Y-17850D01*
X-7150Y-17850D01*
X-7150Y-17632D01*
X-7035Y-17679D01*
X-6864Y-17680D01*
X-6706Y-17614D01*
X-6585Y-17493D01*
X-6520Y-17335D01*
X-6519Y-17164D01*
X-6585Y-17006D01*
X-6691Y-16900D01*
X-6208Y-16900D01*
X-6314Y-17006D01*
X-6379Y-17164D01*
X-6380Y-17335D01*
X-6314Y-17493D01*
X-6193Y-17614D01*
X-6035Y-17679D01*
X-5864Y-17680D01*
X-5706Y-17614D01*
X-5585Y-17493D01*
X-5520Y-17335D01*
X-5519Y-17164D01*
X-5585Y-17006D01*
X-5691Y-16900D01*
X-5208Y-16900D01*
X-5314Y-17006D01*
X-5379Y-17164D01*
X-5380Y-17335D01*
X-5314Y-17493D01*
X-5193Y-17614D01*
X-5035Y-17679D01*
X-4864Y-17680D01*
X-4706Y-17614D01*
X-4585Y-17493D01*
X-4520Y-17335D01*
X-4519Y-17164D01*
X-4585Y-17006D01*
X-4691Y-16900D01*
X-4208Y-16900D01*
X-4314Y-17006D01*
X-4379Y-17164D01*
X-4380Y-17335D01*
X-4314Y-17493D01*
X-4193Y-17614D01*
X-4035Y-17679D01*
X-3864Y-17680D01*
X-3706Y-17614D01*
X-3585Y-17493D01*
X-3520Y-17335D01*
X-3519Y-17164D01*
X-3585Y-17006D01*
X-3691Y-16900D01*
X-3208Y-16900D01*
X-3314Y-17006D01*
X-3379Y-17164D01*
X-3380Y-17335D01*
X-3314Y-17493D01*
X-3193Y-17614D01*
X-3035Y-17679D01*
X-2864Y-17680D01*
X-2706Y-17614D01*
X-2585Y-17493D01*
X-2520Y-17335D01*
X-2519Y-17164D01*
X-2585Y-17006D01*
X-2691Y-16900D01*
X-2208Y-16900D01*
X-2314Y-17006D01*
X-2379Y-17164D01*
X-2380Y-17335D01*
X-2314Y-17493D01*
X-2193Y-17614D01*
X-2035Y-17679D01*
X-1864Y-17680D01*
X-1706Y-17614D01*
X-1585Y-17493D01*
X-1520Y-17335D01*
X-1520Y-17300D01*
X-1145Y-17675D01*
G54D10*
G36*
X-1400Y-6279D02*
X-1410Y-6289D01*
X-3070Y-7950D01*
X-3725Y-7950D01*
X-3725Y-9979D01*
X-3760Y-10014D01*
X-3960Y-10214D01*
X-4420Y-10675D01*
X-5949Y-10675D01*
X-5949Y-7775D01*
X-5987Y-7683D01*
X-6058Y-7613D01*
X-6150Y-7575D01*
X-6249Y-7574D01*
X-6341Y-7612D01*
X-6411Y-7683D01*
X-6449Y-7775D01*
X-6450Y-7874D01*
X-6412Y-7966D01*
X-6341Y-8036D01*
X-6249Y-8074D01*
X-6150Y-8075D01*
X-6058Y-8037D01*
X-5988Y-7966D01*
X-5950Y-7874D01*
X-5949Y-7775D01*
X-5949Y-10675D01*
X-6699Y-10675D01*
X-6699Y-6875D01*
X-6737Y-6783D01*
X-6808Y-6713D01*
X-6900Y-6675D01*
X-6999Y-6674D01*
X-7091Y-6712D01*
X-7161Y-6783D01*
X-7199Y-6875D01*
X-7200Y-6974D01*
X-7162Y-7066D01*
X-7091Y-7136D01*
X-6999Y-7174D01*
X-6900Y-7175D01*
X-6808Y-7137D01*
X-6738Y-7066D01*
X-6700Y-6974D01*
X-6699Y-6875D01*
X-6699Y-10675D01*
X-7579Y-10675D01*
X-8054Y-10200D01*
X-8850Y-10200D01*
X-8850Y-9500D01*
X-8754Y-9500D01*
X-8850Y-9404D01*
X-8850Y-8750D01*
X-8700Y-8750D01*
X-8700Y-9375D01*
X-8325Y-9375D01*
X-8325Y-8595D01*
X-8075Y-8345D01*
X-8075Y-6595D01*
X-7929Y-6450D01*
X-5779Y-6450D01*
X-4929Y-5600D01*
X-4404Y-5600D01*
X-3954Y-5150D01*
X-2850Y-5150D01*
X-2850Y-4329D01*
X-2954Y-4225D01*
X-3754Y-4225D01*
X-4100Y-3879D01*
X-4100Y-1325D01*
X-7104Y-1325D01*
X-7225Y-1204D01*
X-7225Y-954D01*
X-7379Y-800D01*
X-8100Y-800D01*
X-8100Y-1379D01*
X-8495Y-1775D01*
X-8675Y-1775D01*
X-8675Y-1325D01*
X-10075Y-1325D01*
X-10075Y-1950D01*
X-12800Y-1950D01*
X-12800Y-50D01*
X-3125Y-50D01*
X-3125Y-3720D01*
X-2945Y-3900D01*
X-1400Y-3900D01*
X-1400Y-4296D01*
X-1411Y-4308D01*
X-1449Y-4400D01*
X-1450Y-4499D01*
X-1412Y-4591D01*
X-1400Y-4603D01*
X-1400Y-5100D01*
X-1400Y-5100D01*
X-1499Y-5099D01*
X-1591Y-5137D01*
X-1661Y-5208D01*
X-1699Y-5300D01*
X-1700Y-5399D01*
X-1662Y-5491D01*
X-1591Y-5561D01*
X-1499Y-5599D01*
X-1400Y-5600D01*
X-1400Y-5599D01*
X-1400Y-6279D01*
X-1400Y-6279D01*
G37*
G54D19*
X-1400Y-6279D02*
X-1410Y-6289D01*
X-3070Y-7950D01*
X-3725Y-7950D01*
X-3725Y-9979D01*
X-3760Y-10014D01*
X-3960Y-10214D01*
X-4420Y-10675D01*
X-5949Y-10675D01*
X-5949Y-7775D01*
X-5987Y-7683D01*
X-6058Y-7613D01*
X-6150Y-7575D01*
X-6249Y-7574D01*
X-6341Y-7612D01*
X-6411Y-7683D01*
X-6449Y-7775D01*
X-6450Y-7874D01*
X-6412Y-7966D01*
X-6341Y-8036D01*
X-6249Y-8074D01*
X-6150Y-8075D01*
X-6058Y-8037D01*
X-5988Y-7966D01*
X-5950Y-7874D01*
X-5949Y-7775D01*
X-5949Y-10675D01*
X-6699Y-10675D01*
X-6699Y-6875D01*
X-6737Y-6783D01*
X-6808Y-6713D01*
X-6900Y-6675D01*
X-6999Y-6674D01*
X-7091Y-6712D01*
X-7161Y-6783D01*
X-7199Y-6875D01*
X-7200Y-6974D01*
X-7162Y-7066D01*
X-7091Y-7136D01*
X-6999Y-7174D01*
X-6900Y-7175D01*
X-6808Y-7137D01*
X-6738Y-7066D01*
X-6700Y-6974D01*
X-6699Y-6875D01*
X-6699Y-10675D01*
X-7579Y-10675D01*
X-8054Y-10200D01*
X-8850Y-10200D01*
X-8850Y-9500D01*
X-8754Y-9500D01*
X-8850Y-9404D01*
X-8850Y-8750D01*
X-8700Y-8750D01*
X-8700Y-9375D01*
X-8325Y-9375D01*
X-8325Y-8595D01*
X-8075Y-8345D01*
X-8075Y-6595D01*
X-7929Y-6450D01*
X-5779Y-6450D01*
X-4929Y-5600D01*
X-4404Y-5600D01*
X-3954Y-5150D01*
X-2850Y-5150D01*
X-2850Y-4329D01*
X-2954Y-4225D01*
X-3754Y-4225D01*
X-4100Y-3879D01*
X-4100Y-1325D01*
X-7104Y-1325D01*
X-7225Y-1204D01*
X-7225Y-954D01*
X-7379Y-800D01*
X-8100Y-800D01*
X-8100Y-1379D01*
X-8495Y-1775D01*
X-8675Y-1775D01*
X-8675Y-1325D01*
X-10075Y-1325D01*
X-10075Y-1950D01*
X-12800Y-1950D01*
X-12800Y-50D01*
X-3125Y-50D01*
X-3125Y-3720D01*
X-2945Y-3900D01*
X-1400Y-3900D01*
X-1400Y-4296D01*
X-1411Y-4308D01*
X-1449Y-4400D01*
X-1450Y-4499D01*
X-1412Y-4591D01*
X-1400Y-4603D01*
X-1400Y-5100D01*
X-1400Y-5100D01*
X-1499Y-5099D01*
X-1591Y-5137D01*
X-1661Y-5208D01*
X-1699Y-5300D01*
X-1700Y-5399D01*
X-1662Y-5491D01*
X-1591Y-5561D01*
X-1499Y-5599D01*
X-1400Y-5600D01*
X-1400Y-5599D01*
X-1400Y-6279D01*
G54D10*
G36*
X1150Y-13179D02*
X200Y-14128D01*
X200Y-11250D01*
X200Y-10250D01*
X200Y-9250D01*
X200Y-8250D01*
X200Y-7250D01*
X200Y-6250D01*
X200Y-5250D01*
X168Y-5087D01*
X75Y-4949D01*
X-62Y-4857D01*
X-224Y-4824D01*
X-442Y-4824D01*
X-604Y-4857D01*
X-742Y-4949D01*
X-835Y-5087D01*
X-867Y-5250D01*
X-835Y-5412D01*
X-742Y-5550D01*
X-604Y-5642D01*
X-442Y-5675D01*
X-224Y-5675D01*
X-62Y-5642D01*
X75Y-5550D01*
X168Y-5412D01*
X200Y-5250D01*
X200Y-6250D01*
X168Y-6087D01*
X75Y-5949D01*
X-62Y-5857D01*
X-224Y-5824D01*
X-442Y-5824D01*
X-604Y-5857D01*
X-742Y-5949D01*
X-835Y-6087D01*
X-867Y-6250D01*
X-835Y-6412D01*
X-742Y-6550D01*
X-604Y-6642D01*
X-442Y-6675D01*
X-224Y-6675D01*
X-62Y-6642D01*
X75Y-6550D01*
X168Y-6412D01*
X200Y-6250D01*
X200Y-7250D01*
X168Y-7087D01*
X75Y-6949D01*
X-62Y-6857D01*
X-224Y-6824D01*
X-442Y-6824D01*
X-604Y-6857D01*
X-742Y-6949D01*
X-835Y-7087D01*
X-867Y-7250D01*
X-835Y-7412D01*
X-742Y-7550D01*
X-604Y-7642D01*
X-442Y-7675D01*
X-224Y-7675D01*
X-62Y-7642D01*
X75Y-7550D01*
X168Y-7412D01*
X200Y-7250D01*
X200Y-8250D01*
X168Y-8087D01*
X75Y-7949D01*
X-62Y-7857D01*
X-224Y-7824D01*
X-442Y-7824D01*
X-604Y-7857D01*
X-742Y-7949D01*
X-835Y-8087D01*
X-867Y-8250D01*
X-835Y-8412D01*
X-742Y-8550D01*
X-604Y-8642D01*
X-442Y-8675D01*
X-224Y-8675D01*
X-62Y-8642D01*
X75Y-8550D01*
X168Y-8412D01*
X200Y-8250D01*
X200Y-9250D01*
X168Y-9087D01*
X75Y-8949D01*
X-62Y-8857D01*
X-224Y-8824D01*
X-442Y-8824D01*
X-604Y-8857D01*
X-742Y-8949D01*
X-835Y-9087D01*
X-867Y-9250D01*
X-835Y-9412D01*
X-742Y-9550D01*
X-604Y-9642D01*
X-442Y-9675D01*
X-224Y-9675D01*
X-62Y-9642D01*
X75Y-9550D01*
X168Y-9412D01*
X200Y-9250D01*
X200Y-10250D01*
X168Y-10087D01*
X75Y-9949D01*
X-62Y-9857D01*
X-224Y-9824D01*
X-442Y-9824D01*
X-604Y-9857D01*
X-742Y-9949D01*
X-835Y-10087D01*
X-867Y-10250D01*
X-835Y-10412D01*
X-742Y-10550D01*
X-604Y-10642D01*
X-442Y-10675D01*
X-224Y-10675D01*
X-62Y-10642D01*
X75Y-10550D01*
X168Y-10412D01*
X200Y-10250D01*
X200Y-11250D01*
X168Y-11087D01*
X75Y-10949D01*
X-62Y-10857D01*
X-224Y-10824D01*
X-442Y-10824D01*
X-604Y-10857D01*
X-742Y-10949D01*
X-835Y-11087D01*
X-867Y-11250D01*
X-835Y-11412D01*
X-742Y-11550D01*
X-604Y-11642D01*
X-442Y-11675D01*
X-224Y-11675D01*
X-62Y-11642D01*
X75Y-11550D01*
X168Y-11412D01*
X200Y-11250D01*
X200Y-14128D01*
X-235Y-14564D01*
X-424Y-14754D01*
X-424Y-11950D01*
X-462Y-11858D01*
X-533Y-11788D01*
X-625Y-11750D01*
X-724Y-11749D01*
X-816Y-11787D01*
X-886Y-11858D01*
X-924Y-11950D01*
X-925Y-12049D01*
X-887Y-12141D01*
X-816Y-12211D01*
X-724Y-12249D01*
X-625Y-12250D01*
X-533Y-12212D01*
X-463Y-12141D01*
X-425Y-12049D01*
X-424Y-11950D01*
X-424Y-14754D01*
X-570Y-14900D01*
X-799Y-14900D01*
X-799Y-12450D01*
X-837Y-12358D01*
X-908Y-12288D01*
X-1000Y-12250D01*
X-1099Y-12249D01*
X-1191Y-12287D01*
X-1261Y-12358D01*
X-1299Y-12450D01*
X-1300Y-12549D01*
X-1262Y-12641D01*
X-1191Y-12711D01*
X-1099Y-12749D01*
X-1000Y-12750D01*
X-908Y-12712D01*
X-838Y-12641D01*
X-800Y-12549D01*
X-799Y-12450D01*
X-799Y-14900D01*
X-1049Y-14900D01*
X-1049Y-13675D01*
X-1087Y-13583D01*
X-1158Y-13513D01*
X-1250Y-13475D01*
X-1349Y-13474D01*
X-1441Y-13512D01*
X-1511Y-13583D01*
X-1549Y-13675D01*
X-1550Y-13774D01*
X-1512Y-13866D01*
X-1441Y-13936D01*
X-1349Y-13974D01*
X-1250Y-13975D01*
X-1158Y-13937D01*
X-1088Y-13866D01*
X-1050Y-13774D01*
X-1049Y-13675D01*
X-1049Y-14900D01*
X-2745Y-14900D01*
X-3070Y-15225D01*
X-3174Y-15225D01*
X-3174Y-13950D01*
X-3212Y-13858D01*
X-3283Y-13788D01*
X-3375Y-13750D01*
X-3474Y-13749D01*
X-3566Y-13787D01*
X-3636Y-13858D01*
X-3674Y-13950D01*
X-3675Y-14049D01*
X-3637Y-14141D01*
X-3566Y-14211D01*
X-3474Y-14249D01*
X-3375Y-14250D01*
X-3283Y-14212D01*
X-3213Y-14141D01*
X-3175Y-14049D01*
X-3174Y-13950D01*
X-3174Y-15225D01*
X-4800Y-15225D01*
X-4800Y-14153D01*
X-4763Y-14116D01*
X-4725Y-14024D01*
X-4724Y-13925D01*
X-4762Y-13833D01*
X-4800Y-13796D01*
X-4800Y-12079D01*
X-5154Y-11725D01*
X-8570Y-11725D01*
X-9075Y-12229D01*
X-9075Y-13450D01*
X-9075Y-13920D01*
X-8750Y-14245D01*
X-8750Y-15600D01*
X-9099Y-15600D01*
X-9099Y-11100D01*
X-9137Y-11008D01*
X-9208Y-10938D01*
X-9300Y-10900D01*
X-9399Y-10899D01*
X-9491Y-10937D01*
X-9561Y-11008D01*
X-9599Y-11100D01*
X-9600Y-11199D01*
X-9562Y-11291D01*
X-9491Y-11361D01*
X-9399Y-11399D01*
X-9300Y-11400D01*
X-9208Y-11362D01*
X-9138Y-11291D01*
X-9100Y-11199D01*
X-9099Y-11100D01*
X-9099Y-15600D01*
X-9824Y-15600D01*
X-9824Y-9525D01*
X-9862Y-9433D01*
X-9933Y-9363D01*
X-10025Y-9325D01*
X-10124Y-9324D01*
X-10216Y-9362D01*
X-10286Y-9433D01*
X-10324Y-9525D01*
X-10325Y-9624D01*
X-10287Y-9716D01*
X-10216Y-9786D01*
X-10124Y-9824D01*
X-10025Y-9825D01*
X-9933Y-9787D01*
X-9863Y-9716D01*
X-9825Y-9624D01*
X-9824Y-9525D01*
X-9824Y-15600D01*
X-10850Y-15600D01*
X-10850Y-14420D01*
X-10050Y-13620D01*
X-10050Y-13450D01*
X-10050Y-12649D01*
X-10049Y-12600D01*
X-10050Y-12600D01*
X-10050Y-12295D01*
X-9900Y-12145D01*
X-9900Y-10375D01*
X-9900Y-10229D01*
X-9939Y-10189D01*
X-10764Y-9364D01*
X-11975Y-8154D01*
X-11975Y-5745D01*
X-11904Y-5675D01*
X-5854Y-5675D01*
X-4900Y-4720D01*
X-4900Y-4179D01*
X-5229Y-3850D01*
X-5779Y-3850D01*
X-6554Y-3075D01*
X-8550Y-3075D01*
X-8550Y-2750D01*
X-8550Y-2025D01*
X-8379Y-2025D01*
X-7850Y-1495D01*
X-7850Y-1025D01*
X-7550Y-1025D01*
X-7550Y-1345D01*
X-7345Y-1550D01*
X-4350Y-1550D01*
X-4350Y-3995D01*
X-3845Y-4500D01*
X-3125Y-4500D01*
X-3125Y-4900D01*
X-4120Y-4900D01*
X-4570Y-5350D01*
X-5045Y-5350D01*
X-5870Y-6175D01*
X-8120Y-6175D01*
X-8425Y-6479D01*
X-8425Y-8125D01*
X-8645Y-8125D01*
X-9100Y-8579D01*
X-9100Y-9400D01*
X-9100Y-10225D01*
X-9100Y-10250D01*
X-9100Y-10475D01*
X-8170Y-10475D01*
X-7695Y-10950D01*
X-4370Y-10950D01*
X-3850Y-11470D01*
X-3850Y-12775D01*
X-1525Y-12775D01*
X-1525Y-11303D01*
X-1491Y-11336D01*
X-1399Y-11374D01*
X-1300Y-11375D01*
X-1208Y-11337D01*
X-1138Y-11266D01*
X-1100Y-11174D01*
X-1099Y-11075D01*
X-1137Y-10983D01*
X-1208Y-10913D01*
X-1300Y-10875D01*
X-1399Y-10874D01*
X-1491Y-10912D01*
X-1525Y-10946D01*
X-1525Y-10199D01*
X-1487Y-10291D01*
X-1416Y-10361D01*
X-1324Y-10399D01*
X-1225Y-10400D01*
X-1133Y-10362D01*
X-1063Y-10291D01*
X-1025Y-10199D01*
X-1024Y-10100D01*
X-1062Y-10008D01*
X-1133Y-9938D01*
X-1225Y-9900D01*
X-1324Y-9899D01*
X-1416Y-9937D01*
X-1486Y-10008D01*
X-1524Y-10100D01*
X-1525Y-10150D01*
X-1525Y-9925D01*
X-3400Y-9925D01*
X-3400Y-9125D01*
X-3045Y-9125D01*
X-2870Y-9300D01*
X-1525Y-9300D01*
X-1525Y-9139D01*
X-1499Y-9149D01*
X-1400Y-9150D01*
X-1308Y-9112D01*
X-1238Y-9041D01*
X-1200Y-8949D01*
X-1199Y-8850D01*
X-1237Y-8758D01*
X-1308Y-8688D01*
X-1400Y-8650D01*
X-1499Y-8649D01*
X-1525Y-8660D01*
X-1525Y-8178D01*
X-1516Y-8186D01*
X-1424Y-8224D01*
X-1325Y-8225D01*
X-1233Y-8187D01*
X-1163Y-8116D01*
X-1125Y-8024D01*
X-1124Y-7925D01*
X-1162Y-7833D01*
X-1233Y-7763D01*
X-1325Y-7725D01*
X-1424Y-7724D01*
X-1516Y-7762D01*
X-1525Y-7771D01*
X-1525Y-7060D01*
X-1512Y-7091D01*
X-1441Y-7161D01*
X-1349Y-7199D01*
X-1250Y-7200D01*
X-1158Y-7162D01*
X-1088Y-7091D01*
X-1050Y-6999D01*
X-1049Y-6900D01*
X-1087Y-6808D01*
X-1158Y-6738D01*
X-1250Y-6700D01*
X-1279Y-6700D01*
X-1050Y-6470D01*
X-1050Y-4653D01*
X-988Y-4591D01*
X-950Y-4499D01*
X-949Y-4400D01*
X-987Y-4308D01*
X-1050Y-4246D01*
X-1050Y-3550D01*
X-1199Y-3550D01*
X-1199Y-2525D01*
X-1237Y-2433D01*
X-1308Y-2363D01*
X-1400Y-2325D01*
X-1499Y-2324D01*
X-1591Y-2362D01*
X-1661Y-2433D01*
X-1699Y-2525D01*
X-1700Y-2624D01*
X-1662Y-2716D01*
X-1591Y-2786D01*
X-1499Y-2824D01*
X-1400Y-2825D01*
X-1308Y-2787D01*
X-1238Y-2716D01*
X-1200Y-2624D01*
X-1199Y-2525D01*
X-1199Y-3550D01*
X-2629Y-3550D01*
X-2775Y-3404D01*
X-2775Y-50D01*
X-980Y-50D01*
X-980Y-203D01*
X-823Y-582D01*
X-534Y-872D01*
X-155Y-1029D01*
X253Y-1030D01*
X632Y-873D01*
X717Y-788D01*
X1150Y-1220D01*
X1150Y-4867D01*
X1134Y-4857D01*
X972Y-4824D01*
X754Y-4824D01*
X591Y-4857D01*
X453Y-4949D01*
X361Y-5087D01*
X329Y-5250D01*
X361Y-5412D01*
X453Y-5550D01*
X591Y-5642D01*
X754Y-5675D01*
X972Y-5675D01*
X1134Y-5642D01*
X1150Y-5632D01*
X1150Y-5867D01*
X1134Y-5857D01*
X972Y-5824D01*
X754Y-5824D01*
X591Y-5857D01*
X453Y-5949D01*
X361Y-6087D01*
X329Y-6250D01*
X361Y-6412D01*
X453Y-6550D01*
X591Y-6642D01*
X754Y-6675D01*
X972Y-6675D01*
X1134Y-6642D01*
X1150Y-6632D01*
X1150Y-6867D01*
X1134Y-6857D01*
X972Y-6824D01*
X754Y-6824D01*
X591Y-6857D01*
X453Y-6949D01*
X361Y-7087D01*
X329Y-7250D01*
X361Y-7412D01*
X453Y-7550D01*
X591Y-7642D01*
X754Y-7675D01*
X972Y-7675D01*
X1134Y-7642D01*
X1150Y-7632D01*
X1150Y-7867D01*
X1134Y-7857D01*
X972Y-7824D01*
X754Y-7824D01*
X591Y-7857D01*
X453Y-7949D01*
X361Y-8087D01*
X329Y-8250D01*
X361Y-8412D01*
X453Y-8550D01*
X591Y-8642D01*
X754Y-8675D01*
X972Y-8675D01*
X1134Y-8642D01*
X1150Y-8632D01*
X1150Y-8867D01*
X1134Y-8857D01*
X972Y-8824D01*
X754Y-8824D01*
X591Y-8857D01*
X453Y-8949D01*
X361Y-9087D01*
X329Y-9250D01*
X361Y-9412D01*
X453Y-9550D01*
X591Y-9642D01*
X754Y-9675D01*
X972Y-9675D01*
X1134Y-9642D01*
X1150Y-9632D01*
X1150Y-9867D01*
X1134Y-9857D01*
X972Y-9824D01*
X754Y-9824D01*
X591Y-9857D01*
X453Y-9949D01*
X361Y-10087D01*
X329Y-10250D01*
X361Y-10412D01*
X453Y-10550D01*
X591Y-10642D01*
X754Y-10675D01*
X972Y-10675D01*
X1134Y-10642D01*
X1150Y-10632D01*
X1150Y-10824D01*
X443Y-10824D01*
X396Y-10844D01*
X359Y-10880D01*
X339Y-10928D01*
X339Y-10980D01*
X339Y-11571D01*
X359Y-11618D01*
X395Y-11655D01*
X443Y-11675D01*
X495Y-11675D01*
X1150Y-11675D01*
X1150Y-13179D01*
X1150Y-13179D01*
G37*
G54D19*
X1150Y-13179D02*
X200Y-14128D01*
X200Y-11250D01*
X200Y-10250D01*
X200Y-9250D01*
X200Y-8250D01*
X200Y-7250D01*
X200Y-6250D01*
X200Y-5250D01*
X168Y-5087D01*
X75Y-4949D01*
X-62Y-4857D01*
X-224Y-4824D01*
X-442Y-4824D01*
X-604Y-4857D01*
X-742Y-4949D01*
X-835Y-5087D01*
X-867Y-5250D01*
X-835Y-5412D01*
X-742Y-5550D01*
X-604Y-5642D01*
X-442Y-5675D01*
X-224Y-5675D01*
X-62Y-5642D01*
X75Y-5550D01*
X168Y-5412D01*
X200Y-5250D01*
X200Y-6250D01*
X168Y-6087D01*
X75Y-5949D01*
X-62Y-5857D01*
X-224Y-5824D01*
X-442Y-5824D01*
X-604Y-5857D01*
X-742Y-5949D01*
X-835Y-6087D01*
X-867Y-6250D01*
X-835Y-6412D01*
X-742Y-6550D01*
X-604Y-6642D01*
X-442Y-6675D01*
X-224Y-6675D01*
X-62Y-6642D01*
X75Y-6550D01*
X168Y-6412D01*
X200Y-6250D01*
X200Y-7250D01*
X168Y-7087D01*
X75Y-6949D01*
X-62Y-6857D01*
X-224Y-6824D01*
X-442Y-6824D01*
X-604Y-6857D01*
X-742Y-6949D01*
X-835Y-7087D01*
X-867Y-7250D01*
X-835Y-7412D01*
X-742Y-7550D01*
X-604Y-7642D01*
X-442Y-7675D01*
X-224Y-7675D01*
X-62Y-7642D01*
X75Y-7550D01*
X168Y-7412D01*
X200Y-7250D01*
X200Y-8250D01*
X168Y-8087D01*
X75Y-7949D01*
X-62Y-7857D01*
X-224Y-7824D01*
X-442Y-7824D01*
X-604Y-7857D01*
X-742Y-7949D01*
X-835Y-8087D01*
X-867Y-8250D01*
X-835Y-8412D01*
X-742Y-8550D01*
X-604Y-8642D01*
X-442Y-8675D01*
X-224Y-8675D01*
X-62Y-8642D01*
X75Y-8550D01*
X168Y-8412D01*
X200Y-8250D01*
X200Y-9250D01*
X168Y-9087D01*
X75Y-8949D01*
X-62Y-8857D01*
X-224Y-8824D01*
X-442Y-8824D01*
X-604Y-8857D01*
X-742Y-8949D01*
X-835Y-9087D01*
X-867Y-9250D01*
X-835Y-9412D01*
X-742Y-9550D01*
X-604Y-9642D01*
X-442Y-9675D01*
X-224Y-9675D01*
X-62Y-9642D01*
X75Y-9550D01*
X168Y-9412D01*
X200Y-9250D01*
X200Y-10250D01*
X168Y-10087D01*
X75Y-9949D01*
X-62Y-9857D01*
X-224Y-9824D01*
X-442Y-9824D01*
X-604Y-9857D01*
X-742Y-9949D01*
X-835Y-10087D01*
X-867Y-10250D01*
X-835Y-10412D01*
X-742Y-10550D01*
X-604Y-10642D01*
X-442Y-10675D01*
X-224Y-10675D01*
X-62Y-10642D01*
X75Y-10550D01*
X168Y-10412D01*
X200Y-10250D01*
X200Y-11250D01*
X168Y-11087D01*
X75Y-10949D01*
X-62Y-10857D01*
X-224Y-10824D01*
X-442Y-10824D01*
X-604Y-10857D01*
X-742Y-10949D01*
X-835Y-11087D01*
X-867Y-11250D01*
X-835Y-11412D01*
X-742Y-11550D01*
X-604Y-11642D01*
X-442Y-11675D01*
X-224Y-11675D01*
X-62Y-11642D01*
X75Y-11550D01*
X168Y-11412D01*
X200Y-11250D01*
X200Y-14128D01*
X-235Y-14564D01*
X-424Y-14754D01*
X-424Y-11950D01*
X-462Y-11858D01*
X-533Y-11788D01*
X-625Y-11750D01*
X-724Y-11749D01*
X-816Y-11787D01*
X-886Y-11858D01*
X-924Y-11950D01*
X-925Y-12049D01*
X-887Y-12141D01*
X-816Y-12211D01*
X-724Y-12249D01*
X-625Y-12250D01*
X-533Y-12212D01*
X-463Y-12141D01*
X-425Y-12049D01*
X-424Y-11950D01*
X-424Y-14754D01*
X-570Y-14900D01*
X-799Y-14900D01*
X-799Y-12450D01*
X-837Y-12358D01*
X-908Y-12288D01*
X-1000Y-12250D01*
X-1099Y-12249D01*
X-1191Y-12287D01*
X-1261Y-12358D01*
X-1299Y-12450D01*
X-1300Y-12549D01*
X-1262Y-12641D01*
X-1191Y-12711D01*
X-1099Y-12749D01*
X-1000Y-12750D01*
X-908Y-12712D01*
X-838Y-12641D01*
X-800Y-12549D01*
X-799Y-12450D01*
X-799Y-14900D01*
X-1049Y-14900D01*
X-1049Y-13675D01*
X-1087Y-13583D01*
X-1158Y-13513D01*
X-1250Y-13475D01*
X-1349Y-13474D01*
X-1441Y-13512D01*
X-1511Y-13583D01*
X-1549Y-13675D01*
X-1550Y-13774D01*
X-1512Y-13866D01*
X-1441Y-13936D01*
X-1349Y-13974D01*
X-1250Y-13975D01*
X-1158Y-13937D01*
X-1088Y-13866D01*
X-1050Y-13774D01*
X-1049Y-13675D01*
X-1049Y-14900D01*
X-2745Y-14900D01*
X-3070Y-15225D01*
X-3174Y-15225D01*
X-3174Y-13950D01*
X-3212Y-13858D01*
X-3283Y-13788D01*
X-3375Y-13750D01*
X-3474Y-13749D01*
X-3566Y-13787D01*
X-3636Y-13858D01*
X-3674Y-13950D01*
X-3675Y-14049D01*
X-3637Y-14141D01*
X-3566Y-14211D01*
X-3474Y-14249D01*
X-3375Y-14250D01*
X-3283Y-14212D01*
X-3213Y-14141D01*
X-3175Y-14049D01*
X-3174Y-13950D01*
X-3174Y-15225D01*
X-4800Y-15225D01*
X-4800Y-14153D01*
X-4763Y-14116D01*
X-4725Y-14024D01*
X-4724Y-13925D01*
X-4762Y-13833D01*
X-4800Y-13796D01*
X-4800Y-12079D01*
X-5154Y-11725D01*
X-8570Y-11725D01*
X-9075Y-12229D01*
X-9075Y-13450D01*
X-9075Y-13920D01*
X-8750Y-14245D01*
X-8750Y-15600D01*
X-9099Y-15600D01*
X-9099Y-11100D01*
X-9137Y-11008D01*
X-9208Y-10938D01*
X-9300Y-10900D01*
X-9399Y-10899D01*
X-9491Y-10937D01*
X-9561Y-11008D01*
X-9599Y-11100D01*
X-9600Y-11199D01*
X-9562Y-11291D01*
X-9491Y-11361D01*
X-9399Y-11399D01*
X-9300Y-11400D01*
X-9208Y-11362D01*
X-9138Y-11291D01*
X-9100Y-11199D01*
X-9099Y-11100D01*
X-9099Y-15600D01*
X-9824Y-15600D01*
X-9824Y-9525D01*
X-9862Y-9433D01*
X-9933Y-9363D01*
X-10025Y-9325D01*
X-10124Y-9324D01*
X-10216Y-9362D01*
X-10286Y-9433D01*
X-10324Y-9525D01*
X-10325Y-9624D01*
X-10287Y-9716D01*
X-10216Y-9786D01*
X-10124Y-9824D01*
X-10025Y-9825D01*
X-9933Y-9787D01*
X-9863Y-9716D01*
X-9825Y-9624D01*
X-9824Y-9525D01*
X-9824Y-15600D01*
X-10850Y-15600D01*
X-10850Y-14420D01*
X-10050Y-13620D01*
X-10050Y-13450D01*
X-10050Y-12649D01*
X-10049Y-12600D01*
X-10050Y-12600D01*
X-10050Y-12295D01*
X-9900Y-12145D01*
X-9900Y-10375D01*
X-9900Y-10229D01*
X-9939Y-10189D01*
X-10764Y-9364D01*
X-11975Y-8154D01*
X-11975Y-5745D01*
X-11904Y-5675D01*
X-5854Y-5675D01*
X-4900Y-4720D01*
X-4900Y-4179D01*
X-5229Y-3850D01*
X-5779Y-3850D01*
X-6554Y-3075D01*
X-8550Y-3075D01*
X-8550Y-2750D01*
X-8550Y-2025D01*
X-8379Y-2025D01*
X-7850Y-1495D01*
X-7850Y-1025D01*
X-7550Y-1025D01*
X-7550Y-1345D01*
X-7345Y-1550D01*
X-4350Y-1550D01*
X-4350Y-3995D01*
X-3845Y-4500D01*
X-3125Y-4500D01*
X-3125Y-4900D01*
X-4120Y-4900D01*
X-4570Y-5350D01*
X-5045Y-5350D01*
X-5870Y-6175D01*
X-8120Y-6175D01*
X-8425Y-6479D01*
X-8425Y-8125D01*
X-8645Y-8125D01*
X-9100Y-8579D01*
X-9100Y-9400D01*
X-9100Y-10225D01*
X-9100Y-10250D01*
X-9100Y-10475D01*
X-8170Y-10475D01*
X-7695Y-10950D01*
X-4370Y-10950D01*
X-3850Y-11470D01*
X-3850Y-12775D01*
X-1525Y-12775D01*
X-1525Y-11303D01*
X-1491Y-11336D01*
X-1399Y-11374D01*
X-1300Y-11375D01*
X-1208Y-11337D01*
X-1138Y-11266D01*
X-1100Y-11174D01*
X-1099Y-11075D01*
X-1137Y-10983D01*
X-1208Y-10913D01*
X-1300Y-10875D01*
X-1399Y-10874D01*
X-1491Y-10912D01*
X-1525Y-10946D01*
X-1525Y-10199D01*
X-1487Y-10291D01*
X-1416Y-10361D01*
X-1324Y-10399D01*
X-1225Y-10400D01*
X-1133Y-10362D01*
X-1063Y-10291D01*
X-1025Y-10199D01*
X-1024Y-10100D01*
X-1062Y-10008D01*
X-1133Y-9938D01*
X-1225Y-9900D01*
X-1324Y-9899D01*
X-1416Y-9937D01*
X-1486Y-10008D01*
X-1524Y-10100D01*
X-1525Y-10150D01*
X-1525Y-9925D01*
X-3400Y-9925D01*
X-3400Y-9125D01*
X-3045Y-9125D01*
X-2870Y-9300D01*
X-1525Y-9300D01*
X-1525Y-9139D01*
X-1499Y-9149D01*
X-1400Y-9150D01*
X-1308Y-9112D01*
X-1238Y-9041D01*
X-1200Y-8949D01*
X-1199Y-8850D01*
X-1237Y-8758D01*
X-1308Y-8688D01*
X-1400Y-8650D01*
X-1499Y-8649D01*
X-1525Y-8660D01*
X-1525Y-8178D01*
X-1516Y-8186D01*
X-1424Y-8224D01*
X-1325Y-8225D01*
X-1233Y-8187D01*
X-1163Y-8116D01*
X-1125Y-8024D01*
X-1124Y-7925D01*
X-1162Y-7833D01*
X-1233Y-7763D01*
X-1325Y-7725D01*
X-1424Y-7724D01*
X-1516Y-7762D01*
X-1525Y-7771D01*
X-1525Y-7060D01*
X-1512Y-7091D01*
X-1441Y-7161D01*
X-1349Y-7199D01*
X-1250Y-7200D01*
X-1158Y-7162D01*
X-1088Y-7091D01*
X-1050Y-6999D01*
X-1049Y-6900D01*
X-1087Y-6808D01*
X-1158Y-6738D01*
X-1250Y-6700D01*
X-1279Y-6700D01*
X-1050Y-6470D01*
X-1050Y-4653D01*
X-988Y-4591D01*
X-950Y-4499D01*
X-949Y-4400D01*
X-987Y-4308D01*
X-1050Y-4246D01*
X-1050Y-3550D01*
X-1199Y-3550D01*
X-1199Y-2525D01*
X-1237Y-2433D01*
X-1308Y-2363D01*
X-1400Y-2325D01*
X-1499Y-2324D01*
X-1591Y-2362D01*
X-1661Y-2433D01*
X-1699Y-2525D01*
X-1700Y-2624D01*
X-1662Y-2716D01*
X-1591Y-2786D01*
X-1499Y-2824D01*
X-1400Y-2825D01*
X-1308Y-2787D01*
X-1238Y-2716D01*
X-1200Y-2624D01*
X-1199Y-2525D01*
X-1199Y-3550D01*
X-2629Y-3550D01*
X-2775Y-3404D01*
X-2775Y-50D01*
X-980Y-50D01*
X-980Y-203D01*
X-823Y-582D01*
X-534Y-872D01*
X-155Y-1029D01*
X253Y-1030D01*
X632Y-873D01*
X717Y-788D01*
X1150Y-1220D01*
X1150Y-4867D01*
X1134Y-4857D01*
X972Y-4824D01*
X754Y-4824D01*
X591Y-4857D01*
X453Y-4949D01*
X361Y-5087D01*
X329Y-5250D01*
X361Y-5412D01*
X453Y-5550D01*
X591Y-5642D01*
X754Y-5675D01*
X972Y-5675D01*
X1134Y-5642D01*
X1150Y-5632D01*
X1150Y-5867D01*
X1134Y-5857D01*
X972Y-5824D01*
X754Y-5824D01*
X591Y-5857D01*
X453Y-5949D01*
X361Y-6087D01*
X329Y-6250D01*
X361Y-6412D01*
X453Y-6550D01*
X591Y-6642D01*
X754Y-6675D01*
X972Y-6675D01*
X1134Y-6642D01*
X1150Y-6632D01*
X1150Y-6867D01*
X1134Y-6857D01*
X972Y-6824D01*
X754Y-6824D01*
X591Y-6857D01*
X453Y-6949D01*
X361Y-7087D01*
X329Y-7250D01*
X361Y-7412D01*
X453Y-7550D01*
X591Y-7642D01*
X754Y-7675D01*
X972Y-7675D01*
X1134Y-7642D01*
X1150Y-7632D01*
X1150Y-7867D01*
X1134Y-7857D01*
X972Y-7824D01*
X754Y-7824D01*
X591Y-7857D01*
X453Y-7949D01*
X361Y-8087D01*
X329Y-8250D01*
X361Y-8412D01*
X453Y-8550D01*
X591Y-8642D01*
X754Y-8675D01*
X972Y-8675D01*
X1134Y-8642D01*
X1150Y-8632D01*
X1150Y-8867D01*
X1134Y-8857D01*
X972Y-8824D01*
X754Y-8824D01*
X591Y-8857D01*
X453Y-8949D01*
X361Y-9087D01*
X329Y-9250D01*
X361Y-9412D01*
X453Y-9550D01*
X591Y-9642D01*
X754Y-9675D01*
X972Y-9675D01*
X1134Y-9642D01*
X1150Y-9632D01*
X1150Y-9867D01*
X1134Y-9857D01*
X972Y-9824D01*
X754Y-9824D01*
X591Y-9857D01*
X453Y-9949D01*
X361Y-10087D01*
X329Y-10250D01*
X361Y-10412D01*
X453Y-10550D01*
X591Y-10642D01*
X754Y-10675D01*
X972Y-10675D01*
X1134Y-10642D01*
X1150Y-10632D01*
X1150Y-10824D01*
X443Y-10824D01*
X396Y-10844D01*
X359Y-10880D01*
X339Y-10928D01*
X339Y-10980D01*
X339Y-11571D01*
X359Y-11618D01*
X395Y-11655D01*
X443Y-11675D01*
X495Y-11675D01*
X1150Y-11675D01*
X1150Y-13179D01*
M02*
