M48
;DRILL file {Pcbnew (2013-05-31 BZR 4019)-stable} date 6/26/2014 4:00:05 PM
;FORMAT={-:-/ absolute / inch / decimal}
FMAT,2
INCH,TZ
T1C0.012
T2C0.035
T3C0.040
T4C0.040
%
G90
G05
M72
T1
X-2.82Y-1.2575
X-2.43Y-1.2825
X-2.316Y-0.265
X-2.2125Y-1.5675
X-2.17Y-1.485
X-2.09Y-1.2925
X-1.965Y-1.37
X-1.91Y-1.48
X-1.89Y-1.525
X-1.83Y-1.5575
X-1.505Y-1.485
X-1.4175Y-0.5925
X-1.39Y-1.08
X-1.385Y-1.0325
X-1.3475Y-0.865
X-1.335Y-0.975
X-1.2875Y-1.37
X-1.27Y-1.525
X-1.2525Y-1.265
X-1.2325Y-1.0125
X-1.225Y-0.425
X-1.225Y-0.9675
X-1.2225Y-1.135
X-1.2175Y-1.2925
X-1.17Y-1.5725
X-1.155Y-0.9225
X-1.1325Y-1.51
X-1.1275Y-1.3625
X-1.1125Y-1.0725
X-1.1Y-1.13
X-1.0875Y-1.0375
X-1.0825Y-0.0375
X-1.03Y-1.265
X-1.0075Y-0.9575
X-0.98Y-0.27
X-0.97Y-1.635
X-0.95Y-0.955
X-0.935Y-1.115
X-0.9Y-1.54
X-0.8775Y-1.2825
X-0.8575Y-1.15
X-0.8425Y-0.975
X-0.7325Y-1.67
X-0.695Y-0.6925
X-0.67Y-1.45
X-0.665Y-0.275
X-0.62Y-0.7825
X-0.5875Y-1.305
X-0.4975Y-1.3975
X-0.455Y-0.4425
X-0.4175Y-1.
X-0.4Y-0.83
X-0.3575Y-0.3525
X-0.35Y-1.46
X-0.3425Y-1.4
X-0.33Y-0.9375
X-0.32Y-1.3075
X-0.145Y-0.2575
X-0.145Y-0.535
X-0.145Y-0.89
X-0.1375Y-0.7975
X-0.135Y-1.1125
X-0.13Y-0.695
X-0.13Y-1.3725
X-0.1275Y-1.015
X-0.12Y-0.445
X-0.1175Y-0.855
X-0.105Y-1.25
X-0.1025Y-1.2975
X-0.0675Y-1.2
T2
X-2.84Y-0.0441
X-2.84Y-0.1425
X-2.84Y-0.2409
X-2.71Y-0.0441
X-2.71Y-0.1425
X-2.71Y-0.2409
T3
X-2.395Y0.175
X-2.395Y0.075
X-2.395Y-1.725
X-2.395Y-1.825
X-2.295Y0.175
X-2.295Y0.075
X-2.295Y-1.725
X-2.295Y-1.825
X-2.195Y0.175
X-2.195Y0.075
X-2.195Y-1.725
X-2.195Y-1.825
X-2.095Y0.175
X-2.095Y0.075
X-2.095Y-1.725
X-2.095Y-1.825
X-1.995Y0.175
X-1.995Y0.075
X-1.995Y-1.725
X-1.995Y-1.825
X-1.895Y0.175
X-1.895Y0.075
X-1.895Y-1.725
X-1.895Y-1.825
X-1.795Y0.175
X-1.795Y0.075
X-1.795Y-1.725
X-1.795Y-1.825
X-1.695Y0.175
X-1.695Y0.075
X-1.695Y-1.725
X-1.695Y-1.825
X-1.595Y0.175
X-1.595Y0.075
X-1.595Y-1.725
X-1.595Y-1.825
X-1.495Y0.175
X-1.495Y0.075
X-1.495Y-1.725
X-1.495Y-1.825
X-1.395Y0.175
X-1.395Y0.075
X-1.395Y-1.725
X-1.395Y-1.825
X-1.295Y0.175
X-1.295Y0.075
X-1.295Y-1.725
X-1.295Y-1.825
X-1.195Y0.175
X-1.195Y0.075
X-1.195Y-1.725
X-1.195Y-1.825
X-1.095Y0.175
X-1.095Y0.075
X-1.095Y-1.725
X-1.095Y-1.825
X-0.995Y0.175
X-0.995Y0.075
X-0.995Y-1.725
X-0.995Y-1.825
X-0.895Y0.175
X-0.895Y0.075
X-0.895Y-1.725
X-0.895Y-1.825
X-0.795Y0.175
X-0.795Y0.075
X-0.795Y-1.725
X-0.795Y-1.825
X-0.695Y0.175
X-0.695Y0.075
X-0.695Y-1.725
X-0.695Y-1.825
X-0.595Y0.175
X-0.595Y0.075
X-0.595Y-1.725
X-0.595Y-1.825
X-0.495Y0.175
X-0.495Y0.075
X-0.495Y-1.725
X-0.495Y-1.825
X-0.395Y0.175
X-0.395Y0.075
X-0.395Y-1.725
X-0.395Y-1.825
X-0.295Y0.175
X-0.295Y0.075
X-0.295Y-1.725
X-0.295Y-1.825
X-0.195Y0.175
X-0.195Y0.075
X-0.195Y-1.725
X-0.195Y-1.825
T4
X-0.0235Y-0.525
X-0.0235Y-0.625
X-0.0235Y-0.725
X-0.0235Y-0.825
X-0.0235Y-0.925
X-0.0235Y-1.025
X-0.0235Y-1.125
X0.0765Y-0.525
X0.0765Y-0.625
X0.0765Y-0.725
X0.0765Y-0.825
X0.0765Y-0.925
X0.0765Y-1.025
X0.0765Y-1.125
T0
M30
