G04 (created by PCBNEW (2013-05-31 BZR 4019)-stable) date 6/26/2014 3:48:14 PM*
%MOIN*%
G04 Gerber Fmt 3.4, Leading zero omitted, Abs format*
%FSLAX34Y34*%
G01*
G70*
G90*
G04 APERTURE LIST*
%ADD10C,0.00590551*%
%ADD11C,0.005*%
%ADD12C,0.0059*%
%ADD13C,0.01*%
%ADD14C,0.012*%
%ADD15C,0.0078*%
%ADD16C,0.006*%
%ADD17C,0.0026*%
%ADD18C,0.008*%
%ADD19C,0.0024*%
%ADD20C,0.0039*%
%ADD21C,0.0016*%
%ADD22C,0.0047*%
%ADD23C,0.00472441*%
%ADD24R,0.022X0.032*%
%ADD25R,0.032X0.022*%
%ADD26R,0.0413701X0.0374331*%
%ADD27R,0.0532X0.0158*%
%ADD28R,0.0158X0.0532*%
%ADD29R,0.0532X0.061*%
%ADD30C,0.0807*%
%ADD31O,0.0807402X0.0610551*%
%ADD32R,0.0807402X0.0610551*%
%ADD33R,0.0421575X0.137827*%
%ADD34R,0.0118X0.0295*%
%ADD35R,0.0295X0.0118*%
%ADD36R,0.0256X0.0414*%
%ADD37R,0.0414X0.0374*%
%ADD38R,0.0374X0.0414*%
%ADD39R,0.065X0.073*%
%ADD40C,0.182*%
%ADD41R,0.067X0.067*%
%ADD42C,0.062*%
%ADD43R,0.052X0.018*%
%ADD44R,0.027X0.052*%
%ADD45R,0.052X0.027*%
%ADD46C,0.057*%
%ADD47R,0.0334X0.0334*%
%ADD48R,0.0181X0.0422*%
G04 APERTURE END LIST*
G54D10*
G54D11*
X-8700Y-800D02*
X-8700Y-1500D01*
X-8700Y-1500D02*
X-9900Y-1500D01*
X-9900Y-1500D02*
X-9900Y-800D01*
X-9900Y-800D02*
X-8700Y-800D01*
X-7800Y-3850D02*
X-8500Y-3850D01*
X-8500Y-3850D02*
X-8500Y-2650D01*
X-8500Y-2650D02*
X-7800Y-2650D01*
X-7800Y-2650D02*
X-7800Y-3850D01*
G54D10*
X-29863Y-14075D02*
X-29745Y-14075D01*
X-30454Y-14075D02*
X-30336Y-14075D01*
X-30336Y-14075D02*
X-30021Y-13799D01*
X-29745Y-14547D02*
X-29745Y-13602D01*
X-30454Y-14547D02*
X-30454Y-13602D01*
X-29391Y-12893D02*
X-30808Y-12893D01*
X-30808Y-12893D02*
X-30808Y-15256D01*
X-30808Y-15256D02*
X-29391Y-15256D01*
X-29391Y-15256D02*
X-29391Y-12893D01*
G54D12*
X-7156Y-13483D02*
X-7117Y-13444D01*
X-7117Y-13365D02*
X-7235Y-13483D01*
X-7313Y-13483D02*
X-7117Y-13287D01*
X-7117Y-13208D02*
X-7392Y-13483D01*
X-7471Y-13483D02*
X-7117Y-13129D01*
X-7117Y-13050D02*
X-7550Y-13483D01*
X-7628Y-13483D02*
X-7117Y-12972D01*
X-7117Y-12893D02*
X-7707Y-13483D01*
X-7117Y-12814D02*
X-7117Y-13483D01*
X-7117Y-13483D02*
X-7786Y-13483D01*
X-7786Y-13483D02*
X-7117Y-12814D01*
X-7786Y-8917D02*
X-7117Y-8917D01*
X-7117Y-8917D02*
X-7117Y-9586D01*
X-11683Y-9586D02*
X-11683Y-8917D01*
X-11683Y-8917D02*
X-11014Y-8917D01*
X-11014Y-13483D02*
X-11683Y-13483D01*
X-11683Y-13483D02*
X-11683Y-12814D01*
G54D11*
X-7430Y-9430D02*
X-7430Y-12970D01*
X-7630Y-9230D02*
X-11170Y-9230D01*
X-11370Y-12970D02*
X-11370Y-9430D01*
X-7630Y-13170D02*
X-11170Y-13170D01*
X-7680Y-12770D02*
G75*
G03X-7680Y-12770I-150J0D01*
G74*
G01*
X-7430Y-12970D02*
X-7630Y-13170D01*
X-7630Y-9230D02*
X-7430Y-9430D01*
X-11370Y-9430D02*
X-11170Y-9230D01*
X-11170Y-13170D02*
X-11370Y-12970D01*
X-7700Y-14250D02*
X-7700Y-14750D01*
X-8200Y-14250D02*
X-8200Y-14740D01*
X-8350Y-14250D02*
X-7550Y-14250D01*
X-7550Y-14250D02*
X-7550Y-14750D01*
X-7550Y-14750D02*
X-8350Y-14750D01*
X-8350Y-14750D02*
X-8350Y-14250D01*
G54D13*
X-25975Y-12300D02*
G75*
G03X-25975Y-12300I-50J0D01*
G74*
G01*
X-25522Y-12300D02*
G75*
G03X-25522Y-12300I-502J0D01*
G74*
G01*
G54D14*
X1412Y-11872D02*
X1412Y-4627D01*
X1412Y-4627D02*
X4759Y-4627D01*
X4759Y-11872D02*
X4759Y-4627D01*
X2200Y-11872D02*
X2200Y-10750D01*
X2200Y-10750D02*
X4759Y-10750D01*
X1412Y-11872D02*
X4759Y-11872D01*
G54D13*
X-5400Y-4450D02*
G75*
G03X-5400Y-4450I-50J0D01*
G74*
G01*
X-4947Y-4450D02*
G75*
G03X-4947Y-4450I-502J0D01*
G74*
G01*
G54D15*
X-13676Y-9273D02*
X-15723Y-9273D01*
X-15723Y-9273D02*
X-15723Y-7226D01*
X-15723Y-7226D02*
X-13676Y-7226D01*
X-13676Y-7226D02*
X-13676Y-9273D01*
X-13180Y-7419D02*
X-13007Y-7419D01*
X-12829Y-7836D02*
X-12881Y-7868D01*
X-12881Y-7868D02*
X-12944Y-7919D01*
X-12944Y-7919D02*
X-12999Y-7986D01*
X-12999Y-7986D02*
X-13011Y-8021D01*
X-13011Y-8021D02*
X-13011Y-7419D01*
X-13011Y-7419D02*
X-12837Y-7419D01*
X-13400Y-7698D02*
X-13400Y-7777D01*
X-13361Y-7777D02*
X-13361Y-7698D01*
X-13322Y-7659D02*
X-13322Y-7816D01*
X-13282Y-7816D02*
X-13282Y-7659D01*
X-13243Y-7620D02*
X-13243Y-7856D01*
X-13518Y-7738D02*
X-13203Y-7580D01*
X-13203Y-7580D02*
X-13203Y-7895D01*
X-13203Y-7895D02*
X-13518Y-7738D01*
G54D13*
X-12150Y-850D02*
G75*
G03X-12150Y-850I-50J0D01*
G74*
G01*
X-11697Y-850D02*
G75*
G03X-11697Y-850I-502J0D01*
G74*
G01*
G54D15*
X-22487Y-13763D02*
X-22280Y-13763D01*
X-21120Y-13763D02*
X-20913Y-13763D01*
X-20913Y-13763D02*
X-20913Y-13970D01*
X-20913Y-15130D02*
X-20913Y-15337D01*
X-22487Y-15337D02*
X-22280Y-15337D01*
X-21120Y-15337D02*
X-20913Y-15337D01*
X-22487Y-13763D02*
X-22487Y-13970D01*
X-22487Y-15130D02*
X-22487Y-15337D01*
X-22270Y-15120D02*
X-22103Y-15120D01*
X-22280Y-15475D02*
X-22103Y-15475D01*
X-22280Y-15130D02*
X-22280Y-15475D01*
G54D11*
X-10265Y-3825D02*
X-10010Y-4080D01*
X-10205Y-3825D02*
X-10010Y-4020D01*
X-10975Y-4375D02*
X-10975Y-4635D01*
X-10225Y-4375D02*
X-10225Y-4635D01*
X-10600Y-3825D02*
X-10600Y-3565D01*
X-10975Y-3825D02*
X-10975Y-3565D01*
X-10225Y-3825D02*
X-10225Y-3565D01*
X-10010Y-4375D02*
X-11190Y-4375D01*
X-11190Y-4375D02*
X-11190Y-3825D01*
X-11190Y-3825D02*
X-10010Y-3825D01*
X-10010Y-3825D02*
X-10010Y-4375D01*
X-10140Y-930D02*
X-10460Y-930D01*
X-10450Y-1370D02*
X-10140Y-1370D01*
X-10460Y-1470D02*
X-10460Y-830D01*
X-10460Y-830D02*
X-10140Y-830D01*
X-10140Y-830D02*
X-10140Y-1470D01*
X-10140Y-1470D02*
X-10460Y-1470D01*
X-7930Y-2310D02*
X-7930Y-1990D01*
X-8370Y-2000D02*
X-8370Y-2310D01*
X-8470Y-1990D02*
X-7830Y-1990D01*
X-7830Y-1990D02*
X-7830Y-2310D01*
X-7830Y-2310D02*
X-8470Y-2310D01*
X-8470Y-2310D02*
X-8470Y-1990D01*
G54D13*
X-5375Y-2000D02*
G75*
G03X-5375Y-2000I-50J0D01*
G74*
G01*
X-4922Y-2000D02*
G75*
G03X-4922Y-2000I-502J0D01*
G74*
G01*
G54D11*
X-10075Y-5980D02*
X-10075Y-6620D01*
X-9175Y-6620D02*
X-9175Y-5980D01*
X-8995Y-6620D02*
X-8995Y-5980D01*
X-8995Y-5980D02*
X-10255Y-5980D01*
X-10255Y-5980D02*
X-10255Y-6620D01*
X-10255Y-6620D02*
X-8995Y-6620D01*
X-8840Y-7280D02*
X-9160Y-7280D01*
X-9150Y-7720D02*
X-8840Y-7720D01*
X-9160Y-7820D02*
X-9160Y-7180D01*
X-9160Y-7180D02*
X-8840Y-7180D01*
X-8840Y-7180D02*
X-8840Y-7820D01*
X-8840Y-7820D02*
X-9160Y-7820D01*
G54D13*
X-14300Y-4100D02*
G75*
G03X-14300Y-4100I-50J0D01*
G74*
G01*
X-13847Y-4100D02*
G75*
G03X-13847Y-4100I-502J0D01*
G74*
G01*
X-24850Y-775D02*
G75*
G03X-24850Y-775I-50J0D01*
G74*
G01*
X-24397Y-775D02*
G75*
G03X-24397Y-775I-502J0D01*
G74*
G01*
G54D16*
X-26275Y-13725D02*
G75*
G03X-26275Y-13725I-100J0D01*
G74*
G01*
X-26575Y-14725D02*
X-26575Y-13525D01*
X-26575Y-13525D02*
X-25375Y-13525D01*
X-25375Y-13525D02*
X-25375Y-14725D01*
X-25375Y-14725D02*
X-26575Y-14725D01*
G54D11*
X-8170Y-15090D02*
X-8170Y-15410D01*
X-7730Y-15400D02*
X-7730Y-15090D01*
X-7630Y-15410D02*
X-8270Y-15410D01*
X-8270Y-15410D02*
X-8270Y-15090D01*
X-8270Y-15090D02*
X-7630Y-15090D01*
X-7630Y-15090D02*
X-7630Y-15410D01*
X-21480Y-13060D02*
X-21480Y-12740D01*
X-21920Y-12750D02*
X-21920Y-13060D01*
X-22020Y-12740D02*
X-21380Y-12740D01*
X-21380Y-12740D02*
X-21380Y-13060D01*
X-21380Y-13060D02*
X-22020Y-13060D01*
X-22020Y-13060D02*
X-22020Y-12740D01*
X-6985Y-2170D02*
X-6665Y-2170D01*
X-6675Y-1730D02*
X-6985Y-1730D01*
X-6665Y-1630D02*
X-6665Y-2270D01*
X-6665Y-2270D02*
X-6985Y-2270D01*
X-6985Y-2270D02*
X-6985Y-1630D01*
X-6985Y-1630D02*
X-6665Y-1630D01*
X-8240Y-630D02*
X-8560Y-630D01*
X-8550Y-1070D02*
X-8240Y-1070D01*
X-8560Y-1170D02*
X-8560Y-530D01*
X-8560Y-530D02*
X-8240Y-530D01*
X-8240Y-530D02*
X-8240Y-1170D01*
X-8240Y-1170D02*
X-8560Y-1170D01*
X-10130Y-14810D02*
X-10130Y-14490D01*
X-10570Y-14500D02*
X-10570Y-14810D01*
X-10670Y-14490D02*
X-10030Y-14490D01*
X-10030Y-14490D02*
X-10030Y-14810D01*
X-10030Y-14810D02*
X-10670Y-14810D01*
X-10670Y-14810D02*
X-10670Y-14490D01*
X-7930Y-4360D02*
X-7930Y-4040D01*
X-8370Y-4050D02*
X-8370Y-4360D01*
X-8470Y-4040D02*
X-7830Y-4040D01*
X-7830Y-4040D02*
X-7830Y-4360D01*
X-7830Y-4360D02*
X-8470Y-4360D01*
X-8470Y-4360D02*
X-8470Y-4040D01*
X-10690Y-930D02*
X-11010Y-930D01*
X-11000Y-1370D02*
X-10690Y-1370D01*
X-11010Y-1470D02*
X-11010Y-830D01*
X-11010Y-830D02*
X-10690Y-830D01*
X-10690Y-830D02*
X-10690Y-1470D01*
X-10690Y-1470D02*
X-11010Y-1470D01*
X-9670Y-2040D02*
X-9670Y-2360D01*
X-9230Y-2350D02*
X-9230Y-2040D01*
X-9130Y-2360D02*
X-9770Y-2360D01*
X-9770Y-2360D02*
X-9770Y-2040D01*
X-9770Y-2040D02*
X-9130Y-2040D01*
X-9130Y-2040D02*
X-9130Y-2360D01*
X-9090Y-3680D02*
X-9410Y-3680D01*
X-9400Y-4120D02*
X-9090Y-4120D01*
X-9410Y-4220D02*
X-9410Y-3580D01*
X-9410Y-3580D02*
X-9090Y-3580D01*
X-9090Y-3580D02*
X-9090Y-4220D01*
X-9090Y-4220D02*
X-9410Y-4220D01*
X-11810Y-4070D02*
X-11490Y-4070D01*
X-11500Y-3630D02*
X-11810Y-3630D01*
X-11490Y-3530D02*
X-11490Y-4170D01*
X-11490Y-4170D02*
X-11810Y-4170D01*
X-11810Y-4170D02*
X-11810Y-3530D01*
X-11810Y-3530D02*
X-11490Y-3530D01*
X-10380Y-3310D02*
X-10380Y-2990D01*
X-10820Y-3000D02*
X-10820Y-3310D01*
X-10920Y-2990D02*
X-10280Y-2990D01*
X-10280Y-2990D02*
X-10280Y-3310D01*
X-10280Y-3310D02*
X-10920Y-3310D01*
X-10920Y-3310D02*
X-10920Y-2990D01*
X-2420Y-13390D02*
X-2420Y-13710D01*
X-1980Y-13700D02*
X-1980Y-13390D01*
X-1880Y-13710D02*
X-2520Y-13710D01*
X-2520Y-13710D02*
X-2520Y-13390D01*
X-2520Y-13390D02*
X-1880Y-13390D01*
X-1880Y-13390D02*
X-1880Y-13710D01*
X-2420Y-12290D02*
X-2420Y-12610D01*
X-1980Y-12600D02*
X-1980Y-12290D01*
X-1880Y-12610D02*
X-2520Y-12610D01*
X-2520Y-12610D02*
X-2520Y-12290D01*
X-2520Y-12290D02*
X-1880Y-12290D01*
X-1880Y-12290D02*
X-1880Y-12610D01*
X-2420Y-11190D02*
X-2420Y-11510D01*
X-1980Y-11500D02*
X-1980Y-11190D01*
X-1880Y-11510D02*
X-2520Y-11510D01*
X-2520Y-11510D02*
X-2520Y-11190D01*
X-2520Y-11190D02*
X-1880Y-11190D01*
X-1880Y-11190D02*
X-1880Y-11510D01*
X-2420Y-10090D02*
X-2420Y-10410D01*
X-1980Y-10400D02*
X-1980Y-10090D01*
X-1880Y-10410D02*
X-2520Y-10410D01*
X-2520Y-10410D02*
X-2520Y-10090D01*
X-2520Y-10090D02*
X-1880Y-10090D01*
X-1880Y-10090D02*
X-1880Y-10410D01*
X-2420Y-7890D02*
X-2420Y-8210D01*
X-1980Y-8200D02*
X-1980Y-7890D01*
X-1880Y-8210D02*
X-2520Y-8210D01*
X-2520Y-8210D02*
X-2520Y-7890D01*
X-2520Y-7890D02*
X-1880Y-7890D01*
X-1880Y-7890D02*
X-1880Y-8210D01*
X-2420Y-6790D02*
X-2420Y-7110D01*
X-1980Y-7100D02*
X-1980Y-6790D01*
X-1880Y-7110D02*
X-2520Y-7110D01*
X-2520Y-7110D02*
X-2520Y-6790D01*
X-2520Y-6790D02*
X-1880Y-6790D01*
X-1880Y-6790D02*
X-1880Y-7110D01*
X-2420Y-5140D02*
X-2420Y-5460D01*
X-1980Y-5450D02*
X-1980Y-5140D01*
X-1880Y-5460D02*
X-2520Y-5460D01*
X-2520Y-5460D02*
X-2520Y-5140D01*
X-2520Y-5140D02*
X-1880Y-5140D01*
X-1880Y-5140D02*
X-1880Y-5460D01*
X-2420Y-8990D02*
X-2420Y-9310D01*
X-1980Y-9300D02*
X-1980Y-8990D01*
X-1880Y-9310D02*
X-2520Y-9310D01*
X-2520Y-9310D02*
X-2520Y-8990D01*
X-2520Y-8990D02*
X-1880Y-8990D01*
X-1880Y-8990D02*
X-1880Y-9310D01*
X-9420Y-14190D02*
X-9420Y-14510D01*
X-8980Y-14500D02*
X-8980Y-14190D01*
X-8880Y-14510D02*
X-9520Y-14510D01*
X-9520Y-14510D02*
X-9520Y-14190D01*
X-9520Y-14190D02*
X-8880Y-14190D01*
X-8880Y-14190D02*
X-8880Y-14510D01*
X-7270Y-7340D02*
X-7270Y-7660D01*
X-6830Y-7650D02*
X-6830Y-7340D01*
X-6730Y-7660D02*
X-7370Y-7660D01*
X-7370Y-7660D02*
X-7370Y-7340D01*
X-7370Y-7340D02*
X-6730Y-7340D01*
X-6730Y-7340D02*
X-6730Y-7660D01*
X-7930Y-7660D02*
X-7930Y-7340D01*
X-8370Y-7350D02*
X-8370Y-7660D01*
X-8470Y-7340D02*
X-7830Y-7340D01*
X-7830Y-7340D02*
X-7830Y-7660D01*
X-7830Y-7660D02*
X-8470Y-7660D01*
X-8470Y-7660D02*
X-8470Y-7340D01*
X-7540Y-630D02*
X-7860Y-630D01*
X-7850Y-1070D02*
X-7540Y-1070D01*
X-7860Y-1170D02*
X-7860Y-530D01*
X-7860Y-530D02*
X-7540Y-530D01*
X-7540Y-530D02*
X-7540Y-1170D01*
X-7540Y-1170D02*
X-7860Y-1170D01*
X-9910Y-7520D02*
X-9590Y-7520D01*
X-9600Y-7080D02*
X-9910Y-7080D01*
X-9590Y-6980D02*
X-9590Y-7620D01*
X-9590Y-7620D02*
X-9910Y-7620D01*
X-9910Y-7620D02*
X-9910Y-6980D01*
X-9910Y-6980D02*
X-9590Y-6980D01*
X-2420Y-2390D02*
X-2420Y-2710D01*
X-1980Y-2700D02*
X-1980Y-2390D01*
X-1880Y-2710D02*
X-2520Y-2710D01*
X-2520Y-2710D02*
X-2520Y-2390D01*
X-2520Y-2390D02*
X-1880Y-2390D01*
X-1880Y-2390D02*
X-1880Y-2710D01*
X-12640Y-10280D02*
X-12960Y-10280D01*
X-12950Y-10720D02*
X-12640Y-10720D01*
X-12960Y-10820D02*
X-12960Y-10180D01*
X-12960Y-10180D02*
X-12640Y-10180D01*
X-12640Y-10180D02*
X-12640Y-10820D01*
X-12640Y-10820D02*
X-12960Y-10820D01*
X-6065Y-13955D02*
X-6385Y-13955D01*
X-6375Y-14395D02*
X-6065Y-14395D01*
X-6385Y-14495D02*
X-6385Y-13855D01*
X-6385Y-13855D02*
X-6065Y-13855D01*
X-6065Y-13855D02*
X-6065Y-14495D01*
X-6065Y-14495D02*
X-6385Y-14495D01*
X-7270Y-7890D02*
X-7270Y-8210D01*
X-6830Y-8200D02*
X-6830Y-7890D01*
X-6730Y-8210D02*
X-7370Y-8210D01*
X-7370Y-8210D02*
X-7370Y-7890D01*
X-7370Y-7890D02*
X-6730Y-7890D01*
X-6730Y-7890D02*
X-6730Y-8210D01*
X-9420Y-14740D02*
X-9420Y-15060D01*
X-8980Y-15050D02*
X-8980Y-14740D01*
X-8880Y-15060D02*
X-9520Y-15060D01*
X-9520Y-15060D02*
X-9520Y-14740D01*
X-9520Y-14740D02*
X-8880Y-14740D01*
X-8880Y-14740D02*
X-8880Y-15060D01*
X-7930Y-8210D02*
X-7930Y-7890D01*
X-8370Y-7900D02*
X-8370Y-8210D01*
X-8470Y-7890D02*
X-7830Y-7890D01*
X-7830Y-7890D02*
X-7830Y-8210D01*
X-7830Y-8210D02*
X-8470Y-8210D01*
X-8470Y-8210D02*
X-8470Y-7890D01*
X-20095Y-14840D02*
X-20095Y-15160D01*
X-19655Y-15150D02*
X-19655Y-14840D01*
X-19555Y-15160D02*
X-20195Y-15160D01*
X-20195Y-15160D02*
X-20195Y-14840D01*
X-20195Y-14840D02*
X-19555Y-14840D01*
X-19555Y-14840D02*
X-19555Y-15160D01*
X-23310Y-14170D02*
X-22990Y-14170D01*
X-23000Y-13730D02*
X-23310Y-13730D01*
X-22990Y-13630D02*
X-22990Y-14270D01*
X-22990Y-14270D02*
X-23310Y-14270D01*
X-23310Y-14270D02*
X-23310Y-13630D01*
X-23310Y-13630D02*
X-22990Y-13630D01*
X-2420Y-4590D02*
X-2420Y-4910D01*
X-1980Y-4900D02*
X-1980Y-4590D01*
X-1880Y-4910D02*
X-2520Y-4910D01*
X-2520Y-4910D02*
X-2520Y-4590D01*
X-2520Y-4590D02*
X-1880Y-4590D01*
X-1880Y-4590D02*
X-1880Y-4910D01*
X-20310Y-14220D02*
X-19990Y-14220D01*
X-20000Y-13780D02*
X-20310Y-13780D01*
X-19990Y-13680D02*
X-19990Y-14320D01*
X-19990Y-14320D02*
X-20310Y-14320D01*
X-20310Y-14320D02*
X-20310Y-13680D01*
X-20310Y-13680D02*
X-19990Y-13680D01*
X-10130Y-15360D02*
X-10130Y-15040D01*
X-10570Y-15050D02*
X-10570Y-15360D01*
X-10670Y-15040D02*
X-10030Y-15040D01*
X-10030Y-15040D02*
X-10030Y-15360D01*
X-10030Y-15360D02*
X-10670Y-15360D01*
X-10670Y-15360D02*
X-10670Y-15040D01*
X-11585Y-14570D02*
X-11265Y-14570D01*
X-11275Y-14130D02*
X-11585Y-14130D01*
X-11265Y-14030D02*
X-11265Y-14670D01*
X-11265Y-14670D02*
X-11585Y-14670D01*
X-11585Y-14670D02*
X-11585Y-14030D01*
X-11585Y-14030D02*
X-11265Y-14030D01*
X-2420Y-2940D02*
X-2420Y-3260D01*
X-1980Y-3250D02*
X-1980Y-2940D01*
X-1880Y-3260D02*
X-2520Y-3260D01*
X-2520Y-3260D02*
X-2520Y-2940D01*
X-2520Y-2940D02*
X-1880Y-2940D01*
X-1880Y-2940D02*
X-1880Y-3260D01*
X-10635Y-7895D02*
X-10315Y-7895D01*
X-10325Y-7455D02*
X-10635Y-7455D01*
X-10315Y-7355D02*
X-10315Y-7995D01*
X-10315Y-7995D02*
X-10635Y-7995D01*
X-10635Y-7995D02*
X-10635Y-7355D01*
X-10635Y-7355D02*
X-10315Y-7355D01*
X-4185Y-14395D02*
X-3865Y-14395D01*
X-3875Y-13955D02*
X-4185Y-13955D01*
X-3865Y-13855D02*
X-3865Y-14495D01*
X-3865Y-14495D02*
X-4185Y-14495D01*
X-4185Y-14495D02*
X-4185Y-13855D01*
X-4185Y-13855D02*
X-3865Y-13855D01*
X-1980Y-14810D02*
X-1980Y-14490D01*
X-2420Y-14500D02*
X-2420Y-14810D01*
X-2520Y-14490D02*
X-1880Y-14490D01*
X-1880Y-14490D02*
X-1880Y-14810D01*
X-1880Y-14810D02*
X-2520Y-14810D01*
X-2520Y-14810D02*
X-2520Y-14490D01*
X-1980Y-3810D02*
X-1980Y-3490D01*
X-2420Y-3500D02*
X-2420Y-3810D01*
X-2520Y-3490D02*
X-1880Y-3490D01*
X-1880Y-3490D02*
X-1880Y-3810D01*
X-1880Y-3810D02*
X-2520Y-3810D01*
X-2520Y-3810D02*
X-2520Y-3490D01*
X-1980Y-10960D02*
X-1980Y-10640D01*
X-2420Y-10650D02*
X-2420Y-10960D01*
X-2520Y-10640D02*
X-1880Y-10640D01*
X-1880Y-10640D02*
X-1880Y-10960D01*
X-1880Y-10960D02*
X-2520Y-10960D01*
X-2520Y-10960D02*
X-2520Y-10640D01*
X-1980Y-4360D02*
X-1980Y-4040D01*
X-2420Y-4050D02*
X-2420Y-4360D01*
X-2520Y-4040D02*
X-1880Y-4040D01*
X-1880Y-4040D02*
X-1880Y-4360D01*
X-1880Y-4360D02*
X-2520Y-4360D01*
X-2520Y-4360D02*
X-2520Y-4040D01*
X-1980Y-6010D02*
X-1980Y-5690D01*
X-2420Y-5700D02*
X-2420Y-6010D01*
X-2520Y-5690D02*
X-1880Y-5690D01*
X-1880Y-5690D02*
X-1880Y-6010D01*
X-1880Y-6010D02*
X-2520Y-6010D01*
X-2520Y-6010D02*
X-2520Y-5690D01*
X-1980Y-6560D02*
X-1980Y-6240D01*
X-2420Y-6250D02*
X-2420Y-6560D01*
X-2520Y-6240D02*
X-1880Y-6240D01*
X-1880Y-6240D02*
X-1880Y-6560D01*
X-1880Y-6560D02*
X-2520Y-6560D01*
X-2520Y-6560D02*
X-2520Y-6240D01*
X-1980Y-7660D02*
X-1980Y-7340D01*
X-2420Y-7350D02*
X-2420Y-7660D01*
X-2520Y-7340D02*
X-1880Y-7340D01*
X-1880Y-7340D02*
X-1880Y-7660D01*
X-1880Y-7660D02*
X-2520Y-7660D01*
X-2520Y-7660D02*
X-2520Y-7340D01*
X-1980Y-8760D02*
X-1980Y-8440D01*
X-2420Y-8450D02*
X-2420Y-8760D01*
X-2520Y-8440D02*
X-1880Y-8440D01*
X-1880Y-8440D02*
X-1880Y-8760D01*
X-1880Y-8760D02*
X-2520Y-8760D01*
X-2520Y-8760D02*
X-2520Y-8440D01*
X-1980Y-9860D02*
X-1980Y-9540D01*
X-2420Y-9550D02*
X-2420Y-9860D01*
X-2520Y-9540D02*
X-1880Y-9540D01*
X-1880Y-9540D02*
X-1880Y-9860D01*
X-1880Y-9860D02*
X-2520Y-9860D01*
X-2520Y-9860D02*
X-2520Y-9540D01*
X-1980Y-13160D02*
X-1980Y-12840D01*
X-2420Y-12850D02*
X-2420Y-13160D01*
X-2520Y-12840D02*
X-1880Y-12840D01*
X-1880Y-12840D02*
X-1880Y-13160D01*
X-1880Y-13160D02*
X-2520Y-13160D01*
X-2520Y-13160D02*
X-2520Y-12840D01*
X-1980Y-14260D02*
X-1980Y-13940D01*
X-2420Y-13950D02*
X-2420Y-14260D01*
X-2520Y-13940D02*
X-1880Y-13940D01*
X-1880Y-13940D02*
X-1880Y-14260D01*
X-1880Y-14260D02*
X-2520Y-14260D01*
X-2520Y-14260D02*
X-2520Y-13940D01*
X-1980Y-12060D02*
X-1980Y-11740D01*
X-2420Y-11750D02*
X-2420Y-12060D01*
X-2520Y-11740D02*
X-1880Y-11740D01*
X-1880Y-11740D02*
X-1880Y-12060D01*
X-1880Y-12060D02*
X-2520Y-12060D01*
X-2520Y-12060D02*
X-2520Y-11740D01*
X-13915Y-12730D02*
X-14235Y-12730D01*
X-14225Y-13170D02*
X-13915Y-13170D01*
X-14235Y-13270D02*
X-14235Y-12630D01*
X-14235Y-12630D02*
X-13915Y-12630D01*
X-13915Y-12630D02*
X-13915Y-13270D01*
X-13915Y-13270D02*
X-14235Y-13270D01*
X-15490Y-15430D02*
X-15810Y-15430D01*
X-15800Y-15870D02*
X-15490Y-15870D01*
X-15810Y-15970D02*
X-15810Y-15330D01*
X-15810Y-15330D02*
X-15490Y-15330D01*
X-15490Y-15330D02*
X-15490Y-15970D01*
X-15490Y-15970D02*
X-15810Y-15970D01*
X-14840Y-15430D02*
X-15160Y-15430D01*
X-15150Y-15870D02*
X-14840Y-15870D01*
X-15160Y-15970D02*
X-15160Y-15330D01*
X-15160Y-15330D02*
X-14840Y-15330D01*
X-14840Y-15330D02*
X-14840Y-15970D01*
X-14840Y-15970D02*
X-15160Y-15970D01*
X-24140Y-13330D02*
X-24460Y-13330D01*
X-24450Y-13770D02*
X-24140Y-13770D01*
X-24460Y-13870D02*
X-24460Y-13230D01*
X-24460Y-13230D02*
X-24140Y-13230D01*
X-24140Y-13230D02*
X-24140Y-13870D01*
X-24140Y-13870D02*
X-24460Y-13870D01*
X-28245Y-13515D02*
X-28245Y-13835D01*
X-27805Y-13825D02*
X-27805Y-13515D01*
X-27705Y-13835D02*
X-28345Y-13835D01*
X-28345Y-13835D02*
X-28345Y-13515D01*
X-28345Y-13515D02*
X-27705Y-13515D01*
X-27705Y-13515D02*
X-27705Y-13835D01*
X-28245Y-12965D02*
X-28245Y-13285D01*
X-27805Y-13275D02*
X-27805Y-12965D01*
X-27705Y-13285D02*
X-28345Y-13285D01*
X-28345Y-13285D02*
X-28345Y-12965D01*
X-28345Y-12965D02*
X-27705Y-12965D01*
X-27705Y-12965D02*
X-27705Y-13285D01*
X-28245Y-14065D02*
X-28245Y-14385D01*
X-27805Y-14375D02*
X-27805Y-14065D01*
X-27705Y-14385D02*
X-28345Y-14385D01*
X-28345Y-14385D02*
X-28345Y-14065D01*
X-28345Y-14065D02*
X-27705Y-14065D01*
X-27705Y-14065D02*
X-27705Y-14385D01*
X-14170Y-15190D02*
X-14170Y-15510D01*
X-13730Y-15500D02*
X-13730Y-15190D01*
X-13630Y-15510D02*
X-14270Y-15510D01*
X-14270Y-15510D02*
X-14270Y-15190D01*
X-14270Y-15190D02*
X-13630Y-15190D01*
X-13630Y-15190D02*
X-13630Y-15510D01*
X-13190Y-10280D02*
X-13510Y-10280D01*
X-13500Y-10720D02*
X-13190Y-10720D01*
X-13510Y-10820D02*
X-13510Y-10180D01*
X-13510Y-10180D02*
X-13190Y-10180D01*
X-13190Y-10180D02*
X-13190Y-10820D01*
X-13190Y-10820D02*
X-13510Y-10820D01*
X-1980Y-2160D02*
X-1980Y-1840D01*
X-2420Y-1850D02*
X-2420Y-2160D01*
X-2520Y-1840D02*
X-1880Y-1840D01*
X-1880Y-1840D02*
X-1880Y-2160D01*
X-1880Y-2160D02*
X-2520Y-2160D01*
X-2520Y-2160D02*
X-2520Y-1840D01*
X-12960Y-9520D02*
X-12640Y-9520D01*
X-12650Y-9080D02*
X-12960Y-9080D01*
X-12640Y-8980D02*
X-12640Y-9620D01*
X-12640Y-9620D02*
X-12960Y-9620D01*
X-12960Y-9620D02*
X-12960Y-8980D01*
X-12960Y-8980D02*
X-12640Y-8980D01*
X-12815Y-12730D02*
X-13135Y-12730D01*
X-13125Y-13170D02*
X-12815Y-13170D01*
X-13135Y-13270D02*
X-13135Y-12630D01*
X-13135Y-12630D02*
X-12815Y-12630D01*
X-12815Y-12630D02*
X-12815Y-13270D01*
X-12815Y-13270D02*
X-13135Y-13270D01*
X-13365Y-12730D02*
X-13685Y-12730D01*
X-13675Y-13170D02*
X-13365Y-13170D01*
X-13685Y-13270D02*
X-13685Y-12630D01*
X-13685Y-12630D02*
X-13365Y-12630D01*
X-13365Y-12630D02*
X-13365Y-13270D01*
X-13365Y-13270D02*
X-13685Y-13270D01*
G54D17*
X-14910Y-11900D02*
X-14240Y-11900D01*
X-14240Y-11900D02*
X-14240Y-11110D01*
X-14910Y-11110D02*
X-14240Y-11110D01*
X-14910Y-11900D02*
X-14910Y-11110D01*
G54D16*
X-14300Y-11900D02*
X-15300Y-11900D01*
X-14200Y-11800D02*
X-14200Y-11200D01*
X-15400Y-11800D02*
X-15400Y-11200D01*
X-15300Y-11100D02*
X-14300Y-11100D01*
G54D11*
X-14400Y-11300D02*
X-14875Y-11300D01*
X-14875Y-11300D02*
X-14875Y-11700D01*
X-14875Y-11700D02*
X-14400Y-11700D01*
X-14400Y-11700D02*
X-14400Y-11300D01*
G54D16*
X-14200Y-11200D02*
G75*
G03X-14300Y-11100I-100J0D01*
G74*
G01*
X-15300Y-11100D02*
G75*
G03X-15400Y-11200I0J-100D01*
G74*
G01*
X-15400Y-11800D02*
G75*
G03X-15300Y-11900I100J0D01*
G74*
G01*
X-14300Y-11900D02*
G75*
G03X-14200Y-11800I0J100D01*
G74*
G01*
G54D18*
X-7636Y-16443D02*
X-8264Y-16443D01*
X-8264Y-15657D02*
X-7636Y-15657D01*
X-7557Y-15774D02*
G75*
G03X-7635Y-15657I-97J19D01*
G74*
G01*
X-8264Y-15656D02*
G75*
G03X-8343Y-15774I19J-98D01*
G74*
G01*
X-8342Y-16325D02*
G75*
G03X-8264Y-16442I97J-19D01*
G74*
G01*
X-7635Y-16443D02*
G75*
G03X-7556Y-16325I-19J98D01*
G74*
G01*
G54D17*
X-26800Y-15075D02*
X-26800Y-15875D01*
X-26800Y-15875D02*
X-26000Y-15875D01*
X-26000Y-15075D02*
X-26000Y-15875D01*
X-26800Y-15075D02*
X-26000Y-15075D01*
G54D18*
X-26793Y-15789D02*
X-26793Y-15161D01*
X-26007Y-15161D02*
X-26007Y-15789D01*
X-26124Y-15867D02*
G75*
G03X-26007Y-15789I19J97D01*
G74*
G01*
X-26006Y-15160D02*
G75*
G03X-26124Y-15081I-98J-19D01*
G74*
G01*
X-26675Y-15082D02*
G75*
G03X-26792Y-15160I-19J-97D01*
G74*
G01*
X-26793Y-15789D02*
G75*
G03X-26675Y-15868I98J19D01*
G74*
G01*
G54D17*
X-25325Y-15075D02*
X-25325Y-15875D01*
X-25325Y-15875D02*
X-24525Y-15875D01*
X-24525Y-15075D02*
X-24525Y-15875D01*
X-25325Y-15075D02*
X-24525Y-15075D01*
G54D18*
X-25318Y-15789D02*
X-25318Y-15161D01*
X-24532Y-15161D02*
X-24532Y-15789D01*
X-24649Y-15867D02*
G75*
G03X-24532Y-15789I19J97D01*
G74*
G01*
X-24531Y-15160D02*
G75*
G03X-24649Y-15081I-98J-19D01*
G74*
G01*
X-25200Y-15082D02*
G75*
G03X-25317Y-15160I-19J-97D01*
G74*
G01*
X-25318Y-15789D02*
G75*
G03X-25200Y-15868I98J19D01*
G74*
G01*
G54D10*
X-27750Y346D02*
X-27750Y-932D01*
X-27750Y-932D02*
X-28143Y-932D01*
X-28537Y-3196D02*
X-28537Y-2901D01*
X-26962Y-3196D02*
X-26962Y-2901D01*
X-28537Y346D02*
X-28537Y51D01*
X-26962Y346D02*
X-26962Y51D01*
X-27750Y346D02*
X-26962Y346D01*
X-26962Y-3196D02*
X-27750Y-3196D01*
X-27750Y-3196D02*
X-28537Y-3196D01*
X-28537Y346D02*
X-27750Y346D01*
G54D11*
X-11745Y-7665D02*
X-11745Y-7985D01*
X-11305Y-7975D02*
X-11305Y-7665D01*
X-11205Y-7985D02*
X-11845Y-7985D01*
X-11845Y-7985D02*
X-11845Y-7665D01*
X-11845Y-7665D02*
X-11205Y-7665D01*
X-11205Y-7665D02*
X-11205Y-7985D01*
X-11745Y-7115D02*
X-11745Y-7435D01*
X-11305Y-7425D02*
X-11305Y-7115D01*
X-11205Y-7435D02*
X-11845Y-7435D01*
X-11845Y-7435D02*
X-11845Y-7115D01*
X-11845Y-7115D02*
X-11205Y-7115D01*
X-11205Y-7115D02*
X-11205Y-7435D01*
X-23520Y-2110D02*
X-23840Y-2110D01*
X-23830Y-2550D02*
X-23520Y-2550D01*
X-23840Y-2650D02*
X-23840Y-2010D01*
X-23840Y-2010D02*
X-23520Y-2010D01*
X-23520Y-2010D02*
X-23520Y-2650D01*
X-23520Y-2650D02*
X-23840Y-2650D01*
X-24763Y-2212D02*
X-25157Y-2212D01*
X-25157Y-2448D02*
X-24763Y-2448D01*
X-24921Y-2330D02*
X-24999Y-2330D01*
X-25039Y-2369D02*
X-24881Y-2369D01*
X-24881Y-2369D02*
X-24960Y-2291D01*
X-24960Y-2291D02*
X-25039Y-2369D01*
X-25157Y-2645D02*
X-25157Y-2015D01*
X-25157Y-2015D02*
X-24763Y-2015D01*
X-24763Y-2015D02*
X-24763Y-2645D01*
X-24763Y-2645D02*
X-25157Y-2645D01*
X-4995Y-13585D02*
X-4995Y-13225D01*
X-5255Y-13585D02*
X-5255Y-13225D01*
X-5505Y-13585D02*
X-5505Y-13225D01*
X-4745Y-13585D02*
X-4745Y-13225D01*
X-4745Y-14765D02*
X-4745Y-15125D01*
X-4995Y-14765D02*
X-4995Y-15125D01*
X-5505Y-14765D02*
X-5505Y-15125D01*
X-5255Y-14765D02*
X-5255Y-15125D01*
X-5367Y-14530D02*
G75*
G03X-5367Y-14530I-111J0D01*
G74*
G01*
X-4534Y-13584D02*
X-5716Y-13584D01*
X-5716Y-13584D02*
X-5716Y-14766D01*
X-5716Y-14766D02*
X-4534Y-14766D01*
X-4534Y-14766D02*
X-4534Y-13584D01*
X-10339Y-1481D02*
X-10137Y-1481D01*
X-10113Y-1469D01*
X-10101Y-1457D01*
X-10089Y-1433D01*
X-10089Y-1385D01*
X-10101Y-1362D01*
X-10113Y-1350D01*
X-10137Y-1338D01*
X-10339Y-1338D01*
X-10089Y-1088D02*
X-10089Y-1231D01*
X-10089Y-1159D02*
X-10339Y-1159D01*
X-10303Y-1183D01*
X-10280Y-1207D01*
X-10268Y-1231D01*
X-10339Y-933D02*
X-10339Y-909D01*
X-10327Y-885D01*
X-10315Y-874D01*
X-10291Y-862D01*
X-10244Y-850D01*
X-10184Y-850D01*
X-10137Y-862D01*
X-10113Y-874D01*
X-10101Y-885D01*
X-10089Y-909D01*
X-10089Y-933D01*
X-10101Y-957D01*
X-10113Y-969D01*
X-10137Y-981D01*
X-10184Y-993D01*
X-10244Y-993D01*
X-10291Y-981D01*
X-10315Y-969D01*
X-10327Y-957D01*
X-10339Y-933D01*
X-8436Y-2310D02*
X-8436Y-2512D01*
X-8424Y-2536D01*
X-8412Y-2548D01*
X-8388Y-2560D01*
X-8340Y-2560D01*
X-8317Y-2548D01*
X-8305Y-2536D01*
X-8293Y-2512D01*
X-8293Y-2310D01*
X-8043Y-2560D02*
X-8186Y-2560D01*
X-8114Y-2560D02*
X-8114Y-2310D01*
X-8138Y-2346D01*
X-8162Y-2369D01*
X-8186Y-2381D01*
X-7805Y-2560D02*
X-7948Y-2560D01*
X-7876Y-2560D02*
X-7876Y-2310D01*
X-7900Y-2346D01*
X-7924Y-2369D01*
X-7948Y-2381D01*
G54D10*
X-31051Y-14365D02*
X-31033Y-14308D01*
X-31033Y-14215D01*
X-31051Y-14177D01*
X-31070Y-14158D01*
X-31108Y-14140D01*
X-31145Y-14140D01*
X-31183Y-14158D01*
X-31201Y-14177D01*
X-31220Y-14215D01*
X-31239Y-14290D01*
X-31258Y-14327D01*
X-31276Y-14346D01*
X-31314Y-14365D01*
X-31351Y-14365D01*
X-31389Y-14346D01*
X-31408Y-14327D01*
X-31426Y-14290D01*
X-31426Y-14196D01*
X-31408Y-14140D01*
X-31033Y-13765D02*
X-31033Y-13990D01*
X-31033Y-13877D02*
X-31426Y-13877D01*
X-31370Y-13915D01*
X-31333Y-13952D01*
X-31314Y-13990D01*
X-29625Y-12427D02*
X-29625Y-12652D01*
X-29625Y-12539D02*
X-30019Y-12539D01*
X-29963Y-12577D01*
X-29925Y-12614D01*
X-29906Y-12652D01*
G54D12*
X-9125Y-11424D02*
X-8886Y-11424D01*
X-8858Y-11410D01*
X-8844Y-11396D01*
X-8830Y-11368D01*
X-8830Y-11312D01*
X-8844Y-11284D01*
X-8858Y-11270D01*
X-8886Y-11256D01*
X-9125Y-11256D01*
X-9027Y-10989D02*
X-8830Y-10989D01*
X-9139Y-11059D02*
X-8928Y-11129D01*
X-8928Y-10947D01*
G54D19*
X-7969Y-14157D02*
X-8009Y-14101D01*
X-8037Y-14157D02*
X-8037Y-14039D01*
X-7992Y-14039D01*
X-7980Y-14045D01*
X-7975Y-14051D01*
X-7969Y-14062D01*
X-7969Y-14079D01*
X-7975Y-14090D01*
X-7980Y-14095D01*
X-7992Y-14101D01*
X-8037Y-14101D01*
X-7913Y-14157D02*
X-7891Y-14157D01*
X-7879Y-14152D01*
X-7874Y-14146D01*
X-7862Y-14129D01*
X-7857Y-14107D01*
X-7857Y-14062D01*
X-7862Y-14051D01*
X-7868Y-14045D01*
X-7879Y-14039D01*
X-7902Y-14039D01*
X-7913Y-14045D01*
X-7919Y-14051D01*
X-7924Y-14062D01*
X-7924Y-14090D01*
X-7919Y-14101D01*
X-7913Y-14107D01*
X-7902Y-14112D01*
X-7879Y-14112D01*
X-7868Y-14107D01*
X-7862Y-14101D01*
X-7857Y-14090D01*
G54D14*
X-24682Y-12742D02*
X-25282Y-12742D01*
X-25282Y-12514D01*
X-25253Y-12457D01*
X-25225Y-12428D01*
X-25167Y-12400D01*
X-25082Y-12400D01*
X-25025Y-12428D01*
X-24996Y-12457D01*
X-24967Y-12514D01*
X-24967Y-12742D01*
X-24682Y-11828D02*
X-24682Y-12171D01*
X-24682Y-12000D02*
X-25282Y-12000D01*
X-25196Y-12057D01*
X-25139Y-12114D01*
X-25110Y-12171D01*
G54D18*
X5393Y-8545D02*
X4993Y-8545D01*
X4993Y-8392D01*
X5012Y-8354D01*
X5031Y-8335D01*
X5069Y-8316D01*
X5126Y-8316D01*
X5164Y-8335D01*
X5183Y-8354D01*
X5202Y-8392D01*
X5202Y-8545D01*
X4993Y-7973D02*
X4993Y-8049D01*
X5012Y-8088D01*
X5031Y-8107D01*
X5088Y-8145D01*
X5164Y-8164D01*
X5317Y-8164D01*
X5355Y-8145D01*
X5374Y-8126D01*
X5393Y-8088D01*
X5393Y-8011D01*
X5374Y-7973D01*
X5355Y-7954D01*
X5317Y-7935D01*
X5221Y-7935D01*
X5183Y-7954D01*
X5164Y-7973D01*
X5145Y-8011D01*
X5145Y-8088D01*
X5164Y-8126D01*
X5183Y-8145D01*
X5221Y-8164D01*
G54D14*
X-6407Y-4867D02*
X-7007Y-4867D01*
X-7007Y-4639D01*
X-6978Y-4582D01*
X-6950Y-4553D01*
X-6892Y-4525D01*
X-6807Y-4525D01*
X-6750Y-4553D01*
X-6721Y-4582D01*
X-6692Y-4639D01*
X-6692Y-4867D01*
X-7007Y-4325D02*
X-7007Y-3925D01*
X-6407Y-4182D01*
G54D15*
X-14990Y-10456D02*
X-14990Y-10063D01*
X-14840Y-10063D01*
X-14802Y-10082D01*
X-14784Y-10100D01*
X-14765Y-10138D01*
X-14765Y-10194D01*
X-14784Y-10231D01*
X-14802Y-10250D01*
X-14840Y-10269D01*
X-14990Y-10269D01*
X-14409Y-10063D02*
X-14597Y-10063D01*
X-14615Y-10250D01*
X-14597Y-10231D01*
X-14559Y-10213D01*
X-14466Y-10213D01*
X-14428Y-10231D01*
X-14409Y-10250D01*
X-14391Y-10287D01*
X-14391Y-10381D01*
X-14409Y-10418D01*
X-14428Y-10437D01*
X-14466Y-10456D01*
X-14559Y-10456D01*
X-14597Y-10437D01*
X-14615Y-10418D01*
G54D14*
X-12642Y-2192D02*
X-12642Y-1592D01*
X-12414Y-1592D01*
X-12357Y-1621D01*
X-12328Y-1650D01*
X-12300Y-1707D01*
X-12300Y-1792D01*
X-12328Y-1850D01*
X-12357Y-1878D01*
X-12414Y-1907D01*
X-12642Y-1907D01*
X-11957Y-1850D02*
X-12014Y-1821D01*
X-12042Y-1792D01*
X-12071Y-1735D01*
X-12071Y-1707D01*
X-12042Y-1650D01*
X-12014Y-1621D01*
X-11957Y-1592D01*
X-11842Y-1592D01*
X-11785Y-1621D01*
X-11757Y-1650D01*
X-11728Y-1707D01*
X-11728Y-1735D01*
X-11757Y-1792D01*
X-11785Y-1821D01*
X-11842Y-1850D01*
X-11957Y-1850D01*
X-12014Y-1878D01*
X-12042Y-1907D01*
X-12071Y-1964D01*
X-12071Y-2078D01*
X-12042Y-2135D01*
X-12014Y-2164D01*
X-11957Y-2192D01*
X-11842Y-2192D01*
X-11785Y-2164D01*
X-11757Y-2135D01*
X-11728Y-2078D01*
X-11728Y-1964D01*
X-11757Y-1907D01*
X-11785Y-1878D01*
X-11842Y-1850D01*
X-23632Y-12442D02*
X-23632Y-12928D01*
X-23603Y-12985D01*
X-23575Y-13014D01*
X-23517Y-13042D01*
X-23403Y-13042D01*
X-23346Y-13014D01*
X-23317Y-12985D01*
X-23289Y-12928D01*
X-23289Y-12442D01*
X-22917Y-12700D02*
X-22975Y-12671D01*
X-23003Y-12642D01*
X-23032Y-12585D01*
X-23032Y-12557D01*
X-23003Y-12500D01*
X-22975Y-12471D01*
X-22917Y-12442D01*
X-22803Y-12442D01*
X-22746Y-12471D01*
X-22717Y-12500D01*
X-22689Y-12557D01*
X-22689Y-12585D01*
X-22717Y-12642D01*
X-22746Y-12671D01*
X-22803Y-12700D01*
X-22917Y-12700D01*
X-22975Y-12728D01*
X-23003Y-12757D01*
X-23032Y-12814D01*
X-23032Y-12928D01*
X-23003Y-12985D01*
X-22975Y-13014D01*
X-22917Y-13042D01*
X-22803Y-13042D01*
X-22746Y-13014D01*
X-22717Y-12985D01*
X-22689Y-12928D01*
X-22689Y-12814D01*
X-22717Y-12757D01*
X-22746Y-12728D01*
X-22803Y-12700D01*
G54D20*
X-10750Y-4792D02*
X-10750Y-4952D01*
X-10740Y-4970D01*
X-10731Y-4980D01*
X-10712Y-4989D01*
X-10675Y-4989D01*
X-10656Y-4980D01*
X-10646Y-4970D01*
X-10637Y-4952D01*
X-10637Y-4792D01*
X-10534Y-4989D02*
X-10496Y-4989D01*
X-10478Y-4980D01*
X-10468Y-4970D01*
X-10449Y-4942D01*
X-10440Y-4905D01*
X-10440Y-4830D01*
X-10449Y-4811D01*
X-10459Y-4802D01*
X-10478Y-4792D01*
X-10515Y-4792D01*
X-10534Y-4802D01*
X-10543Y-4811D01*
X-10553Y-4830D01*
X-10553Y-4877D01*
X-10543Y-4895D01*
X-10534Y-4905D01*
X-10515Y-4914D01*
X-10478Y-4914D01*
X-10459Y-4905D01*
X-10449Y-4895D01*
X-10440Y-4877D01*
G54D21*
X-10525Y-1200D02*
X-10521Y-1204D01*
X-10518Y-1215D01*
X-10518Y-1223D01*
X-10521Y-1234D01*
X-10529Y-1242D01*
X-10536Y-1245D01*
X-10551Y-1249D01*
X-10563Y-1249D01*
X-10578Y-1245D01*
X-10585Y-1242D01*
X-10593Y-1234D01*
X-10597Y-1223D01*
X-10597Y-1215D01*
X-10593Y-1204D01*
X-10589Y-1200D01*
X-10570Y-1133D02*
X-10518Y-1133D01*
X-10600Y-1151D02*
X-10544Y-1170D01*
X-10544Y-1121D01*
X-10597Y-1054D02*
X-10597Y-1091D01*
X-10559Y-1095D01*
X-10563Y-1091D01*
X-10566Y-1084D01*
X-10566Y-1065D01*
X-10563Y-1057D01*
X-10559Y-1054D01*
X-10551Y-1050D01*
X-10533Y-1050D01*
X-10525Y-1054D01*
X-10521Y-1057D01*
X-10518Y-1065D01*
X-10518Y-1084D01*
X-10521Y-1091D01*
X-10525Y-1095D01*
X-8200Y-1924D02*
X-8204Y-1928D01*
X-8215Y-1931D01*
X-8223Y-1931D01*
X-8234Y-1928D01*
X-8242Y-1920D01*
X-8245Y-1913D01*
X-8249Y-1898D01*
X-8249Y-1886D01*
X-8245Y-1871D01*
X-8242Y-1864D01*
X-8234Y-1856D01*
X-8223Y-1852D01*
X-8215Y-1852D01*
X-8204Y-1856D01*
X-8200Y-1860D01*
X-8133Y-1879D02*
X-8133Y-1931D01*
X-8151Y-1849D02*
X-8170Y-1905D01*
X-8121Y-1905D01*
X-8057Y-1852D02*
X-8072Y-1852D01*
X-8080Y-1856D01*
X-8084Y-1860D01*
X-8091Y-1871D01*
X-8095Y-1886D01*
X-8095Y-1916D01*
X-8091Y-1924D01*
X-8087Y-1928D01*
X-8080Y-1931D01*
X-8065Y-1931D01*
X-8057Y-1928D01*
X-8054Y-1924D01*
X-8050Y-1916D01*
X-8050Y-1898D01*
X-8054Y-1890D01*
X-8057Y-1886D01*
X-8065Y-1883D01*
X-8080Y-1883D01*
X-8087Y-1886D01*
X-8091Y-1890D01*
X-8095Y-1898D01*
G54D14*
X-5732Y-1192D02*
X-6332Y-1192D01*
X-6332Y-964D01*
X-6303Y-907D01*
X-6275Y-878D01*
X-6217Y-850D01*
X-6132Y-850D01*
X-6075Y-878D01*
X-6046Y-907D01*
X-6017Y-964D01*
X-6017Y-1192D01*
X-5732Y-564D02*
X-5732Y-450D01*
X-5760Y-392D01*
X-5789Y-364D01*
X-5875Y-307D01*
X-5989Y-278D01*
X-6217Y-278D01*
X-6275Y-307D01*
X-6303Y-335D01*
X-6332Y-392D01*
X-6332Y-507D01*
X-6303Y-564D01*
X-6275Y-592D01*
X-6217Y-621D01*
X-6075Y-621D01*
X-6017Y-592D01*
X-5989Y-564D01*
X-5960Y-507D01*
X-5960Y-392D01*
X-5989Y-335D01*
X-6017Y-307D01*
X-6075Y-278D01*
G54D22*
X-9667Y-6870D02*
X-9677Y-6880D01*
X-9705Y-6889D01*
X-9724Y-6889D01*
X-9752Y-6880D01*
X-9771Y-6861D01*
X-9780Y-6842D01*
X-9789Y-6805D01*
X-9789Y-6777D01*
X-9780Y-6739D01*
X-9771Y-6720D01*
X-9752Y-6702D01*
X-9724Y-6692D01*
X-9705Y-6692D01*
X-9677Y-6702D01*
X-9667Y-6711D01*
X-9574Y-6889D02*
X-9536Y-6889D01*
X-9517Y-6880D01*
X-9508Y-6870D01*
X-9489Y-6842D01*
X-9480Y-6805D01*
X-9480Y-6730D01*
X-9489Y-6711D01*
X-9498Y-6702D01*
X-9517Y-6692D01*
X-9555Y-6692D01*
X-9574Y-6702D01*
X-9583Y-6711D01*
X-9592Y-6730D01*
X-9592Y-6777D01*
X-9583Y-6795D01*
X-9574Y-6805D01*
X-9555Y-6814D01*
X-9517Y-6814D01*
X-9498Y-6805D01*
X-9489Y-6795D01*
X-9480Y-6777D01*
G54D21*
X-9225Y-7513D02*
X-9221Y-7516D01*
X-9218Y-7528D01*
X-9218Y-7535D01*
X-9221Y-7547D01*
X-9229Y-7554D01*
X-9236Y-7558D01*
X-9251Y-7562D01*
X-9263Y-7562D01*
X-9278Y-7558D01*
X-9285Y-7554D01*
X-9293Y-7547D01*
X-9297Y-7535D01*
X-9297Y-7528D01*
X-9293Y-7516D01*
X-9289Y-7513D01*
X-9270Y-7445D02*
X-9218Y-7445D01*
X-9300Y-7464D02*
X-9244Y-7483D01*
X-9244Y-7434D01*
G54D14*
X-14792Y-5442D02*
X-14792Y-4842D01*
X-14564Y-4842D01*
X-14507Y-4871D01*
X-14478Y-4900D01*
X-14450Y-4957D01*
X-14450Y-5042D01*
X-14478Y-5100D01*
X-14507Y-5128D01*
X-14564Y-5157D01*
X-14792Y-5157D01*
X-14221Y-4900D02*
X-14192Y-4871D01*
X-14135Y-4842D01*
X-13992Y-4842D01*
X-13935Y-4871D01*
X-13907Y-4900D01*
X-13878Y-4957D01*
X-13878Y-5014D01*
X-13907Y-5100D01*
X-14250Y-5442D01*
X-13878Y-5442D01*
X-25757Y-1217D02*
X-26357Y-1217D01*
X-26357Y-989D01*
X-26328Y-932D01*
X-26300Y-903D01*
X-26242Y-875D01*
X-26157Y-875D01*
X-26100Y-903D01*
X-26071Y-932D01*
X-26042Y-989D01*
X-26042Y-1217D01*
X-26357Y-675D02*
X-26357Y-303D01*
X-26128Y-503D01*
X-26128Y-417D01*
X-26100Y-360D01*
X-26071Y-332D01*
X-26014Y-303D01*
X-25871Y-303D01*
X-25814Y-332D01*
X-25785Y-360D01*
X-25757Y-417D01*
X-25757Y-589D01*
X-25785Y-646D01*
X-25814Y-675D01*
G54D23*
X-26362Y-14364D02*
X-26107Y-14364D01*
X-26077Y-14349D01*
X-26062Y-14334D01*
X-26047Y-14304D01*
X-26047Y-14244D01*
X-26062Y-14214D01*
X-26077Y-14199D01*
X-26107Y-14184D01*
X-26362Y-14184D01*
X-26047Y-13870D02*
X-26047Y-14050D01*
X-26047Y-13960D02*
X-26362Y-13960D01*
X-26317Y-13990D01*
X-26287Y-14020D01*
X-26272Y-14050D01*
G54D21*
X-7963Y-15524D02*
X-7966Y-15528D01*
X-7978Y-15531D01*
X-7985Y-15531D01*
X-7997Y-15528D01*
X-8004Y-15520D01*
X-8008Y-15513D01*
X-8012Y-15498D01*
X-8012Y-15486D01*
X-8008Y-15471D01*
X-8004Y-15464D01*
X-7997Y-15456D01*
X-7985Y-15452D01*
X-7978Y-15452D01*
X-7966Y-15456D01*
X-7963Y-15460D01*
X-7936Y-15452D02*
X-7887Y-15452D01*
X-7914Y-15483D01*
X-7902Y-15483D01*
X-7895Y-15486D01*
X-7891Y-15490D01*
X-7887Y-15498D01*
X-7887Y-15516D01*
X-7891Y-15524D01*
X-7895Y-15528D01*
X-7902Y-15531D01*
X-7925Y-15531D01*
X-7933Y-15528D01*
X-7936Y-15524D01*
X-21750Y-12674D02*
X-21754Y-12678D01*
X-21765Y-12681D01*
X-21773Y-12681D01*
X-21784Y-12678D01*
X-21792Y-12670D01*
X-21795Y-12663D01*
X-21799Y-12648D01*
X-21799Y-12636D01*
X-21795Y-12621D01*
X-21792Y-12614D01*
X-21784Y-12606D01*
X-21773Y-12602D01*
X-21765Y-12602D01*
X-21754Y-12606D01*
X-21750Y-12610D01*
X-21724Y-12602D02*
X-21675Y-12602D01*
X-21701Y-12633D01*
X-21690Y-12633D01*
X-21683Y-12636D01*
X-21679Y-12640D01*
X-21675Y-12648D01*
X-21675Y-12666D01*
X-21679Y-12674D01*
X-21683Y-12678D01*
X-21690Y-12681D01*
X-21713Y-12681D01*
X-21720Y-12678D01*
X-21724Y-12674D01*
X-21645Y-12610D02*
X-21641Y-12606D01*
X-21634Y-12602D01*
X-21615Y-12602D01*
X-21607Y-12606D01*
X-21604Y-12610D01*
X-21600Y-12618D01*
X-21600Y-12625D01*
X-21604Y-12636D01*
X-21649Y-12681D01*
X-21600Y-12681D01*
X-6550Y-2000D02*
X-6546Y-2004D01*
X-6543Y-2015D01*
X-6543Y-2023D01*
X-6546Y-2034D01*
X-6554Y-2042D01*
X-6561Y-2045D01*
X-6576Y-2049D01*
X-6588Y-2049D01*
X-6603Y-2045D01*
X-6610Y-2042D01*
X-6618Y-2034D01*
X-6622Y-2023D01*
X-6622Y-2015D01*
X-6618Y-2004D01*
X-6614Y-2000D01*
X-6595Y-1933D02*
X-6543Y-1933D01*
X-6625Y-1951D02*
X-6569Y-1970D01*
X-6569Y-1921D01*
X-6588Y-1880D02*
X-6591Y-1887D01*
X-6595Y-1891D01*
X-6603Y-1895D01*
X-6606Y-1895D01*
X-6614Y-1891D01*
X-6618Y-1887D01*
X-6622Y-1880D01*
X-6622Y-1865D01*
X-6618Y-1857D01*
X-6614Y-1854D01*
X-6606Y-1850D01*
X-6603Y-1850D01*
X-6595Y-1854D01*
X-6591Y-1857D01*
X-6588Y-1865D01*
X-6588Y-1880D01*
X-6584Y-1887D01*
X-6580Y-1891D01*
X-6573Y-1895D01*
X-6558Y-1895D01*
X-6550Y-1891D01*
X-6546Y-1887D01*
X-6543Y-1880D01*
X-6543Y-1865D01*
X-6546Y-1857D01*
X-6550Y-1854D01*
X-6558Y-1850D01*
X-6573Y-1850D01*
X-6580Y-1854D01*
X-6584Y-1857D01*
X-6588Y-1865D01*
X-8625Y-900D02*
X-8621Y-904D01*
X-8618Y-915D01*
X-8618Y-923D01*
X-8621Y-934D01*
X-8629Y-942D01*
X-8636Y-945D01*
X-8651Y-949D01*
X-8663Y-949D01*
X-8678Y-945D01*
X-8685Y-942D01*
X-8693Y-934D01*
X-8697Y-923D01*
X-8697Y-915D01*
X-8693Y-904D01*
X-8689Y-900D01*
X-8670Y-833D02*
X-8618Y-833D01*
X-8700Y-851D02*
X-8644Y-870D01*
X-8644Y-821D01*
X-8697Y-799D02*
X-8697Y-750D01*
X-8666Y-776D01*
X-8666Y-765D01*
X-8663Y-757D01*
X-8659Y-754D01*
X-8651Y-750D01*
X-8633Y-750D01*
X-8625Y-754D01*
X-8621Y-757D01*
X-8618Y-765D01*
X-8618Y-787D01*
X-8621Y-795D01*
X-8625Y-799D01*
X-10400Y-14424D02*
X-10404Y-14428D01*
X-10415Y-14431D01*
X-10423Y-14431D01*
X-10434Y-14428D01*
X-10442Y-14420D01*
X-10445Y-14413D01*
X-10449Y-14398D01*
X-10449Y-14386D01*
X-10445Y-14371D01*
X-10442Y-14364D01*
X-10434Y-14356D01*
X-10423Y-14352D01*
X-10415Y-14352D01*
X-10404Y-14356D01*
X-10400Y-14360D01*
X-10333Y-14379D02*
X-10333Y-14431D01*
X-10351Y-14349D02*
X-10370Y-14405D01*
X-10321Y-14405D01*
X-10287Y-14431D02*
X-10272Y-14431D01*
X-10265Y-14428D01*
X-10261Y-14424D01*
X-10254Y-14413D01*
X-10250Y-14398D01*
X-10250Y-14368D01*
X-10254Y-14360D01*
X-10257Y-14356D01*
X-10265Y-14352D01*
X-10280Y-14352D01*
X-10287Y-14356D01*
X-10291Y-14360D01*
X-10295Y-14368D01*
X-10295Y-14386D01*
X-10291Y-14394D01*
X-10287Y-14398D01*
X-10280Y-14401D01*
X-10265Y-14401D01*
X-10257Y-14398D01*
X-10254Y-14394D01*
X-10250Y-14386D01*
X-8200Y-3974D02*
X-8204Y-3978D01*
X-8215Y-3981D01*
X-8223Y-3981D01*
X-8234Y-3978D01*
X-8242Y-3970D01*
X-8245Y-3963D01*
X-8249Y-3948D01*
X-8249Y-3936D01*
X-8245Y-3921D01*
X-8242Y-3914D01*
X-8234Y-3906D01*
X-8223Y-3902D01*
X-8215Y-3902D01*
X-8204Y-3906D01*
X-8200Y-3910D01*
X-8133Y-3929D02*
X-8133Y-3981D01*
X-8151Y-3899D02*
X-8170Y-3955D01*
X-8121Y-3955D01*
X-8057Y-3929D02*
X-8057Y-3981D01*
X-8076Y-3899D02*
X-8095Y-3955D01*
X-8046Y-3955D01*
X-11075Y-1200D02*
X-11071Y-1204D01*
X-11068Y-1215D01*
X-11068Y-1223D01*
X-11071Y-1234D01*
X-11079Y-1242D01*
X-11086Y-1245D01*
X-11101Y-1249D01*
X-11113Y-1249D01*
X-11128Y-1245D01*
X-11135Y-1242D01*
X-11143Y-1234D01*
X-11147Y-1223D01*
X-11147Y-1215D01*
X-11143Y-1204D01*
X-11139Y-1200D01*
X-11120Y-1133D02*
X-11068Y-1133D01*
X-11150Y-1151D02*
X-11094Y-1170D01*
X-11094Y-1121D01*
X-11147Y-1099D02*
X-11147Y-1046D01*
X-11068Y-1080D01*
X-9500Y-2474D02*
X-9504Y-2478D01*
X-9515Y-2481D01*
X-9523Y-2481D01*
X-9534Y-2478D01*
X-9542Y-2470D01*
X-9545Y-2463D01*
X-9549Y-2448D01*
X-9549Y-2436D01*
X-9545Y-2421D01*
X-9542Y-2414D01*
X-9534Y-2406D01*
X-9523Y-2402D01*
X-9515Y-2402D01*
X-9504Y-2406D01*
X-9500Y-2410D01*
X-9433Y-2429D02*
X-9433Y-2481D01*
X-9451Y-2399D02*
X-9470Y-2455D01*
X-9421Y-2455D01*
X-9350Y-2481D02*
X-9395Y-2481D01*
X-9372Y-2481D02*
X-9372Y-2402D01*
X-9380Y-2414D01*
X-9387Y-2421D01*
X-9395Y-2425D01*
X-9475Y-3950D02*
X-9471Y-3954D01*
X-9468Y-3965D01*
X-9468Y-3973D01*
X-9471Y-3984D01*
X-9479Y-3992D01*
X-9486Y-3995D01*
X-9501Y-3999D01*
X-9513Y-3999D01*
X-9528Y-3995D01*
X-9535Y-3992D01*
X-9543Y-3984D01*
X-9547Y-3973D01*
X-9547Y-3965D01*
X-9543Y-3954D01*
X-9539Y-3950D01*
X-9520Y-3883D02*
X-9468Y-3883D01*
X-9550Y-3901D02*
X-9494Y-3920D01*
X-9494Y-3871D01*
X-9547Y-3826D02*
X-9547Y-3819D01*
X-9543Y-3811D01*
X-9539Y-3807D01*
X-9531Y-3804D01*
X-9516Y-3800D01*
X-9498Y-3800D01*
X-9483Y-3804D01*
X-9475Y-3807D01*
X-9471Y-3811D01*
X-9468Y-3819D01*
X-9468Y-3826D01*
X-9471Y-3834D01*
X-9475Y-3837D01*
X-9483Y-3841D01*
X-9498Y-3845D01*
X-9516Y-3845D01*
X-9531Y-3841D01*
X-9539Y-3837D01*
X-9543Y-3834D01*
X-9547Y-3826D01*
X-11375Y-3900D02*
X-11371Y-3904D01*
X-11368Y-3915D01*
X-11368Y-3923D01*
X-11371Y-3934D01*
X-11379Y-3942D01*
X-11386Y-3945D01*
X-11401Y-3949D01*
X-11413Y-3949D01*
X-11428Y-3945D01*
X-11435Y-3942D01*
X-11443Y-3934D01*
X-11447Y-3923D01*
X-11447Y-3915D01*
X-11443Y-3904D01*
X-11439Y-3900D01*
X-11447Y-3874D02*
X-11447Y-3825D01*
X-11416Y-3851D01*
X-11416Y-3840D01*
X-11413Y-3833D01*
X-11409Y-3829D01*
X-11401Y-3825D01*
X-11383Y-3825D01*
X-11375Y-3829D01*
X-11371Y-3833D01*
X-11368Y-3840D01*
X-11368Y-3863D01*
X-11371Y-3870D01*
X-11375Y-3874D01*
X-11447Y-3799D02*
X-11447Y-3746D01*
X-11368Y-3780D01*
X-10650Y-2924D02*
X-10654Y-2928D01*
X-10665Y-2931D01*
X-10673Y-2931D01*
X-10684Y-2928D01*
X-10692Y-2920D01*
X-10695Y-2913D01*
X-10699Y-2898D01*
X-10699Y-2886D01*
X-10695Y-2871D01*
X-10692Y-2864D01*
X-10684Y-2856D01*
X-10673Y-2852D01*
X-10665Y-2852D01*
X-10654Y-2856D01*
X-10650Y-2860D01*
X-10624Y-2852D02*
X-10575Y-2852D01*
X-10601Y-2883D01*
X-10590Y-2883D01*
X-10583Y-2886D01*
X-10579Y-2890D01*
X-10575Y-2898D01*
X-10575Y-2916D01*
X-10579Y-2924D01*
X-10583Y-2928D01*
X-10590Y-2931D01*
X-10613Y-2931D01*
X-10620Y-2928D01*
X-10624Y-2924D01*
X-10530Y-2886D02*
X-10537Y-2883D01*
X-10541Y-2879D01*
X-10545Y-2871D01*
X-10545Y-2868D01*
X-10541Y-2860D01*
X-10537Y-2856D01*
X-10530Y-2852D01*
X-10515Y-2852D01*
X-10507Y-2856D01*
X-10504Y-2860D01*
X-10500Y-2868D01*
X-10500Y-2871D01*
X-10504Y-2879D01*
X-10507Y-2883D01*
X-10515Y-2886D01*
X-10530Y-2886D01*
X-10537Y-2890D01*
X-10541Y-2894D01*
X-10545Y-2901D01*
X-10545Y-2916D01*
X-10541Y-2924D01*
X-10537Y-2928D01*
X-10530Y-2931D01*
X-10515Y-2931D01*
X-10507Y-2928D01*
X-10504Y-2924D01*
X-10500Y-2916D01*
X-10500Y-2901D01*
X-10504Y-2894D01*
X-10507Y-2890D01*
X-10515Y-2886D01*
X-2250Y-13824D02*
X-2254Y-13828D01*
X-2265Y-13831D01*
X-2273Y-13831D01*
X-2284Y-13828D01*
X-2292Y-13820D01*
X-2295Y-13813D01*
X-2299Y-13798D01*
X-2299Y-13786D01*
X-2295Y-13771D01*
X-2292Y-13764D01*
X-2284Y-13756D01*
X-2273Y-13752D01*
X-2265Y-13752D01*
X-2254Y-13756D01*
X-2250Y-13760D01*
X-2220Y-13760D02*
X-2216Y-13756D01*
X-2209Y-13752D01*
X-2190Y-13752D01*
X-2183Y-13756D01*
X-2179Y-13760D01*
X-2175Y-13768D01*
X-2175Y-13775D01*
X-2179Y-13786D01*
X-2224Y-13831D01*
X-2175Y-13831D01*
X-2100Y-13831D02*
X-2145Y-13831D01*
X-2122Y-13831D02*
X-2122Y-13752D01*
X-2130Y-13764D01*
X-2137Y-13771D01*
X-2145Y-13775D01*
X-2250Y-12724D02*
X-2254Y-12728D01*
X-2265Y-12731D01*
X-2273Y-12731D01*
X-2284Y-12728D01*
X-2292Y-12720D01*
X-2295Y-12713D01*
X-2299Y-12698D01*
X-2299Y-12686D01*
X-2295Y-12671D01*
X-2292Y-12664D01*
X-2284Y-12656D01*
X-2273Y-12652D01*
X-2265Y-12652D01*
X-2254Y-12656D01*
X-2250Y-12660D01*
X-2220Y-12660D02*
X-2216Y-12656D01*
X-2209Y-12652D01*
X-2190Y-12652D01*
X-2183Y-12656D01*
X-2179Y-12660D01*
X-2175Y-12668D01*
X-2175Y-12675D01*
X-2179Y-12686D01*
X-2224Y-12731D01*
X-2175Y-12731D01*
X-2145Y-12660D02*
X-2141Y-12656D01*
X-2134Y-12652D01*
X-2115Y-12652D01*
X-2107Y-12656D01*
X-2104Y-12660D01*
X-2100Y-12668D01*
X-2100Y-12675D01*
X-2104Y-12686D01*
X-2149Y-12731D01*
X-2100Y-12731D01*
X-2250Y-11624D02*
X-2254Y-11628D01*
X-2265Y-11631D01*
X-2273Y-11631D01*
X-2284Y-11628D01*
X-2292Y-11620D01*
X-2295Y-11613D01*
X-2299Y-11598D01*
X-2299Y-11586D01*
X-2295Y-11571D01*
X-2292Y-11564D01*
X-2284Y-11556D01*
X-2273Y-11552D01*
X-2265Y-11552D01*
X-2254Y-11556D01*
X-2250Y-11560D01*
X-2220Y-11560D02*
X-2216Y-11556D01*
X-2209Y-11552D01*
X-2190Y-11552D01*
X-2183Y-11556D01*
X-2179Y-11560D01*
X-2175Y-11568D01*
X-2175Y-11575D01*
X-2179Y-11586D01*
X-2224Y-11631D01*
X-2175Y-11631D01*
X-2149Y-11552D02*
X-2100Y-11552D01*
X-2126Y-11583D01*
X-2115Y-11583D01*
X-2107Y-11586D01*
X-2104Y-11590D01*
X-2100Y-11598D01*
X-2100Y-11616D01*
X-2104Y-11624D01*
X-2107Y-11628D01*
X-2115Y-11631D01*
X-2137Y-11631D01*
X-2145Y-11628D01*
X-2149Y-11624D01*
X-2250Y-10524D02*
X-2254Y-10528D01*
X-2265Y-10531D01*
X-2273Y-10531D01*
X-2284Y-10528D01*
X-2292Y-10520D01*
X-2295Y-10513D01*
X-2299Y-10498D01*
X-2299Y-10486D01*
X-2295Y-10471D01*
X-2292Y-10464D01*
X-2284Y-10456D01*
X-2273Y-10452D01*
X-2265Y-10452D01*
X-2254Y-10456D01*
X-2250Y-10460D01*
X-2220Y-10460D02*
X-2216Y-10456D01*
X-2209Y-10452D01*
X-2190Y-10452D01*
X-2183Y-10456D01*
X-2179Y-10460D01*
X-2175Y-10468D01*
X-2175Y-10475D01*
X-2179Y-10486D01*
X-2224Y-10531D01*
X-2175Y-10531D01*
X-2107Y-10479D02*
X-2107Y-10531D01*
X-2126Y-10449D02*
X-2145Y-10505D01*
X-2096Y-10505D01*
X-2250Y-8324D02*
X-2254Y-8328D01*
X-2265Y-8331D01*
X-2273Y-8331D01*
X-2284Y-8328D01*
X-2292Y-8320D01*
X-2295Y-8313D01*
X-2299Y-8298D01*
X-2299Y-8286D01*
X-2295Y-8271D01*
X-2292Y-8264D01*
X-2284Y-8256D01*
X-2273Y-8252D01*
X-2265Y-8252D01*
X-2254Y-8256D01*
X-2250Y-8260D01*
X-2220Y-8260D02*
X-2216Y-8256D01*
X-2209Y-8252D01*
X-2190Y-8252D01*
X-2183Y-8256D01*
X-2179Y-8260D01*
X-2175Y-8268D01*
X-2175Y-8275D01*
X-2179Y-8286D01*
X-2224Y-8331D01*
X-2175Y-8331D01*
X-2107Y-8252D02*
X-2122Y-8252D01*
X-2130Y-8256D01*
X-2134Y-8260D01*
X-2141Y-8271D01*
X-2145Y-8286D01*
X-2145Y-8316D01*
X-2141Y-8324D01*
X-2137Y-8328D01*
X-2130Y-8331D01*
X-2115Y-8331D01*
X-2107Y-8328D01*
X-2104Y-8324D01*
X-2100Y-8316D01*
X-2100Y-8298D01*
X-2104Y-8290D01*
X-2107Y-8286D01*
X-2115Y-8283D01*
X-2130Y-8283D01*
X-2137Y-8286D01*
X-2141Y-8290D01*
X-2145Y-8298D01*
X-2250Y-7224D02*
X-2254Y-7228D01*
X-2265Y-7231D01*
X-2273Y-7231D01*
X-2284Y-7228D01*
X-2292Y-7220D01*
X-2295Y-7213D01*
X-2299Y-7198D01*
X-2299Y-7186D01*
X-2295Y-7171D01*
X-2292Y-7164D01*
X-2284Y-7156D01*
X-2273Y-7152D01*
X-2265Y-7152D01*
X-2254Y-7156D01*
X-2250Y-7160D01*
X-2220Y-7160D02*
X-2216Y-7156D01*
X-2209Y-7152D01*
X-2190Y-7152D01*
X-2183Y-7156D01*
X-2179Y-7160D01*
X-2175Y-7168D01*
X-2175Y-7175D01*
X-2179Y-7186D01*
X-2224Y-7231D01*
X-2175Y-7231D01*
X-2149Y-7152D02*
X-2096Y-7152D01*
X-2130Y-7231D01*
X-2250Y-5574D02*
X-2254Y-5578D01*
X-2265Y-5581D01*
X-2273Y-5581D01*
X-2284Y-5578D01*
X-2292Y-5570D01*
X-2295Y-5563D01*
X-2299Y-5548D01*
X-2299Y-5536D01*
X-2295Y-5521D01*
X-2292Y-5514D01*
X-2284Y-5506D01*
X-2273Y-5502D01*
X-2265Y-5502D01*
X-2254Y-5506D01*
X-2250Y-5510D01*
X-2220Y-5510D02*
X-2216Y-5506D01*
X-2209Y-5502D01*
X-2190Y-5502D01*
X-2183Y-5506D01*
X-2179Y-5510D01*
X-2175Y-5518D01*
X-2175Y-5525D01*
X-2179Y-5536D01*
X-2224Y-5581D01*
X-2175Y-5581D01*
X-2130Y-5536D02*
X-2137Y-5533D01*
X-2141Y-5529D01*
X-2145Y-5521D01*
X-2145Y-5518D01*
X-2141Y-5510D01*
X-2137Y-5506D01*
X-2130Y-5502D01*
X-2115Y-5502D01*
X-2107Y-5506D01*
X-2104Y-5510D01*
X-2100Y-5518D01*
X-2100Y-5521D01*
X-2104Y-5529D01*
X-2107Y-5533D01*
X-2115Y-5536D01*
X-2130Y-5536D01*
X-2137Y-5540D01*
X-2141Y-5544D01*
X-2145Y-5551D01*
X-2145Y-5566D01*
X-2141Y-5574D01*
X-2137Y-5578D01*
X-2130Y-5581D01*
X-2115Y-5581D01*
X-2107Y-5578D01*
X-2104Y-5574D01*
X-2100Y-5566D01*
X-2100Y-5551D01*
X-2104Y-5544D01*
X-2107Y-5540D01*
X-2115Y-5536D01*
X-2250Y-9424D02*
X-2254Y-9428D01*
X-2265Y-9431D01*
X-2273Y-9431D01*
X-2284Y-9428D01*
X-2292Y-9420D01*
X-2295Y-9413D01*
X-2299Y-9398D01*
X-2299Y-9386D01*
X-2295Y-9371D01*
X-2292Y-9364D01*
X-2284Y-9356D01*
X-2273Y-9352D01*
X-2265Y-9352D01*
X-2254Y-9356D01*
X-2250Y-9360D01*
X-2220Y-9360D02*
X-2216Y-9356D01*
X-2209Y-9352D01*
X-2190Y-9352D01*
X-2183Y-9356D01*
X-2179Y-9360D01*
X-2175Y-9368D01*
X-2175Y-9375D01*
X-2179Y-9386D01*
X-2224Y-9431D01*
X-2175Y-9431D01*
X-2104Y-9352D02*
X-2141Y-9352D01*
X-2145Y-9390D01*
X-2141Y-9386D01*
X-2134Y-9383D01*
X-2115Y-9383D01*
X-2107Y-9386D01*
X-2104Y-9390D01*
X-2100Y-9398D01*
X-2100Y-9416D01*
X-2104Y-9424D01*
X-2107Y-9428D01*
X-2115Y-9431D01*
X-2134Y-9431D01*
X-2141Y-9428D01*
X-2145Y-9424D01*
X-9213Y-14624D02*
X-9216Y-14628D01*
X-9228Y-14631D01*
X-9235Y-14631D01*
X-9247Y-14628D01*
X-9254Y-14620D01*
X-9258Y-14613D01*
X-9262Y-14598D01*
X-9262Y-14586D01*
X-9258Y-14571D01*
X-9254Y-14564D01*
X-9247Y-14556D01*
X-9235Y-14552D01*
X-9228Y-14552D01*
X-9216Y-14556D01*
X-9213Y-14560D01*
X-9186Y-14552D02*
X-9134Y-14552D01*
X-9168Y-14631D01*
X-7100Y-7774D02*
X-7104Y-7778D01*
X-7115Y-7781D01*
X-7123Y-7781D01*
X-7134Y-7778D01*
X-7142Y-7770D01*
X-7145Y-7763D01*
X-7149Y-7748D01*
X-7149Y-7736D01*
X-7145Y-7721D01*
X-7142Y-7714D01*
X-7134Y-7706D01*
X-7123Y-7702D01*
X-7115Y-7702D01*
X-7104Y-7706D01*
X-7100Y-7710D01*
X-7025Y-7781D02*
X-7070Y-7781D01*
X-7048Y-7781D02*
X-7048Y-7702D01*
X-7055Y-7714D01*
X-7063Y-7721D01*
X-7070Y-7725D01*
X-6999Y-7702D02*
X-6950Y-7702D01*
X-6976Y-7733D01*
X-6965Y-7733D01*
X-6957Y-7736D01*
X-6954Y-7740D01*
X-6950Y-7748D01*
X-6950Y-7766D01*
X-6954Y-7774D01*
X-6957Y-7778D01*
X-6965Y-7781D01*
X-6987Y-7781D01*
X-6995Y-7778D01*
X-6999Y-7774D01*
X-8200Y-7274D02*
X-8204Y-7278D01*
X-8215Y-7281D01*
X-8223Y-7281D01*
X-8234Y-7278D01*
X-8242Y-7270D01*
X-8245Y-7263D01*
X-8249Y-7248D01*
X-8249Y-7236D01*
X-8245Y-7221D01*
X-8242Y-7214D01*
X-8234Y-7206D01*
X-8223Y-7202D01*
X-8215Y-7202D01*
X-8204Y-7206D01*
X-8200Y-7210D01*
X-8125Y-7281D02*
X-8170Y-7281D01*
X-8148Y-7281D02*
X-8148Y-7202D01*
X-8155Y-7214D01*
X-8163Y-7221D01*
X-8170Y-7225D01*
X-8057Y-7229D02*
X-8057Y-7281D01*
X-8076Y-7199D02*
X-8095Y-7255D01*
X-8046Y-7255D01*
X-7925Y-900D02*
X-7921Y-904D01*
X-7918Y-915D01*
X-7918Y-923D01*
X-7921Y-934D01*
X-7929Y-942D01*
X-7936Y-945D01*
X-7951Y-949D01*
X-7963Y-949D01*
X-7978Y-945D01*
X-7985Y-942D01*
X-7993Y-934D01*
X-7997Y-923D01*
X-7997Y-915D01*
X-7993Y-904D01*
X-7989Y-900D01*
X-7918Y-825D02*
X-7918Y-870D01*
X-7918Y-848D02*
X-7997Y-848D01*
X-7985Y-855D01*
X-7978Y-863D01*
X-7974Y-870D01*
X-7997Y-776D02*
X-7997Y-769D01*
X-7993Y-761D01*
X-7989Y-757D01*
X-7981Y-754D01*
X-7966Y-750D01*
X-7948Y-750D01*
X-7933Y-754D01*
X-7925Y-757D01*
X-7921Y-761D01*
X-7918Y-769D01*
X-7918Y-776D01*
X-7921Y-784D01*
X-7925Y-787D01*
X-7933Y-791D01*
X-7948Y-795D01*
X-7966Y-795D01*
X-7981Y-791D01*
X-7989Y-787D01*
X-7993Y-784D01*
X-7997Y-776D01*
X-9475Y-7313D02*
X-9471Y-7316D01*
X-9468Y-7328D01*
X-9468Y-7335D01*
X-9471Y-7347D01*
X-9479Y-7354D01*
X-9486Y-7358D01*
X-9501Y-7362D01*
X-9513Y-7362D01*
X-9528Y-7358D01*
X-9535Y-7354D01*
X-9543Y-7347D01*
X-9547Y-7335D01*
X-9547Y-7328D01*
X-9543Y-7316D01*
X-9539Y-7313D01*
X-9547Y-7241D02*
X-9547Y-7279D01*
X-9509Y-7283D01*
X-9513Y-7279D01*
X-9516Y-7271D01*
X-9516Y-7252D01*
X-9513Y-7245D01*
X-9509Y-7241D01*
X-9501Y-7237D01*
X-9483Y-7237D01*
X-9475Y-7241D01*
X-9471Y-7245D01*
X-9468Y-7252D01*
X-9468Y-7271D01*
X-9471Y-7279D01*
X-9475Y-7283D01*
X-2250Y-2824D02*
X-2254Y-2828D01*
X-2265Y-2831D01*
X-2273Y-2831D01*
X-2284Y-2828D01*
X-2292Y-2820D01*
X-2295Y-2813D01*
X-2299Y-2798D01*
X-2299Y-2786D01*
X-2295Y-2771D01*
X-2292Y-2764D01*
X-2284Y-2756D01*
X-2273Y-2752D01*
X-2265Y-2752D01*
X-2254Y-2756D01*
X-2250Y-2760D01*
X-2224Y-2752D02*
X-2175Y-2752D01*
X-2201Y-2783D01*
X-2190Y-2783D01*
X-2183Y-2786D01*
X-2179Y-2790D01*
X-2175Y-2798D01*
X-2175Y-2816D01*
X-2179Y-2824D01*
X-2183Y-2828D01*
X-2190Y-2831D01*
X-2213Y-2831D01*
X-2220Y-2828D01*
X-2224Y-2824D01*
X-2100Y-2831D02*
X-2145Y-2831D01*
X-2122Y-2831D02*
X-2122Y-2752D01*
X-2130Y-2764D01*
X-2137Y-2771D01*
X-2145Y-2775D01*
X-13025Y-10550D02*
X-13021Y-10554D01*
X-13018Y-10565D01*
X-13018Y-10573D01*
X-13021Y-10584D01*
X-13029Y-10592D01*
X-13036Y-10595D01*
X-13051Y-10599D01*
X-13063Y-10599D01*
X-13078Y-10595D01*
X-13085Y-10592D01*
X-13093Y-10584D01*
X-13097Y-10573D01*
X-13097Y-10565D01*
X-13093Y-10554D01*
X-13089Y-10550D01*
X-13018Y-10475D02*
X-13018Y-10520D01*
X-13018Y-10498D02*
X-13097Y-10498D01*
X-13085Y-10505D01*
X-13078Y-10513D01*
X-13074Y-10520D01*
X-13097Y-10404D02*
X-13097Y-10441D01*
X-13059Y-10445D01*
X-13063Y-10441D01*
X-13066Y-10434D01*
X-13066Y-10415D01*
X-13063Y-10407D01*
X-13059Y-10404D01*
X-13051Y-10400D01*
X-13033Y-10400D01*
X-13025Y-10404D01*
X-13021Y-10407D01*
X-13018Y-10415D01*
X-13018Y-10434D01*
X-13021Y-10441D01*
X-13025Y-10445D01*
X-6450Y-14188D02*
X-6446Y-14191D01*
X-6443Y-14203D01*
X-6443Y-14210D01*
X-6446Y-14222D01*
X-6454Y-14229D01*
X-6461Y-14233D01*
X-6476Y-14237D01*
X-6488Y-14237D01*
X-6503Y-14233D01*
X-6510Y-14229D01*
X-6518Y-14222D01*
X-6522Y-14210D01*
X-6522Y-14203D01*
X-6518Y-14191D01*
X-6514Y-14188D01*
X-6443Y-14112D02*
X-6443Y-14158D01*
X-6443Y-14135D02*
X-6522Y-14135D01*
X-6510Y-14143D01*
X-6503Y-14150D01*
X-6499Y-14158D01*
X-7100Y-8324D02*
X-7104Y-8328D01*
X-7115Y-8331D01*
X-7123Y-8331D01*
X-7134Y-8328D01*
X-7142Y-8320D01*
X-7145Y-8313D01*
X-7149Y-8298D01*
X-7149Y-8286D01*
X-7145Y-8271D01*
X-7142Y-8264D01*
X-7134Y-8256D01*
X-7123Y-8252D01*
X-7115Y-8252D01*
X-7104Y-8256D01*
X-7100Y-8260D01*
X-7025Y-8331D02*
X-7070Y-8331D01*
X-7048Y-8331D02*
X-7048Y-8252D01*
X-7055Y-8264D01*
X-7063Y-8271D01*
X-7070Y-8275D01*
X-6950Y-8331D02*
X-6995Y-8331D01*
X-6972Y-8331D02*
X-6972Y-8252D01*
X-6980Y-8264D01*
X-6987Y-8271D01*
X-6995Y-8275D01*
X-9213Y-15174D02*
X-9216Y-15178D01*
X-9228Y-15181D01*
X-9235Y-15181D01*
X-9247Y-15178D01*
X-9254Y-15170D01*
X-9258Y-15163D01*
X-9262Y-15148D01*
X-9262Y-15136D01*
X-9258Y-15121D01*
X-9254Y-15114D01*
X-9247Y-15106D01*
X-9235Y-15102D01*
X-9228Y-15102D01*
X-9216Y-15106D01*
X-9213Y-15110D01*
X-9145Y-15102D02*
X-9160Y-15102D01*
X-9168Y-15106D01*
X-9171Y-15110D01*
X-9179Y-15121D01*
X-9183Y-15136D01*
X-9183Y-15166D01*
X-9179Y-15174D01*
X-9175Y-15178D01*
X-9168Y-15181D01*
X-9152Y-15181D01*
X-9145Y-15178D01*
X-9141Y-15174D01*
X-9137Y-15166D01*
X-9137Y-15148D01*
X-9141Y-15140D01*
X-9145Y-15136D01*
X-9152Y-15133D01*
X-9168Y-15133D01*
X-9175Y-15136D01*
X-9179Y-15140D01*
X-9183Y-15148D01*
X-8200Y-7824D02*
X-8204Y-7828D01*
X-8215Y-7831D01*
X-8223Y-7831D01*
X-8234Y-7828D01*
X-8242Y-7820D01*
X-8245Y-7813D01*
X-8249Y-7798D01*
X-8249Y-7786D01*
X-8245Y-7771D01*
X-8242Y-7764D01*
X-8234Y-7756D01*
X-8223Y-7752D01*
X-8215Y-7752D01*
X-8204Y-7756D01*
X-8200Y-7760D01*
X-8125Y-7831D02*
X-8170Y-7831D01*
X-8148Y-7831D02*
X-8148Y-7752D01*
X-8155Y-7764D01*
X-8163Y-7771D01*
X-8170Y-7775D01*
X-8095Y-7760D02*
X-8091Y-7756D01*
X-8084Y-7752D01*
X-8065Y-7752D01*
X-8057Y-7756D01*
X-8054Y-7760D01*
X-8050Y-7768D01*
X-8050Y-7775D01*
X-8054Y-7786D01*
X-8099Y-7831D01*
X-8050Y-7831D01*
X-19925Y-15274D02*
X-19929Y-15278D01*
X-19940Y-15281D01*
X-19948Y-15281D01*
X-19959Y-15278D01*
X-19967Y-15270D01*
X-19970Y-15263D01*
X-19974Y-15248D01*
X-19974Y-15236D01*
X-19970Y-15221D01*
X-19967Y-15214D01*
X-19959Y-15206D01*
X-19948Y-15202D01*
X-19940Y-15202D01*
X-19929Y-15206D01*
X-19925Y-15210D01*
X-19899Y-15202D02*
X-19850Y-15202D01*
X-19876Y-15233D01*
X-19865Y-15233D01*
X-19858Y-15236D01*
X-19854Y-15240D01*
X-19850Y-15248D01*
X-19850Y-15266D01*
X-19854Y-15274D01*
X-19858Y-15278D01*
X-19865Y-15281D01*
X-19888Y-15281D01*
X-19895Y-15278D01*
X-19899Y-15274D01*
X-19779Y-15202D02*
X-19816Y-15202D01*
X-19820Y-15240D01*
X-19816Y-15236D01*
X-19809Y-15233D01*
X-19790Y-15233D01*
X-19782Y-15236D01*
X-19779Y-15240D01*
X-19775Y-15248D01*
X-19775Y-15266D01*
X-19779Y-15274D01*
X-19782Y-15278D01*
X-19790Y-15281D01*
X-19809Y-15281D01*
X-19816Y-15278D01*
X-19820Y-15274D01*
X-22875Y-14000D02*
X-22871Y-14004D01*
X-22868Y-14015D01*
X-22868Y-14023D01*
X-22871Y-14034D01*
X-22879Y-14042D01*
X-22886Y-14045D01*
X-22901Y-14049D01*
X-22913Y-14049D01*
X-22928Y-14045D01*
X-22935Y-14042D01*
X-22943Y-14034D01*
X-22947Y-14023D01*
X-22947Y-14015D01*
X-22943Y-14004D01*
X-22939Y-14000D01*
X-22947Y-13974D02*
X-22947Y-13925D01*
X-22916Y-13951D01*
X-22916Y-13940D01*
X-22913Y-13933D01*
X-22909Y-13929D01*
X-22901Y-13925D01*
X-22883Y-13925D01*
X-22875Y-13929D01*
X-22871Y-13933D01*
X-22868Y-13940D01*
X-22868Y-13963D01*
X-22871Y-13970D01*
X-22875Y-13974D01*
X-22920Y-13857D02*
X-22868Y-13857D01*
X-22950Y-13876D02*
X-22894Y-13895D01*
X-22894Y-13846D01*
X-2250Y-5024D02*
X-2254Y-5028D01*
X-2265Y-5031D01*
X-2273Y-5031D01*
X-2284Y-5028D01*
X-2292Y-5020D01*
X-2295Y-5013D01*
X-2299Y-4998D01*
X-2299Y-4986D01*
X-2295Y-4971D01*
X-2292Y-4964D01*
X-2284Y-4956D01*
X-2273Y-4952D01*
X-2265Y-4952D01*
X-2254Y-4956D01*
X-2250Y-4960D01*
X-2220Y-4960D02*
X-2216Y-4956D01*
X-2209Y-4952D01*
X-2190Y-4952D01*
X-2183Y-4956D01*
X-2179Y-4960D01*
X-2175Y-4968D01*
X-2175Y-4975D01*
X-2179Y-4986D01*
X-2224Y-5031D01*
X-2175Y-5031D01*
X-2137Y-5031D02*
X-2122Y-5031D01*
X-2115Y-5028D01*
X-2111Y-5024D01*
X-2104Y-5013D01*
X-2100Y-4998D01*
X-2100Y-4968D01*
X-2104Y-4960D01*
X-2107Y-4956D01*
X-2115Y-4952D01*
X-2130Y-4952D01*
X-2137Y-4956D01*
X-2141Y-4960D01*
X-2145Y-4968D01*
X-2145Y-4986D01*
X-2141Y-4994D01*
X-2137Y-4998D01*
X-2130Y-5001D01*
X-2115Y-5001D01*
X-2107Y-4998D01*
X-2104Y-4994D01*
X-2100Y-4986D01*
X-19875Y-14050D02*
X-19871Y-14054D01*
X-19868Y-14065D01*
X-19868Y-14073D01*
X-19871Y-14084D01*
X-19879Y-14092D01*
X-19886Y-14095D01*
X-19901Y-14099D01*
X-19913Y-14099D01*
X-19928Y-14095D01*
X-19935Y-14092D01*
X-19943Y-14084D01*
X-19947Y-14073D01*
X-19947Y-14065D01*
X-19943Y-14054D01*
X-19939Y-14050D01*
X-19947Y-14024D02*
X-19947Y-13975D01*
X-19916Y-14001D01*
X-19916Y-13990D01*
X-19913Y-13983D01*
X-19909Y-13979D01*
X-19901Y-13975D01*
X-19883Y-13975D01*
X-19875Y-13979D01*
X-19871Y-13983D01*
X-19868Y-13990D01*
X-19868Y-14013D01*
X-19871Y-14020D01*
X-19875Y-14024D01*
X-19947Y-13949D02*
X-19947Y-13900D01*
X-19916Y-13926D01*
X-19916Y-13915D01*
X-19913Y-13907D01*
X-19909Y-13904D01*
X-19901Y-13900D01*
X-19883Y-13900D01*
X-19875Y-13904D01*
X-19871Y-13907D01*
X-19868Y-13915D01*
X-19868Y-13937D01*
X-19871Y-13945D01*
X-19875Y-13949D01*
X-10400Y-14974D02*
X-10404Y-14978D01*
X-10415Y-14981D01*
X-10423Y-14981D01*
X-10434Y-14978D01*
X-10442Y-14970D01*
X-10445Y-14963D01*
X-10449Y-14948D01*
X-10449Y-14936D01*
X-10445Y-14921D01*
X-10442Y-14914D01*
X-10434Y-14906D01*
X-10423Y-14902D01*
X-10415Y-14902D01*
X-10404Y-14906D01*
X-10400Y-14910D01*
X-10325Y-14981D02*
X-10370Y-14981D01*
X-10348Y-14981D02*
X-10348Y-14902D01*
X-10355Y-14914D01*
X-10363Y-14921D01*
X-10370Y-14925D01*
X-10257Y-14902D02*
X-10272Y-14902D01*
X-10280Y-14906D01*
X-10284Y-14910D01*
X-10291Y-14921D01*
X-10295Y-14936D01*
X-10295Y-14966D01*
X-10291Y-14974D01*
X-10287Y-14978D01*
X-10280Y-14981D01*
X-10265Y-14981D01*
X-10257Y-14978D01*
X-10254Y-14974D01*
X-10250Y-14966D01*
X-10250Y-14948D01*
X-10254Y-14940D01*
X-10257Y-14936D01*
X-10265Y-14933D01*
X-10280Y-14933D01*
X-10287Y-14936D01*
X-10291Y-14940D01*
X-10295Y-14948D01*
X-11150Y-14400D02*
X-11146Y-14404D01*
X-11143Y-14415D01*
X-11143Y-14423D01*
X-11146Y-14434D01*
X-11154Y-14442D01*
X-11161Y-14445D01*
X-11176Y-14449D01*
X-11188Y-14449D01*
X-11203Y-14445D01*
X-11210Y-14442D01*
X-11218Y-14434D01*
X-11222Y-14423D01*
X-11222Y-14415D01*
X-11218Y-14404D01*
X-11214Y-14400D01*
X-11143Y-14325D02*
X-11143Y-14370D01*
X-11143Y-14348D02*
X-11222Y-14348D01*
X-11210Y-14355D01*
X-11203Y-14363D01*
X-11199Y-14370D01*
X-11222Y-14299D02*
X-11222Y-14246D01*
X-11143Y-14280D01*
X-2250Y-3374D02*
X-2254Y-3378D01*
X-2265Y-3381D01*
X-2273Y-3381D01*
X-2284Y-3378D01*
X-2292Y-3370D01*
X-2295Y-3363D01*
X-2299Y-3348D01*
X-2299Y-3336D01*
X-2295Y-3321D01*
X-2292Y-3314D01*
X-2284Y-3306D01*
X-2273Y-3302D01*
X-2265Y-3302D01*
X-2254Y-3306D01*
X-2250Y-3310D01*
X-2224Y-3302D02*
X-2175Y-3302D01*
X-2201Y-3333D01*
X-2190Y-3333D01*
X-2183Y-3336D01*
X-2179Y-3340D01*
X-2175Y-3348D01*
X-2175Y-3366D01*
X-2179Y-3374D01*
X-2183Y-3378D01*
X-2190Y-3381D01*
X-2213Y-3381D01*
X-2220Y-3378D01*
X-2224Y-3374D01*
X-2126Y-3302D02*
X-2119Y-3302D01*
X-2111Y-3306D01*
X-2107Y-3310D01*
X-2104Y-3318D01*
X-2100Y-3333D01*
X-2100Y-3351D01*
X-2104Y-3366D01*
X-2107Y-3374D01*
X-2111Y-3378D01*
X-2119Y-3381D01*
X-2126Y-3381D01*
X-2134Y-3378D01*
X-2137Y-3374D01*
X-2141Y-3366D01*
X-2145Y-3351D01*
X-2145Y-3333D01*
X-2141Y-3318D01*
X-2137Y-3310D01*
X-2134Y-3306D01*
X-2126Y-3302D01*
X-10200Y-7688D02*
X-10196Y-7691D01*
X-10193Y-7703D01*
X-10193Y-7710D01*
X-10196Y-7722D01*
X-10204Y-7729D01*
X-10211Y-7733D01*
X-10226Y-7737D01*
X-10238Y-7737D01*
X-10253Y-7733D01*
X-10260Y-7729D01*
X-10268Y-7722D01*
X-10272Y-7710D01*
X-10272Y-7703D01*
X-10268Y-7691D01*
X-10264Y-7688D01*
X-10238Y-7643D02*
X-10241Y-7650D01*
X-10245Y-7654D01*
X-10253Y-7658D01*
X-10256Y-7658D01*
X-10264Y-7654D01*
X-10268Y-7650D01*
X-10272Y-7643D01*
X-10272Y-7627D01*
X-10268Y-7620D01*
X-10264Y-7616D01*
X-10256Y-7612D01*
X-10253Y-7612D01*
X-10245Y-7616D01*
X-10241Y-7620D01*
X-10238Y-7627D01*
X-10238Y-7643D01*
X-10234Y-7650D01*
X-10230Y-7654D01*
X-10223Y-7658D01*
X-10208Y-7658D01*
X-10200Y-7654D01*
X-10196Y-7650D01*
X-10193Y-7643D01*
X-10193Y-7627D01*
X-10196Y-7620D01*
X-10200Y-7616D01*
X-10208Y-7612D01*
X-10223Y-7612D01*
X-10230Y-7616D01*
X-10234Y-7620D01*
X-10238Y-7627D01*
X-3750Y-14188D02*
X-3746Y-14191D01*
X-3743Y-14203D01*
X-3743Y-14210D01*
X-3746Y-14222D01*
X-3754Y-14229D01*
X-3761Y-14233D01*
X-3776Y-14237D01*
X-3788Y-14237D01*
X-3803Y-14233D01*
X-3810Y-14229D01*
X-3818Y-14222D01*
X-3822Y-14210D01*
X-3822Y-14203D01*
X-3818Y-14191D01*
X-3814Y-14188D01*
X-3814Y-14158D02*
X-3818Y-14154D01*
X-3822Y-14146D01*
X-3822Y-14127D01*
X-3818Y-14120D01*
X-3814Y-14116D01*
X-3806Y-14112D01*
X-3799Y-14112D01*
X-3788Y-14116D01*
X-3743Y-14161D01*
X-3743Y-14112D01*
X-2250Y-14441D02*
X-2277Y-14404D01*
X-2295Y-14441D02*
X-2295Y-14362D01*
X-2265Y-14362D01*
X-2258Y-14366D01*
X-2254Y-14370D01*
X-2250Y-14378D01*
X-2250Y-14389D01*
X-2254Y-14396D01*
X-2258Y-14400D01*
X-2265Y-14404D01*
X-2295Y-14404D01*
X-2175Y-14441D02*
X-2220Y-14441D01*
X-2198Y-14441D02*
X-2198Y-14362D01*
X-2205Y-14374D01*
X-2213Y-14381D01*
X-2220Y-14385D01*
X-2126Y-14362D02*
X-2119Y-14362D01*
X-2111Y-14366D01*
X-2107Y-14370D01*
X-2104Y-14378D01*
X-2100Y-14393D01*
X-2100Y-14411D01*
X-2104Y-14426D01*
X-2107Y-14434D01*
X-2111Y-14438D01*
X-2119Y-14441D01*
X-2126Y-14441D01*
X-2134Y-14438D01*
X-2137Y-14434D01*
X-2141Y-14426D01*
X-2145Y-14411D01*
X-2145Y-14393D01*
X-2141Y-14378D01*
X-2137Y-14370D01*
X-2134Y-14366D01*
X-2126Y-14362D01*
X-2250Y-3441D02*
X-2277Y-3404D01*
X-2295Y-3441D02*
X-2295Y-3362D01*
X-2265Y-3362D01*
X-2258Y-3366D01*
X-2254Y-3370D01*
X-2250Y-3378D01*
X-2250Y-3389D01*
X-2254Y-3396D01*
X-2258Y-3400D01*
X-2265Y-3404D01*
X-2295Y-3404D01*
X-2220Y-3370D02*
X-2216Y-3366D01*
X-2209Y-3362D01*
X-2190Y-3362D01*
X-2183Y-3366D01*
X-2179Y-3370D01*
X-2175Y-3378D01*
X-2175Y-3385D01*
X-2179Y-3396D01*
X-2224Y-3441D01*
X-2175Y-3441D01*
X-2100Y-3441D02*
X-2145Y-3441D01*
X-2122Y-3441D02*
X-2122Y-3362D01*
X-2130Y-3374D01*
X-2137Y-3381D01*
X-2145Y-3385D01*
X-2250Y-10591D02*
X-2277Y-10554D01*
X-2295Y-10591D02*
X-2295Y-10512D01*
X-2265Y-10512D01*
X-2258Y-10516D01*
X-2254Y-10520D01*
X-2250Y-10528D01*
X-2250Y-10539D01*
X-2254Y-10546D01*
X-2258Y-10550D01*
X-2265Y-10554D01*
X-2295Y-10554D01*
X-2175Y-10591D02*
X-2220Y-10591D01*
X-2198Y-10591D02*
X-2198Y-10512D01*
X-2205Y-10524D01*
X-2213Y-10531D01*
X-2220Y-10535D01*
X-2107Y-10539D02*
X-2107Y-10591D01*
X-2126Y-10509D02*
X-2145Y-10565D01*
X-2096Y-10565D01*
X-2250Y-3991D02*
X-2277Y-3954D01*
X-2295Y-3991D02*
X-2295Y-3912D01*
X-2265Y-3912D01*
X-2258Y-3916D01*
X-2254Y-3920D01*
X-2250Y-3928D01*
X-2250Y-3939D01*
X-2254Y-3946D01*
X-2258Y-3950D01*
X-2265Y-3954D01*
X-2295Y-3954D01*
X-2220Y-3920D02*
X-2216Y-3916D01*
X-2209Y-3912D01*
X-2190Y-3912D01*
X-2183Y-3916D01*
X-2179Y-3920D01*
X-2175Y-3928D01*
X-2175Y-3935D01*
X-2179Y-3946D01*
X-2224Y-3991D01*
X-2175Y-3991D01*
X-2126Y-3912D02*
X-2119Y-3912D01*
X-2111Y-3916D01*
X-2107Y-3920D01*
X-2104Y-3928D01*
X-2100Y-3943D01*
X-2100Y-3961D01*
X-2104Y-3976D01*
X-2107Y-3984D01*
X-2111Y-3988D01*
X-2119Y-3991D01*
X-2126Y-3991D01*
X-2134Y-3988D01*
X-2137Y-3984D01*
X-2141Y-3976D01*
X-2145Y-3961D01*
X-2145Y-3943D01*
X-2141Y-3928D01*
X-2137Y-3920D01*
X-2134Y-3916D01*
X-2126Y-3912D01*
X-2250Y-5641D02*
X-2277Y-5604D01*
X-2295Y-5641D02*
X-2295Y-5562D01*
X-2265Y-5562D01*
X-2258Y-5566D01*
X-2254Y-5570D01*
X-2250Y-5578D01*
X-2250Y-5589D01*
X-2254Y-5596D01*
X-2258Y-5600D01*
X-2265Y-5604D01*
X-2295Y-5604D01*
X-2175Y-5641D02*
X-2220Y-5641D01*
X-2198Y-5641D02*
X-2198Y-5562D01*
X-2205Y-5574D01*
X-2213Y-5581D01*
X-2220Y-5585D01*
X-2137Y-5641D02*
X-2122Y-5641D01*
X-2115Y-5638D01*
X-2111Y-5634D01*
X-2104Y-5623D01*
X-2100Y-5608D01*
X-2100Y-5578D01*
X-2104Y-5570D01*
X-2107Y-5566D01*
X-2115Y-5562D01*
X-2130Y-5562D01*
X-2137Y-5566D01*
X-2141Y-5570D01*
X-2145Y-5578D01*
X-2145Y-5596D01*
X-2141Y-5604D01*
X-2137Y-5608D01*
X-2130Y-5611D01*
X-2115Y-5611D01*
X-2107Y-5608D01*
X-2104Y-5604D01*
X-2100Y-5596D01*
X-2250Y-6191D02*
X-2277Y-6154D01*
X-2295Y-6191D02*
X-2295Y-6112D01*
X-2265Y-6112D01*
X-2258Y-6116D01*
X-2254Y-6120D01*
X-2250Y-6128D01*
X-2250Y-6139D01*
X-2254Y-6146D01*
X-2258Y-6150D01*
X-2265Y-6154D01*
X-2295Y-6154D01*
X-2175Y-6191D02*
X-2220Y-6191D01*
X-2198Y-6191D02*
X-2198Y-6112D01*
X-2205Y-6124D01*
X-2213Y-6131D01*
X-2220Y-6135D01*
X-2130Y-6146D02*
X-2137Y-6143D01*
X-2141Y-6139D01*
X-2145Y-6131D01*
X-2145Y-6128D01*
X-2141Y-6120D01*
X-2137Y-6116D01*
X-2130Y-6112D01*
X-2115Y-6112D01*
X-2107Y-6116D01*
X-2104Y-6120D01*
X-2100Y-6128D01*
X-2100Y-6131D01*
X-2104Y-6139D01*
X-2107Y-6143D01*
X-2115Y-6146D01*
X-2130Y-6146D01*
X-2137Y-6150D01*
X-2141Y-6154D01*
X-2145Y-6161D01*
X-2145Y-6176D01*
X-2141Y-6184D01*
X-2137Y-6188D01*
X-2130Y-6191D01*
X-2115Y-6191D01*
X-2107Y-6188D01*
X-2104Y-6184D01*
X-2100Y-6176D01*
X-2100Y-6161D01*
X-2104Y-6154D01*
X-2107Y-6150D01*
X-2115Y-6146D01*
X-2250Y-7291D02*
X-2277Y-7254D01*
X-2295Y-7291D02*
X-2295Y-7212D01*
X-2265Y-7212D01*
X-2258Y-7216D01*
X-2254Y-7220D01*
X-2250Y-7228D01*
X-2250Y-7239D01*
X-2254Y-7246D01*
X-2258Y-7250D01*
X-2265Y-7254D01*
X-2295Y-7254D01*
X-2175Y-7291D02*
X-2220Y-7291D01*
X-2198Y-7291D02*
X-2198Y-7212D01*
X-2205Y-7224D01*
X-2213Y-7231D01*
X-2220Y-7235D01*
X-2149Y-7212D02*
X-2096Y-7212D01*
X-2130Y-7291D01*
X-2250Y-8391D02*
X-2277Y-8354D01*
X-2295Y-8391D02*
X-2295Y-8312D01*
X-2265Y-8312D01*
X-2258Y-8316D01*
X-2254Y-8320D01*
X-2250Y-8328D01*
X-2250Y-8339D01*
X-2254Y-8346D01*
X-2258Y-8350D01*
X-2265Y-8354D01*
X-2295Y-8354D01*
X-2175Y-8391D02*
X-2220Y-8391D01*
X-2198Y-8391D02*
X-2198Y-8312D01*
X-2205Y-8324D01*
X-2213Y-8331D01*
X-2220Y-8335D01*
X-2107Y-8312D02*
X-2122Y-8312D01*
X-2130Y-8316D01*
X-2134Y-8320D01*
X-2141Y-8331D01*
X-2145Y-8346D01*
X-2145Y-8376D01*
X-2141Y-8384D01*
X-2137Y-8388D01*
X-2130Y-8391D01*
X-2115Y-8391D01*
X-2107Y-8388D01*
X-2104Y-8384D01*
X-2100Y-8376D01*
X-2100Y-8358D01*
X-2104Y-8350D01*
X-2107Y-8346D01*
X-2115Y-8343D01*
X-2130Y-8343D01*
X-2137Y-8346D01*
X-2141Y-8350D01*
X-2145Y-8358D01*
X-2250Y-9491D02*
X-2277Y-9454D01*
X-2295Y-9491D02*
X-2295Y-9412D01*
X-2265Y-9412D01*
X-2258Y-9416D01*
X-2254Y-9420D01*
X-2250Y-9428D01*
X-2250Y-9439D01*
X-2254Y-9446D01*
X-2258Y-9450D01*
X-2265Y-9454D01*
X-2295Y-9454D01*
X-2175Y-9491D02*
X-2220Y-9491D01*
X-2198Y-9491D02*
X-2198Y-9412D01*
X-2205Y-9424D01*
X-2213Y-9431D01*
X-2220Y-9435D01*
X-2104Y-9412D02*
X-2141Y-9412D01*
X-2145Y-9450D01*
X-2141Y-9446D01*
X-2134Y-9443D01*
X-2115Y-9443D01*
X-2107Y-9446D01*
X-2104Y-9450D01*
X-2100Y-9458D01*
X-2100Y-9476D01*
X-2104Y-9484D01*
X-2107Y-9488D01*
X-2115Y-9491D01*
X-2134Y-9491D01*
X-2141Y-9488D01*
X-2145Y-9484D01*
X-2250Y-12791D02*
X-2277Y-12754D01*
X-2295Y-12791D02*
X-2295Y-12712D01*
X-2265Y-12712D01*
X-2258Y-12716D01*
X-2254Y-12720D01*
X-2250Y-12728D01*
X-2250Y-12739D01*
X-2254Y-12746D01*
X-2258Y-12750D01*
X-2265Y-12754D01*
X-2295Y-12754D01*
X-2175Y-12791D02*
X-2220Y-12791D01*
X-2198Y-12791D02*
X-2198Y-12712D01*
X-2205Y-12724D01*
X-2213Y-12731D01*
X-2220Y-12735D01*
X-2145Y-12720D02*
X-2141Y-12716D01*
X-2134Y-12712D01*
X-2115Y-12712D01*
X-2107Y-12716D01*
X-2104Y-12720D01*
X-2100Y-12728D01*
X-2100Y-12735D01*
X-2104Y-12746D01*
X-2149Y-12791D01*
X-2100Y-12791D01*
X-2250Y-13891D02*
X-2277Y-13854D01*
X-2295Y-13891D02*
X-2295Y-13812D01*
X-2265Y-13812D01*
X-2258Y-13816D01*
X-2254Y-13820D01*
X-2250Y-13828D01*
X-2250Y-13839D01*
X-2254Y-13846D01*
X-2258Y-13850D01*
X-2265Y-13854D01*
X-2295Y-13854D01*
X-2175Y-13891D02*
X-2220Y-13891D01*
X-2198Y-13891D02*
X-2198Y-13812D01*
X-2205Y-13824D01*
X-2213Y-13831D01*
X-2220Y-13835D01*
X-2100Y-13891D02*
X-2145Y-13891D01*
X-2122Y-13891D02*
X-2122Y-13812D01*
X-2130Y-13824D01*
X-2137Y-13831D01*
X-2145Y-13835D01*
X-2250Y-11691D02*
X-2277Y-11654D01*
X-2295Y-11691D02*
X-2295Y-11612D01*
X-2265Y-11612D01*
X-2258Y-11616D01*
X-2254Y-11620D01*
X-2250Y-11628D01*
X-2250Y-11639D01*
X-2254Y-11646D01*
X-2258Y-11650D01*
X-2265Y-11654D01*
X-2295Y-11654D01*
X-2175Y-11691D02*
X-2220Y-11691D01*
X-2198Y-11691D02*
X-2198Y-11612D01*
X-2205Y-11624D01*
X-2213Y-11631D01*
X-2220Y-11635D01*
X-2149Y-11612D02*
X-2100Y-11612D01*
X-2126Y-11643D01*
X-2115Y-11643D01*
X-2107Y-11646D01*
X-2104Y-11650D01*
X-2100Y-11658D01*
X-2100Y-11676D01*
X-2104Y-11684D01*
X-2107Y-11688D01*
X-2115Y-11691D01*
X-2137Y-11691D01*
X-2145Y-11688D01*
X-2149Y-11684D01*
X-14283Y-13000D02*
X-14320Y-13027D01*
X-14283Y-13045D02*
X-14362Y-13045D01*
X-14362Y-13015D01*
X-14358Y-13008D01*
X-14354Y-13004D01*
X-14346Y-13000D01*
X-14335Y-13000D01*
X-14328Y-13004D01*
X-14324Y-13008D01*
X-14320Y-13015D01*
X-14320Y-13045D01*
X-14354Y-12970D02*
X-14358Y-12966D01*
X-14362Y-12959D01*
X-14362Y-12940D01*
X-14358Y-12933D01*
X-14354Y-12929D01*
X-14346Y-12925D01*
X-14339Y-12925D01*
X-14328Y-12929D01*
X-14283Y-12974D01*
X-14283Y-12925D01*
X-14335Y-12857D02*
X-14283Y-12857D01*
X-14365Y-12876D02*
X-14309Y-12895D01*
X-14309Y-12846D01*
X-15858Y-15663D02*
X-15895Y-15689D01*
X-15858Y-15708D02*
X-15937Y-15708D01*
X-15937Y-15678D01*
X-15933Y-15670D01*
X-15929Y-15666D01*
X-15921Y-15663D01*
X-15910Y-15663D01*
X-15903Y-15666D01*
X-15899Y-15670D01*
X-15895Y-15678D01*
X-15895Y-15708D01*
X-15937Y-15595D02*
X-15937Y-15610D01*
X-15933Y-15618D01*
X-15929Y-15621D01*
X-15918Y-15629D01*
X-15903Y-15633D01*
X-15873Y-15633D01*
X-15865Y-15629D01*
X-15861Y-15625D01*
X-15858Y-15618D01*
X-15858Y-15602D01*
X-15861Y-15595D01*
X-15865Y-15591D01*
X-15873Y-15587D01*
X-15891Y-15587D01*
X-15899Y-15591D01*
X-15903Y-15595D01*
X-15906Y-15602D01*
X-15906Y-15618D01*
X-15903Y-15625D01*
X-15899Y-15629D01*
X-15891Y-15633D01*
X-15208Y-15663D02*
X-15245Y-15689D01*
X-15208Y-15708D02*
X-15287Y-15708D01*
X-15287Y-15678D01*
X-15283Y-15670D01*
X-15279Y-15666D01*
X-15271Y-15663D01*
X-15260Y-15663D01*
X-15253Y-15666D01*
X-15249Y-15670D01*
X-15245Y-15678D01*
X-15245Y-15708D01*
X-15287Y-15591D02*
X-15287Y-15629D01*
X-15249Y-15633D01*
X-15253Y-15629D01*
X-15256Y-15621D01*
X-15256Y-15602D01*
X-15253Y-15595D01*
X-15249Y-15591D01*
X-15241Y-15587D01*
X-15223Y-15587D01*
X-15215Y-15591D01*
X-15211Y-15595D01*
X-15208Y-15602D01*
X-15208Y-15621D01*
X-15211Y-15629D01*
X-15215Y-15633D01*
X-24508Y-13563D02*
X-24545Y-13589D01*
X-24508Y-13608D02*
X-24587Y-13608D01*
X-24587Y-13578D01*
X-24583Y-13570D01*
X-24579Y-13566D01*
X-24571Y-13563D01*
X-24560Y-13563D01*
X-24553Y-13566D01*
X-24549Y-13570D01*
X-24545Y-13578D01*
X-24545Y-13608D01*
X-24560Y-13495D02*
X-24508Y-13495D01*
X-24590Y-13514D02*
X-24534Y-13533D01*
X-24534Y-13484D01*
X-28038Y-13946D02*
X-28064Y-13909D01*
X-28083Y-13946D02*
X-28083Y-13867D01*
X-28053Y-13867D01*
X-28045Y-13871D01*
X-28041Y-13875D01*
X-28038Y-13883D01*
X-28038Y-13894D01*
X-28041Y-13901D01*
X-28045Y-13905D01*
X-28053Y-13909D01*
X-28083Y-13909D01*
X-28008Y-13875D02*
X-28004Y-13871D01*
X-27996Y-13867D01*
X-27977Y-13867D01*
X-27970Y-13871D01*
X-27966Y-13875D01*
X-27962Y-13883D01*
X-27962Y-13890D01*
X-27966Y-13901D01*
X-28011Y-13946D01*
X-27962Y-13946D01*
X-28038Y-13396D02*
X-28064Y-13359D01*
X-28083Y-13396D02*
X-28083Y-13317D01*
X-28053Y-13317D01*
X-28045Y-13321D01*
X-28041Y-13325D01*
X-28038Y-13333D01*
X-28038Y-13344D01*
X-28041Y-13351D01*
X-28045Y-13355D01*
X-28053Y-13359D01*
X-28083Y-13359D01*
X-28011Y-13317D02*
X-27962Y-13317D01*
X-27989Y-13348D01*
X-27977Y-13348D01*
X-27970Y-13351D01*
X-27966Y-13355D01*
X-27962Y-13363D01*
X-27962Y-13381D01*
X-27966Y-13389D01*
X-27970Y-13393D01*
X-27977Y-13396D01*
X-28000Y-13396D01*
X-28008Y-13393D01*
X-28011Y-13389D01*
X-28038Y-14496D02*
X-28064Y-14459D01*
X-28083Y-14496D02*
X-28083Y-14417D01*
X-28053Y-14417D01*
X-28045Y-14421D01*
X-28041Y-14425D01*
X-28038Y-14433D01*
X-28038Y-14444D01*
X-28041Y-14451D01*
X-28045Y-14455D01*
X-28053Y-14459D01*
X-28083Y-14459D01*
X-27962Y-14496D02*
X-28008Y-14496D01*
X-27985Y-14496D02*
X-27985Y-14417D01*
X-27993Y-14429D01*
X-28000Y-14436D01*
X-28008Y-14440D01*
X-13963Y-15621D02*
X-13989Y-15584D01*
X-14008Y-15621D02*
X-14008Y-15542D01*
X-13978Y-15542D01*
X-13970Y-15546D01*
X-13966Y-15550D01*
X-13963Y-15558D01*
X-13963Y-15569D01*
X-13966Y-15576D01*
X-13970Y-15580D01*
X-13978Y-15584D01*
X-14008Y-15584D01*
X-13918Y-15576D02*
X-13925Y-15573D01*
X-13929Y-15569D01*
X-13933Y-15561D01*
X-13933Y-15558D01*
X-13929Y-15550D01*
X-13925Y-15546D01*
X-13918Y-15542D01*
X-13902Y-15542D01*
X-13895Y-15546D01*
X-13891Y-15550D01*
X-13887Y-15558D01*
X-13887Y-15561D01*
X-13891Y-15569D01*
X-13895Y-15573D01*
X-13902Y-15576D01*
X-13918Y-15576D01*
X-13925Y-15580D01*
X-13929Y-15584D01*
X-13933Y-15591D01*
X-13933Y-15606D01*
X-13929Y-15614D01*
X-13925Y-15618D01*
X-13918Y-15621D01*
X-13902Y-15621D01*
X-13895Y-15618D01*
X-13891Y-15614D01*
X-13887Y-15606D01*
X-13887Y-15591D01*
X-13891Y-15584D01*
X-13895Y-15580D01*
X-13902Y-15576D01*
X-13558Y-10513D02*
X-13595Y-10539D01*
X-13558Y-10558D02*
X-13637Y-10558D01*
X-13637Y-10528D01*
X-13633Y-10520D01*
X-13629Y-10516D01*
X-13621Y-10513D01*
X-13610Y-10513D01*
X-13603Y-10516D01*
X-13599Y-10520D01*
X-13595Y-10528D01*
X-13595Y-10558D01*
X-13637Y-10486D02*
X-13637Y-10434D01*
X-13558Y-10468D01*
X-2250Y-1791D02*
X-2277Y-1754D01*
X-2295Y-1791D02*
X-2295Y-1712D01*
X-2265Y-1712D01*
X-2258Y-1716D01*
X-2254Y-1720D01*
X-2250Y-1728D01*
X-2250Y-1739D01*
X-2254Y-1746D01*
X-2258Y-1750D01*
X-2265Y-1754D01*
X-2295Y-1754D01*
X-2220Y-1720D02*
X-2216Y-1716D01*
X-2209Y-1712D01*
X-2190Y-1712D01*
X-2183Y-1716D01*
X-2179Y-1720D01*
X-2175Y-1728D01*
X-2175Y-1735D01*
X-2179Y-1746D01*
X-2224Y-1791D01*
X-2175Y-1791D01*
X-2145Y-1720D02*
X-2141Y-1716D01*
X-2134Y-1712D01*
X-2115Y-1712D01*
X-2107Y-1716D01*
X-2104Y-1720D01*
X-2100Y-1728D01*
X-2100Y-1735D01*
X-2104Y-1746D01*
X-2149Y-1791D01*
X-2100Y-1791D01*
X-12528Y-9350D02*
X-12565Y-9377D01*
X-12528Y-9395D02*
X-12607Y-9395D01*
X-12607Y-9365D01*
X-12603Y-9358D01*
X-12599Y-9354D01*
X-12591Y-9350D01*
X-12580Y-9350D01*
X-12573Y-9354D01*
X-12569Y-9358D01*
X-12565Y-9365D01*
X-12565Y-9395D01*
X-12599Y-9320D02*
X-12603Y-9316D01*
X-12607Y-9309D01*
X-12607Y-9290D01*
X-12603Y-9283D01*
X-12599Y-9279D01*
X-12591Y-9275D01*
X-12584Y-9275D01*
X-12573Y-9279D01*
X-12528Y-9324D01*
X-12528Y-9275D01*
X-12607Y-9249D02*
X-12607Y-9200D01*
X-12576Y-9226D01*
X-12576Y-9215D01*
X-12573Y-9207D01*
X-12569Y-9204D01*
X-12561Y-9200D01*
X-12543Y-9200D01*
X-12535Y-9204D01*
X-12531Y-9207D01*
X-12528Y-9215D01*
X-12528Y-9237D01*
X-12531Y-9245D01*
X-12535Y-9249D01*
X-13183Y-13000D02*
X-13220Y-13027D01*
X-13183Y-13045D02*
X-13262Y-13045D01*
X-13262Y-13015D01*
X-13258Y-13008D01*
X-13254Y-13004D01*
X-13246Y-13000D01*
X-13235Y-13000D01*
X-13228Y-13004D01*
X-13224Y-13008D01*
X-13220Y-13015D01*
X-13220Y-13045D01*
X-13254Y-12970D02*
X-13258Y-12966D01*
X-13262Y-12959D01*
X-13262Y-12940D01*
X-13258Y-12933D01*
X-13254Y-12929D01*
X-13246Y-12925D01*
X-13239Y-12925D01*
X-13228Y-12929D01*
X-13183Y-12974D01*
X-13183Y-12925D01*
X-13262Y-12857D02*
X-13262Y-12872D01*
X-13258Y-12880D01*
X-13254Y-12884D01*
X-13243Y-12891D01*
X-13228Y-12895D01*
X-13198Y-12895D01*
X-13190Y-12891D01*
X-13186Y-12887D01*
X-13183Y-12880D01*
X-13183Y-12865D01*
X-13186Y-12857D01*
X-13190Y-12854D01*
X-13198Y-12850D01*
X-13216Y-12850D01*
X-13224Y-12854D01*
X-13228Y-12857D01*
X-13231Y-12865D01*
X-13231Y-12880D01*
X-13228Y-12887D01*
X-13224Y-12891D01*
X-13216Y-12895D01*
X-13733Y-13000D02*
X-13770Y-13027D01*
X-13733Y-13045D02*
X-13812Y-13045D01*
X-13812Y-13015D01*
X-13808Y-13008D01*
X-13804Y-13004D01*
X-13796Y-13000D01*
X-13785Y-13000D01*
X-13778Y-13004D01*
X-13774Y-13008D01*
X-13770Y-13015D01*
X-13770Y-13045D01*
X-13804Y-12970D02*
X-13808Y-12966D01*
X-13812Y-12959D01*
X-13812Y-12940D01*
X-13808Y-12933D01*
X-13804Y-12929D01*
X-13796Y-12925D01*
X-13789Y-12925D01*
X-13778Y-12929D01*
X-13733Y-12974D01*
X-13733Y-12925D01*
X-13812Y-12854D02*
X-13812Y-12891D01*
X-13774Y-12895D01*
X-13778Y-12891D01*
X-13781Y-12884D01*
X-13781Y-12865D01*
X-13778Y-12857D01*
X-13774Y-12854D01*
X-13766Y-12850D01*
X-13748Y-12850D01*
X-13740Y-12854D01*
X-13736Y-12857D01*
X-13733Y-12865D01*
X-13733Y-12884D01*
X-13736Y-12891D01*
X-13740Y-12895D01*
G54D10*
X-26134Y-3174D02*
X-26115Y-3118D01*
X-26115Y-3024D01*
X-26134Y-2987D01*
X-26153Y-2968D01*
X-26190Y-2949D01*
X-26228Y-2949D01*
X-26265Y-2968D01*
X-26284Y-2987D01*
X-26303Y-3024D01*
X-26321Y-3099D01*
X-26340Y-3137D01*
X-26359Y-3156D01*
X-26396Y-3174D01*
X-26434Y-3174D01*
X-26471Y-3156D01*
X-26490Y-3137D01*
X-26509Y-3099D01*
X-26509Y-3006D01*
X-26490Y-2949D01*
X-26471Y-2800D02*
X-26490Y-2781D01*
X-26509Y-2743D01*
X-26509Y-2650D01*
X-26490Y-2612D01*
X-26471Y-2593D01*
X-26434Y-2575D01*
X-26396Y-2575D01*
X-26340Y-2593D01*
X-26115Y-2818D01*
X-26115Y-2575D01*
G54D21*
X-11575Y-8099D02*
X-11579Y-8103D01*
X-11590Y-8106D01*
X-11598Y-8106D01*
X-11609Y-8103D01*
X-11617Y-8095D01*
X-11620Y-8088D01*
X-11624Y-8073D01*
X-11624Y-8061D01*
X-11620Y-8046D01*
X-11617Y-8039D01*
X-11609Y-8031D01*
X-11598Y-8027D01*
X-11590Y-8027D01*
X-11579Y-8031D01*
X-11575Y-8035D01*
X-11549Y-8027D02*
X-11500Y-8027D01*
X-11526Y-8058D01*
X-11515Y-8058D01*
X-11508Y-8061D01*
X-11504Y-8065D01*
X-11500Y-8073D01*
X-11500Y-8091D01*
X-11504Y-8099D01*
X-11508Y-8103D01*
X-11515Y-8106D01*
X-11538Y-8106D01*
X-11545Y-8103D01*
X-11549Y-8099D01*
X-11462Y-8106D02*
X-11447Y-8106D01*
X-11440Y-8103D01*
X-11436Y-8099D01*
X-11429Y-8088D01*
X-11425Y-8073D01*
X-11425Y-8043D01*
X-11429Y-8035D01*
X-11432Y-8031D01*
X-11440Y-8027D01*
X-11455Y-8027D01*
X-11462Y-8031D01*
X-11466Y-8035D01*
X-11470Y-8043D01*
X-11470Y-8061D01*
X-11466Y-8069D01*
X-11462Y-8073D01*
X-11455Y-8076D01*
X-11440Y-8076D01*
X-11432Y-8073D01*
X-11429Y-8069D01*
X-11425Y-8061D01*
X-11575Y-7549D02*
X-11579Y-7553D01*
X-11590Y-7556D01*
X-11598Y-7556D01*
X-11609Y-7553D01*
X-11617Y-7545D01*
X-11620Y-7538D01*
X-11624Y-7523D01*
X-11624Y-7511D01*
X-11620Y-7496D01*
X-11617Y-7489D01*
X-11609Y-7481D01*
X-11598Y-7477D01*
X-11590Y-7477D01*
X-11579Y-7481D01*
X-11575Y-7485D01*
X-11549Y-7477D02*
X-11500Y-7477D01*
X-11526Y-7508D01*
X-11515Y-7508D01*
X-11508Y-7511D01*
X-11504Y-7515D01*
X-11500Y-7523D01*
X-11500Y-7541D01*
X-11504Y-7549D01*
X-11508Y-7553D01*
X-11515Y-7556D01*
X-11538Y-7556D01*
X-11545Y-7553D01*
X-11549Y-7549D01*
X-11432Y-7477D02*
X-11447Y-7477D01*
X-11455Y-7481D01*
X-11459Y-7485D01*
X-11466Y-7496D01*
X-11470Y-7511D01*
X-11470Y-7541D01*
X-11466Y-7549D01*
X-11462Y-7553D01*
X-11455Y-7556D01*
X-11440Y-7556D01*
X-11432Y-7553D01*
X-11429Y-7549D01*
X-11425Y-7541D01*
X-11425Y-7523D01*
X-11429Y-7515D01*
X-11432Y-7511D01*
X-11440Y-7508D01*
X-11455Y-7508D01*
X-11462Y-7511D01*
X-11466Y-7515D01*
X-11470Y-7523D01*
X-23888Y-2380D02*
X-23925Y-2407D01*
X-23888Y-2425D02*
X-23967Y-2425D01*
X-23967Y-2395D01*
X-23963Y-2388D01*
X-23959Y-2384D01*
X-23951Y-2380D01*
X-23940Y-2380D01*
X-23933Y-2384D01*
X-23929Y-2388D01*
X-23925Y-2395D01*
X-23925Y-2425D01*
X-23959Y-2350D02*
X-23963Y-2346D01*
X-23967Y-2339D01*
X-23967Y-2320D01*
X-23963Y-2313D01*
X-23959Y-2309D01*
X-23951Y-2305D01*
X-23944Y-2305D01*
X-23933Y-2309D01*
X-23888Y-2354D01*
X-23888Y-2305D01*
X-23967Y-2279D02*
X-23967Y-2226D01*
X-23888Y-2260D01*
G54D22*
X-25297Y-2504D02*
X-25533Y-2504D01*
X-25533Y-2447D01*
X-25522Y-2414D01*
X-25499Y-2391D01*
X-25477Y-2380D01*
X-25432Y-2369D01*
X-25398Y-2369D01*
X-25353Y-2380D01*
X-25331Y-2391D01*
X-25308Y-2414D01*
X-25297Y-2447D01*
X-25297Y-2504D01*
X-25297Y-2144D02*
X-25297Y-2279D01*
X-25297Y-2211D02*
X-25533Y-2211D01*
X-25499Y-2234D01*
X-25477Y-2256D01*
X-25466Y-2279D01*
G54D19*
X-5199Y-13998D02*
X-5199Y-14078D01*
X-5195Y-14087D01*
X-5190Y-14092D01*
X-5181Y-14096D01*
X-5162Y-14096D01*
X-5153Y-14092D01*
X-5148Y-14087D01*
X-5143Y-14078D01*
X-5143Y-13998D01*
X-5106Y-13998D02*
X-5045Y-13998D01*
X-5078Y-14036D01*
X-5064Y-14036D01*
X-5055Y-14040D01*
X-5050Y-14045D01*
X-5045Y-14054D01*
X-5045Y-14078D01*
X-5050Y-14087D01*
X-5055Y-14092D01*
X-5064Y-14096D01*
X-5092Y-14096D01*
X-5101Y-14092D01*
X-5106Y-14087D01*
%LPC*%
G54D24*
X-9675Y-1650D03*
X-8925Y-1650D03*
X-9675Y-650D03*
X-9300Y-1650D03*
X-8925Y-650D03*
G54D25*
X-8650Y-2875D03*
X-8650Y-3625D03*
X-7650Y-2875D03*
X-8650Y-3250D03*
X-7650Y-3625D03*
G54D26*
X-30414Y-14882D03*
X-29785Y-14882D03*
X-30414Y-13267D03*
X-29785Y-13267D03*
G54D27*
X-7136Y-12086D03*
X-7136Y-11889D03*
X-7136Y-11692D03*
X-7136Y-11495D03*
X-7136Y-11298D03*
X-7136Y-12676D03*
X-7136Y-12480D03*
X-7136Y-12283D03*
G54D28*
X-7924Y-8936D03*
X-8120Y-8936D03*
X-8317Y-8936D03*
X-8514Y-8936D03*
X-8711Y-8936D03*
X-8908Y-8936D03*
X-9105Y-8936D03*
X-9302Y-8936D03*
G54D27*
X-11664Y-9724D03*
X-11664Y-9920D03*
X-11664Y-10117D03*
X-11664Y-10314D03*
X-11664Y-10511D03*
X-11664Y-10708D03*
X-11664Y-10905D03*
X-11664Y-11102D03*
G54D28*
X-10876Y-13464D03*
X-10680Y-13464D03*
X-10483Y-13464D03*
X-10286Y-13464D03*
X-10089Y-13464D03*
X-9892Y-13464D03*
X-9695Y-13464D03*
X-9498Y-13464D03*
G54D27*
X-7136Y-11102D03*
X-7136Y-10905D03*
X-7136Y-10708D03*
G54D28*
X-9498Y-8936D03*
X-9695Y-8936D03*
X-9892Y-8936D03*
G54D27*
X-11664Y-11298D03*
X-11664Y-11495D03*
X-11664Y-11692D03*
G54D28*
X-9302Y-13464D03*
X-9105Y-13464D03*
X-8908Y-13464D03*
G54D27*
X-7136Y-10511D03*
X-7136Y-10314D03*
X-7136Y-10117D03*
X-7136Y-9920D03*
X-7136Y-9724D03*
G54D28*
X-10089Y-8936D03*
X-10286Y-8936D03*
X-10483Y-8936D03*
X-10680Y-8936D03*
X-10876Y-8936D03*
G54D27*
X-11664Y-11889D03*
X-11664Y-12086D03*
X-11664Y-12283D03*
X-11664Y-12480D03*
X-11664Y-12676D03*
G54D28*
X-8711Y-13464D03*
X-8514Y-13464D03*
X-8317Y-13464D03*
X-8120Y-13464D03*
X-7924Y-13464D03*
G54D29*
X-7575Y-14500D03*
X-8325Y-14500D03*
G54D30*
X-26025Y-12300D03*
G54D31*
X-333Y-5250D03*
X863Y-5250D03*
X863Y-6250D03*
X-333Y-6250D03*
X-333Y-7250D03*
X863Y-7250D03*
X863Y-8250D03*
X-333Y-8250D03*
X-333Y-9250D03*
X863Y-9250D03*
G54D32*
X863Y-11250D03*
G54D31*
X-333Y-11250D03*
X863Y-10250D03*
X-333Y-10250D03*
G54D30*
X-5450Y-4450D03*
G54D33*
X-14200Y-7177D03*
X-14200Y-9322D03*
X-15200Y-7177D03*
X-15200Y-9322D03*
G54D30*
X-12200Y-850D03*
G54D34*
X-22192Y-15298D03*
X-21995Y-15298D03*
X-21798Y-15298D03*
X-21602Y-15298D03*
X-21405Y-15298D03*
X-21208Y-15298D03*
G54D35*
X-20952Y-15042D03*
X-20952Y-14845D03*
X-20952Y-14648D03*
X-20952Y-14452D03*
X-20952Y-14255D03*
X-20952Y-14058D03*
G54D34*
X-21208Y-13802D03*
X-21405Y-13802D03*
X-21602Y-13802D03*
X-21798Y-13802D03*
X-21995Y-13802D03*
X-22192Y-13802D03*
G54D35*
X-22448Y-14058D03*
X-22448Y-14255D03*
X-22448Y-14452D03*
X-22448Y-14648D03*
X-22448Y-14845D03*
X-22448Y-15042D03*
G54D36*
X-10225Y-3684D03*
X-10975Y-3684D03*
X-10600Y-3684D03*
X-10975Y-4516D03*
X-10225Y-4516D03*
G54D37*
X-10300Y-854D03*
X-10300Y-1446D03*
G54D38*
X-7854Y-2150D03*
X-8446Y-2150D03*
G54D30*
X-5425Y-2000D03*
G54D39*
X-10175Y-6300D03*
X-9075Y-6300D03*
G54D37*
X-9000Y-7204D03*
X-9000Y-7796D03*
G54D30*
X-14350Y-4100D03*
X-24900Y-775D03*
G54D40*
X50Y-16500D03*
X-25950Y-17750D03*
X-25950Y1250D03*
X50Y0D03*
G54D41*
X-23950Y-18250D03*
G54D42*
X-23950Y-17250D03*
X-22950Y-18250D03*
X-22950Y-17250D03*
X-21950Y-18250D03*
X-21950Y-17250D03*
X-20950Y-18250D03*
X-20950Y-17250D03*
X-19950Y-18250D03*
X-19950Y-17250D03*
X-18950Y-18250D03*
X-18950Y-17250D03*
X-17950Y-18250D03*
X-17950Y-17250D03*
X-16950Y-18250D03*
X-16950Y-17250D03*
X-15950Y-18250D03*
X-15950Y-17250D03*
X-14950Y-18250D03*
X-14950Y-17250D03*
X-13950Y-18250D03*
X-13950Y-17250D03*
X-12950Y-18250D03*
X-12950Y-17250D03*
X-11950Y-18250D03*
X-11950Y-17250D03*
X-10950Y-18250D03*
X-10950Y-17250D03*
X-9950Y-18250D03*
X-9950Y-17250D03*
X-8950Y-18250D03*
X-8950Y-17250D03*
X-7950Y-18250D03*
X-7950Y-17250D03*
X-6950Y-18250D03*
X-6950Y-17250D03*
X-5950Y-18250D03*
X-5950Y-17250D03*
X-4950Y-18250D03*
X-4950Y-17250D03*
X-3950Y-18250D03*
X-3950Y-17250D03*
X-2950Y-18250D03*
X-2950Y-17250D03*
X-1950Y-18250D03*
X-1950Y-17250D03*
G54D41*
X-23950Y750D03*
G54D42*
X-23950Y1750D03*
X-22950Y750D03*
X-22950Y1750D03*
X-21950Y750D03*
X-21950Y1750D03*
X-20950Y750D03*
X-20950Y1750D03*
X-19950Y750D03*
X-19950Y1750D03*
X-18950Y750D03*
X-18950Y1750D03*
X-17950Y750D03*
X-17950Y1750D03*
X-16950Y750D03*
X-16950Y1750D03*
X-15950Y750D03*
X-15950Y1750D03*
X-14950Y750D03*
X-14950Y1750D03*
X-13950Y750D03*
X-13950Y1750D03*
X-12950Y750D03*
X-12950Y1750D03*
X-11950Y750D03*
X-11950Y1750D03*
X-10950Y750D03*
X-10950Y1750D03*
X-9950Y750D03*
X-9950Y1750D03*
X-8950Y750D03*
X-8950Y1750D03*
X-7950Y750D03*
X-7950Y1750D03*
X-6950Y750D03*
X-6950Y1750D03*
X-5950Y750D03*
X-5950Y1750D03*
X-4950Y750D03*
X-4950Y1750D03*
X-3950Y750D03*
X-3950Y1750D03*
X-2950Y750D03*
X-2950Y1750D03*
X-1950Y750D03*
X-1950Y1750D03*
G54D43*
X-26850Y-13740D03*
X-26850Y-13995D03*
X-26850Y-14255D03*
X-26850Y-14510D03*
X-25100Y-14510D03*
X-25100Y-14255D03*
X-25100Y-13995D03*
X-25100Y-13740D03*
G54D38*
X-8246Y-15250D03*
X-7654Y-15250D03*
X-21404Y-12900D03*
X-21996Y-12900D03*
G54D37*
X-6825Y-2246D03*
X-6825Y-1654D03*
X-8400Y-554D03*
X-8400Y-1146D03*
G54D38*
X-10054Y-14650D03*
X-10646Y-14650D03*
X-7854Y-4200D03*
X-8446Y-4200D03*
G54D37*
X-10850Y-854D03*
X-10850Y-1446D03*
G54D38*
X-9746Y-2200D03*
X-9154Y-2200D03*
G54D37*
X-9250Y-3604D03*
X-9250Y-4196D03*
X-11650Y-4146D03*
X-11650Y-3554D03*
G54D38*
X-10304Y-3150D03*
X-10896Y-3150D03*
X-2496Y-13550D03*
X-1904Y-13550D03*
X-2496Y-12450D03*
X-1904Y-12450D03*
X-2496Y-11350D03*
X-1904Y-11350D03*
X-2496Y-10250D03*
X-1904Y-10250D03*
X-2496Y-8050D03*
X-1904Y-8050D03*
X-2496Y-6950D03*
X-1904Y-6950D03*
X-2496Y-5300D03*
X-1904Y-5300D03*
X-2496Y-9150D03*
X-1904Y-9150D03*
X-9496Y-14350D03*
X-8904Y-14350D03*
X-7346Y-7500D03*
X-6754Y-7500D03*
X-7854Y-7500D03*
X-8446Y-7500D03*
G54D37*
X-7700Y-554D03*
X-7700Y-1146D03*
X-9750Y-7596D03*
X-9750Y-7004D03*
G54D38*
X-2496Y-2550D03*
X-1904Y-2550D03*
G54D37*
X-12800Y-10204D03*
X-12800Y-10796D03*
X-6225Y-13879D03*
X-6225Y-14471D03*
G54D38*
X-7346Y-8050D03*
X-6754Y-8050D03*
X-9496Y-14900D03*
X-8904Y-14900D03*
X-7854Y-8050D03*
X-8446Y-8050D03*
X-20171Y-15000D03*
X-19579Y-15000D03*
G54D37*
X-23150Y-14246D03*
X-23150Y-13654D03*
G54D38*
X-2496Y-4750D03*
X-1904Y-4750D03*
G54D37*
X-20150Y-14296D03*
X-20150Y-13704D03*
G54D38*
X-10054Y-15200D03*
X-10646Y-15200D03*
G54D37*
X-11425Y-14646D03*
X-11425Y-14054D03*
G54D38*
X-2496Y-3100D03*
X-1904Y-3100D03*
G54D37*
X-10475Y-7971D03*
X-10475Y-7379D03*
X-4025Y-14471D03*
X-4025Y-13879D03*
G54D38*
X-1904Y-14650D03*
X-2496Y-14650D03*
X-1904Y-3650D03*
X-2496Y-3650D03*
X-1904Y-10800D03*
X-2496Y-10800D03*
X-1904Y-4200D03*
X-2496Y-4200D03*
X-1904Y-5850D03*
X-2496Y-5850D03*
X-1904Y-6400D03*
X-2496Y-6400D03*
X-1904Y-7500D03*
X-2496Y-7500D03*
X-1904Y-8600D03*
X-2496Y-8600D03*
X-1904Y-9700D03*
X-2496Y-9700D03*
X-1904Y-13000D03*
X-2496Y-13000D03*
X-1904Y-14100D03*
X-2496Y-14100D03*
X-1904Y-11900D03*
X-2496Y-11900D03*
G54D37*
X-14075Y-12654D03*
X-14075Y-13246D03*
X-15650Y-15354D03*
X-15650Y-15946D03*
X-15000Y-15354D03*
X-15000Y-15946D03*
X-24300Y-13254D03*
X-24300Y-13846D03*
G54D38*
X-28321Y-13675D03*
X-27729Y-13675D03*
X-28321Y-13125D03*
X-27729Y-13125D03*
X-28321Y-14225D03*
X-27729Y-14225D03*
X-14246Y-15350D03*
X-13654Y-15350D03*
G54D37*
X-13350Y-10204D03*
X-13350Y-10796D03*
G54D38*
X-1904Y-2000D03*
X-2496Y-2000D03*
G54D37*
X-12800Y-9596D03*
X-12800Y-9004D03*
X-12975Y-12654D03*
X-12975Y-13246D03*
X-13525Y-12654D03*
X-13525Y-13246D03*
G54D44*
X-15120Y-11500D03*
X-14800Y-11500D03*
X-14480Y-11500D03*
X-8127Y-16050D03*
X-7773Y-16050D03*
G54D45*
X-26400Y-15318D03*
X-26400Y-15637D03*
X-24925Y-15318D03*
X-24925Y-15637D03*
G54D46*
X-27100Y-440D03*
X-27100Y-1425D03*
X-27100Y-2409D03*
X-28399Y-440D03*
X-28399Y-1425D03*
X-28399Y-2409D03*
G54D38*
X-11821Y-7825D03*
X-11229Y-7825D03*
X-11821Y-7275D03*
X-11229Y-7275D03*
G54D37*
X-23680Y-2034D03*
X-23680Y-2626D03*
G54D47*
X-24960Y-2625D03*
X-24960Y-2035D03*
G54D48*
X-5509Y-15081D03*
X-5253Y-15081D03*
X-4997Y-15081D03*
X-4741Y-15081D03*
X-4741Y-13269D03*
X-4997Y-13269D03*
X-5253Y-13269D03*
X-5509Y-13269D03*
M02*
