  0
SECTION
  2
HEADER
  9
$ANGBASE
  50
0.0
  9
$ANGDIR
  70
  1
  9
$MEASUREMENT
  70
0
  0
ENDSEC
  0
SECTION
  2
TABLES
  0
TABLE
  2
LTYPE
  70
1
  0
LTYPE
  2
CONTINUOUS
  70
0
  3
Solid line
  72
65
  73
0
  40
0.0
  0
ENDTAB
  0
TABLE
  2
STYLE
  70
4
  0
STYLE
  2
KICAD
  70
0
  40
0
  41
1
  42
1
  50
0
  71
0
  3
isocp.shx
  0
STYLE
  2
KICADB
  70
0
  40
0
  41
1
  42
1
  50
0
  71
0
  3
isocp.shx
  0
STYLE
  2
KICADI
  70
0
  40
0
  41
1
  42
1
  50
15
  71
0
  3
isocp.shx
  0
STYLE
  2
KICADBI
  70
0
  40
0
  41
1
  42
1
  50
15
  71
0
  3
isocp.shx
  0
ENDTAB
  0
TABLE
  2
LAYER
  70
24
  0
LAYER
  2
BLACK
  70
0
  62
250
  6
CONTINUOUS
  0
LAYER
  2
BLUE
  70
0
  62
5
  6
CONTINUOUS
  0
LAYER
  2
GREEN
  70
0
  62
3
  6
CONTINUOUS
  0
LAYER
  2
CYAN
  70
0
  62
4
  6
CONTINUOUS
  0
LAYER
  2
RED
  70
0
  62
1
  6
CONTINUOUS
  0
LAYER
  2
MAGENTA
  70
0
  62
6
  6
CONTINUOUS
  0
LAYER
  2
BROWN
  70
0
  62
54
  6
CONTINUOUS
  0
LAYER
  2
LIGHTGRAY
  70
0
  62
9
  6
CONTINUOUS
  0
LAYER
  2
DARKGRAY
  70
0
  62
8
  6
CONTINUOUS
  0
LAYER
  2
LIGHTBLUE
  70
0
  62
171
  6
CONTINUOUS
  0
LAYER
  2
LIGHTGREEN
  70
0
  62
91
  6
CONTINUOUS
  0
LAYER
  2
LIGHTCYAN
  70
0
  62
131
  6
CONTINUOUS
  0
LAYER
  2
LIGHTRED
  70
0
  62
11
  6
CONTINUOUS
  0
LAYER
  2
LIGHTMAGENTA
  70
0
  62
221
  6
CONTINUOUS
  0
LAYER
  2
YELLOW
  70
0
  62
2
  6
CONTINUOUS
  0
LAYER
  2
WHITE
  70
0
  62
7
  6
CONTINUOUS
  0
LAYER
  2
DARKDARKGRAY
  70
0
  62
251
  6
CONTINUOUS
  0
LAYER
  2
DARKBLUE
  70
0
  62
178
  6
CONTINUOUS
  0
LAYER
  2
DARKGREEN
  70
0
  62
98
  6
CONTINUOUS
  0
LAYER
  2
DARKCYAN
  70
0
  62
138
  6
CONTINUOUS
  0
LAYER
  2
DARKRED
  70
0
  62
18
  6
CONTINUOUS
  0
LAYER
  2
DARKMAGENTA
  70
0
  62
228
  6
CONTINUOUS
  0
LAYER
  2
DARKBROWN
  70
0
  62
58
  6
CONTINUOUS
  0
LAYER
  2
LIGHTYELLOW
  70
0
  62
51
  6
CONTINUOUS
  0
ENDTAB
  0
ENDSEC
  0
SECTION
  2
ENTITIES
0
LINE
8
BLACK
10
-16.1417
20
-31.195
11
-16.1417
21
-29.9021
0
LINE
8
BLACK
10
-16.1417
20
-29.9021
11
-16.6345
21
-29.9021
0
LINE
8
BLACK
10
-16.6345
20
-29.9021
11
-16.6345
21
-31.195
0
LINE
8
BLACK
10
-16.6345
20
-31.195
11
-16.1417
21
-31.195
0
LINE
8
BLACK
10
-17.3431
20
-31.195
11
-17.3431
21
-29.9021
0
LINE
8
BLACK
10
-17.3431
20
-29.9021
11
-17.8359
21
-29.9021
0
LINE
8
BLACK
10
-17.8359
20
-29.9021
11
-17.8359
21
-31.195
0
LINE
8
BLACK
10
-17.8359
20
-31.195
11
-17.3431
21
-31.195
0
LINE
8
BLACK
10
-18.542
20
-31.195
11
-18.542
21
-29.9021
0
LINE
8
BLACK
10
-18.542
20
-29.9021
11
-19.0348
21
-29.9021
0
LINE
8
BLACK
10
-19.0348
20
-29.9021
11
-19.0348
21
-31.195
0
LINE
8
BLACK
10
-19.0348
20
-31.195
11
-18.542
21
-31.195
0
LINE
8
BLACK
10
-19.7409
20
-31.195
11
-19.7409
21
-29.9021
0
LINE
8
BLACK
10
-19.7409
20
-29.9021
11
-20.2336
21
-29.9021
0
LINE
8
BLACK
10
-20.2336
20
-29.9021
11
-20.2336
21
-31.195
0
LINE
8
BLACK
10
-20.2336
20
-31.195
11
-19.7409
21
-31.195
0
LINE
8
BLACK
10
-20.9423
20
-31.195
11
-20.9423
21
-29.9021
0
LINE
8
BLACK
10
-20.9423
20
-29.9021
11
-21.4351
21
-29.9021
0
LINE
8
BLACK
10
-21.4351
20
-29.9021
11
-21.4351
21
-31.195
0
LINE
8
BLACK
10
-21.4351
20
-31.195
11
-20.9423
21
-31.195
0
LINE
8
BLACK
10
-22.1412
20
-31.195
11
-22.1412
21
-29.9021
0
LINE
8
BLACK
10
-22.1412
20
-29.9021
11
-22.6339
21
-29.9021
0
LINE
8
BLACK
10
-22.6339
20
-29.9021
11
-22.6339
21
-31.195
0
LINE
8
BLACK
10
-22.6339
20
-31.195
11
-22.1412
21
-31.195
0
LINE
8
BLACK
10
-23.3401
20
-31.195
11
-23.3401
21
-29.9021
0
LINE
8
BLACK
10
-23.3401
20
-29.9021
11
-23.8328
21
-29.9021
0
LINE
8
BLACK
10
-23.8328
20
-29.9021
11
-23.8328
21
-31.195
0
LINE
8
BLACK
10
-23.8328
20
-31.195
11
-23.3401
21
-31.195
0
LINE
8
BLACK
10
-24.5389
20
-31.195
11
-24.5389
21
-29.9021
0
LINE
8
BLACK
10
-24.5389
20
-29.9021
11
-25.0317
21
-29.9021
0
LINE
8
BLACK
10
-25.0317
20
-29.9021
11
-25.0317
21
-31.195
0
LINE
8
BLACK
10
-25.0317
20
-31.195
11
-24.5389
21
-31.195
0
LINE
8
BLACK
10
-25.7404
20
-31.195
11
-25.7404
21
-29.9021
0
LINE
8
BLACK
10
-25.7404
20
-29.9021
11
-26.2331
21
-29.9021
0
LINE
8
BLACK
10
-26.2331
20
-29.9021
11
-26.2331
21
-31.195
0
LINE
8
BLACK
10
-26.2331
20
-31.195
11
-25.7404
21
-31.195
0
LINE
8
BLACK
10
-26.9392
20
-31.195
11
-26.9392
21
-29.9021
0
LINE
8
BLACK
10
-26.9392
20
-29.9021
11
-27.432
21
-29.9021
0
LINE
8
BLACK
10
-27.432
20
-29.9021
11
-27.432
21
-31.195
0
LINE
8
BLACK
10
-27.432
20
-31.195
11
-26.9392
21
-31.195
0
LINE
8
BLACK
10
-28.1381
20
-31.195
11
-28.1381
21
-29.9021
0
LINE
8
BLACK
10
-28.1381
20
-29.9021
11
-28.6309
21
-29.9021
0
LINE
8
BLACK
10
-28.6309
20
-29.9021
11
-28.6309
21
-31.195
0
LINE
8
BLACK
10
-28.6309
20
-31.195
11
-28.1381
21
-31.195
0
LINE
8
BLACK
10
-29.3395
20
-31.195
11
-29.3395
21
-29.9021
0
LINE
8
BLACK
10
-29.3395
20
-29.9021
11
-29.8323
21
-29.9021
0
LINE
8
BLACK
10
-29.8323
20
-29.9021
11
-29.8323
21
-31.195
0
LINE
8
BLACK
10
-29.8323
20
-31.195
11
-29.3395
21
-31.195
0
LINE
8
BLACK
10
-29.3395
20
-44.3928
11
-29.3395
21
-43.1
0
LINE
8
BLACK
10
-29.3395
20
-43.1
11
-29.8323
21
-43.1
0
LINE
8
BLACK
10
-29.8323
20
-43.1
11
-29.8323
21
-44.3928
0
LINE
8
BLACK
10
-29.8323
20
-44.3928
11
-29.3395
21
-44.3928
0
LINE
8
BLACK
10
-28.1381
20
-44.3928
11
-28.1381
21
-43.1
0
LINE
8
BLACK
10
-28.1381
20
-43.1
11
-28.6309
21
-43.1
0
LINE
8
BLACK
10
-28.6309
20
-43.1
11
-28.6309
21
-44.3928
0
LINE
8
BLACK
10
-28.6309
20
-44.3928
11
-28.1381
21
-44.3928
0
LINE
8
BLACK
10
-26.9392
20
-44.3928
11
-26.9392
21
-43.1
0
LINE
8
BLACK
10
-26.9392
20
-43.1
11
-27.432
21
-43.1
0
LINE
8
BLACK
10
-27.432
20
-43.1
11
-27.432
21
-44.3928
0
LINE
8
BLACK
10
-27.432
20
-44.3928
11
-26.9392
21
-44.3928
0
LINE
8
BLACK
10
-25.7404
20
-44.3928
11
-25.7404
21
-43.1
0
LINE
8
BLACK
10
-25.7404
20
-43.1
11
-26.2331
21
-43.1
0
LINE
8
BLACK
10
-26.2331
20
-43.1
11
-26.2331
21
-44.3928
0
LINE
8
BLACK
10
-26.2331
20
-44.3928
11
-25.7404
21
-44.3928
0
LINE
8
BLACK
10
-24.5389
20
-44.3928
11
-24.5389
21
-43.1
0
LINE
8
BLACK
10
-24.5389
20
-43.1
11
-25.0317
21
-43.1
0
LINE
8
BLACK
10
-25.0317
20
-43.1
11
-25.0317
21
-44.3928
0
LINE
8
BLACK
10
-25.0317
20
-44.3928
11
-24.5389
21
-44.3928
0
LINE
8
BLACK
10
-23.3401
20
-44.3928
11
-23.3401
21
-43.1
0
LINE
8
BLACK
10
-23.3401
20
-43.1
11
-23.8328
21
-43.1
0
LINE
8
BLACK
10
-23.8328
20
-43.1
11
-23.8328
21
-44.3928
0
LINE
8
BLACK
10
-23.8328
20
-44.3928
11
-23.3401
21
-44.3928
0
LINE
8
BLACK
10
-22.1412
20
-44.3928
11
-22.1412
21
-43.1
0
LINE
8
BLACK
10
-22.1412
20
-43.1
11
-22.6339
21
-43.1
0
LINE
8
BLACK
10
-22.6339
20
-43.1
11
-22.6339
21
-44.3928
0
LINE
8
BLACK
10
-22.6339
20
-44.3928
11
-22.1412
21
-44.3928
0
LINE
8
BLACK
10
-20.9423
20
-44.3928
11
-20.9423
21
-43.1
0
LINE
8
BLACK
10
-20.9423
20
-43.1
11
-21.4351
21
-43.1
0
LINE
8
BLACK
10
-21.4351
20
-43.1
11
-21.4351
21
-44.3928
0
LINE
8
BLACK
10
-21.4351
20
-44.3928
11
-20.9423
21
-44.3928
0
LINE
8
BLACK
10
-19.7409
20
-44.3928
11
-19.7409
21
-43.1
0
LINE
8
BLACK
10
-19.7409
20
-43.1
11
-20.2336
21
-43.1
0
LINE
8
BLACK
10
-20.2336
20
-43.1
11
-20.2336
21
-44.3928
0
LINE
8
BLACK
10
-20.2336
20
-44.3928
11
-19.7409
21
-44.3928
0
LINE
8
BLACK
10
-18.542
20
-44.3928
11
-18.542
21
-43.1
0
LINE
8
BLACK
10
-18.542
20
-43.1
11
-19.0348
21
-43.1
0
LINE
8
BLACK
10
-19.0348
20
-43.1
11
-19.0348
21
-44.3928
0
LINE
8
BLACK
10
-19.0348
20
-44.3928
11
-18.542
21
-44.3928
0
LINE
8
BLACK
10
-17.3431
20
-44.3928
11
-17.3431
21
-43.1
0
LINE
8
BLACK
10
-17.3431
20
-43.1
11
-17.8359
21
-43.1
0
LINE
8
BLACK
10
-17.8359
20
-43.1
11
-17.8359
21
-44.3928
0
LINE
8
BLACK
10
-17.8359
20
-44.3928
11
-17.3431
21
-44.3928
0
LINE
8
BLACK
10
-16.1417
20
-44.3928
11
-16.1417
21
-43.1
0
LINE
8
BLACK
10
-16.1417
20
-43.1
11
-16.6345
21
-43.1
0
LINE
8
BLACK
10
-16.6345
20
-43.1
11
-16.6345
21
-44.3928
0
LINE
8
BLACK
10
-16.6345
20
-44.3928
11
-16.1417
21
-44.3928
0
LINE
8
BLACK
10
-12.9426
20
-41.6992
11
-14.2354
21
-41.6992
0
LINE
8
BLACK
10
-14.2354
20
-41.6992
11
-14.2354
21
-42.1919
0
LINE
8
BLACK
10
-14.2354
20
-42.1919
11
-12.9426
21
-42.1919
0
LINE
8
BLACK
10
-12.9426
20
-42.1919
11
-12.9426
21
-41.6992
0
LINE
8
BLACK
10
-12.9426
20
-40.099
11
-14.2354
21
-40.099
0
LINE
8
BLACK
10
-14.2354
20
-40.099
11
-14.2354
21
-40.5917
0
LINE
8
BLACK
10
-14.2354
20
-40.5917
11
-12.9426
21
-40.5917
0
LINE
8
BLACK
10
-12.9426
20
-40.5917
11
-12.9426
21
-40.099
0
LINE
8
BLACK
10
-12.9426
20
-38.4988
11
-14.2354
21
-38.4988
0
LINE
8
BLACK
10
-14.2354
20
-38.4988
11
-14.2354
21
-38.9915
0
LINE
8
BLACK
10
-14.2354
20
-38.9915
11
-12.9426
21
-38.9915
0
LINE
8
BLACK
10
-12.9426
20
-38.9915
11
-12.9426
21
-38.4988
0
LINE
8
BLACK
10
-31.7386
20
-39.9999
11
-33.0314
21
-39.9999
0
LINE
8
BLACK
10
-33.0314
20
-39.9999
11
-33.0314
21
-40.4927
0
LINE
8
BLACK
10
-33.0314
20
-40.4927
11
-31.7386
21
-40.4927
0
LINE
8
BLACK
10
-31.7386
20
-40.4927
11
-31.7386
21
-39.9999
0
LINE
8
BLACK
10
-31.7386
20
-33.8023
11
-33.0314
21
-33.8023
0
LINE
8
BLACK
10
-33.0314
20
-33.8023
11
-33.0314
21
-34.2951
0
LINE
8
BLACK
10
-33.0314
20
-34.2951
11
-31.7386
21
-34.2951
0
LINE
8
BLACK
10
-31.7386
20
-34.2951
11
-31.7386
21
-33.8023
0
LINE
8
BLACK
10
-31.7386
20
-32.7812
11
-33.0314
21
-32.7812
0
LINE
8
BLACK
10
-33.0314
20
-32.7812
11
-33.0314
21
-33.274
0
LINE
8
BLACK
10
-33.0314
20
-33.274
11
-31.7386
21
-33.274
0
LINE
8
BLACK
10
-31.7386
20
-33.274
11
-31.7386
21
-32.7812
0
LINE
8
BLACK
10
-31.7386
20
-35.0012
11
-33.0314
21
-35.0012
0
LINE
8
BLACK
10
-33.0314
20
-35.0012
11
-33.0314
21
-35.494
0
LINE
8
BLACK
10
-33.0314
20
-35.494
11
-31.7386
21
-35.494
0
LINE
8
BLACK
10
-31.7386
20
-35.494
11
-31.7386
21
-35.0012
0
LINE
8
BLACK
10
-31.7386
20
-36.2026
11
-33.0314
21
-36.2026
0
LINE
8
BLACK
10
-33.0314
20
-36.2026
11
-33.0314
21
-36.6954
0
LINE
8
BLACK
10
-33.0314
20
-36.6954
11
-31.7386
21
-36.6954
0
LINE
8
BLACK
10
-31.7386
20
-36.6954
11
-31.7386
21
-36.2026
0
LINE
8
BLACK
10
-31.7386
20
-37.5996
11
-33.0314
21
-37.5996
0
LINE
8
BLACK
10
-33.0314
20
-37.5996
11
-33.0314
21
-38.0924
0
LINE
8
BLACK
10
-33.0314
20
-38.0924
11
-31.7386
21
-38.0924
0
LINE
8
BLACK
10
-31.7386
20
-38.0924
11
-31.7386
21
-37.5996
0
LINE
8
BLACK
10
-31.7386
20
-38.801
11
-33.0314
21
-38.801
0
LINE
8
BLACK
10
-33.0314
20
-38.801
11
-33.0314
21
-39.2938
0
LINE
8
BLACK
10
-33.0314
20
-39.2938
11
-31.7386
21
-39.2938
0
LINE
8
BLACK
10
-31.7386
20
-39.2938
11
-31.7386
21
-38.801
0
LINE
8
BLACK
10
-31.7386
20
-41.021
11
-33.0314
21
-41.021
0
LINE
8
BLACK
10
-33.0314
20
-41.021
11
-33.0314
21
-41.5138
0
LINE
8
BLACK
10
-33.0314
20
-41.5138
11
-31.7386
21
-41.5138
0
LINE
8
BLACK
10
-31.7386
20
-41.5138
11
-31.7386
21
-41.021
0
LINE
8
BLACK
10
-50.7111
20
-41.1226
11
-49.6189
21
-41.1226
0
LINE
8
BLACK
10
-49.6189
20
-41.1226
11
-49.6189
21
-40.5384
0
LINE
8
BLACK
10
-49.6189
20
-40.5384
11
-50.7111
21
-40.5384
0
LINE
8
BLACK
10
-50.7111
20
-40.5384
11
-50.7111
21
-41.1226
0
LINE
8
BLACK
10
-50.7111
20
-39.2176
11
-49.6189
21
-39.2176
0
LINE
8
BLACK
10
-49.6189
20
-39.2176
11
-49.6189
21
-38.6334
0
LINE
8
BLACK
10
-49.6189
20
-38.6334
11
-50.7111
21
-38.6334
0
LINE
8
BLACK
10
-50.7111
20
-38.6334
11
-50.7111
21
-39.2176
0
LINE
8
BLACK
10
-35.3314
20
-7.1501
11
-35.3314
21
-6.6929
0
LINE
8
BLACK
10
-35.3314
20
-6.6929
11
-35.5346
21
-6.6929
0
LINE
8
BLACK
10
-35.5346
20
-6.6929
11
-35.5346
21
-7.1501
0
LINE
8
BLACK
10
-35.5346
20
-7.1501
11
-35.3314
21
-7.1501
0
LINE
8
BLACK
10
-37.2364
20
-7.1501
11
-37.2364
21
-6.6929
0
LINE
8
BLACK
10
-37.2364
20
-6.6929
11
-37.4396
21
-6.6929
0
LINE
8
BLACK
10
-37.4396
20
-6.6929
11
-37.4396
21
-7.1501
0
LINE
8
BLACK
10
-37.4396
20
-7.1501
11
-37.2364
21
-7.1501
0
LINE
8
BLACK
10
-35.3314
20
-9.6901
11
-35.3314
21
-9.2329
0
LINE
8
BLACK
10
-35.3314
20
-9.2329
11
-35.5346
21
-9.2329
0
LINE
8
BLACK
10
-35.5346
20
-9.2329
11
-35.5346
21
-9.6901
0
LINE
8
BLACK
10
-35.5346
20
-9.6901
11
-35.3314
21
-9.6901
0
LINE
8
BLACK
10
-36.2839
20
-7.1501
11
-36.2839
21
-6.6929
0
LINE
8
BLACK
10
-36.2839
20
-6.6929
11
-36.4871
21
-6.6929
0
LINE
8
BLACK
10
-36.4871
20
-6.6929
11
-36.4871
21
-7.1501
0
LINE
8
BLACK
10
-36.4871
20
-7.1501
11
-36.2839
21
-7.1501
0
LINE
8
BLACK
10
-37.2364
20
-9.6901
11
-37.2364
21
-9.2329
0
LINE
8
BLACK
10
-37.2364
20
-9.2329
11
-37.4396
21
-9.2329
0
LINE
8
BLACK
10
-37.4396
20
-9.2329
11
-37.4396
21
-9.6901
0
LINE
8
BLACK
10
-37.4396
20
-9.6901
11
-37.2364
21
-9.6901
0
LINE
8
BLACK
10
-55.2196
20
-19.0119
11
-55.2196
21
-20.1041
0
LINE
8
BLACK
10
-55.2196
20
-20.1041
11
-54.6354
21
-20.1041
0
LINE
8
BLACK
10
-54.6354
20
-20.1041
11
-54.6354
21
-19.0119
0
LINE
8
BLACK
10
-54.6354
20
-19.0119
11
-55.2196
21
-19.0119
0
LINE
8
BLACK
10
-53.3146
20
-19.0119
11
-53.3146
21
-20.1041
0
LINE
8
BLACK
10
-53.3146
20
-20.1041
11
-52.7304
21
-20.1041
0
LINE
8
BLACK
10
-52.7304
20
-20.1041
11
-52.7304
21
-19.0119
0
LINE
8
BLACK
10
-52.7304
20
-19.0119
11
-53.3146
21
-19.0119
0
LINE
8
BLACK
10
-62.2681
20
-40.2209
11
-62.2681
21
-41.0591
0
LINE
8
BLACK
10
-62.2681
20
-41.0591
11
-61.9379
21
-41.0591
0
LINE
8
BLACK
10
-61.9379
20
-41.0591
11
-61.9379
21
-40.2209
0
LINE
8
BLACK
10
-61.9379
20
-40.2209
11
-62.2681
21
-40.2209
0
LINE
8
BLACK
10
-60.7441
20
-40.2209
11
-60.7441
21
-41.0591
0
LINE
8
BLACK
10
-60.7441
20
-41.0591
11
-60.4139
21
-41.0591
0
LINE
8
BLACK
10
-60.4139
20
-41.0591
11
-60.4139
21
-40.2209
0
LINE
8
BLACK
10
-60.4139
20
-40.2209
11
-60.7441
21
-40.2209
0
LINE
8
BLACK
10
-62.2681
20
-13.5509
11
-62.2681
21
-14.3891
0
LINE
8
BLACK
10
-62.2681
20
-14.3891
11
-61.9379
21
-14.3891
0
LINE
8
BLACK
10
-61.9379
20
-14.3891
11
-61.9379
21
-13.5509
0
LINE
8
BLACK
10
-61.9379
20
-13.5509
11
-62.2681
21
-13.5509
0
LINE
8
BLACK
10
-60.7441
20
-13.5509
11
-60.7441
21
-14.3891
0
LINE
8
BLACK
10
-60.7441
20
-14.3891
11
-60.4139
21
-14.3891
0
LINE
8
BLACK
10
-60.4139
20
-14.3891
11
-60.4139
21
-13.5509
0
LINE
8
BLACK
10
-60.4139
20
-13.5509
11
-60.7441
21
-13.5509
0
LINE
8
BLACK
10
-62.2681
20
-36.4109
11
-62.2681
21
-37.2491
0
LINE
8
BLACK
10
-62.2681
20
-37.2491
11
-61.9379
21
-37.2491
0
LINE
8
BLACK
10
-61.9379
20
-37.2491
11
-61.9379
21
-36.4109
0
LINE
8
BLACK
10
-61.9379
20
-36.4109
11
-62.2681
21
-36.4109
0
LINE
8
BLACK
10
-60.7441
20
-36.4109
11
-60.7441
21
-37.2491
0
LINE
8
BLACK
10
-60.7441
20
-37.2491
11
-60.4139
21
-37.2491
0
LINE
8
BLACK
10
-60.4139
20
-37.2491
11
-60.4139
21
-36.4109
0
LINE
8
BLACK
10
-60.4139
20
-36.4109
11
-60.7441
21
-36.4109
0
LINE
8
BLACK
10
-62.2681
20
-32.6009
11
-62.2681
21
-33.4391
0
LINE
8
BLACK
10
-62.2681
20
-33.4391
11
-61.9379
21
-33.4391
0
LINE
8
BLACK
10
-61.9379
20
-33.4391
11
-61.9379
21
-32.6009
0
LINE
8
BLACK
10
-61.9379
20
-32.6009
11
-62.2681
21
-32.6009
0
LINE
8
BLACK
10
-60.7441
20
-32.6009
11
-60.7441
21
-33.4391
0
LINE
8
BLACK
10
-60.7441
20
-33.4391
11
-60.4139
21
-33.4391
0
LINE
8
BLACK
10
-60.4139
20
-33.4391
11
-60.4139
21
-32.6009
0
LINE
8
BLACK
10
-60.4139
20
-32.6009
11
-60.7441
21
-32.6009
0
LINE
8
BLACK
10
-62.2681
20
-28.7909
11
-62.2681
21
-29.6291
0
LINE
8
BLACK
10
-62.2681
20
-29.6291
11
-61.9379
21
-29.6291
0
LINE
8
BLACK
10
-61.9379
20
-29.6291
11
-61.9379
21
-28.7909
0
LINE
8
BLACK
10
-61.9379
20
-28.7909
11
-62.2681
21
-28.7909
0
LINE
8
BLACK
10
-60.7441
20
-28.7909
11
-60.7441
21
-29.6291
0
LINE
8
BLACK
10
-60.7441
20
-29.6291
11
-60.4139
21
-29.6291
0
LINE
8
BLACK
10
-60.4139
20
-29.6291
11
-60.4139
21
-28.7909
0
LINE
8
BLACK
10
-60.4139
20
-28.7909
11
-60.7441
21
-28.7909
0
LINE
8
BLACK
10
-62.2681
20
-24.9809
11
-62.2681
21
-25.8191
0
LINE
8
BLACK
10
-62.2681
20
-25.8191
11
-61.9379
21
-25.8191
0
LINE
8
BLACK
10
-61.9379
20
-25.8191
11
-61.9379
21
-24.9809
0
LINE
8
BLACK
10
-61.9379
20
-24.9809
11
-62.2681
21
-24.9809
0
LINE
8
BLACK
10
-60.7441
20
-24.9809
11
-60.7441
21
-25.8191
0
LINE
8
BLACK
10
-60.7441
20
-25.8191
11
-60.4139
21
-25.8191
0
LINE
8
BLACK
10
-60.4139
20
-25.8191
11
-60.4139
21
-24.9809
0
LINE
8
BLACK
10
-60.4139
20
-24.9809
11
-60.7441
21
-24.9809
0
LINE
8
BLACK
10
-62.2681
20
-21.1709
11
-62.2681
21
-22.0091
0
LINE
8
BLACK
10
-62.2681
20
-22.0091
11
-61.9379
21
-22.0091
0
LINE
8
BLACK
10
-61.9379
20
-22.0091
11
-61.9379
21
-21.1709
0
LINE
8
BLACK
10
-61.9379
20
-21.1709
11
-62.2681
21
-21.1709
0
LINE
8
BLACK
10
-60.7441
20
-21.1709
11
-60.7441
21
-22.0091
0
LINE
8
BLACK
10
-60.7441
20
-22.0091
11
-60.4139
21
-22.0091
0
LINE
8
BLACK
10
-60.4139
20
-22.0091
11
-60.4139
21
-21.1709
0
LINE
8
BLACK
10
-60.4139
20
-21.1709
11
-60.7441
21
-21.1709
0
LINE
8
BLACK
10
-62.2681
20
-17.3609
11
-62.2681
21
-18.1991
0
LINE
8
BLACK
10
-62.2681
20
-18.1991
11
-61.9379
21
-18.1991
0
LINE
8
BLACK
10
-61.9379
20
-18.1991
11
-61.9379
21
-17.3609
0
LINE
8
BLACK
10
-61.9379
20
-17.3609
11
-62.2681
21
-17.3609
0
LINE
8
BLACK
10
-60.7441
20
-17.3609
11
-60.7441
21
-18.1991
0
LINE
8
BLACK
10
-60.7441
20
-18.1991
11
-60.4139
21
-18.1991
0
LINE
8
BLACK
10
-60.4139
20
-18.1991
11
-60.4139
21
-17.3609
0
LINE
8
BLACK
10
-60.4139
20
-17.3609
11
-60.7441
21
-17.3609
0
LINE
8
BLACK
10
-60.4139
20
-31.5341
11
-60.4139
21
-30.6959
0
LINE
8
BLACK
10
-60.4139
20
-30.6959
11
-60.7441
21
-30.6959
0
LINE
8
BLACK
10
-60.7441
20
-30.6959
11
-60.7441
21
-31.5341
0
LINE
8
BLACK
10
-60.7441
20
-31.5341
11
-60.4139
21
-31.5341
0
LINE
8
BLACK
10
-61.9379
20
-31.5341
11
-61.9379
21
-30.6959
0
LINE
8
BLACK
10
-61.9379
20
-30.6959
11
-62.2681
21
-30.6959
0
LINE
8
BLACK
10
-62.2681
20
-30.6959
11
-62.2681
21
-31.5341
0
LINE
8
BLACK
10
-62.2681
20
-31.5341
11
-61.9379
21
-31.5341
0
LINE
8
BLACK
10
-36.8046
20
-22.7711
11
-35.9664
21
-22.7711
0
LINE
8
BLACK
10
-35.9664
20
-22.7711
11
-35.9664
21
-22.4409
0
LINE
8
BLACK
10
-35.9664
20
-22.4409
11
-36.8046
21
-22.4409
0
LINE
8
BLACK
10
-36.8046
20
-22.4409
11
-36.8046
21
-22.7711
0
LINE
8
BLACK
10
-36.8046
20
-21.2471
11
-35.9664
21
-21.2471
0
LINE
8
BLACK
10
-35.9664
20
-21.2471
11
-35.9664
21
-20.9169
0
LINE
8
BLACK
10
-35.9664
20
-20.9169
11
-36.8046
21
-20.9169
0
LINE
8
BLACK
10
-36.8046
20
-20.9169
11
-36.8046
21
-21.2471
0
LINE
8
BLACK
10
-62.2681
20
-9.7409
11
-62.2681
21
-10.5791
0
LINE
8
BLACK
10
-62.2681
20
-10.5791
11
-61.9379
21
-10.5791
0
LINE
8
BLACK
10
-61.9379
20
-10.5791
11
-61.9379
21
-9.7409
0
LINE
8
BLACK
10
-61.9379
20
-9.7409
11
-62.2681
21
-9.7409
0
LINE
8
BLACK
10
-60.7441
20
-9.7409
11
-60.7441
21
-10.5791
0
LINE
8
BLACK
10
-60.7441
20
-10.5791
11
-60.4139
21
-10.5791
0
LINE
8
BLACK
10
-60.4139
20
-10.5791
11
-60.4139
21
-9.7409
0
LINE
8
BLACK
10
-60.4139
20
-9.7409
11
-60.7441
21
-9.7409
0
LINE
8
BLACK
10
-62.2681
20
-5.9309
11
-62.2681
21
-6.7691
0
LINE
8
BLACK
10
-62.2681
20
-6.7691
11
-61.9379
21
-6.7691
0
LINE
8
BLACK
10
-61.9379
20
-6.7691
11
-61.9379
21
-5.9309
0
LINE
8
BLACK
10
-61.9379
20
-5.9309
11
-62.2681
21
-5.9309
0
LINE
8
BLACK
10
-60.7441
20
-5.9309
11
-60.7441
21
-6.7691
0
LINE
8
BLACK
10
-60.7441
20
-6.7691
11
-60.4139
21
-6.7691
0
LINE
8
BLACK
10
-60.4139
20
-6.7691
11
-60.4139
21
-5.9309
0
LINE
8
BLACK
10
-60.4139
20
-5.9309
11
-60.7441
21
-5.9309
0
LINE
8
BLACK
10
-62.2681
20
-11.6459
11
-62.2681
21
-12.4841
0
LINE
8
BLACK
10
-62.2681
20
-12.4841
11
-61.9379
21
-12.4841
0
LINE
8
BLACK
10
-61.9379
20
-12.4841
11
-61.9379
21
-11.6459
0
LINE
8
BLACK
10
-61.9379
20
-11.6459
11
-62.2681
21
-11.6459
0
LINE
8
BLACK
10
-60.7441
20
-11.6459
11
-60.7441
21
-12.4841
0
LINE
8
BLACK
10
-60.7441
20
-12.4841
11
-60.4139
21
-12.4841
0
LINE
8
BLACK
10
-60.4139
20
-12.4841
11
-60.4139
21
-11.6459
0
LINE
8
BLACK
10
-60.4139
20
-11.6459
11
-60.7441
21
-11.6459
0
LINE
8
BLACK
10
-15.2781
20
-22.8219
11
-15.2781
21
-23.6601
0
LINE
8
BLACK
10
-15.2781
20
-23.6601
11
-14.9479
21
-23.6601
0
LINE
8
BLACK
10
-14.9479
20
-23.6601
11
-14.9479
21
-22.8219
0
LINE
8
BLACK
10
-14.9479
20
-22.8219
11
-15.2781
21
-22.8219
0
LINE
8
BLACK
10
-13.7541
20
-22.8219
11
-13.7541
21
-23.6601
0
LINE
8
BLACK
10
-13.7541
20
-23.6601
11
-13.4239
21
-23.6601
0
LINE
8
BLACK
10
-13.4239
20
-23.6601
11
-13.4239
21
-22.8219
0
LINE
8
BLACK
10
-13.4239
20
-22.8219
11
-13.7541
21
-22.8219
0
LINE
8
BLACK
10
-15.2781
20
-17.2339
11
-15.2781
21
-18.0721
0
LINE
8
BLACK
10
-15.2781
20
-18.0721
11
-14.9479
21
-18.0721
0
LINE
8
BLACK
10
-14.9479
20
-18.0721
11
-14.9479
21
-17.2339
0
LINE
8
BLACK
10
-14.9479
20
-17.2339
11
-15.2781
21
-17.2339
0
LINE
8
BLACK
10
-13.7541
20
-17.2339
11
-13.7541
21
-18.0721
0
LINE
8
BLACK
10
-13.7541
20
-18.0721
11
-13.4239
21
-18.0721
0
LINE
8
BLACK
10
-13.4239
20
-18.0721
11
-13.4239
21
-17.2339
0
LINE
8
BLACK
10
-13.4239
20
-17.2339
11
-13.7541
21
-17.2339
0
LINE
8
BLACK
10
-17.6276
20
-7.0231
11
-16.7894
21
-7.0231
0
LINE
8
BLACK
10
-16.7894
20
-7.0231
11
-16.7894
21
-6.6929
0
LINE
8
BLACK
10
-16.7894
20
-6.6929
11
-17.6276
21
-6.6929
0
LINE
8
BLACK
10
-17.6276
20
-6.6929
11
-17.6276
21
-7.0231
0
LINE
8
BLACK
10
-17.6276
20
-5.4991
11
-16.7894
21
-5.4991
0
LINE
8
BLACK
10
-16.7894
20
-5.4991
11
-16.7894
21
-5.1689
0
LINE
8
BLACK
10
-16.7894
20
-5.1689
11
-17.6276
21
-5.1689
0
LINE
8
BLACK
10
-17.6276
20
-5.1689
11
-17.6276
21
-5.4991
0
LINE
8
BLACK
10
-60.4139
20
-42.9641
11
-60.4139
21
-42.1259
0
LINE
8
BLACK
10
-60.4139
20
-42.1259
11
-60.7441
21
-42.1259
0
LINE
8
BLACK
10
-60.7441
20
-42.1259
11
-60.7441
21
-42.9641
0
LINE
8
BLACK
10
-60.7441
20
-42.9641
11
-60.4139
21
-42.9641
0
LINE
8
BLACK
10
-61.9379
20
-42.9641
11
-61.9379
21
-42.1259
0
LINE
8
BLACK
10
-61.9379
20
-42.1259
11
-62.2681
21
-42.1259
0
LINE
8
BLACK
10
-62.2681
20
-42.1259
11
-62.2681
21
-42.9641
0
LINE
8
BLACK
10
-62.2681
20
-42.9641
11
-61.9379
21
-42.9641
0
LINE
8
BLACK
10
-19.6596
20
-7.0231
11
-18.8214
21
-7.0231
0
LINE
8
BLACK
10
-18.8214
20
-7.0231
11
-18.8214
21
-6.6929
0
LINE
8
BLACK
10
-18.8214
20
-6.6929
11
-19.6596
21
-6.6929
0
LINE
8
BLACK
10
-19.6596
20
-6.6929
11
-19.6596
21
-7.0231
0
LINE
8
BLACK
10
-19.6596
20
-5.4991
11
-18.8214
21
-5.4991
0
LINE
8
BLACK
10
-18.8214
20
-5.4991
11
-18.8214
21
-5.1689
0
LINE
8
BLACK
10
-18.8214
20
-5.1689
11
-19.6596
21
-5.1689
0
LINE
8
BLACK
10
-19.6596
20
-5.1689
11
-19.6596
21
-5.4991
0
LINE
8
BLACK
10
-13.2969
20
-27.0129
11
-14.1351
21
-27.0129
0
LINE
8
BLACK
10
-14.1351
20
-27.0129
11
-14.1351
21
-27.3431
0
LINE
8
BLACK
10
-14.1351
20
-27.3431
11
-13.2969
21
-27.3431
0
LINE
8
BLACK
10
-13.2969
20
-27.3431
11
-13.2969
21
-27.0129
0
LINE
8
BLACK
10
-13.2969
20
-28.5369
11
-14.1351
21
-28.5369
0
LINE
8
BLACK
10
-14.1351
20
-28.5369
11
-14.1351
21
-28.8671
0
LINE
8
BLACK
10
-14.1351
20
-28.8671
11
-13.2969
21
-28.8671
0
LINE
8
BLACK
10
-13.2969
20
-28.8671
11
-13.2969
21
-28.5369
0
LINE
8
BLACK
10
7.8994
20
-0.3429
11
7.8994
21
-1.1811
0
LINE
8
BLACK
10
7.8994
20
-1.1811
11
8.2296
21
-1.1811
0
LINE
8
BLACK
10
8.2296
20
-1.1811
11
8.2296
21
-0.3429
0
LINE
8
BLACK
10
8.2296
20
-0.3429
11
7.8994
21
-0.3429
0
LINE
8
BLACK
10
9.4234
20
-0.3429
11
9.4234
21
-1.1811
0
LINE
8
BLACK
10
9.4234
20
-1.1811
11
9.7536
21
-1.1811
0
LINE
8
BLACK
10
9.7536
20
-1.1811
11
9.7536
21
-0.3429
0
LINE
8
BLACK
10
9.7536
20
-0.3429
11
9.4234
21
-0.3429
0
LINE
8
BLACK
10
-41.6941
20
-16.8529
11
-41.6941
21
-17.6911
0
LINE
8
BLACK
10
-41.6941
20
-17.6911
11
-41.3639
21
-17.6911
0
LINE
8
BLACK
10
-41.3639
20
-17.6911
11
-41.3639
21
-16.8529
0
LINE
8
BLACK
10
-41.3639
20
-16.8529
11
-41.6941
21
-16.8529
0
LINE
8
BLACK
10
-40.1701
20
-16.8529
11
-40.1701
21
-17.6911
0
LINE
8
BLACK
10
-40.1701
20
-17.6911
11
-39.8399
21
-17.6911
0
LINE
8
BLACK
10
-39.8399
20
-17.6911
11
-39.8399
21
-16.8529
0
LINE
8
BLACK
10
-39.8399
20
-16.8529
11
-40.1701
21
-16.8529
0
LINE
8
BLACK
10
-25.6921
20
-6.6421
11
-24.8539
21
-6.6421
0
LINE
8
BLACK
10
-24.8539
20
-6.6421
11
-24.8539
21
-6.3119
0
LINE
8
BLACK
10
-24.8539
20
-6.3119
11
-25.6921
21
-6.3119
0
LINE
8
BLACK
10
-25.6921
20
-6.3119
11
-25.6921
21
-6.6421
0
LINE
8
BLACK
10
-25.6921
20
-5.1181
11
-24.8539
21
-5.1181
0
LINE
8
BLACK
10
-24.8539
20
-5.1181
11
-24.8539
21
-4.7879
0
LINE
8
BLACK
10
-24.8539
20
-4.7879
11
-25.6921
21
-4.7879
0
LINE
8
BLACK
10
-25.6921
20
-4.7879
11
-25.6921
21
-5.1181
0
LINE
8
BLACK
10
-27.8511
20
-6.6421
11
-27.0129
21
-6.6421
0
LINE
8
BLACK
10
-27.0129
20
-6.6421
11
-27.0129
21
-6.3119
0
LINE
8
BLACK
10
-27.0129
20
-6.3119
11
-27.8511
21
-6.3119
0
LINE
8
BLACK
10
-27.8511
20
-6.3119
11
-27.8511
21
-6.6421
0
LINE
8
BLACK
10
-27.8511
20
-5.1181
11
-27.0129
21
-5.1181
0
LINE
8
BLACK
10
-27.0129
20
-5.1181
11
-27.0129
21
-4.7879
0
LINE
8
BLACK
10
-27.0129
20
-4.7879
11
-27.8511
21
-4.7879
0
LINE
8
BLACK
10
-27.8511
20
-4.7879
11
-27.8511
21
-5.1181
0
LINE
8
BLACK
10
-47.2059
20
-38.9509
11
-48.0441
21
-38.9509
0
LINE
8
BLACK
10
-48.0441
20
-38.9509
11
-48.0441
21
-39.2811
0
LINE
8
BLACK
10
-48.0441
20
-39.2811
11
-47.2059
21
-39.2811
0
LINE
8
BLACK
10
-47.2059
20
-39.2811
11
-47.2059
21
-38.9509
0
LINE
8
BLACK
10
-47.2059
20
-40.4749
11
-48.0441
21
-40.4749
0
LINE
8
BLACK
10
-48.0441
20
-40.4749
11
-48.0441
21
-40.8051
0
LINE
8
BLACK
10
-48.0441
20
-40.8051
11
-47.2059
21
-40.8051
0
LINE
8
BLACK
10
-47.2059
20
-40.8051
11
-47.2059
21
-40.4749
0
LINE
8
BLACK
10
-45.1231
20
-18.1991
11
-44.2849
21
-18.1991
0
LINE
8
BLACK
10
-44.2849
20
-18.1991
11
-44.2849
21
-17.8689
0
LINE
8
BLACK
10
-44.2849
20
-17.8689
11
-45.1231
21
-17.8689
0
LINE
8
BLACK
10
-45.1231
20
-17.8689
11
-45.1231
21
-18.1991
0
LINE
8
BLACK
10
-45.1231
20
-16.6751
11
-44.2849
21
-16.6751
0
LINE
8
BLACK
10
-44.2849
20
-16.6751
11
-44.2849
21
-16.3449
0
LINE
8
BLACK
10
-44.2849
20
-16.3449
11
-45.1231
21
-16.3449
0
LINE
8
BLACK
10
-45.1231
20
-16.3449
11
-45.1231
21
-16.6751
0
LINE
8
BLACK
10
-47.0281
20
-18.1991
11
-46.1899
21
-18.1991
0
LINE
8
BLACK
10
-46.1899
20
-18.1991
11
-46.1899
21
-17.8689
0
LINE
8
BLACK
10
-46.1899
20
-17.8689
11
-47.0281
21
-17.8689
0
LINE
8
BLACK
10
-47.0281
20
-17.8689
11
-47.0281
21
-18.1991
0
LINE
8
BLACK
10
-47.0281
20
-16.6751
11
-46.1899
21
-16.6751
0
LINE
8
BLACK
10
-46.1899
20
-16.6751
11
-46.1899
21
-16.3449
0
LINE
8
BLACK
10
-46.1899
20
-16.3449
11
-47.0281
21
-16.3449
0
LINE
8
BLACK
10
-47.0281
20
-16.3449
11
-47.0281
21
-16.6751
0
LINE
8
BLACK
10
-41.6941
20
-18.7579
11
-41.6941
21
-19.5961
0
LINE
8
BLACK
10
-41.6941
20
-19.5961
11
-41.3639
21
-19.5961
0
LINE
8
BLACK
10
-41.3639
20
-19.5961
11
-41.3639
21
-18.7579
0
LINE
8
BLACK
10
-41.3639
20
-18.7579
11
-41.6941
21
-18.7579
0
LINE
8
BLACK
10
-40.1701
20
-18.7579
11
-40.1701
21
-19.5961
0
LINE
8
BLACK
10
-40.1701
20
-19.5961
11
-39.8399
21
-19.5961
0
LINE
8
BLACK
10
-39.8399
20
-19.5961
11
-39.8399
21
-18.7579
0
LINE
8
BLACK
10
-39.8399
20
-18.7579
11
-40.1701
21
-18.7579
0
LINE
8
BLACK
10
-60.4139
20
-39.1541
11
-60.4139
21
-38.3159
0
LINE
8
BLACK
10
-60.4139
20
-38.3159
11
-60.7441
21
-38.3159
0
LINE
8
BLACK
10
-60.7441
20
-38.3159
11
-60.7441
21
-39.1541
0
LINE
8
BLACK
10
-60.7441
20
-39.1541
11
-60.4139
21
-39.1541
0
LINE
8
BLACK
10
-61.9379
20
-39.1541
11
-61.9379
21
-38.3159
0
LINE
8
BLACK
10
-61.9379
20
-38.3159
11
-62.2681
21
-38.3159
0
LINE
8
BLACK
10
-62.2681
20
-38.3159
11
-62.2681
21
-39.1541
0
LINE
8
BLACK
10
-62.2681
20
-39.1541
11
-61.9379
21
-39.1541
0
LINE
8
BLACK
10
-38.7096
20
-22.7711
11
-37.8714
21
-22.7711
0
LINE
8
BLACK
10
-37.8714
20
-22.7711
11
-37.8714
21
-22.4409
0
LINE
8
BLACK
10
-37.8714
20
-22.4409
11
-38.7096
21
-22.4409
0
LINE
8
BLACK
10
-38.7096
20
-22.4409
11
-38.7096
21
-22.7711
0
LINE
8
BLACK
10
-38.7096
20
-21.2471
11
-37.8714
21
-21.2471
0
LINE
8
BLACK
10
-37.8714
20
-21.2471
11
-37.8714
21
-20.9169
0
LINE
8
BLACK
10
-37.8714
20
-20.9169
11
-38.7096
21
-20.9169
0
LINE
8
BLACK
10
-38.7096
20
-20.9169
11
-38.7096
21
-21.2471
0
LINE
8
BLACK
10
-49.0601
20
-18.1991
11
-48.2219
21
-18.1991
0
LINE
8
BLACK
10
-48.2219
20
-18.1991
11
-48.2219
21
-17.8689
0
LINE
8
BLACK
10
-48.2219
20
-17.8689
11
-49.0601
21
-17.8689
0
LINE
8
BLACK
10
-49.0601
20
-17.8689
11
-49.0601
21
-18.1991
0
LINE
8
BLACK
10
-49.0601
20
-16.6751
11
-48.2219
21
-16.6751
0
LINE
8
BLACK
10
-48.2219
20
-16.6751
11
-48.2219
21
-16.3449
0
LINE
8
BLACK
10
-48.2219
20
-16.3449
11
-49.0601
21
-16.3449
0
LINE
8
BLACK
10
-49.0601
20
-16.3449
11
-49.0601
21
-16.6751
0
LINE
8
BLACK
10
-50.9651
20
-18.1991
11
-50.1269
21
-18.1991
0
LINE
8
BLACK
10
-50.1269
20
-18.1991
11
-50.1269
21
-17.8689
0
LINE
8
BLACK
10
-50.1269
20
-17.8689
11
-50.9651
21
-17.8689
0
LINE
8
BLACK
10
-50.9651
20
-17.8689
11
-50.9651
21
-18.1991
0
LINE
8
BLACK
10
-50.9651
20
-16.6751
11
-50.1269
21
-16.6751
0
LINE
8
BLACK
10
-50.1269
20
-16.6751
11
-50.1269
21
-16.3449
0
LINE
8
BLACK
10
-50.1269
20
-16.3449
11
-50.9651
21
-16.3449
0
LINE
8
BLACK
10
-50.9651
20
-16.3449
11
-50.9651
21
-16.6751
0
LINE
8
BLACK
10
-60.4139
20
-35.3441
11
-60.4139
21
-34.5059
0
LINE
8
BLACK
10
-60.4139
20
-34.5059
11
-60.7441
21
-34.5059
0
LINE
8
BLACK
10
-60.7441
20
-34.5059
11
-60.7441
21
-35.3441
0
LINE
8
BLACK
10
-60.7441
20
-35.3441
11
-60.4139
21
-35.3441
0
LINE
8
BLACK
10
-61.9379
20
-35.3441
11
-61.9379
21
-34.5059
0
LINE
8
BLACK
10
-61.9379
20
-34.5059
11
-62.2681
21
-34.5059
0
LINE
8
BLACK
10
-62.2681
20
-34.5059
11
-62.2681
21
-35.3441
0
LINE
8
BLACK
10
-62.2681
20
-35.3441
11
-61.9379
21
-35.3441
0
LINE
8
BLACK
10
-60.4139
20
-27.7241
11
-60.4139
21
-26.8859
0
LINE
8
BLACK
10
-60.4139
20
-26.8859
11
-60.7441
21
-26.8859
0
LINE
8
BLACK
10
-60.7441
20
-26.8859
11
-60.7441
21
-27.7241
0
LINE
8
BLACK
10
-60.7441
20
-27.7241
11
-60.4139
21
-27.7241
0
LINE
8
BLACK
10
-61.9379
20
-27.7241
11
-61.9379
21
-26.8859
0
LINE
8
BLACK
10
-61.9379
20
-26.8859
11
-62.2681
21
-26.8859
0
LINE
8
BLACK
10
-62.2681
20
-26.8859
11
-62.2681
21
-27.7241
0
LINE
8
BLACK
10
-62.2681
20
-27.7241
11
-61.9379
21
-27.7241
0
LINE
8
BLACK
10
-60.4139
20
-23.9141
11
-60.4139
21
-23.0759
0
LINE
8
BLACK
10
-60.4139
20
-23.0759
11
-60.7441
21
-23.0759
0
LINE
8
BLACK
10
-60.7441
20
-23.0759
11
-60.7441
21
-23.9141
0
LINE
8
BLACK
10
-60.7441
20
-23.9141
11
-60.4139
21
-23.9141
0
LINE
8
BLACK
10
-61.9379
20
-23.9141
11
-61.9379
21
-23.0759
0
LINE
8
BLACK
10
-61.9379
20
-23.0759
11
-62.2681
21
-23.0759
0
LINE
8
BLACK
10
-62.2681
20
-23.0759
11
-62.2681
21
-23.9141
0
LINE
8
BLACK
10
-62.2681
20
-23.9141
11
-61.9379
21
-23.9141
0
LINE
8
BLACK
10
-60.4139
20
-20.1041
11
-60.4139
21
-19.2659
0
LINE
8
BLACK
10
-60.4139
20
-19.2659
11
-60.7441
21
-19.2659
0
LINE
8
BLACK
10
-60.7441
20
-19.2659
11
-60.7441
21
-20.1041
0
LINE
8
BLACK
10
-60.7441
20
-20.1041
11
-60.4139
21
-20.1041
0
LINE
8
BLACK
10
-61.9379
20
-20.1041
11
-61.9379
21
-19.2659
0
LINE
8
BLACK
10
-61.9379
20
-19.2659
11
-62.2681
21
-19.2659
0
LINE
8
BLACK
10
-62.2681
20
-19.2659
11
-62.2681
21
-20.1041
0
LINE
8
BLACK
10
-62.2681
20
-20.1041
11
-61.9379
21
-20.1041
0
LINE
8
BLACK
10
-60.4139
20
-16.1671
11
-60.4139
21
-15.3289
0
LINE
8
BLACK
10
-60.4139
20
-15.3289
11
-60.7441
21
-15.3289
0
LINE
8
BLACK
10
-60.7441
20
-15.3289
11
-60.7441
21
-16.1671
0
LINE
8
BLACK
10
-60.7441
20
-16.1671
11
-60.4139
21
-16.1671
0
LINE
8
BLACK
10
-61.9379
20
-16.1671
11
-61.9379
21
-15.3289
0
LINE
8
BLACK
10
-61.9379
20
-15.3289
11
-62.2681
21
-15.3289
0
LINE
8
BLACK
10
-62.2681
20
-15.3289
11
-62.2681
21
-16.1671
0
LINE
8
BLACK
10
-62.2681
20
-16.1671
11
-61.9379
21
-16.1671
0
LINE
8
BLACK
10
-60.4139
20
-8.5471
11
-60.4139
21
-7.7089
0
LINE
8
BLACK
10
-60.4139
20
-7.7089
11
-60.7441
21
-7.7089
0
LINE
8
BLACK
10
-60.7441
20
-7.7089
11
-60.7441
21
-8.5471
0
LINE
8
BLACK
10
-60.7441
20
-8.5471
11
-60.4139
21
-8.5471
0
LINE
8
BLACK
10
-61.9379
20
-8.5471
11
-61.9379
21
-7.7089
0
LINE
8
BLACK
10
-61.9379
20
-7.7089
11
-62.2681
21
-7.7089
0
LINE
8
BLACK
10
-62.2681
20
-7.7089
11
-62.2681
21
-8.5471
0
LINE
8
BLACK
10
-62.2681
20
-8.5471
11
-61.9379
21
-8.5471
0
LINE
8
BLACK
10
-47.6631
20
-9.8171
11
-46.8249
21
-9.8171
0
LINE
8
BLACK
10
-46.8249
20
-9.8171
11
-46.8249
21
-9.4869
0
LINE
8
BLACK
10
-46.8249
20
-9.4869
11
-47.6631
21
-9.4869
0
LINE
8
BLACK
10
-47.6631
20
-9.4869
11
-47.6631
21
-9.8171
0
LINE
8
BLACK
10
-47.6631
20
-8.2931
11
-46.8249
21
-8.2931
0
LINE
8
BLACK
10
-46.8249
20
-8.2931
11
-46.8249
21
-7.9629
0
LINE
8
BLACK
10
-46.8249
20
-7.9629
11
-47.6631
21
-7.9629
0
LINE
8
BLACK
10
-47.6631
20
-7.9629
11
-47.6631
21
-8.2931
0
LINE
8
BLACK
10
-13.4239
20
-16.2306
11
-13.4239
21
-15.3924
0
LINE
8
BLACK
10
-13.4239
20
-15.3924
11
-13.7541
21
-15.3924
0
LINE
8
BLACK
10
-13.7541
20
-15.3924
11
-13.7541
21
-16.2306
0
LINE
8
BLACK
10
-13.7541
20
-16.2306
11
-13.4239
21
-16.2306
0
LINE
8
BLACK
10
-14.9479
20
-16.2306
11
-14.9479
21
-15.3924
0
LINE
8
BLACK
10
-14.9479
20
-15.3924
11
-15.2781
21
-15.3924
0
LINE
8
BLACK
10
-15.2781
20
-15.3924
11
-15.2781
21
-16.2306
0
LINE
8
BLACK
10
-15.2781
20
-16.2306
11
-14.9479
21
-16.2306
0
LINE
8
BLACK
10
-14.8209
20
-5.1689
11
-15.6591
21
-5.1689
0
LINE
8
BLACK
10
-15.6591
20
-5.1689
11
-15.6591
21
-5.4991
0
LINE
8
BLACK
10
-15.6591
20
-5.4991
11
-14.8209
21
-5.4991
0
LINE
8
BLACK
10
-14.8209
20
-5.4991
11
-14.8209
21
-5.1689
0
LINE
8
BLACK
10
-14.8209
20
-6.6929
11
-15.6591
21
-6.6929
0
LINE
8
BLACK
10
-15.6591
20
-6.6929
11
-15.6591
21
-7.0231
0
LINE
8
BLACK
10
-15.6591
20
-7.0231
11
-14.8209
21
-7.0231
0
LINE
8
BLACK
10
-14.8209
20
-7.0231
11
-14.8209
21
-6.6929
0
LINE
8
BLACK
10
-32.6136
20
-20.0279
11
-32.6136
21
-20.8661
0
LINE
8
BLACK
10
-32.6136
20
-20.8661
11
-32.2834
21
-20.8661
0
LINE
8
BLACK
10
-32.2834
20
-20.8661
11
-32.2834
21
-20.0279
0
LINE
8
BLACK
10
-32.2834
20
-20.0279
11
-32.6136
21
-20.0279
0
LINE
8
BLACK
10
-31.0896
20
-20.0279
11
-31.0896
21
-20.8661
0
LINE
8
BLACK
10
-31.0896
20
-20.8661
11
-30.7594
21
-20.8661
0
LINE
8
BLACK
10
-30.7594
20
-20.8661
11
-30.7594
21
-20.0279
0
LINE
8
BLACK
10
-30.7594
20
-20.0279
11
-31.0896
21
-20.0279
0
LINE
8
BLACK
10
-52.4129
20
-39.6621
11
-52.4129
21
-38.8239
0
LINE
8
BLACK
10
-52.4129
20
-38.8239
11
-52.7431
21
-38.8239
0
LINE
8
BLACK
10
-52.7431
20
-38.8239
11
-52.7431
21
-39.6621
0
LINE
8
BLACK
10
-52.7431
20
-39.6621
11
-52.4129
21
-39.6621
0
LINE
8
BLACK
10
-53.9369
20
-39.6621
11
-53.9369
21
-38.8239
0
LINE
8
BLACK
10
-53.9369
20
-38.8239
11
-54.2671
21
-38.8239
0
LINE
8
BLACK
10
-54.2671
20
-38.8239
11
-54.2671
21
-39.6621
0
LINE
8
BLACK
10
-54.2671
20
-39.6621
11
-53.9369
21
-39.6621
0
LINE
8
BLACK
10
-52.4129
20
-37.7571
11
-52.4129
21
-36.9189
0
LINE
8
BLACK
10
-52.4129
20
-36.9189
11
-52.7431
21
-36.9189
0
LINE
8
BLACK
10
-52.7431
20
-36.9189
11
-52.7431
21
-37.7571
0
LINE
8
BLACK
10
-52.7431
20
-37.7571
11
-52.4129
21
-37.7571
0
LINE
8
BLACK
10
-53.9369
20
-37.7571
11
-53.9369
21
-36.9189
0
LINE
8
BLACK
10
-53.9369
20
-36.9189
11
-54.2671
21
-36.9189
0
LINE
8
BLACK
10
-54.2671
20
-36.9189
11
-54.2671
21
-37.7571
0
LINE
8
BLACK
10
-54.2671
20
-37.7571
11
-53.9369
21
-37.7571
0
LINE
8
BLACK
10
-49.1515
20
-7.0866
11
-49.1515
21
-6.1214
0
LINE
8
BLACK
10
-49.1515
20
-6.1214
11
-49.2277
21
-6.1214
0
LINE
8
BLACK
10
-49.2277
20
-6.1214
11
-49.2277
21
-7.0866
0
LINE
8
BLACK
10
-49.2277
20
-7.0866
11
-49.1515
21
-7.0866
0
LINE
8
BLACK
10
-49.8018
20
-7.0866
11
-49.8018
21
-6.1214
0
LINE
8
BLACK
10
-49.8018
20
-6.1214
11
-49.878
21
-6.1214
0
LINE
8
BLACK
10
-49.878
20
-6.1214
11
-49.878
21
-7.0866
0
LINE
8
BLACK
10
-49.878
20
-7.0866
11
-49.8018
21
-7.0866
0
LINE
8
BLACK
10
-50.452
20
-7.0866
11
-50.452
21
-6.1214
0
LINE
8
BLACK
10
-50.452
20
-6.1214
11
-50.5282
21
-6.1214
0
LINE
8
BLACK
10
-50.5282
20
-6.1214
11
-50.5282
21
-7.0866
0
LINE
8
BLACK
10
-50.5282
20
-7.0866
11
-50.452
21
-7.0866
0
LINE
8
BLACK
10
-51.1023
20
-7.0866
11
-51.1023
21
-6.1214
0
LINE
8
BLACK
10
-51.1023
20
-6.1214
11
-51.1785
21
-6.1214
0
LINE
8
BLACK
10
-51.1785
20
-6.1214
11
-51.1785
21
-7.0866
0
LINE
8
BLACK
10
-51.1785
20
-7.0866
11
-51.1023
21
-7.0866
0
LINE
8
BLACK
10
-51.1023
20
-11.4046
11
-51.1023
21
-10.4394
0
LINE
8
BLACK
10
-51.1023
20
-10.4394
11
-51.1785
21
-10.4394
0
LINE
8
BLACK
10
-51.1785
20
-10.4394
11
-51.1785
21
-11.4046
0
LINE
8
BLACK
10
-51.1785
20
-11.4046
11
-51.1023
21
-11.4046
0
LINE
8
BLACK
10
-50.452
20
-11.4046
11
-50.452
21
-10.4394
0
LINE
8
BLACK
10
-50.452
20
-10.4394
11
-50.5282
21
-10.4394
0
LINE
8
BLACK
10
-50.5282
20
-10.4394
11
-50.5282
21
-11.4046
0
LINE
8
BLACK
10
-50.5282
20
-11.4046
11
-50.452
21
-11.4046
0
LINE
8
BLACK
10
-49.8018
20
-11.4046
11
-49.8018
21
-10.4394
0
LINE
8
BLACK
10
-49.8018
20
-10.4394
11
-49.878
21
-10.4394
0
LINE
8
BLACK
10
-49.878
20
-10.4394
11
-49.878
21
-11.4046
0
LINE
8
BLACK
10
-49.878
20
-11.4046
11
-49.8018
21
-11.4046
0
LINE
8
BLACK
10
-49.1515
20
-11.4046
11
-49.1515
21
-10.4394
0
LINE
8
BLACK
10
-49.1515
20
-10.4394
11
-49.2277
21
-10.4394
0
LINE
8
BLACK
10
-49.2277
20
-10.4394
11
-49.2277
21
-11.4046
0
LINE
8
BLACK
10
-49.2277
20
-11.4046
11
-49.1515
21
-11.4046
0
LINE
8
BLACK
10
-39.5351
20
-9.6901
11
-38.6969
21
-9.6901
0
LINE
8
BLACK
10
-38.6969
20
-9.6901
11
-38.6969
21
-9.3599
0
LINE
8
BLACK
10
-38.6969
20
-9.3599
11
-39.5351
21
-9.3599
0
LINE
8
BLACK
10
-39.5351
20
-9.3599
11
-39.5351
21
-9.6901
0
LINE
8
BLACK
10
-39.5351
20
-8.1661
11
-38.6969
21
-8.1661
0
LINE
8
BLACK
10
-38.6969
20
-8.1661
11
-38.6969
21
-7.8359
0
LINE
8
BLACK
10
-38.6969
20
-7.8359
11
-39.5351
21
-7.8359
0
LINE
8
BLACK
10
-39.5351
20
-7.8359
11
-39.5351
21
-8.1661
0
LINE
8
BLACK
10
-38.8239
20
-38.9509
11
-39.6621
21
-38.9509
0
LINE
8
BLACK
10
-39.6621
20
-38.9509
11
-39.6621
21
-39.2811
0
LINE
8
BLACK
10
-39.6621
20
-39.2811
11
-38.8239
21
-39.2811
0
LINE
8
BLACK
10
-38.8239
20
-39.2811
11
-38.8239
21
-38.9509
0
LINE
8
BLACK
10
-38.8239
20
-40.4749
11
-39.6621
21
-40.4749
0
LINE
8
BLACK
10
-39.6621
20
-40.4749
11
-39.6621
21
-40.8051
0
LINE
8
BLACK
10
-39.6621
20
-40.8051
11
-38.8239
21
-40.8051
0
LINE
8
BLACK
10
-38.8239
20
-40.8051
11
-38.8239
21
-40.4749
0
LINE
8
BLACK
10
-53.0479
20
-17.8181
11
-53.0479
21
-16.9799
0
LINE
8
BLACK
10
-53.0479
20
-16.9799
11
-53.3781
21
-16.9799
0
LINE
8
BLACK
10
-53.3781
20
-16.9799
11
-53.3781
21
-17.8181
0
LINE
8
BLACK
10
-53.3781
20
-17.8181
11
-53.0479
21
-17.8181
0
LINE
8
BLACK
10
-54.5719
20
-17.8181
11
-54.5719
21
-16.9799
0
LINE
8
BLACK
10
-54.5719
20
-16.9799
11
-54.9021
21
-16.9799
0
LINE
8
BLACK
10
-54.9021
20
-16.9799
11
-54.9021
21
-17.8181
0
LINE
8
BLACK
10
-54.9021
20
-17.8181
11
-54.5719
21
-17.8181
0
LINE
8
BLACK
10
-15.2781
20
-19.0119
11
-15.2781
21
-19.8501
0
LINE
8
BLACK
10
-15.2781
20
-19.8501
11
-14.9479
21
-19.8501
0
LINE
8
BLACK
10
-14.9479
20
-19.8501
11
-14.9479
21
-19.0119
0
LINE
8
BLACK
10
-14.9479
20
-19.0119
11
-15.2781
21
-19.0119
0
LINE
8
BLACK
10
-13.7541
20
-19.0119
11
-13.7541
21
-19.8501
0
LINE
8
BLACK
10
-13.7541
20
-19.8501
11
-13.4239
21
-19.8501
0
LINE
8
BLACK
10
-13.4239
20
-19.8501
11
-13.4239
21
-19.0119
0
LINE
8
BLACK
10
-13.4239
20
-19.0119
11
-13.7541
21
-19.0119
0
LINE
8
BLACK
10
-15.5956
20
-20.7899
11
-15.5956
21
-21.8821
0
LINE
8
BLACK
10
-15.5956
20
-21.8821
11
-15.0114
21
-21.8821
0
LINE
8
BLACK
10
-15.0114
20
-21.8821
11
-15.0114
21
-20.7899
0
LINE
8
BLACK
10
-15.0114
20
-20.7899
11
-15.5956
21
-20.7899
0
LINE
8
BLACK
10
-13.6906
20
-20.7899
11
-13.6906
21
-21.8821
0
LINE
8
BLACK
10
-13.6906
20
-21.8821
11
-13.1064
21
-21.8821
0
LINE
8
BLACK
10
-13.1064
20
-21.8821
11
-13.1064
21
-20.7899
0
LINE
8
BLACK
10
-13.1064
20
-20.7899
11
-13.6906
21
-20.7899
0
LINE
8
BLACK
10
-45.6946
20
-39.0144
11
-45.6946
21
-40.7416
0
LINE
8
BLACK
10
-45.6946
20
-40.7416
11
-44.4754
21
-40.7416
0
LINE
8
BLACK
10
-44.4754
20
-40.7416
11
-44.4754
21
-39.0144
0
LINE
8
BLACK
10
-44.4754
20
-39.0144
11
-45.6946
21
-39.0144
0
LINE
8
BLACK
10
-42.3926
20
-39.0144
11
-42.3926
21
-40.7416
0
LINE
8
BLACK
10
-42.3926
20
-40.7416
11
-41.1734
21
-40.7416
0
LINE
8
BLACK
10
-41.1734
20
-40.7416
11
-41.1734
21
-39.0144
0
LINE
8
BLACK
10
-41.1734
20
-39.0144
11
-42.3926
21
-39.0144
0
LINE
8
BLACK
10
2.2811
20
-5.3994
11
1.5859
21
-5.3994
0
LINE
8
BLACK
10
1.5859
20
-5.3994
11
1.5859
21
-5.9946
0
LINE
8
BLACK
10
1.5859
20
-5.9946
11
2.2811
21
-5.9946
0
LINE
8
BLACK
10
2.2811
20
-5.9946
11
2.2811
21
-5.3994
0
LINE
8
BLACK
10
0.6811
20
-5.3994
11
-0.0141
21
-5.3994
0
LINE
8
BLACK
10
-0.0141
20
-5.3994
11
-0.0141
21
-5.9946
0
LINE
8
BLACK
10
-0.0141
20
-5.9946
11
0.6811
21
-5.9946
0
LINE
8
BLACK
10
0.6811
20
-5.9946
11
0.6811
21
-5.3994
0
LINE
8
BLACK
10
2.2811
20
-9.4994
11
1.5859
21
-9.4994
0
LINE
8
BLACK
10
1.5859
20
-9.4994
11
1.5859
21
-10.0946
0
LINE
8
BLACK
10
1.5859
20
-10.0946
11
2.2811
21
-10.0946
0
LINE
8
BLACK
10
2.2811
20
-10.0946
11
2.2811
21
-9.4994
0
LINE
8
BLACK
10
0.6811
20
-9.4994
11
-0.0141
21
-9.4994
0
LINE
8
BLACK
10
-0.0141
20
-9.4994
11
-0.0141
21
-10.0946
0
LINE
8
BLACK
10
-0.0141
20
-10.0946
11
0.6811
21
-10.0946
0
LINE
8
BLACK
10
0.6811
20
-10.0946
11
0.6811
21
-9.4994
0
LINE
8
BLACK
10
-3.2131
20
-39.9796
11
-2.3749
21
-39.9796
0
LINE
8
BLACK
10
-2.3749
20
-39.9796
11
-2.3749
21
-39.6494
0
LINE
8
BLACK
10
-2.3749
20
-39.6494
11
-3.2131
21
-39.6494
0
LINE
8
BLACK
10
-3.2131
20
-39.6494
11
-3.2131
21
-39.9796
0
LINE
8
BLACK
10
-3.2131
20
-38.4556
11
-2.3749
21
-38.4556
0
LINE
8
BLACK
10
-2.3749
20
-38.4556
11
-2.3749
21
-38.1254
0
LINE
8
BLACK
10
-2.3749
20
-38.1254
11
-3.2131
21
-38.1254
0
LINE
8
BLACK
10
-3.2131
20
-38.1254
11
-3.2131
21
-38.4556
0
LINE
8
BLACK
10
-0.0381
20
-40.0431
11
0.8001
21
-40.0431
0
LINE
8
BLACK
10
0.8001
20
-40.0431
11
0.8001
21
-39.7129
0
LINE
8
BLACK
10
0.8001
20
-39.7129
11
-0.0381
21
-39.7129
0
LINE
8
BLACK
10
-0.0381
20
-39.7129
11
-0.0381
21
-40.0431
0
LINE
8
BLACK
10
-0.0381
20
-38.5191
11
0.8001
21
-38.5191
0
LINE
8
BLACK
10
0.8001
20
-38.5191
11
0.8001
21
-38.1889
0
LINE
8
BLACK
10
0.8001
20
-38.1889
11
-0.0381
21
-38.1889
0
LINE
8
BLACK
10
-0.0381
20
-38.1889
11
-0.0381
21
-38.5191
0
LINE
8
BLACK
10
-3.04038
20
-42.8422
11
-2.54762
21
-42.8422
0
LINE
8
BLACK
10
-2.54762
20
-42.8422
11
-2.54762
21
-42.3494
0
LINE
8
BLACK
10
-2.54762
20
-42.3494
11
-3.04038
21
-42.3494
0
LINE
8
BLACK
10
-3.04038
20
-42.3494
11
-3.04038
21
-42.8422
0
LINE
8
BLACK
10
-3.04038
20
-41.3436
11
-2.54762
21
-41.3436
0
LINE
8
BLACK
10
-2.54762
20
-41.3436
11
-2.54762
21
-40.8508
0
LINE
8
BLACK
10
-2.54762
20
-40.8508
11
-3.04038
21
-40.8508
0
LINE
8
BLACK
10
-3.04038
20
-40.8508
11
-3.04038
21
-41.3436
0
LINE
8
BLACK
10
0.13462
20
-42.8422
11
0.62738
21
-42.8422
0
LINE
8
BLACK
10
0.62738
20
-42.8422
11
0.62738
21
-42.3494
0
LINE
8
BLACK
10
0.62738
20
-42.3494
11
0.13462
21
-42.3494
0
LINE
8
BLACK
10
0.13462
20
-42.3494
11
0.13462
21
-42.8422
0
LINE
8
BLACK
10
0.13462
20
-41.3436
11
0.62738
21
-41.3436
0
LINE
8
BLACK
10
0.62738
20
-41.3436
11
0.62738
21
-40.8508
0
LINE
8
BLACK
10
0.62738
20
-40.8508
11
0.13462
21
-40.8508
0
LINE
8
BLACK
10
0.13462
20
-40.8508
11
0.13462
21
-41.3436
  0
ENDSEC
  0
EOF
