G04 (created by PCBNEW (2013-05-31 BZR 4019)-stable) date 9/9/2013 2:24:19 PM*
%MOIN*%
G04 Gerber Fmt 3.4, Leading zero omitted, Abs format*
%FSLAX34Y34*%
G01*
G70*
G90*
G04 APERTURE LIST*
%ADD10C,0.00590551*%
%ADD11R,0.0194X0.0509*%
%ADD12R,0.0509X0.0194*%
%ADD13R,0.043X0.023*%
%ADD14R,0.008X0.018*%
%ADD15R,0.023X0.043*%
%ADD16R,0.013X0.033*%
%ADD17R,0.033X0.013*%
%ADD18R,0.003X0.038*%
%ADD19R,0.048X0.068*%
%ADD20R,0.0273701X0.0234331*%
%ADD21R,0.0194X0.0194*%
G04 APERTURE END LIST*
G54D10*
G54D11*
X-6452Y-12027D03*
X-6925Y-12027D03*
X-7397Y-12027D03*
X-7869Y-12027D03*
X-8342Y-12027D03*
X-8814Y-12027D03*
X-9286Y-12027D03*
X-9758Y-12027D03*
X-10231Y-12027D03*
X-10703Y-12027D03*
X-11175Y-12027D03*
X-11648Y-12027D03*
X-11648Y-17223D03*
X-11175Y-17223D03*
X-10703Y-17223D03*
X-10231Y-17223D03*
X-9758Y-17223D03*
X-9286Y-17223D03*
X-8814Y-17223D03*
X-8342Y-17223D03*
X-7869Y-17223D03*
X-7397Y-17223D03*
X-6925Y-17223D03*
X-6452Y-17223D03*
G54D12*
X-5350Y-16514D03*
X-5350Y-15884D03*
X-5350Y-15254D03*
X-12750Y-15845D03*
X-12750Y-13405D03*
X-12750Y-13003D03*
X-12750Y-13877D03*
X-12750Y-14350D03*
X-12750Y-14900D03*
X-12750Y-15373D03*
X-12750Y-16247D03*
G54D13*
X-19750Y-16075D03*
X-19750Y-15325D03*
G54D14*
X-13950Y-2725D03*
X-14700Y-2725D03*
X-13950Y-3725D03*
X-14325Y-2725D03*
X-14700Y-3725D03*
G54D15*
X-21625Y-7700D03*
X-20875Y-7700D03*
G54D16*
X-24450Y-16000D03*
X-23850Y-16000D03*
X-24450Y-5500D03*
X-23850Y-5500D03*
X-24450Y-14500D03*
X-23850Y-14500D03*
X-24450Y-13000D03*
X-23850Y-13000D03*
X-24450Y-11500D03*
X-23850Y-11500D03*
X-24450Y-10000D03*
X-23850Y-10000D03*
X-24450Y-8500D03*
X-23850Y-8500D03*
X-24450Y-7000D03*
X-23850Y-7000D03*
X-23850Y-12250D03*
X-24450Y-12250D03*
G54D17*
X-14325Y-8900D03*
X-14325Y-8300D03*
G54D16*
X-24450Y-4000D03*
X-23850Y-4000D03*
X-24450Y-2500D03*
X-23850Y-2500D03*
X-24450Y-4750D03*
X-23850Y-4750D03*
X-5950Y-9150D03*
X-5350Y-9150D03*
X-5950Y-6950D03*
X-5350Y-6950D03*
G54D17*
X-6775Y-2700D03*
X-6775Y-2100D03*
G54D16*
X-23850Y-16750D03*
X-24450Y-16750D03*
G54D17*
X-7575Y-2700D03*
X-7575Y-2100D03*
X-5400Y-10700D03*
X-5400Y-11300D03*
G54D16*
X3175Y-300D03*
X3775Y-300D03*
X-16350Y-6800D03*
X-15750Y-6800D03*
G54D17*
X-9950Y-2550D03*
X-9950Y-1950D03*
X-10800Y-2550D03*
X-10800Y-1950D03*
X-18750Y-15400D03*
X-18750Y-16000D03*
X-17600Y-7100D03*
X-17600Y-6500D03*
X-18350Y-7100D03*
X-18350Y-6500D03*
G54D16*
X-16350Y-7550D03*
X-15750Y-7550D03*
X-23850Y-15250D03*
X-24450Y-15250D03*
G54D17*
X-15075Y-8900D03*
X-15075Y-8300D03*
X-19150Y-7100D03*
X-19150Y-6500D03*
X-19900Y-7100D03*
X-19900Y-6500D03*
G54D16*
X-23850Y-13750D03*
X-24450Y-13750D03*
X-23850Y-10750D03*
X-24450Y-10750D03*
X-23850Y-9250D03*
X-24450Y-9250D03*
X-23850Y-7750D03*
X-24450Y-7750D03*
X-23850Y-6200D03*
X-24450Y-6200D03*
X-23850Y-3200D03*
X-24450Y-3200D03*
G54D17*
X-18600Y-3800D03*
X-18600Y-3200D03*
G54D16*
X-5350Y-6225D03*
X-5950Y-6225D03*
G54D17*
X-6000Y-2100D03*
X-6000Y-2700D03*
G54D16*
X-12775Y-8050D03*
X-12175Y-8050D03*
X-20700Y-15450D03*
X-21300Y-15450D03*
X-20700Y-14700D03*
X-21300Y-14700D03*
G54D18*
X-19366Y-2600D03*
X-19622Y-2600D03*
X-19878Y-2600D03*
X-20134Y-2600D03*
X-20134Y-4300D03*
X-19878Y-4300D03*
X-19622Y-4300D03*
X-19366Y-4300D03*
G54D17*
X-15400Y-3750D03*
X-15400Y-3150D03*
X-15450Y-15400D03*
X-15450Y-16000D03*
G54D16*
X-20950Y-6850D03*
X-21550Y-6850D03*
X-5950Y-7650D03*
X-5350Y-7650D03*
G54D15*
X-6025Y-8400D03*
X-5275Y-8400D03*
G54D19*
X-17750Y-15700D03*
X-16450Y-15700D03*
G54D20*
X761Y-2242D03*
X131Y-2242D03*
X761Y-3857D03*
X131Y-3857D03*
G54D17*
X-1100Y-15675D03*
X-1100Y-15075D03*
X150Y-15700D03*
X150Y-15100D03*
G54D21*
X-1100Y-16770D03*
X-1100Y-16180D03*
X150Y-16770D03*
X150Y-16180D03*
M02*
