G04 (created by PCBNEW (2013-05-31 BZR 4019)-stable) date 6/26/2014 4:14:42 PM*
%MOIN*%
G04 Gerber Fmt 3.4, Leading zero omitted, Abs format*
%FSLAX34Y34*%
G01*
G70*
G90*
G04 APERTURE LIST*
%ADD10C,0.00590551*%
%ADD11C,0.005*%
%ADD12C,0.0026*%
%ADD13C,0.006*%
%ADD14C,0.003*%
%ADD15C,0.01*%
%ADD16C,0.0078*%
%ADD17C,0.0039*%
%ADD18C,0.0035*%
%ADD19C,0.0016*%
%ADD20C,0.012*%
%ADD21C,0.0024*%
%ADD22C,0.0374*%
%ADD23R,0.0256X0.0414*%
%ADD24C,0.057*%
%ADD25R,0.063X0.0158*%
%ADD26R,0.0158X0.063*%
%ADD27R,0.0374X0.0414*%
%ADD28C,0.0807*%
%ADD29R,0.137827X0.0421575*%
%ADD30R,0.0414X0.0256*%
%ADD31R,0.0414X0.0374*%
%ADD32R,0.0532X0.061*%
%ADD33R,0.061X0.0532*%
%ADD34C,0.182*%
%ADD35O,0.0807402X0.0610551*%
%ADD36R,0.0807402X0.0610551*%
G04 APERTURE END LIST*
G54D10*
G54D11*
X1452Y-7310D02*
X1707Y-7055D01*
X1512Y-7310D02*
X1707Y-7115D01*
X1117Y-6760D02*
X1117Y-6500D01*
X742Y-6760D02*
X742Y-6500D01*
X1492Y-6760D02*
X1492Y-6500D01*
X1117Y-7310D02*
X1117Y-7570D01*
X742Y-7310D02*
X742Y-7570D01*
X1492Y-7310D02*
X1492Y-7570D01*
X1707Y-6760D02*
X527Y-6760D01*
X527Y-6760D02*
X527Y-7310D01*
X527Y-7310D02*
X1707Y-7310D01*
X1707Y-7310D02*
X1707Y-6760D01*
G54D12*
X-11282Y5066D02*
X-11282Y4948D01*
X-11282Y4869D02*
X-11282Y4751D01*
X-11282Y4673D02*
X-11282Y4554D01*
X-11282Y4476D02*
X-11282Y4358D01*
X-11282Y4279D02*
X-11282Y4161D01*
X-11282Y4082D02*
X-11282Y3964D01*
X-11282Y3886D02*
X-11282Y3768D01*
X-11282Y3689D02*
X-11282Y3571D01*
X-11282Y3492D02*
X-11282Y3374D01*
X-11282Y3296D02*
X-11282Y3177D01*
X-11282Y3099D02*
X-11282Y2981D01*
X-11282Y2902D02*
X-11282Y2784D01*
X-10978Y2598D02*
X-11096Y2598D01*
X-10781Y2598D02*
X-10899Y2598D01*
X-10584Y2598D02*
X-10703Y2598D01*
X-10388Y2598D02*
X-10506Y2598D01*
X-10191Y2598D02*
X-10309Y2598D01*
X-9994Y2598D02*
X-10112Y2598D01*
X-9798Y2598D02*
X-9916Y2598D01*
X-9601Y2598D02*
X-9719Y2598D01*
X-9404Y2598D02*
X-9522Y2598D01*
X-9207Y2598D02*
X-9326Y2598D01*
X-9011Y2598D02*
X-9129Y2598D01*
X-8814Y2598D02*
X-8932Y2598D01*
X-8628Y2902D02*
X-8628Y2784D01*
X-8628Y3099D02*
X-8628Y2981D01*
X-8628Y3296D02*
X-8628Y3177D01*
X-8628Y3492D02*
X-8628Y3374D01*
X-8628Y3689D02*
X-8628Y3571D01*
X-8628Y3886D02*
X-8628Y3768D01*
X-8628Y4082D02*
X-8628Y3964D01*
X-8628Y4279D02*
X-8628Y4161D01*
X-8628Y4476D02*
X-8628Y4358D01*
X-8628Y4673D02*
X-8628Y4554D01*
X-8628Y4869D02*
X-8628Y4751D01*
X-8628Y5066D02*
X-8628Y4948D01*
X-8814Y5252D02*
X-8932Y5252D01*
X-9011Y5252D02*
X-9129Y5252D01*
X-9404Y5252D02*
X-9522Y5252D01*
X-9207Y5252D02*
X-9326Y5252D01*
X-9798Y5252D02*
X-9916Y5252D01*
X-9601Y5252D02*
X-9719Y5252D01*
X-10191Y5252D02*
X-10309Y5252D01*
X-9994Y5252D02*
X-10112Y5252D01*
X-10584Y5252D02*
X-10703Y5252D01*
X-10388Y5252D02*
X-10506Y5252D01*
X-10781Y5252D02*
X-10899Y5252D01*
X-10978Y5252D02*
X-11096Y5252D01*
G54D13*
X-8824Y5252D02*
X-8628Y5056D01*
X-8628Y5056D02*
X-8628Y2794D01*
X-8628Y2794D02*
X-8824Y2598D01*
X-8824Y2598D02*
X-11086Y2598D01*
X-11086Y2598D02*
X-11282Y2794D01*
X-11282Y2794D02*
X-11282Y5056D01*
X-11282Y5056D02*
X-11086Y5252D01*
X-11086Y5252D02*
X-8824Y5252D01*
G54D14*
X-8832Y4909D02*
G75*
G03X-8832Y4909I-138J0D01*
G74*
G01*
G54D11*
X-3840Y-8600D02*
X-3840Y-8280D01*
X-3400Y-8290D02*
X-3400Y-8600D01*
X-3300Y-8280D02*
X-3940Y-8280D01*
X-3940Y-8280D02*
X-3940Y-8600D01*
X-3940Y-8600D02*
X-3300Y-8600D01*
X-3300Y-8600D02*
X-3300Y-8280D01*
G54D15*
X-790Y-10040D02*
G75*
G03X-790Y-10040I-50J0D01*
G74*
G01*
X-337Y-10040D02*
G75*
G03X-337Y-10040I-502J0D01*
G74*
G01*
X-60Y-6890D02*
G75*
G03X-60Y-6890I-50J0D01*
G74*
G01*
X392Y-6890D02*
G75*
G03X392Y-6890I-502J0D01*
G74*
G01*
G54D16*
X-5063Y9825D02*
X-5063Y4825D01*
X-3016Y4825D02*
X-3016Y9825D01*
X-5063Y9825D02*
X-3016Y9825D01*
X-3016Y4825D02*
X-5063Y4825D01*
X-4870Y4258D02*
X-4870Y4084D01*
X-4453Y3907D02*
X-4421Y3958D01*
X-4421Y3958D02*
X-4370Y4021D01*
X-4370Y4021D02*
X-4303Y4076D01*
X-4303Y4076D02*
X-4268Y4088D01*
X-4268Y4088D02*
X-4870Y4088D01*
X-4870Y4088D02*
X-4870Y3915D01*
X-4591Y4478D02*
X-4512Y4478D01*
X-4512Y4439D02*
X-4591Y4439D01*
X-4630Y4399D02*
X-4473Y4399D01*
X-4473Y4360D02*
X-4630Y4360D01*
X-4669Y4321D02*
X-4433Y4321D01*
X-4551Y4596D02*
X-4709Y4281D01*
X-4709Y4281D02*
X-4394Y4281D01*
X-4394Y4281D02*
X-4551Y4596D01*
G54D15*
X-6010Y-8310D02*
G75*
G03X-6010Y-8310I-50J0D01*
G74*
G01*
X-5557Y-8310D02*
G75*
G03X-5557Y-8310I-502J0D01*
G74*
G01*
G54D11*
X-4485Y-6990D02*
X-4230Y-6735D01*
X-4425Y-6990D02*
X-4230Y-6795D01*
X-5195Y-6440D02*
X-5195Y-6180D01*
X-4445Y-6440D02*
X-4445Y-6180D01*
X-4820Y-6990D02*
X-4820Y-7250D01*
X-5195Y-6990D02*
X-5195Y-7250D01*
X-4445Y-6990D02*
X-4445Y-7250D01*
X-4230Y-6440D02*
X-5410Y-6440D01*
X-5410Y-6440D02*
X-5410Y-6990D01*
X-5410Y-6990D02*
X-4230Y-6990D01*
X-4230Y-6990D02*
X-4230Y-6440D01*
X-3755Y-9165D02*
X-4010Y-9420D01*
X-3815Y-9165D02*
X-4010Y-9360D01*
X-3045Y-9715D02*
X-3045Y-9975D01*
X-3795Y-9715D02*
X-3795Y-9975D01*
X-3420Y-9165D02*
X-3420Y-8905D01*
X-3045Y-9165D02*
X-3045Y-8905D01*
X-3795Y-9165D02*
X-3795Y-8905D01*
X-4010Y-9715D02*
X-2830Y-9715D01*
X-2830Y-9715D02*
X-2830Y-9165D01*
X-2830Y-9165D02*
X-4010Y-9165D01*
X-4010Y-9165D02*
X-4010Y-9715D01*
X-2370Y-7500D02*
X-2115Y-7755D01*
X-2370Y-7560D02*
X-2175Y-7755D01*
X-1820Y-6790D02*
X-1560Y-6790D01*
X-1820Y-7540D02*
X-1560Y-7540D01*
X-2370Y-7165D02*
X-2630Y-7165D01*
X-2370Y-6790D02*
X-2630Y-6790D01*
X-2370Y-7540D02*
X-2630Y-7540D01*
X-1820Y-7755D02*
X-1820Y-6575D01*
X-1820Y-6575D02*
X-2370Y-6575D01*
X-2370Y-6575D02*
X-2370Y-7755D01*
X-2370Y-7755D02*
X-1820Y-7755D01*
X1452Y-122D02*
X1707Y132D01*
X1512Y-122D02*
X1707Y72D01*
X1117Y427D02*
X1117Y687D01*
X742Y427D02*
X742Y687D01*
X1492Y427D02*
X1492Y687D01*
X1117Y-122D02*
X1117Y-382D01*
X742Y-122D02*
X742Y-382D01*
X1492Y-122D02*
X1492Y-382D01*
X1707Y427D02*
X527Y427D01*
X527Y427D02*
X527Y-122D01*
X527Y-122D02*
X1707Y-122D01*
X1707Y-122D02*
X1707Y427D01*
X-5340Y-9930D02*
X-5660Y-9930D01*
X-5650Y-9490D02*
X-5340Y-9490D01*
X-5660Y-9390D02*
X-5660Y-10030D01*
X-5660Y-10030D02*
X-5340Y-10030D01*
X-5340Y-10030D02*
X-5340Y-9390D01*
X-5340Y-9390D02*
X-5660Y-9390D01*
X-13415Y5070D02*
X-13095Y5070D01*
X-13105Y4630D02*
X-13415Y4630D01*
X-13095Y4530D02*
X-13095Y5170D01*
X-13095Y5170D02*
X-13415Y5170D01*
X-13415Y5170D02*
X-13415Y4530D01*
X-13415Y4530D02*
X-13095Y4530D01*
X-12815Y5070D02*
X-12495Y5070D01*
X-12505Y4630D02*
X-12815Y4630D01*
X-12495Y4530D02*
X-12495Y5170D01*
X-12495Y5170D02*
X-12815Y5170D01*
X-12815Y5170D02*
X-12815Y4530D01*
X-12815Y4530D02*
X-12495Y4530D01*
X-1610Y-9835D02*
X-1930Y-9835D01*
X-1920Y-9395D02*
X-1610Y-9395D01*
X-1930Y-9295D02*
X-1930Y-9935D01*
X-1930Y-9935D02*
X-1610Y-9935D01*
X-1610Y-9935D02*
X-1610Y-9295D01*
X-1610Y-9295D02*
X-1930Y-9295D01*
X1870Y-2765D02*
X2190Y-2765D01*
X2180Y-3205D02*
X1870Y-3205D01*
X2190Y-3305D02*
X2190Y-2665D01*
X2190Y-2665D02*
X1870Y-2665D01*
X1870Y-2665D02*
X1870Y-3305D01*
X1870Y-3305D02*
X2190Y-3305D01*
X1845Y685D02*
X2165Y685D01*
X2155Y245D02*
X1845Y245D01*
X2165Y145D02*
X2165Y785D01*
X2165Y785D02*
X1845Y785D01*
X1845Y785D02*
X1845Y145D01*
X1845Y145D02*
X2165Y145D01*
X-9610Y760D02*
X-9610Y440D01*
X-10050Y450D02*
X-10050Y760D01*
X-10150Y440D02*
X-9510Y440D01*
X-9510Y440D02*
X-9510Y760D01*
X-9510Y760D02*
X-10150Y760D01*
X-10150Y760D02*
X-10150Y440D01*
X-9580Y-375D02*
X-9580Y125D01*
X-10080Y-375D02*
X-10080Y115D01*
X-10230Y-375D02*
X-9430Y-375D01*
X-9430Y-375D02*
X-9430Y125D01*
X-9430Y125D02*
X-10230Y125D01*
X-10230Y125D02*
X-10230Y-375D01*
X1870Y-6540D02*
X2190Y-6540D01*
X2180Y-6980D02*
X1870Y-6980D01*
X2190Y-7080D02*
X2190Y-6440D01*
X2190Y-6440D02*
X1870Y-6440D01*
X1870Y-6440D02*
X1870Y-7080D01*
X1870Y-7080D02*
X2190Y-7080D01*
X-1840Y6080D02*
X-1520Y6080D01*
X-1530Y5640D02*
X-1840Y5640D01*
X-1520Y5540D02*
X-1520Y6180D01*
X-1520Y6180D02*
X-1840Y6180D01*
X-1840Y6180D02*
X-1840Y5540D01*
X-1840Y5540D02*
X-1520Y5540D01*
X-9610Y1310D02*
X-9610Y990D01*
X-10050Y1000D02*
X-10050Y1310D01*
X-10150Y990D02*
X-9510Y990D01*
X-9510Y990D02*
X-9510Y1310D01*
X-9510Y1310D02*
X-10150Y1310D01*
X-10150Y1310D02*
X-10150Y990D01*
X-9610Y-665D02*
X-9610Y-985D01*
X-10050Y-975D02*
X-10050Y-665D01*
X-10150Y-985D02*
X-9510Y-985D01*
X-9510Y-985D02*
X-9510Y-665D01*
X-9510Y-665D02*
X-10150Y-665D01*
X-10150Y-665D02*
X-10150Y-985D01*
X-1055Y-8370D02*
X-735Y-8370D01*
X-745Y-8810D02*
X-1055Y-8810D01*
X-735Y-8910D02*
X-735Y-8270D01*
X-735Y-8270D02*
X-1055Y-8270D01*
X-1055Y-8270D02*
X-1055Y-8910D01*
X-1055Y-8910D02*
X-735Y-8910D01*
X-1870Y-8640D02*
X-1870Y-8140D01*
X-2370Y-8640D02*
X-2370Y-8150D01*
X-2520Y-8640D02*
X-1720Y-8640D01*
X-1720Y-8640D02*
X-1720Y-8140D01*
X-1720Y-8140D02*
X-2520Y-8140D01*
X-2520Y-8140D02*
X-2520Y-8640D01*
X1452Y-3535D02*
X1707Y-3280D01*
X1512Y-3535D02*
X1707Y-3340D01*
X1117Y-2985D02*
X1117Y-2725D01*
X742Y-2985D02*
X742Y-2725D01*
X1492Y-2985D02*
X1492Y-2725D01*
X1117Y-3535D02*
X1117Y-3795D01*
X742Y-3535D02*
X742Y-3795D01*
X1492Y-3535D02*
X1492Y-3795D01*
X1707Y-2985D02*
X527Y-2985D01*
X527Y-2985D02*
X527Y-3535D01*
X527Y-3535D02*
X1707Y-3535D01*
X1707Y-3535D02*
X1707Y-2985D01*
G54D15*
X-12860Y6210D02*
G75*
G03X-12860Y6210I-50J0D01*
G74*
G01*
X-12407Y6210D02*
G75*
G03X-12407Y6210I-502J0D01*
G74*
G01*
G54D11*
X-6060Y-6730D02*
X-6380Y-6730D01*
X-6370Y-6290D02*
X-6060Y-6290D01*
X-6380Y-6190D02*
X-6380Y-6830D01*
X-6380Y-6830D02*
X-6060Y-6830D01*
X-6060Y-6830D02*
X-6060Y-6190D01*
X-6060Y-6190D02*
X-6380Y-6190D01*
X-4700Y-7605D02*
X-4700Y-7925D01*
X-5140Y-7915D02*
X-5140Y-7605D01*
X-5240Y-7925D02*
X-4600Y-7925D01*
X-4600Y-7925D02*
X-4600Y-7605D01*
X-4600Y-7605D02*
X-5240Y-7605D01*
X-5240Y-7605D02*
X-5240Y-7925D01*
X-1875Y-6005D02*
X-1875Y-6325D01*
X-2315Y-6315D02*
X-2315Y-6005D01*
X-2415Y-6325D02*
X-1775Y-6325D01*
X-1775Y-6325D02*
X-1775Y-6005D01*
X-1775Y-6005D02*
X-2415Y-6005D01*
X-2415Y-6005D02*
X-2415Y-6325D01*
X-2210Y-9835D02*
X-2530Y-9835D01*
X-2520Y-9395D02*
X-2210Y-9395D01*
X-2530Y-9295D02*
X-2530Y-9935D01*
X-2530Y-9935D02*
X-2210Y-9935D01*
X-2210Y-9935D02*
X-2210Y-9295D01*
X-2210Y-9295D02*
X-2530Y-9295D01*
X-3235Y-7085D02*
X-3555Y-7085D01*
X-3545Y-6645D02*
X-3235Y-6645D01*
X-3555Y-6545D02*
X-3555Y-7185D01*
X-3555Y-7185D02*
X-3235Y-7185D01*
X-3235Y-7185D02*
X-3235Y-6545D01*
X-3235Y-6545D02*
X-3555Y-6545D01*
X-4970Y-9690D02*
X-4470Y-9690D01*
X-4970Y-9190D02*
X-4480Y-9190D01*
X-4970Y-9040D02*
X-4970Y-9840D01*
X-4970Y-9840D02*
X-4470Y-9840D01*
X-4470Y-9840D02*
X-4470Y-9040D01*
X-4470Y-9040D02*
X-4970Y-9040D01*
G54D15*
X550Y5050D02*
G75*
G03X550Y5050I-50J0D01*
G74*
G01*
X1002Y5050D02*
G75*
G03X1002Y5050I-502J0D01*
G74*
G01*
G54D11*
X-3270Y-3950D02*
X-3590Y-3950D01*
X-3580Y-3510D02*
X-3270Y-3510D01*
X-3590Y-3410D02*
X-3590Y-4050D01*
X-3590Y-4050D02*
X-3270Y-4050D01*
X-3270Y-4050D02*
X-3270Y-3410D01*
X-3270Y-3410D02*
X-3590Y-3410D01*
G54D15*
X2650Y4990D02*
G75*
G03X2650Y4990I-50J0D01*
G74*
G01*
X3102Y4990D02*
G75*
G03X3102Y4990I-502J0D01*
G74*
G01*
G54D17*
X1361Y-6137D02*
X1361Y-6297D01*
X1352Y-6315D01*
X1342Y-6325D01*
X1323Y-6334D01*
X1286Y-6334D01*
X1267Y-6325D01*
X1258Y-6315D01*
X1248Y-6297D01*
X1248Y-6137D01*
X1051Y-6334D02*
X1164Y-6334D01*
X1108Y-6334D02*
X1108Y-6137D01*
X1126Y-6165D01*
X1145Y-6184D01*
X1164Y-6194D01*
X882Y-6203D02*
X882Y-6334D01*
X929Y-6128D02*
X976Y-6269D01*
X854Y-6269D01*
G54D18*
X-11952Y2419D02*
X-11547Y2419D01*
X-11500Y2395D01*
X-11476Y2371D01*
X-11452Y2323D01*
X-11452Y2228D01*
X-11476Y2180D01*
X-11500Y2157D01*
X-11547Y2133D01*
X-11952Y2133D01*
X-11452Y1633D02*
X-11452Y1919D01*
X-11452Y1776D02*
X-11952Y1776D01*
X-11881Y1823D01*
X-11833Y1871D01*
X-11809Y1919D01*
X-11952Y1323D02*
X-11952Y1276D01*
X-11928Y1228D01*
X-11905Y1204D01*
X-11857Y1180D01*
X-11762Y1157D01*
X-11643Y1157D01*
X-11547Y1180D01*
X-11500Y1204D01*
X-11476Y1228D01*
X-11452Y1276D01*
X-11452Y1323D01*
X-11476Y1371D01*
X-11500Y1395D01*
X-11547Y1419D01*
X-11643Y1442D01*
X-11762Y1442D01*
X-11857Y1419D01*
X-11905Y1395D01*
X-11928Y1371D01*
X-11952Y1323D01*
G54D19*
X-3569Y-8214D02*
X-3565Y-8218D01*
X-3554Y-8221D01*
X-3546Y-8221D01*
X-3535Y-8218D01*
X-3527Y-8210D01*
X-3524Y-8203D01*
X-3520Y-8188D01*
X-3520Y-8176D01*
X-3524Y-8161D01*
X-3527Y-8154D01*
X-3535Y-8146D01*
X-3546Y-8142D01*
X-3554Y-8142D01*
X-3565Y-8146D01*
X-3569Y-8150D01*
X-3595Y-8142D02*
X-3644Y-8142D01*
X-3618Y-8173D01*
X-3629Y-8173D01*
X-3636Y-8176D01*
X-3640Y-8180D01*
X-3644Y-8188D01*
X-3644Y-8206D01*
X-3640Y-8214D01*
X-3636Y-8218D01*
X-3629Y-8221D01*
X-3606Y-8221D01*
X-3599Y-8218D01*
X-3595Y-8214D01*
X-3674Y-8150D02*
X-3678Y-8146D01*
X-3685Y-8142D01*
X-3704Y-8142D01*
X-3712Y-8146D01*
X-3715Y-8150D01*
X-3719Y-8158D01*
X-3719Y-8165D01*
X-3715Y-8176D01*
X-3670Y-8221D01*
X-3719Y-8221D01*
G54D20*
X-82Y-8582D02*
X-425Y-8582D01*
X-254Y-9182D02*
X-254Y-8582D01*
X-625Y-9182D02*
X-625Y-8582D01*
X-854Y-8582D01*
X-911Y-8611D01*
X-940Y-8640D01*
X-968Y-8697D01*
X-968Y-8782D01*
X-940Y-8840D01*
X-911Y-8868D01*
X-854Y-8897D01*
X-625Y-8897D01*
X-1511Y-8582D02*
X-1225Y-8582D01*
X-1197Y-8868D01*
X-1225Y-8840D01*
X-1282Y-8811D01*
X-1425Y-8811D01*
X-1482Y-8840D01*
X-1511Y-8868D01*
X-1540Y-8925D01*
X-1540Y-9068D01*
X-1511Y-9125D01*
X-1482Y-9154D01*
X-1425Y-9182D01*
X-1282Y-9182D01*
X-1225Y-9154D01*
X-1197Y-9125D01*
X647Y-5432D02*
X304Y-5432D01*
X475Y-6032D02*
X475Y-5432D01*
X104Y-6032D02*
X104Y-5432D01*
X-124Y-5432D01*
X-181Y-5461D01*
X-210Y-5490D01*
X-238Y-5547D01*
X-238Y-5632D01*
X-210Y-5690D01*
X-181Y-5718D01*
X-124Y-5747D01*
X104Y-5747D01*
X-752Y-5432D02*
X-638Y-5432D01*
X-581Y-5461D01*
X-552Y-5490D01*
X-495Y-5575D01*
X-467Y-5690D01*
X-467Y-5918D01*
X-495Y-5975D01*
X-524Y-6004D01*
X-581Y-6032D01*
X-695Y-6032D01*
X-752Y-6004D01*
X-781Y-5975D01*
X-810Y-5918D01*
X-810Y-5775D01*
X-781Y-5718D01*
X-752Y-5690D01*
X-695Y-5661D01*
X-581Y-5661D01*
X-524Y-5690D01*
X-495Y-5718D01*
X-467Y-5775D01*
G54D16*
X-1833Y7615D02*
X-2226Y7615D01*
X-2226Y7465D01*
X-2207Y7427D01*
X-2189Y7409D01*
X-2151Y7390D01*
X-2095Y7390D01*
X-2058Y7409D01*
X-2039Y7427D01*
X-2020Y7465D01*
X-2020Y7615D01*
X-2058Y7165D02*
X-2076Y7203D01*
X-2095Y7222D01*
X-2133Y7240D01*
X-2151Y7240D01*
X-2189Y7222D01*
X-2207Y7203D01*
X-2226Y7165D01*
X-2226Y7091D01*
X-2207Y7053D01*
X-2189Y7034D01*
X-2151Y7016D01*
X-2133Y7016D01*
X-2095Y7034D01*
X-2076Y7053D01*
X-2058Y7091D01*
X-2058Y7165D01*
X-2039Y7203D01*
X-2020Y7222D01*
X-1983Y7240D01*
X-1908Y7240D01*
X-1871Y7222D01*
X-1852Y7203D01*
X-1833Y7165D01*
X-1833Y7091D01*
X-1852Y7053D01*
X-1871Y7034D01*
X-1908Y7016D01*
X-1983Y7016D01*
X-2020Y7034D01*
X-2039Y7053D01*
X-2058Y7091D01*
G54D20*
X-5302Y-6852D02*
X-5645Y-6852D01*
X-5474Y-7452D02*
X-5474Y-6852D01*
X-5845Y-7452D02*
X-5845Y-6852D01*
X-6074Y-6852D01*
X-6131Y-6881D01*
X-6160Y-6910D01*
X-6188Y-6967D01*
X-6188Y-7052D01*
X-6160Y-7110D01*
X-6131Y-7138D01*
X-6074Y-7167D01*
X-5845Y-7167D01*
X-6702Y-7052D02*
X-6702Y-7452D01*
X-6560Y-6824D02*
X-6417Y-7252D01*
X-6788Y-7252D01*
G54D17*
X-4669Y-5787D02*
X-4669Y-5947D01*
X-4679Y-5965D01*
X-4688Y-5975D01*
X-4707Y-5984D01*
X-4744Y-5984D01*
X-4763Y-5975D01*
X-4773Y-5965D01*
X-4782Y-5947D01*
X-4782Y-5787D01*
X-4960Y-5787D02*
X-4923Y-5787D01*
X-4904Y-5797D01*
X-4895Y-5806D01*
X-4876Y-5834D01*
X-4866Y-5872D01*
X-4866Y-5947D01*
X-4876Y-5965D01*
X-4885Y-5975D01*
X-4904Y-5984D01*
X-4941Y-5984D01*
X-4960Y-5975D01*
X-4970Y-5965D01*
X-4979Y-5947D01*
X-4979Y-5900D01*
X-4970Y-5881D01*
X-4960Y-5872D01*
X-4941Y-5862D01*
X-4904Y-5862D01*
X-4885Y-5872D01*
X-4876Y-5881D01*
X-4866Y-5900D01*
X-3269Y-10132D02*
X-3269Y-10292D01*
X-3279Y-10310D01*
X-3288Y-10320D01*
X-3307Y-10329D01*
X-3344Y-10329D01*
X-3363Y-10320D01*
X-3373Y-10310D01*
X-3382Y-10292D01*
X-3382Y-10132D01*
X-3504Y-10217D02*
X-3485Y-10207D01*
X-3476Y-10198D01*
X-3466Y-10179D01*
X-3466Y-10170D01*
X-3476Y-10151D01*
X-3485Y-10142D01*
X-3504Y-10132D01*
X-3541Y-10132D01*
X-3560Y-10142D01*
X-3570Y-10151D01*
X-3579Y-10170D01*
X-3579Y-10179D01*
X-3570Y-10198D01*
X-3560Y-10207D01*
X-3541Y-10217D01*
X-3504Y-10217D01*
X-3485Y-10226D01*
X-3476Y-10235D01*
X-3466Y-10254D01*
X-3466Y-10292D01*
X-3476Y-10310D01*
X-3485Y-10320D01*
X-3504Y-10329D01*
X-3541Y-10329D01*
X-3560Y-10320D01*
X-3570Y-10310D01*
X-3579Y-10292D01*
X-3579Y-10254D01*
X-3570Y-10235D01*
X-3560Y-10226D01*
X-3541Y-10217D01*
X-1402Y-7014D02*
X-1242Y-7014D01*
X-1224Y-7024D01*
X-1214Y-7033D01*
X-1205Y-7052D01*
X-1205Y-7089D01*
X-1214Y-7108D01*
X-1224Y-7118D01*
X-1242Y-7127D01*
X-1402Y-7127D01*
X-1205Y-7230D02*
X-1205Y-7268D01*
X-1214Y-7286D01*
X-1224Y-7296D01*
X-1252Y-7315D01*
X-1289Y-7324D01*
X-1364Y-7324D01*
X-1383Y-7315D01*
X-1392Y-7305D01*
X-1402Y-7286D01*
X-1402Y-7249D01*
X-1392Y-7230D01*
X-1383Y-7221D01*
X-1364Y-7211D01*
X-1317Y-7211D01*
X-1299Y-7221D01*
X-1289Y-7230D01*
X-1280Y-7249D01*
X-1280Y-7286D01*
X-1289Y-7305D01*
X-1299Y-7315D01*
X-1317Y-7324D01*
X1361Y1049D02*
X1361Y890D01*
X1352Y871D01*
X1342Y862D01*
X1323Y852D01*
X1286Y852D01*
X1267Y862D01*
X1258Y871D01*
X1248Y890D01*
X1248Y1049D01*
X1051Y852D02*
X1164Y852D01*
X1108Y852D02*
X1108Y1049D01*
X1126Y1021D01*
X1145Y1002D01*
X1164Y993D01*
X976Y1031D02*
X967Y1040D01*
X948Y1049D01*
X901Y1049D01*
X882Y1040D01*
X873Y1031D01*
X864Y1012D01*
X864Y993D01*
X873Y965D01*
X986Y852D01*
X864Y852D01*
G54D19*
X-5725Y-9659D02*
X-5721Y-9655D01*
X-5718Y-9644D01*
X-5718Y-9636D01*
X-5721Y-9625D01*
X-5729Y-9617D01*
X-5736Y-9614D01*
X-5751Y-9610D01*
X-5763Y-9610D01*
X-5778Y-9614D01*
X-5785Y-9617D01*
X-5793Y-9625D01*
X-5797Y-9636D01*
X-5797Y-9644D01*
X-5793Y-9655D01*
X-5789Y-9659D01*
X-5797Y-9685D02*
X-5797Y-9734D01*
X-5766Y-9708D01*
X-5766Y-9719D01*
X-5763Y-9726D01*
X-5759Y-9730D01*
X-5751Y-9734D01*
X-5733Y-9734D01*
X-5725Y-9730D01*
X-5721Y-9726D01*
X-5718Y-9719D01*
X-5718Y-9696D01*
X-5721Y-9689D01*
X-5725Y-9685D01*
X-5718Y-9772D02*
X-5718Y-9787D01*
X-5721Y-9794D01*
X-5725Y-9798D01*
X-5736Y-9805D01*
X-5751Y-9809D01*
X-5781Y-9809D01*
X-5789Y-9805D01*
X-5793Y-9802D01*
X-5797Y-9794D01*
X-5797Y-9779D01*
X-5793Y-9772D01*
X-5789Y-9768D01*
X-5781Y-9764D01*
X-5763Y-9764D01*
X-5755Y-9768D01*
X-5751Y-9772D01*
X-5748Y-9779D01*
X-5748Y-9794D01*
X-5751Y-9802D01*
X-5755Y-9805D01*
X-5763Y-9809D01*
X-13204Y4200D02*
X-13200Y4196D01*
X-13189Y4193D01*
X-13181Y4193D01*
X-13170Y4196D01*
X-13162Y4204D01*
X-13159Y4211D01*
X-13155Y4226D01*
X-13155Y4238D01*
X-13159Y4253D01*
X-13162Y4260D01*
X-13170Y4268D01*
X-13181Y4272D01*
X-13189Y4272D01*
X-13200Y4268D01*
X-13204Y4264D01*
X-13271Y4245D02*
X-13271Y4193D01*
X-13253Y4275D02*
X-13234Y4219D01*
X-13283Y4219D01*
X-13324Y4238D02*
X-13317Y4241D01*
X-13313Y4245D01*
X-13309Y4253D01*
X-13309Y4256D01*
X-13313Y4264D01*
X-13317Y4268D01*
X-13324Y4272D01*
X-13339Y4272D01*
X-13347Y4268D01*
X-13350Y4264D01*
X-13354Y4256D01*
X-13354Y4253D01*
X-13350Y4245D01*
X-13347Y4241D01*
X-13339Y4238D01*
X-13324Y4238D01*
X-13317Y4234D01*
X-13313Y4230D01*
X-13309Y4223D01*
X-13309Y4208D01*
X-13313Y4200D01*
X-13317Y4196D01*
X-13324Y4193D01*
X-13339Y4193D01*
X-13347Y4196D01*
X-13350Y4200D01*
X-13354Y4208D01*
X-13354Y4223D01*
X-13350Y4230D01*
X-13347Y4234D01*
X-13339Y4238D01*
X-12629Y4200D02*
X-12625Y4196D01*
X-12614Y4193D01*
X-12606Y4193D01*
X-12595Y4196D01*
X-12587Y4204D01*
X-12584Y4211D01*
X-12580Y4226D01*
X-12580Y4238D01*
X-12584Y4253D01*
X-12587Y4260D01*
X-12595Y4268D01*
X-12606Y4272D01*
X-12614Y4272D01*
X-12625Y4268D01*
X-12629Y4264D01*
X-12696Y4245D02*
X-12696Y4193D01*
X-12678Y4275D02*
X-12659Y4219D01*
X-12708Y4219D01*
X-12730Y4272D02*
X-12779Y4272D01*
X-12753Y4241D01*
X-12764Y4241D01*
X-12772Y4238D01*
X-12775Y4234D01*
X-12779Y4226D01*
X-12779Y4208D01*
X-12775Y4200D01*
X-12772Y4196D01*
X-12764Y4193D01*
X-12742Y4193D01*
X-12734Y4196D01*
X-12730Y4200D01*
X-1995Y-9564D02*
X-1991Y-9560D01*
X-1988Y-9549D01*
X-1988Y-9541D01*
X-1991Y-9530D01*
X-1999Y-9522D01*
X-2006Y-9519D01*
X-2021Y-9515D01*
X-2033Y-9515D01*
X-2048Y-9519D01*
X-2055Y-9522D01*
X-2063Y-9530D01*
X-2067Y-9541D01*
X-2067Y-9549D01*
X-2063Y-9560D01*
X-2059Y-9564D01*
X-2040Y-9631D02*
X-1988Y-9631D01*
X-2070Y-9613D02*
X-2014Y-9594D01*
X-2014Y-9643D01*
X-2059Y-9669D02*
X-2063Y-9673D01*
X-2067Y-9680D01*
X-2067Y-9699D01*
X-2063Y-9707D01*
X-2059Y-9710D01*
X-2051Y-9714D01*
X-2044Y-9714D01*
X-2033Y-9710D01*
X-1988Y-9665D01*
X-1988Y-9714D01*
X2304Y-2934D02*
X2308Y-2930D01*
X2311Y-2919D01*
X2311Y-2911D01*
X2308Y-2900D01*
X2300Y-2892D01*
X2293Y-2889D01*
X2278Y-2885D01*
X2266Y-2885D01*
X2251Y-2889D01*
X2244Y-2892D01*
X2236Y-2900D01*
X2232Y-2911D01*
X2232Y-2919D01*
X2236Y-2930D01*
X2240Y-2934D01*
X2232Y-3005D02*
X2232Y-2968D01*
X2270Y-2964D01*
X2266Y-2968D01*
X2263Y-2975D01*
X2263Y-2994D01*
X2266Y-3001D01*
X2270Y-3005D01*
X2278Y-3009D01*
X2296Y-3009D01*
X2304Y-3005D01*
X2308Y-3001D01*
X2311Y-2994D01*
X2311Y-2975D01*
X2308Y-2968D01*
X2304Y-2964D01*
X2311Y-3084D02*
X2311Y-3039D01*
X2311Y-3062D02*
X2232Y-3062D01*
X2244Y-3054D01*
X2251Y-3047D01*
X2255Y-3039D01*
X2279Y515D02*
X2283Y519D01*
X2286Y530D01*
X2286Y538D01*
X2283Y549D01*
X2275Y557D01*
X2268Y560D01*
X2253Y564D01*
X2241Y564D01*
X2226Y560D01*
X2219Y557D01*
X2211Y549D01*
X2207Y538D01*
X2207Y530D01*
X2211Y519D01*
X2215Y515D01*
X2207Y444D02*
X2207Y481D01*
X2245Y485D01*
X2241Y481D01*
X2238Y474D01*
X2238Y455D01*
X2241Y448D01*
X2245Y444D01*
X2253Y440D01*
X2271Y440D01*
X2279Y444D01*
X2283Y448D01*
X2286Y455D01*
X2286Y474D01*
X2283Y481D01*
X2279Y485D01*
X2207Y391D02*
X2207Y384D01*
X2211Y376D01*
X2215Y372D01*
X2223Y369D01*
X2238Y365D01*
X2256Y365D01*
X2271Y369D01*
X2279Y372D01*
X2283Y376D01*
X2286Y384D01*
X2286Y391D01*
X2283Y399D01*
X2279Y402D01*
X2271Y406D01*
X2256Y410D01*
X2238Y410D01*
X2223Y406D01*
X2215Y402D01*
X2211Y399D01*
X2207Y391D01*
X-10505Y650D02*
X-10501Y654D01*
X-10498Y665D01*
X-10498Y673D01*
X-10501Y684D01*
X-10509Y692D01*
X-10516Y695D01*
X-10531Y699D01*
X-10543Y699D01*
X-10558Y695D01*
X-10565Y692D01*
X-10573Y684D01*
X-10577Y673D01*
X-10577Y665D01*
X-10573Y654D01*
X-10569Y650D01*
X-10550Y583D02*
X-10498Y583D01*
X-10580Y601D02*
X-10524Y620D01*
X-10524Y571D01*
X-10577Y504D02*
X-10577Y541D01*
X-10539Y545D01*
X-10543Y541D01*
X-10546Y534D01*
X-10546Y515D01*
X-10543Y507D01*
X-10539Y504D01*
X-10531Y500D01*
X-10513Y500D01*
X-10505Y504D01*
X-10501Y507D01*
X-10498Y515D01*
X-10498Y534D01*
X-10501Y541D01*
X-10505Y545D01*
G54D21*
X-10618Y-74D02*
X-10612Y-68D01*
X-10607Y-51D01*
X-10607Y-40D01*
X-10612Y-23D01*
X-10624Y-12D01*
X-10635Y-6D01*
X-10657Y-1D01*
X-10674Y-1D01*
X-10697Y-6D01*
X-10708Y-12D01*
X-10719Y-23D01*
X-10725Y-40D01*
X-10725Y-51D01*
X-10719Y-68D01*
X-10714Y-74D01*
X-10685Y-175D02*
X-10607Y-175D01*
X-10730Y-147D02*
X-10646Y-119D01*
X-10646Y-192D01*
X-10725Y-287D02*
X-10725Y-265D01*
X-10719Y-253D01*
X-10714Y-248D01*
X-10697Y-237D01*
X-10674Y-231D01*
X-10629Y-231D01*
X-10618Y-237D01*
X-10612Y-242D01*
X-10607Y-253D01*
X-10607Y-276D01*
X-10612Y-287D01*
X-10618Y-293D01*
X-10629Y-298D01*
X-10657Y-298D01*
X-10669Y-293D01*
X-10674Y-287D01*
X-10680Y-276D01*
X-10680Y-253D01*
X-10674Y-242D01*
X-10669Y-237D01*
X-10657Y-231D01*
G54D19*
X2304Y-6709D02*
X2308Y-6705D01*
X2311Y-6694D01*
X2311Y-6686D01*
X2308Y-6675D01*
X2300Y-6667D01*
X2293Y-6664D01*
X2278Y-6660D01*
X2266Y-6660D01*
X2251Y-6664D01*
X2244Y-6667D01*
X2236Y-6675D01*
X2232Y-6686D01*
X2232Y-6694D01*
X2236Y-6705D01*
X2240Y-6709D01*
X2232Y-6780D02*
X2232Y-6743D01*
X2270Y-6739D01*
X2266Y-6743D01*
X2263Y-6750D01*
X2263Y-6769D01*
X2266Y-6776D01*
X2270Y-6780D01*
X2278Y-6784D01*
X2296Y-6784D01*
X2304Y-6780D01*
X2308Y-6776D01*
X2311Y-6769D01*
X2311Y-6750D01*
X2308Y-6743D01*
X2304Y-6739D01*
X2240Y-6814D02*
X2236Y-6818D01*
X2232Y-6825D01*
X2232Y-6844D01*
X2236Y-6852D01*
X2240Y-6855D01*
X2248Y-6859D01*
X2255Y-6859D01*
X2266Y-6855D01*
X2311Y-6810D01*
X2311Y-6859D01*
X-1629Y6505D02*
X-1625Y6501D01*
X-1614Y6498D01*
X-1606Y6498D01*
X-1595Y6501D01*
X-1587Y6509D01*
X-1584Y6516D01*
X-1580Y6531D01*
X-1580Y6543D01*
X-1584Y6558D01*
X-1587Y6565D01*
X-1595Y6573D01*
X-1606Y6577D01*
X-1614Y6577D01*
X-1625Y6573D01*
X-1629Y6569D01*
X-1696Y6550D02*
X-1696Y6498D01*
X-1678Y6580D02*
X-1659Y6524D01*
X-1708Y6524D01*
X-1742Y6498D02*
X-1757Y6498D01*
X-1764Y6501D01*
X-1768Y6505D01*
X-1775Y6516D01*
X-1779Y6531D01*
X-1779Y6561D01*
X-1775Y6569D01*
X-1772Y6573D01*
X-1764Y6577D01*
X-1749Y6577D01*
X-1742Y6573D01*
X-1738Y6569D01*
X-1734Y6561D01*
X-1734Y6543D01*
X-1738Y6535D01*
X-1742Y6531D01*
X-1749Y6528D01*
X-1764Y6528D01*
X-1772Y6531D01*
X-1775Y6535D01*
X-1779Y6543D01*
X-10505Y1150D02*
X-10501Y1154D01*
X-10498Y1165D01*
X-10498Y1173D01*
X-10501Y1184D01*
X-10509Y1192D01*
X-10516Y1195D01*
X-10531Y1199D01*
X-10543Y1199D01*
X-10558Y1195D01*
X-10565Y1192D01*
X-10573Y1184D01*
X-10577Y1173D01*
X-10577Y1165D01*
X-10573Y1154D01*
X-10569Y1150D01*
X-10550Y1083D02*
X-10498Y1083D01*
X-10580Y1101D02*
X-10524Y1120D01*
X-10524Y1071D01*
X-10550Y1007D02*
X-10498Y1007D01*
X-10580Y1026D02*
X-10524Y1045D01*
X-10524Y996D01*
X-10530Y-774D02*
X-10526Y-770D01*
X-10523Y-759D01*
X-10523Y-751D01*
X-10526Y-740D01*
X-10534Y-732D01*
X-10541Y-729D01*
X-10556Y-725D01*
X-10568Y-725D01*
X-10583Y-729D01*
X-10590Y-732D01*
X-10598Y-740D01*
X-10602Y-751D01*
X-10602Y-759D01*
X-10598Y-770D01*
X-10594Y-774D01*
X-10575Y-841D02*
X-10523Y-841D01*
X-10605Y-823D02*
X-10549Y-804D01*
X-10549Y-853D01*
X-10602Y-875D02*
X-10602Y-928D01*
X-10523Y-894D01*
X-620Y-8539D02*
X-616Y-8535D01*
X-613Y-8524D01*
X-613Y-8516D01*
X-616Y-8505D01*
X-624Y-8497D01*
X-631Y-8494D01*
X-646Y-8490D01*
X-658Y-8490D01*
X-673Y-8494D01*
X-680Y-8497D01*
X-688Y-8505D01*
X-692Y-8516D01*
X-692Y-8524D01*
X-688Y-8535D01*
X-684Y-8539D01*
X-665Y-8606D02*
X-613Y-8606D01*
X-695Y-8588D02*
X-639Y-8569D01*
X-639Y-8618D01*
X-692Y-8663D02*
X-692Y-8670D01*
X-688Y-8678D01*
X-684Y-8682D01*
X-676Y-8685D01*
X-661Y-8689D01*
X-643Y-8689D01*
X-628Y-8685D01*
X-620Y-8682D01*
X-616Y-8678D01*
X-613Y-8670D01*
X-613Y-8663D01*
X-616Y-8655D01*
X-620Y-8652D01*
X-628Y-8648D01*
X-643Y-8644D01*
X-661Y-8644D01*
X-676Y-8648D01*
X-684Y-8652D01*
X-688Y-8655D01*
X-692Y-8663D01*
G54D21*
X-2044Y-8816D02*
X-2038Y-8822D01*
X-2021Y-8827D01*
X-2010Y-8827D01*
X-1993Y-8822D01*
X-1982Y-8810D01*
X-1976Y-8799D01*
X-1971Y-8777D01*
X-1971Y-8760D01*
X-1976Y-8737D01*
X-1982Y-8726D01*
X-1993Y-8715D01*
X-2010Y-8709D01*
X-2021Y-8709D01*
X-2038Y-8715D01*
X-2044Y-8721D01*
X-2083Y-8709D02*
X-2156Y-8709D01*
X-2117Y-8754D01*
X-2134Y-8754D01*
X-2145Y-8760D01*
X-2150Y-8765D01*
X-2156Y-8777D01*
X-2156Y-8805D01*
X-2150Y-8816D01*
X-2145Y-8822D01*
X-2134Y-8827D01*
X-2100Y-8827D01*
X-2089Y-8822D01*
X-2083Y-8816D01*
X-2195Y-8709D02*
X-2274Y-8709D01*
X-2223Y-8827D01*
G54D17*
X1361Y-2362D02*
X1361Y-2522D01*
X1352Y-2540D01*
X1342Y-2550D01*
X1323Y-2559D01*
X1286Y-2559D01*
X1267Y-2550D01*
X1258Y-2540D01*
X1248Y-2522D01*
X1248Y-2362D01*
X1051Y-2559D02*
X1164Y-2559D01*
X1108Y-2559D02*
X1108Y-2362D01*
X1126Y-2390D01*
X1145Y-2409D01*
X1164Y-2419D01*
X986Y-2362D02*
X864Y-2362D01*
X929Y-2437D01*
X901Y-2437D01*
X882Y-2447D01*
X873Y-2456D01*
X864Y-2475D01*
X864Y-2522D01*
X873Y-2540D01*
X882Y-2550D01*
X901Y-2559D01*
X958Y-2559D01*
X976Y-2550D01*
X986Y-2540D01*
G54D20*
X-12152Y7667D02*
X-12495Y7667D01*
X-12324Y7067D02*
X-12324Y7667D01*
X-12695Y7067D02*
X-12695Y7667D01*
X-12924Y7667D01*
X-12981Y7638D01*
X-13010Y7610D01*
X-13038Y7552D01*
X-13038Y7467D01*
X-13010Y7410D01*
X-12981Y7381D01*
X-12924Y7352D01*
X-12695Y7352D01*
X-13238Y7667D02*
X-13638Y7667D01*
X-13381Y7067D01*
G54D19*
X-6445Y-6459D02*
X-6441Y-6455D01*
X-6438Y-6444D01*
X-6438Y-6436D01*
X-6441Y-6425D01*
X-6449Y-6417D01*
X-6456Y-6414D01*
X-6471Y-6410D01*
X-6483Y-6410D01*
X-6498Y-6414D01*
X-6505Y-6417D01*
X-6513Y-6425D01*
X-6517Y-6436D01*
X-6517Y-6444D01*
X-6513Y-6455D01*
X-6509Y-6459D01*
X-6509Y-6489D02*
X-6513Y-6493D01*
X-6517Y-6500D01*
X-6517Y-6519D01*
X-6513Y-6526D01*
X-6509Y-6530D01*
X-6501Y-6534D01*
X-6494Y-6534D01*
X-6483Y-6530D01*
X-6438Y-6485D01*
X-6438Y-6534D01*
X-6517Y-6560D02*
X-6517Y-6613D01*
X-6438Y-6579D01*
X-4869Y-8039D02*
X-4865Y-8043D01*
X-4854Y-8046D01*
X-4846Y-8046D01*
X-4835Y-8043D01*
X-4827Y-8035D01*
X-4824Y-8028D01*
X-4820Y-8013D01*
X-4820Y-8001D01*
X-4824Y-7986D01*
X-4827Y-7979D01*
X-4835Y-7971D01*
X-4846Y-7967D01*
X-4854Y-7967D01*
X-4865Y-7971D01*
X-4869Y-7975D01*
X-4899Y-7975D02*
X-4903Y-7971D01*
X-4910Y-7967D01*
X-4929Y-7967D01*
X-4936Y-7971D01*
X-4940Y-7975D01*
X-4944Y-7983D01*
X-4944Y-7990D01*
X-4940Y-8001D01*
X-4895Y-8046D01*
X-4944Y-8046D01*
X-4989Y-8001D02*
X-4982Y-7998D01*
X-4978Y-7994D01*
X-4974Y-7986D01*
X-4974Y-7983D01*
X-4978Y-7975D01*
X-4982Y-7971D01*
X-4989Y-7967D01*
X-5004Y-7967D01*
X-5012Y-7971D01*
X-5015Y-7975D01*
X-5019Y-7983D01*
X-5019Y-7986D01*
X-5015Y-7994D01*
X-5012Y-7998D01*
X-5004Y-8001D01*
X-4989Y-8001D01*
X-4982Y-8005D01*
X-4978Y-8009D01*
X-4974Y-8016D01*
X-4974Y-8031D01*
X-4978Y-8039D01*
X-4982Y-8043D01*
X-4989Y-8046D01*
X-5004Y-8046D01*
X-5012Y-8043D01*
X-5015Y-8039D01*
X-5019Y-8031D01*
X-5019Y-8016D01*
X-5015Y-8009D01*
X-5012Y-8005D01*
X-5004Y-8001D01*
X-2044Y-6439D02*
X-2040Y-6443D01*
X-2029Y-6446D01*
X-2021Y-6446D01*
X-2010Y-6443D01*
X-2002Y-6435D01*
X-1999Y-6428D01*
X-1995Y-6413D01*
X-1995Y-6401D01*
X-1999Y-6386D01*
X-2002Y-6379D01*
X-2010Y-6371D01*
X-2021Y-6367D01*
X-2029Y-6367D01*
X-2040Y-6371D01*
X-2044Y-6375D01*
X-2070Y-6367D02*
X-2119Y-6367D01*
X-2093Y-6398D01*
X-2104Y-6398D01*
X-2111Y-6401D01*
X-2115Y-6405D01*
X-2119Y-6413D01*
X-2119Y-6431D01*
X-2115Y-6439D01*
X-2111Y-6443D01*
X-2104Y-6446D01*
X-2081Y-6446D01*
X-2074Y-6443D01*
X-2070Y-6439D01*
X-2190Y-6367D02*
X-2153Y-6367D01*
X-2149Y-6405D01*
X-2153Y-6401D01*
X-2160Y-6398D01*
X-2179Y-6398D01*
X-2187Y-6401D01*
X-2190Y-6405D01*
X-2194Y-6413D01*
X-2194Y-6431D01*
X-2190Y-6439D01*
X-2187Y-6443D01*
X-2179Y-6446D01*
X-2160Y-6446D01*
X-2153Y-6443D01*
X-2149Y-6439D01*
X-2595Y-9564D02*
X-2591Y-9560D01*
X-2588Y-9549D01*
X-2588Y-9541D01*
X-2591Y-9530D01*
X-2599Y-9522D01*
X-2606Y-9519D01*
X-2621Y-9515D01*
X-2633Y-9515D01*
X-2648Y-9519D01*
X-2655Y-9522D01*
X-2663Y-9530D01*
X-2667Y-9541D01*
X-2667Y-9549D01*
X-2663Y-9560D01*
X-2659Y-9564D01*
X-2667Y-9590D02*
X-2667Y-9639D01*
X-2636Y-9613D01*
X-2636Y-9624D01*
X-2633Y-9631D01*
X-2629Y-9635D01*
X-2621Y-9639D01*
X-2603Y-9639D01*
X-2595Y-9635D01*
X-2591Y-9631D01*
X-2588Y-9624D01*
X-2588Y-9601D01*
X-2591Y-9594D01*
X-2595Y-9590D01*
X-2640Y-9707D02*
X-2588Y-9707D01*
X-2670Y-9688D02*
X-2614Y-9669D01*
X-2614Y-9718D01*
X-3620Y-6814D02*
X-3616Y-6810D01*
X-3613Y-6799D01*
X-3613Y-6791D01*
X-3616Y-6780D01*
X-3624Y-6772D01*
X-3631Y-6769D01*
X-3646Y-6765D01*
X-3658Y-6765D01*
X-3673Y-6769D01*
X-3680Y-6772D01*
X-3688Y-6780D01*
X-3692Y-6791D01*
X-3692Y-6799D01*
X-3688Y-6810D01*
X-3684Y-6814D01*
X-3692Y-6840D02*
X-3692Y-6889D01*
X-3661Y-6863D01*
X-3661Y-6874D01*
X-3658Y-6881D01*
X-3654Y-6885D01*
X-3646Y-6889D01*
X-3628Y-6889D01*
X-3620Y-6885D01*
X-3616Y-6881D01*
X-3613Y-6874D01*
X-3613Y-6851D01*
X-3616Y-6844D01*
X-3620Y-6840D01*
X-3692Y-6938D02*
X-3692Y-6945D01*
X-3688Y-6953D01*
X-3684Y-6957D01*
X-3676Y-6960D01*
X-3661Y-6964D01*
X-3643Y-6964D01*
X-3628Y-6960D01*
X-3620Y-6957D01*
X-3616Y-6953D01*
X-3613Y-6945D01*
X-3613Y-6938D01*
X-3616Y-6930D01*
X-3620Y-6927D01*
X-3628Y-6923D01*
X-3643Y-6919D01*
X-3661Y-6919D01*
X-3676Y-6923D01*
X-3684Y-6927D01*
X-3688Y-6930D01*
X-3692Y-6938D01*
G54D21*
X-5073Y-9364D02*
X-5067Y-9358D01*
X-5062Y-9341D01*
X-5062Y-9330D01*
X-5067Y-9313D01*
X-5079Y-9302D01*
X-5090Y-9296D01*
X-5112Y-9291D01*
X-5129Y-9291D01*
X-5152Y-9296D01*
X-5163Y-9302D01*
X-5174Y-9313D01*
X-5180Y-9330D01*
X-5180Y-9341D01*
X-5174Y-9358D01*
X-5169Y-9364D01*
X-5180Y-9403D02*
X-5180Y-9476D01*
X-5135Y-9437D01*
X-5135Y-9454D01*
X-5129Y-9465D01*
X-5124Y-9470D01*
X-5112Y-9476D01*
X-5084Y-9476D01*
X-5073Y-9470D01*
X-5067Y-9465D01*
X-5062Y-9454D01*
X-5062Y-9420D01*
X-5067Y-9409D01*
X-5073Y-9403D01*
X-5180Y-9577D02*
X-5180Y-9555D01*
X-5174Y-9543D01*
X-5169Y-9538D01*
X-5152Y-9527D01*
X-5129Y-9521D01*
X-5084Y-9521D01*
X-5073Y-9527D01*
X-5067Y-9532D01*
X-5062Y-9543D01*
X-5062Y-9566D01*
X-5067Y-9577D01*
X-5073Y-9583D01*
X-5084Y-9588D01*
X-5112Y-9588D01*
X-5124Y-9583D01*
X-5129Y-9577D01*
X-5135Y-9566D01*
X-5135Y-9543D01*
X-5129Y-9532D01*
X-5124Y-9527D01*
X-5112Y-9521D01*
G54D20*
X1257Y4307D02*
X914Y4307D01*
X1085Y3707D02*
X1085Y4307D01*
X714Y3707D02*
X714Y4307D01*
X485Y4307D01*
X428Y4278D01*
X400Y4250D01*
X371Y4192D01*
X371Y4107D01*
X400Y4050D01*
X428Y4021D01*
X485Y3992D01*
X714Y3992D01*
X-200Y3707D02*
X142Y3707D01*
X-28Y3707D02*
X-28Y4307D01*
X28Y4221D01*
X85Y4164D01*
X142Y4135D01*
G54D19*
X-3638Y-3679D02*
X-3675Y-3652D01*
X-3638Y-3634D02*
X-3717Y-3634D01*
X-3717Y-3664D01*
X-3713Y-3671D01*
X-3709Y-3675D01*
X-3701Y-3679D01*
X-3690Y-3679D01*
X-3683Y-3675D01*
X-3679Y-3671D01*
X-3675Y-3664D01*
X-3675Y-3634D01*
X-3709Y-3709D02*
X-3713Y-3713D01*
X-3717Y-3720D01*
X-3717Y-3739D01*
X-3713Y-3746D01*
X-3709Y-3750D01*
X-3701Y-3754D01*
X-3694Y-3754D01*
X-3683Y-3750D01*
X-3638Y-3705D01*
X-3638Y-3754D01*
X-3717Y-3803D02*
X-3717Y-3810D01*
X-3713Y-3818D01*
X-3709Y-3822D01*
X-3701Y-3825D01*
X-3686Y-3829D01*
X-3668Y-3829D01*
X-3653Y-3825D01*
X-3645Y-3822D01*
X-3641Y-3818D01*
X-3638Y-3810D01*
X-3638Y-3803D01*
X-3641Y-3795D01*
X-3645Y-3792D01*
X-3653Y-3788D01*
X-3668Y-3784D01*
X-3686Y-3784D01*
X-3701Y-3788D01*
X-3709Y-3792D01*
X-3713Y-3795D01*
X-3717Y-3803D01*
G54D20*
X3357Y4247D02*
X3014Y4247D01*
X3185Y3647D02*
X3185Y4247D01*
X2814Y3647D02*
X2814Y4247D01*
X2585Y4247D01*
X2528Y4218D01*
X2500Y4190D01*
X2471Y4132D01*
X2471Y4047D01*
X2500Y3990D01*
X2528Y3961D01*
X2585Y3932D01*
X2814Y3932D01*
X2128Y3990D02*
X2185Y4018D01*
X2214Y4047D01*
X2242Y4104D01*
X2242Y4132D01*
X2214Y4190D01*
X2185Y4218D01*
X2128Y4247D01*
X2014Y4247D01*
X1957Y4218D01*
X1928Y4190D01*
X1900Y4132D01*
X1900Y4104D01*
X1928Y4047D01*
X1957Y4018D01*
X2014Y3990D01*
X2128Y3990D01*
X2185Y3961D01*
X2214Y3932D01*
X2242Y3875D01*
X2242Y3761D01*
X2214Y3704D01*
X2185Y3675D01*
X2128Y3647D01*
X2014Y3647D01*
X1957Y3675D01*
X1928Y3704D01*
X1900Y3761D01*
X1900Y3875D01*
X1928Y3932D01*
X1957Y3961D01*
X2014Y3990D01*
%LPC*%
G54D22*
X-14690Y-4109D03*
X-14690Y-5841D03*
G54D23*
X1492Y-7451D03*
X742Y-7451D03*
X1117Y-7451D03*
X742Y-6619D03*
X1492Y-6619D03*
X1117Y-6619D03*
G54D24*
X-8984Y-9050D03*
X-8000Y-9050D03*
X-7015Y-9050D03*
X-8984Y-10349D03*
X-8000Y-10349D03*
X-7015Y-10349D03*
G54D25*
X-8282Y5007D03*
X-8282Y4810D03*
X-8282Y4613D03*
X-8282Y4417D03*
X-8282Y4220D03*
X-8282Y4023D03*
X-8282Y3827D03*
X-8282Y3630D03*
X-8282Y3433D03*
X-8282Y3237D03*
X-8282Y3040D03*
X-8282Y2843D03*
G54D26*
X-8873Y2252D03*
X-9070Y2252D03*
X-9267Y2252D03*
X-9463Y2252D03*
X-9660Y2252D03*
X-9857Y2252D03*
X-10053Y2252D03*
X-10250Y2252D03*
X-10447Y2252D03*
X-10643Y2252D03*
X-10840Y2252D03*
X-11037Y2252D03*
G54D25*
X-11628Y2843D03*
X-11628Y3040D03*
X-11628Y3237D03*
X-11628Y3433D03*
X-11628Y3630D03*
X-11628Y3827D03*
X-11628Y4023D03*
X-11628Y4220D03*
X-11628Y4417D03*
X-11628Y4613D03*
X-11628Y4810D03*
X-11628Y5007D03*
G54D26*
X-11037Y5598D03*
X-10840Y5598D03*
X-10643Y5598D03*
X-10447Y5598D03*
X-10250Y5598D03*
X-10053Y5598D03*
X-9857Y5598D03*
X-9660Y5598D03*
X-9463Y5598D03*
X-9267Y5598D03*
X-9070Y5598D03*
X-8873Y5598D03*
G54D27*
X-3916Y-8440D03*
X-3324Y-8440D03*
G54D28*
X-840Y-10040D03*
X-110Y-6890D03*
G54D29*
X-2967Y8325D03*
X-5112Y8325D03*
X-2967Y7325D03*
X-5112Y7325D03*
X-5112Y5325D03*
X-2967Y5325D03*
X-5112Y6325D03*
X-2967Y6325D03*
X-2967Y9325D03*
X-5112Y9325D03*
G54D28*
X-6060Y-8310D03*
G54D23*
X-4445Y-7131D03*
X-5195Y-7131D03*
X-4820Y-7131D03*
X-5195Y-6299D03*
X-4445Y-6299D03*
X-3795Y-9024D03*
X-3045Y-9024D03*
X-3420Y-9024D03*
X-3045Y-9856D03*
X-3795Y-9856D03*
G54D30*
X-2511Y-7540D03*
X-2511Y-6790D03*
X-2511Y-7165D03*
X-1679Y-6790D03*
X-1679Y-7540D03*
G54D23*
X1492Y-263D03*
X742Y-263D03*
X1117Y-263D03*
X742Y568D03*
X1492Y568D03*
X1117Y568D03*
G54D31*
X-5500Y-10006D03*
X-5500Y-9414D03*
X-13255Y5146D03*
X-13255Y4554D03*
X-12655Y5146D03*
X-12655Y4554D03*
X-1770Y-9911D03*
X-1770Y-9319D03*
X2030Y-2689D03*
X2030Y-3281D03*
X2005Y761D03*
X2005Y169D03*
G54D27*
X-9534Y600D03*
X-10126Y600D03*
G54D32*
X-9455Y-125D03*
X-10205Y-125D03*
G54D31*
X2030Y-6464D03*
X2030Y-7056D03*
X-1680Y6156D03*
X-1680Y5564D03*
G54D27*
X-9534Y1150D03*
X-10126Y1150D03*
X-9534Y-825D03*
X-10126Y-825D03*
G54D31*
X-895Y-8294D03*
X-895Y-8886D03*
G54D32*
X-1745Y-8390D03*
X-2495Y-8390D03*
G54D23*
X1492Y-3676D03*
X742Y-3676D03*
X1117Y-3676D03*
X742Y-2844D03*
X1492Y-2844D03*
X1117Y-2844D03*
G54D28*
X-12910Y6210D03*
G54D31*
X-6220Y-6806D03*
X-6220Y-6214D03*
G54D27*
X-4624Y-7765D03*
X-5216Y-7765D03*
X-1799Y-6165D03*
X-2391Y-6165D03*
G54D31*
X-2370Y-9911D03*
X-2370Y-9319D03*
X-3395Y-7161D03*
X-3395Y-6569D03*
G54D33*
X-4720Y-9815D03*
X-4720Y-9065D03*
G54D34*
X4827Y8012D03*
X-11212Y9262D03*
X-11212Y-9737D03*
G54D35*
X4721Y-535D03*
X5918Y-535D03*
X5918Y-1535D03*
X4721Y-1535D03*
X4721Y-2535D03*
X5918Y-2535D03*
X5918Y-3535D03*
X4721Y-3535D03*
X4721Y-4535D03*
X5918Y-4535D03*
G54D36*
X5918Y-6535D03*
G54D35*
X4721Y-6535D03*
X5918Y-5535D03*
X4721Y-5535D03*
G54D28*
X500Y5050D03*
G54D31*
X-3430Y-4026D03*
X-3430Y-3434D03*
G54D28*
X2600Y4990D03*
M02*
