G04 (created by PCBNEW (2013-05-31 BZR 4019)-stable) date 6/26/2014 4:14:42 PM*
%MOIN*%
G04 Gerber Fmt 3.4, Leading zero omitted, Abs format*
%FSLAX34Y34*%
G01*
G70*
G90*
G04 APERTURE LIST*
%ADD10C,0.00590551*%
%ADD11C,0.00625*%
%ADD12C,0.011811*%
%ADD13C,0.005*%
%ADD14C,0.015*%
%ADD15C,0.008*%
%ADD16C,0.0078*%
%ADD17C,0.01*%
%ADD18C,0.0019685*%
%ADD19C,0.012*%
%ADD20C,0.0024*%
%ADD21C,0.0047*%
%ADD22C,0.0016*%
%ADD23C,0.0012*%
%ADD24C,0.0035*%
%ADD25C,0.0039*%
%ADD26R,0.0181X0.0422*%
%ADD27R,0.0926X0.0217*%
%ADD28R,0.1004X0.0807*%
%ADD29C,0.0374*%
%ADD30R,0.073X0.065*%
%ADD31R,0.0374X0.0414*%
%ADD32R,0.0295X0.0335*%
%ADD33R,0.0334X0.0334*%
%ADD34C,0.057*%
%ADD35R,0.0264094X0.0500315*%
%ADD36R,0.027X0.052*%
%ADD37R,0.0295X0.0118*%
%ADD38R,0.0118X0.0295*%
%ADD39R,0.0414X0.0374*%
%ADD40R,0.062X0.0118*%
%ADD41R,0.0118X0.062*%
%ADD42R,0.1397X0.0412*%
%ADD43R,0.1397X0.0413*%
%ADD44R,0.1358X0.061*%
%ADD45R,0.1357X0.061*%
%ADD46R,0.0689X0.0847*%
%ADD47C,0.0807*%
%ADD48R,0.0414X0.0256*%
%ADD49R,0.0208976X0.0114488*%
%ADD50R,0.0114488X0.0208976*%
%ADD51R,0.0334961X0.0334961*%
%ADD52R,0.0334961X0.0571181*%
%ADD53R,0.0571181X0.0334961*%
%ADD54R,0.061X0.0532*%
%ADD55C,0.182*%
%ADD56O,0.0807402X0.0610551*%
%ADD57R,0.0807402X0.0610551*%
%ADD58R,0.0611X0.0788*%
%ADD59R,0.0532X0.061*%
G04 APERTURE END LIST*
G54D10*
G54D11*
X5011Y567D02*
X4892Y484D01*
X5011Y424D02*
X4761Y424D01*
X4761Y519D01*
X4773Y543D01*
X4785Y555D01*
X4808Y567D01*
X4844Y567D01*
X4868Y555D01*
X4880Y543D01*
X4892Y519D01*
X4892Y424D01*
X5011Y793D02*
X5011Y674D01*
X4761Y674D01*
X5011Y876D02*
X4761Y876D01*
X4761Y936D01*
X4773Y972D01*
X4796Y995D01*
X4820Y1007D01*
X4868Y1019D01*
X4904Y1019D01*
X4951Y1007D01*
X4975Y995D01*
X4999Y972D01*
X5011Y936D01*
X5011Y876D01*
X5011Y1460D02*
X4892Y1376D01*
X5011Y1317D02*
X4761Y1317D01*
X4761Y1412D01*
X4773Y1436D01*
X4785Y1448D01*
X4808Y1460D01*
X4844Y1460D01*
X4868Y1448D01*
X4880Y1436D01*
X4892Y1412D01*
X4892Y1317D01*
X4880Y1567D02*
X4880Y1650D01*
X5011Y1686D02*
X5011Y1567D01*
X4761Y1567D01*
X4761Y1686D01*
X4880Y1876D02*
X4880Y1793D01*
X5011Y1793D02*
X4761Y1793D01*
X4761Y1912D01*
X4987Y2341D02*
X4999Y2329D01*
X5011Y2293D01*
X5011Y2269D01*
X4999Y2234D01*
X4975Y2210D01*
X4951Y2198D01*
X4904Y2186D01*
X4868Y2186D01*
X4820Y2198D01*
X4796Y2210D01*
X4773Y2234D01*
X4761Y2269D01*
X4761Y2293D01*
X4773Y2329D01*
X4785Y2341D01*
X4761Y2424D02*
X4761Y2591D01*
X5011Y2484D01*
X5011Y2686D02*
X4761Y2686D01*
X4761Y2781D01*
X4773Y2805D01*
X4785Y2817D01*
X4808Y2829D01*
X4844Y2829D01*
X4868Y2817D01*
X4880Y2805D01*
X4892Y2781D01*
X4892Y2686D01*
X4987Y3269D02*
X4999Y3257D01*
X5011Y3222D01*
X5011Y3198D01*
X4999Y3162D01*
X4975Y3138D01*
X4951Y3126D01*
X4904Y3115D01*
X4868Y3115D01*
X4820Y3126D01*
X4796Y3138D01*
X4773Y3162D01*
X4761Y3198D01*
X4761Y3222D01*
X4773Y3257D01*
X4785Y3269D01*
X4761Y3495D02*
X4761Y3376D01*
X4880Y3365D01*
X4868Y3376D01*
X4856Y3400D01*
X4856Y3460D01*
X4868Y3484D01*
X4880Y3495D01*
X4904Y3507D01*
X4963Y3507D01*
X4987Y3495D01*
X4999Y3484D01*
X5011Y3460D01*
X5011Y3400D01*
X4999Y3376D01*
X4987Y3365D01*
X5011Y3615D02*
X4761Y3615D01*
X4761Y3710D01*
X4773Y3734D01*
X4785Y3745D01*
X4808Y3757D01*
X4844Y3757D01*
X4868Y3745D01*
X4880Y3734D01*
X4892Y3710D01*
X4892Y3615D01*
X4987Y4198D02*
X4999Y4186D01*
X5011Y4150D01*
X5011Y4126D01*
X4999Y4091D01*
X4975Y4067D01*
X4951Y4055D01*
X4904Y4043D01*
X4868Y4043D01*
X4820Y4055D01*
X4796Y4067D01*
X4773Y4091D01*
X4761Y4126D01*
X4761Y4150D01*
X4773Y4186D01*
X4785Y4198D01*
X4761Y4281D02*
X4761Y4436D01*
X4856Y4353D01*
X4856Y4388D01*
X4868Y4412D01*
X4880Y4424D01*
X4904Y4436D01*
X4963Y4436D01*
X4987Y4424D01*
X4999Y4412D01*
X5011Y4388D01*
X5011Y4317D01*
X4999Y4293D01*
X4987Y4281D01*
X5011Y4543D02*
X4761Y4543D01*
X4761Y4638D01*
X4773Y4662D01*
X4785Y4674D01*
X4808Y4686D01*
X4844Y4686D01*
X4868Y4674D01*
X4880Y4662D01*
X4892Y4638D01*
X4892Y4543D01*
X4987Y5126D02*
X4999Y5115D01*
X5011Y5079D01*
X5011Y5055D01*
X4999Y5019D01*
X4975Y4995D01*
X4951Y4984D01*
X4904Y4972D01*
X4868Y4972D01*
X4820Y4984D01*
X4796Y4995D01*
X4773Y5019D01*
X4761Y5055D01*
X4761Y5079D01*
X4773Y5115D01*
X4785Y5126D01*
X4785Y5222D02*
X4773Y5234D01*
X4761Y5257D01*
X4761Y5317D01*
X4773Y5341D01*
X4785Y5353D01*
X4808Y5365D01*
X4832Y5365D01*
X4868Y5353D01*
X5011Y5210D01*
X5011Y5365D01*
X5011Y5472D02*
X4761Y5472D01*
X5011Y5615D01*
X4761Y5615D01*
X4987Y6067D02*
X4999Y6055D01*
X5011Y6019D01*
X5011Y5995D01*
X4999Y5960D01*
X4975Y5936D01*
X4951Y5924D01*
X4904Y5912D01*
X4868Y5912D01*
X4820Y5924D01*
X4796Y5936D01*
X4773Y5960D01*
X4761Y5995D01*
X4761Y6019D01*
X4773Y6055D01*
X4785Y6067D01*
X5011Y6305D02*
X5011Y6162D01*
X5011Y6234D02*
X4761Y6234D01*
X4796Y6210D01*
X4820Y6186D01*
X4832Y6162D01*
X5011Y6412D02*
X4761Y6412D01*
X5011Y6555D01*
X4761Y6555D01*
X5824Y370D02*
X5836Y406D01*
X5836Y466D01*
X5824Y489D01*
X5812Y501D01*
X5788Y513D01*
X5764Y513D01*
X5740Y501D01*
X5729Y489D01*
X5717Y466D01*
X5705Y418D01*
X5693Y394D01*
X5681Y382D01*
X5657Y370D01*
X5633Y370D01*
X5610Y382D01*
X5598Y394D01*
X5586Y418D01*
X5586Y478D01*
X5598Y513D01*
X5836Y620D02*
X5586Y620D01*
X5705Y620D02*
X5705Y763D01*
X5836Y763D02*
X5586Y763D01*
X5836Y882D02*
X5586Y882D01*
X5586Y942D01*
X5598Y978D01*
X5621Y1001D01*
X5645Y1013D01*
X5693Y1025D01*
X5729Y1025D01*
X5776Y1013D01*
X5800Y1001D01*
X5824Y978D01*
X5836Y942D01*
X5836Y882D01*
X5824Y1311D02*
X5836Y1347D01*
X5836Y1406D01*
X5824Y1430D01*
X5812Y1442D01*
X5788Y1454D01*
X5764Y1454D01*
X5740Y1442D01*
X5729Y1430D01*
X5717Y1406D01*
X5705Y1359D01*
X5693Y1335D01*
X5681Y1323D01*
X5657Y1311D01*
X5633Y1311D01*
X5610Y1323D01*
X5598Y1335D01*
X5586Y1359D01*
X5586Y1418D01*
X5598Y1454D01*
X5836Y1561D02*
X5586Y1561D01*
X5705Y1561D02*
X5705Y1704D01*
X5836Y1704D02*
X5586Y1704D01*
X5836Y1823D02*
X5586Y1823D01*
X5586Y1882D01*
X5598Y1918D01*
X5621Y1942D01*
X5645Y1954D01*
X5693Y1966D01*
X5729Y1966D01*
X5776Y1954D01*
X5800Y1942D01*
X5824Y1918D01*
X5836Y1882D01*
X5836Y1823D01*
X5812Y2406D02*
X5824Y2394D01*
X5836Y2359D01*
X5836Y2335D01*
X5824Y2299D01*
X5800Y2275D01*
X5776Y2263D01*
X5729Y2251D01*
X5693Y2251D01*
X5645Y2263D01*
X5621Y2275D01*
X5598Y2299D01*
X5586Y2335D01*
X5586Y2359D01*
X5598Y2394D01*
X5610Y2406D01*
X5693Y2549D02*
X5681Y2525D01*
X5669Y2513D01*
X5645Y2501D01*
X5633Y2501D01*
X5610Y2513D01*
X5598Y2525D01*
X5586Y2549D01*
X5586Y2597D01*
X5598Y2620D01*
X5610Y2632D01*
X5633Y2644D01*
X5645Y2644D01*
X5669Y2632D01*
X5681Y2620D01*
X5693Y2597D01*
X5693Y2549D01*
X5705Y2525D01*
X5717Y2513D01*
X5740Y2501D01*
X5788Y2501D01*
X5812Y2513D01*
X5824Y2525D01*
X5836Y2549D01*
X5836Y2597D01*
X5824Y2620D01*
X5812Y2632D01*
X5788Y2644D01*
X5740Y2644D01*
X5717Y2632D01*
X5705Y2620D01*
X5693Y2597D01*
X5836Y2751D02*
X5586Y2751D01*
X5586Y2847D01*
X5598Y2870D01*
X5610Y2882D01*
X5633Y2894D01*
X5669Y2894D01*
X5693Y2882D01*
X5705Y2870D01*
X5717Y2847D01*
X5717Y2751D01*
X5812Y3335D02*
X5824Y3323D01*
X5836Y3287D01*
X5836Y3263D01*
X5824Y3228D01*
X5800Y3204D01*
X5776Y3192D01*
X5729Y3180D01*
X5693Y3180D01*
X5645Y3192D01*
X5621Y3204D01*
X5598Y3228D01*
X5586Y3263D01*
X5586Y3287D01*
X5598Y3323D01*
X5610Y3335D01*
X5586Y3549D02*
X5586Y3501D01*
X5598Y3478D01*
X5610Y3466D01*
X5645Y3442D01*
X5693Y3430D01*
X5788Y3430D01*
X5812Y3442D01*
X5824Y3454D01*
X5836Y3478D01*
X5836Y3525D01*
X5824Y3549D01*
X5812Y3561D01*
X5788Y3573D01*
X5729Y3573D01*
X5705Y3561D01*
X5693Y3549D01*
X5681Y3525D01*
X5681Y3478D01*
X5693Y3454D01*
X5705Y3442D01*
X5729Y3430D01*
X5836Y3680D02*
X5586Y3680D01*
X5586Y3775D01*
X5598Y3799D01*
X5610Y3811D01*
X5633Y3823D01*
X5669Y3823D01*
X5693Y3811D01*
X5705Y3799D01*
X5717Y3775D01*
X5717Y3680D01*
X5812Y4263D02*
X5824Y4251D01*
X5836Y4216D01*
X5836Y4192D01*
X5824Y4156D01*
X5800Y4132D01*
X5776Y4120D01*
X5729Y4109D01*
X5693Y4109D01*
X5645Y4120D01*
X5621Y4132D01*
X5598Y4156D01*
X5586Y4192D01*
X5586Y4216D01*
X5598Y4251D01*
X5610Y4263D01*
X5669Y4478D02*
X5836Y4478D01*
X5574Y4418D02*
X5752Y4359D01*
X5752Y4513D01*
X5836Y4609D02*
X5586Y4609D01*
X5586Y4704D01*
X5598Y4728D01*
X5610Y4740D01*
X5633Y4751D01*
X5669Y4751D01*
X5693Y4740D01*
X5705Y4728D01*
X5717Y4704D01*
X5717Y4609D01*
X5812Y5192D02*
X5824Y5180D01*
X5836Y5144D01*
X5836Y5120D01*
X5824Y5085D01*
X5800Y5061D01*
X5776Y5049D01*
X5729Y5037D01*
X5693Y5037D01*
X5645Y5049D01*
X5621Y5061D01*
X5598Y5085D01*
X5586Y5120D01*
X5586Y5144D01*
X5598Y5180D01*
X5610Y5192D01*
X5610Y5287D02*
X5598Y5299D01*
X5586Y5323D01*
X5586Y5382D01*
X5598Y5406D01*
X5610Y5418D01*
X5633Y5430D01*
X5657Y5430D01*
X5693Y5418D01*
X5836Y5275D01*
X5836Y5430D01*
X5836Y5537D02*
X5586Y5537D01*
X5586Y5632D01*
X5598Y5656D01*
X5610Y5668D01*
X5633Y5680D01*
X5669Y5680D01*
X5693Y5668D01*
X5705Y5656D01*
X5717Y5632D01*
X5717Y5537D01*
X5812Y6120D02*
X5824Y6109D01*
X5836Y6073D01*
X5836Y6049D01*
X5824Y6013D01*
X5800Y5990D01*
X5776Y5978D01*
X5729Y5966D01*
X5693Y5966D01*
X5645Y5978D01*
X5621Y5990D01*
X5598Y6013D01*
X5586Y6049D01*
X5586Y6073D01*
X5598Y6109D01*
X5610Y6120D01*
X5836Y6359D02*
X5836Y6216D01*
X5836Y6287D02*
X5586Y6287D01*
X5621Y6263D01*
X5645Y6240D01*
X5657Y6216D01*
X5836Y6466D02*
X5586Y6466D01*
X5586Y6561D01*
X5598Y6585D01*
X5610Y6597D01*
X5633Y6609D01*
X5669Y6609D01*
X5693Y6597D01*
X5705Y6585D01*
X5717Y6561D01*
X5717Y6466D01*
G54D12*
X-170Y5078D02*
X-142Y5163D01*
X-114Y5191D01*
X-57Y5219D01*
X26Y5219D01*
X82Y5191D01*
X110Y5163D01*
X139Y5106D01*
X139Y4881D01*
X-451Y4881D01*
X-451Y5078D01*
X-423Y5134D01*
X-395Y5163D01*
X-339Y5191D01*
X-282Y5191D01*
X-226Y5163D01*
X-198Y5134D01*
X-170Y5078D01*
X-170Y4881D01*
X139Y5472D02*
X-254Y5472D01*
X-142Y5472D02*
X-198Y5500D01*
X-226Y5528D01*
X-254Y5584D01*
X-254Y5641D01*
X139Y6091D02*
X-170Y6091D01*
X-226Y6062D01*
X-254Y6006D01*
X-254Y5894D01*
X-226Y5837D01*
X110Y6091D02*
X139Y6034D01*
X139Y5894D01*
X110Y5837D01*
X54Y5809D01*
X-1Y5809D01*
X-57Y5837D01*
X-85Y5894D01*
X-85Y6034D01*
X-114Y6091D01*
X139Y6372D02*
X-254Y6372D01*
X-451Y6372D02*
X-423Y6344D01*
X-395Y6372D01*
X-423Y6400D01*
X-451Y6372D01*
X-395Y6372D01*
X-254Y6653D02*
X139Y6653D01*
X-198Y6653D02*
X-226Y6681D01*
X-254Y6737D01*
X-254Y6822D01*
X-226Y6878D01*
X-170Y6906D01*
X139Y6906D01*
X139Y7187D02*
X-451Y7187D01*
X-226Y7187D02*
X-254Y7244D01*
X-254Y7356D01*
X-226Y7412D01*
X-198Y7440D01*
X-142Y7469D01*
X26Y7469D01*
X82Y7440D01*
X110Y7412D01*
X139Y7356D01*
X139Y7244D01*
X110Y7187D01*
X139Y7806D02*
X110Y7750D01*
X82Y7722D01*
X26Y7693D01*
X-142Y7693D01*
X-198Y7722D01*
X-226Y7750D01*
X-254Y7806D01*
X-254Y7890D01*
X-226Y7947D01*
X-198Y7975D01*
X-142Y8003D01*
X26Y8003D01*
X82Y7975D01*
X110Y7947D01*
X139Y7890D01*
X139Y7806D01*
X139Y8509D02*
X-170Y8509D01*
X-226Y8481D01*
X-254Y8425D01*
X-254Y8312D01*
X-226Y8256D01*
X110Y8509D02*
X139Y8453D01*
X139Y8312D01*
X110Y8256D01*
X54Y8228D01*
X-1Y8228D01*
X-57Y8256D01*
X-85Y8312D01*
X-85Y8453D01*
X-114Y8509D01*
X139Y8790D02*
X-254Y8790D01*
X-142Y8790D02*
X-198Y8818D01*
X-226Y8846D01*
X-254Y8903D01*
X-254Y8959D01*
X139Y9409D02*
X-451Y9409D01*
X110Y9409D02*
X139Y9353D01*
X139Y9240D01*
X110Y9184D01*
X82Y9156D01*
X26Y9128D01*
X-142Y9128D01*
X-198Y9156D01*
X-226Y9184D01*
X-254Y9240D01*
X-254Y9353D01*
X-226Y9409D01*
X493Y3194D02*
X1083Y3335D01*
X662Y3447D01*
X1083Y3560D01*
X493Y3700D01*
X1083Y3925D02*
X690Y3925D01*
X493Y3925D02*
X521Y3897D01*
X549Y3925D01*
X521Y3953D01*
X493Y3925D01*
X549Y3925D01*
X1083Y4206D02*
X690Y4206D01*
X802Y4206D02*
X746Y4235D01*
X718Y4263D01*
X690Y4319D01*
X690Y4375D01*
X1055Y4797D02*
X1083Y4741D01*
X1083Y4628D01*
X1055Y4572D01*
X999Y4544D01*
X774Y4544D01*
X718Y4572D01*
X690Y4628D01*
X690Y4741D01*
X718Y4797D01*
X774Y4825D01*
X830Y4825D01*
X887Y4544D01*
X1083Y5163D02*
X1055Y5106D01*
X999Y5078D01*
X493Y5078D01*
X1055Y5612D02*
X1083Y5556D01*
X1083Y5444D01*
X1055Y5388D01*
X999Y5359D01*
X774Y5359D01*
X718Y5388D01*
X690Y5444D01*
X690Y5556D01*
X718Y5612D01*
X774Y5641D01*
X830Y5641D01*
X887Y5359D01*
X1055Y5866D02*
X1083Y5922D01*
X1083Y6034D01*
X1055Y6091D01*
X999Y6119D01*
X971Y6119D01*
X915Y6091D01*
X887Y6034D01*
X887Y5950D01*
X858Y5894D01*
X802Y5866D01*
X774Y5866D01*
X718Y5894D01*
X690Y5950D01*
X690Y6034D01*
X718Y6091D01*
X1055Y6344D02*
X1083Y6400D01*
X1083Y6512D01*
X1055Y6569D01*
X999Y6597D01*
X971Y6597D01*
X915Y6569D01*
X887Y6512D01*
X887Y6428D01*
X858Y6372D01*
X802Y6344D01*
X774Y6344D01*
X718Y6372D01*
X690Y6428D01*
X690Y6512D01*
X718Y6569D01*
X1083Y7637D02*
X802Y7440D01*
X1083Y7300D02*
X493Y7300D01*
X493Y7525D01*
X521Y7581D01*
X549Y7609D01*
X605Y7637D01*
X690Y7637D01*
X746Y7609D01*
X774Y7581D01*
X802Y7525D01*
X802Y7300D01*
X1055Y8115D02*
X1083Y8059D01*
X1083Y7947D01*
X1055Y7890D01*
X999Y7862D01*
X774Y7862D01*
X718Y7890D01*
X690Y7947D01*
X690Y8059D01*
X718Y8115D01*
X774Y8143D01*
X830Y8143D01*
X887Y7862D01*
X690Y8340D02*
X1083Y8481D01*
X690Y8621D01*
X1027Y8846D02*
X1055Y8875D01*
X1083Y8846D01*
X1055Y8818D01*
X1027Y8846D01*
X1083Y8846D01*
X549Y9100D02*
X521Y9128D01*
X493Y9184D01*
X493Y9325D01*
X521Y9381D01*
X549Y9409D01*
X605Y9437D01*
X662Y9437D01*
X746Y9409D01*
X1083Y9071D01*
X1083Y9437D01*
G54D13*
X100Y-9500D02*
X100Y-9860D01*
X360Y-9500D02*
X360Y-9860D01*
X610Y-9500D02*
X610Y-9860D01*
X-150Y-9500D02*
X-150Y-9860D01*
X-150Y-8320D02*
X-150Y-7960D01*
X100Y-8320D02*
X100Y-7960D01*
X610Y-8320D02*
X610Y-7960D01*
X360Y-8320D02*
X360Y-7960D01*
X695Y-8555D02*
G75*
G03X695Y-8555I-111J0D01*
G74*
G01*
X-361Y-9501D02*
X821Y-9501D01*
X821Y-9501D02*
X821Y-8319D01*
X821Y-8319D02*
X-361Y-8319D01*
X-361Y-8319D02*
X-361Y-9501D01*
G54D14*
X-16442Y-3459D02*
X-16442Y-6491D01*
X-16836Y-3459D02*
X-16836Y-6491D01*
X-16836Y-6491D02*
X-13214Y-6491D01*
X-13214Y-6491D02*
X-13214Y-3459D01*
X-13214Y-3459D02*
X-16836Y-3459D01*
G54D13*
X-11995Y-1350D02*
X-11355Y-1350D01*
X-11355Y-450D02*
X-11995Y-450D01*
X-11355Y-270D02*
X-11995Y-270D01*
X-11995Y-270D02*
X-11995Y-1530D01*
X-11995Y-1530D02*
X-11355Y-1530D01*
X-11355Y-1530D02*
X-11355Y-270D01*
X3075Y305D02*
X3075Y625D01*
X2635Y615D02*
X2635Y305D01*
X2535Y625D02*
X3175Y625D01*
X3175Y625D02*
X3175Y305D01*
X3175Y305D02*
X2535Y305D01*
X2535Y305D02*
X2535Y625D01*
X3075Y-1695D02*
X3075Y-1375D01*
X2635Y-1385D02*
X2635Y-1695D01*
X2535Y-1375D02*
X3175Y-1375D01*
X3175Y-1375D02*
X3175Y-1695D01*
X3175Y-1695D02*
X2535Y-1695D01*
X2535Y-1695D02*
X2535Y-1375D01*
X3075Y-2195D02*
X3075Y-1875D01*
X2635Y-1885D02*
X2635Y-2195D01*
X2535Y-1875D02*
X3175Y-1875D01*
X3175Y-1875D02*
X3175Y-2195D01*
X3175Y-2195D02*
X2535Y-2195D01*
X2535Y-2195D02*
X2535Y-1875D01*
X3075Y-3195D02*
X3075Y-2875D01*
X2635Y-2885D02*
X2635Y-3195D01*
X2535Y-2875D02*
X3175Y-2875D01*
X3175Y-2875D02*
X3175Y-3195D01*
X3175Y-3195D02*
X2535Y-3195D01*
X2535Y-3195D02*
X2535Y-2875D01*
X3075Y1805D02*
X3075Y2125D01*
X2635Y2115D02*
X2635Y1805D01*
X2535Y2125D02*
X3175Y2125D01*
X3175Y2125D02*
X3175Y1805D01*
X3175Y1805D02*
X2535Y1805D01*
X2535Y1805D02*
X2535Y2125D01*
X3075Y-195D02*
X3075Y125D01*
X2635Y115D02*
X2635Y-195D01*
X2535Y125D02*
X3175Y125D01*
X3175Y125D02*
X3175Y-195D01*
X3175Y-195D02*
X2535Y-195D01*
X2535Y-195D02*
X2535Y125D01*
X-7445Y-5940D02*
X-7445Y-6260D01*
X-7005Y-6250D02*
X-7005Y-5940D01*
X-6905Y-6260D02*
X-7545Y-6260D01*
X-7545Y-6260D02*
X-7545Y-5940D01*
X-7545Y-5940D02*
X-6905Y-5940D01*
X-6905Y-5940D02*
X-6905Y-6260D01*
X-9110Y-4620D02*
X-8890Y-4620D01*
X-9110Y-4880D02*
X-8890Y-4880D01*
X-9110Y-4960D02*
X-8890Y-4960D01*
X-8890Y-4960D02*
X-8890Y-4540D01*
X-8890Y-4540D02*
X-9110Y-4540D01*
X-9110Y-4540D02*
X-9110Y-4960D01*
X-15403Y8393D02*
X-15797Y8393D01*
X-15797Y8157D02*
X-15403Y8157D01*
X-15561Y8275D02*
X-15639Y8275D01*
X-15679Y8236D02*
X-15521Y8236D01*
X-15521Y8236D02*
X-15600Y8314D01*
X-15600Y8314D02*
X-15679Y8236D01*
X-15797Y7960D02*
X-15797Y8590D01*
X-15797Y8590D02*
X-15403Y8590D01*
X-15403Y8590D02*
X-15403Y7960D01*
X-15403Y7960D02*
X-15797Y7960D01*
X-14303Y8393D02*
X-14697Y8393D01*
X-14697Y8157D02*
X-14303Y8157D01*
X-14461Y8275D02*
X-14539Y8275D01*
X-14579Y8236D02*
X-14421Y8236D01*
X-14421Y8236D02*
X-14500Y8314D01*
X-14500Y8314D02*
X-14579Y8236D01*
X-14697Y7960D02*
X-14697Y8590D01*
X-14697Y8590D02*
X-14303Y8590D01*
X-14303Y8590D02*
X-14303Y7960D01*
X-14303Y7960D02*
X-14697Y7960D01*
X-15797Y-8893D02*
X-15403Y-8893D01*
X-15403Y-8657D02*
X-15797Y-8657D01*
X-15639Y-8775D02*
X-15561Y-8775D01*
X-15521Y-8736D02*
X-15679Y-8736D01*
X-15679Y-8736D02*
X-15600Y-8814D01*
X-15600Y-8814D02*
X-15521Y-8736D01*
X-15403Y-8460D02*
X-15403Y-9090D01*
X-15403Y-9090D02*
X-15797Y-9090D01*
X-15797Y-9090D02*
X-15797Y-8460D01*
X-15797Y-8460D02*
X-15403Y-8460D01*
X-14697Y-8893D02*
X-14303Y-8893D01*
X-14303Y-8657D02*
X-14697Y-8657D01*
X-14539Y-8775D02*
X-14461Y-8775D01*
X-14421Y-8736D02*
X-14579Y-8736D01*
X-14579Y-8736D02*
X-14500Y-8814D01*
X-14500Y-8814D02*
X-14421Y-8736D01*
X-14303Y-8460D02*
X-14303Y-9090D01*
X-14303Y-9090D02*
X-14697Y-9090D01*
X-14697Y-9090D02*
X-14697Y-8460D01*
X-14697Y-8460D02*
X-14303Y-8460D01*
G54D10*
X-9771Y-9700D02*
X-8492Y-9700D01*
X-8492Y-9700D02*
X-8492Y-10093D01*
X-6228Y-10487D02*
X-6523Y-10487D01*
X-6228Y-8912D02*
X-6523Y-8912D01*
X-9771Y-10487D02*
X-9476Y-10487D01*
X-9771Y-8912D02*
X-9476Y-8912D01*
X-9771Y-9700D02*
X-9771Y-8912D01*
X-6228Y-8912D02*
X-6228Y-9700D01*
X-6228Y-9700D02*
X-6228Y-10487D01*
X-9771Y-10487D02*
X-9771Y-9700D01*
G54D13*
X2635Y-375D02*
X2635Y-695D01*
X3075Y-685D02*
X3075Y-375D01*
X3175Y-695D02*
X2535Y-695D01*
X2535Y-695D02*
X2535Y-375D01*
X2535Y-375D02*
X3175Y-375D01*
X3175Y-375D02*
X3175Y-695D01*
X2635Y1625D02*
X2635Y1305D01*
X3075Y1315D02*
X3075Y1625D01*
X3175Y1305D02*
X2535Y1305D01*
X2535Y1305D02*
X2535Y1625D01*
X2535Y1625D02*
X3175Y1625D01*
X3175Y1625D02*
X3175Y1305D01*
X2635Y1125D02*
X2635Y805D01*
X3075Y815D02*
X3075Y1125D01*
X3175Y805D02*
X2535Y805D01*
X2535Y805D02*
X2535Y1125D01*
X2535Y1125D02*
X3175Y1125D01*
X3175Y1125D02*
X3175Y805D01*
X2635Y-875D02*
X2635Y-1195D01*
X3075Y-1185D02*
X3075Y-875D01*
X3175Y-1195D02*
X2535Y-1195D01*
X2535Y-1195D02*
X2535Y-875D01*
X2535Y-875D02*
X3175Y-875D01*
X3175Y-875D02*
X3175Y-1195D01*
X2635Y-2375D02*
X2635Y-2695D01*
X3075Y-2685D02*
X3075Y-2375D01*
X3175Y-2695D02*
X2535Y-2695D01*
X2535Y-2695D02*
X2535Y-2375D01*
X2535Y-2375D02*
X3175Y-2375D01*
X3175Y-2375D02*
X3175Y-2695D01*
X2635Y-3375D02*
X2635Y-3695D01*
X3075Y-3685D02*
X3075Y-3375D01*
X3175Y-3695D02*
X2535Y-3695D01*
X2535Y-3695D02*
X2535Y-3375D01*
X2535Y-3375D02*
X3175Y-3375D01*
X3175Y-3375D02*
X3175Y-3695D01*
X2635Y-4375D02*
X2635Y-4695D01*
X3075Y-4685D02*
X3075Y-4375D01*
X3175Y-4695D02*
X2535Y-4695D01*
X2535Y-4695D02*
X2535Y-4375D01*
X2535Y-4375D02*
X3175Y-4375D01*
X3175Y-4375D02*
X3175Y-4695D01*
G54D10*
X-9954Y-6800D02*
X-10151Y-6800D01*
X-10151Y-6800D02*
X-10151Y-7154D01*
X-10151Y-7154D02*
X-9954Y-7154D01*
X-8695Y-7154D02*
X-8695Y-6445D01*
X-9954Y-7154D02*
X-9954Y-6445D01*
G54D13*
X-4610Y5645D02*
X-4610Y5965D01*
X-5050Y5955D02*
X-5050Y5645D01*
X-5150Y5965D02*
X-4510Y5965D01*
X-4510Y5965D02*
X-4510Y5645D01*
X-4510Y5645D02*
X-5150Y5645D01*
X-5150Y5645D02*
X-5150Y5965D01*
G54D15*
X-966Y-8383D02*
X-1594Y-8383D01*
X-1594Y-7597D02*
X-966Y-7597D01*
X-887Y-7714D02*
G75*
G03X-965Y-7597I-97J19D01*
G74*
G01*
X-1594Y-7596D02*
G75*
G03X-1673Y-7714I19J-98D01*
G74*
G01*
X-1672Y-8265D02*
G75*
G03X-1594Y-8382I97J-19D01*
G74*
G01*
X-965Y-8383D02*
G75*
G03X-886Y-8265I-19J98D01*
G74*
G01*
G54D16*
X-4892Y6393D02*
X-4892Y6600D01*
X-4892Y7760D02*
X-4892Y7967D01*
X-4892Y7967D02*
X-4685Y7967D01*
X-3525Y7967D02*
X-3318Y7967D01*
X-3318Y6393D02*
X-3318Y6600D01*
X-3318Y7760D02*
X-3318Y7967D01*
X-4892Y6393D02*
X-4685Y6393D01*
X-3525Y6393D02*
X-3318Y6393D01*
X-3535Y6610D02*
X-3535Y6777D01*
X-3180Y6600D02*
X-3180Y6777D01*
X-3525Y6600D02*
X-3180Y6600D01*
G54D13*
X-7690Y-7400D02*
X-7370Y-7400D01*
X-7380Y-6960D02*
X-7690Y-6960D01*
X-7370Y-6860D02*
X-7370Y-7500D01*
X-7370Y-7500D02*
X-7690Y-7500D01*
X-7690Y-7500D02*
X-7690Y-6860D01*
X-7690Y-6860D02*
X-7370Y-6860D01*
X3075Y-9195D02*
X3075Y-8875D01*
X2635Y-8885D02*
X2635Y-9195D01*
X2535Y-8875D02*
X3175Y-8875D01*
X3175Y-8875D02*
X3175Y-9195D01*
X3175Y-9195D02*
X2535Y-9195D01*
X2535Y-9195D02*
X2535Y-8875D01*
X-9340Y-4430D02*
X-9660Y-4430D01*
X-9650Y-4870D02*
X-9340Y-4870D01*
X-9660Y-4970D02*
X-9660Y-4330D01*
X-9660Y-4330D02*
X-9340Y-4330D01*
X-9340Y-4330D02*
X-9340Y-4970D01*
X-9340Y-4970D02*
X-9660Y-4970D01*
X-15495Y9285D02*
X-15495Y8965D01*
X-15055Y8975D02*
X-15055Y9285D01*
X-14955Y8965D02*
X-15595Y8965D01*
X-15595Y8965D02*
X-15595Y9285D01*
X-15595Y9285D02*
X-14955Y9285D01*
X-14955Y9285D02*
X-14955Y8965D01*
X-13710Y8680D02*
X-13390Y8680D01*
X-13400Y9120D02*
X-13710Y9120D01*
X-13390Y9220D02*
X-13390Y8580D01*
X-13390Y8580D02*
X-13710Y8580D01*
X-13710Y8580D02*
X-13710Y9220D01*
X-13710Y9220D02*
X-13390Y9220D01*
X-7265Y-4055D02*
X-7585Y-4055D01*
X-7575Y-4495D02*
X-7265Y-4495D01*
X-7585Y-4595D02*
X-7585Y-3955D01*
X-7585Y-3955D02*
X-7265Y-3955D01*
X-7265Y-3955D02*
X-7265Y-4595D01*
X-7265Y-4595D02*
X-7585Y-4595D01*
X-6715Y-4055D02*
X-7035Y-4055D01*
X-7025Y-4495D02*
X-6715Y-4495D01*
X-7035Y-4595D02*
X-7035Y-3955D01*
X-7035Y-3955D02*
X-6715Y-3955D01*
X-6715Y-3955D02*
X-6715Y-4595D01*
X-6715Y-4595D02*
X-7035Y-4595D01*
X-10010Y-4430D02*
X-10330Y-4430D01*
X-10320Y-4870D02*
X-10010Y-4870D01*
X-10330Y-4970D02*
X-10330Y-4330D01*
X-10330Y-4330D02*
X-10010Y-4330D01*
X-10010Y-4330D02*
X-10010Y-4970D01*
X-10010Y-4970D02*
X-10330Y-4970D01*
X-10165Y-6980D02*
X-10485Y-6980D01*
X-10475Y-7420D02*
X-10165Y-7420D01*
X-10485Y-7520D02*
X-10485Y-6880D01*
X-10485Y-6880D02*
X-10165Y-6880D01*
X-10165Y-6880D02*
X-10165Y-7520D01*
X-10165Y-7520D02*
X-10485Y-7520D01*
X-9180Y-2360D02*
X-9180Y-2040D01*
X-9620Y-2050D02*
X-9620Y-2360D01*
X-9720Y-2040D02*
X-9080Y-2040D01*
X-9080Y-2040D02*
X-9080Y-2360D01*
X-9080Y-2360D02*
X-9720Y-2360D01*
X-9720Y-2360D02*
X-9720Y-2040D01*
X3075Y-6195D02*
X3075Y-5875D01*
X2635Y-5885D02*
X2635Y-6195D01*
X2535Y-5875D02*
X3175Y-5875D01*
X3175Y-5875D02*
X3175Y-6195D01*
X3175Y-6195D02*
X2535Y-6195D01*
X2535Y-6195D02*
X2535Y-5875D01*
X-6340Y-1700D02*
X-6340Y-2020D01*
X-5900Y-2010D02*
X-5900Y-1700D01*
X-5800Y-2020D02*
X-6440Y-2020D01*
X-6440Y-2020D02*
X-6440Y-1700D01*
X-6440Y-1700D02*
X-5800Y-1700D01*
X-5800Y-1700D02*
X-5800Y-2020D01*
X-5560Y-2460D02*
X-5880Y-2460D01*
X-5870Y-2900D02*
X-5560Y-2900D01*
X-5880Y-3000D02*
X-5880Y-2360D01*
X-5880Y-2360D02*
X-5560Y-2360D01*
X-5560Y-2360D02*
X-5560Y-3000D01*
X-5560Y-3000D02*
X-5880Y-3000D01*
X-8080Y-7060D02*
X-8400Y-7060D01*
X-8390Y-7500D02*
X-8080Y-7500D01*
X-8400Y-7600D02*
X-8400Y-6960D01*
X-8400Y-6960D02*
X-8080Y-6960D01*
X-8080Y-6960D02*
X-8080Y-7600D01*
X-8080Y-7600D02*
X-8400Y-7600D01*
G54D15*
X-577Y-4853D02*
G75*
G03X-577Y-4853I-150J0D01*
G74*
G01*
X-4327Y-1253D02*
X-4327Y-5253D01*
X-4327Y-5253D02*
X-577Y-5253D01*
X-577Y-5253D02*
X-327Y-5003D01*
X-327Y-5003D02*
X-327Y-1253D01*
X-327Y-1253D02*
X-4327Y-1253D01*
G54D14*
X-16231Y875D02*
X-13278Y875D01*
X-13278Y-2275D02*
X-16231Y-2275D01*
X-13278Y-2275D02*
X-13278Y-2117D01*
X-13869Y-2196D02*
X-13278Y-2196D01*
X-13278Y-2117D02*
X-13869Y-2117D01*
X-13278Y796D02*
X-13869Y796D01*
X-13869Y717D02*
X-13278Y717D01*
X-13278Y717D02*
X-13278Y875D01*
X-16231Y-503D02*
X-15837Y-503D01*
X-15837Y-503D02*
X-15837Y-897D01*
X-15837Y-897D02*
X-16231Y-897D01*
X-13869Y87D02*
X-15640Y87D01*
X-15640Y87D02*
X-15640Y363D01*
X-15640Y363D02*
X-13869Y363D01*
X-13869Y-1487D02*
X-15640Y-1487D01*
X-15640Y-1487D02*
X-15640Y-1763D01*
X-15640Y-1763D02*
X-13869Y-1763D01*
X-16231Y875D02*
X-16231Y-2275D01*
X-13869Y-2275D02*
X-13869Y875D01*
X-16231Y-188D02*
X-16231Y-70D01*
G54D13*
X3075Y-8195D02*
X3075Y-7875D01*
X2635Y-7885D02*
X2635Y-8195D01*
X2535Y-7875D02*
X3175Y-7875D01*
X3175Y-7875D02*
X3175Y-8195D01*
X3175Y-8195D02*
X2535Y-8195D01*
X2535Y-8195D02*
X2535Y-7875D01*
X3075Y-7195D02*
X3075Y-6875D01*
X2635Y-6885D02*
X2635Y-7195D01*
X2535Y-6875D02*
X3175Y-6875D01*
X3175Y-6875D02*
X3175Y-7195D01*
X3175Y-7195D02*
X2535Y-7195D01*
X2535Y-7195D02*
X2535Y-6875D01*
X-11674Y-3823D02*
X-12776Y-3823D01*
X-12776Y-3863D02*
X-11674Y-3863D01*
X-11674Y-3902D02*
X-12776Y-3902D01*
X-12776Y-3941D02*
X-11674Y-3941D01*
X-12776Y-3981D02*
X-11674Y-3981D01*
X-12776Y-3784D02*
X-12776Y-5516D01*
X-12776Y-5516D02*
X-11674Y-5516D01*
X-11674Y-5516D02*
X-11674Y-3784D01*
X-11674Y-3784D02*
X-12776Y-3784D01*
X-13622Y-8893D02*
X-13228Y-8893D01*
X-13228Y-8657D02*
X-13622Y-8657D01*
X-13464Y-8775D02*
X-13386Y-8775D01*
X-13346Y-8736D02*
X-13504Y-8736D01*
X-13504Y-8736D02*
X-13425Y-8814D01*
X-13425Y-8814D02*
X-13346Y-8736D01*
X-13228Y-8460D02*
X-13228Y-9090D01*
X-13228Y-9090D02*
X-13622Y-9090D01*
X-13622Y-9090D02*
X-13622Y-8460D01*
X-13622Y-8460D02*
X-13228Y-8460D01*
G54D17*
X-7030Y-2700D02*
G75*
G03X-7030Y-2700I-50J0D01*
G74*
G01*
X-6577Y-2700D02*
G75*
G03X-6577Y-2700I-502J0D01*
G74*
G01*
G54D13*
X-8925Y-195D02*
X-8670Y60D01*
X-8925Y-135D02*
X-8730Y60D01*
X-8375Y-905D02*
X-8115Y-905D01*
X-8375Y-155D02*
X-8115Y-155D01*
X-8925Y-530D02*
X-9185Y-530D01*
X-8925Y-905D02*
X-9185Y-905D01*
X-8925Y-155D02*
X-9185Y-155D01*
X-8375Y60D02*
X-8375Y-1120D01*
X-8375Y-1120D02*
X-8925Y-1120D01*
X-8925Y-1120D02*
X-8925Y60D01*
X-8925Y60D02*
X-8375Y60D01*
G54D18*
X-9002Y-3990D02*
X-9140Y-3852D01*
X-9140Y-3990D02*
X-9140Y-2809D01*
X-9140Y-2809D02*
X-7959Y-2809D01*
X-7959Y-2809D02*
X-7959Y-3990D01*
X-7959Y-3990D02*
X-9140Y-3990D01*
G54D17*
X-14820Y3133D02*
X-14820Y2700D01*
X-16474Y3566D02*
X-16474Y3133D01*
X-16474Y3133D02*
X-14820Y3133D01*
X-16474Y3566D02*
X-14820Y3566D01*
X-16474Y2700D02*
X-14820Y2700D01*
X-16474Y2700D02*
X-16474Y1912D01*
X-14820Y3999D02*
X-14820Y3566D01*
X-16474Y4432D02*
X-16474Y3999D01*
X-16474Y3999D02*
X-14820Y3999D01*
X-16474Y4432D02*
X-14820Y4432D01*
X-16474Y5298D02*
X-14820Y5298D01*
X-16474Y4865D02*
X-14820Y4865D01*
X-16474Y5298D02*
X-16474Y4865D01*
X-14820Y4865D02*
X-14820Y4432D01*
X-14820Y5731D02*
X-14820Y5298D01*
X-14112Y6164D02*
X-16474Y6164D01*
X-16474Y6164D02*
X-16474Y5731D01*
X-16474Y5731D02*
X-14820Y5731D01*
X-16789Y1637D02*
X-16789Y6912D01*
X-16789Y6912D02*
X-6710Y6912D01*
X-6710Y1637D02*
X-6710Y6912D01*
X-16789Y1637D02*
X-6710Y1637D01*
X-14112Y1794D02*
X-14112Y6755D01*
X-14112Y6755D02*
X-6868Y6755D01*
X-6868Y1794D02*
X-6868Y6755D01*
X-14112Y1794D02*
X-6868Y1794D01*
G54D13*
X2635Y-7375D02*
X2635Y-7695D01*
X3075Y-7685D02*
X3075Y-7375D01*
X3175Y-7695D02*
X2535Y-7695D01*
X2535Y-7695D02*
X2535Y-7375D01*
X2535Y-7375D02*
X3175Y-7375D01*
X3175Y-7375D02*
X3175Y-7695D01*
X-6627Y-67D02*
X-6947Y-67D01*
X-6937Y-507D02*
X-6627Y-507D01*
X-6947Y-607D02*
X-6947Y32D01*
X-6947Y32D02*
X-6627Y32D01*
X-6627Y32D02*
X-6627Y-607D01*
X-6627Y-607D02*
X-6947Y-607D01*
X-7770Y-40D02*
X-7270Y-40D01*
X-7770Y-540D02*
X-7280Y-540D01*
X-7770Y-690D02*
X-7770Y110D01*
X-7770Y110D02*
X-7270Y110D01*
X-7270Y110D02*
X-7270Y-690D01*
X-7270Y-690D02*
X-7770Y-690D01*
X2635Y-8375D02*
X2635Y-8695D01*
X3075Y-8685D02*
X3075Y-8375D01*
X3175Y-8695D02*
X2535Y-8695D01*
X2535Y-8695D02*
X2535Y-8375D01*
X2535Y-8375D02*
X3175Y-8375D01*
X3175Y-8375D02*
X3175Y-8695D01*
X3075Y-4195D02*
X3075Y-3875D01*
X2635Y-3885D02*
X2635Y-4195D01*
X2535Y-3875D02*
X3175Y-3875D01*
X3175Y-3875D02*
X3175Y-4195D01*
X3175Y-4195D02*
X2535Y-4195D01*
X2535Y-4195D02*
X2535Y-3875D01*
X3075Y-5195D02*
X3075Y-4875D01*
X2635Y-4885D02*
X2635Y-5195D01*
X2535Y-4875D02*
X3175Y-4875D01*
X3175Y-4875D02*
X3175Y-5195D01*
X3175Y-5195D02*
X2535Y-5195D01*
X2535Y-5195D02*
X2535Y-4875D01*
X-2615Y-8150D02*
X-2615Y-8470D01*
X-2175Y-8460D02*
X-2175Y-8150D01*
X-2075Y-8470D02*
X-2715Y-8470D01*
X-2715Y-8470D02*
X-2715Y-8150D01*
X-2715Y-8150D02*
X-2075Y-8150D01*
X-2075Y-8150D02*
X-2075Y-8470D01*
X-5260Y-5115D02*
X-5580Y-5115D01*
X-5570Y-5555D02*
X-5260Y-5555D01*
X-5580Y-5655D02*
X-5580Y-5015D01*
X-5580Y-5015D02*
X-5260Y-5015D01*
X-5260Y-5015D02*
X-5260Y-5655D01*
X-5260Y-5655D02*
X-5580Y-5655D01*
X-2615Y-7600D02*
X-2615Y-7920D01*
X-2175Y-7910D02*
X-2175Y-7600D01*
X-2075Y-7920D02*
X-2715Y-7920D01*
X-2715Y-7920D02*
X-2715Y-7600D01*
X-2715Y-7600D02*
X-2075Y-7600D01*
X-2075Y-7600D02*
X-2075Y-7920D01*
X-4980Y-6180D02*
X-4660Y-6180D01*
X-4670Y-5740D02*
X-4980Y-5740D01*
X-4660Y-5640D02*
X-4660Y-6280D01*
X-4660Y-6280D02*
X-4980Y-6280D01*
X-4980Y-6280D02*
X-4980Y-5640D01*
X-4980Y-5640D02*
X-4660Y-5640D01*
X-9745Y-7915D02*
X-9745Y-8235D01*
X-9305Y-8225D02*
X-9305Y-7915D01*
X-9205Y-8235D02*
X-9845Y-8235D01*
X-9845Y-8235D02*
X-9845Y-7915D01*
X-9845Y-7915D02*
X-9205Y-7915D01*
X-9205Y-7915D02*
X-9205Y-8235D01*
X-1500Y-7050D02*
X-1500Y-7370D01*
X-1060Y-7360D02*
X-1060Y-7050D01*
X-960Y-7370D02*
X-1600Y-7370D01*
X-1600Y-7370D02*
X-1600Y-7050D01*
X-1600Y-7050D02*
X-960Y-7050D01*
X-960Y-7050D02*
X-960Y-7370D01*
X-2380Y320D02*
X-2060Y320D01*
X-2070Y760D02*
X-2380Y760D01*
X-2060Y860D02*
X-2060Y220D01*
X-2060Y220D02*
X-2380Y220D01*
X-2380Y220D02*
X-2380Y860D01*
X-2380Y860D02*
X-2060Y860D01*
X-4340Y950D02*
X-4340Y630D01*
X-3900Y640D02*
X-3900Y950D01*
X-3800Y630D02*
X-4440Y630D01*
X-4440Y630D02*
X-4440Y950D01*
X-4440Y950D02*
X-3800Y950D01*
X-3800Y950D02*
X-3800Y630D01*
X-2615Y-6500D02*
X-2615Y-6820D01*
X-2175Y-6810D02*
X-2175Y-6500D01*
X-2075Y-6820D02*
X-2715Y-6820D01*
X-2715Y-6820D02*
X-2715Y-6500D01*
X-2715Y-6500D02*
X-2075Y-6500D01*
X-2075Y-6500D02*
X-2075Y-6820D01*
X1145Y-9130D02*
X1465Y-9130D01*
X1455Y-8690D02*
X1145Y-8690D01*
X1465Y-8590D02*
X1465Y-9230D01*
X1465Y-9230D02*
X1145Y-9230D01*
X1145Y-9230D02*
X1145Y-8590D01*
X1145Y-8590D02*
X1465Y-8590D01*
X-3335Y8520D02*
X-3335Y8840D01*
X-3775Y8830D02*
X-3775Y8520D01*
X-3875Y8840D02*
X-3235Y8840D01*
X-3235Y8840D02*
X-3235Y8520D01*
X-3235Y8520D02*
X-3875Y8520D01*
X-3875Y8520D02*
X-3875Y8840D01*
X-9527Y-1017D02*
X-9847Y-1017D01*
X-9837Y-1457D02*
X-9527Y-1457D01*
X-9847Y-1557D02*
X-9847Y-917D01*
X-9847Y-917D02*
X-9527Y-917D01*
X-9527Y-917D02*
X-9527Y-1557D01*
X-9527Y-1557D02*
X-9847Y-1557D01*
X-4340Y400D02*
X-4340Y80D01*
X-3900Y90D02*
X-3900Y400D01*
X-3800Y80D02*
X-4440Y80D01*
X-4440Y80D02*
X-4440Y400D01*
X-4440Y400D02*
X-3800Y400D01*
X-3800Y400D02*
X-3800Y80D01*
X-5370Y7400D02*
X-5690Y7400D01*
X-5680Y6960D02*
X-5370Y6960D01*
X-5690Y6860D02*
X-5690Y7500D01*
X-5690Y7500D02*
X-5370Y7500D01*
X-5370Y7500D02*
X-5370Y6860D01*
X-5370Y6860D02*
X-5690Y6860D01*
X-2615Y-7050D02*
X-2615Y-7370D01*
X-2175Y-7360D02*
X-2175Y-7050D01*
X-2075Y-7370D02*
X-2715Y-7370D01*
X-2715Y-7370D02*
X-2715Y-7050D01*
X-2715Y-7050D02*
X-2075Y-7050D01*
X-2075Y-7050D02*
X-2075Y-7370D01*
X-700Y-9030D02*
X-1020Y-9030D01*
X-1010Y-9470D02*
X-700Y-9470D01*
X-1020Y-9570D02*
X-1020Y-8930D01*
X-1020Y-8930D02*
X-700Y-8930D01*
X-700Y-8930D02*
X-700Y-9570D01*
X-700Y-9570D02*
X-1020Y-9570D01*
X-3900Y1180D02*
X-3900Y1500D01*
X-4340Y1490D02*
X-4340Y1180D01*
X-4440Y1500D02*
X-3800Y1500D01*
X-3800Y1500D02*
X-3800Y1180D01*
X-3800Y1180D02*
X-4440Y1180D01*
X-4440Y1180D02*
X-4440Y1500D01*
X-10600Y-1525D02*
X-10100Y-1525D01*
X-10600Y-2025D02*
X-10110Y-2025D01*
X-10600Y-2175D02*
X-10600Y-1375D01*
X-10600Y-1375D02*
X-10100Y-1375D01*
X-10100Y-1375D02*
X-10100Y-2175D01*
X-10100Y-2175D02*
X-10600Y-2175D01*
X-8042Y-1697D02*
X-8042Y-1377D01*
X-8482Y-1387D02*
X-8482Y-1697D01*
X-8582Y-1377D02*
X-7942Y-1377D01*
X-7942Y-1377D02*
X-7942Y-1697D01*
X-7942Y-1697D02*
X-8582Y-1697D01*
X-8582Y-1697D02*
X-8582Y-1377D01*
X-830Y345D02*
X-510Y345D01*
X-520Y785D02*
X-830Y785D01*
X-510Y885D02*
X-510Y245D01*
X-510Y245D02*
X-830Y245D01*
X-830Y245D02*
X-830Y885D01*
X-830Y885D02*
X-510Y885D01*
X-3350Y-7370D02*
X-3350Y-7050D01*
X-3790Y-7060D02*
X-3790Y-7370D01*
X-3890Y-7050D02*
X-3250Y-7050D01*
X-3250Y-7050D02*
X-3250Y-7370D01*
X-3250Y-7370D02*
X-3890Y-7370D01*
X-3890Y-7370D02*
X-3890Y-7050D01*
X-255Y345D02*
X65Y345D01*
X55Y785D02*
X-255Y785D01*
X65Y885D02*
X65Y245D01*
X65Y245D02*
X-255Y245D01*
X-255Y245D02*
X-255Y885D01*
X-255Y885D02*
X65Y885D01*
X-3350Y-6820D02*
X-3350Y-6500D01*
X-3790Y-6510D02*
X-3790Y-6820D01*
X-3890Y-6500D02*
X-3250Y-6500D01*
X-3250Y-6500D02*
X-3250Y-6820D01*
X-3250Y-6820D02*
X-3890Y-6820D01*
X-3890Y-6820D02*
X-3890Y-6500D01*
G54D17*
X-8200Y9000D02*
G75*
G03X-8200Y9000I-50J0D01*
G74*
G01*
X-7747Y9000D02*
G75*
G03X-7747Y9000I-502J0D01*
G74*
G01*
G54D13*
X-1620Y965D02*
X-1120Y965D01*
X-1620Y465D02*
X-1130Y465D01*
X-1620Y315D02*
X-1620Y1115D01*
X-1620Y1115D02*
X-1120Y1115D01*
X-1120Y1115D02*
X-1120Y315D01*
X-1120Y315D02*
X-1620Y315D01*
X-4375Y9490D02*
X-4375Y9170D01*
X-3935Y9180D02*
X-3935Y9490D01*
X-3835Y9170D02*
X-4475Y9170D01*
X-4475Y9170D02*
X-4475Y9490D01*
X-4475Y9490D02*
X-3835Y9490D01*
X-3835Y9490D02*
X-3835Y9170D01*
X2635Y-6375D02*
X2635Y-6695D01*
X3075Y-6685D02*
X3075Y-6375D01*
X3175Y-6695D02*
X2535Y-6695D01*
X2535Y-6695D02*
X2535Y-6375D01*
X2535Y-6375D02*
X3175Y-6375D01*
X3175Y-6375D02*
X3175Y-6695D01*
X2635Y-5375D02*
X2635Y-5695D01*
X3075Y-5685D02*
X3075Y-5375D01*
X3175Y-5695D02*
X2535Y-5695D01*
X2535Y-5695D02*
X2535Y-5375D01*
X2535Y-5375D02*
X3175Y-5375D01*
X3175Y-5375D02*
X3175Y-5695D01*
G54D19*
X6467Y-7157D02*
X6467Y87D01*
X6467Y87D02*
X9814Y87D01*
X9814Y-7157D02*
X9814Y87D01*
X7255Y-7157D02*
X7255Y-6035D01*
X7255Y-6035D02*
X9814Y-6035D01*
X6467Y-7157D02*
X9814Y-7157D01*
G54D13*
X-10680Y-3975D02*
X-11320Y-3975D01*
X-11320Y-4875D02*
X-10680Y-4875D01*
X-11320Y-5055D02*
X-10680Y-5055D01*
X-10680Y-5055D02*
X-10680Y-3795D01*
X-10680Y-3795D02*
X-11320Y-3795D01*
X-11320Y-3795D02*
X-11320Y-5055D01*
X-6970Y-7850D02*
X-6330Y-7850D01*
X-6330Y-6950D02*
X-6970Y-6950D01*
X-6330Y-6770D02*
X-6970Y-6770D01*
X-6970Y-6770D02*
X-6970Y-8030D01*
X-6970Y-8030D02*
X-6330Y-8030D01*
X-6330Y-8030D02*
X-6330Y-6770D01*
X-3290Y540D02*
X-2650Y540D01*
X-2650Y1620D02*
X-3290Y1620D01*
X-3290Y1620D02*
X-3290Y360D01*
X-3290Y360D02*
X-2650Y360D01*
X-2650Y360D02*
X-2650Y1620D01*
X-870Y-6280D02*
X-870Y-6780D01*
X-1370Y-6280D02*
X-1370Y-6770D01*
X-1520Y-6280D02*
X-720Y-6280D01*
X-720Y-6280D02*
X-720Y-6780D01*
X-720Y-6780D02*
X-1520Y-6780D01*
X-1520Y-6780D02*
X-1520Y-6280D01*
X-4040Y4960D02*
X-4040Y4640D01*
X-3600Y4650D02*
X-3600Y4960D01*
X-3500Y4640D02*
X-4140Y4640D01*
X-4140Y4640D02*
X-4140Y4960D01*
X-4140Y4960D02*
X-3500Y4960D01*
X-3500Y4960D02*
X-3500Y4640D01*
X-2480Y4640D02*
X-2480Y4960D01*
X-2920Y4950D02*
X-2920Y4640D01*
X-3020Y4960D02*
X-2380Y4960D01*
X-2380Y4960D02*
X-2380Y4640D01*
X-2380Y4640D02*
X-3020Y4640D01*
X-3020Y4640D02*
X-3020Y4960D01*
X-5600Y-3890D02*
X-5600Y-3570D01*
X-6040Y-3580D02*
X-6040Y-3890D01*
X-6140Y-3570D02*
X-5500Y-3570D01*
X-5500Y-3570D02*
X-5500Y-3890D01*
X-5500Y-3890D02*
X-6140Y-3890D01*
X-6140Y-3890D02*
X-6140Y-3570D01*
X-5600Y-4350D02*
X-5600Y-4030D01*
X-6040Y-4040D02*
X-6040Y-4350D01*
X-6140Y-4030D02*
X-5500Y-4030D01*
X-5500Y-4030D02*
X-5500Y-4350D01*
X-5500Y-4350D02*
X-6140Y-4350D01*
X-6140Y-4350D02*
X-6140Y-4030D01*
X-5750Y-5120D02*
X-6070Y-5120D01*
X-6060Y-5560D02*
X-5750Y-5560D01*
X-6070Y-5660D02*
X-6070Y-5020D01*
X-6070Y-5020D02*
X-5750Y-5020D01*
X-5750Y-5020D02*
X-5750Y-5660D01*
X-5750Y-5660D02*
X-6070Y-5660D01*
G54D20*
X155Y-8969D02*
X155Y-9049D01*
X160Y-9058D01*
X164Y-9063D01*
X174Y-9067D01*
X192Y-9067D01*
X202Y-9063D01*
X206Y-9058D01*
X211Y-9049D01*
X211Y-8969D01*
X253Y-8979D02*
X258Y-8974D01*
X267Y-8969D01*
X290Y-8969D01*
X300Y-8974D01*
X304Y-8979D01*
X309Y-8988D01*
X309Y-8997D01*
X304Y-9011D01*
X248Y-9067D01*
X309Y-9067D01*
G54D21*
X-11705Y313D02*
X-11771Y313D01*
X-11771Y210D02*
X-11771Y407D01*
X-11677Y407D01*
X-11499Y210D02*
X-11611Y210D01*
X-11555Y210D02*
X-11555Y407D01*
X-11574Y379D01*
X-11593Y360D01*
X-11611Y350D01*
G54D13*
X3731Y409D02*
X3664Y504D01*
X3617Y409D02*
X3617Y609D01*
X3693Y609D01*
X3712Y599D01*
X3721Y590D01*
X3731Y570D01*
X3731Y542D01*
X3721Y523D01*
X3712Y513D01*
X3693Y504D01*
X3617Y504D01*
X3798Y609D02*
X3921Y609D01*
X3855Y532D01*
X3883Y532D01*
X3902Y523D01*
X3912Y513D01*
X3921Y494D01*
X3921Y447D01*
X3912Y428D01*
X3902Y418D01*
X3883Y409D01*
X3826Y409D01*
X3807Y418D01*
X3798Y428D01*
X4112Y409D02*
X3998Y409D01*
X4055Y409D02*
X4055Y609D01*
X4036Y580D01*
X4017Y561D01*
X3998Y551D01*
X1861Y-1620D02*
X1794Y-1525D01*
X1747Y-1620D02*
X1747Y-1420D01*
X1823Y-1420D01*
X1842Y-1430D01*
X1851Y-1440D01*
X1861Y-1459D01*
X1861Y-1487D01*
X1851Y-1506D01*
X1842Y-1516D01*
X1823Y-1525D01*
X1747Y-1525D01*
X1937Y-1440D02*
X1947Y-1430D01*
X1966Y-1420D01*
X2013Y-1420D01*
X2032Y-1430D01*
X2042Y-1440D01*
X2051Y-1459D01*
X2051Y-1478D01*
X2042Y-1506D01*
X1928Y-1620D01*
X2051Y-1620D01*
X2147Y-1620D02*
X2185Y-1620D01*
X2204Y-1611D01*
X2213Y-1601D01*
X2232Y-1573D01*
X2242Y-1535D01*
X2242Y-1459D01*
X2232Y-1440D01*
X2223Y-1430D01*
X2204Y-1420D01*
X2166Y-1420D01*
X2147Y-1430D01*
X2137Y-1440D01*
X2128Y-1459D01*
X2128Y-1506D01*
X2137Y-1525D01*
X2147Y-1535D01*
X2166Y-1544D01*
X2204Y-1544D01*
X2223Y-1535D01*
X2232Y-1525D01*
X2242Y-1506D01*
G54D22*
X2129Y-2066D02*
X2102Y-2029D01*
X2084Y-2066D02*
X2084Y-1987D01*
X2114Y-1987D01*
X2121Y-1991D01*
X2125Y-1995D01*
X2129Y-2003D01*
X2129Y-2014D01*
X2125Y-2021D01*
X2121Y-2025D01*
X2114Y-2029D01*
X2084Y-2029D01*
X2159Y-1995D02*
X2163Y-1991D01*
X2170Y-1987D01*
X2189Y-1987D01*
X2196Y-1991D01*
X2200Y-1995D01*
X2204Y-2003D01*
X2204Y-2010D01*
X2200Y-2021D01*
X2155Y-2066D01*
X2204Y-2066D01*
X2249Y-2021D02*
X2242Y-2018D01*
X2238Y-2014D01*
X2234Y-2006D01*
X2234Y-2003D01*
X2238Y-1995D01*
X2242Y-1991D01*
X2249Y-1987D01*
X2264Y-1987D01*
X2272Y-1991D01*
X2275Y-1995D01*
X2279Y-2003D01*
X2279Y-2006D01*
X2275Y-2014D01*
X2272Y-2018D01*
X2264Y-2021D01*
X2249Y-2021D01*
X2242Y-2025D01*
X2238Y-2029D01*
X2234Y-2036D01*
X2234Y-2051D01*
X2238Y-2059D01*
X2242Y-2063D01*
X2249Y-2066D01*
X2264Y-2066D01*
X2272Y-2063D01*
X2275Y-2059D01*
X2279Y-2051D01*
X2279Y-2036D01*
X2275Y-2029D01*
X2272Y-2025D01*
X2264Y-2021D01*
X2129Y-3066D02*
X2102Y-3029D01*
X2084Y-3066D02*
X2084Y-2987D01*
X2114Y-2987D01*
X2121Y-2991D01*
X2125Y-2995D01*
X2129Y-3003D01*
X2129Y-3014D01*
X2125Y-3021D01*
X2121Y-3025D01*
X2114Y-3029D01*
X2084Y-3029D01*
X2159Y-2995D02*
X2163Y-2991D01*
X2170Y-2987D01*
X2189Y-2987D01*
X2196Y-2991D01*
X2200Y-2995D01*
X2204Y-3003D01*
X2204Y-3010D01*
X2200Y-3021D01*
X2155Y-3066D01*
X2204Y-3066D01*
X2230Y-2987D02*
X2283Y-2987D01*
X2249Y-3066D01*
G54D13*
X3721Y1909D02*
X3654Y2004D01*
X3607Y1909D02*
X3607Y2109D01*
X3683Y2109D01*
X3702Y2099D01*
X3711Y2090D01*
X3721Y2070D01*
X3721Y2042D01*
X3711Y2023D01*
X3702Y2013D01*
X3683Y2004D01*
X3607Y2004D01*
X3788Y2109D02*
X3911Y2109D01*
X3845Y2032D01*
X3873Y2032D01*
X3892Y2023D01*
X3902Y2013D01*
X3911Y1994D01*
X3911Y1947D01*
X3902Y1928D01*
X3892Y1918D01*
X3873Y1909D01*
X3816Y1909D01*
X3797Y1918D01*
X3788Y1928D01*
X3988Y2090D02*
X3997Y2099D01*
X4016Y2109D01*
X4064Y2109D01*
X4083Y2099D01*
X4092Y2090D01*
X4102Y2070D01*
X4102Y2051D01*
X4092Y2023D01*
X3978Y1909D01*
X4102Y1909D01*
X3651Y-100D02*
X3584Y-5D01*
X3537Y-100D02*
X3537Y99D01*
X3613Y99D01*
X3632Y89D01*
X3641Y80D01*
X3651Y60D01*
X3651Y32D01*
X3641Y13D01*
X3632Y3D01*
X3613Y-5D01*
X3537Y-5D01*
X3718Y99D02*
X3841Y99D01*
X3775Y22D01*
X3803Y22D01*
X3822Y13D01*
X3832Y3D01*
X3841Y-15D01*
X3841Y-62D01*
X3832Y-81D01*
X3822Y-91D01*
X3803Y-100D01*
X3746Y-100D01*
X3727Y-91D01*
X3718Y-81D01*
X3965Y99D02*
X3984Y99D01*
X4003Y89D01*
X4013Y80D01*
X4022Y60D01*
X4032Y22D01*
X4032Y-24D01*
X4022Y-62D01*
X4013Y-81D01*
X4003Y-91D01*
X3984Y-100D01*
X3965Y-100D01*
X3946Y-91D01*
X3937Y-81D01*
X3927Y-62D01*
X3918Y-24D01*
X3918Y22D01*
X3927Y60D01*
X3937Y80D01*
X3946Y89D01*
X3965Y99D01*
X-7809Y-6228D02*
X-7904Y-6295D01*
X-7809Y-6342D02*
X-8009Y-6342D01*
X-8009Y-6266D01*
X-7999Y-6247D01*
X-7990Y-6238D01*
X-7970Y-6228D01*
X-7942Y-6228D01*
X-7923Y-6238D01*
X-7913Y-6247D01*
X-7904Y-6266D01*
X-7904Y-6342D01*
X-7809Y-6038D02*
X-7809Y-6152D01*
X-7809Y-6095D02*
X-8009Y-6095D01*
X-7980Y-6114D01*
X-7961Y-6133D01*
X-7951Y-6152D01*
X-8009Y-5914D02*
X-8009Y-5895D01*
X-7999Y-5876D01*
X-7990Y-5866D01*
X-7970Y-5857D01*
X-7932Y-5847D01*
X-7885Y-5847D01*
X-7847Y-5857D01*
X-7828Y-5866D01*
X-7818Y-5876D01*
X-7809Y-5895D01*
X-7809Y-5914D01*
X-7818Y-5933D01*
X-7828Y-5942D01*
X-7847Y-5952D01*
X-7885Y-5961D01*
X-7932Y-5961D01*
X-7970Y-5952D01*
X-7990Y-5942D01*
X-7999Y-5933D01*
X-8009Y-5914D01*
G54D23*
X-9225Y-4827D02*
X-9225Y-4792D01*
X-9165Y-4810D02*
X-9225Y-4810D01*
X-9165Y-4772D02*
X-9225Y-4772D01*
X-9197Y-4772D02*
X-9197Y-4738D01*
X-9165Y-4738D02*
X-9225Y-4738D01*
X-9165Y-4678D02*
X-9165Y-4712D01*
X-9165Y-4695D02*
X-9225Y-4695D01*
X-9217Y-4701D01*
X-9211Y-4707D01*
X-9208Y-4712D01*
G54D21*
X-15774Y7354D02*
X-15774Y7590D01*
X-15717Y7590D01*
X-15684Y7579D01*
X-15661Y7556D01*
X-15650Y7534D01*
X-15639Y7489D01*
X-15639Y7455D01*
X-15650Y7410D01*
X-15661Y7388D01*
X-15684Y7365D01*
X-15717Y7354D01*
X-15774Y7354D01*
X-15437Y7590D02*
X-15481Y7590D01*
X-15504Y7579D01*
X-15515Y7568D01*
X-15538Y7534D01*
X-15549Y7489D01*
X-15549Y7399D01*
X-15538Y7376D01*
X-15526Y7365D01*
X-15504Y7354D01*
X-15459Y7354D01*
X-15437Y7365D01*
X-15425Y7376D01*
X-15414Y7399D01*
X-15414Y7455D01*
X-15425Y7478D01*
X-15437Y7489D01*
X-15459Y7500D01*
X-15504Y7500D01*
X-15526Y7489D01*
X-15538Y7478D01*
X-15549Y7455D01*
X-14674Y7354D02*
X-14674Y7590D01*
X-14617Y7590D01*
X-14584Y7579D01*
X-14561Y7556D01*
X-14550Y7534D01*
X-14539Y7489D01*
X-14539Y7455D01*
X-14550Y7410D01*
X-14561Y7388D01*
X-14584Y7365D01*
X-14617Y7354D01*
X-14674Y7354D01*
X-14325Y7590D02*
X-14438Y7590D01*
X-14449Y7478D01*
X-14438Y7489D01*
X-14415Y7500D01*
X-14359Y7500D01*
X-14337Y7489D01*
X-14325Y7478D01*
X-14314Y7455D01*
X-14314Y7399D01*
X-14325Y7376D01*
X-14337Y7365D01*
X-14359Y7354D01*
X-14415Y7354D01*
X-14438Y7365D01*
X-14449Y7376D01*
X-15774Y-8120D02*
X-15774Y-7884D01*
X-15717Y-7884D01*
X-15684Y-7895D01*
X-15661Y-7918D01*
X-15650Y-7940D01*
X-15639Y-7985D01*
X-15639Y-8019D01*
X-15650Y-8064D01*
X-15661Y-8086D01*
X-15684Y-8109D01*
X-15717Y-8120D01*
X-15774Y-8120D01*
X-15560Y-7884D02*
X-15414Y-7884D01*
X-15493Y-7974D01*
X-15459Y-7974D01*
X-15437Y-7985D01*
X-15425Y-7996D01*
X-15414Y-8019D01*
X-15414Y-8075D01*
X-15425Y-8098D01*
X-15437Y-8109D01*
X-15459Y-8120D01*
X-15526Y-8120D01*
X-15549Y-8109D01*
X-15560Y-8098D01*
X-14649Y-8120D02*
X-14649Y-7884D01*
X-14592Y-7884D01*
X-14559Y-7895D01*
X-14536Y-7918D01*
X-14525Y-7940D01*
X-14514Y-7985D01*
X-14514Y-8019D01*
X-14525Y-8064D01*
X-14536Y-8086D01*
X-14559Y-8109D01*
X-14592Y-8120D01*
X-14649Y-8120D01*
X-14312Y-7963D02*
X-14312Y-8120D01*
X-14368Y-7873D02*
X-14424Y-8041D01*
X-14278Y-8041D01*
G54D10*
X-6074Y-9865D02*
X-6018Y-9884D01*
X-5924Y-9884D01*
X-5887Y-9865D01*
X-5868Y-9846D01*
X-5849Y-9809D01*
X-5849Y-9771D01*
X-5868Y-9734D01*
X-5887Y-9715D01*
X-5924Y-9696D01*
X-5999Y-9678D01*
X-6037Y-9659D01*
X-6056Y-9640D01*
X-6074Y-9603D01*
X-6074Y-9565D01*
X-6056Y-9528D01*
X-6037Y-9509D01*
X-5999Y-9490D01*
X-5906Y-9490D01*
X-5849Y-9509D01*
X-5475Y-9884D02*
X-5700Y-9884D01*
X-5587Y-9884D02*
X-5587Y-9490D01*
X-5625Y-9546D01*
X-5662Y-9584D01*
X-5700Y-9603D01*
G54D13*
X1841Y-591D02*
X1831Y-601D01*
X1803Y-610D01*
X1784Y-610D01*
X1755Y-601D01*
X1736Y-582D01*
X1727Y-563D01*
X1717Y-525D01*
X1717Y-496D01*
X1727Y-458D01*
X1736Y-439D01*
X1755Y-420D01*
X1784Y-410D01*
X1803Y-410D01*
X1831Y-420D01*
X1841Y-430D01*
X2012Y-410D02*
X1974Y-410D01*
X1955Y-420D01*
X1946Y-430D01*
X1927Y-458D01*
X1917Y-496D01*
X1917Y-572D01*
X1927Y-591D01*
X1936Y-601D01*
X1955Y-610D01*
X1993Y-610D01*
X2012Y-601D01*
X2022Y-591D01*
X2031Y-572D01*
X2031Y-525D01*
X2022Y-506D01*
X2012Y-496D01*
X1993Y-487D01*
X1955Y-487D01*
X1936Y-496D01*
X1927Y-506D01*
X1917Y-525D01*
X2222Y-610D02*
X2108Y-610D01*
X2165Y-610D02*
X2165Y-410D01*
X2146Y-439D01*
X2127Y-458D01*
X2108Y-468D01*
X4111Y1358D02*
X4101Y1348D01*
X4073Y1339D01*
X4054Y1339D01*
X4025Y1348D01*
X4006Y1367D01*
X3997Y1386D01*
X3987Y1424D01*
X3987Y1453D01*
X3997Y1491D01*
X4006Y1510D01*
X4025Y1529D01*
X4054Y1539D01*
X4073Y1539D01*
X4101Y1529D01*
X4111Y1520D01*
X4282Y1539D02*
X4244Y1539D01*
X4225Y1529D01*
X4216Y1520D01*
X4197Y1491D01*
X4187Y1453D01*
X4187Y1377D01*
X4197Y1358D01*
X4206Y1348D01*
X4225Y1339D01*
X4263Y1339D01*
X4282Y1348D01*
X4292Y1358D01*
X4301Y1377D01*
X4301Y1424D01*
X4292Y1443D01*
X4282Y1453D01*
X4263Y1462D01*
X4225Y1462D01*
X4206Y1453D01*
X4197Y1443D01*
X4187Y1424D01*
X4368Y1539D02*
X4492Y1539D01*
X4425Y1462D01*
X4454Y1462D01*
X4473Y1453D01*
X4482Y1443D01*
X4492Y1424D01*
X4492Y1377D01*
X4482Y1358D01*
X4473Y1348D01*
X4454Y1339D01*
X4397Y1339D01*
X4378Y1348D01*
X4368Y1358D01*
X3721Y908D02*
X3711Y898D01*
X3683Y889D01*
X3664Y889D01*
X3635Y898D01*
X3616Y917D01*
X3607Y936D01*
X3597Y974D01*
X3597Y1003D01*
X3607Y1041D01*
X3616Y1060D01*
X3635Y1079D01*
X3664Y1089D01*
X3683Y1089D01*
X3711Y1079D01*
X3721Y1070D01*
X3892Y1089D02*
X3854Y1089D01*
X3835Y1079D01*
X3826Y1070D01*
X3807Y1041D01*
X3797Y1003D01*
X3797Y927D01*
X3807Y908D01*
X3816Y898D01*
X3835Y889D01*
X3873Y889D01*
X3892Y898D01*
X3902Y908D01*
X3911Y927D01*
X3911Y974D01*
X3902Y993D01*
X3892Y1003D01*
X3873Y1012D01*
X3835Y1012D01*
X3816Y1003D01*
X3807Y993D01*
X3797Y974D01*
X3988Y1070D02*
X3997Y1079D01*
X4016Y1089D01*
X4064Y1089D01*
X4083Y1079D01*
X4092Y1070D01*
X4102Y1050D01*
X4102Y1031D01*
X4092Y1003D01*
X3978Y889D01*
X4102Y889D01*
X1781Y-1061D02*
X1771Y-1071D01*
X1743Y-1080D01*
X1724Y-1080D01*
X1695Y-1071D01*
X1676Y-1052D01*
X1667Y-1033D01*
X1657Y-995D01*
X1657Y-966D01*
X1667Y-928D01*
X1676Y-909D01*
X1695Y-890D01*
X1724Y-880D01*
X1743Y-880D01*
X1771Y-890D01*
X1781Y-900D01*
X1952Y-880D02*
X1914Y-880D01*
X1895Y-890D01*
X1886Y-900D01*
X1867Y-928D01*
X1857Y-966D01*
X1857Y-1042D01*
X1867Y-1061D01*
X1876Y-1071D01*
X1895Y-1080D01*
X1933Y-1080D01*
X1952Y-1071D01*
X1962Y-1061D01*
X1971Y-1042D01*
X1971Y-995D01*
X1962Y-976D01*
X1952Y-966D01*
X1933Y-957D01*
X1895Y-957D01*
X1876Y-966D01*
X1867Y-976D01*
X1857Y-995D01*
X2095Y-880D02*
X2114Y-880D01*
X2133Y-890D01*
X2143Y-900D01*
X2152Y-919D01*
X2162Y-957D01*
X2162Y-1004D01*
X2152Y-1042D01*
X2143Y-1061D01*
X2133Y-1071D01*
X2114Y-1080D01*
X2095Y-1080D01*
X2076Y-1071D01*
X2067Y-1061D01*
X2057Y-1042D01*
X2048Y-1004D01*
X2048Y-957D01*
X2057Y-919D01*
X2067Y-900D01*
X2076Y-890D01*
X2095Y-880D01*
G54D22*
X2129Y-2559D02*
X2125Y-2563D01*
X2114Y-2566D01*
X2106Y-2566D01*
X2095Y-2563D01*
X2087Y-2555D01*
X2084Y-2548D01*
X2080Y-2533D01*
X2080Y-2521D01*
X2084Y-2506D01*
X2087Y-2499D01*
X2095Y-2491D01*
X2106Y-2487D01*
X2114Y-2487D01*
X2125Y-2491D01*
X2129Y-2495D01*
X2200Y-2487D02*
X2163Y-2487D01*
X2159Y-2525D01*
X2163Y-2521D01*
X2170Y-2518D01*
X2189Y-2518D01*
X2196Y-2521D01*
X2200Y-2525D01*
X2204Y-2533D01*
X2204Y-2551D01*
X2200Y-2559D01*
X2196Y-2563D01*
X2189Y-2566D01*
X2170Y-2566D01*
X2163Y-2563D01*
X2159Y-2559D01*
X2242Y-2566D02*
X2257Y-2566D01*
X2264Y-2563D01*
X2268Y-2559D01*
X2275Y-2548D01*
X2279Y-2533D01*
X2279Y-2503D01*
X2275Y-2495D01*
X2272Y-2491D01*
X2264Y-2487D01*
X2249Y-2487D01*
X2242Y-2491D01*
X2238Y-2495D01*
X2234Y-2503D01*
X2234Y-2521D01*
X2238Y-2529D01*
X2242Y-2533D01*
X2249Y-2536D01*
X2264Y-2536D01*
X2272Y-2533D01*
X2275Y-2529D01*
X2279Y-2521D01*
X2129Y-3559D02*
X2125Y-3563D01*
X2114Y-3566D01*
X2106Y-3566D01*
X2095Y-3563D01*
X2087Y-3555D01*
X2084Y-3548D01*
X2080Y-3533D01*
X2080Y-3521D01*
X2084Y-3506D01*
X2087Y-3499D01*
X2095Y-3491D01*
X2106Y-3487D01*
X2114Y-3487D01*
X2125Y-3491D01*
X2129Y-3495D01*
X2200Y-3487D02*
X2163Y-3487D01*
X2159Y-3525D01*
X2163Y-3521D01*
X2170Y-3518D01*
X2189Y-3518D01*
X2196Y-3521D01*
X2200Y-3525D01*
X2204Y-3533D01*
X2204Y-3551D01*
X2200Y-3559D01*
X2196Y-3563D01*
X2189Y-3566D01*
X2170Y-3566D01*
X2163Y-3563D01*
X2159Y-3559D01*
X2249Y-3521D02*
X2242Y-3518D01*
X2238Y-3514D01*
X2234Y-3506D01*
X2234Y-3503D01*
X2238Y-3495D01*
X2242Y-3491D01*
X2249Y-3487D01*
X2264Y-3487D01*
X2272Y-3491D01*
X2275Y-3495D01*
X2279Y-3503D01*
X2279Y-3506D01*
X2275Y-3514D01*
X2272Y-3518D01*
X2264Y-3521D01*
X2249Y-3521D01*
X2242Y-3525D01*
X2238Y-3529D01*
X2234Y-3536D01*
X2234Y-3551D01*
X2238Y-3559D01*
X2242Y-3563D01*
X2249Y-3566D01*
X2264Y-3566D01*
X2272Y-3563D01*
X2275Y-3559D01*
X2279Y-3551D01*
X2279Y-3536D01*
X2275Y-3529D01*
X2272Y-3525D01*
X2264Y-3521D01*
X2129Y-4559D02*
X2125Y-4563D01*
X2114Y-4566D01*
X2106Y-4566D01*
X2095Y-4563D01*
X2087Y-4555D01*
X2084Y-4548D01*
X2080Y-4533D01*
X2080Y-4521D01*
X2084Y-4506D01*
X2087Y-4499D01*
X2095Y-4491D01*
X2106Y-4487D01*
X2114Y-4487D01*
X2125Y-4491D01*
X2129Y-4495D01*
X2200Y-4487D02*
X2163Y-4487D01*
X2159Y-4525D01*
X2163Y-4521D01*
X2170Y-4518D01*
X2189Y-4518D01*
X2196Y-4521D01*
X2200Y-4525D01*
X2204Y-4533D01*
X2204Y-4551D01*
X2200Y-4559D01*
X2196Y-4563D01*
X2189Y-4566D01*
X2170Y-4566D01*
X2163Y-4563D01*
X2159Y-4559D01*
X2230Y-4487D02*
X2283Y-4487D01*
X2249Y-4566D01*
G54D10*
X-9159Y-5699D02*
X-8840Y-5699D01*
X-8803Y-5681D01*
X-8784Y-5662D01*
X-8765Y-5624D01*
X-8765Y-5549D01*
X-8784Y-5512D01*
X-8803Y-5493D01*
X-8840Y-5474D01*
X-9159Y-5474D01*
X-9028Y-5118D02*
X-8765Y-5118D01*
X-9178Y-5212D02*
X-8896Y-5306D01*
X-8896Y-5062D01*
G54D22*
X-4843Y6030D02*
X-4846Y6026D01*
X-4858Y6023D01*
X-4865Y6023D01*
X-4877Y6026D01*
X-4884Y6034D01*
X-4888Y6041D01*
X-4892Y6056D01*
X-4892Y6068D01*
X-4888Y6083D01*
X-4884Y6090D01*
X-4877Y6098D01*
X-4865Y6102D01*
X-4858Y6102D01*
X-4846Y6098D01*
X-4843Y6094D01*
X-4816Y6102D02*
X-4767Y6102D01*
X-4794Y6071D01*
X-4782Y6071D01*
X-4775Y6068D01*
X-4771Y6064D01*
X-4767Y6056D01*
X-4767Y6038D01*
X-4771Y6030D01*
X-4775Y6026D01*
X-4782Y6023D01*
X-4805Y6023D01*
X-4813Y6026D01*
X-4816Y6030D01*
G54D24*
X-612Y-8122D02*
X-605Y-8100D01*
X-605Y-8061D01*
X-612Y-8046D01*
X-620Y-8039D01*
X-635Y-8031D01*
X-650Y-8031D01*
X-666Y-8039D01*
X-673Y-8046D01*
X-681Y-8061D01*
X-689Y-8092D01*
X-696Y-8107D01*
X-704Y-8115D01*
X-719Y-8122D01*
X-734Y-8122D01*
X-750Y-8115D01*
X-757Y-8107D01*
X-765Y-8092D01*
X-765Y-8054D01*
X-757Y-8031D01*
X-765Y-7917D02*
X-650Y-7917D01*
X-628Y-7924D01*
X-612Y-7940D01*
X-605Y-7962D01*
X-605Y-7978D01*
X-605Y-7757D02*
X-605Y-7848D01*
X-605Y-7802D02*
X-765Y-7802D01*
X-742Y-7818D01*
X-727Y-7833D01*
X-719Y-7848D01*
G54D19*
X-5937Y8097D02*
X-5451Y8097D01*
X-5394Y8126D01*
X-5365Y8155D01*
X-5337Y8212D01*
X-5337Y8326D01*
X-5365Y8383D01*
X-5394Y8412D01*
X-5451Y8440D01*
X-5937Y8440D01*
X-5337Y9040D02*
X-5337Y8697D01*
X-5337Y8869D02*
X-5937Y8869D01*
X-5851Y8812D01*
X-5794Y8755D01*
X-5765Y8697D01*
G54D13*
X-7553Y-7940D02*
X-7620Y-7845D01*
X-7667Y-7940D02*
X-7667Y-7740D01*
X-7591Y-7740D01*
X-7572Y-7750D01*
X-7562Y-7760D01*
X-7553Y-7779D01*
X-7553Y-7807D01*
X-7562Y-7826D01*
X-7572Y-7836D01*
X-7591Y-7845D01*
X-7667Y-7845D01*
X-7458Y-7940D02*
X-7420Y-7940D01*
X-7400Y-7931D01*
X-7391Y-7921D01*
X-7372Y-7893D01*
X-7362Y-7855D01*
X-7362Y-7779D01*
X-7372Y-7760D01*
X-7381Y-7750D01*
X-7400Y-7740D01*
X-7439Y-7740D01*
X-7458Y-7750D01*
X-7467Y-7760D01*
X-7477Y-7779D01*
X-7477Y-7826D01*
X-7467Y-7845D01*
X-7458Y-7855D01*
X-7439Y-7864D01*
X-7400Y-7864D01*
X-7381Y-7855D01*
X-7372Y-7845D01*
X-7362Y-7826D01*
X3821Y-9160D02*
X3754Y-9065D01*
X3707Y-9160D02*
X3707Y-8960D01*
X3783Y-8960D01*
X3802Y-8970D01*
X3811Y-8980D01*
X3821Y-8999D01*
X3821Y-9027D01*
X3811Y-9046D01*
X3802Y-9056D01*
X3783Y-9065D01*
X3707Y-9065D01*
X3897Y-8980D02*
X3907Y-8970D01*
X3926Y-8960D01*
X3973Y-8960D01*
X3992Y-8970D01*
X4002Y-8980D01*
X4011Y-8999D01*
X4011Y-9018D01*
X4002Y-9046D01*
X3888Y-9160D01*
X4011Y-9160D01*
X4202Y-9160D02*
X4088Y-9160D01*
X4145Y-9160D02*
X4145Y-8960D01*
X4126Y-8989D01*
X4107Y-9008D01*
X4088Y-9018D01*
G54D22*
X-9708Y-4700D02*
X-9745Y-4727D01*
X-9708Y-4745D02*
X-9787Y-4745D01*
X-9787Y-4715D01*
X-9783Y-4708D01*
X-9779Y-4704D01*
X-9771Y-4700D01*
X-9760Y-4700D01*
X-9753Y-4704D01*
X-9749Y-4708D01*
X-9745Y-4715D01*
X-9745Y-4745D01*
X-9708Y-4625D02*
X-9708Y-4670D01*
X-9708Y-4648D02*
X-9787Y-4648D01*
X-9775Y-4655D01*
X-9768Y-4663D01*
X-9764Y-4670D01*
X-9760Y-4557D02*
X-9708Y-4557D01*
X-9790Y-4576D02*
X-9734Y-4595D01*
X-9734Y-4546D01*
X-15325Y8853D02*
X-15352Y8890D01*
X-15370Y8853D02*
X-15370Y8932D01*
X-15340Y8932D01*
X-15333Y8928D01*
X-15329Y8924D01*
X-15325Y8916D01*
X-15325Y8905D01*
X-15329Y8898D01*
X-15333Y8894D01*
X-15340Y8890D01*
X-15370Y8890D01*
X-15250Y8853D02*
X-15295Y8853D01*
X-15273Y8853D02*
X-15273Y8932D01*
X-15280Y8920D01*
X-15288Y8913D01*
X-15295Y8909D01*
X-15205Y8898D02*
X-15212Y8901D01*
X-15216Y8905D01*
X-15220Y8913D01*
X-15220Y8916D01*
X-15216Y8924D01*
X-15212Y8928D01*
X-15205Y8932D01*
X-15190Y8932D01*
X-15182Y8928D01*
X-15179Y8924D01*
X-15175Y8916D01*
X-15175Y8913D01*
X-15179Y8905D01*
X-15182Y8901D01*
X-15190Y8898D01*
X-15205Y8898D01*
X-15212Y8894D01*
X-15216Y8890D01*
X-15220Y8883D01*
X-15220Y8868D01*
X-15216Y8860D01*
X-15212Y8856D01*
X-15205Y8853D01*
X-15190Y8853D01*
X-15182Y8856D01*
X-15179Y8860D01*
X-15175Y8868D01*
X-15175Y8883D01*
X-15179Y8890D01*
X-15182Y8894D01*
X-15190Y8898D01*
X-13278Y8849D02*
X-13315Y8822D01*
X-13278Y8804D02*
X-13357Y8804D01*
X-13357Y8834D01*
X-13353Y8841D01*
X-13349Y8845D01*
X-13341Y8849D01*
X-13330Y8849D01*
X-13323Y8845D01*
X-13319Y8841D01*
X-13315Y8834D01*
X-13315Y8804D01*
X-13278Y8924D02*
X-13278Y8879D01*
X-13278Y8901D02*
X-13357Y8901D01*
X-13345Y8894D01*
X-13338Y8886D01*
X-13334Y8879D01*
X-13357Y8950D02*
X-13357Y9003D01*
X-13278Y8969D01*
X-7633Y-4325D02*
X-7670Y-4352D01*
X-7633Y-4370D02*
X-7712Y-4370D01*
X-7712Y-4340D01*
X-7708Y-4333D01*
X-7704Y-4329D01*
X-7696Y-4325D01*
X-7685Y-4325D01*
X-7678Y-4329D01*
X-7674Y-4333D01*
X-7670Y-4340D01*
X-7670Y-4370D01*
X-7633Y-4250D02*
X-7633Y-4295D01*
X-7633Y-4273D02*
X-7712Y-4273D01*
X-7700Y-4280D01*
X-7693Y-4288D01*
X-7689Y-4295D01*
X-7712Y-4182D02*
X-7712Y-4197D01*
X-7708Y-4205D01*
X-7704Y-4209D01*
X-7693Y-4216D01*
X-7678Y-4220D01*
X-7648Y-4220D01*
X-7640Y-4216D01*
X-7636Y-4212D01*
X-7633Y-4205D01*
X-7633Y-4190D01*
X-7636Y-4182D01*
X-7640Y-4179D01*
X-7648Y-4175D01*
X-7666Y-4175D01*
X-7674Y-4179D01*
X-7678Y-4182D01*
X-7681Y-4190D01*
X-7681Y-4205D01*
X-7678Y-4212D01*
X-7674Y-4216D01*
X-7666Y-4220D01*
X-7083Y-4325D02*
X-7120Y-4352D01*
X-7083Y-4370D02*
X-7162Y-4370D01*
X-7162Y-4340D01*
X-7158Y-4333D01*
X-7154Y-4329D01*
X-7146Y-4325D01*
X-7135Y-4325D01*
X-7128Y-4329D01*
X-7124Y-4333D01*
X-7120Y-4340D01*
X-7120Y-4370D01*
X-7083Y-4250D02*
X-7083Y-4295D01*
X-7083Y-4273D02*
X-7162Y-4273D01*
X-7150Y-4280D01*
X-7143Y-4288D01*
X-7139Y-4295D01*
X-7162Y-4179D02*
X-7162Y-4216D01*
X-7124Y-4220D01*
X-7128Y-4216D01*
X-7131Y-4209D01*
X-7131Y-4190D01*
X-7128Y-4182D01*
X-7124Y-4179D01*
X-7116Y-4175D01*
X-7098Y-4175D01*
X-7090Y-4179D01*
X-7086Y-4182D01*
X-7083Y-4190D01*
X-7083Y-4209D01*
X-7086Y-4216D01*
X-7090Y-4220D01*
X-10378Y-4700D02*
X-10415Y-4727D01*
X-10378Y-4745D02*
X-10457Y-4745D01*
X-10457Y-4715D01*
X-10453Y-4708D01*
X-10449Y-4704D01*
X-10441Y-4700D01*
X-10430Y-4700D01*
X-10423Y-4704D01*
X-10419Y-4708D01*
X-10415Y-4715D01*
X-10415Y-4745D01*
X-10378Y-4625D02*
X-10378Y-4670D01*
X-10378Y-4648D02*
X-10457Y-4648D01*
X-10445Y-4655D01*
X-10438Y-4663D01*
X-10434Y-4670D01*
X-10449Y-4595D02*
X-10453Y-4591D01*
X-10457Y-4584D01*
X-10457Y-4565D01*
X-10453Y-4557D01*
X-10449Y-4554D01*
X-10441Y-4550D01*
X-10434Y-4550D01*
X-10423Y-4554D01*
X-10378Y-4599D01*
X-10378Y-4550D01*
G54D13*
X-10649Y-7338D02*
X-10744Y-7405D01*
X-10649Y-7452D02*
X-10849Y-7452D01*
X-10849Y-7376D01*
X-10839Y-7357D01*
X-10830Y-7348D01*
X-10810Y-7338D01*
X-10782Y-7338D01*
X-10763Y-7348D01*
X-10753Y-7357D01*
X-10744Y-7376D01*
X-10744Y-7452D01*
X-10649Y-7148D02*
X-10649Y-7262D01*
X-10649Y-7205D02*
X-10849Y-7205D01*
X-10820Y-7224D01*
X-10801Y-7243D01*
X-10791Y-7262D01*
X-10649Y-6957D02*
X-10649Y-7071D01*
X-10649Y-7014D02*
X-10849Y-7014D01*
X-10820Y-7033D01*
X-10801Y-7052D01*
X-10791Y-7071D01*
X-9548Y-2740D02*
X-9615Y-2645D01*
X-9662Y-2740D02*
X-9662Y-2540D01*
X-9586Y-2540D01*
X-9567Y-2550D01*
X-9558Y-2560D01*
X-9548Y-2579D01*
X-9548Y-2607D01*
X-9558Y-2626D01*
X-9567Y-2636D01*
X-9586Y-2645D01*
X-9662Y-2645D01*
X-9358Y-2740D02*
X-9472Y-2740D01*
X-9415Y-2740D02*
X-9415Y-2540D01*
X-9434Y-2569D01*
X-9453Y-2588D01*
X-9472Y-2598D01*
X-9291Y-2540D02*
X-9167Y-2540D01*
X-9234Y-2617D01*
X-9205Y-2617D01*
X-9186Y-2626D01*
X-9177Y-2636D01*
X-9167Y-2655D01*
X-9167Y-2702D01*
X-9177Y-2721D01*
X-9186Y-2731D01*
X-9205Y-2740D01*
X-9262Y-2740D01*
X-9281Y-2731D01*
X-9291Y-2721D01*
G54D22*
X2129Y-6066D02*
X2102Y-6029D01*
X2084Y-6066D02*
X2084Y-5987D01*
X2114Y-5987D01*
X2121Y-5991D01*
X2125Y-5995D01*
X2129Y-6003D01*
X2129Y-6014D01*
X2125Y-6021D01*
X2121Y-6025D01*
X2114Y-6029D01*
X2084Y-6029D01*
X2159Y-5995D02*
X2163Y-5991D01*
X2170Y-5987D01*
X2189Y-5987D01*
X2196Y-5991D01*
X2200Y-5995D01*
X2204Y-6003D01*
X2204Y-6010D01*
X2200Y-6021D01*
X2155Y-6066D01*
X2204Y-6066D01*
X2272Y-6014D02*
X2272Y-6066D01*
X2253Y-5984D02*
X2234Y-6040D01*
X2283Y-6040D01*
G54D13*
X-6503Y-1540D02*
X-6570Y-1445D01*
X-6617Y-1540D02*
X-6617Y-1340D01*
X-6541Y-1340D01*
X-6522Y-1350D01*
X-6512Y-1360D01*
X-6503Y-1379D01*
X-6503Y-1407D01*
X-6512Y-1426D01*
X-6522Y-1436D01*
X-6541Y-1445D01*
X-6617Y-1445D01*
X-6427Y-1360D02*
X-6417Y-1350D01*
X-6398Y-1340D01*
X-6350Y-1340D01*
X-6331Y-1350D01*
X-6322Y-1360D01*
X-6312Y-1379D01*
X-6312Y-1398D01*
X-6322Y-1426D01*
X-6436Y-1540D01*
X-6312Y-1540D01*
X-6049Y-2723D02*
X-6144Y-2790D01*
X-6049Y-2837D02*
X-6249Y-2837D01*
X-6249Y-2761D01*
X-6239Y-2742D01*
X-6230Y-2732D01*
X-6210Y-2723D01*
X-6182Y-2723D01*
X-6163Y-2732D01*
X-6153Y-2742D01*
X-6144Y-2761D01*
X-6144Y-2837D01*
X-6049Y-2532D02*
X-6049Y-2647D01*
X-6049Y-2590D02*
X-6249Y-2590D01*
X-6220Y-2609D01*
X-6201Y-2628D01*
X-6191Y-2647D01*
X-8293Y-8030D02*
X-8360Y-7935D01*
X-8407Y-8030D02*
X-8407Y-7830D01*
X-8331Y-7830D01*
X-8312Y-7840D01*
X-8302Y-7850D01*
X-8293Y-7869D01*
X-8293Y-7897D01*
X-8302Y-7916D01*
X-8312Y-7926D01*
X-8331Y-7935D01*
X-8407Y-7935D01*
X-8179Y-7916D02*
X-8198Y-7907D01*
X-8207Y-7897D01*
X-8217Y-7878D01*
X-8217Y-7869D01*
X-8207Y-7850D01*
X-8198Y-7840D01*
X-8179Y-7830D01*
X-8140Y-7830D01*
X-8121Y-7840D01*
X-8112Y-7850D01*
X-8102Y-7869D01*
X-8102Y-7878D01*
X-8112Y-7897D01*
X-8121Y-7907D01*
X-8140Y-7916D01*
X-8179Y-7916D01*
X-8198Y-7926D01*
X-8207Y-7935D01*
X-8217Y-7954D01*
X-8217Y-7992D01*
X-8207Y-8011D01*
X-8198Y-8021D01*
X-8179Y-8030D01*
X-8140Y-8030D01*
X-8121Y-8021D01*
X-8112Y-8011D01*
X-8102Y-7992D01*
X-8102Y-7954D01*
X-8112Y-7935D01*
X-8121Y-7926D01*
X-8140Y-7916D01*
X-157Y-1449D02*
X192Y-1449D01*
X234Y-1429D01*
X254Y-1408D01*
X275Y-1367D01*
X275Y-1284D01*
X254Y-1243D01*
X234Y-1223D01*
X192Y-1202D01*
X-157Y-1202D01*
X-157Y-1037D02*
X-157Y-769D01*
X7Y-913D01*
X7Y-851D01*
X27Y-810D01*
X48Y-790D01*
X89Y-769D01*
X192Y-769D01*
X234Y-790D01*
X254Y-810D01*
X275Y-851D01*
X275Y-975D01*
X254Y-1016D01*
X234Y-1037D01*
X-12809Y-1887D02*
X-13009Y-1887D01*
X-13009Y-1811D01*
X-12999Y-1792D01*
X-12990Y-1782D01*
X-12970Y-1773D01*
X-12942Y-1773D01*
X-12923Y-1782D01*
X-12913Y-1792D01*
X-12904Y-1811D01*
X-12904Y-1887D01*
X-12809Y-1582D02*
X-12809Y-1697D01*
X-12809Y-1640D02*
X-13009Y-1640D01*
X-12980Y-1659D01*
X-12961Y-1678D01*
X-12951Y-1697D01*
G54D22*
X2129Y-8066D02*
X2102Y-8029D01*
X2084Y-8066D02*
X2084Y-7987D01*
X2114Y-7987D01*
X2121Y-7991D01*
X2125Y-7995D01*
X2129Y-8003D01*
X2129Y-8014D01*
X2125Y-8021D01*
X2121Y-8025D01*
X2114Y-8029D01*
X2084Y-8029D01*
X2159Y-7995D02*
X2163Y-7991D01*
X2170Y-7987D01*
X2189Y-7987D01*
X2196Y-7991D01*
X2200Y-7995D01*
X2204Y-8003D01*
X2204Y-8010D01*
X2200Y-8021D01*
X2155Y-8066D01*
X2204Y-8066D01*
X2234Y-7995D02*
X2238Y-7991D01*
X2245Y-7987D01*
X2264Y-7987D01*
X2272Y-7991D01*
X2275Y-7995D01*
X2279Y-8003D01*
X2279Y-8010D01*
X2275Y-8021D01*
X2230Y-8066D01*
X2279Y-8066D01*
X2129Y-7066D02*
X2102Y-7029D01*
X2084Y-7066D02*
X2084Y-6987D01*
X2114Y-6987D01*
X2121Y-6991D01*
X2125Y-6995D01*
X2129Y-7003D01*
X2129Y-7014D01*
X2125Y-7021D01*
X2121Y-7025D01*
X2114Y-7029D01*
X2084Y-7029D01*
X2159Y-6995D02*
X2163Y-6991D01*
X2170Y-6987D01*
X2189Y-6987D01*
X2196Y-6991D01*
X2200Y-6995D01*
X2204Y-7003D01*
X2204Y-7010D01*
X2200Y-7021D01*
X2155Y-7066D01*
X2204Y-7066D01*
X2230Y-6987D02*
X2279Y-6987D01*
X2253Y-7018D01*
X2264Y-7018D01*
X2272Y-7021D01*
X2275Y-7025D01*
X2279Y-7033D01*
X2279Y-7051D01*
X2275Y-7059D01*
X2272Y-7063D01*
X2264Y-7066D01*
X2242Y-7066D01*
X2234Y-7063D01*
X2230Y-7059D01*
G54D21*
X-12395Y-3329D02*
X-12395Y-3132D01*
X-12348Y-3132D01*
X-12320Y-3142D01*
X-12301Y-3160D01*
X-12292Y-3179D01*
X-12282Y-3217D01*
X-12282Y-3245D01*
X-12292Y-3282D01*
X-12301Y-3301D01*
X-12320Y-3320D01*
X-12348Y-3329D01*
X-12395Y-3329D01*
X-12095Y-3329D02*
X-12207Y-3329D01*
X-12151Y-3329D02*
X-12151Y-3132D01*
X-12170Y-3160D01*
X-12189Y-3179D01*
X-12207Y-3189D01*
X-13599Y-8120D02*
X-13599Y-7884D01*
X-13542Y-7884D01*
X-13509Y-7895D01*
X-13486Y-7918D01*
X-13475Y-7940D01*
X-13464Y-7985D01*
X-13464Y-8019D01*
X-13475Y-8064D01*
X-13486Y-8086D01*
X-13509Y-8109D01*
X-13542Y-8120D01*
X-13599Y-8120D01*
X-13374Y-7907D02*
X-13363Y-7895D01*
X-13340Y-7884D01*
X-13284Y-7884D01*
X-13262Y-7895D01*
X-13250Y-7907D01*
X-13239Y-7929D01*
X-13239Y-7951D01*
X-13250Y-7985D01*
X-13385Y-8120D01*
X-13239Y-8120D01*
G54D13*
X-7582Y-1870D02*
X-7468Y-1870D01*
X-7525Y-2070D02*
X-7525Y-1870D01*
X-7401Y-2070D02*
X-7401Y-1870D01*
X-7325Y-1870D01*
X-7306Y-1880D01*
X-7296Y-1890D01*
X-7287Y-1909D01*
X-7287Y-1937D01*
X-7296Y-1956D01*
X-7306Y-1966D01*
X-7325Y-1975D01*
X-7401Y-1975D01*
X-7220Y-1870D02*
X-7096Y-1870D01*
X-7163Y-1947D01*
X-7134Y-1947D01*
X-7115Y-1956D01*
X-7106Y-1966D01*
X-7096Y-1985D01*
X-7096Y-2032D01*
X-7106Y-2051D01*
X-7115Y-2061D01*
X-7134Y-2070D01*
X-7191Y-2070D01*
X-7210Y-2061D01*
X-7220Y-2051D01*
G54D25*
X-8767Y169D02*
X-8607Y169D01*
X-8589Y179D01*
X-8579Y188D01*
X-8570Y207D01*
X-8570Y244D01*
X-8579Y263D01*
X-8589Y273D01*
X-8607Y282D01*
X-8767Y282D01*
X-8767Y357D02*
X-8767Y488D01*
X-8570Y404D01*
G54D10*
X-8524Y-4290D02*
X-8524Y-4609D01*
X-8506Y-4646D01*
X-8487Y-4665D01*
X-8449Y-4684D01*
X-8374Y-4684D01*
X-8337Y-4665D01*
X-8318Y-4646D01*
X-8299Y-4609D01*
X-8299Y-4290D01*
X-7925Y-4290D02*
X-8112Y-4290D01*
X-8131Y-4478D01*
X-8112Y-4459D01*
X-8075Y-4440D01*
X-7981Y-4440D01*
X-7943Y-4459D01*
X-7925Y-4478D01*
X-7906Y-4515D01*
X-7906Y-4609D01*
X-7925Y-4646D01*
X-7943Y-4665D01*
X-7981Y-4684D01*
X-8075Y-4684D01*
X-8112Y-4665D01*
X-8131Y-4646D01*
G54D12*
X-18007Y3543D02*
X-17528Y3543D01*
X-17472Y3571D01*
X-17444Y3600D01*
X-17416Y3656D01*
X-17416Y3768D01*
X-17444Y3825D01*
X-17472Y3853D01*
X-17528Y3881D01*
X-18007Y3881D01*
X-17416Y4471D02*
X-17416Y4134D01*
X-17416Y4303D02*
X-18007Y4303D01*
X-17922Y4246D01*
X-17866Y4190D01*
X-17838Y4134D01*
X-17416Y5034D02*
X-17416Y4696D01*
X-17416Y4865D02*
X-18007Y4865D01*
X-17922Y4809D01*
X-17866Y4753D01*
X-17838Y4696D01*
G54D22*
X2129Y-7559D02*
X2125Y-7563D01*
X2114Y-7566D01*
X2106Y-7566D01*
X2095Y-7563D01*
X2087Y-7555D01*
X2084Y-7548D01*
X2080Y-7533D01*
X2080Y-7521D01*
X2084Y-7506D01*
X2087Y-7499D01*
X2095Y-7491D01*
X2106Y-7487D01*
X2114Y-7487D01*
X2125Y-7491D01*
X2129Y-7495D01*
X2200Y-7487D02*
X2163Y-7487D01*
X2159Y-7525D01*
X2163Y-7521D01*
X2170Y-7518D01*
X2189Y-7518D01*
X2196Y-7521D01*
X2200Y-7525D01*
X2204Y-7533D01*
X2204Y-7551D01*
X2200Y-7559D01*
X2196Y-7563D01*
X2189Y-7566D01*
X2170Y-7566D01*
X2163Y-7563D01*
X2159Y-7559D01*
X2272Y-7514D02*
X2272Y-7566D01*
X2253Y-7484D02*
X2234Y-7540D01*
X2283Y-7540D01*
G54D13*
X-6916Y325D02*
X-6925Y316D01*
X-6954Y306D01*
X-6973Y306D01*
X-7001Y316D01*
X-7020Y335D01*
X-7030Y354D01*
X-7039Y392D01*
X-7039Y420D01*
X-7030Y458D01*
X-7020Y477D01*
X-7001Y497D01*
X-6973Y506D01*
X-6954Y506D01*
X-6925Y497D01*
X-6916Y487D01*
X-6744Y439D02*
X-6744Y306D01*
X-6792Y516D02*
X-6839Y373D01*
X-6716Y373D01*
X-6535Y306D02*
X-6649Y306D01*
X-6592Y306D02*
X-6592Y506D01*
X-6611Y477D01*
X-6630Y458D01*
X-6649Y449D01*
X-7673Y498D02*
X-7683Y488D01*
X-7711Y479D01*
X-7730Y479D01*
X-7759Y488D01*
X-7778Y507D01*
X-7787Y526D01*
X-7797Y564D01*
X-7797Y593D01*
X-7787Y631D01*
X-7778Y650D01*
X-7759Y669D01*
X-7730Y679D01*
X-7711Y679D01*
X-7683Y669D01*
X-7673Y660D01*
X-7606Y679D02*
X-7483Y679D01*
X-7549Y602D01*
X-7521Y602D01*
X-7502Y593D01*
X-7492Y583D01*
X-7483Y564D01*
X-7483Y517D01*
X-7492Y498D01*
X-7502Y488D01*
X-7521Y479D01*
X-7578Y479D01*
X-7597Y488D01*
X-7606Y498D01*
X-7368Y593D02*
X-7387Y602D01*
X-7397Y612D01*
X-7406Y631D01*
X-7406Y640D01*
X-7397Y660D01*
X-7387Y669D01*
X-7368Y679D01*
X-7330Y679D01*
X-7311Y669D01*
X-7302Y660D01*
X-7292Y640D01*
X-7292Y631D01*
X-7302Y612D01*
X-7311Y602D01*
X-7330Y593D01*
X-7368Y593D01*
X-7387Y583D01*
X-7397Y574D01*
X-7406Y555D01*
X-7406Y517D01*
X-7397Y498D01*
X-7387Y488D01*
X-7368Y479D01*
X-7330Y479D01*
X-7311Y488D01*
X-7302Y498D01*
X-7292Y517D01*
X-7292Y555D01*
X-7302Y574D01*
X-7311Y583D01*
X-7330Y593D01*
X3811Y-8521D02*
X3801Y-8531D01*
X3773Y-8540D01*
X3754Y-8540D01*
X3725Y-8531D01*
X3706Y-8512D01*
X3697Y-8493D01*
X3687Y-8455D01*
X3687Y-8426D01*
X3697Y-8388D01*
X3706Y-8369D01*
X3725Y-8350D01*
X3754Y-8340D01*
X3773Y-8340D01*
X3801Y-8350D01*
X3811Y-8360D01*
X3992Y-8340D02*
X3897Y-8340D01*
X3887Y-8436D01*
X3897Y-8426D01*
X3916Y-8417D01*
X3963Y-8417D01*
X3982Y-8426D01*
X3992Y-8436D01*
X4001Y-8455D01*
X4001Y-8502D01*
X3992Y-8521D01*
X3982Y-8531D01*
X3963Y-8540D01*
X3916Y-8540D01*
X3897Y-8531D01*
X3887Y-8521D01*
X4068Y-8340D02*
X4192Y-8340D01*
X4125Y-8417D01*
X4154Y-8417D01*
X4173Y-8426D01*
X4182Y-8436D01*
X4192Y-8455D01*
X4192Y-8502D01*
X4182Y-8521D01*
X4173Y-8531D01*
X4154Y-8540D01*
X4097Y-8540D01*
X4078Y-8531D01*
X4068Y-8521D01*
G54D22*
X2129Y-4041D02*
X2102Y-4004D01*
X2084Y-4041D02*
X2084Y-3962D01*
X2114Y-3962D01*
X2121Y-3966D01*
X2125Y-3970D01*
X2129Y-3978D01*
X2129Y-3989D01*
X2125Y-3996D01*
X2121Y-4000D01*
X2114Y-4004D01*
X2084Y-4004D01*
X2159Y-3970D02*
X2163Y-3966D01*
X2170Y-3962D01*
X2189Y-3962D01*
X2196Y-3966D01*
X2200Y-3970D01*
X2204Y-3978D01*
X2204Y-3985D01*
X2200Y-3996D01*
X2155Y-4041D01*
X2204Y-4041D01*
X2272Y-3962D02*
X2257Y-3962D01*
X2249Y-3966D01*
X2245Y-3970D01*
X2238Y-3981D01*
X2234Y-3996D01*
X2234Y-4026D01*
X2238Y-4034D01*
X2242Y-4038D01*
X2249Y-4041D01*
X2264Y-4041D01*
X2272Y-4038D01*
X2275Y-4034D01*
X2279Y-4026D01*
X2279Y-4008D01*
X2275Y-4000D01*
X2272Y-3996D01*
X2264Y-3993D01*
X2249Y-3993D01*
X2242Y-3996D01*
X2238Y-4000D01*
X2234Y-4008D01*
X2129Y-5041D02*
X2102Y-5004D01*
X2084Y-5041D02*
X2084Y-4962D01*
X2114Y-4962D01*
X2121Y-4966D01*
X2125Y-4970D01*
X2129Y-4978D01*
X2129Y-4989D01*
X2125Y-4996D01*
X2121Y-5000D01*
X2114Y-5004D01*
X2084Y-5004D01*
X2159Y-4970D02*
X2163Y-4966D01*
X2170Y-4962D01*
X2189Y-4962D01*
X2196Y-4966D01*
X2200Y-4970D01*
X2204Y-4978D01*
X2204Y-4985D01*
X2200Y-4996D01*
X2155Y-5041D01*
X2204Y-5041D01*
X2275Y-4962D02*
X2238Y-4962D01*
X2234Y-5000D01*
X2238Y-4996D01*
X2245Y-4993D01*
X2264Y-4993D01*
X2272Y-4996D01*
X2275Y-5000D01*
X2279Y-5008D01*
X2279Y-5026D01*
X2275Y-5034D01*
X2272Y-5038D01*
X2264Y-5041D01*
X2245Y-5041D01*
X2238Y-5038D01*
X2234Y-5034D01*
X-2445Y-8584D02*
X-2449Y-8588D01*
X-2460Y-8591D01*
X-2468Y-8591D01*
X-2479Y-8588D01*
X-2487Y-8580D01*
X-2490Y-8573D01*
X-2494Y-8558D01*
X-2494Y-8546D01*
X-2490Y-8531D01*
X-2487Y-8524D01*
X-2479Y-8516D01*
X-2468Y-8512D01*
X-2460Y-8512D01*
X-2449Y-8516D01*
X-2445Y-8520D01*
X-2415Y-8520D02*
X-2411Y-8516D01*
X-2404Y-8512D01*
X-2385Y-8512D01*
X-2378Y-8516D01*
X-2374Y-8520D01*
X-2370Y-8528D01*
X-2370Y-8535D01*
X-2374Y-8546D01*
X-2419Y-8591D01*
X-2370Y-8591D01*
X-2321Y-8512D02*
X-2314Y-8512D01*
X-2306Y-8516D01*
X-2302Y-8520D01*
X-2299Y-8528D01*
X-2295Y-8543D01*
X-2295Y-8561D01*
X-2299Y-8576D01*
X-2302Y-8584D01*
X-2306Y-8588D01*
X-2314Y-8591D01*
X-2321Y-8591D01*
X-2329Y-8588D01*
X-2332Y-8584D01*
X-2336Y-8576D01*
X-2340Y-8561D01*
X-2340Y-8543D01*
X-2336Y-8528D01*
X-2332Y-8520D01*
X-2329Y-8516D01*
X-2321Y-8512D01*
G54D13*
X-5558Y-4711D02*
X-5568Y-4721D01*
X-5596Y-4730D01*
X-5615Y-4730D01*
X-5644Y-4721D01*
X-5663Y-4702D01*
X-5672Y-4683D01*
X-5682Y-4645D01*
X-5682Y-4616D01*
X-5672Y-4578D01*
X-5663Y-4559D01*
X-5644Y-4540D01*
X-5615Y-4530D01*
X-5596Y-4530D01*
X-5568Y-4540D01*
X-5558Y-4550D01*
X-5482Y-4550D02*
X-5472Y-4540D01*
X-5453Y-4530D01*
X-5406Y-4530D01*
X-5387Y-4540D01*
X-5377Y-4550D01*
X-5368Y-4569D01*
X-5368Y-4588D01*
X-5377Y-4616D01*
X-5491Y-4730D01*
X-5368Y-4730D01*
X-5177Y-4730D02*
X-5291Y-4730D01*
X-5234Y-4730D02*
X-5234Y-4530D01*
X-5253Y-4559D01*
X-5272Y-4578D01*
X-5291Y-4588D01*
G54D22*
X-2445Y-8034D02*
X-2449Y-8038D01*
X-2460Y-8041D01*
X-2468Y-8041D01*
X-2479Y-8038D01*
X-2487Y-8030D01*
X-2490Y-8023D01*
X-2494Y-8008D01*
X-2494Y-7996D01*
X-2490Y-7981D01*
X-2487Y-7974D01*
X-2479Y-7966D01*
X-2468Y-7962D01*
X-2460Y-7962D01*
X-2449Y-7966D01*
X-2445Y-7970D01*
X-2415Y-7970D02*
X-2411Y-7966D01*
X-2404Y-7962D01*
X-2385Y-7962D01*
X-2378Y-7966D01*
X-2374Y-7970D01*
X-2370Y-7978D01*
X-2370Y-7985D01*
X-2374Y-7996D01*
X-2419Y-8041D01*
X-2370Y-8041D01*
X-2340Y-7970D02*
X-2336Y-7966D01*
X-2329Y-7962D01*
X-2310Y-7962D01*
X-2302Y-7966D01*
X-2299Y-7970D01*
X-2295Y-7978D01*
X-2295Y-7985D01*
X-2299Y-7996D01*
X-2344Y-8041D01*
X-2295Y-8041D01*
G54D13*
X-4968Y-5331D02*
X-4978Y-5341D01*
X-5006Y-5350D01*
X-5025Y-5350D01*
X-5054Y-5341D01*
X-5073Y-5322D01*
X-5082Y-5303D01*
X-5092Y-5265D01*
X-5092Y-5236D01*
X-5082Y-5198D01*
X-5073Y-5179D01*
X-5054Y-5160D01*
X-5025Y-5150D01*
X-5006Y-5150D01*
X-4978Y-5160D01*
X-4968Y-5170D01*
X-4892Y-5170D02*
X-4882Y-5160D01*
X-4863Y-5150D01*
X-4816Y-5150D01*
X-4797Y-5160D01*
X-4787Y-5170D01*
X-4778Y-5189D01*
X-4778Y-5208D01*
X-4787Y-5236D01*
X-4901Y-5350D01*
X-4778Y-5350D01*
X-4711Y-5150D02*
X-4587Y-5150D01*
X-4654Y-5227D01*
X-4625Y-5227D01*
X-4606Y-5236D01*
X-4597Y-5246D01*
X-4587Y-5265D01*
X-4587Y-5312D01*
X-4597Y-5331D01*
X-4606Y-5341D01*
X-4625Y-5350D01*
X-4682Y-5350D01*
X-4701Y-5341D01*
X-4711Y-5331D01*
X-9658Y-8611D02*
X-9668Y-8621D01*
X-9696Y-8630D01*
X-9715Y-8630D01*
X-9744Y-8621D01*
X-9763Y-8602D01*
X-9772Y-8583D01*
X-9782Y-8545D01*
X-9782Y-8516D01*
X-9772Y-8478D01*
X-9763Y-8459D01*
X-9744Y-8440D01*
X-9715Y-8430D01*
X-9696Y-8430D01*
X-9668Y-8440D01*
X-9658Y-8450D01*
X-9582Y-8450D02*
X-9572Y-8440D01*
X-9553Y-8430D01*
X-9506Y-8430D01*
X-9487Y-8440D01*
X-9477Y-8450D01*
X-9468Y-8469D01*
X-9468Y-8488D01*
X-9477Y-8516D01*
X-9591Y-8630D01*
X-9468Y-8630D01*
X-9296Y-8497D02*
X-9296Y-8630D01*
X-9344Y-8421D02*
X-9391Y-8564D01*
X-9268Y-8564D01*
G54D22*
X-1293Y-7484D02*
X-1296Y-7488D01*
X-1308Y-7491D01*
X-1315Y-7491D01*
X-1327Y-7488D01*
X-1334Y-7480D01*
X-1338Y-7473D01*
X-1342Y-7458D01*
X-1342Y-7446D01*
X-1338Y-7431D01*
X-1334Y-7424D01*
X-1327Y-7416D01*
X-1315Y-7412D01*
X-1308Y-7412D01*
X-1296Y-7416D01*
X-1293Y-7420D01*
X-1266Y-7412D02*
X-1214Y-7412D01*
X-1248Y-7491D01*
G54D13*
X-2263Y1208D02*
X-2272Y1198D01*
X-2301Y1189D01*
X-2320Y1189D01*
X-2349Y1198D01*
X-2368Y1217D01*
X-2377Y1236D01*
X-2387Y1274D01*
X-2387Y1303D01*
X-2377Y1341D01*
X-2368Y1360D01*
X-2349Y1379D01*
X-2320Y1389D01*
X-2301Y1389D01*
X-2272Y1379D01*
X-2263Y1370D01*
X-2168Y1189D02*
X-2130Y1189D01*
X-2110Y1198D01*
X-2101Y1208D01*
X-2082Y1236D01*
X-2072Y1274D01*
X-2072Y1350D01*
X-2082Y1370D01*
X-2091Y1379D01*
X-2110Y1389D01*
X-2149Y1389D01*
X-2168Y1379D01*
X-2177Y1370D01*
X-2187Y1350D01*
X-2187Y1303D01*
X-2177Y1284D01*
X-2168Y1274D01*
X-2149Y1265D01*
X-2110Y1265D01*
X-2091Y1274D01*
X-2082Y1284D01*
X-2072Y1303D01*
X-5088Y698D02*
X-5098Y688D01*
X-5126Y679D01*
X-5145Y679D01*
X-5174Y688D01*
X-5193Y707D01*
X-5202Y726D01*
X-5212Y764D01*
X-5212Y793D01*
X-5202Y831D01*
X-5193Y850D01*
X-5174Y869D01*
X-5145Y879D01*
X-5126Y879D01*
X-5098Y869D01*
X-5088Y860D01*
X-4898Y679D02*
X-5012Y679D01*
X-4955Y679D02*
X-4955Y879D01*
X-4974Y850D01*
X-4993Y831D01*
X-5012Y821D01*
X-4726Y812D02*
X-4726Y679D01*
X-4774Y888D02*
X-4821Y745D01*
X-4698Y745D01*
X-2528Y-6351D02*
X-2538Y-6361D01*
X-2566Y-6370D01*
X-2585Y-6370D01*
X-2614Y-6361D01*
X-2633Y-6342D01*
X-2642Y-6323D01*
X-2652Y-6285D01*
X-2652Y-6256D01*
X-2642Y-6218D01*
X-2633Y-6199D01*
X-2614Y-6180D01*
X-2585Y-6170D01*
X-2566Y-6170D01*
X-2538Y-6180D01*
X-2528Y-6190D01*
X-2338Y-6370D02*
X-2452Y-6370D01*
X-2395Y-6370D02*
X-2395Y-6170D01*
X-2414Y-6199D01*
X-2433Y-6218D01*
X-2452Y-6228D01*
X-2214Y-6170D02*
X-2195Y-6170D01*
X-2176Y-6180D01*
X-2166Y-6190D01*
X-2157Y-6209D01*
X-2147Y-6247D01*
X-2147Y-6294D01*
X-2157Y-6332D01*
X-2166Y-6351D01*
X-2176Y-6361D01*
X-2195Y-6370D01*
X-2214Y-6370D01*
X-2233Y-6361D01*
X-2242Y-6351D01*
X-2252Y-6332D01*
X-2261Y-6294D01*
X-2261Y-6247D01*
X-2252Y-6209D01*
X-2242Y-6190D01*
X-2233Y-6180D01*
X-2214Y-6170D01*
G54D22*
X1579Y-8923D02*
X1583Y-8926D01*
X1586Y-8938D01*
X1586Y-8945D01*
X1583Y-8957D01*
X1575Y-8964D01*
X1568Y-8968D01*
X1553Y-8972D01*
X1541Y-8972D01*
X1526Y-8968D01*
X1519Y-8964D01*
X1511Y-8957D01*
X1507Y-8945D01*
X1507Y-8938D01*
X1511Y-8926D01*
X1515Y-8923D01*
X1507Y-8851D02*
X1507Y-8889D01*
X1545Y-8893D01*
X1541Y-8889D01*
X1538Y-8881D01*
X1538Y-8862D01*
X1541Y-8855D01*
X1545Y-8851D01*
X1553Y-8847D01*
X1571Y-8847D01*
X1579Y-8851D01*
X1583Y-8855D01*
X1586Y-8862D01*
X1586Y-8881D01*
X1583Y-8889D01*
X1579Y-8893D01*
X-3568Y8905D02*
X-3571Y8901D01*
X-3583Y8898D01*
X-3590Y8898D01*
X-3602Y8901D01*
X-3609Y8909D01*
X-3613Y8916D01*
X-3617Y8931D01*
X-3617Y8943D01*
X-3613Y8958D01*
X-3609Y8965D01*
X-3602Y8973D01*
X-3590Y8977D01*
X-3583Y8977D01*
X-3571Y8973D01*
X-3568Y8969D01*
X-3500Y8950D02*
X-3500Y8898D01*
X-3519Y8980D02*
X-3538Y8924D01*
X-3489Y8924D01*
X-9738Y-611D02*
X-9742Y-615D01*
X-9753Y-619D01*
X-9760Y-619D01*
X-9772Y-615D01*
X-9779Y-608D01*
X-9783Y-600D01*
X-9787Y-585D01*
X-9787Y-574D01*
X-9783Y-559D01*
X-9779Y-551D01*
X-9772Y-544D01*
X-9760Y-540D01*
X-9753Y-540D01*
X-9742Y-544D01*
X-9738Y-548D01*
X-9711Y-540D02*
X-9663Y-540D01*
X-9689Y-570D01*
X-9678Y-570D01*
X-9670Y-574D01*
X-9666Y-578D01*
X-9663Y-585D01*
X-9663Y-604D01*
X-9666Y-611D01*
X-9670Y-615D01*
X-9678Y-619D01*
X-9700Y-619D01*
X-9708Y-615D01*
X-9711Y-611D01*
X-9587Y-619D02*
X-9632Y-619D01*
X-9610Y-619D02*
X-9610Y-540D01*
X-9617Y-551D01*
X-9625Y-559D01*
X-9632Y-563D01*
G54D13*
X-5078Y198D02*
X-5088Y188D01*
X-5116Y179D01*
X-5135Y179D01*
X-5164Y188D01*
X-5183Y207D01*
X-5192Y226D01*
X-5202Y264D01*
X-5202Y293D01*
X-5192Y331D01*
X-5183Y350D01*
X-5164Y369D01*
X-5135Y379D01*
X-5116Y379D01*
X-5088Y369D01*
X-5078Y360D01*
X-4888Y179D02*
X-5002Y179D01*
X-4945Y179D02*
X-4945Y379D01*
X-4964Y350D01*
X-4983Y331D01*
X-5002Y321D01*
X-4707Y379D02*
X-4802Y379D01*
X-4811Y283D01*
X-4802Y293D01*
X-4783Y302D01*
X-4735Y302D01*
X-4716Y293D01*
X-4707Y283D01*
X-4697Y264D01*
X-4697Y217D01*
X-4707Y198D01*
X-4716Y188D01*
X-4735Y179D01*
X-4783Y179D01*
X-4802Y188D01*
X-4811Y198D01*
G54D22*
X-5755Y7166D02*
X-5751Y7163D01*
X-5748Y7151D01*
X-5748Y7144D01*
X-5751Y7132D01*
X-5759Y7125D01*
X-5766Y7121D01*
X-5781Y7117D01*
X-5793Y7117D01*
X-5808Y7121D01*
X-5815Y7125D01*
X-5823Y7132D01*
X-5827Y7144D01*
X-5827Y7151D01*
X-5823Y7163D01*
X-5819Y7166D01*
X-5748Y7242D02*
X-5748Y7196D01*
X-5748Y7219D02*
X-5827Y7219D01*
X-5815Y7211D01*
X-5808Y7204D01*
X-5804Y7196D01*
X-2445Y-7484D02*
X-2449Y-7488D01*
X-2460Y-7491D01*
X-2468Y-7491D01*
X-2479Y-7488D01*
X-2487Y-7480D01*
X-2490Y-7473D01*
X-2494Y-7458D01*
X-2494Y-7446D01*
X-2490Y-7431D01*
X-2487Y-7424D01*
X-2479Y-7416D01*
X-2468Y-7412D01*
X-2460Y-7412D01*
X-2449Y-7416D01*
X-2445Y-7420D01*
X-2370Y-7491D02*
X-2415Y-7491D01*
X-2393Y-7491D02*
X-2393Y-7412D01*
X-2400Y-7424D01*
X-2408Y-7431D01*
X-2415Y-7435D01*
X-2295Y-7491D02*
X-2340Y-7491D01*
X-2317Y-7491D02*
X-2317Y-7412D01*
X-2325Y-7424D01*
X-2332Y-7431D01*
X-2340Y-7435D01*
X-1085Y-9263D02*
X-1081Y-9266D01*
X-1078Y-9278D01*
X-1078Y-9285D01*
X-1081Y-9297D01*
X-1089Y-9304D01*
X-1096Y-9308D01*
X-1111Y-9312D01*
X-1123Y-9312D01*
X-1138Y-9308D01*
X-1145Y-9304D01*
X-1153Y-9297D01*
X-1157Y-9285D01*
X-1157Y-9278D01*
X-1153Y-9266D01*
X-1149Y-9263D01*
X-1157Y-9195D02*
X-1157Y-9210D01*
X-1153Y-9218D01*
X-1149Y-9221D01*
X-1138Y-9229D01*
X-1123Y-9233D01*
X-1093Y-9233D01*
X-1085Y-9229D01*
X-1081Y-9225D01*
X-1078Y-9218D01*
X-1078Y-9202D01*
X-1081Y-9195D01*
X-1085Y-9191D01*
X-1093Y-9187D01*
X-1111Y-9187D01*
X-1119Y-9191D01*
X-1123Y-9195D01*
X-1126Y-9202D01*
X-1126Y-9218D01*
X-1123Y-9225D01*
X-1119Y-9229D01*
X-1111Y-9233D01*
G54D13*
X-5078Y1278D02*
X-5088Y1268D01*
X-5116Y1259D01*
X-5135Y1259D01*
X-5164Y1268D01*
X-5183Y1287D01*
X-5192Y1306D01*
X-5202Y1344D01*
X-5202Y1373D01*
X-5192Y1411D01*
X-5183Y1430D01*
X-5164Y1449D01*
X-5135Y1459D01*
X-5116Y1459D01*
X-5088Y1449D01*
X-5078Y1440D01*
X-4888Y1259D02*
X-5002Y1259D01*
X-4945Y1259D02*
X-4945Y1459D01*
X-4964Y1430D01*
X-4983Y1411D01*
X-5002Y1401D01*
X-4811Y1440D02*
X-4802Y1449D01*
X-4783Y1459D01*
X-4735Y1459D01*
X-4716Y1449D01*
X-4707Y1440D01*
X-4697Y1420D01*
X-4697Y1401D01*
X-4707Y1373D01*
X-4821Y1259D01*
X-4697Y1259D01*
X-10828Y-1878D02*
X-10818Y-1888D01*
X-10809Y-1916D01*
X-10809Y-1935D01*
X-10818Y-1964D01*
X-10837Y-1983D01*
X-10856Y-1992D01*
X-10894Y-2002D01*
X-10923Y-2002D01*
X-10961Y-1992D01*
X-10980Y-1983D01*
X-10999Y-1964D01*
X-11009Y-1935D01*
X-11009Y-1916D01*
X-10999Y-1888D01*
X-10990Y-1878D01*
X-10990Y-1802D02*
X-10999Y-1792D01*
X-11009Y-1773D01*
X-11009Y-1726D01*
X-10999Y-1707D01*
X-10990Y-1697D01*
X-10970Y-1688D01*
X-10951Y-1688D01*
X-10923Y-1697D01*
X-10809Y-1811D01*
X-10809Y-1688D01*
X-10809Y-1592D02*
X-10809Y-1554D01*
X-10818Y-1535D01*
X-10828Y-1526D01*
X-10856Y-1507D01*
X-10894Y-1497D01*
X-10970Y-1497D01*
X-10990Y-1507D01*
X-10999Y-1516D01*
X-11009Y-1535D01*
X-11009Y-1573D01*
X-10999Y-1592D01*
X-10990Y-1602D01*
X-10970Y-1611D01*
X-10923Y-1611D01*
X-10904Y-1602D01*
X-10894Y-1592D01*
X-10885Y-1573D01*
X-10885Y-1535D01*
X-10894Y-1516D01*
X-10904Y-1507D01*
X-10923Y-1497D01*
G54D22*
X-8863Y-1563D02*
X-8859Y-1567D01*
X-8855Y-1578D01*
X-8855Y-1585D01*
X-8859Y-1597D01*
X-8866Y-1604D01*
X-8874Y-1608D01*
X-8889Y-1612D01*
X-8900Y-1612D01*
X-8915Y-1608D01*
X-8923Y-1604D01*
X-8930Y-1597D01*
X-8934Y-1585D01*
X-8934Y-1578D01*
X-8930Y-1567D01*
X-8927Y-1563D01*
X-8934Y-1536D02*
X-8934Y-1488D01*
X-8904Y-1514D01*
X-8904Y-1503D01*
X-8900Y-1495D01*
X-8896Y-1491D01*
X-8889Y-1488D01*
X-8870Y-1488D01*
X-8863Y-1491D01*
X-8859Y-1495D01*
X-8855Y-1503D01*
X-8855Y-1525D01*
X-8859Y-1533D01*
X-8863Y-1536D01*
X-8934Y-1461D02*
X-8934Y-1412D01*
X-8904Y-1439D01*
X-8904Y-1427D01*
X-8900Y-1420D01*
X-8896Y-1416D01*
X-8889Y-1412D01*
X-8870Y-1412D01*
X-8863Y-1416D01*
X-8859Y-1420D01*
X-8855Y-1427D01*
X-8855Y-1450D01*
X-8859Y-1457D01*
X-8863Y-1461D01*
G54D13*
X-778Y1568D02*
X-788Y1558D01*
X-816Y1549D01*
X-835Y1549D01*
X-864Y1558D01*
X-883Y1577D01*
X-892Y1596D01*
X-902Y1634D01*
X-902Y1663D01*
X-892Y1701D01*
X-883Y1720D01*
X-864Y1739D01*
X-835Y1749D01*
X-816Y1749D01*
X-788Y1739D01*
X-778Y1730D01*
X-588Y1549D02*
X-702Y1549D01*
X-645Y1549D02*
X-645Y1749D01*
X-664Y1720D01*
X-683Y1701D01*
X-702Y1691D01*
X-473Y1663D02*
X-492Y1672D01*
X-502Y1682D01*
X-511Y1701D01*
X-511Y1710D01*
X-502Y1730D01*
X-492Y1739D01*
X-473Y1749D01*
X-435Y1749D01*
X-416Y1739D01*
X-407Y1730D01*
X-397Y1710D01*
X-397Y1701D01*
X-407Y1682D01*
X-416Y1672D01*
X-435Y1663D01*
X-473Y1663D01*
X-492Y1653D01*
X-502Y1644D01*
X-511Y1625D01*
X-511Y1587D01*
X-502Y1568D01*
X-492Y1558D01*
X-473Y1549D01*
X-435Y1549D01*
X-416Y1558D01*
X-407Y1568D01*
X-397Y1587D01*
X-397Y1625D01*
X-407Y1644D01*
X-416Y1653D01*
X-435Y1663D01*
X-4188Y-7398D02*
X-4178Y-7408D01*
X-4169Y-7436D01*
X-4169Y-7455D01*
X-4178Y-7484D01*
X-4197Y-7503D01*
X-4216Y-7512D01*
X-4254Y-7522D01*
X-4283Y-7522D01*
X-4321Y-7512D01*
X-4340Y-7503D01*
X-4359Y-7484D01*
X-4369Y-7455D01*
X-4369Y-7436D01*
X-4359Y-7408D01*
X-4350Y-7398D01*
X-4169Y-7208D02*
X-4169Y-7322D01*
X-4169Y-7265D02*
X-4369Y-7265D01*
X-4340Y-7284D01*
X-4321Y-7303D01*
X-4311Y-7322D01*
X-4169Y-7112D02*
X-4169Y-7074D01*
X-4178Y-7055D01*
X-4188Y-7046D01*
X-4216Y-7027D01*
X-4254Y-7017D01*
X-4330Y-7017D01*
X-4350Y-7027D01*
X-4359Y-7036D01*
X-4369Y-7055D01*
X-4369Y-7093D01*
X-4359Y-7112D01*
X-4350Y-7122D01*
X-4330Y-7131D01*
X-4283Y-7131D01*
X-4264Y-7122D01*
X-4254Y-7112D01*
X-4245Y-7093D01*
X-4245Y-7055D01*
X-4254Y-7036D01*
X-4264Y-7027D01*
X-4283Y-7017D01*
X-208Y1208D02*
X-218Y1198D01*
X-246Y1189D01*
X-265Y1189D01*
X-294Y1198D01*
X-313Y1217D01*
X-322Y1236D01*
X-332Y1274D01*
X-332Y1303D01*
X-322Y1341D01*
X-313Y1360D01*
X-294Y1379D01*
X-265Y1389D01*
X-246Y1389D01*
X-218Y1379D01*
X-208Y1370D01*
X-18Y1189D02*
X-132Y1189D01*
X-75Y1189D02*
X-75Y1389D01*
X-94Y1360D01*
X-113Y1341D01*
X-132Y1331D01*
X153Y1389D02*
X115Y1389D01*
X96Y1379D01*
X86Y1370D01*
X67Y1341D01*
X58Y1303D01*
X58Y1227D01*
X67Y1208D01*
X77Y1198D01*
X96Y1189D01*
X134Y1189D01*
X153Y1198D01*
X162Y1208D01*
X172Y1227D01*
X172Y1274D01*
X162Y1293D01*
X153Y1303D01*
X134Y1312D01*
X96Y1312D01*
X77Y1303D01*
X67Y1293D01*
X58Y1274D01*
X-4198Y-6818D02*
X-4188Y-6828D01*
X-4179Y-6856D01*
X-4179Y-6875D01*
X-4188Y-6904D01*
X-4207Y-6923D01*
X-4226Y-6932D01*
X-4264Y-6942D01*
X-4293Y-6942D01*
X-4331Y-6932D01*
X-4350Y-6923D01*
X-4369Y-6904D01*
X-4379Y-6875D01*
X-4379Y-6856D01*
X-4369Y-6828D01*
X-4360Y-6818D01*
X-4179Y-6628D02*
X-4179Y-6742D01*
X-4179Y-6685D02*
X-4379Y-6685D01*
X-4350Y-6704D01*
X-4331Y-6723D01*
X-4321Y-6742D01*
X-4379Y-6561D02*
X-4379Y-6428D01*
X-4179Y-6513D01*
G54D19*
X-7587Y8262D02*
X-7587Y8605D01*
X-6987Y8434D02*
X-7587Y8434D01*
X-6987Y8805D02*
X-7587Y8805D01*
X-7587Y9034D01*
X-7558Y9091D01*
X-7530Y9120D01*
X-7472Y9148D01*
X-7387Y9148D01*
X-7330Y9120D01*
X-7301Y9091D01*
X-7272Y9034D01*
X-7272Y8805D01*
X-7530Y9377D02*
X-7558Y9405D01*
X-7587Y9462D01*
X-7587Y9605D01*
X-7558Y9662D01*
X-7530Y9691D01*
X-7472Y9720D01*
X-7415Y9720D01*
X-7330Y9691D01*
X-6987Y9348D01*
X-6987Y9720D01*
G54D13*
X-1403Y1818D02*
X-1412Y1808D01*
X-1441Y1799D01*
X-1460Y1799D01*
X-1489Y1808D01*
X-1508Y1827D01*
X-1517Y1846D01*
X-1527Y1884D01*
X-1527Y1913D01*
X-1517Y1951D01*
X-1508Y1970D01*
X-1489Y1989D01*
X-1460Y1999D01*
X-1441Y1999D01*
X-1412Y1989D01*
X-1403Y1980D01*
X-1289Y1913D02*
X-1308Y1922D01*
X-1317Y1932D01*
X-1327Y1951D01*
X-1327Y1960D01*
X-1317Y1980D01*
X-1308Y1989D01*
X-1289Y1999D01*
X-1250Y1999D01*
X-1231Y1989D01*
X-1222Y1980D01*
X-1212Y1960D01*
X-1212Y1951D01*
X-1222Y1932D01*
X-1231Y1922D01*
X-1250Y1913D01*
X-1289Y1913D01*
X-1308Y1903D01*
X-1317Y1894D01*
X-1327Y1875D01*
X-1327Y1837D01*
X-1317Y1818D01*
X-1308Y1808D01*
X-1289Y1799D01*
X-1250Y1799D01*
X-1231Y1808D01*
X-1222Y1818D01*
X-1212Y1837D01*
X-1212Y1875D01*
X-1222Y1894D01*
X-1231Y1903D01*
X-1250Y1913D01*
G54D22*
X-4168Y9055D02*
X-4171Y9051D01*
X-4183Y9048D01*
X-4190Y9048D01*
X-4202Y9051D01*
X-4209Y9059D01*
X-4213Y9066D01*
X-4217Y9081D01*
X-4217Y9093D01*
X-4213Y9108D01*
X-4209Y9115D01*
X-4202Y9123D01*
X-4190Y9127D01*
X-4183Y9127D01*
X-4171Y9123D01*
X-4168Y9119D01*
X-4138Y9119D02*
X-4134Y9123D01*
X-4126Y9127D01*
X-4107Y9127D01*
X-4100Y9123D01*
X-4096Y9119D01*
X-4092Y9111D01*
X-4092Y9104D01*
X-4096Y9093D01*
X-4141Y9048D01*
X-4092Y9048D01*
X2129Y-6534D02*
X2125Y-6538D01*
X2114Y-6541D01*
X2106Y-6541D01*
X2095Y-6538D01*
X2087Y-6530D01*
X2084Y-6523D01*
X2080Y-6508D01*
X2080Y-6496D01*
X2084Y-6481D01*
X2087Y-6474D01*
X2095Y-6466D01*
X2106Y-6462D01*
X2114Y-6462D01*
X2125Y-6466D01*
X2129Y-6470D01*
X2200Y-6462D02*
X2163Y-6462D01*
X2159Y-6500D01*
X2163Y-6496D01*
X2170Y-6493D01*
X2189Y-6493D01*
X2196Y-6496D01*
X2200Y-6500D01*
X2204Y-6508D01*
X2204Y-6526D01*
X2200Y-6534D01*
X2196Y-6538D01*
X2189Y-6541D01*
X2170Y-6541D01*
X2163Y-6538D01*
X2159Y-6534D01*
X2275Y-6462D02*
X2238Y-6462D01*
X2234Y-6500D01*
X2238Y-6496D01*
X2245Y-6493D01*
X2264Y-6493D01*
X2272Y-6496D01*
X2275Y-6500D01*
X2279Y-6508D01*
X2279Y-6526D01*
X2275Y-6534D01*
X2272Y-6538D01*
X2264Y-6541D01*
X2245Y-6541D01*
X2238Y-6538D01*
X2234Y-6534D01*
X2129Y-5534D02*
X2125Y-5538D01*
X2114Y-5541D01*
X2106Y-5541D01*
X2095Y-5538D01*
X2087Y-5530D01*
X2084Y-5523D01*
X2080Y-5508D01*
X2080Y-5496D01*
X2084Y-5481D01*
X2087Y-5474D01*
X2095Y-5466D01*
X2106Y-5462D01*
X2114Y-5462D01*
X2125Y-5466D01*
X2129Y-5470D01*
X2200Y-5462D02*
X2163Y-5462D01*
X2159Y-5500D01*
X2163Y-5496D01*
X2170Y-5493D01*
X2189Y-5493D01*
X2196Y-5496D01*
X2200Y-5500D01*
X2204Y-5508D01*
X2204Y-5526D01*
X2200Y-5534D01*
X2196Y-5538D01*
X2189Y-5541D01*
X2170Y-5541D01*
X2163Y-5538D01*
X2159Y-5534D01*
X2272Y-5462D02*
X2257Y-5462D01*
X2249Y-5466D01*
X2245Y-5470D01*
X2238Y-5481D01*
X2234Y-5496D01*
X2234Y-5526D01*
X2238Y-5534D01*
X2242Y-5538D01*
X2249Y-5541D01*
X2264Y-5541D01*
X2272Y-5538D01*
X2275Y-5534D01*
X2279Y-5526D01*
X2279Y-5508D01*
X2275Y-5500D01*
X2272Y-5496D01*
X2264Y-5493D01*
X2249Y-5493D01*
X2242Y-5496D01*
X2238Y-5500D01*
X2234Y-5508D01*
G54D15*
X4664Y-7761D02*
X4664Y-7361D01*
X4816Y-7361D01*
X4854Y-7380D01*
X4873Y-7400D01*
X4892Y-7438D01*
X4892Y-7495D01*
X4873Y-7533D01*
X4854Y-7552D01*
X4816Y-7571D01*
X4664Y-7571D01*
X5273Y-7761D02*
X5045Y-7761D01*
X5159Y-7761D02*
X5159Y-7361D01*
X5121Y-7419D01*
X5083Y-7457D01*
X5045Y-7476D01*
X5521Y-7361D02*
X5559Y-7361D01*
X5597Y-7380D01*
X5616Y-7400D01*
X5635Y-7438D01*
X5654Y-7514D01*
X5654Y-7609D01*
X5635Y-7685D01*
X5616Y-7723D01*
X5597Y-7742D01*
X5559Y-7761D01*
X5521Y-7761D01*
X5483Y-7742D01*
X5464Y-7723D01*
X5445Y-7685D01*
X5426Y-7609D01*
X5426Y-7514D01*
X5445Y-7438D01*
X5464Y-7400D01*
X5483Y-7380D01*
X5521Y-7361D01*
G54D21*
X-11176Y-3310D02*
X-11186Y-3320D01*
X-11214Y-3329D01*
X-11232Y-3329D01*
X-11261Y-3320D01*
X-11279Y-3301D01*
X-11289Y-3282D01*
X-11298Y-3245D01*
X-11298Y-3217D01*
X-11289Y-3179D01*
X-11279Y-3160D01*
X-11261Y-3142D01*
X-11232Y-3132D01*
X-11214Y-3132D01*
X-11186Y-3142D01*
X-11176Y-3151D01*
X-11101Y-3151D02*
X-11092Y-3142D01*
X-11073Y-3132D01*
X-11026Y-3132D01*
X-11007Y-3142D01*
X-10998Y-3151D01*
X-10989Y-3170D01*
X-10989Y-3189D01*
X-10998Y-3217D01*
X-11110Y-3329D01*
X-10989Y-3329D01*
X-10810Y-3132D02*
X-10904Y-3132D01*
X-10913Y-3226D01*
X-10904Y-3217D01*
X-10885Y-3207D01*
X-10838Y-3207D01*
X-10820Y-3217D01*
X-10810Y-3226D01*
X-10801Y-3245D01*
X-10801Y-3292D01*
X-10810Y-3310D01*
X-10820Y-3320D01*
X-10838Y-3329D01*
X-10885Y-3329D01*
X-10904Y-3320D01*
X-10913Y-3310D01*
X-5969Y-7526D02*
X-5959Y-7536D01*
X-5950Y-7564D01*
X-5950Y-7582D01*
X-5959Y-7611D01*
X-5978Y-7629D01*
X-5997Y-7639D01*
X-6034Y-7648D01*
X-6062Y-7648D01*
X-6100Y-7639D01*
X-6119Y-7629D01*
X-6137Y-7611D01*
X-6147Y-7582D01*
X-6147Y-7564D01*
X-6137Y-7536D01*
X-6128Y-7526D01*
X-6128Y-7451D02*
X-6137Y-7442D01*
X-6147Y-7423D01*
X-6147Y-7376D01*
X-6137Y-7357D01*
X-6128Y-7348D01*
X-6109Y-7339D01*
X-6090Y-7339D01*
X-6062Y-7348D01*
X-5950Y-7460D01*
X-5950Y-7339D01*
X-6147Y-7170D02*
X-6147Y-7207D01*
X-6137Y-7226D01*
X-6128Y-7235D01*
X-6100Y-7254D01*
X-6062Y-7263D01*
X-5987Y-7263D01*
X-5969Y-7254D01*
X-5959Y-7245D01*
X-5950Y-7226D01*
X-5950Y-7188D01*
X-5959Y-7170D01*
X-5969Y-7160D01*
X-5987Y-7151D01*
X-6034Y-7151D01*
X-6053Y-7160D01*
X-6062Y-7170D01*
X-6072Y-7188D01*
X-6072Y-7226D01*
X-6062Y-7245D01*
X-6053Y-7254D01*
X-6034Y-7263D01*
X-3096Y2469D02*
X-3106Y2459D01*
X-3134Y2450D01*
X-3152Y2450D01*
X-3181Y2459D01*
X-3199Y2478D01*
X-3209Y2497D01*
X-3218Y2534D01*
X-3218Y2562D01*
X-3209Y2600D01*
X-3199Y2619D01*
X-3181Y2637D01*
X-3152Y2647D01*
X-3134Y2647D01*
X-3106Y2637D01*
X-3096Y2628D01*
X-2909Y2450D02*
X-3021Y2450D01*
X-2965Y2450D02*
X-2965Y2647D01*
X-2984Y2619D01*
X-3002Y2600D01*
X-3021Y2590D01*
X-2843Y2647D02*
X-2721Y2647D01*
X-2787Y2572D01*
X-2758Y2572D01*
X-2740Y2562D01*
X-2730Y2553D01*
X-2721Y2534D01*
X-2721Y2487D01*
X-2730Y2469D01*
X-2740Y2459D01*
X-2758Y2450D01*
X-2815Y2450D01*
X-2833Y2459D01*
X-2843Y2469D01*
G54D20*
X-1139Y-6187D02*
X-1179Y-6131D01*
X-1207Y-6187D02*
X-1207Y-6069D01*
X-1162Y-6069D01*
X-1150Y-6075D01*
X-1145Y-6081D01*
X-1139Y-6092D01*
X-1139Y-6109D01*
X-1145Y-6120D01*
X-1150Y-6125D01*
X-1162Y-6131D01*
X-1207Y-6131D01*
X-1100Y-6069D02*
X-1027Y-6069D01*
X-1066Y-6114D01*
X-1049Y-6114D01*
X-1038Y-6120D01*
X-1032Y-6125D01*
X-1027Y-6137D01*
X-1027Y-6165D01*
X-1032Y-6176D01*
X-1038Y-6182D01*
X-1049Y-6187D01*
X-1083Y-6187D01*
X-1094Y-6182D01*
X-1100Y-6176D01*
G54D22*
X-3833Y4528D02*
X-3859Y4565D01*
X-3878Y4528D02*
X-3878Y4607D01*
X-3848Y4607D01*
X-3840Y4603D01*
X-3836Y4599D01*
X-3833Y4591D01*
X-3833Y4580D01*
X-3836Y4573D01*
X-3840Y4569D01*
X-3848Y4565D01*
X-3878Y4565D01*
X-3765Y4580D02*
X-3765Y4528D01*
X-3784Y4610D02*
X-3803Y4554D01*
X-3754Y4554D01*
X-2713Y5008D02*
X-2739Y5045D01*
X-2758Y5008D02*
X-2758Y5087D01*
X-2728Y5087D01*
X-2720Y5083D01*
X-2716Y5079D01*
X-2713Y5071D01*
X-2713Y5060D01*
X-2716Y5053D01*
X-2720Y5049D01*
X-2728Y5045D01*
X-2758Y5045D01*
X-2641Y5087D02*
X-2679Y5087D01*
X-2683Y5049D01*
X-2679Y5053D01*
X-2671Y5056D01*
X-2652Y5056D01*
X-2645Y5053D01*
X-2641Y5049D01*
X-2637Y5041D01*
X-2637Y5023D01*
X-2641Y5015D01*
X-2645Y5011D01*
X-2652Y5008D01*
X-2671Y5008D01*
X-2679Y5011D01*
X-2683Y5015D01*
G54D13*
X-5079Y-3753D02*
X-5174Y-3820D01*
X-5079Y-3867D02*
X-5279Y-3867D01*
X-5279Y-3791D01*
X-5269Y-3772D01*
X-5260Y-3762D01*
X-5240Y-3753D01*
X-5212Y-3753D01*
X-5193Y-3762D01*
X-5183Y-3772D01*
X-5174Y-3791D01*
X-5174Y-3867D01*
X-5279Y-3581D02*
X-5279Y-3620D01*
X-5269Y-3639D01*
X-5260Y-3648D01*
X-5231Y-3667D01*
X-5193Y-3677D01*
X-5117Y-3677D01*
X-5098Y-3667D01*
X-5088Y-3658D01*
X-5079Y-3639D01*
X-5079Y-3600D01*
X-5088Y-3581D01*
X-5098Y-3572D01*
X-5117Y-3562D01*
X-5164Y-3562D01*
X-5183Y-3572D01*
X-5193Y-3581D01*
X-5202Y-3600D01*
X-5202Y-3639D01*
X-5193Y-3658D01*
X-5183Y-3667D01*
X-5164Y-3677D01*
X-5069Y-4213D02*
X-5164Y-4280D01*
X-5069Y-4327D02*
X-5269Y-4327D01*
X-5269Y-4251D01*
X-5259Y-4232D01*
X-5250Y-4222D01*
X-5230Y-4213D01*
X-5202Y-4213D01*
X-5183Y-4222D01*
X-5173Y-4232D01*
X-5164Y-4251D01*
X-5164Y-4327D01*
X-5269Y-4146D02*
X-5269Y-4013D01*
X-5069Y-4099D01*
X-6248Y-4740D02*
X-6315Y-4645D01*
X-6362Y-4740D02*
X-6362Y-4540D01*
X-6286Y-4540D01*
X-6267Y-4550D01*
X-6258Y-4560D01*
X-6248Y-4579D01*
X-6248Y-4607D01*
X-6258Y-4626D01*
X-6267Y-4636D01*
X-6286Y-4645D01*
X-6362Y-4645D01*
X-6058Y-4740D02*
X-6172Y-4740D01*
X-6115Y-4740D02*
X-6115Y-4540D01*
X-6134Y-4569D01*
X-6153Y-4588D01*
X-6172Y-4598D01*
X-5962Y-4740D02*
X-5924Y-4740D01*
X-5905Y-4731D01*
X-5896Y-4721D01*
X-5877Y-4693D01*
X-5867Y-4655D01*
X-5867Y-4579D01*
X-5877Y-4560D01*
X-5886Y-4550D01*
X-5905Y-4540D01*
X-5943Y-4540D01*
X-5962Y-4550D01*
X-5972Y-4560D01*
X-5981Y-4579D01*
X-5981Y-4626D01*
X-5972Y-4645D01*
X-5962Y-4655D01*
X-5943Y-4664D01*
X-5905Y-4664D01*
X-5886Y-4655D01*
X-5877Y-4645D01*
X-5867Y-4626D01*
%LPC*%
G54D26*
X614Y-8004D03*
X358Y-8004D03*
X102Y-8004D03*
X-154Y-8004D03*
X-154Y-9816D03*
X102Y-9816D03*
X358Y-9816D03*
X614Y-9816D03*
G54D27*
X-13667Y-4345D03*
X-13667Y-4660D03*
X-13667Y-4975D03*
X-13667Y-5290D03*
X-13667Y-5605D03*
G54D28*
X-13706Y-3223D03*
X-15871Y-3223D03*
X-13706Y-6727D03*
X-15871Y-6727D03*
G54D29*
X-14690Y-4109D03*
X-14690Y-5841D03*
G54D30*
X-11675Y-1450D03*
X-11675Y-350D03*
G54D31*
X3151Y465D03*
X2559Y465D03*
X3151Y-1535D03*
X2559Y-1535D03*
X3151Y-2035D03*
X2559Y-2035D03*
X3151Y-3035D03*
X2559Y-3035D03*
X3151Y1965D03*
X2559Y1965D03*
X3151Y-35D03*
X2559Y-35D03*
X-7521Y-6100D03*
X-6929Y-6100D03*
G54D32*
X-9000Y-4534D03*
X-9000Y-4966D03*
G54D33*
X-15600Y7980D03*
X-15600Y8570D03*
X-14500Y7980D03*
X-14500Y8570D03*
X-15600Y-8480D03*
X-15600Y-9070D03*
X-14500Y-8480D03*
X-14500Y-9070D03*
G54D34*
X-8984Y-9050D03*
X-8000Y-9050D03*
X-7015Y-9050D03*
X-8984Y-10349D03*
X-8000Y-10349D03*
X-7015Y-10349D03*
G54D31*
X2559Y-535D03*
X3151Y-535D03*
X2559Y1465D03*
X3151Y1465D03*
X2559Y965D03*
X3151Y965D03*
X2559Y-1035D03*
X3151Y-1035D03*
X2559Y-2535D03*
X3151Y-2535D03*
X2559Y-3535D03*
X3151Y-3535D03*
X2559Y-4535D03*
X3151Y-4535D03*
G54D35*
X-9699Y-6284D03*
X-9325Y-6284D03*
X-8950Y-6284D03*
X-9699Y-7315D03*
X-9325Y-7315D03*
X-8950Y-7315D03*
G54D31*
X-4534Y5805D03*
X-5126Y5805D03*
G54D36*
X-1457Y-7990D03*
X-1103Y-7990D03*
G54D37*
X-3357Y6688D03*
X-3357Y6885D03*
X-3357Y7082D03*
X-3357Y7278D03*
X-3357Y7475D03*
X-3357Y7672D03*
G54D38*
X-3613Y7928D03*
X-3810Y7928D03*
X-4007Y7928D03*
X-4203Y7928D03*
X-4400Y7928D03*
X-4597Y7928D03*
G54D37*
X-4853Y7672D03*
X-4853Y7475D03*
X-4853Y7278D03*
X-4853Y7082D03*
X-4853Y6885D03*
X-4853Y6688D03*
G54D38*
X-4597Y6432D03*
X-4400Y6432D03*
X-4203Y6432D03*
X-4007Y6432D03*
X-3810Y6432D03*
X-3613Y6432D03*
G54D39*
X-7530Y-7476D03*
X-7530Y-6884D03*
G54D31*
X3151Y-9035D03*
X2559Y-9035D03*
G54D39*
X-9500Y-4354D03*
X-9500Y-4946D03*
G54D31*
X-15571Y9125D03*
X-14979Y9125D03*
G54D39*
X-13550Y8604D03*
X-13550Y9196D03*
X-7425Y-3979D03*
X-7425Y-4571D03*
X-6875Y-3979D03*
X-6875Y-4571D03*
X-10170Y-4354D03*
X-10170Y-4946D03*
X-10325Y-6904D03*
X-10325Y-7496D03*
G54D31*
X-9104Y-2200D03*
X-9696Y-2200D03*
X3151Y-6035D03*
X2559Y-6035D03*
X-6416Y-1860D03*
X-5824Y-1860D03*
G54D39*
X-5720Y-2384D03*
X-5720Y-2976D03*
X-8240Y-6984D03*
X-8240Y-7576D03*
G54D40*
X16Y-4761D03*
X16Y-4564D03*
X16Y-4367D03*
X16Y-4170D03*
X16Y-3973D03*
X16Y-3777D03*
X16Y-3580D03*
X16Y-3383D03*
X16Y-3186D03*
X16Y-2989D03*
X16Y-2792D03*
X16Y-2596D03*
X16Y-2399D03*
X16Y-2202D03*
X16Y-2005D03*
X16Y-1808D03*
G54D41*
X-819Y-910D03*
X-1016Y-910D03*
X-1213Y-910D03*
X-1410Y-910D03*
X-1607Y-910D03*
X-1803Y-910D03*
X-2000Y-910D03*
X-2197Y-910D03*
X-2394Y-910D03*
X-2591Y-910D03*
X-2788Y-910D03*
X-2984Y-910D03*
X-3181Y-910D03*
X-3378Y-910D03*
X-3575Y-910D03*
X-3772Y-910D03*
G54D40*
X-4670Y-1808D03*
X-4670Y-2005D03*
X-4670Y-2202D03*
X-4670Y-2399D03*
X-4670Y-2596D03*
X-4670Y-2792D03*
X-4670Y-2989D03*
X-4670Y-3186D03*
X-4670Y-3383D03*
X-4670Y-3580D03*
X-4670Y-3777D03*
X-4670Y-3973D03*
X-4670Y-4170D03*
X-4670Y-4367D03*
X-4670Y-4564D03*
X-4670Y-4761D03*
G54D41*
X-3772Y-5596D03*
X-3575Y-5596D03*
X-3181Y-5596D03*
X-3378Y-5603D03*
X-2984Y-5596D03*
X-2788Y-5596D03*
X-2591Y-5596D03*
X-2394Y-5596D03*
X-2197Y-5596D03*
X-2000Y-5596D03*
X-1806Y-5596D03*
X-1609Y-5596D03*
X-1412Y-5596D03*
X-1215Y-5596D03*
X-1019Y-5596D03*
X-822Y-5596D03*
G54D42*
X-13475Y-306D03*
G54D43*
X-13475Y-1094D03*
G54D44*
X-15738Y617D03*
G54D45*
X-15738Y-2018D03*
G54D31*
X3151Y-8035D03*
X2559Y-8035D03*
X3151Y-7035D03*
X2559Y-7035D03*
G54D46*
X-12225Y-3969D03*
X-12225Y-5331D03*
G54D33*
X-13425Y-8480D03*
X-13425Y-9070D03*
G54D47*
X-7080Y-2700D03*
G54D48*
X-9066Y-155D03*
X-9066Y-905D03*
X-9066Y-530D03*
X-8234Y-905D03*
X-8234Y-155D03*
G54D49*
X-8014Y-3301D03*
X-8014Y-3104D03*
X-8014Y-3498D03*
X-8014Y-3695D03*
X-9085Y-3695D03*
X-9085Y-3498D03*
X-9085Y-3301D03*
X-9085Y-3104D03*
G54D50*
X-8845Y-3935D03*
X-8648Y-3935D03*
X-8451Y-3935D03*
X-8254Y-3935D03*
X-8254Y-2864D03*
X-8451Y-2864D03*
X-8648Y-2864D03*
X-8845Y-2864D03*
G54D51*
X-8707Y-3557D03*
X-8707Y-3242D03*
X-8392Y-3242D03*
X-8392Y-3557D03*
G54D52*
X-13009Y1637D03*
X-12537Y1637D03*
X-12064Y1637D03*
X-11592Y1637D03*
X-11120Y1637D03*
X-10647Y1637D03*
X-10175Y1637D03*
X-9702Y1637D03*
X-9230Y1637D03*
X-8757Y1637D03*
X-8285Y1637D03*
X-7812Y1637D03*
X-7812Y6912D03*
X-8285Y6912D03*
X-8757Y6912D03*
X-9230Y6912D03*
X-9702Y6912D03*
X-10175Y6912D03*
X-10647Y6912D03*
X-11120Y6912D03*
X-11592Y6912D03*
X-12064Y6912D03*
X-12537Y6912D03*
X-13009Y6912D03*
G54D53*
X-6710Y5889D03*
X-6710Y5495D03*
X-6710Y4983D03*
X-6710Y4511D03*
X-6710Y4038D03*
X-6710Y3566D03*
X-6710Y3054D03*
X-6710Y2660D03*
G54D31*
X2559Y-7535D03*
X3151Y-7535D03*
G54D39*
X-6787Y8D03*
X-6787Y-583D03*
G54D54*
X-7520Y85D03*
X-7520Y-665D03*
G54D31*
X2559Y-8535D03*
X3151Y-8535D03*
X3151Y-4035D03*
X2559Y-4035D03*
X3151Y-5035D03*
X2559Y-5035D03*
X-2691Y-8310D03*
X-2099Y-8310D03*
G54D39*
X-5420Y-5039D03*
X-5420Y-5631D03*
G54D31*
X-2691Y-7760D03*
X-2099Y-7760D03*
G54D39*
X-4820Y-6256D03*
X-4820Y-5664D03*
G54D31*
X-9821Y-8075D03*
X-9229Y-8075D03*
X-1576Y-7210D03*
X-984Y-7210D03*
G54D39*
X-2220Y244D03*
X-2220Y836D03*
G54D31*
X-4416Y790D03*
X-3824Y790D03*
X-2691Y-6660D03*
X-2099Y-6660D03*
G54D39*
X1305Y-9206D03*
X1305Y-8614D03*
G54D31*
X-3259Y8680D03*
X-3851Y8680D03*
G54D39*
X-9687Y-941D03*
X-9687Y-1533D03*
G54D31*
X-4416Y240D03*
X-3824Y240D03*
G54D39*
X-5530Y7476D03*
X-5530Y6884D03*
G54D31*
X-2691Y-7210D03*
X-2099Y-7210D03*
G54D39*
X-860Y-8954D03*
X-860Y-9546D03*
G54D31*
X-3824Y1340D03*
X-4416Y1340D03*
G54D54*
X-10350Y-1400D03*
X-10350Y-2150D03*
G54D31*
X-7966Y-1537D03*
X-8558Y-1537D03*
G54D39*
X-670Y269D03*
X-670Y861D03*
G54D31*
X-3274Y-7210D03*
X-3866Y-7210D03*
G54D39*
X-95Y269D03*
X-95Y861D03*
G54D31*
X-3274Y-6660D03*
X-3866Y-6660D03*
G54D47*
X-8250Y9000D03*
G54D54*
X-1370Y1090D03*
X-1370Y340D03*
G54D31*
X-4451Y9330D03*
X-3859Y9330D03*
X2559Y-6535D03*
X3151Y-6535D03*
X2559Y-5535D03*
X3151Y-5535D03*
G54D55*
X4827Y8012D03*
X-11212Y9262D03*
X-11212Y-9737D03*
G54D56*
X4721Y-535D03*
X5918Y-535D03*
X5918Y-1535D03*
X4721Y-1535D03*
X4721Y-2535D03*
X5918Y-2535D03*
X5918Y-3535D03*
X4721Y-3535D03*
X4721Y-4535D03*
X5918Y-4535D03*
G54D57*
X5918Y-6535D03*
G54D56*
X4721Y-6535D03*
X5918Y-5535D03*
X4721Y-5535D03*
G54D30*
X-11000Y-3875D03*
X-11000Y-4975D03*
X-6650Y-7950D03*
X-6650Y-6850D03*
G54D58*
X-2970Y449D03*
X-2970Y1531D03*
G54D59*
X-745Y-6530D03*
X-1495Y-6530D03*
G54D31*
X-4116Y4800D03*
X-3524Y4800D03*
X-2404Y4800D03*
X-2996Y4800D03*
X-5524Y-3730D03*
X-6116Y-3730D03*
X-5524Y-4190D03*
X-6116Y-4190D03*
G54D39*
X-5910Y-5044D03*
X-5910Y-5636D03*
M02*
