G04 (created by PCBNEW (2013-05-31 BZR 4019)-stable) date 6/27/2014 12:56:07 PM*
%MOIN*%
G04 Gerber Fmt 3.4, Leading zero omitted, Abs format*
%FSLAX34Y34*%
G01*
G70*
G90*
G04 APERTURE LIST*
%ADD10C,0.00590551*%
%ADD11R,0.0116X0.0274*%
%ADD12R,0.0234X0.0274*%
%ADD13C,0.0667*%
%ADD14R,0.123827X0.0281575*%
%ADD15R,0.0274X0.0116*%
%ADD16R,0.0274X0.0234*%
%ADD17R,0.0392X0.047*%
%ADD18R,0.047X0.0392*%
G04 APERTURE END LIST*
G54D10*
G54D11*
X1492Y-7451D03*
X742Y-7451D03*
X1117Y-7451D03*
X742Y-6619D03*
X1492Y-6619D03*
X1117Y-6619D03*
G54D12*
X-3916Y-8440D03*
X-3324Y-8440D03*
G54D13*
X-840Y-10040D03*
X-110Y-6890D03*
G54D14*
X-2967Y8325D03*
X-5112Y8325D03*
X-2967Y7325D03*
X-5112Y7325D03*
X-5112Y5325D03*
X-2967Y5325D03*
X-5112Y6325D03*
X-2967Y6325D03*
X-2967Y9325D03*
X-5112Y9325D03*
G54D13*
X-6060Y-8310D03*
G54D11*
X-4445Y-7131D03*
X-5195Y-7131D03*
X-4820Y-7131D03*
X-5195Y-6299D03*
X-4445Y-6299D03*
X-3795Y-9024D03*
X-3045Y-9024D03*
X-3420Y-9024D03*
X-3045Y-9856D03*
X-3795Y-9856D03*
G54D15*
X-2511Y-7540D03*
X-2511Y-6790D03*
X-2511Y-7165D03*
X-1679Y-6790D03*
X-1679Y-7540D03*
G54D11*
X1492Y-263D03*
X742Y-263D03*
X1117Y-263D03*
X742Y568D03*
X1492Y568D03*
X1117Y568D03*
G54D16*
X-5500Y-10006D03*
X-5500Y-9414D03*
X-13255Y5146D03*
X-13255Y4554D03*
X-12655Y5146D03*
X-12655Y4554D03*
X-1770Y-9911D03*
X-1770Y-9319D03*
X2030Y-2689D03*
X2030Y-3281D03*
X2005Y761D03*
X2005Y169D03*
G54D12*
X-9534Y600D03*
X-10126Y600D03*
G54D17*
X-9455Y-125D03*
X-10205Y-125D03*
G54D16*
X2030Y-6464D03*
X2030Y-7056D03*
X-1680Y6156D03*
X-1680Y5564D03*
G54D12*
X-9534Y1150D03*
X-10126Y1150D03*
X-9534Y-825D03*
X-10126Y-825D03*
G54D16*
X-895Y-8294D03*
X-895Y-8886D03*
G54D17*
X-1745Y-8390D03*
X-2495Y-8390D03*
G54D11*
X1492Y-3676D03*
X742Y-3676D03*
X1117Y-3676D03*
X742Y-2844D03*
X1492Y-2844D03*
X1117Y-2844D03*
G54D13*
X-12910Y6210D03*
G54D16*
X-6220Y-6806D03*
X-6220Y-6214D03*
G54D12*
X-4624Y-7765D03*
X-5216Y-7765D03*
X-1799Y-6165D03*
X-2391Y-6165D03*
G54D16*
X-2370Y-9911D03*
X-2370Y-9319D03*
X-3395Y-7161D03*
X-3395Y-6569D03*
G54D18*
X-4720Y-9815D03*
X-4720Y-9065D03*
G54D13*
X500Y5050D03*
G54D16*
X-3430Y-4026D03*
X-3430Y-3434D03*
G54D13*
X2600Y4990D03*
M02*
