M48
;DRILL file {Pcbnew (2013-05-31 BZR 4019)-stable} date 6/26/2014 4:15:34 PM
;FORMAT={-:-/ absolute / inch / decimal}
FMAT,2
INCH,TZ
T1C0.012
T2C0.013
T3C0.018
T4C0.035
T5C0.040
T6C0.125
%
G90
G05
M72
T1
X-1.5425Y-0.955
X-1.44Y-0.9525
X-1.383Y0.754
X-1.36Y-0.97
X-1.342Y0.139
X-1.306Y0.35
X-1.283Y0.413
X-1.27Y0.331
X-1.259Y0.258
X-1.222Y0.103
X-1.215Y0.638
X-1.213Y0.218
X-1.183Y0.11
X-1.159Y0.608
X-1.149Y0.547
X-1.133Y0.226
X-1.13Y-0.55
X-1.109Y0.753
X-1.104Y0.433
X-1.086Y0.35
X-1.079Y-0.549
X-1.075Y0.414
X-1.058Y-0.075
X-1.048Y0.396
X-1.015Y0.315
X-1.011Y0.383
X-0.997Y0.48
X-0.976Y0.35
X-0.966Y0.497
X-0.945Y-0.361
X-0.932Y-0.678
X-0.931Y0.502
X-0.927Y0.427
X-0.913Y-0.153
X-0.91Y0.293
X-0.909Y0.047
X-0.901Y0.761
X-0.863Y-0.052
X-0.86Y-0.2075
X-0.853Y0.581
X-0.8525Y-0.48
X-0.84Y-0.4425
X-0.833Y0.253
X-0.8275Y-0.2375
X-0.822Y-0.563
X-0.812Y0.582
X-0.79Y-0.405
X-0.7825Y-0.245
X-0.77Y0.441
X-0.769Y0.515
X-0.762Y-0.297
X-0.7425Y-0.345
X-0.73Y0.589
X-0.73Y0.333
X-0.727Y0.732
X-0.7Y-0.164
X-0.686Y0.825
X-0.648Y-0.547
X-0.641Y0.194
X-0.62Y0.911
X-0.62Y0.735
X-0.618Y-0.317
X-0.613Y-0.452
X-0.607Y0.162
X-0.601Y0.579
X-0.597Y0.358
X-0.588Y0.686
X-0.587Y0.097
X-0.575Y0.434
X-0.572Y-0.07
X-0.57Y-0.714
X-0.568Y-0.89
X-0.566Y-0.617
X-0.56Y0.368
X-0.555Y0.882
X-0.546Y0.403
X-0.461Y0.453
X-0.452Y-0.105
X-0.451Y0.378
X-0.43Y-0.522
X-0.413Y-0.897
X-0.407Y-0.299
X-0.405Y-0.338
X-0.401Y-0.222
X-0.397Y-0.413
X-0.383Y-0.457
X-0.372Y0.985
X-0.353Y0.434
X-0.333Y-0.24
X-0.322Y-0.795
X-0.296Y0.212
X-0.279Y0.682
X-0.276Y0.883
X-0.269Y-0.177
X-0.201Y0.933
X-0.198Y0.479
X-0.196Y-1.043
X-0.163Y-0.496
X-0.138Y0.155
X-0.132Y-0.895
X-0.125Y0.555
X-0.122Y0.616
X-0.06Y0.126
X-0.054Y-0.787
X-0.002Y-0.9285
X0.034Y-0.587
X0.038Y0.017
X0.0505Y-0.861
X0.098Y-0.982
X0.118Y-0.077
X0.147Y-0.968
X0.197Y-0.56
X0.203Y-0.866
X0.206Y-0.229
X0.352Y0.499
X0.356Y-0.455
X0.357Y-0.537
X0.357Y-0.664
X0.361Y-0.735
X0.363Y-0.349
X0.363Y-0.87
X0.366Y-0.058
X0.368Y-0.247
X0.3705Y-0.7735
X0.374Y0.156
T2
X-0.868Y-0.327
X-0.868Y-0.353
X-0.855Y-0.34
X-0.842Y-0.327
X-0.842Y-0.353
T3
X-1.167Y-0.209
T4
X-0.8984Y-0.905
X-0.8984Y-1.035
X-0.8Y-0.905
X-0.8Y-1.035
X-0.7016Y-0.905
X-0.7016Y-1.035
T5
X0.482Y-0.0535
X0.482Y-0.1535
X0.482Y-0.2535
X0.482Y-0.3535
X0.482Y-0.4535
X0.482Y-0.5535
X0.482Y-0.6535
X0.582Y-0.0535
X0.582Y-0.1535
X0.582Y-0.2535
X0.582Y-0.3535
X0.582Y-0.4535
X0.582Y-0.5535
X0.582Y-0.6535
T6
X-1.1213Y0.9263
X-1.1213Y-0.9738
X0.4828Y0.8013
T0
M30
