G04 (created by PCBNEW (2013-05-31 BZR 4019)-stable) date 6/26/2014 4:14:42 PM*
%MOIN*%
G04 Gerber Fmt 3.4, Leading zero omitted, Abs format*
%FSLAX34Y34*%
G01*
G70*
G90*
G04 APERTURE LIST*
%ADD10C,0.00590551*%
%ADD11R,0.0181X0.0422*%
%ADD12R,0.0926X0.0217*%
%ADD13R,0.1004X0.0807*%
%ADD14C,0.0374*%
%ADD15R,0.073X0.065*%
%ADD16R,0.0374X0.0414*%
%ADD17R,0.0295X0.0335*%
%ADD18R,0.0334X0.0334*%
%ADD19C,0.057*%
%ADD20R,0.0264094X0.0500315*%
%ADD21R,0.027X0.052*%
%ADD22R,0.0295X0.0118*%
%ADD23R,0.0118X0.0295*%
%ADD24R,0.0414X0.0374*%
%ADD25R,0.062X0.0118*%
%ADD26R,0.0118X0.062*%
%ADD27R,0.1397X0.0412*%
%ADD28R,0.1397X0.0413*%
%ADD29R,0.1358X0.061*%
%ADD30R,0.1357X0.061*%
%ADD31R,0.0689X0.0847*%
%ADD32C,0.0807*%
%ADD33R,0.0414X0.0256*%
%ADD34R,0.0208976X0.0114488*%
%ADD35R,0.0114488X0.0208976*%
%ADD36R,0.0334961X0.0334961*%
%ADD37R,0.0334961X0.0571181*%
%ADD38R,0.0571181X0.0334961*%
%ADD39R,0.061X0.0532*%
%ADD40C,0.182*%
%ADD41O,0.0807402X0.0610551*%
%ADD42R,0.0807402X0.0610551*%
%ADD43R,0.0611X0.0788*%
%ADD44R,0.0532X0.061*%
G04 APERTURE END LIST*
G54D10*
G54D11*
X614Y-8004D03*
X358Y-8004D03*
X102Y-8004D03*
X-154Y-8004D03*
X-154Y-9816D03*
X102Y-9816D03*
X358Y-9816D03*
X614Y-9816D03*
G54D12*
X-13667Y-4345D03*
X-13667Y-4660D03*
X-13667Y-4975D03*
X-13667Y-5290D03*
X-13667Y-5605D03*
G54D13*
X-13706Y-3223D03*
X-15871Y-3223D03*
X-13706Y-6727D03*
X-15871Y-6727D03*
G54D14*
X-14690Y-4109D03*
X-14690Y-5841D03*
G54D15*
X-11675Y-1450D03*
X-11675Y-350D03*
G54D16*
X3151Y465D03*
X2559Y465D03*
X3151Y-1535D03*
X2559Y-1535D03*
X3151Y-2035D03*
X2559Y-2035D03*
X3151Y-3035D03*
X2559Y-3035D03*
X3151Y1965D03*
X2559Y1965D03*
X3151Y-35D03*
X2559Y-35D03*
X-7521Y-6100D03*
X-6929Y-6100D03*
G54D17*
X-9000Y-4534D03*
X-9000Y-4966D03*
G54D18*
X-15600Y7980D03*
X-15600Y8570D03*
X-14500Y7980D03*
X-14500Y8570D03*
X-15600Y-8480D03*
X-15600Y-9070D03*
X-14500Y-8480D03*
X-14500Y-9070D03*
G54D19*
X-8984Y-9050D03*
X-8000Y-9050D03*
X-7015Y-9050D03*
X-8984Y-10349D03*
X-8000Y-10349D03*
X-7015Y-10349D03*
G54D16*
X2559Y-535D03*
X3151Y-535D03*
X2559Y1465D03*
X3151Y1465D03*
X2559Y965D03*
X3151Y965D03*
X2559Y-1035D03*
X3151Y-1035D03*
X2559Y-2535D03*
X3151Y-2535D03*
X2559Y-3535D03*
X3151Y-3535D03*
X2559Y-4535D03*
X3151Y-4535D03*
G54D20*
X-9699Y-6284D03*
X-9325Y-6284D03*
X-8950Y-6284D03*
X-9699Y-7315D03*
X-9325Y-7315D03*
X-8950Y-7315D03*
G54D16*
X-4534Y5805D03*
X-5126Y5805D03*
G54D21*
X-1457Y-7990D03*
X-1103Y-7990D03*
G54D22*
X-3357Y6688D03*
X-3357Y6885D03*
X-3357Y7082D03*
X-3357Y7278D03*
X-3357Y7475D03*
X-3357Y7672D03*
G54D23*
X-3613Y7928D03*
X-3810Y7928D03*
X-4007Y7928D03*
X-4203Y7928D03*
X-4400Y7928D03*
X-4597Y7928D03*
G54D22*
X-4853Y7672D03*
X-4853Y7475D03*
X-4853Y7278D03*
X-4853Y7082D03*
X-4853Y6885D03*
X-4853Y6688D03*
G54D23*
X-4597Y6432D03*
X-4400Y6432D03*
X-4203Y6432D03*
X-4007Y6432D03*
X-3810Y6432D03*
X-3613Y6432D03*
G54D24*
X-7530Y-7476D03*
X-7530Y-6884D03*
G54D16*
X3151Y-9035D03*
X2559Y-9035D03*
G54D24*
X-9500Y-4354D03*
X-9500Y-4946D03*
G54D16*
X-15571Y9125D03*
X-14979Y9125D03*
G54D24*
X-13550Y8604D03*
X-13550Y9196D03*
X-7425Y-3979D03*
X-7425Y-4571D03*
X-6875Y-3979D03*
X-6875Y-4571D03*
X-10170Y-4354D03*
X-10170Y-4946D03*
X-10325Y-6904D03*
X-10325Y-7496D03*
G54D16*
X-9104Y-2200D03*
X-9696Y-2200D03*
X3151Y-6035D03*
X2559Y-6035D03*
X-6416Y-1860D03*
X-5824Y-1860D03*
G54D24*
X-5720Y-2384D03*
X-5720Y-2976D03*
X-8240Y-6984D03*
X-8240Y-7576D03*
G54D25*
X16Y-4761D03*
X16Y-4564D03*
X16Y-4367D03*
X16Y-4170D03*
X16Y-3973D03*
X16Y-3777D03*
X16Y-3580D03*
X16Y-3383D03*
X16Y-3186D03*
X16Y-2989D03*
X16Y-2792D03*
X16Y-2596D03*
X16Y-2399D03*
X16Y-2202D03*
X16Y-2005D03*
X16Y-1808D03*
G54D26*
X-819Y-910D03*
X-1016Y-910D03*
X-1213Y-910D03*
X-1410Y-910D03*
X-1607Y-910D03*
X-1803Y-910D03*
X-2000Y-910D03*
X-2197Y-910D03*
X-2394Y-910D03*
X-2591Y-910D03*
X-2788Y-910D03*
X-2984Y-910D03*
X-3181Y-910D03*
X-3378Y-910D03*
X-3575Y-910D03*
X-3772Y-910D03*
G54D25*
X-4670Y-1808D03*
X-4670Y-2005D03*
X-4670Y-2202D03*
X-4670Y-2399D03*
X-4670Y-2596D03*
X-4670Y-2792D03*
X-4670Y-2989D03*
X-4670Y-3186D03*
X-4670Y-3383D03*
X-4670Y-3580D03*
X-4670Y-3777D03*
X-4670Y-3973D03*
X-4670Y-4170D03*
X-4670Y-4367D03*
X-4670Y-4564D03*
X-4670Y-4761D03*
G54D26*
X-3772Y-5596D03*
X-3575Y-5596D03*
X-3181Y-5596D03*
X-3378Y-5603D03*
X-2984Y-5596D03*
X-2788Y-5596D03*
X-2591Y-5596D03*
X-2394Y-5596D03*
X-2197Y-5596D03*
X-2000Y-5596D03*
X-1806Y-5596D03*
X-1609Y-5596D03*
X-1412Y-5596D03*
X-1215Y-5596D03*
X-1019Y-5596D03*
X-822Y-5596D03*
G54D27*
X-13475Y-306D03*
G54D28*
X-13475Y-1094D03*
G54D29*
X-15738Y617D03*
G54D30*
X-15738Y-2018D03*
G54D16*
X3151Y-8035D03*
X2559Y-8035D03*
X3151Y-7035D03*
X2559Y-7035D03*
G54D31*
X-12225Y-3969D03*
X-12225Y-5331D03*
G54D18*
X-13425Y-8480D03*
X-13425Y-9070D03*
G54D32*
X-7080Y-2700D03*
G54D33*
X-9066Y-155D03*
X-9066Y-905D03*
X-9066Y-530D03*
X-8234Y-905D03*
X-8234Y-155D03*
G54D34*
X-8014Y-3301D03*
X-8014Y-3104D03*
X-8014Y-3498D03*
X-8014Y-3695D03*
X-9085Y-3695D03*
X-9085Y-3498D03*
X-9085Y-3301D03*
X-9085Y-3104D03*
G54D35*
X-8845Y-3935D03*
X-8648Y-3935D03*
X-8451Y-3935D03*
X-8254Y-3935D03*
X-8254Y-2864D03*
X-8451Y-2864D03*
X-8648Y-2864D03*
X-8845Y-2864D03*
G54D36*
X-8707Y-3557D03*
X-8707Y-3242D03*
X-8392Y-3242D03*
X-8392Y-3557D03*
G54D37*
X-13009Y1637D03*
X-12537Y1637D03*
X-12064Y1637D03*
X-11592Y1637D03*
X-11120Y1637D03*
X-10647Y1637D03*
X-10175Y1637D03*
X-9702Y1637D03*
X-9230Y1637D03*
X-8757Y1637D03*
X-8285Y1637D03*
X-7812Y1637D03*
X-7812Y6912D03*
X-8285Y6912D03*
X-8757Y6912D03*
X-9230Y6912D03*
X-9702Y6912D03*
X-10175Y6912D03*
X-10647Y6912D03*
X-11120Y6912D03*
X-11592Y6912D03*
X-12064Y6912D03*
X-12537Y6912D03*
X-13009Y6912D03*
G54D38*
X-6710Y5889D03*
X-6710Y5495D03*
X-6710Y4983D03*
X-6710Y4511D03*
X-6710Y4038D03*
X-6710Y3566D03*
X-6710Y3054D03*
X-6710Y2660D03*
G54D16*
X2559Y-7535D03*
X3151Y-7535D03*
G54D24*
X-6787Y8D03*
X-6787Y-583D03*
G54D39*
X-7520Y85D03*
X-7520Y-665D03*
G54D16*
X2559Y-8535D03*
X3151Y-8535D03*
X3151Y-4035D03*
X2559Y-4035D03*
X3151Y-5035D03*
X2559Y-5035D03*
X-2691Y-8310D03*
X-2099Y-8310D03*
G54D24*
X-5420Y-5039D03*
X-5420Y-5631D03*
G54D16*
X-2691Y-7760D03*
X-2099Y-7760D03*
G54D24*
X-4820Y-6256D03*
X-4820Y-5664D03*
G54D16*
X-9821Y-8075D03*
X-9229Y-8075D03*
X-1576Y-7210D03*
X-984Y-7210D03*
G54D24*
X-2220Y244D03*
X-2220Y836D03*
G54D16*
X-4416Y790D03*
X-3824Y790D03*
X-2691Y-6660D03*
X-2099Y-6660D03*
G54D24*
X1305Y-9206D03*
X1305Y-8614D03*
G54D16*
X-3259Y8680D03*
X-3851Y8680D03*
G54D24*
X-9687Y-941D03*
X-9687Y-1533D03*
G54D16*
X-4416Y240D03*
X-3824Y240D03*
G54D24*
X-5530Y7476D03*
X-5530Y6884D03*
G54D16*
X-2691Y-7210D03*
X-2099Y-7210D03*
G54D24*
X-860Y-8954D03*
X-860Y-9546D03*
G54D16*
X-3824Y1340D03*
X-4416Y1340D03*
G54D39*
X-10350Y-1400D03*
X-10350Y-2150D03*
G54D16*
X-7966Y-1537D03*
X-8558Y-1537D03*
G54D24*
X-670Y269D03*
X-670Y861D03*
G54D16*
X-3274Y-7210D03*
X-3866Y-7210D03*
G54D24*
X-95Y269D03*
X-95Y861D03*
G54D16*
X-3274Y-6660D03*
X-3866Y-6660D03*
G54D32*
X-8250Y9000D03*
G54D39*
X-1370Y1090D03*
X-1370Y340D03*
G54D16*
X-4451Y9330D03*
X-3859Y9330D03*
X2559Y-6535D03*
X3151Y-6535D03*
X2559Y-5535D03*
X3151Y-5535D03*
G54D40*
X4827Y8012D03*
X-11212Y9262D03*
X-11212Y-9737D03*
G54D41*
X4721Y-535D03*
X5918Y-535D03*
X5918Y-1535D03*
X4721Y-1535D03*
X4721Y-2535D03*
X5918Y-2535D03*
X5918Y-3535D03*
X4721Y-3535D03*
X4721Y-4535D03*
X5918Y-4535D03*
G54D42*
X5918Y-6535D03*
G54D41*
X4721Y-6535D03*
X5918Y-5535D03*
X4721Y-5535D03*
G54D15*
X-11000Y-3875D03*
X-11000Y-4975D03*
X-6650Y-7950D03*
X-6650Y-6850D03*
G54D43*
X-2970Y449D03*
X-2970Y1531D03*
G54D44*
X-745Y-6530D03*
X-1495Y-6530D03*
G54D16*
X-4116Y4800D03*
X-3524Y4800D03*
X-2404Y4800D03*
X-2996Y4800D03*
X-5524Y-3730D03*
X-6116Y-3730D03*
X-5524Y-4190D03*
X-6116Y-4190D03*
G54D24*
X-5910Y-5044D03*
X-5910Y-5636D03*
M02*
