G04 (created by PCBNEW (2013-05-31 BZR 4019)-stable) date 6/26/2014 4:14:42 PM*
%MOIN*%
G04 Gerber Fmt 3.4, Leading zero omitted, Abs format*
%FSLAX34Y34*%
G01*
G70*
G90*
G04 APERTURE LIST*
%ADD10C,0.00590551*%
%ADD11R,0.0161X0.0402*%
%ADD12R,0.0906X0.0197*%
%ADD13R,0.0984X0.0787*%
%ADD14R,0.071X0.063*%
%ADD15R,0.0354X0.0394*%
%ADD16R,0.0275X0.0315*%
%ADD17R,0.0314X0.0314*%
%ADD18C,0.055*%
%ADD19R,0.0244094X0.0480315*%
%ADD20R,0.025X0.05*%
%ADD21R,0.0275X0.0098*%
%ADD22R,0.0098X0.0275*%
%ADD23R,0.0394X0.0354*%
%ADD24R,0.06X0.0098*%
%ADD25R,0.0098X0.06*%
%ADD26R,0.1377X0.0392*%
%ADD27R,0.1377X0.0393*%
%ADD28R,0.1338X0.059*%
%ADD29R,0.1337X0.059*%
%ADD30R,0.0669X0.0827*%
%ADD31C,0.0787*%
%ADD32R,0.0394X0.0236*%
%ADD33R,0.0188976X0.00944882*%
%ADD34R,0.00944882X0.0188976*%
%ADD35R,0.0314961X0.0314961*%
%ADD36C,0.013*%
%ADD37R,0.0314961X0.0551181*%
%ADD38R,0.0551181X0.0314961*%
%ADD39R,0.059X0.0512*%
%ADD40C,0.18*%
%ADD41O,0.0787402X0.0590551*%
%ADD42R,0.0787402X0.0590551*%
%ADD43R,0.0591X0.0768*%
%ADD44R,0.0512X0.059*%
%ADD45C,0.024*%
%ADD46C,0.03*%
%ADD47C,0.008*%
%ADD48C,0.024*%
%ADD49C,0.01*%
G04 APERTURE END LIST*
G54D10*
G54D11*
X614Y-8004D03*
X358Y-8004D03*
X102Y-8004D03*
X-154Y-8004D03*
X-154Y-9816D03*
X102Y-9816D03*
X358Y-9816D03*
X614Y-9816D03*
G54D12*
X-13667Y-4345D03*
X-13667Y-4660D03*
X-13667Y-4975D03*
X-13667Y-5290D03*
X-13667Y-5605D03*
G54D13*
X-13706Y-3223D03*
X-15871Y-3223D03*
X-13706Y-6727D03*
X-15871Y-6727D03*
G54D14*
X-11675Y-1450D03*
X-11675Y-350D03*
G54D15*
X3151Y465D03*
X2559Y465D03*
X3151Y-1535D03*
X2559Y-1535D03*
X3151Y-2035D03*
X2559Y-2035D03*
X3151Y-3035D03*
X2559Y-3035D03*
X3151Y1965D03*
X2559Y1965D03*
X3151Y-35D03*
X2559Y-35D03*
X-7521Y-6100D03*
X-6929Y-6100D03*
G54D16*
X-9000Y-4534D03*
X-9000Y-4966D03*
G54D17*
X-15600Y7980D03*
X-15600Y8570D03*
X-14500Y7980D03*
X-14500Y8570D03*
X-15600Y-8480D03*
X-15600Y-9070D03*
X-14500Y-8480D03*
X-14500Y-9070D03*
G54D18*
X-8984Y-9050D03*
X-8000Y-9050D03*
X-7015Y-9050D03*
X-8984Y-10349D03*
X-8000Y-10349D03*
X-7015Y-10349D03*
G54D15*
X2559Y-535D03*
X3151Y-535D03*
X2559Y1465D03*
X3151Y1465D03*
X2559Y965D03*
X3151Y965D03*
X2559Y-1035D03*
X3151Y-1035D03*
X2559Y-2535D03*
X3151Y-2535D03*
X2559Y-3535D03*
X3151Y-3535D03*
X2559Y-4535D03*
X3151Y-4535D03*
G54D19*
X-9699Y-6284D03*
X-9325Y-6284D03*
X-8950Y-6284D03*
X-9699Y-7315D03*
X-9325Y-7315D03*
X-8950Y-7315D03*
G54D15*
X-4534Y5805D03*
X-5126Y5805D03*
G54D20*
X-1457Y-7990D03*
X-1103Y-7990D03*
G54D21*
X-3357Y6688D03*
X-3357Y6885D03*
X-3357Y7082D03*
X-3357Y7278D03*
X-3357Y7475D03*
X-3357Y7672D03*
G54D22*
X-3613Y7928D03*
X-3810Y7928D03*
X-4007Y7928D03*
X-4203Y7928D03*
X-4400Y7928D03*
X-4597Y7928D03*
G54D21*
X-4853Y7672D03*
X-4853Y7475D03*
X-4853Y7278D03*
X-4853Y7082D03*
X-4853Y6885D03*
X-4853Y6688D03*
G54D22*
X-4597Y6432D03*
X-4400Y6432D03*
X-4203Y6432D03*
X-4007Y6432D03*
X-3810Y6432D03*
X-3613Y6432D03*
G54D23*
X-7530Y-7476D03*
X-7530Y-6884D03*
G54D15*
X3151Y-9035D03*
X2559Y-9035D03*
G54D23*
X-9500Y-4354D03*
X-9500Y-4946D03*
G54D15*
X-15571Y9125D03*
X-14979Y9125D03*
G54D23*
X-13550Y8604D03*
X-13550Y9196D03*
X-7425Y-3979D03*
X-7425Y-4571D03*
X-6875Y-3979D03*
X-6875Y-4571D03*
X-10170Y-4354D03*
X-10170Y-4946D03*
X-10325Y-6904D03*
X-10325Y-7496D03*
G54D15*
X-9104Y-2200D03*
X-9696Y-2200D03*
X3151Y-6035D03*
X2559Y-6035D03*
X-6416Y-1860D03*
X-5824Y-1860D03*
G54D23*
X-5720Y-2384D03*
X-5720Y-2976D03*
X-8240Y-6984D03*
X-8240Y-7576D03*
G54D24*
X16Y-4761D03*
X16Y-4564D03*
X16Y-4367D03*
X16Y-4170D03*
X16Y-3973D03*
X16Y-3777D03*
X16Y-3580D03*
X16Y-3383D03*
X16Y-3186D03*
X16Y-2989D03*
X16Y-2792D03*
X16Y-2596D03*
X16Y-2399D03*
X16Y-2202D03*
X16Y-2005D03*
X16Y-1808D03*
G54D25*
X-819Y-910D03*
X-1016Y-910D03*
X-1213Y-910D03*
X-1410Y-910D03*
X-1607Y-910D03*
X-1803Y-910D03*
X-2000Y-910D03*
X-2197Y-910D03*
X-2394Y-910D03*
X-2591Y-910D03*
X-2788Y-910D03*
X-2984Y-910D03*
X-3181Y-910D03*
X-3378Y-910D03*
X-3575Y-910D03*
X-3772Y-910D03*
G54D24*
X-4670Y-1808D03*
X-4670Y-2005D03*
X-4670Y-2202D03*
X-4670Y-2399D03*
X-4670Y-2596D03*
X-4670Y-2792D03*
X-4670Y-2989D03*
X-4670Y-3186D03*
X-4670Y-3383D03*
X-4670Y-3580D03*
X-4670Y-3777D03*
X-4670Y-3973D03*
X-4670Y-4170D03*
X-4670Y-4367D03*
X-4670Y-4564D03*
X-4670Y-4761D03*
G54D25*
X-3772Y-5596D03*
X-3575Y-5596D03*
X-3181Y-5596D03*
X-3378Y-5603D03*
X-2984Y-5596D03*
X-2788Y-5596D03*
X-2591Y-5596D03*
X-2394Y-5596D03*
X-2197Y-5596D03*
X-2000Y-5596D03*
X-1806Y-5596D03*
X-1609Y-5596D03*
X-1412Y-5596D03*
X-1215Y-5596D03*
X-1019Y-5596D03*
X-822Y-5596D03*
G54D26*
X-13475Y-306D03*
G54D27*
X-13475Y-1094D03*
G54D28*
X-15738Y617D03*
G54D29*
X-15738Y-2018D03*
G54D15*
X3151Y-8035D03*
X2559Y-8035D03*
X3151Y-7035D03*
X2559Y-7035D03*
G54D30*
X-12225Y-3969D03*
X-12225Y-5331D03*
G54D17*
X-13425Y-8480D03*
X-13425Y-9070D03*
G54D31*
X-7080Y-2700D03*
G54D32*
X-9066Y-155D03*
X-9066Y-905D03*
X-9066Y-530D03*
X-8234Y-905D03*
X-8234Y-155D03*
G54D33*
X-8014Y-3301D03*
X-8014Y-3104D03*
X-8014Y-3498D03*
X-8014Y-3695D03*
X-9085Y-3695D03*
X-9085Y-3498D03*
X-9085Y-3301D03*
X-9085Y-3104D03*
G54D34*
X-8845Y-3935D03*
X-8648Y-3935D03*
X-8451Y-3935D03*
X-8254Y-3935D03*
X-8254Y-2864D03*
X-8451Y-2864D03*
X-8648Y-2864D03*
X-8845Y-2864D03*
G54D35*
X-8707Y-3557D03*
X-8707Y-3242D03*
X-8392Y-3242D03*
X-8392Y-3557D03*
G54D36*
X-8680Y-3270D03*
X-8420Y-3270D03*
X-8420Y-3530D03*
X-8680Y-3530D03*
X-8550Y-3400D03*
G54D37*
X-13009Y1637D03*
X-12537Y1637D03*
X-12064Y1637D03*
X-11592Y1637D03*
X-11120Y1637D03*
X-10647Y1637D03*
X-10175Y1637D03*
X-9702Y1637D03*
X-9230Y1637D03*
X-8757Y1637D03*
X-8285Y1637D03*
X-7812Y1637D03*
X-7812Y6912D03*
X-8285Y6912D03*
X-8757Y6912D03*
X-9230Y6912D03*
X-9702Y6912D03*
X-10175Y6912D03*
X-10647Y6912D03*
X-11120Y6912D03*
X-11592Y6912D03*
X-12064Y6912D03*
X-12537Y6912D03*
X-13009Y6912D03*
G54D38*
X-6710Y5889D03*
X-6710Y5495D03*
X-6710Y4983D03*
X-6710Y4511D03*
X-6710Y4038D03*
X-6710Y3566D03*
X-6710Y3054D03*
X-6710Y2660D03*
G54D15*
X2559Y-7535D03*
X3151Y-7535D03*
G54D23*
X-6787Y8D03*
X-6787Y-583D03*
G54D39*
X-7520Y85D03*
X-7520Y-665D03*
G54D15*
X2559Y-8535D03*
X3151Y-8535D03*
X3151Y-4035D03*
X2559Y-4035D03*
X3151Y-5035D03*
X2559Y-5035D03*
X-2691Y-8310D03*
X-2099Y-8310D03*
G54D23*
X-5420Y-5039D03*
X-5420Y-5631D03*
G54D15*
X-2691Y-7760D03*
X-2099Y-7760D03*
G54D23*
X-4820Y-6256D03*
X-4820Y-5664D03*
G54D15*
X-9821Y-8075D03*
X-9229Y-8075D03*
X-1576Y-7210D03*
X-984Y-7210D03*
G54D23*
X-2220Y244D03*
X-2220Y836D03*
G54D15*
X-4416Y790D03*
X-3824Y790D03*
X-2691Y-6660D03*
X-2099Y-6660D03*
G54D23*
X1305Y-9206D03*
X1305Y-8614D03*
G54D15*
X-3259Y8680D03*
X-3851Y8680D03*
G54D23*
X-9687Y-941D03*
X-9687Y-1533D03*
G54D15*
X-4416Y240D03*
X-3824Y240D03*
G54D23*
X-5530Y7476D03*
X-5530Y6884D03*
G54D15*
X-2691Y-7210D03*
X-2099Y-7210D03*
G54D23*
X-860Y-8954D03*
X-860Y-9546D03*
G54D15*
X-3824Y1340D03*
X-4416Y1340D03*
G54D39*
X-10350Y-1400D03*
X-10350Y-2150D03*
G54D15*
X-7966Y-1537D03*
X-8558Y-1537D03*
G54D23*
X-670Y269D03*
X-670Y861D03*
G54D15*
X-3274Y-7210D03*
X-3866Y-7210D03*
G54D23*
X-95Y269D03*
X-95Y861D03*
G54D15*
X-3274Y-6660D03*
X-3866Y-6660D03*
G54D31*
X-8250Y9000D03*
G54D39*
X-1370Y1090D03*
X-1370Y340D03*
G54D15*
X-4451Y9330D03*
X-3859Y9330D03*
X2559Y-6535D03*
X3151Y-6535D03*
X2559Y-5535D03*
X3151Y-5535D03*
G54D40*
X4827Y8012D03*
X-11212Y9262D03*
X-11212Y-9737D03*
G54D41*
X4721Y-535D03*
X5918Y-535D03*
X5918Y-1535D03*
X4721Y-1535D03*
X4721Y-2535D03*
X5918Y-2535D03*
X5918Y-3535D03*
X4721Y-3535D03*
X4721Y-4535D03*
X5918Y-4535D03*
G54D42*
X5918Y-6535D03*
G54D41*
X4721Y-6535D03*
X5918Y-5535D03*
X4721Y-5535D03*
G54D14*
X-11000Y-3875D03*
X-11000Y-4975D03*
X-6650Y-7950D03*
X-6650Y-6850D03*
G54D43*
X-2970Y449D03*
X-2970Y1531D03*
G54D44*
X-745Y-6530D03*
X-1495Y-6530D03*
G54D15*
X-4116Y4800D03*
X-3524Y4800D03*
X-2404Y4800D03*
X-2996Y4800D03*
X-5524Y-3730D03*
X-6116Y-3730D03*
X-5524Y-4190D03*
X-6116Y-4190D03*
G54D23*
X-5910Y-5044D03*
X-5910Y-5636D03*
G54D45*
X-1960Y-10430D03*
X2060Y-2290D03*
X1970Y-5600D03*
X980Y-9820D03*
X380Y170D03*
X3520Y4990D03*
X-4300Y-5220D03*
X-5700Y-7140D03*
X-4130Y-8970D03*
X-6480Y-5470D03*
X-7000Y-1640D03*
X-9090Y470D03*
X-9970Y4800D03*
X-8530Y5810D03*
X-11490Y5470D03*
X-6070Y1620D03*
X-2760Y8830D03*
X-1220Y6160D03*
X-4610Y4530D03*
X-1980Y4790D03*
X-13600Y-9700D03*
X-9320Y-6780D03*
X-8400Y-4425D03*
X-8525Y-4800D03*
X-540Y-7870D03*
X340Y-5870D03*
X-1380Y1550D03*
X-2960Y2120D03*
X-600Y1260D03*
X1180Y-770D03*
X-8220Y-5630D03*
X-5720Y-700D03*
X-10860Y3500D03*
X-9760Y3500D03*
X-8330Y2530D03*
X3705Y-7735D03*
X-12150Y6380D03*
X-11090Y7530D03*
X-13830Y7540D03*
X-12700Y3310D03*
X-11590Y6080D03*
X-7700Y4410D03*
X-7300Y5890D03*
X-6200Y7350D03*
X-6200Y9110D03*
X-8630Y-520D03*
X-7620Y-2970D03*
X-8275Y-2375D03*
X-8600Y-2075D03*
G54D46*
X-11670Y-2090D03*
G54D45*
X-7825Y-2450D03*
X-14400Y-9525D03*
X-7425Y-3450D03*
X-15425Y-9550D03*
X-4070Y-2990D03*
X-3330Y-2400D03*
X-5460Y4030D03*
X-3830Y-4570D03*
X-4520Y-1050D03*
X-5750Y4340D03*
X-9270Y4270D03*
X-12590Y2580D03*
X-12220Y1030D03*
X3630Y-8700D03*
X3610Y-7350D03*
X3570Y-6640D03*
X3570Y-5370D03*
X3560Y-4550D03*
X3630Y-3490D03*
X3680Y-2470D03*
X3660Y-580D03*
X3740Y1560D03*
X1470Y-9680D03*
X-2690Y-1770D03*
X-10790Y-5490D03*
X-11300Y-5500D03*
X-9450Y-3610D03*
X-10580Y-750D03*
X-9130Y-1530D03*
X-6130Y-4520D03*
X-5660Y-6170D03*
X-5680Y-8900D03*
X-3220Y-7950D03*
X-1320Y-8950D03*
X-1630Y-4960D03*
X-4050Y-3380D03*
X-4010Y-2220D03*
X-12830Y4130D03*
X-9310Y5020D03*
X-7690Y5150D03*
X-10150Y3150D03*
X-6410Y1940D03*
X-7300Y3330D03*
X-3720Y9850D03*
X-2010Y9330D03*
X-1250Y5550D03*
X-2790Y6820D03*
X-5880Y6860D03*
X-6010Y5790D03*
X-13420Y1390D03*
X-7900Y-4050D03*
X-7270Y7320D03*
X-8120Y5820D03*
X-9100Y2930D03*
X-6860Y8250D03*
X-5550Y8820D03*
X-5600Y3680D03*
X-5970Y3580D03*
X-3970Y-4130D03*
X2030Y-8660D03*
X-20Y-9285D03*
X-9660Y4970D03*
X-11330Y2260D03*
X-10110Y3830D03*
X-3530Y4340D03*
X-5870Y970D03*
X-11830Y1100D03*
X-12130Y2180D03*
X-13060Y3500D03*
X-6180Y-3170D03*
X-4510Y3780D03*
X505Y-8610D03*
X-9010Y7610D03*
X-11040Y4330D03*
X-10750Y4140D03*
X-10480Y3960D03*
G54D47*
X-2691Y-8310D02*
X-2691Y-8759D01*
X-1960Y-9130D02*
X-1960Y-10430D01*
X-2240Y-8850D02*
X-1960Y-9130D01*
X-2600Y-8850D02*
X-2240Y-8850D01*
X-2691Y-8759D02*
X-2600Y-8850D01*
X614Y-9816D02*
X976Y-9816D01*
X976Y-9816D02*
X980Y-9820D01*
X-1806Y-5596D02*
X-1806Y-5204D01*
X-1213Y-3903D02*
X-1213Y-910D01*
X-1970Y-4660D02*
X-1213Y-3903D01*
X-1970Y-5040D02*
X-1970Y-4660D01*
X-1806Y-5204D02*
X-1970Y-5040D01*
X-95Y269D02*
X281Y269D01*
X281Y269D02*
X380Y170D01*
X-3274Y-6660D02*
X-3274Y-7210D01*
X-3274Y-6660D02*
X-3274Y-6289D01*
X-2788Y-6028D02*
X-2945Y-6185D01*
X-2945Y-6185D02*
X-3170Y-6185D01*
X-3170Y-6185D02*
X-3274Y-6289D01*
X-2788Y-6028D02*
X-2788Y-5596D01*
X-2394Y-5596D02*
X-2394Y-5186D01*
X-2788Y-5203D02*
X-2788Y-5596D01*
X-2695Y-5110D02*
X-2788Y-5203D01*
X-2470Y-5110D02*
X-2695Y-5110D01*
X-2394Y-5186D02*
X-2470Y-5110D01*
X-2394Y-5596D02*
X-2394Y-7709D01*
X-2445Y-7760D02*
X-2691Y-7760D01*
X-2394Y-7709D02*
X-2445Y-7760D01*
X-2691Y-7760D02*
X-2691Y-8310D01*
X855Y-9210D02*
X1301Y-9210D01*
X1301Y-9210D02*
X1305Y-9206D01*
X614Y-9816D02*
X614Y-9451D01*
X614Y-9451D02*
X855Y-9210D01*
X855Y-9210D02*
X859Y-9206D01*
X-1213Y-910D02*
X-1213Y-453D01*
X-95Y40D02*
X-95Y269D01*
X-470Y-335D02*
X-95Y40D01*
X-1095Y-335D02*
X-470Y-335D01*
X-1213Y-453D02*
X-1095Y-335D01*
X-670Y269D02*
X-95Y269D01*
X-1607Y-910D02*
X-1607Y-522D01*
X-670Y40D02*
X-670Y269D01*
X-845Y-135D02*
X-670Y40D01*
X-1220Y-135D02*
X-845Y-135D01*
X-1607Y-522D02*
X-1220Y-135D01*
X-1803Y-910D02*
X-1607Y-910D01*
X-4670Y-4761D02*
X-4219Y-4761D01*
X-4080Y-5000D02*
X-4300Y-5220D01*
X-4080Y-4900D02*
X-4080Y-5000D01*
X-4219Y-4761D02*
X-4080Y-4900D01*
X-4820Y-6256D02*
X-4820Y-6530D01*
X-5300Y-6740D02*
X-5700Y-7140D01*
X-5030Y-6740D02*
X-5300Y-6740D01*
X-4820Y-6530D02*
X-5030Y-6740D01*
X-5720Y-2384D02*
X-4685Y-2384D01*
X-4685Y-2384D02*
X-4670Y-2399D01*
X-9325Y-6284D02*
X-9325Y-5965D01*
X-6760Y-5750D02*
X-6480Y-5470D01*
X-7870Y-5750D02*
X-6760Y-5750D01*
X-8060Y-5940D02*
X-7870Y-5750D01*
X-8440Y-5940D02*
X-8060Y-5940D01*
X-8510Y-5870D02*
X-8440Y-5940D01*
X-9230Y-5870D02*
X-8510Y-5870D01*
X-9325Y-5965D02*
X-9230Y-5870D01*
X-6416Y-1860D02*
X-6780Y-1860D01*
X-6780Y-1860D02*
X-7000Y-1640D01*
X-8234Y-155D02*
X-8234Y304D01*
X-8400Y470D02*
X-9090Y470D01*
X-8234Y304D02*
X-8400Y470D01*
X-8285Y1637D02*
X-8285Y1265D01*
X-6540Y1150D02*
X-6070Y1620D01*
X-8170Y1150D02*
X-6540Y1150D01*
X-8285Y1265D02*
X-8170Y1150D01*
X-4853Y7672D02*
X-4582Y7672D01*
X-3810Y7600D02*
X-3810Y7928D01*
X-4010Y7400D02*
X-3810Y7600D01*
X-4430Y7400D02*
X-4010Y7400D01*
X-4540Y7510D02*
X-4430Y7400D01*
X-4540Y7630D02*
X-4540Y7510D01*
X-4582Y7672D02*
X-4540Y7630D01*
X-3259Y8680D02*
X-2910Y8680D01*
X-2910Y8680D02*
X-2760Y8830D01*
X-4116Y4800D02*
X-4340Y4800D01*
X-4340Y4800D02*
X-4610Y4530D01*
X-2404Y4800D02*
X-1990Y4800D01*
X-1990Y4800D02*
X-1980Y4790D01*
X-5720Y-2384D02*
X-6196Y-2384D01*
X-6416Y-2164D02*
X-6416Y-1860D01*
X-6196Y-2384D02*
X-6416Y-2164D01*
X-7520Y85D02*
X-7175Y85D01*
X-7098Y8D02*
X-6787Y8D01*
X-7175Y85D02*
X-7098Y8D01*
X-8234Y-155D02*
X-8135Y-155D01*
X-7895Y85D02*
X-7520Y85D01*
X-8135Y-155D02*
X-7895Y85D01*
X-3181Y-5596D02*
X-3181Y-5946D01*
X-3295Y-6060D02*
X-3670Y-6060D01*
X-3181Y-5946D02*
X-3295Y-6060D01*
X-4670Y-4761D02*
X-4670Y-4885D01*
X-4824Y-5039D02*
X-5420Y-5039D01*
X-4670Y-4885D02*
X-4824Y-5039D01*
X-4820Y-6256D02*
X-4341Y-6256D01*
X-3575Y-5965D02*
X-3575Y-5596D01*
X-3670Y-6060D02*
X-3575Y-5965D01*
X-4145Y-6060D02*
X-3670Y-6060D01*
X-4341Y-6256D02*
X-4145Y-6060D01*
X-3810Y7928D02*
X-3810Y8175D01*
X-3810Y8175D02*
X-3705Y8280D01*
X-3705Y8280D02*
X-3305Y8280D01*
X-3305Y8280D02*
X-3259Y8326D01*
X-3259Y8326D02*
X-3259Y8680D01*
X-4853Y7672D02*
X-5088Y7672D01*
X-5284Y7476D02*
X-5530Y7476D01*
X-5088Y7672D02*
X-5284Y7476D01*
X-13425Y-8480D02*
X-13755Y-8480D01*
X-13900Y-9400D02*
X-13600Y-9700D01*
X-13900Y-8625D02*
X-13900Y-9400D01*
X-13755Y-8480D02*
X-13900Y-8625D01*
X-9320Y-6780D02*
X-9090Y-6780D01*
X-9699Y-7029D02*
X-9450Y-6780D01*
X-9450Y-6780D02*
X-9320Y-6780D01*
X-9699Y-7315D02*
X-9699Y-7029D01*
X-8344Y-6880D02*
X-8240Y-6984D01*
X-8990Y-6880D02*
X-8344Y-6880D01*
X-9090Y-6780D02*
X-8990Y-6880D01*
X-9699Y-7315D02*
X-9699Y-7624D01*
X-9821Y-7746D02*
X-9821Y-8075D01*
X-9699Y-7624D02*
X-9821Y-7746D01*
X-8451Y-3935D02*
X-8451Y-4373D01*
X-8451Y-4373D02*
X-8400Y-4425D01*
X-8648Y-3935D02*
X-8648Y-4676D01*
X-8648Y-4676D02*
X-8525Y-4800D01*
G54D48*
X-8000Y-9050D02*
X-8000Y-8400D01*
X-8000Y-8400D02*
X-8000Y-8375D01*
X-8000Y-8375D02*
X-7575Y-7950D01*
X-7575Y-7950D02*
X-6650Y-7950D01*
X-8000Y-10349D02*
X-8000Y-9050D01*
G54D47*
X-2099Y-8310D02*
X-1970Y-8310D01*
X-406Y-8004D02*
X-540Y-7870D01*
X-406Y-8004D02*
X-154Y-8004D01*
X-650Y-7870D02*
X-540Y-7870D01*
X-770Y-7990D02*
X-650Y-7870D01*
X-770Y-8310D02*
X-770Y-7990D01*
X-1000Y-8540D02*
X-770Y-8310D01*
X-1740Y-8540D02*
X-1000Y-8540D01*
X-1970Y-8310D02*
X-1740Y-8540D01*
X-1370Y1090D02*
X-1370Y1540D01*
X-1370Y1540D02*
X-1380Y1550D01*
X-2970Y1531D02*
X-2970Y2110D01*
X-2970Y2110D02*
X-2960Y2120D01*
X-670Y861D02*
X-670Y1190D01*
X-670Y1190D02*
X-600Y1260D01*
X-4416Y1340D02*
X-4416Y1564D01*
X-3199Y1760D02*
X-2970Y1531D01*
X-4220Y1760D02*
X-3199Y1760D01*
X-4416Y1564D02*
X-4220Y1760D01*
X-2970Y1531D02*
X-2441Y1531D01*
X-2441Y1531D02*
X-2220Y1310D01*
X-2220Y1310D02*
X-2220Y836D01*
X-1370Y1090D02*
X-1966Y1090D01*
X-1966Y1090D02*
X-2220Y836D01*
X-670Y861D02*
X-811Y861D01*
X-1040Y1090D02*
X-1370Y1090D01*
X-811Y861D02*
X-1040Y1090D01*
X-95Y861D02*
X-670Y861D01*
X-860Y-8954D02*
X-794Y-8954D01*
X-794Y-8954D02*
X-154Y-8314D01*
X-154Y-8314D02*
X-154Y-8004D01*
X-2197Y-5596D02*
X-2197Y-5083D01*
X-2984Y-5124D02*
X-2984Y-5596D01*
X-2795Y-4935D02*
X-2984Y-5124D01*
X-2345Y-4935D02*
X-2795Y-4935D01*
X-2197Y-5083D02*
X-2345Y-4935D01*
X-2000Y-5596D02*
X-2197Y-5596D01*
X-2099Y-7760D02*
X-2099Y-8310D01*
X-2099Y-7210D02*
X-2099Y-7760D01*
X-4416Y790D02*
X-4416Y1340D01*
X-4416Y240D02*
X-4416Y790D01*
X-3772Y-910D02*
X-4070Y-910D01*
X-4416Y-564D02*
X-4416Y240D01*
X-4070Y-910D02*
X-4416Y-564D01*
X-2099Y-6660D02*
X-2099Y-7210D01*
X-2197Y-5596D02*
X-2197Y-6158D01*
X-2099Y-6256D02*
X-2099Y-6660D01*
X-2197Y-6158D02*
X-2099Y-6256D01*
X-2394Y-910D02*
X-2394Y-1361D01*
X-2320Y-1435D02*
X-1945Y-1435D01*
X-2394Y-1361D02*
X-2320Y-1435D01*
X-2000Y-910D02*
X-2000Y-1380D01*
X-2000Y-1380D02*
X-1945Y-1435D01*
X-1410Y-1375D02*
X-1410Y-910D01*
X-1945Y-1435D02*
X-1470Y-1435D01*
X-1470Y-1435D02*
X-1410Y-1375D01*
X-2394Y-910D02*
X-2394Y-459D01*
X-2394Y-459D02*
X-2070Y-135D01*
X-2070Y-135D02*
X-1945Y-135D01*
X-1945Y-135D02*
X-1845Y-35D01*
X-1845Y-35D02*
X-1845Y715D01*
X-1845Y715D02*
X-1966Y836D01*
X-1966Y836D02*
X-2220Y836D01*
X-9699Y-6284D02*
X-9699Y-5859D01*
X-8290Y-5700D02*
X-8220Y-5630D01*
X-9540Y-5700D02*
X-8290Y-5700D01*
X-9699Y-5859D02*
X-9540Y-5700D01*
X-5590Y-570D02*
X-5720Y-700D01*
X-10860Y3500D02*
X-9760Y3500D01*
X-5590Y1600D02*
X-5590Y-570D01*
X-6310Y2320D02*
X-5590Y1600D01*
X-8120Y2320D02*
X-6310Y2320D01*
X-8330Y2530D02*
X-8120Y2320D01*
X-9699Y-6284D02*
X-9699Y-6624D01*
X-9979Y-6904D02*
X-10325Y-6904D01*
X-9699Y-6624D02*
X-9979Y-6904D01*
X-1576Y-7210D02*
X-1576Y-7871D01*
X-1576Y-7871D02*
X-1457Y-7990D01*
X-1495Y-6530D02*
X-1495Y-7129D01*
X-1495Y-7129D02*
X-1576Y-7210D01*
X-1412Y-5596D02*
X-1412Y-6022D01*
X-1495Y-6105D02*
X-1495Y-6530D01*
X-1412Y-6022D02*
X-1495Y-6105D01*
X1080Y-8185D02*
X930Y-8335D01*
X16Y-7096D02*
X330Y-7410D01*
X330Y-7410D02*
X855Y-7410D01*
X855Y-7410D02*
X1080Y-7635D01*
X1080Y-7635D02*
X1080Y-8185D01*
X16Y-4761D02*
X16Y-7096D01*
X930Y-8835D02*
X358Y-9407D01*
X930Y-8335D02*
X930Y-8835D01*
X358Y-9407D02*
X358Y-9816D01*
X16Y-4367D02*
X-463Y-4367D01*
X16Y-3973D02*
X-463Y-3973D01*
X16Y-3580D02*
X-463Y-3580D01*
X16Y-3186D02*
X-463Y-3186D01*
X-463Y-3186D02*
X-463Y-3185D01*
X-463Y-2792D02*
X-463Y-3185D01*
X-463Y-3185D02*
X-463Y-3580D01*
X-463Y-3580D02*
X-463Y-3973D01*
X-463Y-3973D02*
X-463Y-4367D01*
X-463Y-4367D02*
X-463Y-4717D01*
X-419Y-4761D02*
X16Y-4761D01*
X-463Y-4717D02*
X-419Y-4761D01*
X-819Y-910D02*
X-819Y-2436D01*
X-463Y-2792D02*
X16Y-2792D01*
X-819Y-2436D02*
X-463Y-2792D01*
X102Y-9816D02*
X358Y-9816D01*
X-2984Y-910D02*
X-2984Y435D01*
X-2984Y435D02*
X-2970Y449D01*
X-3378Y-910D02*
X-3378Y-227D01*
X-3595Y1340D02*
X-3824Y1340D01*
X-3495Y1240D02*
X-3595Y1340D01*
X-3495Y-110D02*
X-3495Y1240D01*
X-3378Y-227D02*
X-3495Y-110D01*
X-2691Y-6660D02*
X-2691Y-7210D01*
X-2691Y-6231D02*
X-2691Y-6660D01*
X-2591Y-6131D02*
X-2691Y-6231D01*
X-2591Y-5596D02*
X-2591Y-6131D01*
X-2591Y-910D02*
X-2591Y-406D01*
X-2220Y-35D02*
X-2220Y244D01*
X-2591Y-406D02*
X-2220Y-35D01*
X-2197Y-910D02*
X-2197Y-497D01*
X-1370Y-10D02*
X-1370Y340D01*
X-1695Y-335D02*
X-1370Y-10D01*
X-2034Y-335D02*
X-1695Y-335D01*
X-2197Y-497D02*
X-2034Y-335D01*
X4819Y-6535D02*
X4819Y-8020D01*
X3805Y-9035D02*
X3151Y-9035D01*
X4819Y-8020D02*
X3805Y-9035D01*
X3151Y465D02*
X4305Y465D01*
X4819Y-49D02*
X4819Y-535D01*
X4305Y465D02*
X4819Y-49D01*
X3151Y1965D02*
X5280Y1965D01*
X5819Y1425D02*
X5819Y-535D01*
X5280Y1965D02*
X5819Y1425D01*
X4819Y-1535D02*
X3151Y-1535D01*
X3151Y-35D02*
X3755Y-35D01*
X5319Y-1035D02*
X5819Y-1535D01*
X4355Y-1035D02*
X5319Y-1035D01*
X4155Y-835D02*
X4355Y-1035D01*
X4155Y-435D02*
X4155Y-835D01*
X3755Y-35D02*
X4155Y-435D01*
X3151Y-2035D02*
X4319Y-2035D01*
X4319Y-2035D02*
X4819Y-2535D01*
X3151Y-3035D02*
X5319Y-3035D01*
X5319Y-3035D02*
X5819Y-2535D01*
X3151Y-4035D02*
X3780Y-4035D01*
X4280Y-3535D02*
X4819Y-3535D01*
X3780Y-4035D02*
X4280Y-3535D01*
X5819Y-3535D02*
X5680Y-3535D01*
X3485Y-5035D02*
X3151Y-5035D01*
X4485Y-4035D02*
X3485Y-5035D01*
X5180Y-4035D02*
X4485Y-4035D01*
X5680Y-3535D02*
X5180Y-4035D01*
X4819Y-4535D02*
X4505Y-4535D01*
X3580Y-6035D02*
X3151Y-6035D01*
X4005Y-5610D02*
X3580Y-6035D01*
X4005Y-5035D02*
X4005Y-5610D01*
X4505Y-4535D02*
X4005Y-5035D01*
X5819Y-4535D02*
X5805Y-4535D01*
X3705Y-7035D02*
X3151Y-7035D01*
X4030Y-6710D02*
X3705Y-7035D01*
X4030Y-6385D02*
X4030Y-6710D01*
X4380Y-6035D02*
X4030Y-6385D01*
X5080Y-6035D02*
X4380Y-6035D01*
X5330Y-5785D02*
X5080Y-6035D01*
X5330Y-5010D02*
X5330Y-5785D01*
X5805Y-4535D02*
X5330Y-5010D01*
X3405Y-8035D02*
X3151Y-8035D01*
X3705Y-7735D02*
X3405Y-8035D01*
X-12064Y6912D02*
X-12064Y6465D01*
X-12064Y6465D02*
X-12150Y6380D01*
X-15600Y7980D02*
X-15600Y7680D01*
X-10660Y6925D02*
X-10647Y6912D01*
X-10660Y7390D02*
X-10660Y6925D01*
X-10800Y7530D02*
X-10660Y7390D01*
X-11090Y7530D02*
X-10800Y7530D01*
X-15460Y7540D02*
X-13830Y7540D01*
X-15600Y7680D02*
X-15460Y7540D01*
X-14500Y7980D02*
X-12105Y7980D01*
X-12105Y7980D02*
X-11592Y7467D01*
X-11592Y7467D02*
X-11592Y6912D01*
X-4400Y6432D02*
X-4400Y6260D01*
X-4534Y6126D02*
X-4534Y5805D01*
X-4400Y6260D02*
X-4534Y6126D01*
X-4203Y7928D02*
X-4203Y8753D01*
X-4451Y9001D02*
X-4451Y9330D01*
X-4203Y8753D02*
X-4451Y9001D01*
X-12700Y3310D02*
X-12710Y3320D01*
X-12710Y3320D02*
X-12710Y3640D01*
X-12710Y3640D02*
X-12160Y4190D01*
X-12160Y4190D02*
X-12160Y5510D01*
X-11590Y6080D02*
X-12160Y5510D01*
X-7700Y4410D02*
X-7360Y4750D01*
X-7360Y4750D02*
X-7360Y5830D01*
X-7360Y5830D02*
X-7300Y5890D01*
X-6200Y9110D02*
X-6200Y7350D01*
G54D48*
X-13475Y-306D02*
X-11719Y-306D01*
X-11719Y-306D02*
X-11675Y-350D01*
G54D47*
X-8845Y-2864D02*
X-8985Y-2864D01*
X-9104Y-2746D02*
X-9104Y-2200D01*
X-8985Y-2864D02*
X-9104Y-2746D01*
X-9085Y-3695D02*
X-9085Y-3860D01*
X-9500Y-4075D02*
X-9500Y-4354D01*
X-9400Y-3975D02*
X-9500Y-4075D01*
X-9200Y-3975D02*
X-9400Y-3975D01*
X-9085Y-3860D02*
X-9200Y-3975D01*
X-7425Y-3979D02*
X-6875Y-3979D01*
X-9066Y-155D02*
X-8775Y-155D01*
X-8775Y-905D02*
X-8630Y-760D01*
X-8630Y-760D02*
X-8630Y-520D01*
X-8775Y-905D02*
X-9066Y-905D01*
X-8630Y-300D02*
X-8630Y-520D01*
X-8775Y-155D02*
X-8630Y-300D01*
X-10350Y-1400D02*
X-10350Y-1240D01*
X-10051Y-941D02*
X-9687Y-941D01*
X-10350Y-1240D02*
X-10051Y-941D01*
X-7080Y-2700D02*
X-7350Y-2700D01*
X-7350Y-2700D02*
X-7620Y-2970D01*
X-6875Y-3979D02*
X-6875Y-2905D01*
X-6875Y-2905D02*
X-7080Y-2700D01*
X-8451Y-2864D02*
X-8451Y-2551D01*
X-8451Y-2551D02*
X-8275Y-2375D01*
X-8648Y-2864D02*
X-8648Y-2123D01*
X-8648Y-2123D02*
X-8600Y-2075D01*
X-8014Y-3498D02*
X-7776Y-3498D01*
X-7675Y-3729D02*
X-7425Y-3979D01*
X-7675Y-3600D02*
X-7675Y-3729D01*
X-7776Y-3498D02*
X-7675Y-3600D01*
X-9687Y-941D02*
X-9391Y-941D01*
X-9362Y-912D02*
X-9078Y-912D01*
X-9391Y-941D02*
X-9362Y-912D01*
X-9085Y-3301D02*
X-9761Y-3301D01*
X-10170Y-3710D02*
X-10170Y-4354D01*
X-9761Y-3301D02*
X-10170Y-3710D01*
X-8845Y-3935D02*
X-8845Y-4070D01*
X-9000Y-4225D02*
X-9000Y-4534D01*
X-8845Y-4070D02*
X-9000Y-4225D01*
G54D48*
X-11675Y-1450D02*
X-11675Y-2085D01*
X-11675Y-2085D02*
X-11670Y-2090D01*
G54D47*
X-8254Y-2864D02*
X-7989Y-2864D01*
X-14500Y-9425D02*
X-14400Y-9525D01*
X-14500Y-9425D02*
X-14500Y-9070D01*
X-7825Y-2700D02*
X-7825Y-2450D01*
X-7989Y-2864D02*
X-7825Y-2700D01*
X-15600Y-9070D02*
X-15600Y-9375D01*
X-7573Y-3301D02*
X-8014Y-3301D01*
X-7425Y-3450D02*
X-7573Y-3301D01*
X-15600Y-9375D02*
X-15425Y-9550D01*
X-4670Y-2989D02*
X-5707Y-2989D01*
X-5707Y-2989D02*
X-5720Y-2976D01*
X-4071Y-2989D02*
X-4670Y-2989D01*
X-4070Y-2990D02*
X-4071Y-2989D01*
X-3330Y-2040D02*
X-3330Y-2400D01*
X-3990Y-1380D02*
X-3330Y-2040D01*
X-4660Y-1380D02*
X-3990Y-1380D01*
X-5010Y-1030D02*
X-4660Y-1380D01*
X-5010Y3580D02*
X-5010Y-1030D01*
X-5460Y4030D02*
X-5010Y3580D01*
X-3836Y-4564D02*
X-4670Y-4564D01*
X-3830Y-4570D02*
X-3836Y-4564D01*
X-4800Y-770D02*
X-4520Y-1050D01*
X-4800Y4050D02*
X-4800Y-770D01*
X-5090Y4340D02*
X-4800Y4050D01*
X-5750Y4340D02*
X-5090Y4340D01*
X-6530Y750D02*
X-6130Y350D01*
X-9410Y4130D02*
X-9270Y4270D01*
X-6530Y750D02*
X-11940Y750D01*
X-11940Y750D02*
X-12220Y1030D01*
X-9720Y2800D02*
X-9410Y3110D01*
X-12370Y2800D02*
X-9720Y2800D01*
X-12590Y2580D02*
X-12370Y2800D01*
X-9410Y3110D02*
X-9410Y4130D01*
X-5824Y-1556D02*
X-5824Y-1860D01*
X-6130Y-1250D02*
X-5824Y-1556D01*
X-6130Y350D02*
X-6130Y-1250D01*
X-5824Y-1860D02*
X-5620Y-1860D01*
X-5278Y-2202D02*
X-4670Y-2202D01*
X-5620Y-1860D02*
X-5278Y-2202D01*
X-10350Y-2150D02*
X-9746Y-2150D01*
X-9746Y-2150D02*
X-9696Y-2200D01*
X3151Y-8535D02*
X3465Y-8535D01*
X3465Y-8535D02*
X3630Y-8700D01*
X3151Y-7535D02*
X3425Y-7535D01*
X3425Y-7535D02*
X3610Y-7350D01*
X3151Y-6535D02*
X3465Y-6535D01*
X3465Y-6535D02*
X3570Y-6640D01*
X3151Y-5535D02*
X3405Y-5535D01*
X3405Y-5535D02*
X3570Y-5370D01*
X3151Y-4535D02*
X3545Y-4535D01*
X3545Y-4535D02*
X3560Y-4550D01*
X3151Y-3535D02*
X3585Y-3535D01*
X3585Y-3535D02*
X3630Y-3490D01*
X3151Y-2535D02*
X3615Y-2535D01*
X3615Y-2535D02*
X3680Y-2470D01*
X3151Y-535D02*
X3615Y-535D01*
X3615Y-535D02*
X3660Y-580D01*
X3151Y1465D02*
X3645Y1465D01*
X3645Y1465D02*
X3740Y1560D01*
X1305Y-8614D02*
X1554Y-8614D01*
X1710Y-9440D02*
X1470Y-9680D01*
X1710Y-8770D02*
X1710Y-9440D01*
X1554Y-8614D02*
X1710Y-8770D01*
X-3575Y-910D02*
X-3575Y-1315D01*
X-3060Y-1400D02*
X-2690Y-1770D01*
X-3490Y-1400D02*
X-3060Y-1400D01*
X-3575Y-1315D02*
X-3490Y-1400D01*
X-11000Y-4975D02*
X-11000Y-5050D01*
X-10790Y-5260D02*
X-10790Y-5490D01*
X-11000Y-5050D02*
X-10790Y-5260D01*
X-11000Y-4975D02*
X-11055Y-4975D01*
X-11300Y-5220D02*
X-11300Y-5500D01*
X-11055Y-4975D02*
X-11300Y-5220D01*
X-9450Y-3610D02*
X-9490Y-3610D01*
X-9338Y-3498D02*
X-9450Y-3610D01*
X-9085Y-3498D02*
X-9338Y-3498D01*
X-9840Y-4616D02*
X-10170Y-4946D01*
X-9840Y-3960D02*
X-9840Y-4616D01*
X-9490Y-3610D02*
X-9840Y-3960D01*
X-9066Y-530D02*
X-10360Y-530D01*
X-10360Y-530D02*
X-10580Y-750D01*
X-8558Y-1537D02*
X-9122Y-1537D01*
X-9133Y-1533D02*
X-9130Y-1530D01*
X-9133Y-1533D02*
X-9687Y-1533D01*
X-9122Y-1537D02*
X-9130Y-1530D01*
X-9696Y-2200D02*
X-9696Y-1542D01*
X-9696Y-1542D02*
X-9687Y-1533D01*
X-9500Y-4946D02*
X-9020Y-4946D01*
X-9020Y-4946D02*
X-9000Y-4966D01*
X-9229Y-8075D02*
X-9229Y-8339D01*
X-10035Y-8560D02*
X-11212Y-9737D01*
X-9450Y-8560D02*
X-10035Y-8560D01*
X-9229Y-8339D02*
X-9450Y-8560D01*
X-6116Y-4190D02*
X-6116Y-4506D01*
X-6116Y-4506D02*
X-6130Y-4520D01*
X-6929Y-6100D02*
X-6929Y-6571D01*
X-6929Y-6571D02*
X-6650Y-6850D01*
X-6929Y-6100D02*
X-6700Y-6100D01*
X-6236Y-5636D02*
X-5910Y-5636D01*
X-6700Y-6100D02*
X-6236Y-5636D01*
X-5420Y-5631D02*
X-5420Y-5930D01*
X-5420Y-5930D02*
X-5660Y-6170D01*
X-860Y-9546D02*
X-1154Y-9546D01*
X-1320Y-9380D02*
X-1320Y-8950D01*
X-1154Y-9546D02*
X-1320Y-9380D01*
X-1609Y-4981D02*
X-1630Y-4960D01*
X-1609Y-4981D02*
X-1609Y-5596D01*
X-4670Y-3383D02*
X-4053Y-3383D01*
X-4053Y-3383D02*
X-4050Y-3380D01*
X-5910Y-5636D02*
X-5425Y-5636D01*
X-5425Y-5636D02*
X-5420Y-5631D01*
X-6116Y-3730D02*
X-6116Y-4190D01*
X-4670Y-2792D02*
X-4272Y-2792D01*
X-4152Y-1808D02*
X-4010Y-1950D01*
X-4010Y-1950D02*
X-4010Y-2220D01*
X-4152Y-1808D02*
X-4670Y-1808D01*
X-4010Y-2530D02*
X-4010Y-2220D01*
X-4272Y-2792D02*
X-4010Y-2530D01*
X-6787Y-583D02*
X-7438Y-583D01*
X-7438Y-583D02*
X-7520Y-665D01*
X-7812Y1637D02*
X-7812Y1532D01*
X-6410Y1600D02*
X-6410Y1940D01*
X-6580Y1430D02*
X-6410Y1600D01*
X-7710Y1430D02*
X-6580Y1430D01*
X-7812Y1532D02*
X-7710Y1430D01*
X-6710Y3054D02*
X-7024Y3054D01*
X-7024Y3054D02*
X-7300Y3330D01*
X-3859Y9330D02*
X-3859Y9711D01*
X-3859Y9711D02*
X-3720Y9850D01*
X-3357Y6688D02*
X-2922Y6688D01*
X-2922Y6688D02*
X-2790Y6820D01*
X-4400Y7928D02*
X-4400Y7700D01*
X-4007Y7723D02*
X-4007Y7928D01*
X-4080Y7650D02*
X-4007Y7723D01*
X-4350Y7650D02*
X-4080Y7650D01*
X-4400Y7700D02*
X-4350Y7650D01*
X-5530Y6884D02*
X-5856Y6884D01*
X-5856Y6884D02*
X-5880Y6860D01*
X-5126Y5805D02*
X-5995Y5805D01*
X-6304Y5495D02*
X-6010Y5790D01*
X-6304Y5495D02*
X-6710Y5495D01*
X-5995Y5805D02*
X-6010Y5790D01*
X-13009Y1637D02*
X-13172Y1637D01*
X-13172Y1637D02*
X-13420Y1390D01*
X-8062Y-3887D02*
X-7900Y-4050D01*
X-3866Y-6660D02*
X-3866Y-7210D01*
X-3772Y-5596D02*
X-3772Y-5137D01*
X-3378Y-5127D02*
X-3378Y-5603D01*
X-3445Y-5060D02*
X-3378Y-5127D01*
X-3695Y-5060D02*
X-3445Y-5060D01*
X-3772Y-5137D02*
X-3695Y-5060D01*
X-5420Y-5631D02*
X-4853Y-5631D01*
X-4853Y-5631D02*
X-4820Y-5664D01*
X-3772Y-5596D02*
X-4081Y-5596D01*
X-4149Y-5664D02*
X-4820Y-5664D01*
X-4081Y-5596D02*
X-4149Y-5664D01*
X-3824Y240D02*
X-3824Y790D01*
X-3575Y-910D02*
X-3575Y-380D01*
X-3824Y-131D02*
X-3824Y240D01*
X-3575Y-380D02*
X-3824Y-131D01*
X-3851Y8680D02*
X-3851Y9322D01*
X-3851Y9322D02*
X-3859Y9330D01*
X-4007Y7928D02*
X-4007Y8253D01*
X-3851Y8409D02*
X-3851Y8680D01*
X-4007Y8253D02*
X-3851Y8409D01*
X-5126Y5805D02*
X-5126Y6109D01*
X-4853Y6382D02*
X-4853Y6688D01*
X-5126Y6109D02*
X-4853Y6382D01*
X-5530Y6884D02*
X-5309Y6884D01*
X-5113Y6688D02*
X-4853Y6688D01*
X-5309Y6884D02*
X-5113Y6688D01*
X-8014Y-3104D02*
X-8254Y-3104D01*
X-8254Y-3104D02*
X-8392Y-3242D01*
X-9325Y-7315D02*
X-9325Y-7650D01*
X-9229Y-7746D02*
X-9229Y-8075D01*
X-9325Y-7650D02*
X-9229Y-7746D01*
X-13550Y9196D02*
X-11279Y9196D01*
X-14979Y9125D02*
X-14425Y9125D01*
X-14354Y9196D02*
X-13550Y9196D01*
X-14425Y9125D02*
X-14354Y9196D01*
X3151Y-535D02*
X3151Y-1035D01*
X3151Y1465D02*
X3151Y965D01*
X-8254Y-3935D02*
X-8110Y-3935D01*
X-8014Y-3839D02*
X-8014Y-3695D01*
X-8110Y-3935D02*
X-8062Y-3887D01*
X-8062Y-3887D02*
X-8014Y-3839D01*
G54D48*
X-13692Y-6738D02*
X-13731Y-6777D01*
G54D47*
X-11279Y9196D02*
X-11212Y9262D01*
X2559Y465D02*
X1130Y465D01*
X435Y-2005D02*
X16Y-2005D01*
X905Y-1535D02*
X435Y-2005D01*
X905Y240D02*
X905Y-1535D01*
X1130Y465D02*
X905Y240D01*
X2559Y965D02*
X2559Y465D01*
X16Y-1808D02*
X382Y-1808D01*
X1355Y1465D02*
X2559Y1465D01*
X1105Y1215D02*
X1355Y1465D01*
X1105Y715D02*
X1105Y1215D01*
X705Y315D02*
X1105Y715D01*
X705Y-1485D02*
X705Y315D01*
X382Y-1808D02*
X705Y-1485D01*
X2559Y1465D02*
X2559Y1965D01*
X2559Y-1035D02*
X1635Y-1035D01*
X566Y-2399D02*
X1430Y-1535D01*
X566Y-2399D02*
X16Y-2399D01*
X1430Y-1240D02*
X1430Y-1535D01*
X1635Y-1035D02*
X1430Y-1240D01*
X2559Y-1035D02*
X2559Y-1535D01*
X1105Y-1610D02*
X1105Y-1205D01*
X2559Y-535D02*
X2559Y-35D01*
X16Y-2202D02*
X513Y-2202D01*
X1775Y-535D02*
X2559Y-535D01*
X1105Y-1205D02*
X1775Y-535D01*
X513Y-2202D02*
X1105Y-1610D01*
X2559Y-2035D02*
X2559Y-2535D01*
X16Y-2596D02*
X644Y-2596D01*
X1205Y-2035D02*
X2559Y-2035D01*
X644Y-2596D02*
X1205Y-2035D01*
X2559Y-3035D02*
X2559Y-3535D01*
X16Y-2989D02*
X2513Y-2989D01*
X2513Y-2989D02*
X2559Y-3035D01*
X2559Y-4035D02*
X2559Y-4535D01*
X16Y-3383D02*
X1453Y-3383D01*
X2105Y-4035D02*
X2559Y-4035D01*
X1453Y-3383D02*
X2105Y-4035D01*
X2559Y-5035D02*
X2559Y-5535D01*
X16Y-3777D02*
X467Y-3777D01*
X1505Y-5035D02*
X2559Y-5035D01*
X1305Y-4835D02*
X1505Y-5035D01*
X1305Y-4615D02*
X1305Y-4835D01*
X467Y-3777D02*
X1305Y-4615D01*
X2559Y-6035D02*
X2559Y-6535D01*
X16Y-4170D02*
X380Y-4170D01*
X1555Y-6035D02*
X2559Y-6035D01*
X1005Y-5485D02*
X1555Y-6035D01*
X1005Y-4795D02*
X1005Y-5485D01*
X380Y-4170D02*
X1005Y-4795D01*
X2559Y-7035D02*
X2559Y-7535D01*
X16Y-4564D02*
X509Y-4564D01*
X1305Y-7035D02*
X2559Y-7035D01*
X680Y-6410D02*
X1305Y-7035D01*
X680Y-4735D02*
X680Y-6410D01*
X509Y-4564D02*
X680Y-4735D01*
X-984Y-7210D02*
X-700Y-7210D01*
X102Y-7632D02*
X102Y-8004D01*
X0Y-7530D02*
X102Y-7632D01*
X-380Y-7530D02*
X0Y-7530D01*
X-700Y-7210D02*
X-380Y-7530D01*
X-984Y-7210D02*
X-984Y-7484D01*
X-1103Y-7603D02*
X-1103Y-7990D01*
X-984Y-7484D02*
X-1103Y-7603D01*
X-984Y-7210D02*
X-984Y-6769D01*
X-984Y-6769D02*
X-745Y-6530D01*
X-1019Y-5596D02*
X-1019Y-6041D01*
X-745Y-6165D02*
X-745Y-6530D01*
X-810Y-6100D02*
X-745Y-6165D01*
X-960Y-6100D02*
X-810Y-6100D01*
X-1019Y-6041D02*
X-960Y-6100D01*
X102Y-8004D02*
X102Y-8363D01*
X2130Y-9035D02*
X2559Y-9035D01*
X2005Y-9160D02*
X2130Y-9035D01*
X2005Y-9585D02*
X2005Y-9160D01*
X1380Y-10210D02*
X2005Y-9585D01*
X-320Y-10210D02*
X1380Y-10210D01*
X-495Y-10035D02*
X-320Y-10210D01*
X-495Y-8960D02*
X-495Y-10035D01*
X102Y-8363D02*
X-495Y-8960D01*
X-1215Y-5596D02*
X-1019Y-5596D01*
X-4597Y7928D02*
X-4597Y8587D01*
X-8120Y5820D02*
X-8980Y4960D01*
X-8980Y4960D02*
X-8980Y3050D01*
X-8980Y3050D02*
X-9100Y2930D01*
X-7080Y7320D02*
X-7270Y7320D01*
X-6860Y7540D02*
X-7080Y7320D01*
X-6860Y8250D02*
X-6860Y7540D01*
X-4830Y8820D02*
X-5550Y8820D01*
X-4597Y8587D02*
X-4830Y8820D01*
X-3907Y-3777D02*
X-4670Y-3777D01*
X-3650Y-3520D02*
X-3907Y-3777D01*
X-3650Y-1970D02*
X-3650Y-3520D01*
X-4050Y-1570D02*
X-3650Y-1970D01*
X-4780Y-1570D02*
X-4050Y-1570D01*
X-5200Y-1150D02*
X-4780Y-1570D01*
X-5200Y3280D02*
X-5200Y-1150D01*
X-5600Y3680D02*
X-5200Y3280D01*
X-4670Y-2005D02*
X-5105Y-2005D01*
X-5400Y3010D02*
X-5970Y3580D01*
X-5400Y-1710D02*
X-5400Y3010D01*
X-5105Y-2005D02*
X-5400Y-1710D01*
X-15600Y8570D02*
X-15600Y9096D01*
X-15600Y9096D02*
X-15571Y9125D01*
X-14500Y8570D02*
X-13584Y8570D01*
X-13584Y8570D02*
X-13550Y8604D01*
X-4670Y-4367D02*
X-4207Y-4367D01*
X-4207Y-4367D02*
X-3970Y-4130D01*
X-5910Y-5044D02*
X-5910Y-4680D01*
X-5090Y-4170D02*
X-4670Y-4170D01*
X-5180Y-4260D02*
X-5090Y-4170D01*
X-5180Y-4440D02*
X-5180Y-4260D01*
X-5270Y-4530D02*
X-5180Y-4440D01*
X-5760Y-4530D02*
X-5270Y-4530D01*
X-5910Y-4680D02*
X-5760Y-4530D01*
X-4670Y-3973D02*
X-5113Y-3973D01*
X-5374Y-4040D02*
X-5524Y-4190D01*
X-5180Y-4040D02*
X-5374Y-4040D01*
X-5113Y-3973D02*
X-5180Y-4040D01*
X-4670Y-3580D02*
X-5284Y-3580D01*
X-5284Y-3580D02*
X-5434Y-3730D01*
X-8234Y-905D02*
X-8234Y-1096D01*
X-7966Y-1243D02*
X-7966Y-1537D01*
X-8020Y-1190D02*
X-7966Y-1243D01*
X-8140Y-1190D02*
X-8020Y-1190D01*
X-8234Y-1096D02*
X-8140Y-1190D01*
X-8550Y-5125D02*
X-7750Y-5125D01*
X-15600Y-8480D02*
X-15600Y-7675D01*
X-8750Y-5325D02*
X-8550Y-5125D01*
X-10250Y-5325D02*
X-8750Y-5325D01*
X-10300Y-5375D02*
X-10250Y-5325D01*
X-10300Y-5850D02*
X-10300Y-5375D01*
X-10375Y-5925D02*
X-10300Y-5850D01*
X-12500Y-5925D02*
X-10375Y-5925D01*
X-13025Y-6450D02*
X-12500Y-5925D01*
X-13025Y-7275D02*
X-13025Y-6450D01*
X-13075Y-7325D02*
X-13025Y-7275D01*
X-15250Y-7325D02*
X-13075Y-7325D01*
X-15600Y-7675D02*
X-15250Y-7325D01*
X-7425Y-4800D02*
X-7425Y-4571D01*
X-7750Y-5125D02*
X-7425Y-4800D01*
X-8425Y-5325D02*
X-7275Y-5325D01*
X-14500Y-7725D02*
X-14325Y-7550D01*
X-14325Y-7550D02*
X-13025Y-7550D01*
X-13025Y-7550D02*
X-12825Y-7350D01*
X-12825Y-7350D02*
X-12825Y-6550D01*
X-12825Y-6550D02*
X-12400Y-6125D01*
X-12400Y-6125D02*
X-10300Y-6125D01*
X-10300Y-6125D02*
X-10100Y-5925D01*
X-10100Y-5925D02*
X-10100Y-5575D01*
X-10100Y-5575D02*
X-10050Y-5525D01*
X-10050Y-5525D02*
X-8625Y-5525D01*
X-8625Y-5525D02*
X-8425Y-5325D01*
X-14500Y-8480D02*
X-14500Y-7725D01*
X-6875Y-4925D02*
X-6875Y-4571D01*
X-7275Y-5325D02*
X-6875Y-4925D01*
X-8950Y-6284D02*
X-8950Y-6519D01*
X-7880Y-6100D02*
X-7521Y-6100D01*
X-8020Y-6240D02*
X-7880Y-6100D01*
X-8020Y-6440D02*
X-8020Y-6240D01*
X-8210Y-6630D02*
X-8020Y-6440D01*
X-8840Y-6630D02*
X-8210Y-6630D01*
X-8950Y-6519D02*
X-8840Y-6630D01*
X-7521Y-6100D02*
X-7521Y-6875D01*
X-7521Y-6875D02*
X-7530Y-6884D01*
X-8240Y-7576D02*
X-7966Y-7576D01*
X-7866Y-7476D02*
X-7530Y-7476D01*
X-7966Y-7576D02*
X-7866Y-7476D01*
X-8950Y-7315D02*
X-8734Y-7315D01*
X-8594Y-7576D02*
X-8240Y-7576D01*
X-8640Y-7530D02*
X-8594Y-7576D01*
X-8640Y-7410D02*
X-8640Y-7530D01*
X-8734Y-7315D02*
X-8640Y-7410D01*
X-10325Y-7496D02*
X-10325Y-7925D01*
X-12495Y-9070D02*
X-13425Y-9070D01*
X-11725Y-8300D02*
X-12495Y-9070D01*
X-10700Y-8300D02*
X-11725Y-8300D01*
X-10325Y-7925D02*
X-10700Y-8300D01*
X2559Y-8535D02*
X2559Y-8035D01*
X-154Y-9816D02*
X-154Y-9419D01*
X2155Y-8535D02*
X2559Y-8535D01*
X2030Y-8660D02*
X2155Y-8535D01*
X-154Y-9419D02*
X-20Y-9285D01*
X-9660Y4970D02*
X-9660Y4290D01*
X-11120Y2050D02*
X-11330Y2260D01*
X-11120Y2050D02*
X-11120Y1637D01*
X-9660Y4280D02*
X-9660Y4290D01*
X-10110Y3830D02*
X-9660Y4280D01*
X-3530Y4340D02*
X-3530Y4794D01*
X-3530Y4794D02*
X-3524Y4800D01*
X-3524Y4800D02*
X-3524Y5654D01*
X-3524Y5654D02*
X-3810Y5940D01*
X-3810Y5940D02*
X-3810Y6432D01*
X-5870Y970D02*
X-5910Y930D01*
X-5910Y930D02*
X-11660Y930D01*
X-11660Y930D02*
X-11830Y1100D01*
X-12130Y2180D02*
X-12210Y2260D01*
X-12210Y2260D02*
X-12740Y2260D01*
X-12740Y2260D02*
X-12910Y2430D01*
X-13060Y2980D02*
X-12910Y2830D01*
X-13060Y3500D02*
X-13060Y2980D01*
X-12910Y2830D02*
X-12910Y2430D01*
X-4670Y-3186D02*
X-5186Y-3186D01*
X-6000Y-3350D02*
X-6180Y-3170D01*
X-5350Y-3350D02*
X-6000Y-3350D01*
X-5186Y-3186D02*
X-5350Y-3350D01*
X-2996Y4800D02*
X-2996Y4314D01*
X-3530Y3780D02*
X-4510Y3780D01*
X-2996Y4314D02*
X-3530Y3780D01*
X-2996Y4800D02*
X-2996Y5416D01*
X-2996Y5416D02*
X-3613Y6033D01*
X-3613Y6432D02*
X-3613Y6033D01*
X-3613Y6033D02*
X-3613Y6023D01*
X358Y-8463D02*
X358Y-8004D01*
X505Y-8610D02*
X358Y-8463D01*
X5819Y-5535D02*
X5819Y-6535D01*
X358Y-8004D02*
X614Y-8004D01*
X-9010Y7610D02*
X-8757Y7357D01*
X-8757Y6912D02*
X-8757Y7357D01*
X-9230Y6559D02*
X-9230Y6912D01*
X-9360Y6430D02*
X-9230Y6559D01*
X-10360Y6430D02*
X-9360Y6430D01*
X-10820Y5970D02*
X-10360Y6430D01*
X-10820Y4550D02*
X-10820Y5970D01*
X-11040Y4330D02*
X-10820Y4550D01*
X-8285Y6534D02*
X-8285Y6912D01*
X-8560Y6260D02*
X-8285Y6534D01*
X-10300Y6260D02*
X-8560Y6260D01*
X-10630Y5930D02*
X-10300Y6260D01*
X-10630Y4260D02*
X-10630Y5930D01*
X-10750Y4140D02*
X-10630Y4260D01*
X-7812Y6497D02*
X-7812Y6912D01*
X-8210Y6100D02*
X-7812Y6497D01*
X-10210Y6100D02*
X-8210Y6100D01*
X-10460Y5850D02*
X-10210Y6100D01*
X-10460Y3980D02*
X-10460Y5850D01*
X-10480Y3960D02*
X-10460Y3980D01*
G54D10*
G36*
X-10900Y-700D02*
X-11069Y-700D01*
X-11069Y14D01*
X-11107Y106D01*
X-11178Y176D01*
X-11270Y214D01*
X-11369Y215D01*
X-11562Y215D01*
X-11625Y152D01*
X-11625Y-300D01*
X-11132Y-300D01*
X-11070Y-237D01*
X-11069Y14D01*
X-11069Y-700D01*
X-11069Y-700D01*
X-11070Y-462D01*
X-11132Y-400D01*
X-11625Y-400D01*
X-11625Y-407D01*
X-11725Y-407D01*
X-11725Y-400D01*
X-11725Y-300D01*
X-11725Y152D01*
X-11787Y215D01*
X-11980Y215D01*
X-12079Y214D01*
X-12171Y176D01*
X-12242Y106D01*
X-12280Y14D01*
X-12280Y-237D01*
X-12217Y-300D01*
X-11725Y-300D01*
X-11725Y-400D01*
X-12217Y-400D01*
X-12280Y-462D01*
X-12280Y-525D01*
X-12536Y-525D01*
X-12536Y-60D01*
X-12574Y31D01*
X-12644Y101D01*
X-12736Y139D01*
X-12836Y140D01*
X-13362Y140D01*
X-13425Y77D01*
X-13425Y-256D01*
X-12599Y-256D01*
X-12536Y-193D01*
X-12536Y-60D01*
X-12536Y-525D01*
X-12536Y-525D01*
X-12536Y-418D01*
X-12599Y-356D01*
X-13425Y-356D01*
X-13425Y-363D01*
X-13525Y-363D01*
X-13525Y-356D01*
X-13532Y-356D01*
X-13532Y-256D01*
X-13525Y-256D01*
X-13525Y77D01*
X-13587Y140D01*
X-14113Y140D01*
X-14200Y139D01*
X-14200Y900D01*
X-12425Y900D01*
X-12423Y894D01*
X-12356Y826D01*
X-12267Y790D01*
X-12206Y789D01*
X-12053Y636D01*
X-12053Y636D01*
X-12001Y602D01*
X-11940Y590D01*
X-10900Y590D01*
X-10900Y-700D01*
X-10900Y-700D01*
G37*
G54D49*
X-10900Y-700D02*
X-11069Y-700D01*
X-11069Y14D01*
X-11107Y106D01*
X-11178Y176D01*
X-11270Y214D01*
X-11369Y215D01*
X-11562Y215D01*
X-11625Y152D01*
X-11625Y-300D01*
X-11132Y-300D01*
X-11070Y-237D01*
X-11069Y14D01*
X-11069Y-700D01*
X-11069Y-700D01*
X-11070Y-462D01*
X-11132Y-400D01*
X-11625Y-400D01*
X-11625Y-407D01*
X-11725Y-407D01*
X-11725Y-400D01*
X-11725Y-300D01*
X-11725Y152D01*
X-11787Y215D01*
X-11980Y215D01*
X-12079Y214D01*
X-12171Y176D01*
X-12242Y106D01*
X-12280Y14D01*
X-12280Y-237D01*
X-12217Y-300D01*
X-11725Y-300D01*
X-11725Y-400D01*
X-12217Y-400D01*
X-12280Y-462D01*
X-12280Y-525D01*
X-12536Y-525D01*
X-12536Y-60D01*
X-12574Y31D01*
X-12644Y101D01*
X-12736Y139D01*
X-12836Y140D01*
X-13362Y140D01*
X-13425Y77D01*
X-13425Y-256D01*
X-12599Y-256D01*
X-12536Y-193D01*
X-12536Y-60D01*
X-12536Y-525D01*
X-12536Y-525D01*
X-12536Y-418D01*
X-12599Y-356D01*
X-13425Y-356D01*
X-13425Y-363D01*
X-13525Y-363D01*
X-13525Y-356D01*
X-13532Y-356D01*
X-13532Y-256D01*
X-13525Y-256D01*
X-13525Y77D01*
X-13587Y140D01*
X-14113Y140D01*
X-14200Y139D01*
X-14200Y900D01*
X-12425Y900D01*
X-12423Y894D01*
X-12356Y826D01*
X-12267Y790D01*
X-12206Y789D01*
X-12053Y636D01*
X-12053Y636D01*
X-12001Y602D01*
X-11940Y590D01*
X-10900Y590D01*
X-10900Y-700D01*
G54D10*
G36*
X-8250Y-4929D02*
X-8270Y-4950D01*
X-8654Y-4950D01*
X-8675Y-4929D01*
X-8675Y-4279D01*
X-8675Y-4279D01*
X-8675Y-4229D01*
X-8679Y-4224D01*
X-8672Y-4217D01*
X-8672Y-4210D01*
X-8640Y-4241D01*
X-8571Y-4270D01*
X-8562Y-4279D01*
X-8551Y-4279D01*
X-8550Y-4279D01*
X-8548Y-4279D01*
X-8537Y-4279D01*
X-8528Y-4270D01*
X-8459Y-4241D01*
X-8427Y-4210D01*
X-8427Y-4217D01*
X-8365Y-4279D01*
X-8354Y-4279D01*
X-8327Y-4268D01*
X-8250Y-4345D01*
X-8250Y-4929D01*
X-8250Y-4929D01*
G37*
G54D49*
X-8250Y-4929D02*
X-8270Y-4950D01*
X-8654Y-4950D01*
X-8675Y-4929D01*
X-8675Y-4279D01*
X-8675Y-4279D01*
X-8675Y-4229D01*
X-8679Y-4224D01*
X-8672Y-4217D01*
X-8672Y-4210D01*
X-8640Y-4241D01*
X-8571Y-4270D01*
X-8562Y-4279D01*
X-8551Y-4279D01*
X-8550Y-4279D01*
X-8548Y-4279D01*
X-8537Y-4279D01*
X-8528Y-4270D01*
X-8459Y-4241D01*
X-8427Y-4210D01*
X-8427Y-4217D01*
X-8365Y-4279D01*
X-8354Y-4279D01*
X-8327Y-4268D01*
X-8250Y-4345D01*
X-8250Y-4929D01*
G54D10*
G36*
X-9027Y-3128D02*
X-9038Y-3128D01*
X-9038Y-3134D01*
X-9132Y-3134D01*
X-9132Y-3128D01*
X-9367Y-3128D01*
X-9380Y-3141D01*
X-9761Y-3141D01*
X-9822Y-3153D01*
X-9874Y-3188D01*
X-10283Y-3596D01*
X-10317Y-3648D01*
X-10330Y-3710D01*
X-10330Y-4056D01*
X-10390Y-4056D01*
X-10394Y-4058D01*
X-10394Y-3510D01*
X-10432Y-3418D01*
X-10503Y-3348D01*
X-10595Y-3310D01*
X-10694Y-3309D01*
X-10887Y-3310D01*
X-10950Y-3372D01*
X-10950Y-3825D01*
X-10457Y-3825D01*
X-10395Y-3762D01*
X-10394Y-3510D01*
X-10394Y-4058D01*
X-10394Y-4058D01*
X-10395Y-3987D01*
X-10457Y-3925D01*
X-10950Y-3925D01*
X-10950Y-4377D01*
X-10887Y-4440D01*
X-10694Y-4440D01*
X-10595Y-4439D01*
X-10503Y-4401D01*
X-10487Y-4385D01*
X-10487Y-4450D01*
X-11050Y-4450D01*
X-11050Y-4377D01*
X-11050Y-3925D01*
X-11050Y-3825D01*
X-11050Y-3372D01*
X-11112Y-3310D01*
X-11305Y-3309D01*
X-11404Y-3310D01*
X-11496Y-3348D01*
X-11567Y-3418D01*
X-11605Y-3510D01*
X-11605Y-3762D01*
X-11542Y-3825D01*
X-11050Y-3825D01*
X-11050Y-3925D01*
X-11542Y-3925D01*
X-11605Y-3987D01*
X-11605Y-4239D01*
X-11567Y-4331D01*
X-11496Y-4401D01*
X-11404Y-4439D01*
X-11305Y-4440D01*
X-11112Y-4440D01*
X-11050Y-4377D01*
X-11050Y-4450D01*
X-11647Y-4450D01*
X-11640Y-4432D01*
X-11640Y-3505D01*
X-11678Y-3414D01*
X-11748Y-3343D01*
X-11840Y-3305D01*
X-11940Y-3305D01*
X-12112Y-3305D01*
X-12175Y-3368D01*
X-12175Y-3919D01*
X-11703Y-3919D01*
X-11640Y-3856D01*
X-11640Y-3505D01*
X-11640Y-4432D01*
X-11640Y-4081D01*
X-11703Y-4019D01*
X-12175Y-4019D01*
X-12175Y-4026D01*
X-12275Y-4026D01*
X-12275Y-4019D01*
X-12275Y-3919D01*
X-12275Y-3368D01*
X-12337Y-3305D01*
X-12509Y-3305D01*
X-12609Y-3305D01*
X-12701Y-3343D01*
X-12771Y-3414D01*
X-12809Y-3505D01*
X-12809Y-3856D01*
X-12747Y-3919D01*
X-12275Y-3919D01*
X-12275Y-4019D01*
X-12747Y-4019D01*
X-12809Y-4081D01*
X-12809Y-4432D01*
X-12802Y-4450D01*
X-12963Y-4450D01*
X-12964Y-4450D01*
X-12964Y-4450D01*
X-12964Y-4233D01*
X-12964Y-4196D01*
X-13002Y-4104D01*
X-13072Y-4034D01*
X-13164Y-3996D01*
X-13554Y-3996D01*
X-13617Y-4059D01*
X-13617Y-4295D01*
X-13026Y-4295D01*
X-12964Y-4233D01*
X-12964Y-4450D01*
X-12970Y-4450D01*
X-13026Y-4394D01*
X-13617Y-4394D01*
X-13617Y-4402D01*
X-13717Y-4402D01*
X-13717Y-4394D01*
X-13724Y-4394D01*
X-13724Y-4295D01*
X-13717Y-4295D01*
X-13717Y-4059D01*
X-13779Y-3996D01*
X-14150Y-3996D01*
X-14150Y-3750D01*
X-13075Y-3750D01*
X-13075Y-2800D01*
X-9525Y-2800D01*
X-9520Y-2800D01*
X-9395Y-2925D01*
X-9429Y-3007D01*
X-9429Y-3018D01*
X-9367Y-3081D01*
X-9132Y-3081D01*
X-9132Y-3057D01*
X-9038Y-3057D01*
X-9038Y-3081D01*
X-9027Y-3081D01*
X-9027Y-3128D01*
X-9027Y-3128D01*
G37*
G54D49*
X-9027Y-3128D02*
X-9038Y-3128D01*
X-9038Y-3134D01*
X-9132Y-3134D01*
X-9132Y-3128D01*
X-9367Y-3128D01*
X-9380Y-3141D01*
X-9761Y-3141D01*
X-9822Y-3153D01*
X-9874Y-3188D01*
X-10283Y-3596D01*
X-10317Y-3648D01*
X-10330Y-3710D01*
X-10330Y-4056D01*
X-10390Y-4056D01*
X-10394Y-4058D01*
X-10394Y-3510D01*
X-10432Y-3418D01*
X-10503Y-3348D01*
X-10595Y-3310D01*
X-10694Y-3309D01*
X-10887Y-3310D01*
X-10950Y-3372D01*
X-10950Y-3825D01*
X-10457Y-3825D01*
X-10395Y-3762D01*
X-10394Y-3510D01*
X-10394Y-4058D01*
X-10394Y-4058D01*
X-10395Y-3987D01*
X-10457Y-3925D01*
X-10950Y-3925D01*
X-10950Y-4377D01*
X-10887Y-4440D01*
X-10694Y-4440D01*
X-10595Y-4439D01*
X-10503Y-4401D01*
X-10487Y-4385D01*
X-10487Y-4450D01*
X-11050Y-4450D01*
X-11050Y-4377D01*
X-11050Y-3925D01*
X-11050Y-3825D01*
X-11050Y-3372D01*
X-11112Y-3310D01*
X-11305Y-3309D01*
X-11404Y-3310D01*
X-11496Y-3348D01*
X-11567Y-3418D01*
X-11605Y-3510D01*
X-11605Y-3762D01*
X-11542Y-3825D01*
X-11050Y-3825D01*
X-11050Y-3925D01*
X-11542Y-3925D01*
X-11605Y-3987D01*
X-11605Y-4239D01*
X-11567Y-4331D01*
X-11496Y-4401D01*
X-11404Y-4439D01*
X-11305Y-4440D01*
X-11112Y-4440D01*
X-11050Y-4377D01*
X-11050Y-4450D01*
X-11647Y-4450D01*
X-11640Y-4432D01*
X-11640Y-3505D01*
X-11678Y-3414D01*
X-11748Y-3343D01*
X-11840Y-3305D01*
X-11940Y-3305D01*
X-12112Y-3305D01*
X-12175Y-3368D01*
X-12175Y-3919D01*
X-11703Y-3919D01*
X-11640Y-3856D01*
X-11640Y-3505D01*
X-11640Y-4432D01*
X-11640Y-4081D01*
X-11703Y-4019D01*
X-12175Y-4019D01*
X-12175Y-4026D01*
X-12275Y-4026D01*
X-12275Y-4019D01*
X-12275Y-3919D01*
X-12275Y-3368D01*
X-12337Y-3305D01*
X-12509Y-3305D01*
X-12609Y-3305D01*
X-12701Y-3343D01*
X-12771Y-3414D01*
X-12809Y-3505D01*
X-12809Y-3856D01*
X-12747Y-3919D01*
X-12275Y-3919D01*
X-12275Y-4019D01*
X-12747Y-4019D01*
X-12809Y-4081D01*
X-12809Y-4432D01*
X-12802Y-4450D01*
X-12963Y-4450D01*
X-12964Y-4450D01*
X-12964Y-4450D01*
X-12964Y-4233D01*
X-12964Y-4196D01*
X-13002Y-4104D01*
X-13072Y-4034D01*
X-13164Y-3996D01*
X-13554Y-3996D01*
X-13617Y-4059D01*
X-13617Y-4295D01*
X-13026Y-4295D01*
X-12964Y-4233D01*
X-12964Y-4450D01*
X-12970Y-4450D01*
X-13026Y-4394D01*
X-13617Y-4394D01*
X-13617Y-4402D01*
X-13717Y-4402D01*
X-13717Y-4394D01*
X-13724Y-4394D01*
X-13724Y-4295D01*
X-13717Y-4295D01*
X-13717Y-4059D01*
X-13779Y-3996D01*
X-14150Y-3996D01*
X-14150Y-3750D01*
X-13075Y-3750D01*
X-13075Y-2800D01*
X-9525Y-2800D01*
X-9520Y-2800D01*
X-9395Y-2925D01*
X-9429Y-3007D01*
X-9429Y-3018D01*
X-9367Y-3081D01*
X-9132Y-3081D01*
X-9132Y-3057D01*
X-9038Y-3057D01*
X-9038Y-3081D01*
X-9027Y-3081D01*
X-9027Y-3128D01*
G54D10*
G36*
X-10690Y-5765D02*
X-11050Y-5765D01*
X-11050Y-5477D01*
X-11050Y-5025D01*
X-11542Y-5025D01*
X-11605Y-5087D01*
X-11605Y-5339D01*
X-11567Y-5431D01*
X-11496Y-5501D01*
X-11404Y-5539D01*
X-11305Y-5540D01*
X-11112Y-5540D01*
X-11050Y-5477D01*
X-11050Y-5765D01*
X-11640Y-5765D01*
X-11640Y-5443D01*
X-11703Y-5381D01*
X-12175Y-5381D01*
X-12175Y-5388D01*
X-12275Y-5388D01*
X-12275Y-5381D01*
X-12747Y-5381D01*
X-12809Y-5443D01*
X-12809Y-5794D01*
X-12771Y-5885D01*
X-12729Y-5928D01*
X-12964Y-6162D01*
X-12964Y-5716D01*
X-13026Y-5654D01*
X-13617Y-5654D01*
X-13617Y-5891D01*
X-13554Y-5953D01*
X-13164Y-5953D01*
X-13072Y-5915D01*
X-13002Y-5845D01*
X-12964Y-5753D01*
X-12964Y-5716D01*
X-12964Y-6162D01*
X-12999Y-6198D01*
X-13002Y-6191D01*
X-13072Y-6121D01*
X-13164Y-6083D01*
X-13593Y-6083D01*
X-13656Y-6146D01*
X-13656Y-6677D01*
X-13648Y-6677D01*
X-13648Y-6777D01*
X-13656Y-6777D01*
X-13656Y-6784D01*
X-13717Y-6784D01*
X-13717Y-5891D01*
X-13717Y-5654D01*
X-14307Y-5654D01*
X-14369Y-5716D01*
X-14369Y-5753D01*
X-14331Y-5845D01*
X-14261Y-5915D01*
X-14169Y-5953D01*
X-13779Y-5953D01*
X-13717Y-5891D01*
X-13717Y-6784D01*
X-13756Y-6784D01*
X-13756Y-6777D01*
X-13756Y-6677D01*
X-13756Y-6146D01*
X-13818Y-6083D01*
X-14247Y-6083D01*
X-14339Y-6121D01*
X-14392Y-6174D01*
X-14392Y-5782D01*
X-14438Y-5672D01*
X-14521Y-5589D01*
X-14630Y-5544D01*
X-14748Y-5543D01*
X-14858Y-5589D01*
X-14941Y-5672D01*
X-14986Y-5781D01*
X-14987Y-5899D01*
X-14941Y-6009D01*
X-14858Y-6092D01*
X-14749Y-6137D01*
X-14631Y-6138D01*
X-14521Y-6092D01*
X-14438Y-6009D01*
X-14393Y-5900D01*
X-14392Y-5782D01*
X-14392Y-6174D01*
X-14409Y-6191D01*
X-14447Y-6283D01*
X-14448Y-6383D01*
X-14448Y-6614D01*
X-14385Y-6677D01*
X-13756Y-6677D01*
X-13756Y-6777D01*
X-14385Y-6777D01*
X-14448Y-6839D01*
X-14448Y-7070D01*
X-14447Y-7165D01*
X-15129Y-7165D01*
X-15128Y-7070D01*
X-15128Y-6383D01*
X-15129Y-6283D01*
X-15167Y-6191D01*
X-15237Y-6121D01*
X-15329Y-6083D01*
X-15758Y-6083D01*
X-15821Y-6146D01*
X-15821Y-6677D01*
X-15191Y-6677D01*
X-15129Y-6614D01*
X-15128Y-6383D01*
X-15128Y-7070D01*
X-15129Y-6839D01*
X-15191Y-6777D01*
X-15821Y-6777D01*
X-15821Y-7308D01*
X-15758Y-7370D01*
X-15521Y-7370D01*
X-15713Y-7561D01*
X-15747Y-7613D01*
X-15760Y-7675D01*
X-15760Y-8202D01*
X-15780Y-8202D01*
X-15824Y-8221D01*
X-15858Y-8254D01*
X-15876Y-8299D01*
X-15877Y-8346D01*
X-15877Y-8660D01*
X-15858Y-8704D01*
X-15825Y-8738D01*
X-15780Y-8756D01*
X-15733Y-8757D01*
X-15419Y-8757D01*
X-15375Y-8738D01*
X-15341Y-8705D01*
X-15323Y-8660D01*
X-15322Y-8613D01*
X-15322Y-8299D01*
X-15341Y-8255D01*
X-15374Y-8221D01*
X-15419Y-8203D01*
X-15440Y-8203D01*
X-15440Y-7741D01*
X-15183Y-7485D01*
X-14486Y-7485D01*
X-14613Y-7611D01*
X-14647Y-7663D01*
X-14660Y-7725D01*
X-14660Y-8202D01*
X-14680Y-8202D01*
X-14724Y-8221D01*
X-14758Y-8254D01*
X-14776Y-8299D01*
X-14777Y-8346D01*
X-14777Y-8660D01*
X-14758Y-8704D01*
X-14725Y-8738D01*
X-14680Y-8756D01*
X-14633Y-8757D01*
X-14319Y-8757D01*
X-14275Y-8738D01*
X-14241Y-8705D01*
X-14223Y-8660D01*
X-14222Y-8613D01*
X-14222Y-8299D01*
X-14241Y-8255D01*
X-14274Y-8221D01*
X-14319Y-8203D01*
X-14340Y-8203D01*
X-14340Y-7791D01*
X-14258Y-7710D01*
X-13025Y-7710D01*
X-12963Y-7697D01*
X-12963Y-7697D01*
X-12911Y-7663D01*
X-12711Y-7463D01*
X-12711Y-7463D01*
X-12700Y-7445D01*
X-12700Y-8910D01*
X-13147Y-8910D01*
X-13147Y-8889D01*
X-13147Y-8613D01*
X-13147Y-8299D01*
X-13166Y-8255D01*
X-13199Y-8221D01*
X-13244Y-8203D01*
X-13291Y-8202D01*
X-13605Y-8202D01*
X-13649Y-8221D01*
X-13683Y-8254D01*
X-13701Y-8299D01*
X-13701Y-8320D01*
X-13755Y-8320D01*
X-13816Y-8332D01*
X-13868Y-8366D01*
X-14013Y-8511D01*
X-14047Y-8563D01*
X-14060Y-8625D01*
X-14060Y-9400D01*
X-14047Y-9461D01*
X-14013Y-9513D01*
X-13839Y-9686D01*
X-13840Y-9747D01*
X-13803Y-9835D01*
X-13736Y-9903D01*
X-13647Y-9939D01*
X-13552Y-9940D01*
X-13464Y-9903D01*
X-13396Y-9836D01*
X-13360Y-9747D01*
X-13359Y-9652D01*
X-13396Y-9564D01*
X-13463Y-9496D01*
X-13552Y-9460D01*
X-13613Y-9459D01*
X-13740Y-9333D01*
X-13740Y-8691D01*
X-13702Y-8653D01*
X-13702Y-8660D01*
X-13683Y-8704D01*
X-13650Y-8738D01*
X-13605Y-8756D01*
X-13558Y-8757D01*
X-13244Y-8757D01*
X-13200Y-8738D01*
X-13166Y-8705D01*
X-13148Y-8660D01*
X-13147Y-8613D01*
X-13147Y-8889D01*
X-13166Y-8845D01*
X-13199Y-8811D01*
X-13244Y-8793D01*
X-13291Y-8792D01*
X-13605Y-8792D01*
X-13649Y-8811D01*
X-13683Y-8844D01*
X-13701Y-8889D01*
X-13702Y-8936D01*
X-13702Y-9250D01*
X-13683Y-9294D01*
X-13650Y-9328D01*
X-13605Y-9346D01*
X-13558Y-9347D01*
X-13244Y-9347D01*
X-13200Y-9328D01*
X-13166Y-9295D01*
X-13148Y-9250D01*
X-13148Y-9230D01*
X-12700Y-9230D01*
X-12700Y-10792D01*
X-14159Y-10792D01*
X-14159Y-9477D01*
X-14196Y-9389D01*
X-14263Y-9321D01*
X-14266Y-9320D01*
X-14241Y-9295D01*
X-14223Y-9250D01*
X-14222Y-9203D01*
X-14222Y-8889D01*
X-14241Y-8845D01*
X-14274Y-8811D01*
X-14319Y-8793D01*
X-14366Y-8792D01*
X-14680Y-8792D01*
X-14724Y-8811D01*
X-14758Y-8844D01*
X-14776Y-8889D01*
X-14777Y-8936D01*
X-14777Y-9250D01*
X-14758Y-9294D01*
X-14725Y-9328D01*
X-14680Y-9346D01*
X-14660Y-9346D01*
X-14660Y-9425D01*
X-14647Y-9486D01*
X-14639Y-9497D01*
X-14640Y-9572D01*
X-14603Y-9660D01*
X-14536Y-9728D01*
X-14447Y-9764D01*
X-14352Y-9765D01*
X-14264Y-9728D01*
X-14196Y-9661D01*
X-14160Y-9572D01*
X-14159Y-9477D01*
X-14159Y-10792D01*
X-14438Y-10792D01*
X-15184Y-10644D01*
X-15184Y-9502D01*
X-15221Y-9414D01*
X-15288Y-9346D01*
X-15362Y-9316D01*
X-15341Y-9295D01*
X-15323Y-9250D01*
X-15322Y-9203D01*
X-15322Y-8889D01*
X-15341Y-8845D01*
X-15374Y-8811D01*
X-15419Y-8793D01*
X-15466Y-8792D01*
X-15780Y-8792D01*
X-15824Y-8811D01*
X-15858Y-8844D01*
X-15876Y-8889D01*
X-15877Y-8936D01*
X-15877Y-9250D01*
X-15858Y-9294D01*
X-15825Y-9328D01*
X-15780Y-9346D01*
X-15760Y-9346D01*
X-15760Y-9375D01*
X-15747Y-9436D01*
X-15713Y-9488D01*
X-15664Y-9536D01*
X-15665Y-9597D01*
X-15628Y-9685D01*
X-15561Y-9753D01*
X-15472Y-9789D01*
X-15377Y-9790D01*
X-15289Y-9753D01*
X-15221Y-9686D01*
X-15185Y-9597D01*
X-15184Y-9502D01*
X-15184Y-10644D01*
X-15345Y-10613D01*
X-15921Y-10227D01*
X-15921Y-7308D01*
X-15921Y-6777D01*
X-15921Y-6677D01*
X-15921Y-6146D01*
X-15983Y-6083D01*
X-16412Y-6083D01*
X-16504Y-6121D01*
X-16574Y-6191D01*
X-16612Y-6283D01*
X-16613Y-6383D01*
X-16613Y-6614D01*
X-16550Y-6677D01*
X-15921Y-6677D01*
X-15921Y-6777D01*
X-16550Y-6777D01*
X-16613Y-6839D01*
X-16613Y-7070D01*
X-16612Y-7170D01*
X-16574Y-7262D01*
X-16504Y-7332D01*
X-16412Y-7370D01*
X-15983Y-7370D01*
X-15921Y-7308D01*
X-15921Y-10227D01*
X-16087Y-10115D01*
X-16589Y-9366D01*
X-16765Y-8480D01*
X-16765Y-8480D01*
X-16765Y-4720D01*
X-14240Y-4720D01*
X-14240Y-4782D01*
X-14225Y-4817D01*
X-14239Y-4852D01*
X-14240Y-4900D01*
X-14240Y-5097D01*
X-14225Y-5132D01*
X-14239Y-5167D01*
X-14240Y-5215D01*
X-14240Y-5285D01*
X-14261Y-5294D01*
X-14331Y-5364D01*
X-14369Y-5456D01*
X-14369Y-5493D01*
X-14307Y-5555D01*
X-13717Y-5555D01*
X-13717Y-5547D01*
X-13617Y-5547D01*
X-13617Y-5555D01*
X-13026Y-5555D01*
X-12964Y-5493D01*
X-12964Y-5456D01*
X-13002Y-5364D01*
X-13072Y-5294D01*
X-13093Y-5285D01*
X-13093Y-5167D01*
X-13108Y-5132D01*
X-13094Y-5097D01*
X-13093Y-5049D01*
X-13093Y-4852D01*
X-13108Y-4817D01*
X-13094Y-4782D01*
X-13093Y-4734D01*
X-13093Y-4720D01*
X-12715Y-4720D01*
X-12771Y-4776D01*
X-12809Y-4867D01*
X-12809Y-5218D01*
X-12747Y-5281D01*
X-12275Y-5281D01*
X-12275Y-5273D01*
X-12175Y-5273D01*
X-12175Y-5281D01*
X-11703Y-5281D01*
X-11640Y-5218D01*
X-11640Y-4867D01*
X-11678Y-4776D01*
X-11734Y-4720D01*
X-11605Y-4720D01*
X-11605Y-4862D01*
X-11542Y-4925D01*
X-11050Y-4925D01*
X-11050Y-4917D01*
X-10950Y-4917D01*
X-10950Y-4925D01*
X-10942Y-4925D01*
X-10942Y-5025D01*
X-10950Y-5025D01*
X-10950Y-5477D01*
X-10887Y-5540D01*
X-10694Y-5540D01*
X-10690Y-5540D01*
X-10690Y-5765D01*
X-10690Y-5765D01*
G37*
G54D49*
X-10690Y-5765D02*
X-11050Y-5765D01*
X-11050Y-5477D01*
X-11050Y-5025D01*
X-11542Y-5025D01*
X-11605Y-5087D01*
X-11605Y-5339D01*
X-11567Y-5431D01*
X-11496Y-5501D01*
X-11404Y-5539D01*
X-11305Y-5540D01*
X-11112Y-5540D01*
X-11050Y-5477D01*
X-11050Y-5765D01*
X-11640Y-5765D01*
X-11640Y-5443D01*
X-11703Y-5381D01*
X-12175Y-5381D01*
X-12175Y-5388D01*
X-12275Y-5388D01*
X-12275Y-5381D01*
X-12747Y-5381D01*
X-12809Y-5443D01*
X-12809Y-5794D01*
X-12771Y-5885D01*
X-12729Y-5928D01*
X-12964Y-6162D01*
X-12964Y-5716D01*
X-13026Y-5654D01*
X-13617Y-5654D01*
X-13617Y-5891D01*
X-13554Y-5953D01*
X-13164Y-5953D01*
X-13072Y-5915D01*
X-13002Y-5845D01*
X-12964Y-5753D01*
X-12964Y-5716D01*
X-12964Y-6162D01*
X-12999Y-6198D01*
X-13002Y-6191D01*
X-13072Y-6121D01*
X-13164Y-6083D01*
X-13593Y-6083D01*
X-13656Y-6146D01*
X-13656Y-6677D01*
X-13648Y-6677D01*
X-13648Y-6777D01*
X-13656Y-6777D01*
X-13656Y-6784D01*
X-13717Y-6784D01*
X-13717Y-5891D01*
X-13717Y-5654D01*
X-14307Y-5654D01*
X-14369Y-5716D01*
X-14369Y-5753D01*
X-14331Y-5845D01*
X-14261Y-5915D01*
X-14169Y-5953D01*
X-13779Y-5953D01*
X-13717Y-5891D01*
X-13717Y-6784D01*
X-13756Y-6784D01*
X-13756Y-6777D01*
X-13756Y-6677D01*
X-13756Y-6146D01*
X-13818Y-6083D01*
X-14247Y-6083D01*
X-14339Y-6121D01*
X-14392Y-6174D01*
X-14392Y-5782D01*
X-14438Y-5672D01*
X-14521Y-5589D01*
X-14630Y-5544D01*
X-14748Y-5543D01*
X-14858Y-5589D01*
X-14941Y-5672D01*
X-14986Y-5781D01*
X-14987Y-5899D01*
X-14941Y-6009D01*
X-14858Y-6092D01*
X-14749Y-6137D01*
X-14631Y-6138D01*
X-14521Y-6092D01*
X-14438Y-6009D01*
X-14393Y-5900D01*
X-14392Y-5782D01*
X-14392Y-6174D01*
X-14409Y-6191D01*
X-14447Y-6283D01*
X-14448Y-6383D01*
X-14448Y-6614D01*
X-14385Y-6677D01*
X-13756Y-6677D01*
X-13756Y-6777D01*
X-14385Y-6777D01*
X-14448Y-6839D01*
X-14448Y-7070D01*
X-14447Y-7165D01*
X-15129Y-7165D01*
X-15128Y-7070D01*
X-15128Y-6383D01*
X-15129Y-6283D01*
X-15167Y-6191D01*
X-15237Y-6121D01*
X-15329Y-6083D01*
X-15758Y-6083D01*
X-15821Y-6146D01*
X-15821Y-6677D01*
X-15191Y-6677D01*
X-15129Y-6614D01*
X-15128Y-6383D01*
X-15128Y-7070D01*
X-15129Y-6839D01*
X-15191Y-6777D01*
X-15821Y-6777D01*
X-15821Y-7308D01*
X-15758Y-7370D01*
X-15521Y-7370D01*
X-15713Y-7561D01*
X-15747Y-7613D01*
X-15760Y-7675D01*
X-15760Y-8202D01*
X-15780Y-8202D01*
X-15824Y-8221D01*
X-15858Y-8254D01*
X-15876Y-8299D01*
X-15877Y-8346D01*
X-15877Y-8660D01*
X-15858Y-8704D01*
X-15825Y-8738D01*
X-15780Y-8756D01*
X-15733Y-8757D01*
X-15419Y-8757D01*
X-15375Y-8738D01*
X-15341Y-8705D01*
X-15323Y-8660D01*
X-15322Y-8613D01*
X-15322Y-8299D01*
X-15341Y-8255D01*
X-15374Y-8221D01*
X-15419Y-8203D01*
X-15440Y-8203D01*
X-15440Y-7741D01*
X-15183Y-7485D01*
X-14486Y-7485D01*
X-14613Y-7611D01*
X-14647Y-7663D01*
X-14660Y-7725D01*
X-14660Y-8202D01*
X-14680Y-8202D01*
X-14724Y-8221D01*
X-14758Y-8254D01*
X-14776Y-8299D01*
X-14777Y-8346D01*
X-14777Y-8660D01*
X-14758Y-8704D01*
X-14725Y-8738D01*
X-14680Y-8756D01*
X-14633Y-8757D01*
X-14319Y-8757D01*
X-14275Y-8738D01*
X-14241Y-8705D01*
X-14223Y-8660D01*
X-14222Y-8613D01*
X-14222Y-8299D01*
X-14241Y-8255D01*
X-14274Y-8221D01*
X-14319Y-8203D01*
X-14340Y-8203D01*
X-14340Y-7791D01*
X-14258Y-7710D01*
X-13025Y-7710D01*
X-12963Y-7697D01*
X-12963Y-7697D01*
X-12911Y-7663D01*
X-12711Y-7463D01*
X-12711Y-7463D01*
X-12700Y-7445D01*
X-12700Y-8910D01*
X-13147Y-8910D01*
X-13147Y-8889D01*
X-13147Y-8613D01*
X-13147Y-8299D01*
X-13166Y-8255D01*
X-13199Y-8221D01*
X-13244Y-8203D01*
X-13291Y-8202D01*
X-13605Y-8202D01*
X-13649Y-8221D01*
X-13683Y-8254D01*
X-13701Y-8299D01*
X-13701Y-8320D01*
X-13755Y-8320D01*
X-13816Y-8332D01*
X-13868Y-8366D01*
X-14013Y-8511D01*
X-14047Y-8563D01*
X-14060Y-8625D01*
X-14060Y-9400D01*
X-14047Y-9461D01*
X-14013Y-9513D01*
X-13839Y-9686D01*
X-13840Y-9747D01*
X-13803Y-9835D01*
X-13736Y-9903D01*
X-13647Y-9939D01*
X-13552Y-9940D01*
X-13464Y-9903D01*
X-13396Y-9836D01*
X-13360Y-9747D01*
X-13359Y-9652D01*
X-13396Y-9564D01*
X-13463Y-9496D01*
X-13552Y-9460D01*
X-13613Y-9459D01*
X-13740Y-9333D01*
X-13740Y-8691D01*
X-13702Y-8653D01*
X-13702Y-8660D01*
X-13683Y-8704D01*
X-13650Y-8738D01*
X-13605Y-8756D01*
X-13558Y-8757D01*
X-13244Y-8757D01*
X-13200Y-8738D01*
X-13166Y-8705D01*
X-13148Y-8660D01*
X-13147Y-8613D01*
X-13147Y-8889D01*
X-13166Y-8845D01*
X-13199Y-8811D01*
X-13244Y-8793D01*
X-13291Y-8792D01*
X-13605Y-8792D01*
X-13649Y-8811D01*
X-13683Y-8844D01*
X-13701Y-8889D01*
X-13702Y-8936D01*
X-13702Y-9250D01*
X-13683Y-9294D01*
X-13650Y-9328D01*
X-13605Y-9346D01*
X-13558Y-9347D01*
X-13244Y-9347D01*
X-13200Y-9328D01*
X-13166Y-9295D01*
X-13148Y-9250D01*
X-13148Y-9230D01*
X-12700Y-9230D01*
X-12700Y-10792D01*
X-14159Y-10792D01*
X-14159Y-9477D01*
X-14196Y-9389D01*
X-14263Y-9321D01*
X-14266Y-9320D01*
X-14241Y-9295D01*
X-14223Y-9250D01*
X-14222Y-9203D01*
X-14222Y-8889D01*
X-14241Y-8845D01*
X-14274Y-8811D01*
X-14319Y-8793D01*
X-14366Y-8792D01*
X-14680Y-8792D01*
X-14724Y-8811D01*
X-14758Y-8844D01*
X-14776Y-8889D01*
X-14777Y-8936D01*
X-14777Y-9250D01*
X-14758Y-9294D01*
X-14725Y-9328D01*
X-14680Y-9346D01*
X-14660Y-9346D01*
X-14660Y-9425D01*
X-14647Y-9486D01*
X-14639Y-9497D01*
X-14640Y-9572D01*
X-14603Y-9660D01*
X-14536Y-9728D01*
X-14447Y-9764D01*
X-14352Y-9765D01*
X-14264Y-9728D01*
X-14196Y-9661D01*
X-14160Y-9572D01*
X-14159Y-9477D01*
X-14159Y-10792D01*
X-14438Y-10792D01*
X-15184Y-10644D01*
X-15184Y-9502D01*
X-15221Y-9414D01*
X-15288Y-9346D01*
X-15362Y-9316D01*
X-15341Y-9295D01*
X-15323Y-9250D01*
X-15322Y-9203D01*
X-15322Y-8889D01*
X-15341Y-8845D01*
X-15374Y-8811D01*
X-15419Y-8793D01*
X-15466Y-8792D01*
X-15780Y-8792D01*
X-15824Y-8811D01*
X-15858Y-8844D01*
X-15876Y-8889D01*
X-15877Y-8936D01*
X-15877Y-9250D01*
X-15858Y-9294D01*
X-15825Y-9328D01*
X-15780Y-9346D01*
X-15760Y-9346D01*
X-15760Y-9375D01*
X-15747Y-9436D01*
X-15713Y-9488D01*
X-15664Y-9536D01*
X-15665Y-9597D01*
X-15628Y-9685D01*
X-15561Y-9753D01*
X-15472Y-9789D01*
X-15377Y-9790D01*
X-15289Y-9753D01*
X-15221Y-9686D01*
X-15185Y-9597D01*
X-15184Y-9502D01*
X-15184Y-10644D01*
X-15345Y-10613D01*
X-15921Y-10227D01*
X-15921Y-7308D01*
X-15921Y-6777D01*
X-15921Y-6677D01*
X-15921Y-6146D01*
X-15983Y-6083D01*
X-16412Y-6083D01*
X-16504Y-6121D01*
X-16574Y-6191D01*
X-16612Y-6283D01*
X-16613Y-6383D01*
X-16613Y-6614D01*
X-16550Y-6677D01*
X-15921Y-6677D01*
X-15921Y-6777D01*
X-16550Y-6777D01*
X-16613Y-6839D01*
X-16613Y-7070D01*
X-16612Y-7170D01*
X-16574Y-7262D01*
X-16504Y-7332D01*
X-16412Y-7370D01*
X-15983Y-7370D01*
X-15921Y-7308D01*
X-15921Y-10227D01*
X-16087Y-10115D01*
X-16589Y-9366D01*
X-16765Y-8480D01*
X-16765Y-8480D01*
X-16765Y-4720D01*
X-14240Y-4720D01*
X-14240Y-4782D01*
X-14225Y-4817D01*
X-14239Y-4852D01*
X-14240Y-4900D01*
X-14240Y-5097D01*
X-14225Y-5132D01*
X-14239Y-5167D01*
X-14240Y-5215D01*
X-14240Y-5285D01*
X-14261Y-5294D01*
X-14331Y-5364D01*
X-14369Y-5456D01*
X-14369Y-5493D01*
X-14307Y-5555D01*
X-13717Y-5555D01*
X-13717Y-5547D01*
X-13617Y-5547D01*
X-13617Y-5555D01*
X-13026Y-5555D01*
X-12964Y-5493D01*
X-12964Y-5456D01*
X-13002Y-5364D01*
X-13072Y-5294D01*
X-13093Y-5285D01*
X-13093Y-5167D01*
X-13108Y-5132D01*
X-13094Y-5097D01*
X-13093Y-5049D01*
X-13093Y-4852D01*
X-13108Y-4817D01*
X-13094Y-4782D01*
X-13093Y-4734D01*
X-13093Y-4720D01*
X-12715Y-4720D01*
X-12771Y-4776D01*
X-12809Y-4867D01*
X-12809Y-5218D01*
X-12747Y-5281D01*
X-12275Y-5281D01*
X-12275Y-5273D01*
X-12175Y-5273D01*
X-12175Y-5281D01*
X-11703Y-5281D01*
X-11640Y-5218D01*
X-11640Y-4867D01*
X-11678Y-4776D01*
X-11734Y-4720D01*
X-11605Y-4720D01*
X-11605Y-4862D01*
X-11542Y-4925D01*
X-11050Y-4925D01*
X-11050Y-4917D01*
X-10950Y-4917D01*
X-10950Y-4925D01*
X-10942Y-4925D01*
X-10942Y-5025D01*
X-10950Y-5025D01*
X-10950Y-5477D01*
X-10887Y-5540D01*
X-10694Y-5540D01*
X-10690Y-5540D01*
X-10690Y-5765D01*
G54D10*
G36*
X-10060Y-2149D02*
X-10123Y-2149D01*
X-10123Y-2200D01*
X-10300Y-2200D01*
X-10300Y-2207D01*
X-10400Y-2207D01*
X-10400Y-2200D01*
X-10832Y-2200D01*
X-10895Y-2262D01*
X-10895Y-2455D01*
X-10864Y-2530D01*
X-12536Y-2530D01*
X-12536Y-1340D01*
X-12536Y-1206D01*
X-12599Y-1144D01*
X-13425Y-1144D01*
X-13425Y-1478D01*
X-13362Y-1540D01*
X-12836Y-1540D01*
X-12736Y-1540D01*
X-12644Y-1502D01*
X-12574Y-1431D01*
X-12536Y-1340D01*
X-12536Y-2530D01*
X-13410Y-2530D01*
X-13410Y-2579D01*
X-13525Y-2579D01*
X-13525Y-1478D01*
X-13525Y-1144D01*
X-14351Y-1144D01*
X-14413Y-1206D01*
X-14413Y-1340D01*
X-14375Y-1431D01*
X-14305Y-1502D01*
X-14213Y-1540D01*
X-14113Y-1540D01*
X-13587Y-1540D01*
X-13525Y-1478D01*
X-13525Y-2579D01*
X-13593Y-2579D01*
X-13656Y-2642D01*
X-13656Y-3173D01*
X-13648Y-3173D01*
X-13648Y-3273D01*
X-13656Y-3273D01*
X-13656Y-3280D01*
X-13756Y-3280D01*
X-13756Y-3273D01*
X-13756Y-3173D01*
X-13756Y-2642D01*
X-13818Y-2579D01*
X-14247Y-2579D01*
X-14339Y-2617D01*
X-14409Y-2687D01*
X-14447Y-2779D01*
X-14448Y-2879D01*
X-14448Y-3110D01*
X-14385Y-3173D01*
X-13756Y-3173D01*
X-13756Y-3273D01*
X-14385Y-3273D01*
X-14448Y-3335D01*
X-14448Y-3566D01*
X-14447Y-3666D01*
X-14430Y-3709D01*
X-14430Y-3960D01*
X-14438Y-3940D01*
X-14521Y-3857D01*
X-14630Y-3812D01*
X-14748Y-3811D01*
X-14858Y-3857D01*
X-14941Y-3940D01*
X-14949Y-3959D01*
X-14949Y-2289D01*
X-14949Y-1699D01*
X-14967Y-1655D01*
X-15001Y-1621D01*
X-15045Y-1603D01*
X-15093Y-1602D01*
X-16430Y-1602D01*
X-16474Y-1621D01*
X-16508Y-1654D01*
X-16526Y-1699D01*
X-16526Y-1746D01*
X-16526Y-2336D01*
X-16508Y-2380D01*
X-16474Y-2414D01*
X-16430Y-2432D01*
X-16382Y-2433D01*
X-15045Y-2433D01*
X-15001Y-2414D01*
X-14967Y-2381D01*
X-14949Y-2336D01*
X-14949Y-2289D01*
X-14949Y-3959D01*
X-14986Y-4049D01*
X-14987Y-4167D01*
X-14941Y-4277D01*
X-14858Y-4360D01*
X-14749Y-4405D01*
X-14631Y-4406D01*
X-14521Y-4360D01*
X-14438Y-4277D01*
X-14430Y-4257D01*
X-14430Y-4410D01*
X-15128Y-4410D01*
X-15128Y-3566D01*
X-15128Y-2879D01*
X-15129Y-2779D01*
X-15167Y-2687D01*
X-15237Y-2617D01*
X-15329Y-2579D01*
X-15758Y-2579D01*
X-15821Y-2642D01*
X-15821Y-3173D01*
X-15191Y-3173D01*
X-15129Y-3110D01*
X-15128Y-2879D01*
X-15128Y-3566D01*
X-15129Y-3335D01*
X-15191Y-3273D01*
X-15821Y-3273D01*
X-15821Y-3804D01*
X-15758Y-3866D01*
X-15329Y-3866D01*
X-15237Y-3828D01*
X-15167Y-3758D01*
X-15129Y-3666D01*
X-15128Y-3566D01*
X-15128Y-4410D01*
X-15921Y-4410D01*
X-15921Y-3804D01*
X-15921Y-3273D01*
X-15921Y-3173D01*
X-15921Y-2642D01*
X-15983Y-2579D01*
X-16412Y-2579D01*
X-16504Y-2617D01*
X-16574Y-2687D01*
X-16612Y-2779D01*
X-16613Y-2879D01*
X-16613Y-3110D01*
X-16550Y-3173D01*
X-15921Y-3173D01*
X-15921Y-3273D01*
X-16550Y-3273D01*
X-16613Y-3335D01*
X-16613Y-3566D01*
X-16612Y-3666D01*
X-16574Y-3758D01*
X-16504Y-3828D01*
X-16412Y-3866D01*
X-15983Y-3866D01*
X-15921Y-3804D01*
X-15921Y-4410D01*
X-16765Y-4410D01*
X-16765Y-920D01*
X-14413Y-920D01*
X-14413Y-981D01*
X-14351Y-1044D01*
X-13525Y-1044D01*
X-13525Y-1036D01*
X-13425Y-1036D01*
X-13425Y-1044D01*
X-12606Y-1044D01*
X-12590Y-1060D01*
X-12138Y-1060D01*
X-12140Y-1061D01*
X-12159Y-1109D01*
X-12160Y-1160D01*
X-12160Y-1790D01*
X-12140Y-1838D01*
X-12103Y-1875D01*
X-12055Y-1894D01*
X-12004Y-1895D01*
X-11925Y-1895D01*
X-11925Y-1973D01*
X-11949Y-2034D01*
X-11950Y-2145D01*
X-11907Y-2248D01*
X-11828Y-2327D01*
X-11725Y-2369D01*
X-11614Y-2370D01*
X-11511Y-2327D01*
X-11432Y-2248D01*
X-11390Y-2145D01*
X-11389Y-2034D01*
X-11425Y-1949D01*
X-11425Y-1895D01*
X-11294Y-1895D01*
X-11246Y-1875D01*
X-11209Y-1838D01*
X-11190Y-1790D01*
X-11189Y-1739D01*
X-11189Y-1109D01*
X-11209Y-1061D01*
X-11211Y-1060D01*
X-10730Y-1060D01*
X-10746Y-1075D01*
X-10764Y-1120D01*
X-10765Y-1167D01*
X-10765Y-1673D01*
X-10786Y-1682D01*
X-10857Y-1752D01*
X-10895Y-1844D01*
X-10895Y-2037D01*
X-10832Y-2100D01*
X-10400Y-2100D01*
X-10400Y-2092D01*
X-10300Y-2092D01*
X-10300Y-2100D01*
X-10110Y-2100D01*
X-10060Y-2149D01*
X-10060Y-2149D01*
G37*
G54D49*
X-10060Y-2149D02*
X-10123Y-2149D01*
X-10123Y-2200D01*
X-10300Y-2200D01*
X-10300Y-2207D01*
X-10400Y-2207D01*
X-10400Y-2200D01*
X-10832Y-2200D01*
X-10895Y-2262D01*
X-10895Y-2455D01*
X-10864Y-2530D01*
X-12536Y-2530D01*
X-12536Y-1340D01*
X-12536Y-1206D01*
X-12599Y-1144D01*
X-13425Y-1144D01*
X-13425Y-1478D01*
X-13362Y-1540D01*
X-12836Y-1540D01*
X-12736Y-1540D01*
X-12644Y-1502D01*
X-12574Y-1431D01*
X-12536Y-1340D01*
X-12536Y-2530D01*
X-13410Y-2530D01*
X-13410Y-2579D01*
X-13525Y-2579D01*
X-13525Y-1478D01*
X-13525Y-1144D01*
X-14351Y-1144D01*
X-14413Y-1206D01*
X-14413Y-1340D01*
X-14375Y-1431D01*
X-14305Y-1502D01*
X-14213Y-1540D01*
X-14113Y-1540D01*
X-13587Y-1540D01*
X-13525Y-1478D01*
X-13525Y-2579D01*
X-13593Y-2579D01*
X-13656Y-2642D01*
X-13656Y-3173D01*
X-13648Y-3173D01*
X-13648Y-3273D01*
X-13656Y-3273D01*
X-13656Y-3280D01*
X-13756Y-3280D01*
X-13756Y-3273D01*
X-13756Y-3173D01*
X-13756Y-2642D01*
X-13818Y-2579D01*
X-14247Y-2579D01*
X-14339Y-2617D01*
X-14409Y-2687D01*
X-14447Y-2779D01*
X-14448Y-2879D01*
X-14448Y-3110D01*
X-14385Y-3173D01*
X-13756Y-3173D01*
X-13756Y-3273D01*
X-14385Y-3273D01*
X-14448Y-3335D01*
X-14448Y-3566D01*
X-14447Y-3666D01*
X-14430Y-3709D01*
X-14430Y-3960D01*
X-14438Y-3940D01*
X-14521Y-3857D01*
X-14630Y-3812D01*
X-14748Y-3811D01*
X-14858Y-3857D01*
X-14941Y-3940D01*
X-14949Y-3959D01*
X-14949Y-2289D01*
X-14949Y-1699D01*
X-14967Y-1655D01*
X-15001Y-1621D01*
X-15045Y-1603D01*
X-15093Y-1602D01*
X-16430Y-1602D01*
X-16474Y-1621D01*
X-16508Y-1654D01*
X-16526Y-1699D01*
X-16526Y-1746D01*
X-16526Y-2336D01*
X-16508Y-2380D01*
X-16474Y-2414D01*
X-16430Y-2432D01*
X-16382Y-2433D01*
X-15045Y-2433D01*
X-15001Y-2414D01*
X-14967Y-2381D01*
X-14949Y-2336D01*
X-14949Y-2289D01*
X-14949Y-3959D01*
X-14986Y-4049D01*
X-14987Y-4167D01*
X-14941Y-4277D01*
X-14858Y-4360D01*
X-14749Y-4405D01*
X-14631Y-4406D01*
X-14521Y-4360D01*
X-14438Y-4277D01*
X-14430Y-4257D01*
X-14430Y-4410D01*
X-15128Y-4410D01*
X-15128Y-3566D01*
X-15128Y-2879D01*
X-15129Y-2779D01*
X-15167Y-2687D01*
X-15237Y-2617D01*
X-15329Y-2579D01*
X-15758Y-2579D01*
X-15821Y-2642D01*
X-15821Y-3173D01*
X-15191Y-3173D01*
X-15129Y-3110D01*
X-15128Y-2879D01*
X-15128Y-3566D01*
X-15129Y-3335D01*
X-15191Y-3273D01*
X-15821Y-3273D01*
X-15821Y-3804D01*
X-15758Y-3866D01*
X-15329Y-3866D01*
X-15237Y-3828D01*
X-15167Y-3758D01*
X-15129Y-3666D01*
X-15128Y-3566D01*
X-15128Y-4410D01*
X-15921Y-4410D01*
X-15921Y-3804D01*
X-15921Y-3273D01*
X-15921Y-3173D01*
X-15921Y-2642D01*
X-15983Y-2579D01*
X-16412Y-2579D01*
X-16504Y-2617D01*
X-16574Y-2687D01*
X-16612Y-2779D01*
X-16613Y-2879D01*
X-16613Y-3110D01*
X-16550Y-3173D01*
X-15921Y-3173D01*
X-15921Y-3273D01*
X-16550Y-3273D01*
X-16613Y-3335D01*
X-16613Y-3566D01*
X-16612Y-3666D01*
X-16574Y-3758D01*
X-16504Y-3828D01*
X-16412Y-3866D01*
X-15983Y-3866D01*
X-15921Y-3804D01*
X-15921Y-4410D01*
X-16765Y-4410D01*
X-16765Y-920D01*
X-14413Y-920D01*
X-14413Y-981D01*
X-14351Y-1044D01*
X-13525Y-1044D01*
X-13525Y-1036D01*
X-13425Y-1036D01*
X-13425Y-1044D01*
X-12606Y-1044D01*
X-12590Y-1060D01*
X-12138Y-1060D01*
X-12140Y-1061D01*
X-12159Y-1109D01*
X-12160Y-1160D01*
X-12160Y-1790D01*
X-12140Y-1838D01*
X-12103Y-1875D01*
X-12055Y-1894D01*
X-12004Y-1895D01*
X-11925Y-1895D01*
X-11925Y-1973D01*
X-11949Y-2034D01*
X-11950Y-2145D01*
X-11907Y-2248D01*
X-11828Y-2327D01*
X-11725Y-2369D01*
X-11614Y-2370D01*
X-11511Y-2327D01*
X-11432Y-2248D01*
X-11390Y-2145D01*
X-11389Y-2034D01*
X-11425Y-1949D01*
X-11425Y-1895D01*
X-11294Y-1895D01*
X-11246Y-1875D01*
X-11209Y-1838D01*
X-11190Y-1790D01*
X-11189Y-1739D01*
X-11189Y-1109D01*
X-11209Y-1061D01*
X-11211Y-1060D01*
X-10730Y-1060D01*
X-10746Y-1075D01*
X-10764Y-1120D01*
X-10765Y-1167D01*
X-10765Y-1673D01*
X-10786Y-1682D01*
X-10857Y-1752D01*
X-10895Y-1844D01*
X-10895Y-2037D01*
X-10832Y-2100D01*
X-10400Y-2100D01*
X-10400Y-2092D01*
X-10300Y-2092D01*
X-10300Y-2100D01*
X-10110Y-2100D01*
X-10060Y-2149D01*
G54D10*
G36*
X-9267Y-7365D02*
X-9275Y-7365D01*
X-9275Y-7373D01*
X-9375Y-7373D01*
X-9375Y-7365D01*
X-9382Y-7365D01*
X-9382Y-7265D01*
X-9375Y-7265D01*
X-9375Y-7257D01*
X-9275Y-7257D01*
X-9275Y-7265D01*
X-9267Y-7265D01*
X-9267Y-7365D01*
X-9267Y-7365D01*
G37*
G54D49*
X-9267Y-7365D02*
X-9275Y-7365D01*
X-9275Y-7373D01*
X-9375Y-7373D01*
X-9375Y-7365D01*
X-9382Y-7365D01*
X-9382Y-7265D01*
X-9375Y-7265D01*
X-9375Y-7257D01*
X-9275Y-7257D01*
X-9275Y-7265D01*
X-9267Y-7265D01*
X-9267Y-7365D01*
G54D10*
G36*
X-9091Y-3507D02*
X-9114Y-3507D01*
X-9114Y-3528D01*
X-9132Y-3528D01*
X-9132Y-3522D01*
X-9367Y-3522D01*
X-9429Y-3584D01*
X-9429Y-3595D01*
X-9407Y-3650D01*
X-9799Y-3650D01*
X-9619Y-3470D01*
X-9372Y-3470D01*
X-9367Y-3474D01*
X-9132Y-3474D01*
X-9132Y-3470D01*
X-9106Y-3470D01*
X-9091Y-3507D01*
X-9091Y-3507D01*
G37*
G54D49*
X-9091Y-3507D02*
X-9114Y-3507D01*
X-9114Y-3528D01*
X-9132Y-3528D01*
X-9132Y-3522D01*
X-9367Y-3522D01*
X-9429Y-3584D01*
X-9429Y-3595D01*
X-9407Y-3650D01*
X-9799Y-3650D01*
X-9619Y-3470D01*
X-9372Y-3470D01*
X-9367Y-3474D01*
X-9132Y-3474D01*
X-9132Y-3470D01*
X-9106Y-3470D01*
X-9091Y-3507D01*
G54D10*
G36*
X-8942Y-5016D02*
X-8950Y-5016D01*
X-8950Y-5023D01*
X-9050Y-5023D01*
X-9050Y-5016D01*
X-9095Y-5016D01*
X-9115Y-4996D01*
X-9450Y-4996D01*
X-9450Y-5003D01*
X-9550Y-5003D01*
X-9550Y-4996D01*
X-9785Y-4996D01*
X-9884Y-4996D01*
X-10120Y-4996D01*
X-10120Y-5003D01*
X-10220Y-5003D01*
X-10220Y-4996D01*
X-10227Y-4996D01*
X-10227Y-4896D01*
X-10220Y-4896D01*
X-10220Y-4888D01*
X-10120Y-4888D01*
X-10120Y-4896D01*
X-9884Y-4896D01*
X-9785Y-4896D01*
X-9550Y-4896D01*
X-9550Y-4888D01*
X-9450Y-4888D01*
X-9450Y-4896D01*
X-9345Y-4896D01*
X-9325Y-4916D01*
X-9050Y-4916D01*
X-9050Y-4908D01*
X-8950Y-4908D01*
X-8950Y-4916D01*
X-8942Y-4916D01*
X-8942Y-5016D01*
X-8942Y-5016D01*
G37*
G54D49*
X-8942Y-5016D02*
X-8950Y-5016D01*
X-8950Y-5023D01*
X-9050Y-5023D01*
X-9050Y-5016D01*
X-9095Y-5016D01*
X-9115Y-4996D01*
X-9450Y-4996D01*
X-9450Y-5003D01*
X-9550Y-5003D01*
X-9550Y-4996D01*
X-9785Y-4996D01*
X-9884Y-4996D01*
X-10120Y-4996D01*
X-10120Y-5003D01*
X-10220Y-5003D01*
X-10220Y-4996D01*
X-10227Y-4996D01*
X-10227Y-4896D01*
X-10220Y-4896D01*
X-10220Y-4888D01*
X-10120Y-4888D01*
X-10120Y-4896D01*
X-9884Y-4896D01*
X-9785Y-4896D01*
X-9550Y-4896D01*
X-9550Y-4888D01*
X-9450Y-4888D01*
X-9450Y-4896D01*
X-9345Y-4896D01*
X-9325Y-4916D01*
X-9050Y-4916D01*
X-9050Y-4908D01*
X-8950Y-4908D01*
X-8950Y-4916D01*
X-8942Y-4916D01*
X-8942Y-5016D01*
G54D10*
G36*
X-8590Y5575D02*
X-9093Y5073D01*
X-9127Y5021D01*
X-9140Y4960D01*
X-9140Y4475D01*
X-9222Y4509D01*
X-9317Y4510D01*
X-9405Y4473D01*
X-9473Y4406D01*
X-9500Y4341D01*
X-9500Y4790D01*
X-9456Y4833D01*
X-9420Y4922D01*
X-9419Y5017D01*
X-9456Y5105D01*
X-9523Y5173D01*
X-9612Y5209D01*
X-9707Y5210D01*
X-9795Y5173D01*
X-9863Y5106D01*
X-9895Y5028D01*
X-9922Y5039D01*
X-10017Y5040D01*
X-10105Y5003D01*
X-10173Y4936D01*
X-10209Y4847D01*
X-10210Y4752D01*
X-10173Y4664D01*
X-10106Y4596D01*
X-10017Y4560D01*
X-9922Y4559D01*
X-9834Y4596D01*
X-9820Y4610D01*
X-9820Y4346D01*
X-10096Y4069D01*
X-10157Y4070D01*
X-10245Y4033D01*
X-10249Y4030D01*
X-10276Y4095D01*
X-10300Y4119D01*
X-10300Y5783D01*
X-10143Y5940D01*
X-8735Y5940D01*
X-8769Y5857D01*
X-8770Y5762D01*
X-8733Y5674D01*
X-8666Y5606D01*
X-8590Y5575D01*
X-8590Y5575D01*
G37*
G54D49*
X-8590Y5575D02*
X-9093Y5073D01*
X-9127Y5021D01*
X-9140Y4960D01*
X-9140Y4475D01*
X-9222Y4509D01*
X-9317Y4510D01*
X-9405Y4473D01*
X-9473Y4406D01*
X-9500Y4341D01*
X-9500Y4790D01*
X-9456Y4833D01*
X-9420Y4922D01*
X-9419Y5017D01*
X-9456Y5105D01*
X-9523Y5173D01*
X-9612Y5209D01*
X-9707Y5210D01*
X-9795Y5173D01*
X-9863Y5106D01*
X-9895Y5028D01*
X-9922Y5039D01*
X-10017Y5040D01*
X-10105Y5003D01*
X-10173Y4936D01*
X-10209Y4847D01*
X-10210Y4752D01*
X-10173Y4664D01*
X-10106Y4596D01*
X-10017Y4560D01*
X-9922Y4559D01*
X-9834Y4596D01*
X-9820Y4610D01*
X-9820Y4346D01*
X-10096Y4069D01*
X-10157Y4070D01*
X-10245Y4033D01*
X-10249Y4030D01*
X-10276Y4095D01*
X-10300Y4119D01*
X-10300Y5783D01*
X-10143Y5940D01*
X-8735Y5940D01*
X-8769Y5857D01*
X-8770Y5762D01*
X-8733Y5674D01*
X-8666Y5606D01*
X-8590Y5575D01*
G54D10*
G36*
X-8485Y-1130D02*
X-8508Y-1153D01*
X-8508Y-1487D01*
X-8500Y-1487D01*
X-8500Y-1587D01*
X-8508Y-1587D01*
X-8508Y-1595D01*
X-8608Y-1595D01*
X-8608Y-1587D01*
X-8923Y-1587D01*
X-8985Y-1650D01*
X-8985Y-1684D01*
X-8985Y-1784D01*
X-8947Y-1876D01*
X-8940Y-1882D01*
X-8950Y-1882D01*
X-9298Y-1882D01*
X-9301Y-1874D01*
X-9278Y-1851D01*
X-9240Y-1760D01*
X-9240Y-1646D01*
X-9303Y-1583D01*
X-9637Y-1583D01*
X-9637Y-1807D01*
X-9646Y-1815D01*
X-9646Y-2150D01*
X-9638Y-2150D01*
X-9638Y-2250D01*
X-9646Y-2250D01*
X-9646Y-2257D01*
X-9746Y-2257D01*
X-9746Y-2250D01*
X-9753Y-2250D01*
X-9753Y-2150D01*
X-9746Y-2150D01*
X-9746Y-1906D01*
X-9737Y-1898D01*
X-9737Y-1583D01*
X-9745Y-1583D01*
X-9745Y-1483D01*
X-9737Y-1483D01*
X-9737Y-1475D01*
X-9637Y-1475D01*
X-9637Y-1483D01*
X-9303Y-1483D01*
X-9240Y-1421D01*
X-9240Y-1306D01*
X-9278Y-1215D01*
X-9348Y-1144D01*
X-9370Y-1135D01*
X-9370Y-1097D01*
X-9360Y-1095D01*
X-9331Y-1124D01*
X-9286Y-1142D01*
X-9239Y-1143D01*
X-8891Y-1143D01*
X-8947Y-1198D01*
X-8985Y-1290D01*
X-8985Y-1390D01*
X-8985Y-1425D01*
X-8923Y-1487D01*
X-8608Y-1487D01*
X-8608Y-1153D01*
X-8671Y-1090D01*
X-8767Y-1090D01*
X-8754Y-1060D01*
X-8713Y-1052D01*
X-8713Y-1052D01*
X-8661Y-1018D01*
X-8551Y-907D01*
X-8551Y-1046D01*
X-8532Y-1090D01*
X-8499Y-1124D01*
X-8485Y-1130D01*
X-8485Y-1130D01*
G37*
G54D49*
X-8485Y-1130D02*
X-8508Y-1153D01*
X-8508Y-1487D01*
X-8500Y-1487D01*
X-8500Y-1587D01*
X-8508Y-1587D01*
X-8508Y-1595D01*
X-8608Y-1595D01*
X-8608Y-1587D01*
X-8923Y-1587D01*
X-8985Y-1650D01*
X-8985Y-1684D01*
X-8985Y-1784D01*
X-8947Y-1876D01*
X-8940Y-1882D01*
X-8950Y-1882D01*
X-9298Y-1882D01*
X-9301Y-1874D01*
X-9278Y-1851D01*
X-9240Y-1760D01*
X-9240Y-1646D01*
X-9303Y-1583D01*
X-9637Y-1583D01*
X-9637Y-1807D01*
X-9646Y-1815D01*
X-9646Y-2150D01*
X-9638Y-2150D01*
X-9638Y-2250D01*
X-9646Y-2250D01*
X-9646Y-2257D01*
X-9746Y-2257D01*
X-9746Y-2250D01*
X-9753Y-2250D01*
X-9753Y-2150D01*
X-9746Y-2150D01*
X-9746Y-1906D01*
X-9737Y-1898D01*
X-9737Y-1583D01*
X-9745Y-1583D01*
X-9745Y-1483D01*
X-9737Y-1483D01*
X-9737Y-1475D01*
X-9637Y-1475D01*
X-9637Y-1483D01*
X-9303Y-1483D01*
X-9240Y-1421D01*
X-9240Y-1306D01*
X-9278Y-1215D01*
X-9348Y-1144D01*
X-9370Y-1135D01*
X-9370Y-1097D01*
X-9360Y-1095D01*
X-9331Y-1124D01*
X-9286Y-1142D01*
X-9239Y-1143D01*
X-8891Y-1143D01*
X-8947Y-1198D01*
X-8985Y-1290D01*
X-8985Y-1390D01*
X-8985Y-1425D01*
X-8923Y-1487D01*
X-8608Y-1487D01*
X-8608Y-1153D01*
X-8671Y-1090D01*
X-8767Y-1090D01*
X-8754Y-1060D01*
X-8713Y-1052D01*
X-8713Y-1052D01*
X-8661Y-1018D01*
X-8551Y-907D01*
X-8551Y-1046D01*
X-8532Y-1090D01*
X-8499Y-1124D01*
X-8485Y-1130D01*
G54D10*
G36*
X-8394Y83D02*
X-8454Y83D01*
X-8498Y64D01*
X-8532Y31D01*
X-8550Y-13D01*
X-8551Y-60D01*
X-8551Y-152D01*
X-8661Y-41D01*
X-8713Y-7D01*
X-8754Y0D01*
X-8767Y30D01*
X-8800Y64D01*
X-8845Y82D01*
X-8892Y83D01*
X-9286Y83D01*
X-9330Y64D01*
X-9364Y31D01*
X-9382Y-13D01*
X-9383Y-60D01*
X-9383Y-191D01*
X-9404Y-200D01*
X-9475Y-270D01*
X-9513Y-362D01*
X-9513Y-417D01*
X-9450Y-480D01*
X-9116Y-480D01*
X-9116Y-472D01*
X-9016Y-472D01*
X-9016Y-480D01*
X-9008Y-480D01*
X-9008Y-580D01*
X-9016Y-580D01*
X-9016Y-587D01*
X-9116Y-587D01*
X-9116Y-580D01*
X-9450Y-580D01*
X-9513Y-642D01*
X-9513Y-644D01*
X-9514Y-644D01*
X-9908Y-644D01*
X-9952Y-662D01*
X-9986Y-696D01*
X-10004Y-740D01*
X-10004Y-781D01*
X-10051Y-781D01*
X-10112Y-793D01*
X-10164Y-828D01*
X-10360Y-1023D01*
X-10580Y-1023D01*
X-10580Y590D01*
X-9300Y590D01*
X-9329Y517D01*
X-9330Y422D01*
X-9293Y334D01*
X-9226Y266D01*
X-9137Y230D01*
X-9042Y229D01*
X-8954Y266D01*
X-8910Y310D01*
X-8466Y310D01*
X-8394Y237D01*
X-8394Y83D01*
X-8394Y83D01*
G37*
G54D49*
X-8394Y83D02*
X-8454Y83D01*
X-8498Y64D01*
X-8532Y31D01*
X-8550Y-13D01*
X-8551Y-60D01*
X-8551Y-152D01*
X-8661Y-41D01*
X-8713Y-7D01*
X-8754Y0D01*
X-8767Y30D01*
X-8800Y64D01*
X-8845Y82D01*
X-8892Y83D01*
X-9286Y83D01*
X-9330Y64D01*
X-9364Y31D01*
X-9382Y-13D01*
X-9383Y-60D01*
X-9383Y-191D01*
X-9404Y-200D01*
X-9475Y-270D01*
X-9513Y-362D01*
X-9513Y-417D01*
X-9450Y-480D01*
X-9116Y-480D01*
X-9116Y-472D01*
X-9016Y-472D01*
X-9016Y-480D01*
X-9008Y-480D01*
X-9008Y-580D01*
X-9016Y-580D01*
X-9016Y-587D01*
X-9116Y-587D01*
X-9116Y-580D01*
X-9450Y-580D01*
X-9513Y-642D01*
X-9513Y-644D01*
X-9514Y-644D01*
X-9908Y-644D01*
X-9952Y-662D01*
X-9986Y-696D01*
X-10004Y-740D01*
X-10004Y-781D01*
X-10051Y-781D01*
X-10112Y-793D01*
X-10164Y-828D01*
X-10360Y-1023D01*
X-10580Y-1023D01*
X-10580Y590D01*
X-9300Y590D01*
X-9329Y517D01*
X-9330Y422D01*
X-9293Y334D01*
X-9226Y266D01*
X-9137Y230D01*
X-9042Y229D01*
X-8954Y266D01*
X-8910Y310D01*
X-8466Y310D01*
X-8394Y237D01*
X-8394Y83D01*
G54D10*
G36*
X-7648Y-4275D02*
X-7689Y-4292D01*
X-7723Y-4325D01*
X-7741Y-4370D01*
X-7742Y-4417D01*
X-7742Y-4771D01*
X-7723Y-4815D01*
X-7695Y-4844D01*
X-7816Y-4965D01*
X-8010Y-4965D01*
X-8010Y-4185D01*
X-7995Y-4171D01*
X-7957Y-4079D01*
X-7957Y-4045D01*
X-8010Y-3992D01*
X-8010Y-3992D01*
X-7964Y-3992D01*
X-7964Y-3985D01*
X-7957Y-3985D01*
X-7957Y-3939D01*
X-7904Y-3992D01*
X-7870Y-3992D01*
X-7778Y-3954D01*
X-7742Y-3918D01*
X-7742Y-4179D01*
X-7723Y-4223D01*
X-7690Y-4257D01*
X-7648Y-4275D01*
X-7648Y-4275D01*
G37*
G54D49*
X-7648Y-4275D02*
X-7689Y-4292D01*
X-7723Y-4325D01*
X-7741Y-4370D01*
X-7742Y-4417D01*
X-7742Y-4771D01*
X-7723Y-4815D01*
X-7695Y-4844D01*
X-7816Y-4965D01*
X-8010Y-4965D01*
X-8010Y-4185D01*
X-7995Y-4171D01*
X-7957Y-4079D01*
X-7957Y-4045D01*
X-8010Y-3992D01*
X-8010Y-3992D01*
X-7964Y-3992D01*
X-7964Y-3985D01*
X-7957Y-3985D01*
X-7957Y-3939D01*
X-7904Y-3992D01*
X-7870Y-3992D01*
X-7778Y-3954D01*
X-7742Y-3918D01*
X-7742Y-4179D01*
X-7723Y-4223D01*
X-7690Y-4257D01*
X-7648Y-4275D01*
G54D10*
G36*
X-6227Y-8367D02*
X-6310Y-8449D01*
X-6310Y-10792D01*
X-6620Y-10792D01*
X-6620Y-10271D01*
X-6620Y-8972D01*
X-6680Y-8826D01*
X-6791Y-8715D01*
X-6936Y-8655D01*
X-7093Y-8655D01*
X-7239Y-8715D01*
X-7350Y-8826D01*
X-7410Y-8971D01*
X-7410Y-9128D01*
X-7350Y-9273D01*
X-7239Y-9385D01*
X-7094Y-9445D01*
X-6937Y-9445D01*
X-6792Y-9385D01*
X-6681Y-9274D01*
X-6620Y-9129D01*
X-6620Y-8972D01*
X-6620Y-10271D01*
X-6680Y-10126D01*
X-6791Y-10014D01*
X-6936Y-9954D01*
X-7093Y-9954D01*
X-7239Y-10014D01*
X-7350Y-10125D01*
X-7410Y-10270D01*
X-7410Y-10427D01*
X-7350Y-10573D01*
X-7239Y-10684D01*
X-7094Y-10744D01*
X-6937Y-10744D01*
X-6792Y-10684D01*
X-6681Y-10573D01*
X-6620Y-10428D01*
X-6620Y-10271D01*
X-6620Y-10792D01*
X-8579Y-10792D01*
X-8579Y-10269D01*
X-8579Y-8970D01*
X-8640Y-8821D01*
X-8754Y-8707D01*
X-8801Y-8687D01*
X-8801Y-8222D01*
X-8802Y-8187D01*
X-8864Y-8125D01*
X-9179Y-8125D01*
X-9179Y-8459D01*
X-9116Y-8522D01*
X-9002Y-8522D01*
X-8910Y-8484D01*
X-8840Y-8413D01*
X-8802Y-8321D01*
X-8801Y-8222D01*
X-8801Y-8687D01*
X-8903Y-8645D01*
X-9064Y-8645D01*
X-9213Y-8706D01*
X-9327Y-8820D01*
X-9389Y-8969D01*
X-9389Y-9130D01*
X-9327Y-9279D01*
X-9213Y-9393D01*
X-9065Y-9455D01*
X-8904Y-9455D01*
X-8755Y-9393D01*
X-8641Y-9280D01*
X-8579Y-9131D01*
X-8579Y-8970D01*
X-8579Y-10269D01*
X-8640Y-10120D01*
X-8754Y-10006D01*
X-8903Y-9944D01*
X-9064Y-9944D01*
X-9213Y-10006D01*
X-9327Y-10119D01*
X-9389Y-10268D01*
X-9389Y-10429D01*
X-9327Y-10578D01*
X-9213Y-10692D01*
X-9065Y-10754D01*
X-8904Y-10754D01*
X-8755Y-10693D01*
X-8641Y-10579D01*
X-8579Y-10430D01*
X-8579Y-10269D01*
X-8579Y-10792D01*
X-12450Y-10792D01*
X-12450Y-9221D01*
X-12433Y-9217D01*
X-12433Y-9217D01*
X-12381Y-9183D01*
X-11658Y-8460D01*
X-10700Y-8460D01*
X-10638Y-8447D01*
X-10638Y-8447D01*
X-10586Y-8413D01*
X-10211Y-8038D01*
X-10177Y-7986D01*
X-10165Y-7925D01*
X-10165Y-7925D01*
X-10165Y-7793D01*
X-10104Y-7793D01*
X-10067Y-7777D01*
X-10099Y-7809D01*
X-10117Y-7854D01*
X-10118Y-7901D01*
X-10118Y-8295D01*
X-10099Y-8339D01*
X-10066Y-8373D01*
X-10021Y-8391D01*
X-9974Y-8392D01*
X-9626Y-8392D01*
X-9617Y-8413D01*
X-9547Y-8484D01*
X-9455Y-8522D01*
X-9341Y-8522D01*
X-9279Y-8459D01*
X-9279Y-8125D01*
X-9286Y-8125D01*
X-9286Y-8025D01*
X-9279Y-8025D01*
X-9279Y-8017D01*
X-9179Y-8017D01*
X-9179Y-8025D01*
X-8864Y-8025D01*
X-8802Y-7962D01*
X-8801Y-7927D01*
X-8802Y-7828D01*
X-8840Y-7736D01*
X-8900Y-7675D01*
X-8805Y-7675D01*
X-8761Y-7657D01*
X-8749Y-7646D01*
X-8707Y-7689D01*
X-8707Y-7689D01*
X-8655Y-7723D01*
X-8594Y-7735D01*
X-8594Y-7736D01*
X-8557Y-7736D01*
X-8557Y-7776D01*
X-8538Y-7820D01*
X-8505Y-7854D01*
X-8460Y-7872D01*
X-8413Y-7873D01*
X-8019Y-7873D01*
X-7975Y-7854D01*
X-7941Y-7821D01*
X-7923Y-7776D01*
X-7922Y-7729D01*
X-7922Y-7727D01*
X-7904Y-7723D01*
X-7904Y-7723D01*
X-7852Y-7689D01*
X-7845Y-7681D01*
X-7828Y-7720D01*
X-7795Y-7754D01*
X-7750Y-7772D01*
X-7733Y-7772D01*
X-7744Y-7780D01*
X-8169Y-8205D01*
X-8221Y-8283D01*
X-8240Y-8375D01*
X-8240Y-8400D01*
X-8240Y-8731D01*
X-8334Y-8826D01*
X-8394Y-8971D01*
X-8395Y-9128D01*
X-8335Y-9273D01*
X-8240Y-9369D01*
X-8240Y-10031D01*
X-8334Y-10125D01*
X-8394Y-10270D01*
X-8395Y-10427D01*
X-8335Y-10573D01*
X-8224Y-10684D01*
X-8078Y-10744D01*
X-7921Y-10744D01*
X-7776Y-10684D01*
X-7665Y-10573D01*
X-7605Y-10428D01*
X-7604Y-10271D01*
X-7664Y-10126D01*
X-7760Y-10030D01*
X-7760Y-9368D01*
X-7665Y-9274D01*
X-7605Y-9129D01*
X-7604Y-8972D01*
X-7664Y-8826D01*
X-7760Y-8731D01*
X-7760Y-8474D01*
X-7475Y-8190D01*
X-7125Y-8190D01*
X-7125Y-8288D01*
X-7106Y-8332D01*
X-7073Y-8366D01*
X-7028Y-8384D01*
X-6981Y-8385D01*
X-6271Y-8385D01*
X-6227Y-8367D01*
X-6227Y-8367D01*
G37*
G54D49*
X-6227Y-8367D02*
X-6310Y-8449D01*
X-6310Y-10792D01*
X-6620Y-10792D01*
X-6620Y-10271D01*
X-6620Y-8972D01*
X-6680Y-8826D01*
X-6791Y-8715D01*
X-6936Y-8655D01*
X-7093Y-8655D01*
X-7239Y-8715D01*
X-7350Y-8826D01*
X-7410Y-8971D01*
X-7410Y-9128D01*
X-7350Y-9273D01*
X-7239Y-9385D01*
X-7094Y-9445D01*
X-6937Y-9445D01*
X-6792Y-9385D01*
X-6681Y-9274D01*
X-6620Y-9129D01*
X-6620Y-8972D01*
X-6620Y-10271D01*
X-6680Y-10126D01*
X-6791Y-10014D01*
X-6936Y-9954D01*
X-7093Y-9954D01*
X-7239Y-10014D01*
X-7350Y-10125D01*
X-7410Y-10270D01*
X-7410Y-10427D01*
X-7350Y-10573D01*
X-7239Y-10684D01*
X-7094Y-10744D01*
X-6937Y-10744D01*
X-6792Y-10684D01*
X-6681Y-10573D01*
X-6620Y-10428D01*
X-6620Y-10271D01*
X-6620Y-10792D01*
X-8579Y-10792D01*
X-8579Y-10269D01*
X-8579Y-8970D01*
X-8640Y-8821D01*
X-8754Y-8707D01*
X-8801Y-8687D01*
X-8801Y-8222D01*
X-8802Y-8187D01*
X-8864Y-8125D01*
X-9179Y-8125D01*
X-9179Y-8459D01*
X-9116Y-8522D01*
X-9002Y-8522D01*
X-8910Y-8484D01*
X-8840Y-8413D01*
X-8802Y-8321D01*
X-8801Y-8222D01*
X-8801Y-8687D01*
X-8903Y-8645D01*
X-9064Y-8645D01*
X-9213Y-8706D01*
X-9327Y-8820D01*
X-9389Y-8969D01*
X-9389Y-9130D01*
X-9327Y-9279D01*
X-9213Y-9393D01*
X-9065Y-9455D01*
X-8904Y-9455D01*
X-8755Y-9393D01*
X-8641Y-9280D01*
X-8579Y-9131D01*
X-8579Y-8970D01*
X-8579Y-10269D01*
X-8640Y-10120D01*
X-8754Y-10006D01*
X-8903Y-9944D01*
X-9064Y-9944D01*
X-9213Y-10006D01*
X-9327Y-10119D01*
X-9389Y-10268D01*
X-9389Y-10429D01*
X-9327Y-10578D01*
X-9213Y-10692D01*
X-9065Y-10754D01*
X-8904Y-10754D01*
X-8755Y-10693D01*
X-8641Y-10579D01*
X-8579Y-10430D01*
X-8579Y-10269D01*
X-8579Y-10792D01*
X-12450Y-10792D01*
X-12450Y-9221D01*
X-12433Y-9217D01*
X-12433Y-9217D01*
X-12381Y-9183D01*
X-11658Y-8460D01*
X-10700Y-8460D01*
X-10638Y-8447D01*
X-10638Y-8447D01*
X-10586Y-8413D01*
X-10211Y-8038D01*
X-10177Y-7986D01*
X-10165Y-7925D01*
X-10165Y-7925D01*
X-10165Y-7793D01*
X-10104Y-7793D01*
X-10067Y-7777D01*
X-10099Y-7809D01*
X-10117Y-7854D01*
X-10118Y-7901D01*
X-10118Y-8295D01*
X-10099Y-8339D01*
X-10066Y-8373D01*
X-10021Y-8391D01*
X-9974Y-8392D01*
X-9626Y-8392D01*
X-9617Y-8413D01*
X-9547Y-8484D01*
X-9455Y-8522D01*
X-9341Y-8522D01*
X-9279Y-8459D01*
X-9279Y-8125D01*
X-9286Y-8125D01*
X-9286Y-8025D01*
X-9279Y-8025D01*
X-9279Y-8017D01*
X-9179Y-8017D01*
X-9179Y-8025D01*
X-8864Y-8025D01*
X-8802Y-7962D01*
X-8801Y-7927D01*
X-8802Y-7828D01*
X-8840Y-7736D01*
X-8900Y-7675D01*
X-8805Y-7675D01*
X-8761Y-7657D01*
X-8749Y-7646D01*
X-8707Y-7689D01*
X-8707Y-7689D01*
X-8655Y-7723D01*
X-8594Y-7735D01*
X-8594Y-7736D01*
X-8557Y-7736D01*
X-8557Y-7776D01*
X-8538Y-7820D01*
X-8505Y-7854D01*
X-8460Y-7872D01*
X-8413Y-7873D01*
X-8019Y-7873D01*
X-7975Y-7854D01*
X-7941Y-7821D01*
X-7923Y-7776D01*
X-7922Y-7729D01*
X-7922Y-7727D01*
X-7904Y-7723D01*
X-7904Y-7723D01*
X-7852Y-7689D01*
X-7845Y-7681D01*
X-7828Y-7720D01*
X-7795Y-7754D01*
X-7750Y-7772D01*
X-7733Y-7772D01*
X-7744Y-7780D01*
X-8169Y-8205D01*
X-8221Y-8283D01*
X-8240Y-8375D01*
X-8240Y-8400D01*
X-8240Y-8731D01*
X-8334Y-8826D01*
X-8394Y-8971D01*
X-8395Y-9128D01*
X-8335Y-9273D01*
X-8240Y-9369D01*
X-8240Y-10031D01*
X-8334Y-10125D01*
X-8394Y-10270D01*
X-8395Y-10427D01*
X-8335Y-10573D01*
X-8224Y-10684D01*
X-8078Y-10744D01*
X-7921Y-10744D01*
X-7776Y-10684D01*
X-7665Y-10573D01*
X-7605Y-10428D01*
X-7604Y-10271D01*
X-7664Y-10126D01*
X-7760Y-10030D01*
X-7760Y-9368D01*
X-7665Y-9274D01*
X-7605Y-9129D01*
X-7604Y-8972D01*
X-7664Y-8826D01*
X-7760Y-8731D01*
X-7760Y-8474D01*
X-7475Y-8190D01*
X-7125Y-8190D01*
X-7125Y-8288D01*
X-7106Y-8332D01*
X-7073Y-8366D01*
X-7028Y-8384D01*
X-6981Y-8385D01*
X-6271Y-8385D01*
X-6227Y-8367D01*
G54D10*
G36*
X-6076Y1860D02*
X-6117Y1860D01*
X-6205Y1823D01*
X-6273Y1756D01*
X-6309Y1667D01*
X-6310Y1606D01*
X-6606Y1310D01*
X-7406Y1310D01*
X-7405Y1312D01*
X-7405Y1524D01*
X-7468Y1587D01*
X-7762Y1587D01*
X-7762Y1579D01*
X-7862Y1579D01*
X-7862Y1587D01*
X-7870Y1587D01*
X-7870Y1687D01*
X-7862Y1687D01*
X-7862Y1695D01*
X-7762Y1695D01*
X-7762Y1687D01*
X-7468Y1687D01*
X-7405Y1749D01*
X-7405Y1962D01*
X-7443Y2054D01*
X-7513Y2124D01*
X-7598Y2160D01*
X-6376Y2160D01*
X-6076Y1860D01*
X-6076Y1860D01*
G37*
G54D49*
X-6076Y1860D02*
X-6117Y1860D01*
X-6205Y1823D01*
X-6273Y1756D01*
X-6309Y1667D01*
X-6310Y1606D01*
X-6606Y1310D01*
X-7406Y1310D01*
X-7405Y1312D01*
X-7405Y1524D01*
X-7468Y1587D01*
X-7762Y1587D01*
X-7762Y1579D01*
X-7862Y1579D01*
X-7862Y1587D01*
X-7870Y1587D01*
X-7870Y1687D01*
X-7862Y1687D01*
X-7862Y1695D01*
X-7762Y1695D01*
X-7762Y1687D01*
X-7468Y1687D01*
X-7405Y1749D01*
X-7405Y1962D01*
X-7443Y2054D01*
X-7513Y2124D01*
X-7598Y2160D01*
X-6376Y2160D01*
X-6076Y1860D01*
G54D10*
G36*
X-5943Y-2680D02*
X-5984Y-2697D01*
X-6018Y-2730D01*
X-6036Y-2775D01*
X-6037Y-2822D01*
X-6037Y-2973D01*
X-6043Y-2966D01*
X-6132Y-2930D01*
X-6227Y-2929D01*
X-6315Y-2966D01*
X-6383Y-3033D01*
X-6419Y-3122D01*
X-6420Y-3217D01*
X-6385Y-3300D01*
X-6434Y-3320D01*
X-6504Y-3391D01*
X-6542Y-3483D01*
X-6543Y-3582D01*
X-6543Y-3617D01*
X-6480Y-3680D01*
X-6166Y-3680D01*
X-6166Y-3672D01*
X-6066Y-3672D01*
X-6066Y-3680D01*
X-6058Y-3680D01*
X-6058Y-3780D01*
X-6066Y-3780D01*
X-6066Y-3805D01*
X-6066Y-4114D01*
X-6066Y-4140D01*
X-6058Y-4140D01*
X-6058Y-4240D01*
X-6066Y-4240D01*
X-6066Y-4574D01*
X-6043Y-4597D01*
X-6057Y-4618D01*
X-6070Y-4680D01*
X-6070Y-4746D01*
X-6130Y-4746D01*
X-6166Y-4761D01*
X-6166Y-4574D01*
X-6166Y-4240D01*
X-6166Y-4140D01*
X-6166Y-4114D01*
X-6166Y-3805D01*
X-6166Y-3780D01*
X-6191Y-3780D01*
X-6228Y-3743D01*
X-6342Y-3742D01*
X-6432Y-3780D01*
X-6480Y-3780D01*
X-6543Y-3842D01*
X-6543Y-3877D01*
X-6542Y-3960D01*
X-6543Y-4042D01*
X-6543Y-4077D01*
X-6480Y-4140D01*
X-6432Y-4140D01*
X-6342Y-4177D01*
X-6228Y-4177D01*
X-6191Y-4140D01*
X-6166Y-4140D01*
X-6166Y-4240D01*
X-6480Y-4240D01*
X-6543Y-4302D01*
X-6543Y-4337D01*
X-6542Y-4436D01*
X-6504Y-4528D01*
X-6434Y-4599D01*
X-6342Y-4637D01*
X-6228Y-4637D01*
X-6166Y-4574D01*
X-6166Y-4761D01*
X-6174Y-4765D01*
X-6208Y-4798D01*
X-6226Y-4843D01*
X-6227Y-4890D01*
X-6227Y-5238D01*
X-6248Y-5247D01*
X-6306Y-5304D01*
X-6343Y-5266D01*
X-6432Y-5230D01*
X-6527Y-5229D01*
X-6615Y-5266D01*
X-6683Y-5333D01*
X-6719Y-5422D01*
X-6720Y-5483D01*
X-6826Y-5590D01*
X-7870Y-5590D01*
X-7931Y-5602D01*
X-7980Y-5634D01*
X-7979Y-5582D01*
X-8016Y-5494D01*
X-8025Y-5485D01*
X-7275Y-5485D01*
X-7213Y-5472D01*
X-7213Y-5472D01*
X-7161Y-5438D01*
X-6761Y-5038D01*
X-6761Y-5038D01*
X-6727Y-4986D01*
X-6715Y-4925D01*
X-6715Y-4925D01*
X-6715Y-4868D01*
X-6654Y-4868D01*
X-6610Y-4849D01*
X-6576Y-4816D01*
X-6558Y-4771D01*
X-6557Y-4724D01*
X-6557Y-4370D01*
X-6576Y-4326D01*
X-6609Y-4292D01*
X-6651Y-4274D01*
X-6610Y-4257D01*
X-6576Y-4224D01*
X-6558Y-4179D01*
X-6557Y-4132D01*
X-6557Y-3778D01*
X-6576Y-3734D01*
X-6609Y-3700D01*
X-6654Y-3682D01*
X-6701Y-3681D01*
X-6715Y-3681D01*
X-6715Y-3061D01*
X-6644Y-2991D01*
X-6566Y-2802D01*
X-6566Y-2598D01*
X-6644Y-2409D01*
X-6788Y-2264D01*
X-6977Y-2186D01*
X-7181Y-2186D01*
X-7370Y-2264D01*
X-7515Y-2408D01*
X-7593Y-2597D01*
X-7593Y-2717D01*
X-7606Y-2730D01*
X-7667Y-2729D01*
X-7671Y-2731D01*
X-7665Y-2700D01*
X-7665Y-2629D01*
X-7621Y-2586D01*
X-7585Y-2497D01*
X-7584Y-2402D01*
X-7621Y-2314D01*
X-7688Y-2246D01*
X-7777Y-2210D01*
X-7872Y-2209D01*
X-7960Y-2246D01*
X-8028Y-2313D01*
X-8034Y-2329D01*
X-8034Y-2327D01*
X-8071Y-2239D01*
X-8138Y-2171D01*
X-8227Y-2135D01*
X-8322Y-2134D01*
X-8373Y-2156D01*
X-8360Y-2122D01*
X-8359Y-2027D01*
X-8377Y-1984D01*
X-8331Y-1984D01*
X-8240Y-1946D01*
X-8169Y-1876D01*
X-8160Y-1854D01*
X-8119Y-1854D01*
X-7765Y-1854D01*
X-7721Y-1836D01*
X-7687Y-1802D01*
X-7669Y-1758D01*
X-7669Y-1710D01*
X-7669Y-1316D01*
X-7687Y-1272D01*
X-7721Y-1238D01*
X-7765Y-1220D01*
X-7811Y-1220D01*
X-7818Y-1182D01*
X-7826Y-1170D01*
X-7765Y-1171D01*
X-7632Y-1171D01*
X-7570Y-1108D01*
X-7570Y-715D01*
X-7939Y-715D01*
X-7968Y-685D01*
X-8013Y-667D01*
X-8060Y-666D01*
X-8437Y-666D01*
X-8426Y-656D01*
X-8390Y-567D01*
X-8389Y-472D01*
X-8422Y-393D01*
X-8407Y-393D01*
X-8065Y-393D01*
X-8065Y-552D01*
X-8002Y-615D01*
X-7570Y-615D01*
X-7570Y-607D01*
X-7470Y-607D01*
X-7470Y-615D01*
X-7462Y-615D01*
X-7462Y-715D01*
X-7470Y-715D01*
X-7470Y-1108D01*
X-7407Y-1171D01*
X-7274Y-1171D01*
X-7175Y-1170D01*
X-7083Y-1132D01*
X-7012Y-1062D01*
X-6991Y-1010D01*
X-6934Y-1010D01*
X-6900Y-1010D01*
X-6837Y-948D01*
X-6837Y-633D01*
X-6845Y-633D01*
X-6845Y-533D01*
X-6837Y-533D01*
X-6837Y-525D01*
X-6737Y-525D01*
X-6737Y-533D01*
X-6403Y-533D01*
X-6340Y-471D01*
X-6340Y-356D01*
X-6378Y-265D01*
X-6448Y-194D01*
X-6470Y-185D01*
X-6470Y-144D01*
X-6470Y209D01*
X-6488Y253D01*
X-6522Y287D01*
X-6566Y305D01*
X-6614Y305D01*
X-7008Y305D01*
X-7052Y287D01*
X-7086Y253D01*
X-7098Y222D01*
X-7104Y226D01*
X-7104Y226D01*
X-7104Y364D01*
X-7123Y408D01*
X-7156Y442D01*
X-7201Y460D01*
X-7248Y461D01*
X-7838Y461D01*
X-7882Y442D01*
X-7916Y409D01*
X-7934Y364D01*
X-7935Y317D01*
X-7935Y237D01*
X-7956Y232D01*
X-8008Y198D01*
X-8074Y132D01*
X-8074Y304D01*
X-8086Y365D01*
X-8086Y365D01*
X-8120Y417D01*
X-8286Y583D01*
X-8297Y590D01*
X-6596Y590D01*
X-6290Y283D01*
X-6290Y-1250D01*
X-6277Y-1311D01*
X-6243Y-1363D01*
X-6052Y-1554D01*
X-6068Y-1561D01*
X-6102Y-1594D01*
X-6120Y-1636D01*
X-6137Y-1595D01*
X-6170Y-1561D01*
X-6215Y-1543D01*
X-6262Y-1542D01*
X-6340Y-1542D01*
X-6340Y-810D01*
X-6340Y-696D01*
X-6403Y-633D01*
X-6737Y-633D01*
X-6737Y-948D01*
X-6675Y-1010D01*
X-6640Y-1010D01*
X-6540Y-1010D01*
X-6448Y-972D01*
X-6378Y-901D01*
X-6340Y-810D01*
X-6340Y-1542D01*
X-6616Y-1542D01*
X-6660Y-1561D01*
X-6694Y-1594D01*
X-6712Y-1639D01*
X-6713Y-1686D01*
X-6713Y-1700D01*
X-6713Y-1700D01*
X-6760Y-1653D01*
X-6759Y-1592D01*
X-6796Y-1504D01*
X-6837Y-1463D01*
X-6863Y-1436D01*
X-6952Y-1400D01*
X-7047Y-1399D01*
X-7135Y-1436D01*
X-7203Y-1503D01*
X-7239Y-1592D01*
X-7240Y-1687D01*
X-7203Y-1775D01*
X-7136Y-1843D01*
X-7047Y-1879D01*
X-6986Y-1880D01*
X-6893Y-1973D01*
X-6893Y-1973D01*
X-6841Y-2007D01*
X-6780Y-2020D01*
X-6713Y-2020D01*
X-6713Y-2080D01*
X-6694Y-2124D01*
X-6661Y-2158D01*
X-6616Y-2176D01*
X-6573Y-2177D01*
X-6563Y-2225D01*
X-6529Y-2277D01*
X-6309Y-2497D01*
X-6309Y-2497D01*
X-6257Y-2531D01*
X-6196Y-2544D01*
X-6037Y-2544D01*
X-6037Y-2584D01*
X-6018Y-2628D01*
X-5985Y-2662D01*
X-5943Y-2680D01*
X-5943Y-2680D01*
G37*
G54D49*
X-5943Y-2680D02*
X-5984Y-2697D01*
X-6018Y-2730D01*
X-6036Y-2775D01*
X-6037Y-2822D01*
X-6037Y-2973D01*
X-6043Y-2966D01*
X-6132Y-2930D01*
X-6227Y-2929D01*
X-6315Y-2966D01*
X-6383Y-3033D01*
X-6419Y-3122D01*
X-6420Y-3217D01*
X-6385Y-3300D01*
X-6434Y-3320D01*
X-6504Y-3391D01*
X-6542Y-3483D01*
X-6543Y-3582D01*
X-6543Y-3617D01*
X-6480Y-3680D01*
X-6166Y-3680D01*
X-6166Y-3672D01*
X-6066Y-3672D01*
X-6066Y-3680D01*
X-6058Y-3680D01*
X-6058Y-3780D01*
X-6066Y-3780D01*
X-6066Y-3805D01*
X-6066Y-4114D01*
X-6066Y-4140D01*
X-6058Y-4140D01*
X-6058Y-4240D01*
X-6066Y-4240D01*
X-6066Y-4574D01*
X-6043Y-4597D01*
X-6057Y-4618D01*
X-6070Y-4680D01*
X-6070Y-4746D01*
X-6130Y-4746D01*
X-6166Y-4761D01*
X-6166Y-4574D01*
X-6166Y-4240D01*
X-6166Y-4140D01*
X-6166Y-4114D01*
X-6166Y-3805D01*
X-6166Y-3780D01*
X-6191Y-3780D01*
X-6228Y-3743D01*
X-6342Y-3742D01*
X-6432Y-3780D01*
X-6480Y-3780D01*
X-6543Y-3842D01*
X-6543Y-3877D01*
X-6542Y-3960D01*
X-6543Y-4042D01*
X-6543Y-4077D01*
X-6480Y-4140D01*
X-6432Y-4140D01*
X-6342Y-4177D01*
X-6228Y-4177D01*
X-6191Y-4140D01*
X-6166Y-4140D01*
X-6166Y-4240D01*
X-6480Y-4240D01*
X-6543Y-4302D01*
X-6543Y-4337D01*
X-6542Y-4436D01*
X-6504Y-4528D01*
X-6434Y-4599D01*
X-6342Y-4637D01*
X-6228Y-4637D01*
X-6166Y-4574D01*
X-6166Y-4761D01*
X-6174Y-4765D01*
X-6208Y-4798D01*
X-6226Y-4843D01*
X-6227Y-4890D01*
X-6227Y-5238D01*
X-6248Y-5247D01*
X-6306Y-5304D01*
X-6343Y-5266D01*
X-6432Y-5230D01*
X-6527Y-5229D01*
X-6615Y-5266D01*
X-6683Y-5333D01*
X-6719Y-5422D01*
X-6720Y-5483D01*
X-6826Y-5590D01*
X-7870Y-5590D01*
X-7931Y-5602D01*
X-7980Y-5634D01*
X-7979Y-5582D01*
X-8016Y-5494D01*
X-8025Y-5485D01*
X-7275Y-5485D01*
X-7213Y-5472D01*
X-7213Y-5472D01*
X-7161Y-5438D01*
X-6761Y-5038D01*
X-6761Y-5038D01*
X-6727Y-4986D01*
X-6715Y-4925D01*
X-6715Y-4925D01*
X-6715Y-4868D01*
X-6654Y-4868D01*
X-6610Y-4849D01*
X-6576Y-4816D01*
X-6558Y-4771D01*
X-6557Y-4724D01*
X-6557Y-4370D01*
X-6576Y-4326D01*
X-6609Y-4292D01*
X-6651Y-4274D01*
X-6610Y-4257D01*
X-6576Y-4224D01*
X-6558Y-4179D01*
X-6557Y-4132D01*
X-6557Y-3778D01*
X-6576Y-3734D01*
X-6609Y-3700D01*
X-6654Y-3682D01*
X-6701Y-3681D01*
X-6715Y-3681D01*
X-6715Y-3061D01*
X-6644Y-2991D01*
X-6566Y-2802D01*
X-6566Y-2598D01*
X-6644Y-2409D01*
X-6788Y-2264D01*
X-6977Y-2186D01*
X-7181Y-2186D01*
X-7370Y-2264D01*
X-7515Y-2408D01*
X-7593Y-2597D01*
X-7593Y-2717D01*
X-7606Y-2730D01*
X-7667Y-2729D01*
X-7671Y-2731D01*
X-7665Y-2700D01*
X-7665Y-2629D01*
X-7621Y-2586D01*
X-7585Y-2497D01*
X-7584Y-2402D01*
X-7621Y-2314D01*
X-7688Y-2246D01*
X-7777Y-2210D01*
X-7872Y-2209D01*
X-7960Y-2246D01*
X-8028Y-2313D01*
X-8034Y-2329D01*
X-8034Y-2327D01*
X-8071Y-2239D01*
X-8138Y-2171D01*
X-8227Y-2135D01*
X-8322Y-2134D01*
X-8373Y-2156D01*
X-8360Y-2122D01*
X-8359Y-2027D01*
X-8377Y-1984D01*
X-8331Y-1984D01*
X-8240Y-1946D01*
X-8169Y-1876D01*
X-8160Y-1854D01*
X-8119Y-1854D01*
X-7765Y-1854D01*
X-7721Y-1836D01*
X-7687Y-1802D01*
X-7669Y-1758D01*
X-7669Y-1710D01*
X-7669Y-1316D01*
X-7687Y-1272D01*
X-7721Y-1238D01*
X-7765Y-1220D01*
X-7811Y-1220D01*
X-7818Y-1182D01*
X-7826Y-1170D01*
X-7765Y-1171D01*
X-7632Y-1171D01*
X-7570Y-1108D01*
X-7570Y-715D01*
X-7939Y-715D01*
X-7968Y-685D01*
X-8013Y-667D01*
X-8060Y-666D01*
X-8437Y-666D01*
X-8426Y-656D01*
X-8390Y-567D01*
X-8389Y-472D01*
X-8422Y-393D01*
X-8407Y-393D01*
X-8065Y-393D01*
X-8065Y-552D01*
X-8002Y-615D01*
X-7570Y-615D01*
X-7570Y-607D01*
X-7470Y-607D01*
X-7470Y-615D01*
X-7462Y-615D01*
X-7462Y-715D01*
X-7470Y-715D01*
X-7470Y-1108D01*
X-7407Y-1171D01*
X-7274Y-1171D01*
X-7175Y-1170D01*
X-7083Y-1132D01*
X-7012Y-1062D01*
X-6991Y-1010D01*
X-6934Y-1010D01*
X-6900Y-1010D01*
X-6837Y-948D01*
X-6837Y-633D01*
X-6845Y-633D01*
X-6845Y-533D01*
X-6837Y-533D01*
X-6837Y-525D01*
X-6737Y-525D01*
X-6737Y-533D01*
X-6403Y-533D01*
X-6340Y-471D01*
X-6340Y-356D01*
X-6378Y-265D01*
X-6448Y-194D01*
X-6470Y-185D01*
X-6470Y-144D01*
X-6470Y209D01*
X-6488Y253D01*
X-6522Y287D01*
X-6566Y305D01*
X-6614Y305D01*
X-7008Y305D01*
X-7052Y287D01*
X-7086Y253D01*
X-7098Y222D01*
X-7104Y226D01*
X-7104Y226D01*
X-7104Y364D01*
X-7123Y408D01*
X-7156Y442D01*
X-7201Y460D01*
X-7248Y461D01*
X-7838Y461D01*
X-7882Y442D01*
X-7916Y409D01*
X-7934Y364D01*
X-7935Y317D01*
X-7935Y237D01*
X-7956Y232D01*
X-8008Y198D01*
X-8074Y132D01*
X-8074Y304D01*
X-8086Y365D01*
X-8086Y365D01*
X-8120Y417D01*
X-8286Y583D01*
X-8297Y590D01*
X-6596Y590D01*
X-6290Y283D01*
X-6290Y-1250D01*
X-6277Y-1311D01*
X-6243Y-1363D01*
X-6052Y-1554D01*
X-6068Y-1561D01*
X-6102Y-1594D01*
X-6120Y-1636D01*
X-6137Y-1595D01*
X-6170Y-1561D01*
X-6215Y-1543D01*
X-6262Y-1542D01*
X-6340Y-1542D01*
X-6340Y-810D01*
X-6340Y-696D01*
X-6403Y-633D01*
X-6737Y-633D01*
X-6737Y-948D01*
X-6675Y-1010D01*
X-6640Y-1010D01*
X-6540Y-1010D01*
X-6448Y-972D01*
X-6378Y-901D01*
X-6340Y-810D01*
X-6340Y-1542D01*
X-6616Y-1542D01*
X-6660Y-1561D01*
X-6694Y-1594D01*
X-6712Y-1639D01*
X-6713Y-1686D01*
X-6713Y-1700D01*
X-6713Y-1700D01*
X-6760Y-1653D01*
X-6759Y-1592D01*
X-6796Y-1504D01*
X-6837Y-1463D01*
X-6863Y-1436D01*
X-6952Y-1400D01*
X-7047Y-1399D01*
X-7135Y-1436D01*
X-7203Y-1503D01*
X-7239Y-1592D01*
X-7240Y-1687D01*
X-7203Y-1775D01*
X-7136Y-1843D01*
X-7047Y-1879D01*
X-6986Y-1880D01*
X-6893Y-1973D01*
X-6893Y-1973D01*
X-6841Y-2007D01*
X-6780Y-2020D01*
X-6713Y-2020D01*
X-6713Y-2080D01*
X-6694Y-2124D01*
X-6661Y-2158D01*
X-6616Y-2176D01*
X-6573Y-2177D01*
X-6563Y-2225D01*
X-6529Y-2277D01*
X-6309Y-2497D01*
X-6309Y-2497D01*
X-6257Y-2531D01*
X-6196Y-2544D01*
X-6037Y-2544D01*
X-6037Y-2584D01*
X-6018Y-2628D01*
X-5985Y-2662D01*
X-5943Y-2680D01*
G54D10*
G36*
X-4612Y-2816D02*
X-4620Y-2816D01*
X-4620Y-2819D01*
X-4720Y-2819D01*
X-4720Y-2816D01*
X-5157Y-2816D01*
X-5170Y-2829D01*
X-5402Y-2829D01*
X-5402Y-2775D01*
X-5421Y-2731D01*
X-5454Y-2697D01*
X-5496Y-2679D01*
X-5455Y-2662D01*
X-5421Y-2629D01*
X-5403Y-2584D01*
X-5402Y-2544D01*
X-5124Y-2544D01*
X-5182Y-2601D01*
X-5220Y-2693D01*
X-5220Y-2705D01*
X-5157Y-2767D01*
X-4720Y-2767D01*
X-4720Y-2765D01*
X-4620Y-2765D01*
X-4620Y-2767D01*
X-4612Y-2767D01*
X-4612Y-2816D01*
X-4612Y-2816D01*
G37*
G54D49*
X-4612Y-2816D02*
X-4620Y-2816D01*
X-4620Y-2819D01*
X-4720Y-2819D01*
X-4720Y-2816D01*
X-5157Y-2816D01*
X-5170Y-2829D01*
X-5402Y-2829D01*
X-5402Y-2775D01*
X-5421Y-2731D01*
X-5454Y-2697D01*
X-5496Y-2679D01*
X-5455Y-2662D01*
X-5421Y-2629D01*
X-5403Y-2584D01*
X-5402Y-2544D01*
X-5124Y-2544D01*
X-5182Y-2601D01*
X-5220Y-2693D01*
X-5220Y-2705D01*
X-5157Y-2767D01*
X-4720Y-2767D01*
X-4720Y-2765D01*
X-4620Y-2765D01*
X-4620Y-2767D01*
X-4612Y-2767D01*
X-4612Y-2816D01*
G54D10*
G36*
X-3979Y7878D02*
X-3982Y7878D01*
X-3982Y7870D01*
X-4031Y7870D01*
X-4031Y7878D01*
X-4033Y7878D01*
X-4033Y7978D01*
X-4031Y7978D01*
X-4031Y7985D01*
X-3982Y7985D01*
X-3982Y7978D01*
X-3979Y7978D01*
X-3979Y7878D01*
X-3979Y7878D01*
G37*
G54D49*
X-3979Y7878D02*
X-3982Y7878D01*
X-3982Y7870D01*
X-4031Y7870D01*
X-4031Y7878D01*
X-4033Y7878D01*
X-4033Y7978D01*
X-4031Y7978D01*
X-4031Y7985D01*
X-3982Y7985D01*
X-3982Y7978D01*
X-3979Y7978D01*
X-3979Y7878D01*
G54D10*
G36*
X-3810Y-3453D02*
X-3973Y-3617D01*
X-4201Y-3617D01*
X-4157Y-3573D01*
X-4119Y-3481D01*
X-4120Y-3470D01*
X-4182Y-3407D01*
X-4620Y-3407D01*
X-4620Y-3410D01*
X-4720Y-3410D01*
X-4720Y-3407D01*
X-4727Y-3407D01*
X-4727Y-3358D01*
X-4720Y-3358D01*
X-4720Y-3355D01*
X-4620Y-3355D01*
X-4620Y-3358D01*
X-4182Y-3358D01*
X-4120Y-3296D01*
X-4119Y-3284D01*
X-4147Y-3217D01*
X-4117Y-3229D01*
X-4022Y-3230D01*
X-3934Y-3193D01*
X-3866Y-3126D01*
X-3830Y-3037D01*
X-3829Y-2942D01*
X-3866Y-2854D01*
X-3933Y-2786D01*
X-4022Y-2750D01*
X-4117Y-2749D01*
X-4120Y-2750D01*
X-4120Y-2741D01*
X-4156Y-2741D01*
X-4120Y-2705D01*
X-4119Y-2693D01*
X-4157Y-2601D01*
X-4228Y-2531D01*
X-4250Y-2521D01*
X-4260Y-2497D01*
X-4250Y-2471D01*
X-4249Y-2424D01*
X-4249Y-2326D01*
X-4260Y-2300D01*
X-4250Y-2274D01*
X-4249Y-2227D01*
X-4249Y-2129D01*
X-4260Y-2103D01*
X-4250Y-2077D01*
X-4250Y-2077D01*
X-4228Y-2068D01*
X-4157Y-1998D01*
X-4119Y-1906D01*
X-4120Y-1895D01*
X-4182Y-1832D01*
X-4620Y-1832D01*
X-4620Y-1835D01*
X-4720Y-1835D01*
X-4720Y-1832D01*
X-4727Y-1832D01*
X-4727Y-1783D01*
X-4720Y-1783D01*
X-4720Y-1759D01*
X-4620Y-1759D01*
X-4620Y-1783D01*
X-4182Y-1783D01*
X-4129Y-1730D01*
X-4116Y-1730D01*
X-3810Y-2036D01*
X-3810Y-3453D01*
X-3810Y-3453D01*
G37*
G54D49*
X-3810Y-3453D02*
X-3973Y-3617D01*
X-4201Y-3617D01*
X-4157Y-3573D01*
X-4119Y-3481D01*
X-4120Y-3470D01*
X-4182Y-3407D01*
X-4620Y-3407D01*
X-4620Y-3410D01*
X-4720Y-3410D01*
X-4720Y-3407D01*
X-4727Y-3407D01*
X-4727Y-3358D01*
X-4720Y-3358D01*
X-4720Y-3355D01*
X-4620Y-3355D01*
X-4620Y-3358D01*
X-4182Y-3358D01*
X-4120Y-3296D01*
X-4119Y-3284D01*
X-4147Y-3217D01*
X-4117Y-3229D01*
X-4022Y-3230D01*
X-3934Y-3193D01*
X-3866Y-3126D01*
X-3830Y-3037D01*
X-3829Y-2942D01*
X-3866Y-2854D01*
X-3933Y-2786D01*
X-4022Y-2750D01*
X-4117Y-2749D01*
X-4120Y-2750D01*
X-4120Y-2741D01*
X-4156Y-2741D01*
X-4120Y-2705D01*
X-4119Y-2693D01*
X-4157Y-2601D01*
X-4228Y-2531D01*
X-4250Y-2521D01*
X-4260Y-2497D01*
X-4250Y-2471D01*
X-4249Y-2424D01*
X-4249Y-2326D01*
X-4260Y-2300D01*
X-4250Y-2274D01*
X-4249Y-2227D01*
X-4249Y-2129D01*
X-4260Y-2103D01*
X-4250Y-2077D01*
X-4250Y-2077D01*
X-4228Y-2068D01*
X-4157Y-1998D01*
X-4119Y-1906D01*
X-4120Y-1895D01*
X-4182Y-1832D01*
X-4620Y-1832D01*
X-4620Y-1835D01*
X-4720Y-1835D01*
X-4720Y-1832D01*
X-4727Y-1832D01*
X-4727Y-1783D01*
X-4720Y-1783D01*
X-4720Y-1759D01*
X-4620Y-1759D01*
X-4620Y-1783D01*
X-4182Y-1783D01*
X-4129Y-1730D01*
X-4116Y-1730D01*
X-3810Y-2036D01*
X-3810Y-3453D01*
G54D10*
G36*
X-3488Y-360D02*
X-3488Y-360D01*
X-3538Y-359D01*
X-3538Y-410D01*
X-3550Y-422D01*
X-3550Y-860D01*
X-3547Y-860D01*
X-3547Y-960D01*
X-3550Y-960D01*
X-3550Y-967D01*
X-3599Y-967D01*
X-3599Y-960D01*
X-3602Y-960D01*
X-3602Y-860D01*
X-3599Y-860D01*
X-3599Y-422D01*
X-3661Y-360D01*
X-3673Y-360D01*
X-3765Y-398D01*
X-3836Y-468D01*
X-3844Y-490D01*
X-3888Y-508D01*
X-3922Y-541D01*
X-3940Y-586D01*
X-3941Y-633D01*
X-3941Y-750D01*
X-4003Y-750D01*
X-4256Y-497D01*
X-4256Y-77D01*
X-4221Y-77D01*
X-4212Y-98D01*
X-4142Y-169D01*
X-4050Y-207D01*
X-3936Y-207D01*
X-3874Y-144D01*
X-3874Y190D01*
X-3881Y190D01*
X-3881Y290D01*
X-3874Y290D01*
X-3874Y405D01*
X-3874Y624D01*
X-3874Y740D01*
X-3881Y740D01*
X-3881Y840D01*
X-3874Y840D01*
X-3874Y847D01*
X-3774Y847D01*
X-3774Y840D01*
X-3766Y840D01*
X-3766Y740D01*
X-3774Y740D01*
X-3774Y624D01*
X-3774Y405D01*
X-3774Y290D01*
X-3766Y290D01*
X-3766Y190D01*
X-3774Y190D01*
X-3774Y-144D01*
X-3711Y-207D01*
X-3618Y-207D01*
X-3608Y-223D01*
X-3538Y-293D01*
X-3538Y-359D01*
X-3488Y-360D01*
X-3488Y-360D01*
G37*
G54D49*
X-3488Y-360D02*
X-3488Y-360D01*
X-3538Y-359D01*
X-3538Y-410D01*
X-3550Y-422D01*
X-3550Y-860D01*
X-3547Y-860D01*
X-3547Y-960D01*
X-3550Y-960D01*
X-3550Y-967D01*
X-3599Y-967D01*
X-3599Y-960D01*
X-3602Y-960D01*
X-3602Y-860D01*
X-3599Y-860D01*
X-3599Y-422D01*
X-3661Y-360D01*
X-3673Y-360D01*
X-3765Y-398D01*
X-3836Y-468D01*
X-3844Y-490D01*
X-3888Y-508D01*
X-3922Y-541D01*
X-3940Y-586D01*
X-3941Y-633D01*
X-3941Y-750D01*
X-4003Y-750D01*
X-4256Y-497D01*
X-4256Y-77D01*
X-4221Y-77D01*
X-4212Y-98D01*
X-4142Y-169D01*
X-4050Y-207D01*
X-3936Y-207D01*
X-3874Y-144D01*
X-3874Y190D01*
X-3881Y190D01*
X-3881Y290D01*
X-3874Y290D01*
X-3874Y405D01*
X-3874Y624D01*
X-3874Y740D01*
X-3881Y740D01*
X-3881Y840D01*
X-3874Y840D01*
X-3874Y847D01*
X-3774Y847D01*
X-3774Y840D01*
X-3766Y840D01*
X-3766Y740D01*
X-3774Y740D01*
X-3774Y624D01*
X-3774Y405D01*
X-3774Y290D01*
X-3766Y290D01*
X-3766Y190D01*
X-3774Y190D01*
X-3774Y-144D01*
X-3711Y-207D01*
X-3618Y-207D01*
X-3608Y-223D01*
X-3538Y-293D01*
X-3538Y-359D01*
X-3488Y-360D01*
G54D10*
G36*
X-1373Y-3836D02*
X-2083Y-4546D01*
X-2117Y-4598D01*
X-2130Y-4660D01*
X-2130Y-4923D01*
X-2231Y-4821D01*
X-2283Y-4787D01*
X-2345Y-4775D01*
X-2795Y-4775D01*
X-2856Y-4787D01*
X-2908Y-4821D01*
X-3010Y-4923D01*
X-3010Y-4640D01*
X-2850Y-4480D01*
X-2850Y-4210D01*
X-3080Y-4210D01*
X-3080Y-4299D01*
X-3320Y-4539D01*
X-3320Y-5052D01*
X-3320Y-5053D01*
X-3320Y-5082D01*
X-3353Y-5115D01*
X-3353Y-5553D01*
X-3350Y-5553D01*
X-3350Y-5653D01*
X-3353Y-5653D01*
X-3353Y-5660D01*
X-3402Y-5660D01*
X-3402Y-5653D01*
X-3405Y-5653D01*
X-3405Y-5553D01*
X-3402Y-5553D01*
X-3402Y-5115D01*
X-3464Y-5053D01*
X-3476Y-5053D01*
X-3568Y-5091D01*
X-3571Y-5093D01*
X-3581Y-5084D01*
X-3673Y-5046D01*
X-3685Y-5046D01*
X-3747Y-5108D01*
X-3747Y-5546D01*
X-3744Y-5546D01*
X-3744Y-5646D01*
X-3747Y-5646D01*
X-3747Y-5653D01*
X-3796Y-5653D01*
X-3796Y-5646D01*
X-4008Y-5646D01*
X-4071Y-5708D01*
X-4071Y-5900D01*
X-4145Y-5900D01*
X-4206Y-5912D01*
X-4258Y-5946D01*
X-4407Y-6096D01*
X-4502Y-6096D01*
X-4502Y-6061D01*
X-4481Y-6052D01*
X-4410Y-5982D01*
X-4372Y-5890D01*
X-4373Y-5776D01*
X-4435Y-5714D01*
X-4770Y-5714D01*
X-4770Y-5721D01*
X-4870Y-5721D01*
X-4870Y-5714D01*
X-5002Y-5714D01*
X-5035Y-5681D01*
X-5370Y-5681D01*
X-5370Y-5995D01*
X-5307Y-6058D01*
X-5272Y-6058D01*
X-5173Y-6057D01*
X-5159Y-6052D01*
X-5158Y-6052D01*
X-5136Y-6061D01*
X-5137Y-6102D01*
X-5137Y-6456D01*
X-5118Y-6500D01*
X-5085Y-6534D01*
X-5060Y-6544D01*
X-5096Y-6580D01*
X-5300Y-6580D01*
X-5361Y-6592D01*
X-5413Y-6626D01*
X-5462Y-6676D01*
X-5462Y-5862D01*
X-5463Y-5748D01*
X-5470Y-5741D01*
X-5470Y-5681D01*
X-5804Y-5681D01*
X-5809Y-5686D01*
X-5860Y-5686D01*
X-5860Y-5736D01*
X-5867Y-5743D01*
X-5867Y-5857D01*
X-5860Y-5874D01*
X-5860Y-6000D01*
X-5797Y-6063D01*
X-5762Y-6063D01*
X-5663Y-6062D01*
X-5651Y-6057D01*
X-5567Y-6058D01*
X-5532Y-6058D01*
X-5470Y-5995D01*
X-5470Y-5879D01*
X-5462Y-5862D01*
X-5462Y-6676D01*
X-5686Y-6900D01*
X-5747Y-6899D01*
X-5835Y-6936D01*
X-5903Y-7003D01*
X-5939Y-7092D01*
X-5940Y-7187D01*
X-5903Y-7275D01*
X-5836Y-7343D01*
X-5747Y-7379D01*
X-5652Y-7380D01*
X-5564Y-7343D01*
X-5496Y-7276D01*
X-5460Y-7187D01*
X-5459Y-7126D01*
X-5233Y-6900D01*
X-5030Y-6900D01*
X-4968Y-6887D01*
X-4968Y-6887D01*
X-4916Y-6853D01*
X-4706Y-6643D01*
X-4706Y-6643D01*
X-4672Y-6591D01*
X-4664Y-6553D01*
X-4599Y-6553D01*
X-4555Y-6534D01*
X-4521Y-6501D01*
X-4503Y-6456D01*
X-4502Y-6416D01*
X-4341Y-6416D01*
X-4289Y-6405D01*
X-4292Y-6413D01*
X-4293Y-6512D01*
X-4293Y-6547D01*
X-4230Y-6610D01*
X-3916Y-6610D01*
X-3916Y-6602D01*
X-3816Y-6602D01*
X-3816Y-6610D01*
X-3808Y-6610D01*
X-3808Y-6710D01*
X-3816Y-6710D01*
X-3816Y-6825D01*
X-3816Y-7044D01*
X-3816Y-7160D01*
X-3808Y-7160D01*
X-3808Y-7260D01*
X-3816Y-7260D01*
X-3816Y-7267D01*
X-3916Y-7267D01*
X-3916Y-7260D01*
X-3916Y-7160D01*
X-3916Y-7044D01*
X-3916Y-6825D01*
X-3916Y-6710D01*
X-4230Y-6710D01*
X-4293Y-6772D01*
X-4293Y-6807D01*
X-4292Y-6906D01*
X-4281Y-6935D01*
X-4292Y-6963D01*
X-4293Y-7062D01*
X-4293Y-7097D01*
X-4230Y-7160D01*
X-3916Y-7160D01*
X-3916Y-7260D01*
X-4230Y-7260D01*
X-4293Y-7322D01*
X-4293Y-7357D01*
X-4292Y-7456D01*
X-4254Y-7548D01*
X-4184Y-7619D01*
X-4092Y-7657D01*
X-3978Y-7657D01*
X-3916Y-7594D01*
X-3916Y-7657D01*
X-3916Y-7657D01*
X-3902Y-7657D01*
X-3916Y-7671D01*
X-4540Y-8309D01*
X-4540Y-8290D01*
X-5960Y-8290D01*
X-6044Y-8290D01*
X-6044Y-7214D01*
X-6045Y-6962D01*
X-6107Y-6900D01*
X-6600Y-6900D01*
X-6600Y-7352D01*
X-6537Y-7415D01*
X-6344Y-7415D01*
X-6245Y-7414D01*
X-6153Y-7376D01*
X-6082Y-7306D01*
X-6044Y-7214D01*
X-6044Y-8290D01*
X-6150Y-8290D01*
X-6193Y-8332D01*
X-6175Y-8288D01*
X-6174Y-8241D01*
X-6174Y-7611D01*
X-6193Y-7567D01*
X-6226Y-7533D01*
X-6271Y-7515D01*
X-6318Y-7514D01*
X-7028Y-7514D01*
X-7072Y-7533D01*
X-7106Y-7566D01*
X-7124Y-7611D01*
X-7125Y-7658D01*
X-7125Y-7710D01*
X-7226Y-7710D01*
X-7213Y-7676D01*
X-7212Y-7629D01*
X-7212Y-7310D01*
X-7146Y-7376D01*
X-7054Y-7414D01*
X-6955Y-7415D01*
X-6762Y-7415D01*
X-6700Y-7352D01*
X-6700Y-6900D01*
X-6707Y-6900D01*
X-6707Y-6800D01*
X-6700Y-6800D01*
X-6700Y-6792D01*
X-6600Y-6792D01*
X-6600Y-6800D01*
X-6107Y-6800D01*
X-6045Y-6737D01*
X-6044Y-6485D01*
X-6082Y-6393D01*
X-6153Y-6323D01*
X-6245Y-6285D01*
X-6344Y-6284D01*
X-6501Y-6284D01*
X-6501Y-6247D01*
X-6502Y-6212D01*
X-6564Y-6150D01*
X-6879Y-6150D01*
X-6879Y-6157D01*
X-6979Y-6157D01*
X-6979Y-6150D01*
X-6986Y-6150D01*
X-6986Y-6050D01*
X-6979Y-6050D01*
X-6979Y-6042D01*
X-6879Y-6042D01*
X-6879Y-6050D01*
X-6564Y-6050D01*
X-6502Y-5987D01*
X-6501Y-5952D01*
X-6502Y-5853D01*
X-6540Y-5761D01*
X-6542Y-5758D01*
X-6493Y-5709D01*
X-6432Y-5710D01*
X-6357Y-5678D01*
X-6357Y-5686D01*
X-6294Y-5686D01*
X-6357Y-5748D01*
X-6357Y-5862D01*
X-6319Y-5954D01*
X-6248Y-6024D01*
X-6156Y-6062D01*
X-6057Y-6063D01*
X-6022Y-6063D01*
X-5960Y-6000D01*
X-5960Y-5686D01*
X-5967Y-5686D01*
X-5967Y-5586D01*
X-5960Y-5586D01*
X-5960Y-5578D01*
X-5860Y-5578D01*
X-5860Y-5586D01*
X-5525Y-5586D01*
X-5520Y-5581D01*
X-5470Y-5581D01*
X-5470Y-5573D01*
X-5370Y-5573D01*
X-5370Y-5581D01*
X-5237Y-5581D01*
X-5204Y-5614D01*
X-4870Y-5614D01*
X-4870Y-5299D01*
X-4932Y-5237D01*
X-4967Y-5236D01*
X-5066Y-5237D01*
X-5080Y-5242D01*
X-5081Y-5242D01*
X-5103Y-5233D01*
X-5102Y-5199D01*
X-4824Y-5199D01*
X-4762Y-5186D01*
X-4762Y-5186D01*
X-4710Y-5152D01*
X-4556Y-4998D01*
X-4556Y-4998D01*
X-4522Y-4946D01*
X-4518Y-4930D01*
X-4346Y-4930D01*
X-4324Y-4921D01*
X-4285Y-4921D01*
X-4256Y-4949D01*
X-4286Y-4980D01*
X-4347Y-4979D01*
X-4435Y-5016D01*
X-4503Y-5083D01*
X-4539Y-5172D01*
X-4540Y-5250D01*
X-4573Y-5237D01*
X-4672Y-5236D01*
X-4707Y-5237D01*
X-4770Y-5299D01*
X-4770Y-5614D01*
X-4435Y-5614D01*
X-4373Y-5551D01*
X-4372Y-5449D01*
X-4347Y-5459D01*
X-4252Y-5460D01*
X-4164Y-5423D01*
X-4096Y-5356D01*
X-4071Y-5294D01*
X-4071Y-5483D01*
X-4008Y-5546D01*
X-3796Y-5546D01*
X-3796Y-5108D01*
X-3858Y-5046D01*
X-3870Y-5046D01*
X-3941Y-5075D01*
X-3932Y-5061D01*
X-3920Y-5000D01*
X-3920Y-5000D01*
X-3920Y-4900D01*
X-3932Y-4838D01*
X-3966Y-4786D01*
X-4029Y-4724D01*
X-4015Y-4724D01*
X-3966Y-4773D01*
X-3877Y-4809D01*
X-3782Y-4810D01*
X-3694Y-4773D01*
X-3626Y-4706D01*
X-3590Y-4617D01*
X-3589Y-4522D01*
X-3626Y-4434D01*
X-3693Y-4366D01*
X-3782Y-4330D01*
X-3830Y-4329D01*
X-3766Y-4266D01*
X-3730Y-4177D01*
X-3729Y-4082D01*
X-3766Y-3994D01*
X-3833Y-3926D01*
X-3842Y-3922D01*
X-3793Y-3890D01*
X-3536Y-3633D01*
X-3502Y-3581D01*
X-3490Y-3520D01*
X-3490Y-3520D01*
X-3490Y-2579D01*
X-3466Y-2603D01*
X-3377Y-2639D01*
X-3282Y-2640D01*
X-3194Y-2603D01*
X-3126Y-2536D01*
X-3090Y-2447D01*
X-3089Y-2352D01*
X-3126Y-2264D01*
X-3170Y-2220D01*
X-3170Y-2040D01*
X-3182Y-1978D01*
X-3216Y-1926D01*
X-3216Y-1926D01*
X-3463Y-1680D01*
X-3400Y-1680D01*
X-3140Y-1940D01*
X-3080Y-1940D01*
X-3080Y-2060D01*
X-2860Y-2060D01*
X-2860Y-1859D01*
X-3279Y-1440D01*
X-3427Y-1440D01*
X-3384Y-1421D01*
X-3313Y-1351D01*
X-3305Y-1329D01*
X-3279Y-1319D01*
X-3253Y-1329D01*
X-3206Y-1330D01*
X-3108Y-1330D01*
X-3082Y-1319D01*
X-3056Y-1329D01*
X-3009Y-1330D01*
X-2911Y-1330D01*
X-2885Y-1319D01*
X-2860Y-1329D01*
X-2813Y-1330D01*
X-2715Y-1330D01*
X-2689Y-1319D01*
X-2663Y-1329D01*
X-2616Y-1330D01*
X-2554Y-1330D01*
X-2554Y-1361D01*
X-2541Y-1422D01*
X-2507Y-1474D01*
X-2433Y-1548D01*
X-2433Y-1548D01*
X-2381Y-1582D01*
X-2320Y-1595D01*
X-1945Y-1595D01*
X-1470Y-1595D01*
X-1408Y-1582D01*
X-1408Y-1582D01*
X-1373Y-1558D01*
X-1373Y-3836D01*
X-1373Y-3836D01*
G37*
G54D49*
X-1373Y-3836D02*
X-2083Y-4546D01*
X-2117Y-4598D01*
X-2130Y-4660D01*
X-2130Y-4923D01*
X-2231Y-4821D01*
X-2283Y-4787D01*
X-2345Y-4775D01*
X-2795Y-4775D01*
X-2856Y-4787D01*
X-2908Y-4821D01*
X-3010Y-4923D01*
X-3010Y-4640D01*
X-2850Y-4480D01*
X-2850Y-4210D01*
X-3080Y-4210D01*
X-3080Y-4299D01*
X-3320Y-4539D01*
X-3320Y-5052D01*
X-3320Y-5053D01*
X-3320Y-5082D01*
X-3353Y-5115D01*
X-3353Y-5553D01*
X-3350Y-5553D01*
X-3350Y-5653D01*
X-3353Y-5653D01*
X-3353Y-5660D01*
X-3402Y-5660D01*
X-3402Y-5653D01*
X-3405Y-5653D01*
X-3405Y-5553D01*
X-3402Y-5553D01*
X-3402Y-5115D01*
X-3464Y-5053D01*
X-3476Y-5053D01*
X-3568Y-5091D01*
X-3571Y-5093D01*
X-3581Y-5084D01*
X-3673Y-5046D01*
X-3685Y-5046D01*
X-3747Y-5108D01*
X-3747Y-5546D01*
X-3744Y-5546D01*
X-3744Y-5646D01*
X-3747Y-5646D01*
X-3747Y-5653D01*
X-3796Y-5653D01*
X-3796Y-5646D01*
X-4008Y-5646D01*
X-4071Y-5708D01*
X-4071Y-5900D01*
X-4145Y-5900D01*
X-4206Y-5912D01*
X-4258Y-5946D01*
X-4407Y-6096D01*
X-4502Y-6096D01*
X-4502Y-6061D01*
X-4481Y-6052D01*
X-4410Y-5982D01*
X-4372Y-5890D01*
X-4373Y-5776D01*
X-4435Y-5714D01*
X-4770Y-5714D01*
X-4770Y-5721D01*
X-4870Y-5721D01*
X-4870Y-5714D01*
X-5002Y-5714D01*
X-5035Y-5681D01*
X-5370Y-5681D01*
X-5370Y-5995D01*
X-5307Y-6058D01*
X-5272Y-6058D01*
X-5173Y-6057D01*
X-5159Y-6052D01*
X-5158Y-6052D01*
X-5136Y-6061D01*
X-5137Y-6102D01*
X-5137Y-6456D01*
X-5118Y-6500D01*
X-5085Y-6534D01*
X-5060Y-6544D01*
X-5096Y-6580D01*
X-5300Y-6580D01*
X-5361Y-6592D01*
X-5413Y-6626D01*
X-5462Y-6676D01*
X-5462Y-5862D01*
X-5463Y-5748D01*
X-5470Y-5741D01*
X-5470Y-5681D01*
X-5804Y-5681D01*
X-5809Y-5686D01*
X-5860Y-5686D01*
X-5860Y-5736D01*
X-5867Y-5743D01*
X-5867Y-5857D01*
X-5860Y-5874D01*
X-5860Y-6000D01*
X-5797Y-6063D01*
X-5762Y-6063D01*
X-5663Y-6062D01*
X-5651Y-6057D01*
X-5567Y-6058D01*
X-5532Y-6058D01*
X-5470Y-5995D01*
X-5470Y-5879D01*
X-5462Y-5862D01*
X-5462Y-6676D01*
X-5686Y-6900D01*
X-5747Y-6899D01*
X-5835Y-6936D01*
X-5903Y-7003D01*
X-5939Y-7092D01*
X-5940Y-7187D01*
X-5903Y-7275D01*
X-5836Y-7343D01*
X-5747Y-7379D01*
X-5652Y-7380D01*
X-5564Y-7343D01*
X-5496Y-7276D01*
X-5460Y-7187D01*
X-5459Y-7126D01*
X-5233Y-6900D01*
X-5030Y-6900D01*
X-4968Y-6887D01*
X-4968Y-6887D01*
X-4916Y-6853D01*
X-4706Y-6643D01*
X-4706Y-6643D01*
X-4672Y-6591D01*
X-4664Y-6553D01*
X-4599Y-6553D01*
X-4555Y-6534D01*
X-4521Y-6501D01*
X-4503Y-6456D01*
X-4502Y-6416D01*
X-4341Y-6416D01*
X-4289Y-6405D01*
X-4292Y-6413D01*
X-4293Y-6512D01*
X-4293Y-6547D01*
X-4230Y-6610D01*
X-3916Y-6610D01*
X-3916Y-6602D01*
X-3816Y-6602D01*
X-3816Y-6610D01*
X-3808Y-6610D01*
X-3808Y-6710D01*
X-3816Y-6710D01*
X-3816Y-6825D01*
X-3816Y-7044D01*
X-3816Y-7160D01*
X-3808Y-7160D01*
X-3808Y-7260D01*
X-3816Y-7260D01*
X-3816Y-7267D01*
X-3916Y-7267D01*
X-3916Y-7260D01*
X-3916Y-7160D01*
X-3916Y-7044D01*
X-3916Y-6825D01*
X-3916Y-6710D01*
X-4230Y-6710D01*
X-4293Y-6772D01*
X-4293Y-6807D01*
X-4292Y-6906D01*
X-4281Y-6935D01*
X-4292Y-6963D01*
X-4293Y-7062D01*
X-4293Y-7097D01*
X-4230Y-7160D01*
X-3916Y-7160D01*
X-3916Y-7260D01*
X-4230Y-7260D01*
X-4293Y-7322D01*
X-4293Y-7357D01*
X-4292Y-7456D01*
X-4254Y-7548D01*
X-4184Y-7619D01*
X-4092Y-7657D01*
X-3978Y-7657D01*
X-3916Y-7594D01*
X-3916Y-7657D01*
X-3916Y-7657D01*
X-3902Y-7657D01*
X-3916Y-7671D01*
X-4540Y-8309D01*
X-4540Y-8290D01*
X-5960Y-8290D01*
X-6044Y-8290D01*
X-6044Y-7214D01*
X-6045Y-6962D01*
X-6107Y-6900D01*
X-6600Y-6900D01*
X-6600Y-7352D01*
X-6537Y-7415D01*
X-6344Y-7415D01*
X-6245Y-7414D01*
X-6153Y-7376D01*
X-6082Y-7306D01*
X-6044Y-7214D01*
X-6044Y-8290D01*
X-6150Y-8290D01*
X-6193Y-8332D01*
X-6175Y-8288D01*
X-6174Y-8241D01*
X-6174Y-7611D01*
X-6193Y-7567D01*
X-6226Y-7533D01*
X-6271Y-7515D01*
X-6318Y-7514D01*
X-7028Y-7514D01*
X-7072Y-7533D01*
X-7106Y-7566D01*
X-7124Y-7611D01*
X-7125Y-7658D01*
X-7125Y-7710D01*
X-7226Y-7710D01*
X-7213Y-7676D01*
X-7212Y-7629D01*
X-7212Y-7310D01*
X-7146Y-7376D01*
X-7054Y-7414D01*
X-6955Y-7415D01*
X-6762Y-7415D01*
X-6700Y-7352D01*
X-6700Y-6900D01*
X-6707Y-6900D01*
X-6707Y-6800D01*
X-6700Y-6800D01*
X-6700Y-6792D01*
X-6600Y-6792D01*
X-6600Y-6800D01*
X-6107Y-6800D01*
X-6045Y-6737D01*
X-6044Y-6485D01*
X-6082Y-6393D01*
X-6153Y-6323D01*
X-6245Y-6285D01*
X-6344Y-6284D01*
X-6501Y-6284D01*
X-6501Y-6247D01*
X-6502Y-6212D01*
X-6564Y-6150D01*
X-6879Y-6150D01*
X-6879Y-6157D01*
X-6979Y-6157D01*
X-6979Y-6150D01*
X-6986Y-6150D01*
X-6986Y-6050D01*
X-6979Y-6050D01*
X-6979Y-6042D01*
X-6879Y-6042D01*
X-6879Y-6050D01*
X-6564Y-6050D01*
X-6502Y-5987D01*
X-6501Y-5952D01*
X-6502Y-5853D01*
X-6540Y-5761D01*
X-6542Y-5758D01*
X-6493Y-5709D01*
X-6432Y-5710D01*
X-6357Y-5678D01*
X-6357Y-5686D01*
X-6294Y-5686D01*
X-6357Y-5748D01*
X-6357Y-5862D01*
X-6319Y-5954D01*
X-6248Y-6024D01*
X-6156Y-6062D01*
X-6057Y-6063D01*
X-6022Y-6063D01*
X-5960Y-6000D01*
X-5960Y-5686D01*
X-5967Y-5686D01*
X-5967Y-5586D01*
X-5960Y-5586D01*
X-5960Y-5578D01*
X-5860Y-5578D01*
X-5860Y-5586D01*
X-5525Y-5586D01*
X-5520Y-5581D01*
X-5470Y-5581D01*
X-5470Y-5573D01*
X-5370Y-5573D01*
X-5370Y-5581D01*
X-5237Y-5581D01*
X-5204Y-5614D01*
X-4870Y-5614D01*
X-4870Y-5299D01*
X-4932Y-5237D01*
X-4967Y-5236D01*
X-5066Y-5237D01*
X-5080Y-5242D01*
X-5081Y-5242D01*
X-5103Y-5233D01*
X-5102Y-5199D01*
X-4824Y-5199D01*
X-4762Y-5186D01*
X-4762Y-5186D01*
X-4710Y-5152D01*
X-4556Y-4998D01*
X-4556Y-4998D01*
X-4522Y-4946D01*
X-4518Y-4930D01*
X-4346Y-4930D01*
X-4324Y-4921D01*
X-4285Y-4921D01*
X-4256Y-4949D01*
X-4286Y-4980D01*
X-4347Y-4979D01*
X-4435Y-5016D01*
X-4503Y-5083D01*
X-4539Y-5172D01*
X-4540Y-5250D01*
X-4573Y-5237D01*
X-4672Y-5236D01*
X-4707Y-5237D01*
X-4770Y-5299D01*
X-4770Y-5614D01*
X-4435Y-5614D01*
X-4373Y-5551D01*
X-4372Y-5449D01*
X-4347Y-5459D01*
X-4252Y-5460D01*
X-4164Y-5423D01*
X-4096Y-5356D01*
X-4071Y-5294D01*
X-4071Y-5483D01*
X-4008Y-5546D01*
X-3796Y-5546D01*
X-3796Y-5108D01*
X-3858Y-5046D01*
X-3870Y-5046D01*
X-3941Y-5075D01*
X-3932Y-5061D01*
X-3920Y-5000D01*
X-3920Y-5000D01*
X-3920Y-4900D01*
X-3932Y-4838D01*
X-3966Y-4786D01*
X-4029Y-4724D01*
X-4015Y-4724D01*
X-3966Y-4773D01*
X-3877Y-4809D01*
X-3782Y-4810D01*
X-3694Y-4773D01*
X-3626Y-4706D01*
X-3590Y-4617D01*
X-3589Y-4522D01*
X-3626Y-4434D01*
X-3693Y-4366D01*
X-3782Y-4330D01*
X-3830Y-4329D01*
X-3766Y-4266D01*
X-3730Y-4177D01*
X-3729Y-4082D01*
X-3766Y-3994D01*
X-3833Y-3926D01*
X-3842Y-3922D01*
X-3793Y-3890D01*
X-3536Y-3633D01*
X-3502Y-3581D01*
X-3490Y-3520D01*
X-3490Y-3520D01*
X-3490Y-2579D01*
X-3466Y-2603D01*
X-3377Y-2639D01*
X-3282Y-2640D01*
X-3194Y-2603D01*
X-3126Y-2536D01*
X-3090Y-2447D01*
X-3089Y-2352D01*
X-3126Y-2264D01*
X-3170Y-2220D01*
X-3170Y-2040D01*
X-3182Y-1978D01*
X-3216Y-1926D01*
X-3216Y-1926D01*
X-3463Y-1680D01*
X-3400Y-1680D01*
X-3140Y-1940D01*
X-3080Y-1940D01*
X-3080Y-2060D01*
X-2860Y-2060D01*
X-2860Y-1859D01*
X-3279Y-1440D01*
X-3427Y-1440D01*
X-3384Y-1421D01*
X-3313Y-1351D01*
X-3305Y-1329D01*
X-3279Y-1319D01*
X-3253Y-1329D01*
X-3206Y-1330D01*
X-3108Y-1330D01*
X-3082Y-1319D01*
X-3056Y-1329D01*
X-3009Y-1330D01*
X-2911Y-1330D01*
X-2885Y-1319D01*
X-2860Y-1329D01*
X-2813Y-1330D01*
X-2715Y-1330D01*
X-2689Y-1319D01*
X-2663Y-1329D01*
X-2616Y-1330D01*
X-2554Y-1330D01*
X-2554Y-1361D01*
X-2541Y-1422D01*
X-2507Y-1474D01*
X-2433Y-1548D01*
X-2433Y-1548D01*
X-2381Y-1582D01*
X-2320Y-1595D01*
X-1945Y-1595D01*
X-1470Y-1595D01*
X-1408Y-1582D01*
X-1408Y-1582D01*
X-1373Y-1558D01*
X-1373Y-3836D01*
G54D10*
G36*
X105Y-7411D02*
X61Y-7382D01*
X0Y-7370D01*
X-313Y-7370D01*
X-586Y-7096D01*
X-638Y-7062D01*
X-686Y-7052D01*
X-686Y-6989D01*
X-705Y-6945D01*
X-705Y-6945D01*
X-465Y-6945D01*
X-421Y-6926D01*
X-387Y-6893D01*
X-369Y-6848D01*
X-368Y-6801D01*
X-368Y-6211D01*
X-387Y-6167D01*
X-420Y-6133D01*
X-465Y-6115D01*
X-512Y-6114D01*
X-594Y-6114D01*
X-597Y-6103D01*
X-631Y-6051D01*
X-631Y-6051D01*
X-695Y-5988D01*
X-671Y-5964D01*
X-653Y-5919D01*
X-652Y-5872D01*
X-652Y-5272D01*
X-671Y-5228D01*
X-704Y-5194D01*
X-749Y-5176D01*
X-796Y-5175D01*
X-894Y-5175D01*
X-920Y-5186D01*
X-946Y-5176D01*
X-993Y-5175D01*
X-1091Y-5175D01*
X-1117Y-5186D01*
X-1142Y-5176D01*
X-1189Y-5175D01*
X-1287Y-5175D01*
X-1313Y-5186D01*
X-1339Y-5176D01*
X-1339Y-5176D01*
X-1347Y-5154D01*
X-1418Y-5084D01*
X-1510Y-5046D01*
X-1522Y-5046D01*
X-1584Y-5108D01*
X-1584Y-5546D01*
X-1581Y-5546D01*
X-1581Y-5646D01*
X-1584Y-5646D01*
X-1584Y-5653D01*
X-1633Y-5653D01*
X-1633Y-5646D01*
X-1636Y-5646D01*
X-1636Y-5546D01*
X-1633Y-5546D01*
X-1633Y-5108D01*
X-1695Y-5046D01*
X-1707Y-5046D01*
X-1728Y-5054D01*
X-1810Y-4973D01*
X-1810Y-4726D01*
X-1099Y-4016D01*
X-1099Y-4016D01*
X-1065Y-3964D01*
X-1053Y-3903D01*
X-1053Y-3903D01*
X-1053Y-1330D01*
X-1041Y-1330D01*
X-979Y-1330D01*
X-979Y-2436D01*
X-966Y-2497D01*
X-932Y-2549D01*
X-623Y-2858D01*
X-623Y-3185D01*
X-623Y-3186D01*
X-623Y-3580D01*
X-623Y-3973D01*
X-623Y-4367D01*
X-623Y-4717D01*
X-610Y-4778D01*
X-576Y-4830D01*
X-532Y-4874D01*
X-532Y-4874D01*
X-480Y-4908D01*
X-419Y-4921D01*
X-329Y-4921D01*
X-307Y-4929D01*
X-260Y-4930D01*
X-144Y-4930D01*
X-144Y-7096D01*
X-131Y-7157D01*
X-97Y-7209D01*
X105Y-7411D01*
X105Y-7411D01*
G37*
G54D49*
X105Y-7411D02*
X61Y-7382D01*
X0Y-7370D01*
X-313Y-7370D01*
X-586Y-7096D01*
X-638Y-7062D01*
X-686Y-7052D01*
X-686Y-6989D01*
X-705Y-6945D01*
X-705Y-6945D01*
X-465Y-6945D01*
X-421Y-6926D01*
X-387Y-6893D01*
X-369Y-6848D01*
X-368Y-6801D01*
X-368Y-6211D01*
X-387Y-6167D01*
X-420Y-6133D01*
X-465Y-6115D01*
X-512Y-6114D01*
X-594Y-6114D01*
X-597Y-6103D01*
X-631Y-6051D01*
X-631Y-6051D01*
X-695Y-5988D01*
X-671Y-5964D01*
X-653Y-5919D01*
X-652Y-5872D01*
X-652Y-5272D01*
X-671Y-5228D01*
X-704Y-5194D01*
X-749Y-5176D01*
X-796Y-5175D01*
X-894Y-5175D01*
X-920Y-5186D01*
X-946Y-5176D01*
X-993Y-5175D01*
X-1091Y-5175D01*
X-1117Y-5186D01*
X-1142Y-5176D01*
X-1189Y-5175D01*
X-1287Y-5175D01*
X-1313Y-5186D01*
X-1339Y-5176D01*
X-1339Y-5176D01*
X-1347Y-5154D01*
X-1418Y-5084D01*
X-1510Y-5046D01*
X-1522Y-5046D01*
X-1584Y-5108D01*
X-1584Y-5546D01*
X-1581Y-5546D01*
X-1581Y-5646D01*
X-1584Y-5646D01*
X-1584Y-5653D01*
X-1633Y-5653D01*
X-1633Y-5646D01*
X-1636Y-5646D01*
X-1636Y-5546D01*
X-1633Y-5546D01*
X-1633Y-5108D01*
X-1695Y-5046D01*
X-1707Y-5046D01*
X-1728Y-5054D01*
X-1810Y-4973D01*
X-1810Y-4726D01*
X-1099Y-4016D01*
X-1099Y-4016D01*
X-1065Y-3964D01*
X-1053Y-3903D01*
X-1053Y-3903D01*
X-1053Y-1330D01*
X-1041Y-1330D01*
X-979Y-1330D01*
X-979Y-2436D01*
X-966Y-2497D01*
X-932Y-2549D01*
X-623Y-2858D01*
X-623Y-3185D01*
X-623Y-3186D01*
X-623Y-3580D01*
X-623Y-3973D01*
X-623Y-4367D01*
X-623Y-4717D01*
X-610Y-4778D01*
X-576Y-4830D01*
X-532Y-4874D01*
X-532Y-4874D01*
X-480Y-4908D01*
X-419Y-4921D01*
X-329Y-4921D01*
X-307Y-4929D01*
X-260Y-4930D01*
X-144Y-4930D01*
X-144Y-7096D01*
X-131Y-7157D01*
X-97Y-7209D01*
X105Y-7411D01*
G54D10*
G36*
X2274Y-8285D02*
X2262Y-8314D01*
X2261Y-8361D01*
X2261Y-8375D01*
X2155Y-8375D01*
X2093Y-8387D01*
X2044Y-8420D01*
X2044Y-8420D01*
X1982Y-8419D01*
X1894Y-8456D01*
X1826Y-8523D01*
X1790Y-8612D01*
X1789Y-8707D01*
X1826Y-8795D01*
X1893Y-8863D01*
X1982Y-8899D01*
X2049Y-8900D01*
X2016Y-8921D01*
X1891Y-9046D01*
X1857Y-9098D01*
X1845Y-9160D01*
X1845Y-9518D01*
X1313Y-10050D01*
X1051Y-10050D01*
X1115Y-10023D01*
X1183Y-9956D01*
X1219Y-9867D01*
X1220Y-9772D01*
X1183Y-9684D01*
X1116Y-9616D01*
X1027Y-9580D01*
X932Y-9579D01*
X844Y-9616D01*
X814Y-9646D01*
X814Y-9591D01*
X796Y-9547D01*
X774Y-9524D01*
X774Y-9517D01*
X921Y-9370D01*
X987Y-9370D01*
X987Y-9406D01*
X1006Y-9450D01*
X1039Y-9484D01*
X1084Y-9502D01*
X1131Y-9503D01*
X1525Y-9503D01*
X1569Y-9484D01*
X1603Y-9451D01*
X1621Y-9406D01*
X1622Y-9359D01*
X1622Y-9011D01*
X1643Y-9002D01*
X1714Y-8932D01*
X1752Y-8840D01*
X1752Y-8387D01*
X1714Y-8295D01*
X1643Y-8225D01*
X1551Y-8187D01*
X1452Y-8186D01*
X1417Y-8187D01*
X1355Y-8249D01*
X1355Y-8564D01*
X1689Y-8564D01*
X1752Y-8501D01*
X1752Y-8387D01*
X1752Y-8840D01*
X1752Y-8726D01*
X1689Y-8664D01*
X1355Y-8664D01*
X1355Y-8671D01*
X1255Y-8671D01*
X1255Y-8664D01*
X1247Y-8664D01*
X1247Y-8564D01*
X1255Y-8564D01*
X1255Y-8249D01*
X1231Y-8226D01*
X1239Y-8185D01*
X1240Y-8185D01*
X1240Y-7635D01*
X1227Y-7573D01*
X1193Y-7521D01*
X968Y-7296D01*
X916Y-7262D01*
X855Y-7250D01*
X396Y-7250D01*
X176Y-7029D01*
X176Y-6045D01*
X203Y-6073D01*
X292Y-6109D01*
X387Y-6110D01*
X475Y-6073D01*
X520Y-6029D01*
X520Y-6410D01*
X532Y-6471D01*
X566Y-6523D01*
X1191Y-7148D01*
X1243Y-7182D01*
X1305Y-7195D01*
X2261Y-7195D01*
X2261Y-7255D01*
X2274Y-7285D01*
X2262Y-7314D01*
X2261Y-7361D01*
X2261Y-7755D01*
X2274Y-7785D01*
X2262Y-7814D01*
X2261Y-7861D01*
X2261Y-8255D01*
X2274Y-8285D01*
X2274Y-8285D01*
G37*
G54D49*
X2274Y-8285D02*
X2262Y-8314D01*
X2261Y-8361D01*
X2261Y-8375D01*
X2155Y-8375D01*
X2093Y-8387D01*
X2044Y-8420D01*
X2044Y-8420D01*
X1982Y-8419D01*
X1894Y-8456D01*
X1826Y-8523D01*
X1790Y-8612D01*
X1789Y-8707D01*
X1826Y-8795D01*
X1893Y-8863D01*
X1982Y-8899D01*
X2049Y-8900D01*
X2016Y-8921D01*
X1891Y-9046D01*
X1857Y-9098D01*
X1845Y-9160D01*
X1845Y-9518D01*
X1313Y-10050D01*
X1051Y-10050D01*
X1115Y-10023D01*
X1183Y-9956D01*
X1219Y-9867D01*
X1220Y-9772D01*
X1183Y-9684D01*
X1116Y-9616D01*
X1027Y-9580D01*
X932Y-9579D01*
X844Y-9616D01*
X814Y-9646D01*
X814Y-9591D01*
X796Y-9547D01*
X774Y-9524D01*
X774Y-9517D01*
X921Y-9370D01*
X987Y-9370D01*
X987Y-9406D01*
X1006Y-9450D01*
X1039Y-9484D01*
X1084Y-9502D01*
X1131Y-9503D01*
X1525Y-9503D01*
X1569Y-9484D01*
X1603Y-9451D01*
X1621Y-9406D01*
X1622Y-9359D01*
X1622Y-9011D01*
X1643Y-9002D01*
X1714Y-8932D01*
X1752Y-8840D01*
X1752Y-8387D01*
X1714Y-8295D01*
X1643Y-8225D01*
X1551Y-8187D01*
X1452Y-8186D01*
X1417Y-8187D01*
X1355Y-8249D01*
X1355Y-8564D01*
X1689Y-8564D01*
X1752Y-8501D01*
X1752Y-8387D01*
X1752Y-8840D01*
X1752Y-8726D01*
X1689Y-8664D01*
X1355Y-8664D01*
X1355Y-8671D01*
X1255Y-8671D01*
X1255Y-8664D01*
X1247Y-8664D01*
X1247Y-8564D01*
X1255Y-8564D01*
X1255Y-8249D01*
X1231Y-8226D01*
X1239Y-8185D01*
X1240Y-8185D01*
X1240Y-7635D01*
X1227Y-7573D01*
X1193Y-7521D01*
X968Y-7296D01*
X916Y-7262D01*
X855Y-7250D01*
X396Y-7250D01*
X176Y-7029D01*
X176Y-6045D01*
X203Y-6073D01*
X292Y-6109D01*
X387Y-6110D01*
X475Y-6073D01*
X520Y-6029D01*
X520Y-6410D01*
X532Y-6471D01*
X566Y-6523D01*
X1191Y-7148D01*
X1243Y-7182D01*
X1305Y-7195D01*
X2261Y-7195D01*
X2261Y-7255D01*
X2274Y-7285D01*
X2262Y-7314D01*
X2261Y-7361D01*
X2261Y-7755D01*
X2274Y-7785D01*
X2262Y-7814D01*
X2261Y-7861D01*
X2261Y-8255D01*
X2274Y-8285D01*
G54D10*
G36*
X3208Y-7585D02*
X3201Y-7585D01*
X3201Y-7592D01*
X3101Y-7592D01*
X3101Y-7585D01*
X3093Y-7585D01*
X3093Y-7485D01*
X3101Y-7485D01*
X3101Y-7477D01*
X3201Y-7477D01*
X3201Y-7485D01*
X3208Y-7485D01*
X3208Y-7585D01*
X3208Y-7585D01*
G37*
G54D49*
X3208Y-7585D02*
X3201Y-7585D01*
X3201Y-7592D01*
X3101Y-7592D01*
X3101Y-7585D01*
X3093Y-7585D01*
X3093Y-7485D01*
X3101Y-7485D01*
X3101Y-7477D01*
X3201Y-7477D01*
X3201Y-7485D01*
X3208Y-7485D01*
X3208Y-7585D01*
G54D10*
G36*
X4211Y-4602D02*
X3891Y-4921D01*
X3857Y-4973D01*
X3845Y-5035D01*
X3845Y-5543D01*
X3557Y-5831D01*
X3577Y-5781D01*
X3578Y-5682D01*
X3578Y-5647D01*
X3515Y-5585D01*
X3201Y-5585D01*
X3201Y-5592D01*
X3101Y-5592D01*
X3101Y-5585D01*
X3093Y-5585D01*
X3093Y-5485D01*
X3101Y-5485D01*
X3101Y-5477D01*
X3201Y-5477D01*
X3201Y-5485D01*
X3515Y-5485D01*
X3578Y-5422D01*
X3578Y-5387D01*
X3577Y-5288D01*
X3539Y-5196D01*
X3529Y-5186D01*
X3546Y-5182D01*
X3546Y-5182D01*
X3598Y-5148D01*
X4200Y-4546D01*
X4211Y-4602D01*
X4211Y-4602D01*
G37*
G54D49*
X4211Y-4602D02*
X3891Y-4921D01*
X3857Y-4973D01*
X3845Y-5035D01*
X3845Y-5543D01*
X3557Y-5831D01*
X3577Y-5781D01*
X3578Y-5682D01*
X3578Y-5647D01*
X3515Y-5585D01*
X3201Y-5585D01*
X3201Y-5592D01*
X3101Y-5592D01*
X3101Y-5585D01*
X3093Y-5585D01*
X3093Y-5485D01*
X3101Y-5485D01*
X3101Y-5477D01*
X3201Y-5477D01*
X3201Y-5485D01*
X3515Y-5485D01*
X3578Y-5422D01*
X3578Y-5387D01*
X3577Y-5288D01*
X3539Y-5196D01*
X3529Y-5186D01*
X3546Y-5182D01*
X3546Y-5182D01*
X3598Y-5148D01*
X4200Y-4546D01*
X4211Y-4602D01*
G54D10*
G36*
X4388Y-1195D02*
X4319Y-1241D01*
X4230Y-1375D01*
X3538Y-1375D01*
X3539Y-1373D01*
X3577Y-1281D01*
X3578Y-1182D01*
X3578Y-887D01*
X3577Y-788D01*
X3576Y-785D01*
X3577Y-781D01*
X3578Y-682D01*
X3578Y-647D01*
X3515Y-585D01*
X3201Y-585D01*
X3201Y-650D01*
X3201Y-919D01*
X3201Y-985D01*
X3515Y-985D01*
X3578Y-922D01*
X3578Y-887D01*
X3578Y-1182D01*
X3578Y-1147D01*
X3515Y-1085D01*
X3201Y-1085D01*
X3201Y-1092D01*
X3101Y-1092D01*
X3101Y-1085D01*
X3093Y-1085D01*
X3093Y-985D01*
X3101Y-985D01*
X3101Y-919D01*
X3101Y-650D01*
X3101Y-585D01*
X3093Y-585D01*
X3093Y-485D01*
X3101Y-485D01*
X3101Y-477D01*
X3201Y-477D01*
X3201Y-485D01*
X3515Y-485D01*
X3578Y-422D01*
X3578Y-387D01*
X3577Y-288D01*
X3539Y-196D01*
X3538Y-195D01*
X3688Y-195D01*
X3995Y-501D01*
X3995Y-835D01*
X4007Y-896D01*
X4041Y-948D01*
X4241Y-1148D01*
X4241Y-1148D01*
X4293Y-1182D01*
X4355Y-1195D01*
X4388Y-1195D01*
X4388Y-1195D01*
G37*
G54D49*
X4388Y-1195D02*
X4319Y-1241D01*
X4230Y-1375D01*
X3538Y-1375D01*
X3539Y-1373D01*
X3577Y-1281D01*
X3578Y-1182D01*
X3578Y-887D01*
X3577Y-788D01*
X3576Y-785D01*
X3577Y-781D01*
X3578Y-682D01*
X3578Y-647D01*
X3515Y-585D01*
X3201Y-585D01*
X3201Y-650D01*
X3201Y-919D01*
X3201Y-985D01*
X3515Y-985D01*
X3578Y-922D01*
X3578Y-887D01*
X3578Y-1182D01*
X3578Y-1147D01*
X3515Y-1085D01*
X3201Y-1085D01*
X3201Y-1092D01*
X3101Y-1092D01*
X3101Y-1085D01*
X3093Y-1085D01*
X3093Y-985D01*
X3101Y-985D01*
X3101Y-919D01*
X3101Y-650D01*
X3101Y-585D01*
X3093Y-585D01*
X3093Y-485D01*
X3101Y-485D01*
X3101Y-477D01*
X3201Y-477D01*
X3201Y-485D01*
X3515Y-485D01*
X3578Y-422D01*
X3578Y-387D01*
X3577Y-288D01*
X3539Y-196D01*
X3538Y-195D01*
X3688Y-195D01*
X3995Y-501D01*
X3995Y-835D01*
X4007Y-896D01*
X4041Y-948D01*
X4241Y-1148D01*
X4241Y-1148D01*
X4293Y-1182D01*
X4355Y-1195D01*
X4388Y-1195D01*
G54D10*
G36*
X4388Y-2875D02*
X3538Y-2875D01*
X3539Y-2873D01*
X3577Y-2781D01*
X3578Y-2682D01*
X3578Y-2647D01*
X3515Y-2585D01*
X3201Y-2585D01*
X3201Y-2592D01*
X3101Y-2592D01*
X3101Y-2585D01*
X3093Y-2585D01*
X3093Y-2485D01*
X3101Y-2485D01*
X3101Y-2477D01*
X3201Y-2477D01*
X3201Y-2485D01*
X3515Y-2485D01*
X3578Y-2422D01*
X3578Y-2387D01*
X3577Y-2288D01*
X3539Y-2196D01*
X3538Y-2195D01*
X4253Y-2195D01*
X4311Y-2252D01*
X4229Y-2376D01*
X4197Y-2535D01*
X4229Y-2693D01*
X4319Y-2828D01*
X4388Y-2875D01*
X4388Y-2875D01*
G37*
G54D49*
X4388Y-2875D02*
X3538Y-2875D01*
X3539Y-2873D01*
X3577Y-2781D01*
X3578Y-2682D01*
X3578Y-2647D01*
X3515Y-2585D01*
X3201Y-2585D01*
X3201Y-2592D01*
X3101Y-2592D01*
X3101Y-2585D01*
X3093Y-2585D01*
X3093Y-2485D01*
X3101Y-2485D01*
X3101Y-2477D01*
X3201Y-2477D01*
X3201Y-2485D01*
X3515Y-2485D01*
X3578Y-2422D01*
X3578Y-2387D01*
X3577Y-2288D01*
X3539Y-2196D01*
X3538Y-2195D01*
X4253Y-2195D01*
X4311Y-2252D01*
X4229Y-2376D01*
X4197Y-2535D01*
X4229Y-2693D01*
X4319Y-2828D01*
X4388Y-2875D01*
G54D10*
G36*
X4388Y-3195D02*
X4319Y-3241D01*
X4229Y-3376D01*
X4227Y-3385D01*
X4218Y-3387D01*
X4166Y-3421D01*
X3713Y-3875D01*
X3538Y-3875D01*
X3539Y-3873D01*
X3577Y-3781D01*
X3578Y-3682D01*
X3578Y-3647D01*
X3515Y-3585D01*
X3201Y-3585D01*
X3201Y-3592D01*
X3101Y-3592D01*
X3101Y-3585D01*
X3093Y-3585D01*
X3093Y-3485D01*
X3101Y-3485D01*
X3101Y-3477D01*
X3201Y-3477D01*
X3201Y-3485D01*
X3515Y-3485D01*
X3578Y-3422D01*
X3578Y-3387D01*
X3577Y-3288D01*
X3539Y-3196D01*
X3538Y-3195D01*
X4388Y-3195D01*
X4388Y-3195D01*
G37*
G54D49*
X4388Y-3195D02*
X4319Y-3241D01*
X4229Y-3376D01*
X4227Y-3385D01*
X4218Y-3387D01*
X4166Y-3421D01*
X3713Y-3875D01*
X3538Y-3875D01*
X3539Y-3873D01*
X3577Y-3781D01*
X3578Y-3682D01*
X3578Y-3647D01*
X3515Y-3585D01*
X3201Y-3585D01*
X3201Y-3592D01*
X3101Y-3592D01*
X3101Y-3585D01*
X3093Y-3585D01*
X3093Y-3485D01*
X3101Y-3485D01*
X3101Y-3477D01*
X3201Y-3477D01*
X3201Y-3485D01*
X3515Y-3485D01*
X3578Y-3422D01*
X3578Y-3387D01*
X3577Y-3288D01*
X3539Y-3196D01*
X3538Y-3195D01*
X4388Y-3195D01*
G54D10*
G36*
X4415Y-3892D02*
X4371Y-3921D01*
X3578Y-4715D01*
X3578Y-4682D01*
X3578Y-4647D01*
X3515Y-4585D01*
X3201Y-4585D01*
X3201Y-4592D01*
X3101Y-4592D01*
X3101Y-4585D01*
X3093Y-4585D01*
X3093Y-4485D01*
X3101Y-4485D01*
X3101Y-4477D01*
X3201Y-4477D01*
X3201Y-4485D01*
X3515Y-4485D01*
X3578Y-4422D01*
X3578Y-4387D01*
X3577Y-4288D01*
X3539Y-4196D01*
X3538Y-4195D01*
X3780Y-4195D01*
X3841Y-4182D01*
X3841Y-4182D01*
X3893Y-4148D01*
X4276Y-3764D01*
X4319Y-3828D01*
X4415Y-3892D01*
X4415Y-3892D01*
G37*
G54D49*
X4415Y-3892D02*
X4371Y-3921D01*
X3578Y-4715D01*
X3578Y-4682D01*
X3578Y-4647D01*
X3515Y-4585D01*
X3201Y-4585D01*
X3201Y-4592D01*
X3101Y-4592D01*
X3101Y-4585D01*
X3093Y-4585D01*
X3093Y-4485D01*
X3101Y-4485D01*
X3101Y-4477D01*
X3201Y-4477D01*
X3201Y-4485D01*
X3515Y-4485D01*
X3578Y-4422D01*
X3578Y-4387D01*
X3577Y-4288D01*
X3539Y-4196D01*
X3538Y-4195D01*
X3780Y-4195D01*
X3841Y-4182D01*
X3841Y-4182D01*
X3893Y-4148D01*
X4276Y-3764D01*
X4319Y-3828D01*
X4415Y-3892D01*
G54D10*
G36*
X4659Y-7953D02*
X3738Y-8875D01*
X3538Y-8875D01*
X3539Y-8873D01*
X3577Y-8781D01*
X3578Y-8682D01*
X3578Y-8647D01*
X3515Y-8585D01*
X3201Y-8585D01*
X3201Y-8592D01*
X3101Y-8592D01*
X3101Y-8585D01*
X3093Y-8585D01*
X3093Y-8485D01*
X3101Y-8485D01*
X3101Y-8477D01*
X3201Y-8477D01*
X3201Y-8485D01*
X3515Y-8485D01*
X3578Y-8422D01*
X3578Y-8387D01*
X3577Y-8288D01*
X3539Y-8196D01*
X3502Y-8158D01*
X3518Y-8148D01*
X3691Y-7974D01*
X3752Y-7975D01*
X3840Y-7938D01*
X3908Y-7871D01*
X3944Y-7782D01*
X3945Y-7687D01*
X3908Y-7599D01*
X3841Y-7531D01*
X3752Y-7495D01*
X3657Y-7494D01*
X3578Y-7527D01*
X3578Y-7484D01*
X3515Y-7484D01*
X3578Y-7422D01*
X3578Y-7387D01*
X3577Y-7288D01*
X3539Y-7196D01*
X3538Y-7195D01*
X3705Y-7195D01*
X3766Y-7182D01*
X3766Y-7182D01*
X3818Y-7148D01*
X4143Y-6823D01*
X4177Y-6771D01*
X4190Y-6710D01*
X4190Y-6451D01*
X4220Y-6420D01*
X4197Y-6535D01*
X4229Y-6693D01*
X4319Y-6828D01*
X4454Y-6918D01*
X4613Y-6950D01*
X4659Y-6950D01*
X4659Y-7953D01*
X4659Y-7953D01*
G37*
G54D49*
X4659Y-7953D02*
X3738Y-8875D01*
X3538Y-8875D01*
X3539Y-8873D01*
X3577Y-8781D01*
X3578Y-8682D01*
X3578Y-8647D01*
X3515Y-8585D01*
X3201Y-8585D01*
X3201Y-8592D01*
X3101Y-8592D01*
X3101Y-8585D01*
X3093Y-8585D01*
X3093Y-8485D01*
X3101Y-8485D01*
X3101Y-8477D01*
X3201Y-8477D01*
X3201Y-8485D01*
X3515Y-8485D01*
X3578Y-8422D01*
X3578Y-8387D01*
X3577Y-8288D01*
X3539Y-8196D01*
X3502Y-8158D01*
X3518Y-8148D01*
X3691Y-7974D01*
X3752Y-7975D01*
X3840Y-7938D01*
X3908Y-7871D01*
X3944Y-7782D01*
X3945Y-7687D01*
X3908Y-7599D01*
X3841Y-7531D01*
X3752Y-7495D01*
X3657Y-7494D01*
X3578Y-7527D01*
X3578Y-7484D01*
X3515Y-7484D01*
X3578Y-7422D01*
X3578Y-7387D01*
X3577Y-7288D01*
X3539Y-7196D01*
X3538Y-7195D01*
X3705Y-7195D01*
X3766Y-7182D01*
X3766Y-7182D01*
X3818Y-7148D01*
X4143Y-6823D01*
X4177Y-6771D01*
X4190Y-6710D01*
X4190Y-6451D01*
X4220Y-6420D01*
X4197Y-6535D01*
X4229Y-6693D01*
X4319Y-6828D01*
X4454Y-6918D01*
X4613Y-6950D01*
X4659Y-6950D01*
X4659Y-7953D01*
G54D10*
G36*
X6882Y3650D02*
X3760Y3650D01*
X3760Y5037D01*
X3723Y5125D01*
X3656Y5193D01*
X3567Y5229D01*
X3472Y5230D01*
X3384Y5193D01*
X3316Y5126D01*
X3280Y5037D01*
X3279Y4942D01*
X3316Y4854D01*
X3383Y4786D01*
X3472Y4750D01*
X3567Y4749D01*
X3655Y4786D01*
X3723Y4853D01*
X3759Y4942D01*
X3760Y5037D01*
X3760Y3650D01*
X-979Y3650D01*
X-979Y6207D01*
X-1016Y6295D01*
X-1083Y6363D01*
X-1172Y6399D01*
X-1267Y6400D01*
X-1355Y6363D01*
X-1423Y6296D01*
X-1459Y6207D01*
X-1460Y6112D01*
X-1423Y6024D01*
X-1356Y5956D01*
X-1267Y5920D01*
X-1172Y5919D01*
X-1084Y5956D01*
X-1016Y6023D01*
X-980Y6112D01*
X-979Y6207D01*
X-979Y3650D01*
X-3130Y3650D01*
X-4060Y2720D01*
X-4150Y2720D01*
X-4640Y2230D01*
X-4640Y3574D01*
X-4557Y3540D01*
X-4462Y3539D01*
X-4374Y3576D01*
X-4330Y3620D01*
X-3530Y3620D01*
X-3468Y3632D01*
X-3468Y3632D01*
X-3416Y3666D01*
X-2882Y4200D01*
X-2882Y4200D01*
X-2848Y4252D01*
X-2836Y4313D01*
X-2836Y4314D01*
X-2836Y4482D01*
X-2795Y4482D01*
X-2751Y4501D01*
X-2717Y4534D01*
X-2699Y4576D01*
X-2682Y4535D01*
X-2649Y4501D01*
X-2604Y4483D01*
X-2557Y4482D01*
X-2203Y4482D01*
X-2159Y4501D01*
X-2125Y4534D01*
X-2107Y4579D01*
X-2107Y4582D01*
X-2027Y4550D01*
X-1932Y4549D01*
X-1844Y4586D01*
X-1776Y4653D01*
X-1740Y4742D01*
X-1739Y4837D01*
X-1776Y4925D01*
X-1843Y4993D01*
X-1932Y5029D01*
X-2027Y5030D01*
X-2106Y4997D01*
X-2106Y5020D01*
X-2125Y5064D01*
X-2158Y5098D01*
X-2203Y5116D01*
X-2250Y5117D01*
X-2519Y5117D01*
X-2604Y5117D01*
X-2648Y5098D01*
X-2682Y5065D01*
X-2700Y5023D01*
X-2717Y5064D01*
X-2750Y5098D01*
X-2795Y5116D01*
X-2836Y5117D01*
X-2836Y5416D01*
X-2848Y5477D01*
X-2882Y5529D01*
X-2969Y5615D01*
X-2969Y6589D01*
X-2969Y6601D01*
X-3032Y6663D01*
X-3307Y6663D01*
X-3307Y6451D01*
X-3244Y6389D01*
X-3269Y6388D01*
X-3169Y6389D01*
X-3077Y6427D01*
X-3007Y6497D01*
X-2969Y6589D01*
X-2969Y5615D01*
X-3453Y6099D01*
X-3453Y6248D01*
X-3444Y6270D01*
X-3443Y6318D01*
X-3443Y6414D01*
X-3407Y6451D01*
X-3407Y6663D01*
X-3414Y6663D01*
X-3414Y6712D01*
X-3407Y6712D01*
X-3407Y6715D01*
X-3307Y6715D01*
X-3307Y6712D01*
X-3032Y6712D01*
X-2969Y6775D01*
X-2969Y6786D01*
X-3007Y6878D01*
X-3077Y6948D01*
X-3099Y6957D01*
X-3110Y6983D01*
X-3099Y7009D01*
X-3099Y7056D01*
X-3099Y7154D01*
X-3109Y7180D01*
X-3099Y7205D01*
X-3099Y7252D01*
X-3099Y7350D01*
X-3110Y7376D01*
X-3099Y7402D01*
X-3099Y7449D01*
X-3099Y7547D01*
X-3110Y7573D01*
X-3099Y7599D01*
X-3099Y7646D01*
X-3099Y7744D01*
X-3117Y7788D01*
X-3151Y7822D01*
X-3195Y7840D01*
X-3243Y7841D01*
X-3443Y7841D01*
X-3443Y8089D01*
X-3456Y8120D01*
X-3305Y8120D01*
X-3243Y8132D01*
X-3243Y8132D01*
X-3191Y8166D01*
X-3145Y8212D01*
X-3145Y8212D01*
X-3111Y8264D01*
X-3099Y8325D01*
X-3099Y8326D01*
X-3099Y8362D01*
X-3058Y8362D01*
X-3014Y8381D01*
X-2980Y8414D01*
X-2962Y8459D01*
X-2961Y8506D01*
X-2961Y8520D01*
X-2910Y8520D01*
X-2848Y8532D01*
X-2848Y8532D01*
X-2796Y8566D01*
X-2773Y8590D01*
X-2712Y8589D01*
X-2624Y8626D01*
X-2556Y8693D01*
X-2520Y8782D01*
X-2519Y8877D01*
X-2556Y8965D01*
X-2623Y9033D01*
X-2712Y9069D01*
X-2807Y9070D01*
X-2895Y9033D01*
X-2963Y8966D01*
X-2976Y8935D01*
X-2980Y8944D01*
X-3013Y8978D01*
X-3058Y8996D01*
X-3105Y8997D01*
X-3453Y8997D01*
X-3460Y9014D01*
X-3432Y9083D01*
X-3431Y9182D01*
X-3431Y9477D01*
X-3432Y9576D01*
X-3470Y9668D01*
X-3540Y9739D01*
X-3632Y9777D01*
X-3746Y9777D01*
X-3809Y9714D01*
X-3809Y9380D01*
X-3494Y9380D01*
X-3432Y9442D01*
X-3431Y9477D01*
X-3431Y9182D01*
X-3432Y9217D01*
X-3494Y9280D01*
X-3809Y9280D01*
X-3809Y8945D01*
X-3801Y8937D01*
X-3801Y8730D01*
X-3793Y8730D01*
X-3793Y8630D01*
X-3801Y8630D01*
X-3801Y8622D01*
X-3901Y8622D01*
X-3901Y8630D01*
X-3908Y8630D01*
X-3908Y8730D01*
X-3901Y8730D01*
X-3901Y9064D01*
X-3909Y9072D01*
X-3909Y9280D01*
X-3916Y9280D01*
X-3916Y9380D01*
X-3909Y9380D01*
X-3909Y9714D01*
X-3971Y9777D01*
X-4085Y9777D01*
X-4177Y9739D01*
X-4247Y9668D01*
X-4256Y9646D01*
X-4297Y9647D01*
X-4651Y9647D01*
X-4695Y9628D01*
X-4729Y9595D01*
X-4747Y9550D01*
X-4748Y9503D01*
X-4748Y9109D01*
X-4729Y9065D01*
X-4696Y9031D01*
X-4651Y9013D01*
X-4611Y9012D01*
X-4611Y9001D01*
X-4598Y8939D01*
X-4564Y8887D01*
X-4363Y8686D01*
X-4363Y8265D01*
X-4375Y8253D01*
X-4375Y7978D01*
X-4372Y7978D01*
X-4372Y7878D01*
X-4375Y7878D01*
X-4375Y7870D01*
X-4424Y7870D01*
X-4424Y7878D01*
X-4427Y7878D01*
X-4427Y7978D01*
X-4424Y7978D01*
X-4424Y8253D01*
X-4437Y8265D01*
X-4437Y8587D01*
X-4437Y8587D01*
X-4449Y8648D01*
X-4483Y8700D01*
X-4483Y8700D01*
X-4716Y8933D01*
X-4768Y8967D01*
X-4830Y8980D01*
X-5370Y8980D01*
X-5413Y9023D01*
X-5502Y9059D01*
X-5597Y9060D01*
X-5685Y9023D01*
X-5753Y8956D01*
X-5789Y8867D01*
X-5790Y8772D01*
X-5753Y8684D01*
X-5686Y8616D01*
X-5597Y8580D01*
X-5502Y8579D01*
X-5414Y8616D01*
X-5370Y8660D01*
X-4896Y8660D01*
X-4757Y8520D01*
X-4757Y8111D01*
X-4765Y8089D01*
X-4766Y8041D01*
X-4766Y7841D01*
X-5014Y7841D01*
X-5036Y7832D01*
X-5088Y7832D01*
X-5149Y7819D01*
X-5201Y7785D01*
X-5248Y7737D01*
X-5264Y7754D01*
X-5309Y7772D01*
X-5356Y7773D01*
X-5750Y7773D01*
X-5794Y7754D01*
X-5828Y7721D01*
X-5846Y7676D01*
X-5847Y7629D01*
X-5847Y7281D01*
X-5868Y7272D01*
X-5939Y7202D01*
X-5959Y7151D01*
X-5959Y7397D01*
X-5996Y7485D01*
X-6040Y7529D01*
X-6040Y8930D01*
X-5996Y8973D01*
X-5960Y9062D01*
X-5959Y9157D01*
X-5996Y9245D01*
X-6063Y9313D01*
X-6152Y9349D01*
X-6247Y9350D01*
X-6335Y9313D01*
X-6403Y9246D01*
X-6439Y9157D01*
X-6440Y9062D01*
X-6403Y8974D01*
X-6360Y8930D01*
X-6360Y7529D01*
X-6403Y7486D01*
X-6439Y7397D01*
X-6440Y7302D01*
X-6403Y7214D01*
X-6336Y7146D01*
X-6247Y7110D01*
X-6152Y7109D01*
X-6064Y7146D01*
X-5996Y7213D01*
X-5960Y7302D01*
X-5959Y7397D01*
X-5959Y7151D01*
X-5977Y7110D01*
X-5977Y6996D01*
X-5914Y6934D01*
X-5580Y6934D01*
X-5580Y6941D01*
X-5480Y6941D01*
X-5480Y6934D01*
X-5472Y6934D01*
X-5472Y6834D01*
X-5480Y6834D01*
X-5480Y6519D01*
X-5417Y6457D01*
X-5382Y6456D01*
X-5283Y6457D01*
X-5197Y6492D01*
X-5132Y6427D01*
X-5040Y6389D01*
X-4940Y6388D01*
X-4965Y6389D01*
X-4903Y6451D01*
X-4903Y6663D01*
X-4910Y6663D01*
X-4910Y6712D01*
X-4903Y6712D01*
X-4903Y6715D01*
X-4803Y6715D01*
X-4803Y6712D01*
X-4795Y6712D01*
X-4795Y6663D01*
X-4803Y6663D01*
X-4803Y6451D01*
X-4766Y6414D01*
X-4766Y6270D01*
X-4747Y6226D01*
X-4714Y6192D01*
X-4683Y6180D01*
X-4694Y6126D01*
X-4694Y6122D01*
X-4728Y6122D01*
X-4737Y6143D01*
X-4807Y6214D01*
X-4899Y6252D01*
X-5013Y6252D01*
X-5076Y6189D01*
X-5076Y5855D01*
X-5068Y5855D01*
X-5068Y5755D01*
X-5076Y5755D01*
X-5076Y5420D01*
X-5013Y5358D01*
X-4899Y5357D01*
X-4807Y5395D01*
X-4737Y5466D01*
X-4728Y5488D01*
X-4687Y5487D01*
X-4333Y5487D01*
X-4289Y5506D01*
X-4255Y5539D01*
X-4237Y5584D01*
X-4236Y5631D01*
X-4236Y6025D01*
X-4255Y6069D01*
X-4288Y6103D01*
X-4317Y6115D01*
X-4286Y6146D01*
X-4286Y6146D01*
X-4268Y6174D01*
X-4228Y6174D01*
X-4130Y6174D01*
X-4104Y6184D01*
X-4079Y6174D01*
X-4032Y6174D01*
X-3970Y6174D01*
X-3970Y5940D01*
X-3957Y5878D01*
X-3923Y5826D01*
X-3684Y5587D01*
X-3684Y5117D01*
X-3724Y5117D01*
X-3768Y5098D01*
X-3802Y5065D01*
X-3820Y5023D01*
X-3837Y5064D01*
X-3870Y5098D01*
X-3915Y5116D01*
X-3962Y5117D01*
X-4316Y5117D01*
X-4360Y5098D01*
X-4394Y5065D01*
X-4412Y5020D01*
X-4413Y4973D01*
X-4413Y4939D01*
X-4453Y4913D01*
X-4596Y4769D01*
X-4657Y4770D01*
X-4745Y4733D01*
X-4813Y4666D01*
X-4849Y4577D01*
X-4850Y4482D01*
X-4813Y4394D01*
X-4746Y4326D01*
X-4657Y4290D01*
X-4562Y4289D01*
X-4474Y4326D01*
X-4406Y4393D01*
X-4370Y4482D01*
X-4370Y4510D01*
X-4361Y4501D01*
X-4316Y4483D01*
X-4269Y4482D01*
X-3915Y4482D01*
X-3871Y4501D01*
X-3837Y4534D01*
X-3819Y4576D01*
X-3802Y4535D01*
X-3769Y4501D01*
X-3726Y4483D01*
X-3733Y4476D01*
X-3769Y4387D01*
X-3770Y4292D01*
X-3733Y4204D01*
X-3666Y4136D01*
X-3577Y4100D01*
X-3482Y4099D01*
X-3403Y4132D01*
X-3596Y3940D01*
X-4330Y3940D01*
X-4373Y3983D01*
X-4462Y4019D01*
X-4557Y4020D01*
X-4640Y3985D01*
X-4640Y4050D01*
X-4640Y4050D01*
X-4652Y4111D01*
X-4686Y4163D01*
X-4686Y4163D01*
X-4976Y4453D01*
X-5028Y4487D01*
X-5090Y4500D01*
X-5176Y4500D01*
X-5176Y5420D01*
X-5176Y5755D01*
X-5176Y5855D01*
X-5176Y6189D01*
X-5238Y6252D01*
X-5352Y6252D01*
X-5444Y6214D01*
X-5514Y6143D01*
X-5552Y6051D01*
X-5553Y5952D01*
X-5553Y5917D01*
X-5490Y5855D01*
X-5176Y5855D01*
X-5176Y5755D01*
X-5490Y5755D01*
X-5553Y5692D01*
X-5553Y5657D01*
X-5552Y5558D01*
X-5514Y5466D01*
X-5444Y5395D01*
X-5352Y5357D01*
X-5238Y5358D01*
X-5176Y5420D01*
X-5176Y4500D01*
X-5570Y4500D01*
X-5580Y4509D01*
X-5580Y6519D01*
X-5580Y6834D01*
X-5914Y6834D01*
X-5977Y6771D01*
X-5977Y6657D01*
X-5939Y6565D01*
X-5868Y6495D01*
X-5776Y6457D01*
X-5677Y6456D01*
X-5642Y6457D01*
X-5580Y6519D01*
X-5580Y4509D01*
X-5613Y4543D01*
X-5702Y4579D01*
X-5797Y4580D01*
X-5885Y4543D01*
X-5953Y4476D01*
X-5989Y4387D01*
X-5990Y4292D01*
X-5953Y4204D01*
X-5886Y4136D01*
X-5797Y4100D01*
X-5702Y4099D01*
X-5688Y4105D01*
X-5699Y4077D01*
X-5700Y3982D01*
X-5670Y3910D01*
X-5735Y3883D01*
X-5803Y3816D01*
X-5821Y3771D01*
X-5833Y3783D01*
X-5922Y3819D01*
X-6017Y3820D01*
X-6105Y3783D01*
X-6173Y3716D01*
X-6209Y3627D01*
X-6210Y3532D01*
X-6173Y3444D01*
X-6106Y3376D01*
X-6017Y3340D01*
X-5956Y3339D01*
X-5560Y2943D01*
X-5560Y1796D01*
X-6196Y2433D01*
X-6248Y2467D01*
X-6306Y2479D01*
X-6306Y2528D01*
X-6306Y2679D01*
X-6293Y2685D01*
X-6222Y2755D01*
X-6184Y2847D01*
X-6184Y3261D01*
X-6222Y3353D01*
X-6293Y3423D01*
X-6306Y3429D01*
X-6306Y3434D01*
X-6306Y3749D01*
X-6325Y3796D01*
X-6331Y3802D01*
X-6325Y3808D01*
X-6306Y3855D01*
X-6306Y3906D01*
X-6306Y4221D01*
X-6325Y4269D01*
X-6331Y4274D01*
X-6325Y4280D01*
X-6306Y4328D01*
X-6306Y4379D01*
X-6306Y4694D01*
X-6325Y4741D01*
X-6331Y4747D01*
X-6325Y4753D01*
X-6306Y4800D01*
X-6306Y4851D01*
X-6306Y5120D01*
X-6293Y5126D01*
X-6222Y5196D01*
X-6184Y5288D01*
X-6185Y5382D01*
X-6247Y5445D01*
X-6660Y5445D01*
X-6660Y5437D01*
X-6760Y5437D01*
X-6760Y5445D01*
X-6768Y5445D01*
X-6768Y5545D01*
X-6760Y5545D01*
X-6760Y5553D01*
X-6660Y5553D01*
X-6660Y5545D01*
X-6247Y5545D01*
X-6185Y5607D01*
X-6184Y5702D01*
X-6222Y5794D01*
X-6293Y5864D01*
X-6306Y5870D01*
X-6306Y6072D01*
X-6325Y6119D01*
X-6362Y6155D01*
X-6409Y6175D01*
X-6460Y6175D01*
X-6619Y6175D01*
X-6619Y8297D01*
X-6656Y8385D01*
X-6723Y8453D01*
X-6812Y8489D01*
X-6907Y8490D01*
X-6995Y8453D01*
X-7063Y8386D01*
X-7099Y8297D01*
X-7100Y8202D01*
X-7063Y8114D01*
X-7020Y8070D01*
X-7020Y7606D01*
X-7118Y7507D01*
X-7133Y7523D01*
X-7222Y7559D01*
X-7317Y7560D01*
X-7405Y7523D01*
X-7473Y7456D01*
X-7509Y7367D01*
X-7510Y7272D01*
X-7473Y7184D01*
X-7406Y7116D01*
X-7317Y7080D01*
X-7222Y7079D01*
X-7134Y7116D01*
X-7090Y7160D01*
X-7080Y7160D01*
X-7018Y7172D01*
X-7018Y7172D01*
X-6966Y7206D01*
X-6746Y7426D01*
X-6746Y7426D01*
X-6712Y7478D01*
X-6700Y7540D01*
X-6700Y7540D01*
X-6700Y8070D01*
X-6656Y8113D01*
X-6620Y8202D01*
X-6619Y8297D01*
X-6619Y6175D01*
X-7011Y6175D01*
X-7059Y6155D01*
X-7095Y6119D01*
X-7114Y6072D01*
X-7114Y6044D01*
X-7163Y6093D01*
X-7252Y6129D01*
X-7347Y6130D01*
X-7435Y6093D01*
X-7503Y6026D01*
X-7539Y5937D01*
X-7540Y5842D01*
X-7520Y5793D01*
X-7520Y4816D01*
X-7686Y4649D01*
X-7747Y4650D01*
X-7835Y4613D01*
X-7903Y4546D01*
X-7939Y4457D01*
X-7940Y4362D01*
X-7903Y4274D01*
X-7836Y4206D01*
X-7747Y4170D01*
X-7652Y4169D01*
X-7564Y4206D01*
X-7496Y4273D01*
X-7460Y4362D01*
X-7459Y4423D01*
X-7246Y4636D01*
X-7246Y4636D01*
X-7212Y4688D01*
X-7200Y4749D01*
X-7200Y4750D01*
X-7200Y5200D01*
X-7198Y5196D01*
X-7128Y5126D01*
X-7114Y5120D01*
X-7114Y5115D01*
X-7114Y4800D01*
X-7095Y4753D01*
X-7089Y4747D01*
X-7095Y4741D01*
X-7114Y4694D01*
X-7114Y4643D01*
X-7114Y4328D01*
X-7095Y4280D01*
X-7089Y4275D01*
X-7095Y4269D01*
X-7114Y4221D01*
X-7114Y4170D01*
X-7114Y3855D01*
X-7095Y3808D01*
X-7089Y3802D01*
X-7095Y3796D01*
X-7114Y3749D01*
X-7114Y3698D01*
X-7114Y3429D01*
X-7128Y3423D01*
X-7198Y3353D01*
X-7236Y3261D01*
X-7236Y3167D01*
X-7173Y3104D01*
X-6760Y3104D01*
X-6760Y3112D01*
X-6660Y3112D01*
X-6660Y3104D01*
X-6247Y3104D01*
X-6185Y3167D01*
X-6184Y3261D01*
X-6184Y2847D01*
X-6185Y2942D01*
X-6247Y3004D01*
X-6660Y3004D01*
X-6660Y2996D01*
X-6760Y2996D01*
X-6760Y3004D01*
X-7173Y3004D01*
X-7236Y2942D01*
X-7236Y2847D01*
X-7198Y2755D01*
X-7128Y2685D01*
X-7114Y2679D01*
X-7114Y2480D01*
X-8053Y2480D01*
X-8090Y2516D01*
X-8089Y2577D01*
X-8126Y2665D01*
X-8193Y2733D01*
X-8282Y2769D01*
X-8377Y2770D01*
X-8465Y2733D01*
X-8533Y2666D01*
X-8569Y2577D01*
X-8570Y2482D01*
X-8533Y2394D01*
X-8466Y2326D01*
X-8377Y2290D01*
X-8316Y2289D01*
X-8233Y2206D01*
X-8233Y2206D01*
X-8181Y2172D01*
X-8120Y2160D01*
X-8027Y2160D01*
X-8112Y2124D01*
X-8182Y2054D01*
X-8187Y2041D01*
X-8468Y2041D01*
X-8515Y2021D01*
X-8521Y2016D01*
X-8527Y2021D01*
X-8574Y2041D01*
X-8625Y2041D01*
X-8940Y2041D01*
X-8988Y2021D01*
X-8994Y2016D01*
X-8999Y2021D01*
X-9047Y2041D01*
X-9098Y2041D01*
X-9413Y2041D01*
X-9460Y2021D01*
X-9466Y2016D01*
X-9472Y2021D01*
X-9519Y2041D01*
X-9570Y2041D01*
X-9885Y2041D01*
X-9933Y2021D01*
X-9938Y2016D01*
X-9944Y2021D01*
X-9991Y2041D01*
X-10043Y2041D01*
X-10358Y2041D01*
X-10405Y2021D01*
X-10411Y2016D01*
X-10417Y2021D01*
X-10464Y2041D01*
X-10515Y2041D01*
X-10830Y2041D01*
X-10877Y2021D01*
X-10883Y2016D01*
X-10889Y2021D01*
X-10936Y2041D01*
X-10960Y2041D01*
X-10960Y2050D01*
X-10972Y2111D01*
X-11006Y2163D01*
X-11006Y2163D01*
X-11090Y2246D01*
X-11089Y2307D01*
X-11126Y2395D01*
X-11193Y2463D01*
X-11282Y2499D01*
X-11377Y2500D01*
X-11465Y2463D01*
X-11533Y2396D01*
X-11569Y2307D01*
X-11570Y2212D01*
X-11533Y2124D01*
X-11466Y2056D01*
X-11429Y2041D01*
X-11460Y2041D01*
X-11775Y2041D01*
X-11822Y2021D01*
X-11828Y2016D01*
X-11834Y2021D01*
X-11881Y2041D01*
X-11928Y2041D01*
X-11926Y2043D01*
X-11890Y2132D01*
X-11889Y2227D01*
X-11926Y2315D01*
X-11993Y2383D01*
X-12082Y2419D01*
X-12177Y2420D01*
X-12188Y2415D01*
X-12210Y2420D01*
X-12410Y2420D01*
X-12386Y2443D01*
X-12350Y2532D01*
X-12349Y2593D01*
X-12303Y2640D01*
X-9720Y2640D01*
X-9658Y2652D01*
X-9658Y2652D01*
X-9606Y2686D01*
X-9339Y2953D01*
X-9340Y2882D01*
X-9303Y2794D01*
X-9236Y2726D01*
X-9147Y2690D01*
X-9052Y2689D01*
X-8964Y2726D01*
X-8896Y2793D01*
X-8860Y2882D01*
X-8859Y2947D01*
X-8832Y2988D01*
X-8820Y3050D01*
X-8820Y4893D01*
X-8133Y5580D01*
X-8072Y5579D01*
X-7984Y5616D01*
X-7916Y5683D01*
X-7880Y5772D01*
X-7879Y5867D01*
X-7916Y5955D01*
X-7983Y6023D01*
X-8037Y6045D01*
X-7699Y6383D01*
X-7699Y6383D01*
X-7665Y6435D01*
X-7652Y6497D01*
X-7652Y6497D01*
X-7652Y6508D01*
X-7630Y6508D01*
X-7582Y6528D01*
X-7546Y6564D01*
X-7526Y6611D01*
X-7526Y6662D01*
X-7526Y7213D01*
X-7546Y7261D01*
X-7582Y7297D01*
X-7602Y7305D01*
X-7602Y8895D01*
X-7611Y9151D01*
X-7691Y9344D01*
X-7796Y9382D01*
X-7867Y9312D01*
X-7867Y9453D01*
X-7905Y9558D01*
X-8145Y9647D01*
X-8401Y9638D01*
X-8594Y9558D01*
X-8632Y9453D01*
X-8250Y9070D01*
X-7867Y9453D01*
X-7867Y9312D01*
X-8179Y9000D01*
X-7796Y8617D01*
X-7691Y8655D01*
X-7602Y8895D01*
X-7602Y7305D01*
X-7629Y7317D01*
X-7681Y7317D01*
X-7867Y7317D01*
X-7867Y8546D01*
X-8250Y8929D01*
X-8320Y8858D01*
X-8320Y9000D01*
X-8703Y9382D01*
X-8808Y9344D01*
X-8897Y9104D01*
X-8888Y8848D01*
X-8808Y8655D01*
X-8703Y8617D01*
X-8320Y9000D01*
X-8320Y8858D01*
X-8632Y8546D01*
X-8594Y8441D01*
X-8354Y8352D01*
X-8098Y8361D01*
X-7905Y8441D01*
X-7867Y8546D01*
X-7867Y7317D01*
X-7995Y7317D01*
X-8043Y7297D01*
X-8049Y7291D01*
X-8054Y7297D01*
X-8102Y7317D01*
X-8153Y7317D01*
X-8468Y7317D01*
X-8515Y7297D01*
X-8521Y7291D01*
X-8527Y7297D01*
X-8574Y7317D01*
X-8597Y7317D01*
X-8597Y7357D01*
X-8610Y7419D01*
X-8644Y7471D01*
X-8770Y7596D01*
X-8769Y7657D01*
X-8806Y7745D01*
X-8873Y7813D01*
X-8962Y7849D01*
X-9057Y7850D01*
X-9145Y7813D01*
X-9213Y7746D01*
X-9249Y7657D01*
X-9250Y7562D01*
X-9213Y7474D01*
X-9146Y7406D01*
X-9057Y7370D01*
X-8996Y7369D01*
X-8942Y7316D01*
X-8988Y7297D01*
X-8994Y7291D01*
X-8999Y7297D01*
X-9047Y7317D01*
X-9098Y7317D01*
X-9413Y7317D01*
X-9460Y7297D01*
X-9466Y7291D01*
X-9472Y7297D01*
X-9519Y7317D01*
X-9570Y7317D01*
X-9885Y7317D01*
X-9933Y7297D01*
X-9938Y7291D01*
X-9944Y7297D01*
X-9991Y7317D01*
X-10043Y7317D01*
X-10358Y7317D01*
X-10405Y7297D01*
X-10411Y7291D01*
X-10417Y7297D01*
X-10464Y7317D01*
X-10500Y7317D01*
X-10500Y7390D01*
X-10512Y7451D01*
X-10546Y7503D01*
X-10686Y7643D01*
X-10738Y7677D01*
X-10800Y7690D01*
X-10910Y7690D01*
X-10953Y7733D01*
X-11042Y7769D01*
X-11137Y7770D01*
X-11225Y7733D01*
X-11293Y7666D01*
X-11329Y7577D01*
X-11330Y7482D01*
X-11293Y7394D01*
X-11226Y7326D01*
X-11203Y7317D01*
X-11303Y7317D01*
X-11350Y7297D01*
X-11356Y7291D01*
X-11362Y7297D01*
X-11409Y7317D01*
X-11432Y7317D01*
X-11432Y7467D01*
X-11432Y7467D01*
X-11444Y7528D01*
X-11479Y7580D01*
X-11479Y7580D01*
X-11991Y8093D01*
X-12043Y8127D01*
X-12105Y8140D01*
X-13102Y8140D01*
X-13102Y8969D01*
X-13102Y9422D01*
X-13140Y9514D01*
X-13211Y9584D01*
X-13303Y9622D01*
X-13402Y9623D01*
X-13437Y9623D01*
X-13500Y9560D01*
X-13500Y9246D01*
X-13165Y9246D01*
X-13103Y9308D01*
X-13102Y9422D01*
X-13102Y8969D01*
X-13103Y9083D01*
X-13165Y9146D01*
X-13500Y9146D01*
X-13500Y9138D01*
X-13600Y9138D01*
X-13600Y9146D01*
X-13600Y9246D01*
X-13600Y9560D01*
X-13662Y9623D01*
X-13697Y9623D01*
X-13796Y9622D01*
X-13888Y9584D01*
X-13959Y9514D01*
X-13997Y9422D01*
X-13997Y9308D01*
X-13934Y9246D01*
X-13600Y9246D01*
X-13600Y9146D01*
X-13934Y9146D01*
X-13997Y9083D01*
X-13997Y8969D01*
X-13959Y8877D01*
X-13888Y8807D01*
X-13866Y8798D01*
X-13867Y8757D01*
X-13867Y8730D01*
X-14222Y8730D01*
X-14222Y8750D01*
X-14241Y8794D01*
X-14274Y8828D01*
X-14319Y8846D01*
X-14366Y8847D01*
X-14564Y8847D01*
X-14552Y8878D01*
X-14551Y8977D01*
X-14551Y9272D01*
X-14552Y9371D01*
X-14590Y9463D01*
X-14660Y9534D01*
X-14752Y9572D01*
X-14866Y9572D01*
X-14929Y9509D01*
X-14929Y9175D01*
X-14614Y9175D01*
X-14552Y9237D01*
X-14551Y9272D01*
X-14551Y8977D01*
X-14552Y9012D01*
X-14614Y9075D01*
X-14929Y9075D01*
X-14929Y8740D01*
X-14866Y8678D01*
X-14777Y8677D01*
X-14777Y8389D01*
X-14758Y8345D01*
X-14725Y8311D01*
X-14680Y8293D01*
X-14633Y8292D01*
X-14319Y8292D01*
X-14275Y8311D01*
X-14241Y8344D01*
X-14223Y8389D01*
X-14223Y8410D01*
X-13867Y8410D01*
X-13867Y8403D01*
X-13848Y8359D01*
X-13815Y8325D01*
X-13770Y8307D01*
X-13723Y8306D01*
X-13329Y8306D01*
X-13285Y8325D01*
X-13251Y8358D01*
X-13233Y8403D01*
X-13232Y8450D01*
X-13232Y8798D01*
X-13211Y8807D01*
X-13140Y8877D01*
X-13102Y8969D01*
X-13102Y8140D01*
X-14222Y8140D01*
X-14222Y8160D01*
X-14241Y8204D01*
X-14274Y8238D01*
X-14319Y8256D01*
X-14366Y8257D01*
X-14680Y8257D01*
X-14724Y8238D01*
X-14758Y8205D01*
X-14776Y8160D01*
X-14777Y8113D01*
X-14777Y7799D01*
X-14758Y7755D01*
X-14725Y7721D01*
X-14680Y7703D01*
X-14633Y7702D01*
X-14319Y7702D01*
X-14275Y7721D01*
X-14241Y7754D01*
X-14223Y7799D01*
X-14223Y7820D01*
X-12171Y7820D01*
X-11752Y7401D01*
X-11752Y7317D01*
X-11775Y7317D01*
X-11822Y7297D01*
X-11828Y7291D01*
X-11834Y7297D01*
X-11881Y7317D01*
X-11932Y7317D01*
X-12247Y7317D01*
X-12295Y7297D01*
X-12301Y7291D01*
X-12306Y7297D01*
X-12354Y7317D01*
X-12405Y7317D01*
X-12720Y7317D01*
X-12767Y7297D01*
X-12773Y7291D01*
X-12779Y7297D01*
X-12826Y7317D01*
X-12877Y7317D01*
X-13192Y7317D01*
X-13240Y7297D01*
X-13276Y7261D01*
X-13296Y7214D01*
X-13296Y7162D01*
X-13296Y6611D01*
X-13276Y6564D01*
X-13240Y6528D01*
X-13193Y6508D01*
X-13141Y6508D01*
X-12826Y6508D01*
X-12779Y6528D01*
X-12773Y6533D01*
X-12767Y6528D01*
X-12720Y6508D01*
X-12669Y6508D01*
X-12356Y6508D01*
X-12389Y6427D01*
X-12390Y6332D01*
X-12353Y6244D01*
X-12286Y6176D01*
X-12197Y6140D01*
X-12102Y6139D01*
X-12014Y6176D01*
X-11946Y6243D01*
X-11910Y6332D01*
X-11909Y6427D01*
X-11911Y6431D01*
X-11904Y6465D01*
X-11904Y6508D01*
X-11881Y6508D01*
X-11834Y6528D01*
X-11828Y6533D01*
X-11823Y6528D01*
X-11775Y6508D01*
X-11724Y6508D01*
X-11409Y6508D01*
X-11362Y6528D01*
X-11356Y6533D01*
X-11350Y6528D01*
X-11303Y6508D01*
X-11252Y6508D01*
X-10937Y6508D01*
X-10889Y6528D01*
X-10883Y6533D01*
X-10878Y6528D01*
X-10830Y6508D01*
X-10779Y6508D01*
X-10507Y6508D01*
X-10933Y6083D01*
X-10967Y6031D01*
X-10980Y5970D01*
X-10980Y4616D01*
X-11026Y4569D01*
X-11087Y4570D01*
X-11175Y4533D01*
X-11243Y4466D01*
X-11249Y4450D01*
X-11249Y5517D01*
X-11286Y5605D01*
X-11353Y5673D01*
X-11442Y5709D01*
X-11537Y5710D01*
X-11625Y5673D01*
X-11693Y5606D01*
X-11729Y5517D01*
X-11730Y5422D01*
X-11693Y5334D01*
X-11626Y5266D01*
X-11537Y5230D01*
X-11442Y5229D01*
X-11354Y5266D01*
X-11286Y5333D01*
X-11250Y5422D01*
X-11249Y5517D01*
X-11249Y4450D01*
X-11279Y4377D01*
X-11280Y4282D01*
X-11243Y4194D01*
X-11176Y4126D01*
X-11087Y4090D01*
X-10992Y4089D01*
X-10989Y4091D01*
X-10953Y4004D01*
X-10886Y3936D01*
X-10797Y3900D01*
X-10714Y3899D01*
X-10683Y3824D01*
X-10616Y3756D01*
X-10527Y3720D01*
X-10432Y3719D01*
X-10344Y3756D01*
X-10340Y3759D01*
X-10313Y3694D01*
X-10279Y3660D01*
X-10680Y3660D01*
X-10723Y3703D01*
X-10812Y3739D01*
X-10907Y3740D01*
X-10995Y3703D01*
X-11063Y3636D01*
X-11099Y3547D01*
X-11100Y3452D01*
X-11063Y3364D01*
X-10996Y3296D01*
X-10907Y3260D01*
X-10812Y3259D01*
X-10724Y3296D01*
X-10680Y3340D01*
X-9939Y3340D01*
X-9896Y3296D01*
X-9807Y3260D01*
X-9712Y3259D01*
X-9624Y3296D01*
X-9570Y3350D01*
X-9570Y3176D01*
X-9786Y2960D01*
X-12370Y2960D01*
X-12431Y2947D01*
X-12483Y2913D01*
X-12576Y2819D01*
X-12637Y2820D01*
X-12725Y2783D01*
X-12750Y2759D01*
X-12750Y2830D01*
X-12762Y2891D01*
X-12796Y2943D01*
X-12900Y3046D01*
X-12900Y3170D01*
X-12836Y3106D01*
X-12747Y3070D01*
X-12652Y3069D01*
X-12564Y3106D01*
X-12496Y3173D01*
X-12460Y3262D01*
X-12459Y3357D01*
X-12496Y3445D01*
X-12550Y3499D01*
X-12550Y3573D01*
X-12046Y4076D01*
X-12012Y4128D01*
X-12000Y4190D01*
X-12000Y4190D01*
X-12000Y5443D01*
X-11603Y5840D01*
X-11542Y5839D01*
X-11454Y5876D01*
X-11386Y5943D01*
X-11350Y6032D01*
X-11349Y6127D01*
X-11386Y6215D01*
X-11453Y6283D01*
X-11542Y6319D01*
X-11637Y6320D01*
X-11725Y6283D01*
X-11793Y6216D01*
X-11829Y6127D01*
X-11830Y6066D01*
X-12273Y5623D01*
X-12307Y5571D01*
X-12320Y5510D01*
X-12320Y4256D01*
X-12823Y3753D01*
X-12857Y3701D01*
X-12868Y3647D01*
X-12923Y3703D01*
X-13012Y3739D01*
X-13107Y3740D01*
X-13195Y3703D01*
X-13263Y3636D01*
X-13299Y3547D01*
X-13300Y3452D01*
X-13263Y3364D01*
X-13220Y3320D01*
X-13220Y2980D01*
X-13207Y2918D01*
X-13173Y2866D01*
X-13070Y2763D01*
X-13070Y2430D01*
X-13057Y2368D01*
X-13023Y2316D01*
X-12869Y2162D01*
X-12901Y2162D01*
X-12897Y2162D01*
X-12959Y2100D01*
X-12959Y1687D01*
X-12951Y1687D01*
X-12951Y1587D01*
X-12959Y1587D01*
X-12959Y1579D01*
X-13059Y1579D01*
X-13059Y1587D01*
X-13059Y1687D01*
X-13059Y2100D01*
X-13122Y2162D01*
X-13117Y2162D01*
X-13217Y2162D01*
X-13309Y2124D01*
X-13379Y2054D01*
X-13417Y1962D01*
X-13417Y1749D01*
X-13354Y1687D01*
X-13059Y1687D01*
X-13059Y1587D01*
X-13354Y1587D01*
X-13417Y1524D01*
X-13417Y1312D01*
X-13379Y1220D01*
X-13359Y1200D01*
X-13589Y1200D01*
X-13589Y7587D01*
X-13626Y7675D01*
X-13693Y7743D01*
X-13782Y7779D01*
X-13877Y7780D01*
X-13965Y7743D01*
X-14009Y7700D01*
X-15029Y7700D01*
X-15029Y8740D01*
X-15029Y9075D01*
X-15036Y9075D01*
X-15036Y9175D01*
X-15029Y9175D01*
X-15029Y9509D01*
X-15091Y9572D01*
X-15205Y9572D01*
X-15297Y9534D01*
X-15367Y9463D01*
X-15376Y9441D01*
X-15417Y9442D01*
X-15771Y9442D01*
X-15815Y9423D01*
X-15849Y9390D01*
X-15867Y9345D01*
X-15868Y9298D01*
X-15868Y8904D01*
X-15849Y8860D01*
X-15820Y8830D01*
X-15824Y8828D01*
X-15858Y8795D01*
X-15876Y8750D01*
X-15877Y8703D01*
X-15877Y8389D01*
X-15858Y8345D01*
X-15825Y8311D01*
X-15780Y8293D01*
X-15733Y8292D01*
X-15419Y8292D01*
X-15375Y8311D01*
X-15341Y8344D01*
X-15323Y8389D01*
X-15322Y8436D01*
X-15322Y8741D01*
X-15297Y8715D01*
X-15205Y8677D01*
X-15091Y8678D01*
X-15029Y8740D01*
X-15029Y7700D01*
X-15393Y7700D01*
X-15403Y7709D01*
X-15375Y7721D01*
X-15341Y7754D01*
X-15323Y7799D01*
X-15322Y7846D01*
X-15322Y8160D01*
X-15341Y8204D01*
X-15374Y8238D01*
X-15419Y8256D01*
X-15466Y8257D01*
X-15780Y8257D01*
X-15824Y8238D01*
X-15858Y8205D01*
X-15876Y8160D01*
X-15877Y8113D01*
X-15877Y7799D01*
X-15858Y7755D01*
X-15825Y7721D01*
X-15780Y7703D01*
X-15760Y7703D01*
X-15760Y7680D01*
X-15747Y7618D01*
X-15713Y7566D01*
X-15573Y7426D01*
X-15521Y7392D01*
X-15460Y7380D01*
X-14009Y7380D01*
X-13966Y7336D01*
X-13877Y7300D01*
X-13782Y7299D01*
X-13694Y7336D01*
X-13626Y7403D01*
X-13590Y7492D01*
X-13589Y7587D01*
X-13589Y1200D01*
X-14460Y1200D01*
X-14460Y-680D01*
X-14948Y-680D01*
X-14948Y345D01*
X-14948Y935D01*
X-14967Y979D01*
X-15000Y1013D01*
X-15045Y1031D01*
X-15092Y1032D01*
X-16430Y1032D01*
X-16474Y1013D01*
X-16508Y980D01*
X-16526Y935D01*
X-16527Y888D01*
X-16527Y298D01*
X-16508Y254D01*
X-16475Y220D01*
X-16430Y202D01*
X-16383Y201D01*
X-15045Y201D01*
X-15001Y220D01*
X-14967Y253D01*
X-14949Y298D01*
X-14948Y345D01*
X-14948Y-680D01*
X-16765Y-680D01*
X-16765Y1330D01*
X-13975Y1330D01*
X-13900Y1344D01*
X-13837Y1387D01*
X-13794Y1450D01*
X-13780Y1525D01*
X-13780Y7050D01*
X-13794Y7124D01*
X-13837Y7187D01*
X-13900Y7230D01*
X-13975Y7245D01*
X-16765Y7245D01*
X-16765Y8000D01*
X-16765Y8002D01*
X-16589Y8891D01*
X-16087Y9640D01*
X-15345Y10138D01*
X-14438Y10317D01*
X2037Y10317D01*
X2047Y10319D01*
X3911Y9950D01*
X5474Y8903D01*
X6512Y7354D01*
X6882Y5484D01*
X6882Y3650D01*
X6882Y3650D01*
G37*
G54D49*
X6882Y3650D02*
X3760Y3650D01*
X3760Y5037D01*
X3723Y5125D01*
X3656Y5193D01*
X3567Y5229D01*
X3472Y5230D01*
X3384Y5193D01*
X3316Y5126D01*
X3280Y5037D01*
X3279Y4942D01*
X3316Y4854D01*
X3383Y4786D01*
X3472Y4750D01*
X3567Y4749D01*
X3655Y4786D01*
X3723Y4853D01*
X3759Y4942D01*
X3760Y5037D01*
X3760Y3650D01*
X-979Y3650D01*
X-979Y6207D01*
X-1016Y6295D01*
X-1083Y6363D01*
X-1172Y6399D01*
X-1267Y6400D01*
X-1355Y6363D01*
X-1423Y6296D01*
X-1459Y6207D01*
X-1460Y6112D01*
X-1423Y6024D01*
X-1356Y5956D01*
X-1267Y5920D01*
X-1172Y5919D01*
X-1084Y5956D01*
X-1016Y6023D01*
X-980Y6112D01*
X-979Y6207D01*
X-979Y3650D01*
X-3130Y3650D01*
X-4060Y2720D01*
X-4150Y2720D01*
X-4640Y2230D01*
X-4640Y3574D01*
X-4557Y3540D01*
X-4462Y3539D01*
X-4374Y3576D01*
X-4330Y3620D01*
X-3530Y3620D01*
X-3468Y3632D01*
X-3468Y3632D01*
X-3416Y3666D01*
X-2882Y4200D01*
X-2882Y4200D01*
X-2848Y4252D01*
X-2836Y4313D01*
X-2836Y4314D01*
X-2836Y4482D01*
X-2795Y4482D01*
X-2751Y4501D01*
X-2717Y4534D01*
X-2699Y4576D01*
X-2682Y4535D01*
X-2649Y4501D01*
X-2604Y4483D01*
X-2557Y4482D01*
X-2203Y4482D01*
X-2159Y4501D01*
X-2125Y4534D01*
X-2107Y4579D01*
X-2107Y4582D01*
X-2027Y4550D01*
X-1932Y4549D01*
X-1844Y4586D01*
X-1776Y4653D01*
X-1740Y4742D01*
X-1739Y4837D01*
X-1776Y4925D01*
X-1843Y4993D01*
X-1932Y5029D01*
X-2027Y5030D01*
X-2106Y4997D01*
X-2106Y5020D01*
X-2125Y5064D01*
X-2158Y5098D01*
X-2203Y5116D01*
X-2250Y5117D01*
X-2519Y5117D01*
X-2604Y5117D01*
X-2648Y5098D01*
X-2682Y5065D01*
X-2700Y5023D01*
X-2717Y5064D01*
X-2750Y5098D01*
X-2795Y5116D01*
X-2836Y5117D01*
X-2836Y5416D01*
X-2848Y5477D01*
X-2882Y5529D01*
X-2969Y5615D01*
X-2969Y6589D01*
X-2969Y6601D01*
X-3032Y6663D01*
X-3307Y6663D01*
X-3307Y6451D01*
X-3244Y6389D01*
X-3269Y6388D01*
X-3169Y6389D01*
X-3077Y6427D01*
X-3007Y6497D01*
X-2969Y6589D01*
X-2969Y5615D01*
X-3453Y6099D01*
X-3453Y6248D01*
X-3444Y6270D01*
X-3443Y6318D01*
X-3443Y6414D01*
X-3407Y6451D01*
X-3407Y6663D01*
X-3414Y6663D01*
X-3414Y6712D01*
X-3407Y6712D01*
X-3407Y6715D01*
X-3307Y6715D01*
X-3307Y6712D01*
X-3032Y6712D01*
X-2969Y6775D01*
X-2969Y6786D01*
X-3007Y6878D01*
X-3077Y6948D01*
X-3099Y6957D01*
X-3110Y6983D01*
X-3099Y7009D01*
X-3099Y7056D01*
X-3099Y7154D01*
X-3109Y7180D01*
X-3099Y7205D01*
X-3099Y7252D01*
X-3099Y7350D01*
X-3110Y7376D01*
X-3099Y7402D01*
X-3099Y7449D01*
X-3099Y7547D01*
X-3110Y7573D01*
X-3099Y7599D01*
X-3099Y7646D01*
X-3099Y7744D01*
X-3117Y7788D01*
X-3151Y7822D01*
X-3195Y7840D01*
X-3243Y7841D01*
X-3443Y7841D01*
X-3443Y8089D01*
X-3456Y8120D01*
X-3305Y8120D01*
X-3243Y8132D01*
X-3243Y8132D01*
X-3191Y8166D01*
X-3145Y8212D01*
X-3145Y8212D01*
X-3111Y8264D01*
X-3099Y8325D01*
X-3099Y8326D01*
X-3099Y8362D01*
X-3058Y8362D01*
X-3014Y8381D01*
X-2980Y8414D01*
X-2962Y8459D01*
X-2961Y8506D01*
X-2961Y8520D01*
X-2910Y8520D01*
X-2848Y8532D01*
X-2848Y8532D01*
X-2796Y8566D01*
X-2773Y8590D01*
X-2712Y8589D01*
X-2624Y8626D01*
X-2556Y8693D01*
X-2520Y8782D01*
X-2519Y8877D01*
X-2556Y8965D01*
X-2623Y9033D01*
X-2712Y9069D01*
X-2807Y9070D01*
X-2895Y9033D01*
X-2963Y8966D01*
X-2976Y8935D01*
X-2980Y8944D01*
X-3013Y8978D01*
X-3058Y8996D01*
X-3105Y8997D01*
X-3453Y8997D01*
X-3460Y9014D01*
X-3432Y9083D01*
X-3431Y9182D01*
X-3431Y9477D01*
X-3432Y9576D01*
X-3470Y9668D01*
X-3540Y9739D01*
X-3632Y9777D01*
X-3746Y9777D01*
X-3809Y9714D01*
X-3809Y9380D01*
X-3494Y9380D01*
X-3432Y9442D01*
X-3431Y9477D01*
X-3431Y9182D01*
X-3432Y9217D01*
X-3494Y9280D01*
X-3809Y9280D01*
X-3809Y8945D01*
X-3801Y8937D01*
X-3801Y8730D01*
X-3793Y8730D01*
X-3793Y8630D01*
X-3801Y8630D01*
X-3801Y8622D01*
X-3901Y8622D01*
X-3901Y8630D01*
X-3908Y8630D01*
X-3908Y8730D01*
X-3901Y8730D01*
X-3901Y9064D01*
X-3909Y9072D01*
X-3909Y9280D01*
X-3916Y9280D01*
X-3916Y9380D01*
X-3909Y9380D01*
X-3909Y9714D01*
X-3971Y9777D01*
X-4085Y9777D01*
X-4177Y9739D01*
X-4247Y9668D01*
X-4256Y9646D01*
X-4297Y9647D01*
X-4651Y9647D01*
X-4695Y9628D01*
X-4729Y9595D01*
X-4747Y9550D01*
X-4748Y9503D01*
X-4748Y9109D01*
X-4729Y9065D01*
X-4696Y9031D01*
X-4651Y9013D01*
X-4611Y9012D01*
X-4611Y9001D01*
X-4598Y8939D01*
X-4564Y8887D01*
X-4363Y8686D01*
X-4363Y8265D01*
X-4375Y8253D01*
X-4375Y7978D01*
X-4372Y7978D01*
X-4372Y7878D01*
X-4375Y7878D01*
X-4375Y7870D01*
X-4424Y7870D01*
X-4424Y7878D01*
X-4427Y7878D01*
X-4427Y7978D01*
X-4424Y7978D01*
X-4424Y8253D01*
X-4437Y8265D01*
X-4437Y8587D01*
X-4437Y8587D01*
X-4449Y8648D01*
X-4483Y8700D01*
X-4483Y8700D01*
X-4716Y8933D01*
X-4768Y8967D01*
X-4830Y8980D01*
X-5370Y8980D01*
X-5413Y9023D01*
X-5502Y9059D01*
X-5597Y9060D01*
X-5685Y9023D01*
X-5753Y8956D01*
X-5789Y8867D01*
X-5790Y8772D01*
X-5753Y8684D01*
X-5686Y8616D01*
X-5597Y8580D01*
X-5502Y8579D01*
X-5414Y8616D01*
X-5370Y8660D01*
X-4896Y8660D01*
X-4757Y8520D01*
X-4757Y8111D01*
X-4765Y8089D01*
X-4766Y8041D01*
X-4766Y7841D01*
X-5014Y7841D01*
X-5036Y7832D01*
X-5088Y7832D01*
X-5149Y7819D01*
X-5201Y7785D01*
X-5248Y7737D01*
X-5264Y7754D01*
X-5309Y7772D01*
X-5356Y7773D01*
X-5750Y7773D01*
X-5794Y7754D01*
X-5828Y7721D01*
X-5846Y7676D01*
X-5847Y7629D01*
X-5847Y7281D01*
X-5868Y7272D01*
X-5939Y7202D01*
X-5959Y7151D01*
X-5959Y7397D01*
X-5996Y7485D01*
X-6040Y7529D01*
X-6040Y8930D01*
X-5996Y8973D01*
X-5960Y9062D01*
X-5959Y9157D01*
X-5996Y9245D01*
X-6063Y9313D01*
X-6152Y9349D01*
X-6247Y9350D01*
X-6335Y9313D01*
X-6403Y9246D01*
X-6439Y9157D01*
X-6440Y9062D01*
X-6403Y8974D01*
X-6360Y8930D01*
X-6360Y7529D01*
X-6403Y7486D01*
X-6439Y7397D01*
X-6440Y7302D01*
X-6403Y7214D01*
X-6336Y7146D01*
X-6247Y7110D01*
X-6152Y7109D01*
X-6064Y7146D01*
X-5996Y7213D01*
X-5960Y7302D01*
X-5959Y7397D01*
X-5959Y7151D01*
X-5977Y7110D01*
X-5977Y6996D01*
X-5914Y6934D01*
X-5580Y6934D01*
X-5580Y6941D01*
X-5480Y6941D01*
X-5480Y6934D01*
X-5472Y6934D01*
X-5472Y6834D01*
X-5480Y6834D01*
X-5480Y6519D01*
X-5417Y6457D01*
X-5382Y6456D01*
X-5283Y6457D01*
X-5197Y6492D01*
X-5132Y6427D01*
X-5040Y6389D01*
X-4940Y6388D01*
X-4965Y6389D01*
X-4903Y6451D01*
X-4903Y6663D01*
X-4910Y6663D01*
X-4910Y6712D01*
X-4903Y6712D01*
X-4903Y6715D01*
X-4803Y6715D01*
X-4803Y6712D01*
X-4795Y6712D01*
X-4795Y6663D01*
X-4803Y6663D01*
X-4803Y6451D01*
X-4766Y6414D01*
X-4766Y6270D01*
X-4747Y6226D01*
X-4714Y6192D01*
X-4683Y6180D01*
X-4694Y6126D01*
X-4694Y6122D01*
X-4728Y6122D01*
X-4737Y6143D01*
X-4807Y6214D01*
X-4899Y6252D01*
X-5013Y6252D01*
X-5076Y6189D01*
X-5076Y5855D01*
X-5068Y5855D01*
X-5068Y5755D01*
X-5076Y5755D01*
X-5076Y5420D01*
X-5013Y5358D01*
X-4899Y5357D01*
X-4807Y5395D01*
X-4737Y5466D01*
X-4728Y5488D01*
X-4687Y5487D01*
X-4333Y5487D01*
X-4289Y5506D01*
X-4255Y5539D01*
X-4237Y5584D01*
X-4236Y5631D01*
X-4236Y6025D01*
X-4255Y6069D01*
X-4288Y6103D01*
X-4317Y6115D01*
X-4286Y6146D01*
X-4286Y6146D01*
X-4268Y6174D01*
X-4228Y6174D01*
X-4130Y6174D01*
X-4104Y6184D01*
X-4079Y6174D01*
X-4032Y6174D01*
X-3970Y6174D01*
X-3970Y5940D01*
X-3957Y5878D01*
X-3923Y5826D01*
X-3684Y5587D01*
X-3684Y5117D01*
X-3724Y5117D01*
X-3768Y5098D01*
X-3802Y5065D01*
X-3820Y5023D01*
X-3837Y5064D01*
X-3870Y5098D01*
X-3915Y5116D01*
X-3962Y5117D01*
X-4316Y5117D01*
X-4360Y5098D01*
X-4394Y5065D01*
X-4412Y5020D01*
X-4413Y4973D01*
X-4413Y4939D01*
X-4453Y4913D01*
X-4596Y4769D01*
X-4657Y4770D01*
X-4745Y4733D01*
X-4813Y4666D01*
X-4849Y4577D01*
X-4850Y4482D01*
X-4813Y4394D01*
X-4746Y4326D01*
X-4657Y4290D01*
X-4562Y4289D01*
X-4474Y4326D01*
X-4406Y4393D01*
X-4370Y4482D01*
X-4370Y4510D01*
X-4361Y4501D01*
X-4316Y4483D01*
X-4269Y4482D01*
X-3915Y4482D01*
X-3871Y4501D01*
X-3837Y4534D01*
X-3819Y4576D01*
X-3802Y4535D01*
X-3769Y4501D01*
X-3726Y4483D01*
X-3733Y4476D01*
X-3769Y4387D01*
X-3770Y4292D01*
X-3733Y4204D01*
X-3666Y4136D01*
X-3577Y4100D01*
X-3482Y4099D01*
X-3403Y4132D01*
X-3596Y3940D01*
X-4330Y3940D01*
X-4373Y3983D01*
X-4462Y4019D01*
X-4557Y4020D01*
X-4640Y3985D01*
X-4640Y4050D01*
X-4640Y4050D01*
X-4652Y4111D01*
X-4686Y4163D01*
X-4686Y4163D01*
X-4976Y4453D01*
X-5028Y4487D01*
X-5090Y4500D01*
X-5176Y4500D01*
X-5176Y5420D01*
X-5176Y5755D01*
X-5176Y5855D01*
X-5176Y6189D01*
X-5238Y6252D01*
X-5352Y6252D01*
X-5444Y6214D01*
X-5514Y6143D01*
X-5552Y6051D01*
X-5553Y5952D01*
X-5553Y5917D01*
X-5490Y5855D01*
X-5176Y5855D01*
X-5176Y5755D01*
X-5490Y5755D01*
X-5553Y5692D01*
X-5553Y5657D01*
X-5552Y5558D01*
X-5514Y5466D01*
X-5444Y5395D01*
X-5352Y5357D01*
X-5238Y5358D01*
X-5176Y5420D01*
X-5176Y4500D01*
X-5570Y4500D01*
X-5580Y4509D01*
X-5580Y6519D01*
X-5580Y6834D01*
X-5914Y6834D01*
X-5977Y6771D01*
X-5977Y6657D01*
X-5939Y6565D01*
X-5868Y6495D01*
X-5776Y6457D01*
X-5677Y6456D01*
X-5642Y6457D01*
X-5580Y6519D01*
X-5580Y4509D01*
X-5613Y4543D01*
X-5702Y4579D01*
X-5797Y4580D01*
X-5885Y4543D01*
X-5953Y4476D01*
X-5989Y4387D01*
X-5990Y4292D01*
X-5953Y4204D01*
X-5886Y4136D01*
X-5797Y4100D01*
X-5702Y4099D01*
X-5688Y4105D01*
X-5699Y4077D01*
X-5700Y3982D01*
X-5670Y3910D01*
X-5735Y3883D01*
X-5803Y3816D01*
X-5821Y3771D01*
X-5833Y3783D01*
X-5922Y3819D01*
X-6017Y3820D01*
X-6105Y3783D01*
X-6173Y3716D01*
X-6209Y3627D01*
X-6210Y3532D01*
X-6173Y3444D01*
X-6106Y3376D01*
X-6017Y3340D01*
X-5956Y3339D01*
X-5560Y2943D01*
X-5560Y1796D01*
X-6196Y2433D01*
X-6248Y2467D01*
X-6306Y2479D01*
X-6306Y2528D01*
X-6306Y2679D01*
X-6293Y2685D01*
X-6222Y2755D01*
X-6184Y2847D01*
X-6184Y3261D01*
X-6222Y3353D01*
X-6293Y3423D01*
X-6306Y3429D01*
X-6306Y3434D01*
X-6306Y3749D01*
X-6325Y3796D01*
X-6331Y3802D01*
X-6325Y3808D01*
X-6306Y3855D01*
X-6306Y3906D01*
X-6306Y4221D01*
X-6325Y4269D01*
X-6331Y4274D01*
X-6325Y4280D01*
X-6306Y4328D01*
X-6306Y4379D01*
X-6306Y4694D01*
X-6325Y4741D01*
X-6331Y4747D01*
X-6325Y4753D01*
X-6306Y4800D01*
X-6306Y4851D01*
X-6306Y5120D01*
X-6293Y5126D01*
X-6222Y5196D01*
X-6184Y5288D01*
X-6185Y5382D01*
X-6247Y5445D01*
X-6660Y5445D01*
X-6660Y5437D01*
X-6760Y5437D01*
X-6760Y5445D01*
X-6768Y5445D01*
X-6768Y5545D01*
X-6760Y5545D01*
X-6760Y5553D01*
X-6660Y5553D01*
X-6660Y5545D01*
X-6247Y5545D01*
X-6185Y5607D01*
X-6184Y5702D01*
X-6222Y5794D01*
X-6293Y5864D01*
X-6306Y5870D01*
X-6306Y6072D01*
X-6325Y6119D01*
X-6362Y6155D01*
X-6409Y6175D01*
X-6460Y6175D01*
X-6619Y6175D01*
X-6619Y8297D01*
X-6656Y8385D01*
X-6723Y8453D01*
X-6812Y8489D01*
X-6907Y8490D01*
X-6995Y8453D01*
X-7063Y8386D01*
X-7099Y8297D01*
X-7100Y8202D01*
X-7063Y8114D01*
X-7020Y8070D01*
X-7020Y7606D01*
X-7118Y7507D01*
X-7133Y7523D01*
X-7222Y7559D01*
X-7317Y7560D01*
X-7405Y7523D01*
X-7473Y7456D01*
X-7509Y7367D01*
X-7510Y7272D01*
X-7473Y7184D01*
X-7406Y7116D01*
X-7317Y7080D01*
X-7222Y7079D01*
X-7134Y7116D01*
X-7090Y7160D01*
X-7080Y7160D01*
X-7018Y7172D01*
X-7018Y7172D01*
X-6966Y7206D01*
X-6746Y7426D01*
X-6746Y7426D01*
X-6712Y7478D01*
X-6700Y7540D01*
X-6700Y7540D01*
X-6700Y8070D01*
X-6656Y8113D01*
X-6620Y8202D01*
X-6619Y8297D01*
X-6619Y6175D01*
X-7011Y6175D01*
X-7059Y6155D01*
X-7095Y6119D01*
X-7114Y6072D01*
X-7114Y6044D01*
X-7163Y6093D01*
X-7252Y6129D01*
X-7347Y6130D01*
X-7435Y6093D01*
X-7503Y6026D01*
X-7539Y5937D01*
X-7540Y5842D01*
X-7520Y5793D01*
X-7520Y4816D01*
X-7686Y4649D01*
X-7747Y4650D01*
X-7835Y4613D01*
X-7903Y4546D01*
X-7939Y4457D01*
X-7940Y4362D01*
X-7903Y4274D01*
X-7836Y4206D01*
X-7747Y4170D01*
X-7652Y4169D01*
X-7564Y4206D01*
X-7496Y4273D01*
X-7460Y4362D01*
X-7459Y4423D01*
X-7246Y4636D01*
X-7246Y4636D01*
X-7212Y4688D01*
X-7200Y4749D01*
X-7200Y4750D01*
X-7200Y5200D01*
X-7198Y5196D01*
X-7128Y5126D01*
X-7114Y5120D01*
X-7114Y5115D01*
X-7114Y4800D01*
X-7095Y4753D01*
X-7089Y4747D01*
X-7095Y4741D01*
X-7114Y4694D01*
X-7114Y4643D01*
X-7114Y4328D01*
X-7095Y4280D01*
X-7089Y4275D01*
X-7095Y4269D01*
X-7114Y4221D01*
X-7114Y4170D01*
X-7114Y3855D01*
X-7095Y3808D01*
X-7089Y3802D01*
X-7095Y3796D01*
X-7114Y3749D01*
X-7114Y3698D01*
X-7114Y3429D01*
X-7128Y3423D01*
X-7198Y3353D01*
X-7236Y3261D01*
X-7236Y3167D01*
X-7173Y3104D01*
X-6760Y3104D01*
X-6760Y3112D01*
X-6660Y3112D01*
X-6660Y3104D01*
X-6247Y3104D01*
X-6185Y3167D01*
X-6184Y3261D01*
X-6184Y2847D01*
X-6185Y2942D01*
X-6247Y3004D01*
X-6660Y3004D01*
X-6660Y2996D01*
X-6760Y2996D01*
X-6760Y3004D01*
X-7173Y3004D01*
X-7236Y2942D01*
X-7236Y2847D01*
X-7198Y2755D01*
X-7128Y2685D01*
X-7114Y2679D01*
X-7114Y2480D01*
X-8053Y2480D01*
X-8090Y2516D01*
X-8089Y2577D01*
X-8126Y2665D01*
X-8193Y2733D01*
X-8282Y2769D01*
X-8377Y2770D01*
X-8465Y2733D01*
X-8533Y2666D01*
X-8569Y2577D01*
X-8570Y2482D01*
X-8533Y2394D01*
X-8466Y2326D01*
X-8377Y2290D01*
X-8316Y2289D01*
X-8233Y2206D01*
X-8233Y2206D01*
X-8181Y2172D01*
X-8120Y2160D01*
X-8027Y2160D01*
X-8112Y2124D01*
X-8182Y2054D01*
X-8187Y2041D01*
X-8468Y2041D01*
X-8515Y2021D01*
X-8521Y2016D01*
X-8527Y2021D01*
X-8574Y2041D01*
X-8625Y2041D01*
X-8940Y2041D01*
X-8988Y2021D01*
X-8994Y2016D01*
X-8999Y2021D01*
X-9047Y2041D01*
X-9098Y2041D01*
X-9413Y2041D01*
X-9460Y2021D01*
X-9466Y2016D01*
X-9472Y2021D01*
X-9519Y2041D01*
X-9570Y2041D01*
X-9885Y2041D01*
X-9933Y2021D01*
X-9938Y2016D01*
X-9944Y2021D01*
X-9991Y2041D01*
X-10043Y2041D01*
X-10358Y2041D01*
X-10405Y2021D01*
X-10411Y2016D01*
X-10417Y2021D01*
X-10464Y2041D01*
X-10515Y2041D01*
X-10830Y2041D01*
X-10877Y2021D01*
X-10883Y2016D01*
X-10889Y2021D01*
X-10936Y2041D01*
X-10960Y2041D01*
X-10960Y2050D01*
X-10972Y2111D01*
X-11006Y2163D01*
X-11006Y2163D01*
X-11090Y2246D01*
X-11089Y2307D01*
X-11126Y2395D01*
X-11193Y2463D01*
X-11282Y2499D01*
X-11377Y2500D01*
X-11465Y2463D01*
X-11533Y2396D01*
X-11569Y2307D01*
X-11570Y2212D01*
X-11533Y2124D01*
X-11466Y2056D01*
X-11429Y2041D01*
X-11460Y2041D01*
X-11775Y2041D01*
X-11822Y2021D01*
X-11828Y2016D01*
X-11834Y2021D01*
X-11881Y2041D01*
X-11928Y2041D01*
X-11926Y2043D01*
X-11890Y2132D01*
X-11889Y2227D01*
X-11926Y2315D01*
X-11993Y2383D01*
X-12082Y2419D01*
X-12177Y2420D01*
X-12188Y2415D01*
X-12210Y2420D01*
X-12410Y2420D01*
X-12386Y2443D01*
X-12350Y2532D01*
X-12349Y2593D01*
X-12303Y2640D01*
X-9720Y2640D01*
X-9658Y2652D01*
X-9658Y2652D01*
X-9606Y2686D01*
X-9339Y2953D01*
X-9340Y2882D01*
X-9303Y2794D01*
X-9236Y2726D01*
X-9147Y2690D01*
X-9052Y2689D01*
X-8964Y2726D01*
X-8896Y2793D01*
X-8860Y2882D01*
X-8859Y2947D01*
X-8832Y2988D01*
X-8820Y3050D01*
X-8820Y4893D01*
X-8133Y5580D01*
X-8072Y5579D01*
X-7984Y5616D01*
X-7916Y5683D01*
X-7880Y5772D01*
X-7879Y5867D01*
X-7916Y5955D01*
X-7983Y6023D01*
X-8037Y6045D01*
X-7699Y6383D01*
X-7699Y6383D01*
X-7665Y6435D01*
X-7652Y6497D01*
X-7652Y6497D01*
X-7652Y6508D01*
X-7630Y6508D01*
X-7582Y6528D01*
X-7546Y6564D01*
X-7526Y6611D01*
X-7526Y6662D01*
X-7526Y7213D01*
X-7546Y7261D01*
X-7582Y7297D01*
X-7602Y7305D01*
X-7602Y8895D01*
X-7611Y9151D01*
X-7691Y9344D01*
X-7796Y9382D01*
X-7867Y9312D01*
X-7867Y9453D01*
X-7905Y9558D01*
X-8145Y9647D01*
X-8401Y9638D01*
X-8594Y9558D01*
X-8632Y9453D01*
X-8250Y9070D01*
X-7867Y9453D01*
X-7867Y9312D01*
X-8179Y9000D01*
X-7796Y8617D01*
X-7691Y8655D01*
X-7602Y8895D01*
X-7602Y7305D01*
X-7629Y7317D01*
X-7681Y7317D01*
X-7867Y7317D01*
X-7867Y8546D01*
X-8250Y8929D01*
X-8320Y8858D01*
X-8320Y9000D01*
X-8703Y9382D01*
X-8808Y9344D01*
X-8897Y9104D01*
X-8888Y8848D01*
X-8808Y8655D01*
X-8703Y8617D01*
X-8320Y9000D01*
X-8320Y8858D01*
X-8632Y8546D01*
X-8594Y8441D01*
X-8354Y8352D01*
X-8098Y8361D01*
X-7905Y8441D01*
X-7867Y8546D01*
X-7867Y7317D01*
X-7995Y7317D01*
X-8043Y7297D01*
X-8049Y7291D01*
X-8054Y7297D01*
X-8102Y7317D01*
X-8153Y7317D01*
X-8468Y7317D01*
X-8515Y7297D01*
X-8521Y7291D01*
X-8527Y7297D01*
X-8574Y7317D01*
X-8597Y7317D01*
X-8597Y7357D01*
X-8610Y7419D01*
X-8644Y7471D01*
X-8770Y7596D01*
X-8769Y7657D01*
X-8806Y7745D01*
X-8873Y7813D01*
X-8962Y7849D01*
X-9057Y7850D01*
X-9145Y7813D01*
X-9213Y7746D01*
X-9249Y7657D01*
X-9250Y7562D01*
X-9213Y7474D01*
X-9146Y7406D01*
X-9057Y7370D01*
X-8996Y7369D01*
X-8942Y7316D01*
X-8988Y7297D01*
X-8994Y7291D01*
X-8999Y7297D01*
X-9047Y7317D01*
X-9098Y7317D01*
X-9413Y7317D01*
X-9460Y7297D01*
X-9466Y7291D01*
X-9472Y7297D01*
X-9519Y7317D01*
X-9570Y7317D01*
X-9885Y7317D01*
X-9933Y7297D01*
X-9938Y7291D01*
X-9944Y7297D01*
X-9991Y7317D01*
X-10043Y7317D01*
X-10358Y7317D01*
X-10405Y7297D01*
X-10411Y7291D01*
X-10417Y7297D01*
X-10464Y7317D01*
X-10500Y7317D01*
X-10500Y7390D01*
X-10512Y7451D01*
X-10546Y7503D01*
X-10686Y7643D01*
X-10738Y7677D01*
X-10800Y7690D01*
X-10910Y7690D01*
X-10953Y7733D01*
X-11042Y7769D01*
X-11137Y7770D01*
X-11225Y7733D01*
X-11293Y7666D01*
X-11329Y7577D01*
X-11330Y7482D01*
X-11293Y7394D01*
X-11226Y7326D01*
X-11203Y7317D01*
X-11303Y7317D01*
X-11350Y7297D01*
X-11356Y7291D01*
X-11362Y7297D01*
X-11409Y7317D01*
X-11432Y7317D01*
X-11432Y7467D01*
X-11432Y7467D01*
X-11444Y7528D01*
X-11479Y7580D01*
X-11479Y7580D01*
X-11991Y8093D01*
X-12043Y8127D01*
X-12105Y8140D01*
X-13102Y8140D01*
X-13102Y8969D01*
X-13102Y9422D01*
X-13140Y9514D01*
X-13211Y9584D01*
X-13303Y9622D01*
X-13402Y9623D01*
X-13437Y9623D01*
X-13500Y9560D01*
X-13500Y9246D01*
X-13165Y9246D01*
X-13103Y9308D01*
X-13102Y9422D01*
X-13102Y8969D01*
X-13103Y9083D01*
X-13165Y9146D01*
X-13500Y9146D01*
X-13500Y9138D01*
X-13600Y9138D01*
X-13600Y9146D01*
X-13600Y9246D01*
X-13600Y9560D01*
X-13662Y9623D01*
X-13697Y9623D01*
X-13796Y9622D01*
X-13888Y9584D01*
X-13959Y9514D01*
X-13997Y9422D01*
X-13997Y9308D01*
X-13934Y9246D01*
X-13600Y9246D01*
X-13600Y9146D01*
X-13934Y9146D01*
X-13997Y9083D01*
X-13997Y8969D01*
X-13959Y8877D01*
X-13888Y8807D01*
X-13866Y8798D01*
X-13867Y8757D01*
X-13867Y8730D01*
X-14222Y8730D01*
X-14222Y8750D01*
X-14241Y8794D01*
X-14274Y8828D01*
X-14319Y8846D01*
X-14366Y8847D01*
X-14564Y8847D01*
X-14552Y8878D01*
X-14551Y8977D01*
X-14551Y9272D01*
X-14552Y9371D01*
X-14590Y9463D01*
X-14660Y9534D01*
X-14752Y9572D01*
X-14866Y9572D01*
X-14929Y9509D01*
X-14929Y9175D01*
X-14614Y9175D01*
X-14552Y9237D01*
X-14551Y9272D01*
X-14551Y8977D01*
X-14552Y9012D01*
X-14614Y9075D01*
X-14929Y9075D01*
X-14929Y8740D01*
X-14866Y8678D01*
X-14777Y8677D01*
X-14777Y8389D01*
X-14758Y8345D01*
X-14725Y8311D01*
X-14680Y8293D01*
X-14633Y8292D01*
X-14319Y8292D01*
X-14275Y8311D01*
X-14241Y8344D01*
X-14223Y8389D01*
X-14223Y8410D01*
X-13867Y8410D01*
X-13867Y8403D01*
X-13848Y8359D01*
X-13815Y8325D01*
X-13770Y8307D01*
X-13723Y8306D01*
X-13329Y8306D01*
X-13285Y8325D01*
X-13251Y8358D01*
X-13233Y8403D01*
X-13232Y8450D01*
X-13232Y8798D01*
X-13211Y8807D01*
X-13140Y8877D01*
X-13102Y8969D01*
X-13102Y8140D01*
X-14222Y8140D01*
X-14222Y8160D01*
X-14241Y8204D01*
X-14274Y8238D01*
X-14319Y8256D01*
X-14366Y8257D01*
X-14680Y8257D01*
X-14724Y8238D01*
X-14758Y8205D01*
X-14776Y8160D01*
X-14777Y8113D01*
X-14777Y7799D01*
X-14758Y7755D01*
X-14725Y7721D01*
X-14680Y7703D01*
X-14633Y7702D01*
X-14319Y7702D01*
X-14275Y7721D01*
X-14241Y7754D01*
X-14223Y7799D01*
X-14223Y7820D01*
X-12171Y7820D01*
X-11752Y7401D01*
X-11752Y7317D01*
X-11775Y7317D01*
X-11822Y7297D01*
X-11828Y7291D01*
X-11834Y7297D01*
X-11881Y7317D01*
X-11932Y7317D01*
X-12247Y7317D01*
X-12295Y7297D01*
X-12301Y7291D01*
X-12306Y7297D01*
X-12354Y7317D01*
X-12405Y7317D01*
X-12720Y7317D01*
X-12767Y7297D01*
X-12773Y7291D01*
X-12779Y7297D01*
X-12826Y7317D01*
X-12877Y7317D01*
X-13192Y7317D01*
X-13240Y7297D01*
X-13276Y7261D01*
X-13296Y7214D01*
X-13296Y7162D01*
X-13296Y6611D01*
X-13276Y6564D01*
X-13240Y6528D01*
X-13193Y6508D01*
X-13141Y6508D01*
X-12826Y6508D01*
X-12779Y6528D01*
X-12773Y6533D01*
X-12767Y6528D01*
X-12720Y6508D01*
X-12669Y6508D01*
X-12356Y6508D01*
X-12389Y6427D01*
X-12390Y6332D01*
X-12353Y6244D01*
X-12286Y6176D01*
X-12197Y6140D01*
X-12102Y6139D01*
X-12014Y6176D01*
X-11946Y6243D01*
X-11910Y6332D01*
X-11909Y6427D01*
X-11911Y6431D01*
X-11904Y6465D01*
X-11904Y6508D01*
X-11881Y6508D01*
X-11834Y6528D01*
X-11828Y6533D01*
X-11823Y6528D01*
X-11775Y6508D01*
X-11724Y6508D01*
X-11409Y6508D01*
X-11362Y6528D01*
X-11356Y6533D01*
X-11350Y6528D01*
X-11303Y6508D01*
X-11252Y6508D01*
X-10937Y6508D01*
X-10889Y6528D01*
X-10883Y6533D01*
X-10878Y6528D01*
X-10830Y6508D01*
X-10779Y6508D01*
X-10507Y6508D01*
X-10933Y6083D01*
X-10967Y6031D01*
X-10980Y5970D01*
X-10980Y4616D01*
X-11026Y4569D01*
X-11087Y4570D01*
X-11175Y4533D01*
X-11243Y4466D01*
X-11249Y4450D01*
X-11249Y5517D01*
X-11286Y5605D01*
X-11353Y5673D01*
X-11442Y5709D01*
X-11537Y5710D01*
X-11625Y5673D01*
X-11693Y5606D01*
X-11729Y5517D01*
X-11730Y5422D01*
X-11693Y5334D01*
X-11626Y5266D01*
X-11537Y5230D01*
X-11442Y5229D01*
X-11354Y5266D01*
X-11286Y5333D01*
X-11250Y5422D01*
X-11249Y5517D01*
X-11249Y4450D01*
X-11279Y4377D01*
X-11280Y4282D01*
X-11243Y4194D01*
X-11176Y4126D01*
X-11087Y4090D01*
X-10992Y4089D01*
X-10989Y4091D01*
X-10953Y4004D01*
X-10886Y3936D01*
X-10797Y3900D01*
X-10714Y3899D01*
X-10683Y3824D01*
X-10616Y3756D01*
X-10527Y3720D01*
X-10432Y3719D01*
X-10344Y3756D01*
X-10340Y3759D01*
X-10313Y3694D01*
X-10279Y3660D01*
X-10680Y3660D01*
X-10723Y3703D01*
X-10812Y3739D01*
X-10907Y3740D01*
X-10995Y3703D01*
X-11063Y3636D01*
X-11099Y3547D01*
X-11100Y3452D01*
X-11063Y3364D01*
X-10996Y3296D01*
X-10907Y3260D01*
X-10812Y3259D01*
X-10724Y3296D01*
X-10680Y3340D01*
X-9939Y3340D01*
X-9896Y3296D01*
X-9807Y3260D01*
X-9712Y3259D01*
X-9624Y3296D01*
X-9570Y3350D01*
X-9570Y3176D01*
X-9786Y2960D01*
X-12370Y2960D01*
X-12431Y2947D01*
X-12483Y2913D01*
X-12576Y2819D01*
X-12637Y2820D01*
X-12725Y2783D01*
X-12750Y2759D01*
X-12750Y2830D01*
X-12762Y2891D01*
X-12796Y2943D01*
X-12900Y3046D01*
X-12900Y3170D01*
X-12836Y3106D01*
X-12747Y3070D01*
X-12652Y3069D01*
X-12564Y3106D01*
X-12496Y3173D01*
X-12460Y3262D01*
X-12459Y3357D01*
X-12496Y3445D01*
X-12550Y3499D01*
X-12550Y3573D01*
X-12046Y4076D01*
X-12012Y4128D01*
X-12000Y4190D01*
X-12000Y4190D01*
X-12000Y5443D01*
X-11603Y5840D01*
X-11542Y5839D01*
X-11454Y5876D01*
X-11386Y5943D01*
X-11350Y6032D01*
X-11349Y6127D01*
X-11386Y6215D01*
X-11453Y6283D01*
X-11542Y6319D01*
X-11637Y6320D01*
X-11725Y6283D01*
X-11793Y6216D01*
X-11829Y6127D01*
X-11830Y6066D01*
X-12273Y5623D01*
X-12307Y5571D01*
X-12320Y5510D01*
X-12320Y4256D01*
X-12823Y3753D01*
X-12857Y3701D01*
X-12868Y3647D01*
X-12923Y3703D01*
X-13012Y3739D01*
X-13107Y3740D01*
X-13195Y3703D01*
X-13263Y3636D01*
X-13299Y3547D01*
X-13300Y3452D01*
X-13263Y3364D01*
X-13220Y3320D01*
X-13220Y2980D01*
X-13207Y2918D01*
X-13173Y2866D01*
X-13070Y2763D01*
X-13070Y2430D01*
X-13057Y2368D01*
X-13023Y2316D01*
X-12869Y2162D01*
X-12901Y2162D01*
X-12897Y2162D01*
X-12959Y2100D01*
X-12959Y1687D01*
X-12951Y1687D01*
X-12951Y1587D01*
X-12959Y1587D01*
X-12959Y1579D01*
X-13059Y1579D01*
X-13059Y1587D01*
X-13059Y1687D01*
X-13059Y2100D01*
X-13122Y2162D01*
X-13117Y2162D01*
X-13217Y2162D01*
X-13309Y2124D01*
X-13379Y2054D01*
X-13417Y1962D01*
X-13417Y1749D01*
X-13354Y1687D01*
X-13059Y1687D01*
X-13059Y1587D01*
X-13354Y1587D01*
X-13417Y1524D01*
X-13417Y1312D01*
X-13379Y1220D01*
X-13359Y1200D01*
X-13589Y1200D01*
X-13589Y7587D01*
X-13626Y7675D01*
X-13693Y7743D01*
X-13782Y7779D01*
X-13877Y7780D01*
X-13965Y7743D01*
X-14009Y7700D01*
X-15029Y7700D01*
X-15029Y8740D01*
X-15029Y9075D01*
X-15036Y9075D01*
X-15036Y9175D01*
X-15029Y9175D01*
X-15029Y9509D01*
X-15091Y9572D01*
X-15205Y9572D01*
X-15297Y9534D01*
X-15367Y9463D01*
X-15376Y9441D01*
X-15417Y9442D01*
X-15771Y9442D01*
X-15815Y9423D01*
X-15849Y9390D01*
X-15867Y9345D01*
X-15868Y9298D01*
X-15868Y8904D01*
X-15849Y8860D01*
X-15820Y8830D01*
X-15824Y8828D01*
X-15858Y8795D01*
X-15876Y8750D01*
X-15877Y8703D01*
X-15877Y8389D01*
X-15858Y8345D01*
X-15825Y8311D01*
X-15780Y8293D01*
X-15733Y8292D01*
X-15419Y8292D01*
X-15375Y8311D01*
X-15341Y8344D01*
X-15323Y8389D01*
X-15322Y8436D01*
X-15322Y8741D01*
X-15297Y8715D01*
X-15205Y8677D01*
X-15091Y8678D01*
X-15029Y8740D01*
X-15029Y7700D01*
X-15393Y7700D01*
X-15403Y7709D01*
X-15375Y7721D01*
X-15341Y7754D01*
X-15323Y7799D01*
X-15322Y7846D01*
X-15322Y8160D01*
X-15341Y8204D01*
X-15374Y8238D01*
X-15419Y8256D01*
X-15466Y8257D01*
X-15780Y8257D01*
X-15824Y8238D01*
X-15858Y8205D01*
X-15876Y8160D01*
X-15877Y8113D01*
X-15877Y7799D01*
X-15858Y7755D01*
X-15825Y7721D01*
X-15780Y7703D01*
X-15760Y7703D01*
X-15760Y7680D01*
X-15747Y7618D01*
X-15713Y7566D01*
X-15573Y7426D01*
X-15521Y7392D01*
X-15460Y7380D01*
X-14009Y7380D01*
X-13966Y7336D01*
X-13877Y7300D01*
X-13782Y7299D01*
X-13694Y7336D01*
X-13626Y7403D01*
X-13590Y7492D01*
X-13589Y7587D01*
X-13589Y1200D01*
X-14460Y1200D01*
X-14460Y-680D01*
X-14948Y-680D01*
X-14948Y345D01*
X-14948Y935D01*
X-14967Y979D01*
X-15000Y1013D01*
X-15045Y1031D01*
X-15092Y1032D01*
X-16430Y1032D01*
X-16474Y1013D01*
X-16508Y980D01*
X-16526Y935D01*
X-16527Y888D01*
X-16527Y298D01*
X-16508Y254D01*
X-16475Y220D01*
X-16430Y202D01*
X-16383Y201D01*
X-15045Y201D01*
X-15001Y220D01*
X-14967Y253D01*
X-14949Y298D01*
X-14948Y345D01*
X-14948Y-680D01*
X-16765Y-680D01*
X-16765Y1330D01*
X-13975Y1330D01*
X-13900Y1344D01*
X-13837Y1387D01*
X-13794Y1450D01*
X-13780Y1525D01*
X-13780Y7050D01*
X-13794Y7124D01*
X-13837Y7187D01*
X-13900Y7230D01*
X-13975Y7245D01*
X-16765Y7245D01*
X-16765Y8000D01*
X-16765Y8002D01*
X-16589Y8891D01*
X-16087Y9640D01*
X-15345Y10138D01*
X-14438Y10317D01*
X2037Y10317D01*
X2047Y10319D01*
X3911Y9950D01*
X5474Y8903D01*
X6512Y7354D01*
X6882Y5484D01*
X6882Y3650D01*
G54D10*
G36*
X6882Y-5959D02*
X6512Y-7829D01*
X5474Y-9378D01*
X3911Y-10425D01*
X2058Y-10792D01*
X-910Y-10792D01*
X-910Y-9910D01*
X-910Y-9596D01*
X-1244Y-9596D01*
X-1307Y-9658D01*
X-1307Y-9772D01*
X-1269Y-9864D01*
X-1198Y-9934D01*
X-1106Y-9972D01*
X-1007Y-9973D01*
X-972Y-9973D01*
X-910Y-9910D01*
X-910Y-10792D01*
X-3889Y-10792D01*
X-3889Y-8922D01*
X-3926Y-8834D01*
X-3993Y-8766D01*
X-4082Y-8730D01*
X-4177Y-8729D01*
X-4265Y-8766D01*
X-4333Y-8833D01*
X-4369Y-8922D01*
X-4370Y-9017D01*
X-4333Y-9105D01*
X-4266Y-9173D01*
X-4177Y-9209D01*
X-4082Y-9210D01*
X-3994Y-9173D01*
X-3926Y-9106D01*
X-3890Y-9017D01*
X-3889Y-8922D01*
X-3889Y-10792D01*
X-6070Y-10792D01*
X-6070Y-8570D01*
X-4349Y-8570D01*
X-3400Y-7620D01*
X-3400Y-7527D01*
X-3073Y-7527D01*
X-3029Y-7508D01*
X-2995Y-7475D01*
X-2982Y-7444D01*
X-2969Y-7474D01*
X-2959Y-7484D01*
X-2969Y-7494D01*
X-2987Y-7539D01*
X-2988Y-7586D01*
X-2988Y-7980D01*
X-2969Y-8024D01*
X-2959Y-8034D01*
X-2969Y-8044D01*
X-2987Y-8089D01*
X-2988Y-8136D01*
X-2988Y-8530D01*
X-2969Y-8574D01*
X-2936Y-8608D01*
X-2891Y-8626D01*
X-2851Y-8627D01*
X-2851Y-8759D01*
X-2838Y-8820D01*
X-2804Y-8872D01*
X-2713Y-8963D01*
X-2661Y-8997D01*
X-2600Y-9010D01*
X-2306Y-9010D01*
X-2120Y-9196D01*
X-2120Y-10250D01*
X-2163Y-10293D01*
X-2199Y-10382D01*
X-2200Y-10477D01*
X-2163Y-10565D01*
X-2096Y-10633D01*
X-2007Y-10669D01*
X-1912Y-10670D01*
X-1824Y-10633D01*
X-1756Y-10566D01*
X-1720Y-10477D01*
X-1719Y-10382D01*
X-1756Y-10294D01*
X-1800Y-10250D01*
X-1800Y-9130D01*
X-1812Y-9068D01*
X-1846Y-9016D01*
X-1846Y-9016D01*
X-2126Y-8736D01*
X-2178Y-8702D01*
X-2240Y-8690D01*
X-2531Y-8690D01*
X-2531Y-8627D01*
X-2490Y-8627D01*
X-2446Y-8608D01*
X-2412Y-8575D01*
X-2394Y-8533D01*
X-2377Y-8574D01*
X-2344Y-8608D01*
X-2299Y-8626D01*
X-2252Y-8627D01*
X-1898Y-8627D01*
X-1884Y-8621D01*
X-1853Y-8653D01*
X-1853Y-8653D01*
X-1801Y-8687D01*
X-1740Y-8700D01*
X-1149Y-8700D01*
X-1158Y-8708D01*
X-1176Y-8753D01*
X-1177Y-8800D01*
X-1177Y-9148D01*
X-1198Y-9157D01*
X-1269Y-9227D01*
X-1307Y-9319D01*
X-1307Y-9433D01*
X-1244Y-9496D01*
X-910Y-9496D01*
X-910Y-9488D01*
X-810Y-9488D01*
X-810Y-9496D01*
X-802Y-9496D01*
X-802Y-9596D01*
X-810Y-9596D01*
X-810Y-9910D01*
X-747Y-9973D01*
X-712Y-9973D01*
X-655Y-9972D01*
X-655Y-10035D01*
X-642Y-10096D01*
X-608Y-10148D01*
X-433Y-10323D01*
X-433Y-10323D01*
X-381Y-10357D01*
X-320Y-10369D01*
X-320Y-10370D01*
X1380Y-10370D01*
X1441Y-10357D01*
X1441Y-10357D01*
X1493Y-10323D01*
X2118Y-9698D01*
X2152Y-9646D01*
X2165Y-9585D01*
X2165Y-9226D01*
X2196Y-9195D01*
X2261Y-9195D01*
X2261Y-9255D01*
X2280Y-9299D01*
X2313Y-9333D01*
X2358Y-9351D01*
X2405Y-9352D01*
X2759Y-9352D01*
X2803Y-9333D01*
X2837Y-9300D01*
X2855Y-9258D01*
X2872Y-9299D01*
X2905Y-9333D01*
X2950Y-9351D01*
X2997Y-9352D01*
X3351Y-9352D01*
X3395Y-9333D01*
X3429Y-9300D01*
X3447Y-9255D01*
X3448Y-9208D01*
X3448Y-9195D01*
X3805Y-9195D01*
X3866Y-9182D01*
X3866Y-9182D01*
X3918Y-9148D01*
X4933Y-8133D01*
X4933Y-8133D01*
X4967Y-8081D01*
X4979Y-8020D01*
X4979Y-8020D01*
X4979Y-6920D01*
X4988Y-6918D01*
X5123Y-6828D01*
X5213Y-6693D01*
X5245Y-6535D01*
X5213Y-6376D01*
X5123Y-6241D01*
X5054Y-6195D01*
X5080Y-6195D01*
X5141Y-6182D01*
X5141Y-6182D01*
X5193Y-6148D01*
X5443Y-5898D01*
X5443Y-5898D01*
X5477Y-5846D01*
X5489Y-5788D01*
X5516Y-5828D01*
X5650Y-5918D01*
X5659Y-5920D01*
X5659Y-6119D01*
X5500Y-6119D01*
X5456Y-6137D01*
X5423Y-6171D01*
X5404Y-6215D01*
X5404Y-6263D01*
X5404Y-6854D01*
X5422Y-6898D01*
X5456Y-6931D01*
X5500Y-6950D01*
X5548Y-6950D01*
X6335Y-6950D01*
X6379Y-6932D01*
X6413Y-6898D01*
X6432Y-6854D01*
X6432Y-6806D01*
X6432Y-6215D01*
X6413Y-6171D01*
X6380Y-6138D01*
X6336Y-6119D01*
X6288Y-6119D01*
X5979Y-6119D01*
X5979Y-5950D01*
X6026Y-5950D01*
X6185Y-5918D01*
X6320Y-5828D01*
X6410Y-5693D01*
X6442Y-5535D01*
X6410Y-5376D01*
X6320Y-5241D01*
X6185Y-5151D01*
X6026Y-5119D01*
X5809Y-5119D01*
X5650Y-5151D01*
X5516Y-5241D01*
X5490Y-5280D01*
X5490Y-5076D01*
X5648Y-4917D01*
X5650Y-4918D01*
X5809Y-4950D01*
X6026Y-4950D01*
X6185Y-4918D01*
X6320Y-4828D01*
X6410Y-4693D01*
X6442Y-4535D01*
X6410Y-4376D01*
X6320Y-4241D01*
X6185Y-4151D01*
X6026Y-4119D01*
X5809Y-4119D01*
X5650Y-4151D01*
X5516Y-4241D01*
X5426Y-4376D01*
X5394Y-4535D01*
X5425Y-4688D01*
X5216Y-4896D01*
X5182Y-4948D01*
X5170Y-5010D01*
X5170Y-5310D01*
X5123Y-5241D01*
X4988Y-5151D01*
X4830Y-5119D01*
X4613Y-5119D01*
X4454Y-5151D01*
X4319Y-5241D01*
X4229Y-5376D01*
X4197Y-5535D01*
X4229Y-5693D01*
X4319Y-5828D01*
X4388Y-5875D01*
X4380Y-5875D01*
X4318Y-5887D01*
X4266Y-5921D01*
X3916Y-6271D01*
X3882Y-6323D01*
X3870Y-6385D01*
X3870Y-6643D01*
X3638Y-6875D01*
X3538Y-6875D01*
X3539Y-6873D01*
X3577Y-6781D01*
X3578Y-6682D01*
X3578Y-6647D01*
X3515Y-6585D01*
X3201Y-6585D01*
X3201Y-6592D01*
X3101Y-6592D01*
X3101Y-6585D01*
X3093Y-6585D01*
X3093Y-6485D01*
X3101Y-6485D01*
X3101Y-6477D01*
X3201Y-6477D01*
X3201Y-6485D01*
X3515Y-6485D01*
X3578Y-6422D01*
X3578Y-6387D01*
X3577Y-6288D01*
X3539Y-6196D01*
X3538Y-6195D01*
X3580Y-6195D01*
X3641Y-6182D01*
X3641Y-6182D01*
X3693Y-6148D01*
X4118Y-5723D01*
X4118Y-5723D01*
X4152Y-5671D01*
X4164Y-5610D01*
X4165Y-5610D01*
X4165Y-5101D01*
X4390Y-4875D01*
X4454Y-4918D01*
X4613Y-4950D01*
X4830Y-4950D01*
X4988Y-4918D01*
X5123Y-4828D01*
X5213Y-4693D01*
X5245Y-4535D01*
X5213Y-4376D01*
X5123Y-4241D01*
X5054Y-4195D01*
X5180Y-4195D01*
X5241Y-4182D01*
X5241Y-4182D01*
X5293Y-4148D01*
X5574Y-3867D01*
X5650Y-3918D01*
X5809Y-3950D01*
X6026Y-3950D01*
X6185Y-3918D01*
X6320Y-3828D01*
X6410Y-3693D01*
X6442Y-3535D01*
X6410Y-3376D01*
X6320Y-3241D01*
X6185Y-3151D01*
X6026Y-3119D01*
X5809Y-3119D01*
X5650Y-3151D01*
X5516Y-3241D01*
X5426Y-3376D01*
X5394Y-3535D01*
X5404Y-3584D01*
X5113Y-3875D01*
X5054Y-3875D01*
X5123Y-3828D01*
X5213Y-3693D01*
X5245Y-3535D01*
X5213Y-3376D01*
X5123Y-3241D01*
X5054Y-3195D01*
X5319Y-3195D01*
X5381Y-3182D01*
X5381Y-3182D01*
X5433Y-3148D01*
X5660Y-2920D01*
X5809Y-2950D01*
X6026Y-2950D01*
X6185Y-2918D01*
X6320Y-2828D01*
X6410Y-2693D01*
X6442Y-2535D01*
X6410Y-2376D01*
X6320Y-2241D01*
X6185Y-2151D01*
X6026Y-2119D01*
X5809Y-2119D01*
X5650Y-2151D01*
X5516Y-2241D01*
X5426Y-2376D01*
X5394Y-2535D01*
X5426Y-2693D01*
X5429Y-2699D01*
X5253Y-2875D01*
X5054Y-2875D01*
X5123Y-2828D01*
X5213Y-2693D01*
X5245Y-2535D01*
X5213Y-2376D01*
X5123Y-2241D01*
X4988Y-2151D01*
X4830Y-2119D01*
X4630Y-2119D01*
X4433Y-1921D01*
X4381Y-1887D01*
X4319Y-1875D01*
X3448Y-1875D01*
X3448Y-1814D01*
X3435Y-1784D01*
X3447Y-1755D01*
X3448Y-1708D01*
X3448Y-1695D01*
X4230Y-1695D01*
X4319Y-1828D01*
X4454Y-1918D01*
X4613Y-1950D01*
X4830Y-1950D01*
X4988Y-1918D01*
X5123Y-1828D01*
X5213Y-1693D01*
X5245Y-1535D01*
X5213Y-1376D01*
X5123Y-1241D01*
X5054Y-1195D01*
X5253Y-1195D01*
X5429Y-1370D01*
X5426Y-1376D01*
X5394Y-1535D01*
X5426Y-1693D01*
X5516Y-1828D01*
X5650Y-1918D01*
X5809Y-1950D01*
X6026Y-1950D01*
X6185Y-1918D01*
X6320Y-1828D01*
X6410Y-1693D01*
X6442Y-1535D01*
X6410Y-1376D01*
X6320Y-1241D01*
X6185Y-1151D01*
X6026Y-1119D01*
X5809Y-1119D01*
X5660Y-1149D01*
X5433Y-921D01*
X5381Y-887D01*
X5319Y-875D01*
X5054Y-875D01*
X5123Y-828D01*
X5213Y-693D01*
X5245Y-535D01*
X5213Y-376D01*
X5123Y-241D01*
X4988Y-151D01*
X4979Y-149D01*
X4979Y-49D01*
X4967Y11D01*
X4933Y63D01*
X4418Y578D01*
X4366Y612D01*
X4305Y625D01*
X3538Y625D01*
X3539Y626D01*
X3577Y718D01*
X3578Y817D01*
X3578Y1112D01*
X3577Y1211D01*
X3576Y1215D01*
X3577Y1218D01*
X3578Y1317D01*
X3578Y1352D01*
X3515Y1415D01*
X3201Y1415D01*
X3201Y1349D01*
X3201Y1080D01*
X3201Y1015D01*
X3515Y1015D01*
X3578Y1077D01*
X3578Y1112D01*
X3578Y817D01*
X3578Y852D01*
X3515Y915D01*
X3201Y915D01*
X3201Y907D01*
X3101Y907D01*
X3101Y915D01*
X3093Y915D01*
X3093Y1015D01*
X3101Y1015D01*
X3101Y1080D01*
X3101Y1349D01*
X3101Y1415D01*
X3093Y1415D01*
X3093Y1515D01*
X3101Y1515D01*
X3101Y1522D01*
X3201Y1522D01*
X3201Y1515D01*
X3515Y1515D01*
X3578Y1577D01*
X3578Y1612D01*
X3577Y1711D01*
X3539Y1803D01*
X3538Y1805D01*
X5213Y1805D01*
X5659Y1358D01*
X5659Y-149D01*
X5650Y-151D01*
X5516Y-241D01*
X5426Y-376D01*
X5394Y-535D01*
X5426Y-693D01*
X5516Y-828D01*
X5650Y-918D01*
X5809Y-950D01*
X6026Y-950D01*
X6185Y-918D01*
X6320Y-828D01*
X6410Y-693D01*
X6442Y-535D01*
X6410Y-376D01*
X6320Y-241D01*
X6185Y-151D01*
X6026Y-119D01*
X5979Y-119D01*
X5979Y1425D01*
X5979Y1425D01*
X5967Y1486D01*
X5933Y1538D01*
X5933Y1538D01*
X5393Y2078D01*
X5341Y2112D01*
X5280Y2125D01*
X3448Y2125D01*
X3448Y2185D01*
X3429Y2229D01*
X3396Y2263D01*
X3351Y2281D01*
X3304Y2282D01*
X2950Y2282D01*
X2906Y2263D01*
X2872Y2230D01*
X2854Y2188D01*
X2837Y2229D01*
X2804Y2263D01*
X2759Y2281D01*
X2712Y2282D01*
X2358Y2282D01*
X2314Y2263D01*
X2280Y2230D01*
X2262Y2185D01*
X2261Y2138D01*
X2261Y1744D01*
X2274Y1714D01*
X2262Y1685D01*
X2261Y1638D01*
X2261Y1625D01*
X1355Y1625D01*
X1293Y1612D01*
X1241Y1578D01*
X991Y1328D01*
X957Y1276D01*
X945Y1215D01*
X945Y781D01*
X591Y428D01*
X557Y376D01*
X549Y339D01*
X516Y373D01*
X427Y409D01*
X352Y410D01*
X342Y416D01*
X281Y429D01*
X222Y429D01*
X222Y469D01*
X203Y513D01*
X170Y547D01*
X128Y565D01*
X169Y582D01*
X203Y615D01*
X221Y660D01*
X222Y707D01*
X222Y1061D01*
X203Y1105D01*
X170Y1139D01*
X125Y1157D01*
X78Y1158D01*
X-315Y1158D01*
X-359Y1139D01*
X-382Y1117D01*
X-394Y1129D01*
X-360Y1212D01*
X-359Y1307D01*
X-396Y1395D01*
X-463Y1463D01*
X-552Y1499D01*
X-647Y1500D01*
X-735Y1463D01*
X-803Y1396D01*
X-839Y1307D01*
X-840Y1212D01*
X-830Y1188D01*
X-830Y1158D01*
X-881Y1158D01*
X-926Y1203D01*
X-954Y1221D01*
X-954Y1221D01*
X-954Y1369D01*
X-973Y1413D01*
X-1006Y1447D01*
X-1051Y1465D01*
X-1098Y1466D01*
X-1155Y1466D01*
X-1140Y1502D01*
X-1139Y1597D01*
X-1176Y1685D01*
X-1243Y1753D01*
X-1332Y1789D01*
X-1427Y1790D01*
X-1515Y1753D01*
X-1583Y1686D01*
X-1619Y1597D01*
X-1620Y1502D01*
X-1604Y1466D01*
X-1688Y1466D01*
X-1732Y1447D01*
X-1766Y1414D01*
X-1784Y1369D01*
X-1785Y1322D01*
X-1785Y1250D01*
X-1966Y1250D01*
X-2027Y1237D01*
X-2060Y1215D01*
X-2060Y1310D01*
X-2072Y1371D01*
X-2106Y1423D01*
X-2106Y1423D01*
X-2327Y1644D01*
X-2379Y1678D01*
X-2441Y1691D01*
X-2554Y1691D01*
X-2554Y1938D01*
X-2572Y1982D01*
X-2606Y2016D01*
X-2650Y2034D01*
X-2698Y2035D01*
X-2735Y2035D01*
X-2720Y2072D01*
X-2719Y2167D01*
X-2756Y2255D01*
X-2823Y2323D01*
X-2912Y2359D01*
X-3007Y2360D01*
X-3095Y2323D01*
X-3163Y2256D01*
X-3199Y2167D01*
X-3200Y2072D01*
X-3184Y2035D01*
X-3289Y2035D01*
X-3333Y2016D01*
X-3367Y1983D01*
X-3385Y1938D01*
X-3385Y1920D01*
X-4220Y1920D01*
X-4281Y1907D01*
X-4333Y1873D01*
X-4480Y1726D01*
X-4480Y1939D01*
X-3009Y3410D01*
X6882Y3410D01*
X6882Y-5959D01*
X6882Y-5959D01*
G37*
G54D49*
X6882Y-5959D02*
X6512Y-7829D01*
X5474Y-9378D01*
X3911Y-10425D01*
X2058Y-10792D01*
X-910Y-10792D01*
X-910Y-9910D01*
X-910Y-9596D01*
X-1244Y-9596D01*
X-1307Y-9658D01*
X-1307Y-9772D01*
X-1269Y-9864D01*
X-1198Y-9934D01*
X-1106Y-9972D01*
X-1007Y-9973D01*
X-972Y-9973D01*
X-910Y-9910D01*
X-910Y-10792D01*
X-3889Y-10792D01*
X-3889Y-8922D01*
X-3926Y-8834D01*
X-3993Y-8766D01*
X-4082Y-8730D01*
X-4177Y-8729D01*
X-4265Y-8766D01*
X-4333Y-8833D01*
X-4369Y-8922D01*
X-4370Y-9017D01*
X-4333Y-9105D01*
X-4266Y-9173D01*
X-4177Y-9209D01*
X-4082Y-9210D01*
X-3994Y-9173D01*
X-3926Y-9106D01*
X-3890Y-9017D01*
X-3889Y-8922D01*
X-3889Y-10792D01*
X-6070Y-10792D01*
X-6070Y-8570D01*
X-4349Y-8570D01*
X-3400Y-7620D01*
X-3400Y-7527D01*
X-3073Y-7527D01*
X-3029Y-7508D01*
X-2995Y-7475D01*
X-2982Y-7444D01*
X-2969Y-7474D01*
X-2959Y-7484D01*
X-2969Y-7494D01*
X-2987Y-7539D01*
X-2988Y-7586D01*
X-2988Y-7980D01*
X-2969Y-8024D01*
X-2959Y-8034D01*
X-2969Y-8044D01*
X-2987Y-8089D01*
X-2988Y-8136D01*
X-2988Y-8530D01*
X-2969Y-8574D01*
X-2936Y-8608D01*
X-2891Y-8626D01*
X-2851Y-8627D01*
X-2851Y-8759D01*
X-2838Y-8820D01*
X-2804Y-8872D01*
X-2713Y-8963D01*
X-2661Y-8997D01*
X-2600Y-9010D01*
X-2306Y-9010D01*
X-2120Y-9196D01*
X-2120Y-10250D01*
X-2163Y-10293D01*
X-2199Y-10382D01*
X-2200Y-10477D01*
X-2163Y-10565D01*
X-2096Y-10633D01*
X-2007Y-10669D01*
X-1912Y-10670D01*
X-1824Y-10633D01*
X-1756Y-10566D01*
X-1720Y-10477D01*
X-1719Y-10382D01*
X-1756Y-10294D01*
X-1800Y-10250D01*
X-1800Y-9130D01*
X-1812Y-9068D01*
X-1846Y-9016D01*
X-1846Y-9016D01*
X-2126Y-8736D01*
X-2178Y-8702D01*
X-2240Y-8690D01*
X-2531Y-8690D01*
X-2531Y-8627D01*
X-2490Y-8627D01*
X-2446Y-8608D01*
X-2412Y-8575D01*
X-2394Y-8533D01*
X-2377Y-8574D01*
X-2344Y-8608D01*
X-2299Y-8626D01*
X-2252Y-8627D01*
X-1898Y-8627D01*
X-1884Y-8621D01*
X-1853Y-8653D01*
X-1853Y-8653D01*
X-1801Y-8687D01*
X-1740Y-8700D01*
X-1149Y-8700D01*
X-1158Y-8708D01*
X-1176Y-8753D01*
X-1177Y-8800D01*
X-1177Y-9148D01*
X-1198Y-9157D01*
X-1269Y-9227D01*
X-1307Y-9319D01*
X-1307Y-9433D01*
X-1244Y-9496D01*
X-910Y-9496D01*
X-910Y-9488D01*
X-810Y-9488D01*
X-810Y-9496D01*
X-802Y-9496D01*
X-802Y-9596D01*
X-810Y-9596D01*
X-810Y-9910D01*
X-747Y-9973D01*
X-712Y-9973D01*
X-655Y-9972D01*
X-655Y-10035D01*
X-642Y-10096D01*
X-608Y-10148D01*
X-433Y-10323D01*
X-433Y-10323D01*
X-381Y-10357D01*
X-320Y-10369D01*
X-320Y-10370D01*
X1380Y-10370D01*
X1441Y-10357D01*
X1441Y-10357D01*
X1493Y-10323D01*
X2118Y-9698D01*
X2152Y-9646D01*
X2165Y-9585D01*
X2165Y-9226D01*
X2196Y-9195D01*
X2261Y-9195D01*
X2261Y-9255D01*
X2280Y-9299D01*
X2313Y-9333D01*
X2358Y-9351D01*
X2405Y-9352D01*
X2759Y-9352D01*
X2803Y-9333D01*
X2837Y-9300D01*
X2855Y-9258D01*
X2872Y-9299D01*
X2905Y-9333D01*
X2950Y-9351D01*
X2997Y-9352D01*
X3351Y-9352D01*
X3395Y-9333D01*
X3429Y-9300D01*
X3447Y-9255D01*
X3448Y-9208D01*
X3448Y-9195D01*
X3805Y-9195D01*
X3866Y-9182D01*
X3866Y-9182D01*
X3918Y-9148D01*
X4933Y-8133D01*
X4933Y-8133D01*
X4967Y-8081D01*
X4979Y-8020D01*
X4979Y-8020D01*
X4979Y-6920D01*
X4988Y-6918D01*
X5123Y-6828D01*
X5213Y-6693D01*
X5245Y-6535D01*
X5213Y-6376D01*
X5123Y-6241D01*
X5054Y-6195D01*
X5080Y-6195D01*
X5141Y-6182D01*
X5141Y-6182D01*
X5193Y-6148D01*
X5443Y-5898D01*
X5443Y-5898D01*
X5477Y-5846D01*
X5489Y-5788D01*
X5516Y-5828D01*
X5650Y-5918D01*
X5659Y-5920D01*
X5659Y-6119D01*
X5500Y-6119D01*
X5456Y-6137D01*
X5423Y-6171D01*
X5404Y-6215D01*
X5404Y-6263D01*
X5404Y-6854D01*
X5422Y-6898D01*
X5456Y-6931D01*
X5500Y-6950D01*
X5548Y-6950D01*
X6335Y-6950D01*
X6379Y-6932D01*
X6413Y-6898D01*
X6432Y-6854D01*
X6432Y-6806D01*
X6432Y-6215D01*
X6413Y-6171D01*
X6380Y-6138D01*
X6336Y-6119D01*
X6288Y-6119D01*
X5979Y-6119D01*
X5979Y-5950D01*
X6026Y-5950D01*
X6185Y-5918D01*
X6320Y-5828D01*
X6410Y-5693D01*
X6442Y-5535D01*
X6410Y-5376D01*
X6320Y-5241D01*
X6185Y-5151D01*
X6026Y-5119D01*
X5809Y-5119D01*
X5650Y-5151D01*
X5516Y-5241D01*
X5490Y-5280D01*
X5490Y-5076D01*
X5648Y-4917D01*
X5650Y-4918D01*
X5809Y-4950D01*
X6026Y-4950D01*
X6185Y-4918D01*
X6320Y-4828D01*
X6410Y-4693D01*
X6442Y-4535D01*
X6410Y-4376D01*
X6320Y-4241D01*
X6185Y-4151D01*
X6026Y-4119D01*
X5809Y-4119D01*
X5650Y-4151D01*
X5516Y-4241D01*
X5426Y-4376D01*
X5394Y-4535D01*
X5425Y-4688D01*
X5216Y-4896D01*
X5182Y-4948D01*
X5170Y-5010D01*
X5170Y-5310D01*
X5123Y-5241D01*
X4988Y-5151D01*
X4830Y-5119D01*
X4613Y-5119D01*
X4454Y-5151D01*
X4319Y-5241D01*
X4229Y-5376D01*
X4197Y-5535D01*
X4229Y-5693D01*
X4319Y-5828D01*
X4388Y-5875D01*
X4380Y-5875D01*
X4318Y-5887D01*
X4266Y-5921D01*
X3916Y-6271D01*
X3882Y-6323D01*
X3870Y-6385D01*
X3870Y-6643D01*
X3638Y-6875D01*
X3538Y-6875D01*
X3539Y-6873D01*
X3577Y-6781D01*
X3578Y-6682D01*
X3578Y-6647D01*
X3515Y-6585D01*
X3201Y-6585D01*
X3201Y-6592D01*
X3101Y-6592D01*
X3101Y-6585D01*
X3093Y-6585D01*
X3093Y-6485D01*
X3101Y-6485D01*
X3101Y-6477D01*
X3201Y-6477D01*
X3201Y-6485D01*
X3515Y-6485D01*
X3578Y-6422D01*
X3578Y-6387D01*
X3577Y-6288D01*
X3539Y-6196D01*
X3538Y-6195D01*
X3580Y-6195D01*
X3641Y-6182D01*
X3641Y-6182D01*
X3693Y-6148D01*
X4118Y-5723D01*
X4118Y-5723D01*
X4152Y-5671D01*
X4164Y-5610D01*
X4165Y-5610D01*
X4165Y-5101D01*
X4390Y-4875D01*
X4454Y-4918D01*
X4613Y-4950D01*
X4830Y-4950D01*
X4988Y-4918D01*
X5123Y-4828D01*
X5213Y-4693D01*
X5245Y-4535D01*
X5213Y-4376D01*
X5123Y-4241D01*
X5054Y-4195D01*
X5180Y-4195D01*
X5241Y-4182D01*
X5241Y-4182D01*
X5293Y-4148D01*
X5574Y-3867D01*
X5650Y-3918D01*
X5809Y-3950D01*
X6026Y-3950D01*
X6185Y-3918D01*
X6320Y-3828D01*
X6410Y-3693D01*
X6442Y-3535D01*
X6410Y-3376D01*
X6320Y-3241D01*
X6185Y-3151D01*
X6026Y-3119D01*
X5809Y-3119D01*
X5650Y-3151D01*
X5516Y-3241D01*
X5426Y-3376D01*
X5394Y-3535D01*
X5404Y-3584D01*
X5113Y-3875D01*
X5054Y-3875D01*
X5123Y-3828D01*
X5213Y-3693D01*
X5245Y-3535D01*
X5213Y-3376D01*
X5123Y-3241D01*
X5054Y-3195D01*
X5319Y-3195D01*
X5381Y-3182D01*
X5381Y-3182D01*
X5433Y-3148D01*
X5660Y-2920D01*
X5809Y-2950D01*
X6026Y-2950D01*
X6185Y-2918D01*
X6320Y-2828D01*
X6410Y-2693D01*
X6442Y-2535D01*
X6410Y-2376D01*
X6320Y-2241D01*
X6185Y-2151D01*
X6026Y-2119D01*
X5809Y-2119D01*
X5650Y-2151D01*
X5516Y-2241D01*
X5426Y-2376D01*
X5394Y-2535D01*
X5426Y-2693D01*
X5429Y-2699D01*
X5253Y-2875D01*
X5054Y-2875D01*
X5123Y-2828D01*
X5213Y-2693D01*
X5245Y-2535D01*
X5213Y-2376D01*
X5123Y-2241D01*
X4988Y-2151D01*
X4830Y-2119D01*
X4630Y-2119D01*
X4433Y-1921D01*
X4381Y-1887D01*
X4319Y-1875D01*
X3448Y-1875D01*
X3448Y-1814D01*
X3435Y-1784D01*
X3447Y-1755D01*
X3448Y-1708D01*
X3448Y-1695D01*
X4230Y-1695D01*
X4319Y-1828D01*
X4454Y-1918D01*
X4613Y-1950D01*
X4830Y-1950D01*
X4988Y-1918D01*
X5123Y-1828D01*
X5213Y-1693D01*
X5245Y-1535D01*
X5213Y-1376D01*
X5123Y-1241D01*
X5054Y-1195D01*
X5253Y-1195D01*
X5429Y-1370D01*
X5426Y-1376D01*
X5394Y-1535D01*
X5426Y-1693D01*
X5516Y-1828D01*
X5650Y-1918D01*
X5809Y-1950D01*
X6026Y-1950D01*
X6185Y-1918D01*
X6320Y-1828D01*
X6410Y-1693D01*
X6442Y-1535D01*
X6410Y-1376D01*
X6320Y-1241D01*
X6185Y-1151D01*
X6026Y-1119D01*
X5809Y-1119D01*
X5660Y-1149D01*
X5433Y-921D01*
X5381Y-887D01*
X5319Y-875D01*
X5054Y-875D01*
X5123Y-828D01*
X5213Y-693D01*
X5245Y-535D01*
X5213Y-376D01*
X5123Y-241D01*
X4988Y-151D01*
X4979Y-149D01*
X4979Y-49D01*
X4967Y11D01*
X4933Y63D01*
X4418Y578D01*
X4366Y612D01*
X4305Y625D01*
X3538Y625D01*
X3539Y626D01*
X3577Y718D01*
X3578Y817D01*
X3578Y1112D01*
X3577Y1211D01*
X3576Y1215D01*
X3577Y1218D01*
X3578Y1317D01*
X3578Y1352D01*
X3515Y1415D01*
X3201Y1415D01*
X3201Y1349D01*
X3201Y1080D01*
X3201Y1015D01*
X3515Y1015D01*
X3578Y1077D01*
X3578Y1112D01*
X3578Y817D01*
X3578Y852D01*
X3515Y915D01*
X3201Y915D01*
X3201Y907D01*
X3101Y907D01*
X3101Y915D01*
X3093Y915D01*
X3093Y1015D01*
X3101Y1015D01*
X3101Y1080D01*
X3101Y1349D01*
X3101Y1415D01*
X3093Y1415D01*
X3093Y1515D01*
X3101Y1515D01*
X3101Y1522D01*
X3201Y1522D01*
X3201Y1515D01*
X3515Y1515D01*
X3578Y1577D01*
X3578Y1612D01*
X3577Y1711D01*
X3539Y1803D01*
X3538Y1805D01*
X5213Y1805D01*
X5659Y1358D01*
X5659Y-149D01*
X5650Y-151D01*
X5516Y-241D01*
X5426Y-376D01*
X5394Y-535D01*
X5426Y-693D01*
X5516Y-828D01*
X5650Y-918D01*
X5809Y-950D01*
X6026Y-950D01*
X6185Y-918D01*
X6320Y-828D01*
X6410Y-693D01*
X6442Y-535D01*
X6410Y-376D01*
X6320Y-241D01*
X6185Y-151D01*
X6026Y-119D01*
X5979Y-119D01*
X5979Y1425D01*
X5979Y1425D01*
X5967Y1486D01*
X5933Y1538D01*
X5933Y1538D01*
X5393Y2078D01*
X5341Y2112D01*
X5280Y2125D01*
X3448Y2125D01*
X3448Y2185D01*
X3429Y2229D01*
X3396Y2263D01*
X3351Y2281D01*
X3304Y2282D01*
X2950Y2282D01*
X2906Y2263D01*
X2872Y2230D01*
X2854Y2188D01*
X2837Y2229D01*
X2804Y2263D01*
X2759Y2281D01*
X2712Y2282D01*
X2358Y2282D01*
X2314Y2263D01*
X2280Y2230D01*
X2262Y2185D01*
X2261Y2138D01*
X2261Y1744D01*
X2274Y1714D01*
X2262Y1685D01*
X2261Y1638D01*
X2261Y1625D01*
X1355Y1625D01*
X1293Y1612D01*
X1241Y1578D01*
X991Y1328D01*
X957Y1276D01*
X945Y1215D01*
X945Y781D01*
X591Y428D01*
X557Y376D01*
X549Y339D01*
X516Y373D01*
X427Y409D01*
X352Y410D01*
X342Y416D01*
X281Y429D01*
X222Y429D01*
X222Y469D01*
X203Y513D01*
X170Y547D01*
X128Y565D01*
X169Y582D01*
X203Y615D01*
X221Y660D01*
X222Y707D01*
X222Y1061D01*
X203Y1105D01*
X170Y1139D01*
X125Y1157D01*
X78Y1158D01*
X-315Y1158D01*
X-359Y1139D01*
X-382Y1117D01*
X-394Y1129D01*
X-360Y1212D01*
X-359Y1307D01*
X-396Y1395D01*
X-463Y1463D01*
X-552Y1499D01*
X-647Y1500D01*
X-735Y1463D01*
X-803Y1396D01*
X-839Y1307D01*
X-840Y1212D01*
X-830Y1188D01*
X-830Y1158D01*
X-881Y1158D01*
X-926Y1203D01*
X-954Y1221D01*
X-954Y1221D01*
X-954Y1369D01*
X-973Y1413D01*
X-1006Y1447D01*
X-1051Y1465D01*
X-1098Y1466D01*
X-1155Y1466D01*
X-1140Y1502D01*
X-1139Y1597D01*
X-1176Y1685D01*
X-1243Y1753D01*
X-1332Y1789D01*
X-1427Y1790D01*
X-1515Y1753D01*
X-1583Y1686D01*
X-1619Y1597D01*
X-1620Y1502D01*
X-1604Y1466D01*
X-1688Y1466D01*
X-1732Y1447D01*
X-1766Y1414D01*
X-1784Y1369D01*
X-1785Y1322D01*
X-1785Y1250D01*
X-1966Y1250D01*
X-2027Y1237D01*
X-2060Y1215D01*
X-2060Y1310D01*
X-2072Y1371D01*
X-2106Y1423D01*
X-2106Y1423D01*
X-2327Y1644D01*
X-2379Y1678D01*
X-2441Y1691D01*
X-2554Y1691D01*
X-2554Y1938D01*
X-2572Y1982D01*
X-2606Y2016D01*
X-2650Y2034D01*
X-2698Y2035D01*
X-2735Y2035D01*
X-2720Y2072D01*
X-2719Y2167D01*
X-2756Y2255D01*
X-2823Y2323D01*
X-2912Y2359D01*
X-3007Y2360D01*
X-3095Y2323D01*
X-3163Y2256D01*
X-3199Y2167D01*
X-3200Y2072D01*
X-3184Y2035D01*
X-3289Y2035D01*
X-3333Y2016D01*
X-3367Y1983D01*
X-3385Y1938D01*
X-3385Y1920D01*
X-4220Y1920D01*
X-4281Y1907D01*
X-4333Y1873D01*
X-4480Y1726D01*
X-4480Y1939D01*
X-3009Y3410D01*
X6882Y3410D01*
X6882Y-5959D01*
G54D10*
G36*
X7470Y-11460D02*
X7469Y-11430D01*
X7470Y-11430D01*
X7470Y-11460D01*
X7470Y-11460D01*
G37*
G54D49*
X7470Y-11460D02*
X7469Y-11430D01*
X7470Y-11430D01*
X7470Y-11460D01*
M02*
