G04 (created by PCBNEW (2013-05-31 BZR 4019)-stable) date 7/3/2014 2:31:18 PM*
%MOIN*%
G04 Gerber Fmt 3.4, Leading zero omitted, Abs format*
%FSLAX34Y34*%
G01*
G70*
G90*
G04 APERTURE LIST*
%ADD10C,0.00590551*%
%ADD11R,0.0906X0.0197*%
%ADD12R,0.0984X0.0787*%
%ADD13C,0.0591*%
%ADD14R,0.0394X0.0236*%
%ADD15R,0.0314X0.0314*%
%ADD16R,0.025X0.04*%
%ADD17R,0.0787X0.0906*%
%ADD18R,0.0394X0.0354*%
%ADD19C,0.18*%
%ADD20R,0.0472441X0.0984252*%
%ADD21R,0.0392X0.1377*%
%ADD22R,0.0393X0.1377*%
%ADD23R,0.059X0.1338*%
%ADD24R,0.059X0.1337*%
%ADD25R,0.0275X0.0315*%
%ADD26R,0.0315X0.0275*%
%ADD27R,0.0117X0.0295*%
%ADD28R,0.057X0.0688*%
%ADD29R,0.0512X0.059*%
%ADD30R,0.059X0.0512*%
%ADD31R,0.06X0.0787*%
%ADD32O,0.06X0.0787*%
%ADD33O,0.0314961X0.00787402*%
%ADD34O,0.00787402X0.0314961*%
%ADD35C,0.024*%
%ADD36C,0.008*%
%ADD37C,0.016*%
%ADD38C,0.01*%
G04 APERTURE END LIST*
G54D10*
G54D11*
X40198Y-21310D03*
X40198Y-20995D03*
X40198Y-20680D03*
X40198Y-20365D03*
X40198Y-20050D03*
G54D12*
X40159Y-22432D03*
X37994Y-22432D03*
X40159Y-18928D03*
X37994Y-18928D03*
G54D13*
X46420Y-18160D03*
X41600Y-18620D03*
G54D14*
X42704Y-21175D03*
X42704Y-20425D03*
X42704Y-20800D03*
X43536Y-20425D03*
X43536Y-21175D03*
G54D15*
X40200Y-17455D03*
X40200Y-16865D03*
X40200Y-15725D03*
X40200Y-16315D03*
G54D16*
X45389Y-28200D03*
X45891Y-28200D03*
G54D17*
X43271Y-22340D03*
X41689Y-22340D03*
G54D18*
X47600Y-27644D03*
X47600Y-28236D03*
X44100Y-21376D03*
X44100Y-20784D03*
G54D19*
X38520Y-16300D03*
G54D20*
X42560Y-16560D03*
X41575Y-16560D03*
X43544Y-16560D03*
G54D21*
X39834Y-24960D03*
G54D22*
X39046Y-24960D03*
G54D23*
X40757Y-27223D03*
G54D24*
X38122Y-27223D03*
G54D25*
X45300Y-25796D03*
X45300Y-25364D03*
X44920Y-25796D03*
X44920Y-25364D03*
X41300Y-23264D03*
X41300Y-23696D03*
G54D26*
X41514Y-26120D03*
X41946Y-26120D03*
X45776Y-24380D03*
X45344Y-24380D03*
X45776Y-24780D03*
X45344Y-24780D03*
G54D25*
X47340Y-24896D03*
X47340Y-24464D03*
G54D26*
X48324Y-24690D03*
X48756Y-24690D03*
G54D25*
X42010Y-27684D03*
X42010Y-28116D03*
G54D26*
X41956Y-25720D03*
X41524Y-25720D03*
G54D25*
X46460Y-24796D03*
X46460Y-24364D03*
X44020Y-19904D03*
X44020Y-20336D03*
X48080Y-25796D03*
X48080Y-25364D03*
X48080Y-27296D03*
X48080Y-26864D03*
X48040Y-27764D03*
X48040Y-28196D03*
G54D26*
X46776Y-28200D03*
X46344Y-28200D03*
X46776Y-28580D03*
X46344Y-28580D03*
X47164Y-28640D03*
X47596Y-28640D03*
G54D25*
X47720Y-24896D03*
X47720Y-24464D03*
G54D26*
X43536Y-19960D03*
X43104Y-19960D03*
G54D25*
X42370Y-27684D03*
X42370Y-28116D03*
X42200Y-21136D03*
X42200Y-20704D03*
G54D27*
X41635Y-24120D03*
X41833Y-24120D03*
X42027Y-24120D03*
X42225Y-24120D03*
X42225Y-25260D03*
X42027Y-25260D03*
X41833Y-25260D03*
X41635Y-25260D03*
G54D28*
X41930Y-24690D03*
G54D29*
X39795Y-23620D03*
X39045Y-23620D03*
G54D30*
X41420Y-21075D03*
X41420Y-20325D03*
G54D13*
X44740Y-19980D03*
G54D31*
X47390Y-23438D03*
G54D32*
X47390Y-22242D03*
X48390Y-23438D03*
X48390Y-22242D03*
X49390Y-23438D03*
X49390Y-22242D03*
G54D33*
X47477Y-25956D03*
X47477Y-26113D03*
X47477Y-26271D03*
X47477Y-26428D03*
X47477Y-26901D03*
G54D34*
X47241Y-27137D03*
X47083Y-27137D03*
X46926Y-27137D03*
X46768Y-27137D03*
X46611Y-27137D03*
X46453Y-27137D03*
G54D33*
X47477Y-25798D03*
G54D34*
X46296Y-27137D03*
X46138Y-27137D03*
G54D33*
X45902Y-26901D03*
X45902Y-26743D03*
X45902Y-26586D03*
X45902Y-26428D03*
X45902Y-26271D03*
X45902Y-26113D03*
X45902Y-25956D03*
X45902Y-25798D03*
G54D34*
X46138Y-25562D03*
X46296Y-25562D03*
X46453Y-25562D03*
X46611Y-25562D03*
G54D33*
X47477Y-26586D03*
X47477Y-26743D03*
G54D34*
X46768Y-25562D03*
X46926Y-25562D03*
X47083Y-25562D03*
X47241Y-25562D03*
G54D35*
X45320Y-28550D03*
X46250Y-26120D03*
X43410Y-27640D03*
X41480Y-26510D03*
X45610Y-22300D03*
X42600Y-24030D03*
X42630Y-15430D03*
X44730Y-20920D03*
X41920Y-22970D03*
X41990Y-23730D03*
X40170Y-24090D03*
X40360Y-23620D03*
X41700Y-26850D03*
X44920Y-16940D03*
X43340Y-25180D03*
X46280Y-19260D03*
X47860Y-26510D03*
X45920Y-28590D03*
X48280Y-26180D03*
X48660Y-26780D03*
X45720Y-25440D03*
X39600Y-26100D03*
X46810Y-24500D03*
X45990Y-22310D03*
X41280Y-24550D03*
X47990Y-28640D03*
X46340Y-28830D03*
X44280Y-26150D03*
X39290Y-20250D03*
X41410Y-19730D03*
X44420Y-28160D03*
X42830Y-27600D03*
X45200Y-26360D03*
X44800Y-27000D03*
X46640Y-26300D03*
X44240Y-25540D03*
X41040Y-17100D03*
X44380Y-17300D03*
X48780Y-25190D03*
X44540Y-26680D03*
X44180Y-23840D03*
X38920Y-17720D03*
X42320Y-23640D03*
X42660Y-22680D03*
X39400Y-21140D03*
X42680Y-22340D03*
X44500Y-25000D03*
X45300Y-23720D03*
X43220Y-24780D03*
X42680Y-24780D03*
X46460Y-26640D03*
X42390Y-26140D03*
X44850Y-28550D03*
X42520Y-24450D03*
X46360Y-23240D03*
X43240Y-23580D03*
X46240Y-23700D03*
X42370Y-26840D03*
G54D36*
X45389Y-28481D02*
X45320Y-28550D01*
X45389Y-28200D02*
X45389Y-28481D01*
X46086Y-25956D02*
X46250Y-26120D01*
X46086Y-25956D02*
X45902Y-25956D01*
X45902Y-25956D02*
X45460Y-25956D01*
X45460Y-25956D02*
X45300Y-25796D01*
X44730Y-20920D02*
X44730Y-19990D01*
X44730Y-19990D02*
X44740Y-19980D01*
X44100Y-21376D02*
X44384Y-21376D01*
X44730Y-21030D02*
X44730Y-20920D01*
X44384Y-21376D02*
X44730Y-21030D01*
X44020Y-19904D02*
X44664Y-19904D01*
X44664Y-19904D02*
X44740Y-19980D01*
X43536Y-21175D02*
X43536Y-21276D01*
X43536Y-21276D02*
X43636Y-21376D01*
X43636Y-21376D02*
X44100Y-21376D01*
X45300Y-25796D02*
X44920Y-25796D01*
X41514Y-26120D02*
X40910Y-26120D01*
X40910Y-26120D02*
X40740Y-25950D01*
X42027Y-24120D02*
X42027Y-23767D01*
G54D37*
X41689Y-22739D02*
X41920Y-22970D01*
X41689Y-22739D02*
X41689Y-22340D01*
G54D36*
X42027Y-23767D02*
X41990Y-23730D01*
G54D37*
X39834Y-24090D02*
X40170Y-24090D01*
G54D36*
X39834Y-24960D02*
X40400Y-24960D01*
G54D37*
X40360Y-23620D02*
X40580Y-23620D01*
X39795Y-23620D02*
X40360Y-23620D01*
X41180Y-22340D02*
X41689Y-22340D01*
X40920Y-22600D02*
X41180Y-22340D01*
X40920Y-23280D02*
X40920Y-22600D01*
X40580Y-23620D02*
X40920Y-23280D01*
G54D36*
X40740Y-25300D02*
X40740Y-25950D01*
X40740Y-25950D02*
X40740Y-25960D01*
X40400Y-24960D02*
X40740Y-25300D01*
G54D37*
X39834Y-24960D02*
X39834Y-24090D01*
X39834Y-24090D02*
X39834Y-23659D01*
G54D36*
X39834Y-23659D02*
X39795Y-23620D01*
X46296Y-25562D02*
X46296Y-25096D01*
X46060Y-24380D02*
X45776Y-24380D01*
X46180Y-24500D02*
X46060Y-24380D01*
X46180Y-24980D02*
X46180Y-24500D01*
X46296Y-25096D02*
X46180Y-24980D01*
X45776Y-25136D02*
X45820Y-25180D01*
X45776Y-24780D02*
X45776Y-25136D01*
X46138Y-25238D02*
X46138Y-25562D01*
X46080Y-25180D02*
X46138Y-25238D01*
X45820Y-25180D02*
X46080Y-25180D01*
X46138Y-25562D02*
X46138Y-25498D01*
X48080Y-25364D02*
X47716Y-25364D01*
X47477Y-25602D02*
X47716Y-25364D01*
X47477Y-25602D02*
X47477Y-25798D01*
X47471Y-25956D02*
X47919Y-25956D01*
X47919Y-25956D02*
X48080Y-25796D01*
X47471Y-26743D02*
X47959Y-26743D01*
X47959Y-26743D02*
X48080Y-26864D01*
X47477Y-26901D02*
X47477Y-27067D01*
X47706Y-27296D02*
X48080Y-27296D01*
X47477Y-27067D02*
X47706Y-27296D01*
X46768Y-25562D02*
X46926Y-25562D01*
X47720Y-24896D02*
X47864Y-24896D01*
X48070Y-24690D02*
X48324Y-24690D01*
X47864Y-24896D02*
X48070Y-24690D01*
X47340Y-24896D02*
X47720Y-24896D01*
X46926Y-25562D02*
X46926Y-25013D01*
X47044Y-24896D02*
X47340Y-24896D01*
X46926Y-25013D02*
X47044Y-24896D01*
X47340Y-24464D02*
X47720Y-24464D01*
X47340Y-24464D02*
X47136Y-24464D01*
X46611Y-25118D02*
X46611Y-25562D01*
X46730Y-25000D02*
X46611Y-25118D01*
X46730Y-24840D02*
X46730Y-25000D01*
X46820Y-24750D02*
X46730Y-24840D01*
X46950Y-24750D02*
X46820Y-24750D01*
X47050Y-24650D02*
X46950Y-24750D01*
X47050Y-24550D02*
X47050Y-24650D01*
X47136Y-24464D02*
X47050Y-24550D01*
X46926Y-27121D02*
X46926Y-27786D01*
X47164Y-28024D02*
X47164Y-28640D01*
X46926Y-27786D02*
X47164Y-28024D01*
X46453Y-25562D02*
X46453Y-24802D01*
X46453Y-24802D02*
X46460Y-24796D01*
X47600Y-27644D02*
X47920Y-27644D01*
X47920Y-27644D02*
X48040Y-27764D01*
X47241Y-27137D02*
X47241Y-27561D01*
X47324Y-27644D02*
X47600Y-27644D01*
X47241Y-27561D02*
X47324Y-27644D01*
X41700Y-26850D02*
X41700Y-27570D01*
X41814Y-27684D02*
X42010Y-27684D01*
X41700Y-27570D02*
X41814Y-27684D01*
X42370Y-27684D02*
X42010Y-27684D01*
X41946Y-26604D02*
X41946Y-26120D01*
X41700Y-26850D02*
X41946Y-26604D01*
X45720Y-21320D02*
X45720Y-19440D01*
X43700Y-25060D02*
X43700Y-23340D01*
X43340Y-25180D02*
X43580Y-25180D01*
X43580Y-25180D02*
X43700Y-25060D01*
X43700Y-23340D02*
X45720Y-21320D01*
X45320Y-19040D02*
X45320Y-17340D01*
X45720Y-19440D02*
X45320Y-19040D01*
X44920Y-16940D02*
X45320Y-17340D01*
X46420Y-18160D02*
X46420Y-19120D01*
X46420Y-19120D02*
X46280Y-19260D01*
X47477Y-26428D02*
X47778Y-26428D01*
X47778Y-26428D02*
X47860Y-26510D01*
X46768Y-27137D02*
X46768Y-28192D01*
X46768Y-28192D02*
X46776Y-28200D01*
X47083Y-25562D02*
X47083Y-26421D01*
X47083Y-26421D02*
X47091Y-26428D01*
X47083Y-25562D02*
X47241Y-25562D01*
X47477Y-26586D02*
X47477Y-26428D01*
X46768Y-27137D02*
X46768Y-26951D01*
X46768Y-26951D02*
X46970Y-26750D01*
X46970Y-26750D02*
X46970Y-26550D01*
X46970Y-26550D02*
X47091Y-26428D01*
X47091Y-26428D02*
X47477Y-26428D01*
X45891Y-28200D02*
X45891Y-28561D01*
X45891Y-28561D02*
X45920Y-28590D01*
X46776Y-28200D02*
X46776Y-28580D01*
X48213Y-26113D02*
X47441Y-26113D01*
X48280Y-26180D02*
X48213Y-26113D01*
X47951Y-26271D02*
X47471Y-26271D01*
X48100Y-26420D02*
X47951Y-26271D01*
X48260Y-26420D02*
X48100Y-26420D01*
X48400Y-26560D02*
X48260Y-26420D01*
X48400Y-26660D02*
X48400Y-26560D01*
X48480Y-26740D02*
X48400Y-26660D01*
X48620Y-26740D02*
X48480Y-26740D01*
X48660Y-26780D02*
X48620Y-26740D01*
X45902Y-25798D02*
X45902Y-25622D01*
X45902Y-25622D02*
X45720Y-25440D01*
X46460Y-24364D02*
X46674Y-24364D01*
X46674Y-24364D02*
X46810Y-24500D01*
X41524Y-25720D02*
X41470Y-25720D01*
X41420Y-24690D02*
X41280Y-24550D01*
X41420Y-24690D02*
X41930Y-24690D01*
X41280Y-25530D02*
X41280Y-24550D01*
X41470Y-25720D02*
X41280Y-25530D01*
X47596Y-28640D02*
X47990Y-28640D01*
X46344Y-28580D02*
X46344Y-28826D01*
X46344Y-28826D02*
X46340Y-28830D01*
X45644Y-25364D02*
X45720Y-25440D01*
X45644Y-25364D02*
X45300Y-25364D01*
X45716Y-25444D02*
X45720Y-25440D01*
X40198Y-20050D02*
X39490Y-20050D01*
X39490Y-20050D02*
X39290Y-20250D01*
X41420Y-20325D02*
X41420Y-19740D01*
X41420Y-19740D02*
X41410Y-19730D01*
X41600Y-18620D02*
X40467Y-18620D01*
X40467Y-18620D02*
X40159Y-18928D01*
X40200Y-16315D02*
X38535Y-16315D01*
X38535Y-16315D02*
X38520Y-16300D01*
X44020Y-20336D02*
X44020Y-20704D01*
X44020Y-20704D02*
X44100Y-20784D01*
X44100Y-20784D02*
X43764Y-20784D01*
X43680Y-20700D02*
X43104Y-20700D01*
X43764Y-20784D02*
X43680Y-20700D01*
G54D37*
X41420Y-20325D02*
X42065Y-20325D01*
X42200Y-20460D02*
X42200Y-20704D01*
X42065Y-20325D02*
X42200Y-20460D01*
X40198Y-20050D02*
X40710Y-20050D01*
X40985Y-20325D02*
X41420Y-20325D01*
X40710Y-20050D02*
X40985Y-20325D01*
G54D36*
X42704Y-20800D02*
X43020Y-20800D01*
X43020Y-20800D02*
X43104Y-20716D01*
X43104Y-20716D02*
X43104Y-20700D01*
X43104Y-20700D02*
X43104Y-19960D01*
G54D37*
X42704Y-20800D02*
X42296Y-20800D01*
G54D36*
X42296Y-20800D02*
X42200Y-20704D01*
G54D37*
X39046Y-24960D02*
X39046Y-23621D01*
G54D36*
X39046Y-23621D02*
X39045Y-23620D01*
X41833Y-24120D02*
X41833Y-24593D01*
X41833Y-24593D02*
X41930Y-24690D01*
X45344Y-24780D02*
X45344Y-25320D01*
X45344Y-25320D02*
X45300Y-25364D01*
X45344Y-24380D02*
X45344Y-24780D01*
X45300Y-25364D02*
X44920Y-25364D01*
X46344Y-28200D02*
X46344Y-28580D01*
X46611Y-27137D02*
X46611Y-27748D01*
X46344Y-28016D02*
X46344Y-28200D01*
X46611Y-27748D02*
X46344Y-28016D01*
X47600Y-28236D02*
X47600Y-28636D01*
X47600Y-28636D02*
X47596Y-28640D01*
X47600Y-28236D02*
X48000Y-28236D01*
X48000Y-28236D02*
X48040Y-28196D01*
X47083Y-27137D02*
X47083Y-27703D01*
X47616Y-28236D02*
X47600Y-28236D01*
X47083Y-27703D02*
X47616Y-28236D01*
X43130Y-28160D02*
X44420Y-28160D01*
X42980Y-28010D02*
X43130Y-28160D01*
X42980Y-27750D02*
X42980Y-28010D01*
X42830Y-27600D02*
X42980Y-27750D01*
X45902Y-26271D02*
X45288Y-26271D01*
X45288Y-26271D02*
X45200Y-26360D01*
X45902Y-26586D02*
X45673Y-26586D01*
X45260Y-27000D02*
X44800Y-27000D01*
X45673Y-26586D02*
X45260Y-27000D01*
X45902Y-26586D02*
X46093Y-26586D01*
X46380Y-26300D02*
X46093Y-26586D01*
X46380Y-26300D02*
X46640Y-26300D01*
X44180Y-15840D02*
X45480Y-17140D01*
X40645Y-15725D02*
X40760Y-15840D01*
X40760Y-15840D02*
X44180Y-15840D01*
X43860Y-24860D02*
X43860Y-25040D01*
X45480Y-18920D02*
X45900Y-19340D01*
X45900Y-19340D02*
X45900Y-21340D01*
X45900Y-21340D02*
X43860Y-23380D01*
X43860Y-23380D02*
X43860Y-24860D01*
X45480Y-17140D02*
X45480Y-18920D01*
X44240Y-25260D02*
X44240Y-25540D01*
X44180Y-25200D02*
X44240Y-25260D01*
X44020Y-25200D02*
X44180Y-25200D01*
X43860Y-25040D02*
X44020Y-25200D01*
X40645Y-15725D02*
X40200Y-15725D01*
X45140Y-17520D02*
X44920Y-17300D01*
X45500Y-19520D02*
X45140Y-19160D01*
X41300Y-23264D02*
X42096Y-23264D01*
X43740Y-23060D02*
X45500Y-21300D01*
X42300Y-23060D02*
X43740Y-23060D01*
X42096Y-23264D02*
X42300Y-23060D01*
X45500Y-21300D02*
X45500Y-19520D01*
X45140Y-17520D02*
X45140Y-19160D01*
X40820Y-16860D02*
X40815Y-16865D01*
X40820Y-16880D02*
X40820Y-16860D01*
X41040Y-17100D02*
X40820Y-16880D01*
X44920Y-17300D02*
X44380Y-17300D01*
X40200Y-16865D02*
X40815Y-16865D01*
X42560Y-16560D02*
X42560Y-19840D01*
X42560Y-19840D02*
X42704Y-19984D01*
X42704Y-19984D02*
X42704Y-20425D01*
X43536Y-20425D02*
X43536Y-19960D01*
X42225Y-25260D02*
X42225Y-25451D01*
X42225Y-25451D02*
X41956Y-25720D01*
X41300Y-23696D02*
X41300Y-24040D01*
X41380Y-24120D02*
X41635Y-24120D01*
X41300Y-24040D02*
X41380Y-24120D01*
X48756Y-24690D02*
X48756Y-25166D01*
X48756Y-25166D02*
X48780Y-25190D01*
X47800Y-22880D02*
X47930Y-22880D01*
X47930Y-22880D02*
X48390Y-23340D01*
X45902Y-26428D02*
X45471Y-26428D01*
X45220Y-26680D02*
X44540Y-26680D01*
X45471Y-26428D02*
X45220Y-26680D01*
X44180Y-23460D02*
X44180Y-23840D01*
X44760Y-22880D02*
X44180Y-23460D01*
X47820Y-22880D02*
X47800Y-22880D01*
X47800Y-22880D02*
X44760Y-22880D01*
X40200Y-17455D02*
X39185Y-17455D01*
X39185Y-17455D02*
X38920Y-17720D01*
X42225Y-24120D02*
X42225Y-23895D01*
G54D37*
X43210Y-22340D02*
X43271Y-22340D01*
X42870Y-22680D02*
X42660Y-22680D01*
X43210Y-22340D02*
X42870Y-22680D01*
G54D36*
X42320Y-23800D02*
X42320Y-23640D01*
X42225Y-23895D02*
X42320Y-23800D01*
G54D37*
X40198Y-21310D02*
X39570Y-21310D01*
X39570Y-21310D02*
X39400Y-21140D01*
X43271Y-22340D02*
X42680Y-22340D01*
G54D36*
X41575Y-16560D02*
X41575Y-17244D01*
X41365Y-17455D02*
X40200Y-17455D01*
X41575Y-17244D02*
X41365Y-17455D01*
X42704Y-21175D02*
X42704Y-21464D01*
X43271Y-21691D02*
X43271Y-22340D01*
X43160Y-21580D02*
X43271Y-21691D01*
X42820Y-21580D02*
X43160Y-21580D01*
X42704Y-21464D02*
X42820Y-21580D01*
G54D37*
X42200Y-21136D02*
X41481Y-21136D01*
G54D36*
X41481Y-21136D02*
X41420Y-21075D01*
G54D37*
X40198Y-21310D02*
X40690Y-21310D01*
X40690Y-21310D02*
X40925Y-21075D01*
X40925Y-21075D02*
X41420Y-21075D01*
X42200Y-21136D02*
X42665Y-21136D01*
G54D36*
X42665Y-21136D02*
X42704Y-21175D01*
X44660Y-23720D02*
X44500Y-23880D01*
X44500Y-23880D02*
X44500Y-25000D01*
X45300Y-23720D02*
X44660Y-23720D01*
X43220Y-24780D02*
X42680Y-24780D01*
X45902Y-26743D02*
X46356Y-26743D01*
X46356Y-26743D02*
X46460Y-26640D01*
X44746Y-26113D02*
X45908Y-26113D01*
X44746Y-26113D02*
X43640Y-27220D01*
X42200Y-27220D02*
X43640Y-27220D01*
X42000Y-27020D02*
X42200Y-27220D01*
X42000Y-26810D02*
X42000Y-27020D01*
X42400Y-26410D02*
X42000Y-26810D01*
X42400Y-26150D02*
X42400Y-26410D01*
X42390Y-26140D02*
X42400Y-26150D01*
X46296Y-27131D02*
X46296Y-27603D01*
X46296Y-27603D02*
X46220Y-27680D01*
X46220Y-27680D02*
X45300Y-27680D01*
X45300Y-27680D02*
X45080Y-27900D01*
X45080Y-27900D02*
X45080Y-28320D01*
X45080Y-28320D02*
X44850Y-28550D01*
X49390Y-23440D02*
X49390Y-23340D01*
X46920Y-24060D02*
X46660Y-23800D01*
X46660Y-23800D02*
X46660Y-23540D01*
X46660Y-23540D02*
X46360Y-23240D01*
X49390Y-23440D02*
X48770Y-24060D01*
X46920Y-24060D02*
X48770Y-24060D01*
X43240Y-24190D02*
X43240Y-23580D01*
X42980Y-24450D02*
X43240Y-24190D01*
X42520Y-24450D02*
X42980Y-24450D01*
X43340Y-25860D02*
X44380Y-25860D01*
X44380Y-25860D02*
X44620Y-25620D01*
X44620Y-25620D02*
X44620Y-25220D01*
X44620Y-25220D02*
X44800Y-25040D01*
X44800Y-25040D02*
X44800Y-24160D01*
X44800Y-24160D02*
X44960Y-24000D01*
X44960Y-24000D02*
X45500Y-24000D01*
X45500Y-24000D02*
X45660Y-23840D01*
X45660Y-23840D02*
X45660Y-23500D01*
X45660Y-23500D02*
X45780Y-23380D01*
X45780Y-23380D02*
X46100Y-23380D01*
X46100Y-23380D02*
X46240Y-23520D01*
X46240Y-23520D02*
X46240Y-23700D01*
X43080Y-26120D02*
X43340Y-25860D01*
X43080Y-26380D02*
X43080Y-26120D01*
X42630Y-26830D02*
X43080Y-26380D01*
X42380Y-26830D02*
X42630Y-26830D01*
X42370Y-26840D02*
X42380Y-26830D01*
G54D10*
G36*
X41987Y-24740D02*
X41980Y-24740D01*
X41980Y-24747D01*
X41880Y-24747D01*
X41880Y-24740D01*
X41457Y-24740D01*
X41395Y-24802D01*
X41394Y-24984D01*
X41395Y-25083D01*
X41433Y-25175D01*
X41456Y-25199D01*
X41456Y-25377D01*
X41411Y-25332D01*
X41316Y-25332D01*
X41225Y-25370D01*
X41154Y-25440D01*
X41116Y-25532D01*
X41116Y-25632D01*
X41116Y-25607D01*
X41179Y-25670D01*
X41474Y-25670D01*
X41474Y-25662D01*
X41574Y-25662D01*
X41574Y-25670D01*
X41581Y-25670D01*
X41581Y-25770D01*
X41574Y-25770D01*
X41574Y-25777D01*
X41474Y-25777D01*
X41474Y-25770D01*
X41179Y-25770D01*
X41116Y-25832D01*
X41116Y-25807D01*
X41116Y-25907D01*
X41138Y-25960D01*
X40976Y-25960D01*
X40900Y-25883D01*
X40900Y-25300D01*
X40899Y-25299D01*
X40887Y-25238D01*
X40853Y-25186D01*
X40853Y-25186D01*
X40513Y-24846D01*
X40461Y-24812D01*
X40400Y-24800D01*
X40150Y-24800D01*
X40150Y-24329D01*
X40217Y-24330D01*
X40305Y-24293D01*
X40373Y-24226D01*
X40409Y-24137D01*
X40410Y-24042D01*
X40373Y-23954D01*
X40306Y-23886D01*
X40217Y-23850D01*
X40171Y-23850D01*
X40171Y-23820D01*
X40220Y-23820D01*
X40223Y-23823D01*
X40312Y-23859D01*
X40407Y-23860D01*
X40495Y-23823D01*
X40499Y-23820D01*
X40580Y-23820D01*
X40656Y-23804D01*
X40721Y-23761D01*
X41042Y-23440D01*
X41042Y-23445D01*
X41056Y-23480D01*
X41042Y-23514D01*
X41042Y-23562D01*
X41042Y-23877D01*
X41060Y-23921D01*
X41094Y-23955D01*
X41138Y-23973D01*
X41140Y-23973D01*
X41140Y-24040D01*
X41152Y-24101D01*
X41186Y-24153D01*
X41266Y-24233D01*
X41318Y-24267D01*
X41380Y-24280D01*
X41401Y-24280D01*
X41395Y-24296D01*
X41394Y-24395D01*
X41395Y-24577D01*
X41457Y-24640D01*
X41880Y-24640D01*
X41880Y-24632D01*
X41980Y-24632D01*
X41980Y-24640D01*
X41987Y-24640D01*
X41987Y-24740D01*
X41987Y-24740D01*
G37*
G54D38*
X41987Y-24740D02*
X41980Y-24740D01*
X41980Y-24747D01*
X41880Y-24747D01*
X41880Y-24740D01*
X41457Y-24740D01*
X41395Y-24802D01*
X41394Y-24984D01*
X41395Y-25083D01*
X41433Y-25175D01*
X41456Y-25199D01*
X41456Y-25377D01*
X41411Y-25332D01*
X41316Y-25332D01*
X41225Y-25370D01*
X41154Y-25440D01*
X41116Y-25532D01*
X41116Y-25632D01*
X41116Y-25607D01*
X41179Y-25670D01*
X41474Y-25670D01*
X41474Y-25662D01*
X41574Y-25662D01*
X41574Y-25670D01*
X41581Y-25670D01*
X41581Y-25770D01*
X41574Y-25770D01*
X41574Y-25777D01*
X41474Y-25777D01*
X41474Y-25770D01*
X41179Y-25770D01*
X41116Y-25832D01*
X41116Y-25807D01*
X41116Y-25907D01*
X41138Y-25960D01*
X40976Y-25960D01*
X40900Y-25883D01*
X40900Y-25300D01*
X40899Y-25299D01*
X40887Y-25238D01*
X40853Y-25186D01*
X40853Y-25186D01*
X40513Y-24846D01*
X40461Y-24812D01*
X40400Y-24800D01*
X40150Y-24800D01*
X40150Y-24329D01*
X40217Y-24330D01*
X40305Y-24293D01*
X40373Y-24226D01*
X40409Y-24137D01*
X40410Y-24042D01*
X40373Y-23954D01*
X40306Y-23886D01*
X40217Y-23850D01*
X40171Y-23850D01*
X40171Y-23820D01*
X40220Y-23820D01*
X40223Y-23823D01*
X40312Y-23859D01*
X40407Y-23860D01*
X40495Y-23823D01*
X40499Y-23820D01*
X40580Y-23820D01*
X40656Y-23804D01*
X40721Y-23761D01*
X41042Y-23440D01*
X41042Y-23445D01*
X41056Y-23480D01*
X41042Y-23514D01*
X41042Y-23562D01*
X41042Y-23877D01*
X41060Y-23921D01*
X41094Y-23955D01*
X41138Y-23973D01*
X41140Y-23973D01*
X41140Y-24040D01*
X41152Y-24101D01*
X41186Y-24153D01*
X41266Y-24233D01*
X41318Y-24267D01*
X41380Y-24280D01*
X41401Y-24280D01*
X41395Y-24296D01*
X41394Y-24395D01*
X41395Y-24577D01*
X41457Y-24640D01*
X41880Y-24640D01*
X41880Y-24632D01*
X41980Y-24632D01*
X41980Y-24640D01*
X41987Y-24640D01*
X41987Y-24740D01*
G54D10*
G36*
X44663Y-25980D02*
X44633Y-26000D01*
X43573Y-27060D01*
X42466Y-27060D01*
X42505Y-27043D01*
X42559Y-26990D01*
X42630Y-26990D01*
X42691Y-26977D01*
X42691Y-26977D01*
X42743Y-26943D01*
X43193Y-26493D01*
X43227Y-26441D01*
X43240Y-26380D01*
X43240Y-26186D01*
X43406Y-26020D01*
X44380Y-26020D01*
X44441Y-26007D01*
X44441Y-26007D01*
X44493Y-25973D01*
X44662Y-25803D01*
X44662Y-25977D01*
X44663Y-25980D01*
X44663Y-25980D01*
G37*
G54D38*
X44663Y-25980D02*
X44633Y-26000D01*
X43573Y-27060D01*
X42466Y-27060D01*
X42505Y-27043D01*
X42559Y-26990D01*
X42630Y-26990D01*
X42691Y-26977D01*
X42691Y-26977D01*
X42743Y-26943D01*
X43193Y-26493D01*
X43227Y-26441D01*
X43240Y-26380D01*
X43240Y-26186D01*
X43406Y-26020D01*
X44380Y-26020D01*
X44441Y-26007D01*
X44441Y-26007D01*
X44493Y-25973D01*
X44662Y-25803D01*
X44662Y-25977D01*
X44663Y-25980D01*
G54D10*
G36*
X45340Y-21233D02*
X45155Y-21418D01*
X45155Y-19897D01*
X45092Y-19744D01*
X44975Y-19627D01*
X44823Y-19564D01*
X44657Y-19564D01*
X44504Y-19627D01*
X44388Y-19744D01*
X44277Y-19744D01*
X44277Y-19722D01*
X44259Y-19678D01*
X44225Y-19644D01*
X44181Y-19626D01*
X44133Y-19626D01*
X44030Y-19626D01*
X44030Y-17002D01*
X44030Y-16672D01*
X43967Y-16610D01*
X43594Y-16610D01*
X43594Y-17239D01*
X43656Y-17302D01*
X43829Y-17302D01*
X43921Y-17264D01*
X43992Y-17193D01*
X44030Y-17102D01*
X44030Y-17002D01*
X44030Y-19626D01*
X43858Y-19626D01*
X43814Y-19644D01*
X43780Y-19678D01*
X43762Y-19722D01*
X43761Y-19720D01*
X43717Y-19702D01*
X43669Y-19702D01*
X43494Y-19702D01*
X43494Y-17239D01*
X43494Y-16610D01*
X43120Y-16610D01*
X43058Y-16672D01*
X43057Y-17002D01*
X43058Y-17102D01*
X43096Y-17193D01*
X43166Y-17264D01*
X43258Y-17302D01*
X43431Y-17302D01*
X43494Y-17239D01*
X43494Y-19702D01*
X43482Y-19702D01*
X43473Y-19680D01*
X43402Y-19610D01*
X43311Y-19572D01*
X43216Y-19572D01*
X43154Y-19635D01*
X43154Y-19910D01*
X43161Y-19910D01*
X43161Y-20010D01*
X43154Y-20010D01*
X43154Y-20285D01*
X43216Y-20347D01*
X43218Y-20347D01*
X43218Y-20566D01*
X43237Y-20610D01*
X43270Y-20644D01*
X43315Y-20662D01*
X43362Y-20663D01*
X43652Y-20663D01*
X43653Y-20671D01*
X43715Y-20734D01*
X43809Y-20734D01*
X43832Y-20743D01*
X43932Y-20743D01*
X43907Y-20743D01*
X43917Y-20734D01*
X44050Y-20734D01*
X44050Y-20419D01*
X43987Y-20357D01*
X43962Y-20356D01*
X43962Y-20286D01*
X43970Y-20286D01*
X43970Y-20278D01*
X44070Y-20278D01*
X44070Y-20286D01*
X44345Y-20286D01*
X44401Y-20229D01*
X44504Y-20332D01*
X44570Y-20359D01*
X44570Y-20740D01*
X44547Y-20763D01*
X44547Y-20763D01*
X44547Y-20733D01*
X44484Y-20733D01*
X44547Y-20671D01*
X44547Y-20557D01*
X44509Y-20465D01*
X44438Y-20395D01*
X44346Y-20357D01*
X44247Y-20356D01*
X44212Y-20357D01*
X44183Y-20386D01*
X44070Y-20386D01*
X44070Y-20681D01*
X44132Y-20743D01*
X44107Y-20743D01*
X44157Y-20743D01*
X44157Y-20834D01*
X44150Y-20834D01*
X44150Y-20841D01*
X44050Y-20841D01*
X44050Y-20834D01*
X43715Y-20834D01*
X43653Y-20896D01*
X43652Y-20936D01*
X43315Y-20936D01*
X43271Y-20955D01*
X43237Y-20988D01*
X43219Y-21033D01*
X43218Y-21080D01*
X43218Y-21316D01*
X43237Y-21360D01*
X43270Y-21394D01*
X43315Y-21412D01*
X43362Y-21413D01*
X43446Y-21413D01*
X43522Y-21489D01*
X43574Y-21523D01*
X43636Y-21536D01*
X43782Y-21536D01*
X43782Y-21576D01*
X43801Y-21620D01*
X43834Y-21654D01*
X43879Y-21672D01*
X43926Y-21673D01*
X44320Y-21673D01*
X44364Y-21654D01*
X44398Y-21621D01*
X44416Y-21576D01*
X44417Y-21529D01*
X44445Y-21523D01*
X44445Y-21523D01*
X44497Y-21489D01*
X44843Y-21143D01*
X44843Y-21143D01*
X44852Y-21129D01*
X44852Y-21129D01*
X44865Y-21123D01*
X44933Y-21056D01*
X44969Y-20967D01*
X44970Y-20872D01*
X44933Y-20784D01*
X44890Y-20740D01*
X44890Y-20367D01*
X44975Y-20332D01*
X45092Y-20215D01*
X45155Y-20063D01*
X45155Y-19897D01*
X45155Y-21418D01*
X43784Y-22789D01*
X43784Y-22769D01*
X43784Y-21863D01*
X43766Y-21819D01*
X43732Y-21785D01*
X43688Y-21767D01*
X43640Y-21766D01*
X43431Y-21766D01*
X43431Y-21691D01*
X43418Y-21629D01*
X43384Y-21577D01*
X43273Y-21466D01*
X43221Y-21432D01*
X43160Y-21420D01*
X42886Y-21420D01*
X42879Y-21413D01*
X42924Y-21413D01*
X42968Y-21394D01*
X43002Y-21361D01*
X43020Y-21316D01*
X43021Y-21269D01*
X43021Y-21138D01*
X43042Y-21129D01*
X43113Y-21059D01*
X43151Y-20967D01*
X43151Y-20912D01*
X43088Y-20850D01*
X42754Y-20850D01*
X42754Y-20857D01*
X42654Y-20857D01*
X42654Y-20850D01*
X42646Y-20850D01*
X42646Y-20750D01*
X42654Y-20750D01*
X42654Y-20742D01*
X42754Y-20742D01*
X42754Y-20750D01*
X43088Y-20750D01*
X43151Y-20687D01*
X43151Y-20632D01*
X43113Y-20540D01*
X43042Y-20470D01*
X43021Y-20461D01*
X43021Y-20317D01*
X43054Y-20285D01*
X43054Y-20010D01*
X43046Y-20010D01*
X43046Y-19910D01*
X43054Y-19910D01*
X43054Y-19635D01*
X42991Y-19572D01*
X42896Y-19572D01*
X42805Y-19610D01*
X42734Y-19680D01*
X42720Y-19716D01*
X42720Y-17172D01*
X42819Y-17172D01*
X42864Y-17153D01*
X42897Y-17120D01*
X42916Y-17076D01*
X42916Y-17028D01*
X42916Y-16044D01*
X42898Y-16000D01*
X43065Y-16000D01*
X43058Y-16017D01*
X43057Y-16117D01*
X43058Y-16447D01*
X43120Y-16510D01*
X43494Y-16510D01*
X43494Y-16502D01*
X43594Y-16502D01*
X43594Y-16510D01*
X43967Y-16510D01*
X44030Y-16447D01*
X44030Y-16117D01*
X44030Y-16017D01*
X44022Y-16000D01*
X44113Y-16000D01*
X44830Y-16717D01*
X44784Y-16736D01*
X44716Y-16803D01*
X44680Y-16892D01*
X44679Y-16987D01*
X44716Y-17075D01*
X44780Y-17140D01*
X44559Y-17140D01*
X44516Y-17096D01*
X44427Y-17060D01*
X44332Y-17059D01*
X44244Y-17096D01*
X44176Y-17163D01*
X44140Y-17252D01*
X44139Y-17347D01*
X44176Y-17435D01*
X44243Y-17503D01*
X44332Y-17539D01*
X44427Y-17540D01*
X44515Y-17503D01*
X44559Y-17460D01*
X44853Y-17460D01*
X44980Y-17586D01*
X44980Y-19160D01*
X44992Y-19221D01*
X45026Y-19273D01*
X45340Y-19586D01*
X45340Y-21233D01*
X45340Y-21233D01*
G37*
G54D38*
X45340Y-21233D02*
X45155Y-21418D01*
X45155Y-19897D01*
X45092Y-19744D01*
X44975Y-19627D01*
X44823Y-19564D01*
X44657Y-19564D01*
X44504Y-19627D01*
X44388Y-19744D01*
X44277Y-19744D01*
X44277Y-19722D01*
X44259Y-19678D01*
X44225Y-19644D01*
X44181Y-19626D01*
X44133Y-19626D01*
X44030Y-19626D01*
X44030Y-17002D01*
X44030Y-16672D01*
X43967Y-16610D01*
X43594Y-16610D01*
X43594Y-17239D01*
X43656Y-17302D01*
X43829Y-17302D01*
X43921Y-17264D01*
X43992Y-17193D01*
X44030Y-17102D01*
X44030Y-17002D01*
X44030Y-19626D01*
X43858Y-19626D01*
X43814Y-19644D01*
X43780Y-19678D01*
X43762Y-19722D01*
X43761Y-19720D01*
X43717Y-19702D01*
X43669Y-19702D01*
X43494Y-19702D01*
X43494Y-17239D01*
X43494Y-16610D01*
X43120Y-16610D01*
X43058Y-16672D01*
X43057Y-17002D01*
X43058Y-17102D01*
X43096Y-17193D01*
X43166Y-17264D01*
X43258Y-17302D01*
X43431Y-17302D01*
X43494Y-17239D01*
X43494Y-19702D01*
X43482Y-19702D01*
X43473Y-19680D01*
X43402Y-19610D01*
X43311Y-19572D01*
X43216Y-19572D01*
X43154Y-19635D01*
X43154Y-19910D01*
X43161Y-19910D01*
X43161Y-20010D01*
X43154Y-20010D01*
X43154Y-20285D01*
X43216Y-20347D01*
X43218Y-20347D01*
X43218Y-20566D01*
X43237Y-20610D01*
X43270Y-20644D01*
X43315Y-20662D01*
X43362Y-20663D01*
X43652Y-20663D01*
X43653Y-20671D01*
X43715Y-20734D01*
X43809Y-20734D01*
X43832Y-20743D01*
X43932Y-20743D01*
X43907Y-20743D01*
X43917Y-20734D01*
X44050Y-20734D01*
X44050Y-20419D01*
X43987Y-20357D01*
X43962Y-20356D01*
X43962Y-20286D01*
X43970Y-20286D01*
X43970Y-20278D01*
X44070Y-20278D01*
X44070Y-20286D01*
X44345Y-20286D01*
X44401Y-20229D01*
X44504Y-20332D01*
X44570Y-20359D01*
X44570Y-20740D01*
X44547Y-20763D01*
X44547Y-20763D01*
X44547Y-20733D01*
X44484Y-20733D01*
X44547Y-20671D01*
X44547Y-20557D01*
X44509Y-20465D01*
X44438Y-20395D01*
X44346Y-20357D01*
X44247Y-20356D01*
X44212Y-20357D01*
X44183Y-20386D01*
X44070Y-20386D01*
X44070Y-20681D01*
X44132Y-20743D01*
X44107Y-20743D01*
X44157Y-20743D01*
X44157Y-20834D01*
X44150Y-20834D01*
X44150Y-20841D01*
X44050Y-20841D01*
X44050Y-20834D01*
X43715Y-20834D01*
X43653Y-20896D01*
X43652Y-20936D01*
X43315Y-20936D01*
X43271Y-20955D01*
X43237Y-20988D01*
X43219Y-21033D01*
X43218Y-21080D01*
X43218Y-21316D01*
X43237Y-21360D01*
X43270Y-21394D01*
X43315Y-21412D01*
X43362Y-21413D01*
X43446Y-21413D01*
X43522Y-21489D01*
X43574Y-21523D01*
X43636Y-21536D01*
X43782Y-21536D01*
X43782Y-21576D01*
X43801Y-21620D01*
X43834Y-21654D01*
X43879Y-21672D01*
X43926Y-21673D01*
X44320Y-21673D01*
X44364Y-21654D01*
X44398Y-21621D01*
X44416Y-21576D01*
X44417Y-21529D01*
X44445Y-21523D01*
X44445Y-21523D01*
X44497Y-21489D01*
X44843Y-21143D01*
X44843Y-21143D01*
X44852Y-21129D01*
X44852Y-21129D01*
X44865Y-21123D01*
X44933Y-21056D01*
X44969Y-20967D01*
X44970Y-20872D01*
X44933Y-20784D01*
X44890Y-20740D01*
X44890Y-20367D01*
X44975Y-20332D01*
X45092Y-20215D01*
X45155Y-20063D01*
X45155Y-19897D01*
X45155Y-21418D01*
X43784Y-22789D01*
X43784Y-22769D01*
X43784Y-21863D01*
X43766Y-21819D01*
X43732Y-21785D01*
X43688Y-21767D01*
X43640Y-21766D01*
X43431Y-21766D01*
X43431Y-21691D01*
X43418Y-21629D01*
X43384Y-21577D01*
X43273Y-21466D01*
X43221Y-21432D01*
X43160Y-21420D01*
X42886Y-21420D01*
X42879Y-21413D01*
X42924Y-21413D01*
X42968Y-21394D01*
X43002Y-21361D01*
X43020Y-21316D01*
X43021Y-21269D01*
X43021Y-21138D01*
X43042Y-21129D01*
X43113Y-21059D01*
X43151Y-20967D01*
X43151Y-20912D01*
X43088Y-20850D01*
X42754Y-20850D01*
X42754Y-20857D01*
X42654Y-20857D01*
X42654Y-20850D01*
X42646Y-20850D01*
X42646Y-20750D01*
X42654Y-20750D01*
X42654Y-20742D01*
X42754Y-20742D01*
X42754Y-20750D01*
X43088Y-20750D01*
X43151Y-20687D01*
X43151Y-20632D01*
X43113Y-20540D01*
X43042Y-20470D01*
X43021Y-20461D01*
X43021Y-20317D01*
X43054Y-20285D01*
X43054Y-20010D01*
X43046Y-20010D01*
X43046Y-19910D01*
X43054Y-19910D01*
X43054Y-19635D01*
X42991Y-19572D01*
X42896Y-19572D01*
X42805Y-19610D01*
X42734Y-19680D01*
X42720Y-19716D01*
X42720Y-17172D01*
X42819Y-17172D01*
X42864Y-17153D01*
X42897Y-17120D01*
X42916Y-17076D01*
X42916Y-17028D01*
X42916Y-16044D01*
X42898Y-16000D01*
X43065Y-16000D01*
X43058Y-16017D01*
X43057Y-16117D01*
X43058Y-16447D01*
X43120Y-16510D01*
X43494Y-16510D01*
X43494Y-16502D01*
X43594Y-16502D01*
X43594Y-16510D01*
X43967Y-16510D01*
X44030Y-16447D01*
X44030Y-16117D01*
X44030Y-16017D01*
X44022Y-16000D01*
X44113Y-16000D01*
X44830Y-16717D01*
X44784Y-16736D01*
X44716Y-16803D01*
X44680Y-16892D01*
X44679Y-16987D01*
X44716Y-17075D01*
X44780Y-17140D01*
X44559Y-17140D01*
X44516Y-17096D01*
X44427Y-17060D01*
X44332Y-17059D01*
X44244Y-17096D01*
X44176Y-17163D01*
X44140Y-17252D01*
X44139Y-17347D01*
X44176Y-17435D01*
X44243Y-17503D01*
X44332Y-17539D01*
X44427Y-17540D01*
X44515Y-17503D01*
X44559Y-17460D01*
X44853Y-17460D01*
X44980Y-17586D01*
X44980Y-19160D01*
X44992Y-19221D01*
X45026Y-19273D01*
X45340Y-19586D01*
X45340Y-21233D01*
G54D10*
G36*
X45978Y-25509D02*
X45952Y-25509D01*
X45952Y-25779D01*
X45960Y-25779D01*
X45960Y-25796D01*
X45902Y-25796D01*
X45844Y-25796D01*
X45844Y-25779D01*
X45852Y-25779D01*
X45852Y-25509D01*
X45734Y-25509D01*
X45687Y-25527D01*
X45687Y-25476D01*
X45625Y-25414D01*
X45350Y-25414D01*
X45350Y-25421D01*
X45252Y-25421D01*
X45250Y-25419D01*
X45250Y-25414D01*
X45245Y-25414D01*
X44975Y-25414D01*
X44970Y-25414D01*
X44970Y-25419D01*
X44967Y-25421D01*
X44870Y-25421D01*
X44870Y-25414D01*
X44862Y-25414D01*
X44862Y-25314D01*
X44870Y-25314D01*
X44870Y-25306D01*
X44967Y-25306D01*
X44970Y-25309D01*
X44970Y-25314D01*
X44975Y-25314D01*
X45245Y-25314D01*
X45250Y-25314D01*
X45250Y-25309D01*
X45307Y-25251D01*
X45307Y-25156D01*
X45288Y-25110D01*
X45294Y-25105D01*
X45294Y-24830D01*
X45286Y-24830D01*
X45286Y-24730D01*
X45294Y-24730D01*
X45294Y-24705D01*
X45294Y-24455D01*
X45294Y-24430D01*
X45286Y-24430D01*
X45286Y-24330D01*
X45294Y-24330D01*
X45294Y-24322D01*
X45394Y-24322D01*
X45394Y-24330D01*
X45401Y-24330D01*
X45401Y-24430D01*
X45394Y-24430D01*
X45394Y-24455D01*
X45394Y-24705D01*
X45394Y-24730D01*
X45401Y-24730D01*
X45401Y-24830D01*
X45394Y-24830D01*
X45394Y-24956D01*
X45387Y-24956D01*
X45394Y-24956D01*
X45394Y-24975D01*
X45350Y-25019D01*
X45350Y-25314D01*
X45625Y-25314D01*
X45676Y-25262D01*
X45706Y-25293D01*
X45706Y-25293D01*
X45758Y-25327D01*
X45820Y-25340D01*
X45978Y-25340D01*
X45978Y-25498D01*
X45978Y-25509D01*
X45978Y-25509D01*
G37*
G54D38*
X45978Y-25509D02*
X45952Y-25509D01*
X45952Y-25779D01*
X45960Y-25779D01*
X45960Y-25796D01*
X45902Y-25796D01*
X45844Y-25796D01*
X45844Y-25779D01*
X45852Y-25779D01*
X45852Y-25509D01*
X45734Y-25509D01*
X45687Y-25527D01*
X45687Y-25476D01*
X45625Y-25414D01*
X45350Y-25414D01*
X45350Y-25421D01*
X45252Y-25421D01*
X45250Y-25419D01*
X45250Y-25414D01*
X45245Y-25414D01*
X44975Y-25414D01*
X44970Y-25414D01*
X44970Y-25419D01*
X44967Y-25421D01*
X44870Y-25421D01*
X44870Y-25414D01*
X44862Y-25414D01*
X44862Y-25314D01*
X44870Y-25314D01*
X44870Y-25306D01*
X44967Y-25306D01*
X44970Y-25309D01*
X44970Y-25314D01*
X44975Y-25314D01*
X45245Y-25314D01*
X45250Y-25314D01*
X45250Y-25309D01*
X45307Y-25251D01*
X45307Y-25156D01*
X45288Y-25110D01*
X45294Y-25105D01*
X45294Y-24830D01*
X45286Y-24830D01*
X45286Y-24730D01*
X45294Y-24730D01*
X45294Y-24705D01*
X45294Y-24455D01*
X45294Y-24430D01*
X45286Y-24430D01*
X45286Y-24330D01*
X45294Y-24330D01*
X45294Y-24322D01*
X45394Y-24322D01*
X45394Y-24330D01*
X45401Y-24330D01*
X45401Y-24430D01*
X45394Y-24430D01*
X45394Y-24455D01*
X45394Y-24705D01*
X45394Y-24730D01*
X45401Y-24730D01*
X45401Y-24830D01*
X45394Y-24830D01*
X45394Y-24956D01*
X45387Y-24956D01*
X45394Y-24956D01*
X45394Y-24975D01*
X45350Y-25019D01*
X45350Y-25314D01*
X45625Y-25314D01*
X45676Y-25262D01*
X45706Y-25293D01*
X45706Y-25293D01*
X45758Y-25327D01*
X45820Y-25340D01*
X45978Y-25340D01*
X45978Y-25498D01*
X45978Y-25509D01*
G54D10*
G36*
X47013Y-24360D02*
X46936Y-24436D01*
X46902Y-24488D01*
X46890Y-24550D01*
X46890Y-24583D01*
X46883Y-24590D01*
X46839Y-24590D01*
X46847Y-24571D01*
X46847Y-24476D01*
X46785Y-24414D01*
X46510Y-24414D01*
X46510Y-24421D01*
X46410Y-24421D01*
X46410Y-24414D01*
X46402Y-24414D01*
X46402Y-24378D01*
X46420Y-24360D01*
X47013Y-24360D01*
X47013Y-24360D01*
G37*
G54D38*
X47013Y-24360D02*
X46936Y-24436D01*
X46902Y-24488D01*
X46890Y-24550D01*
X46890Y-24583D01*
X46883Y-24590D01*
X46839Y-24590D01*
X46847Y-24571D01*
X46847Y-24476D01*
X46785Y-24414D01*
X46510Y-24414D01*
X46510Y-24421D01*
X46410Y-24421D01*
X46410Y-24414D01*
X46402Y-24414D01*
X46402Y-24378D01*
X46420Y-24360D01*
X47013Y-24360D01*
G54D10*
G36*
X47282Y-21739D02*
X47229Y-21750D01*
X47093Y-21841D01*
X47001Y-21977D01*
X46970Y-22138D01*
X46970Y-22345D01*
X47001Y-22506D01*
X47093Y-22642D01*
X47208Y-22720D01*
X45850Y-22720D01*
X45850Y-22252D01*
X45813Y-22164D01*
X45746Y-22096D01*
X45657Y-22060D01*
X45562Y-22059D01*
X45474Y-22096D01*
X45406Y-22163D01*
X45370Y-22252D01*
X45369Y-22347D01*
X45406Y-22435D01*
X45473Y-22503D01*
X45562Y-22539D01*
X45657Y-22540D01*
X45745Y-22503D01*
X45813Y-22436D01*
X45849Y-22347D01*
X45850Y-22252D01*
X45850Y-22720D01*
X44760Y-22720D01*
X44742Y-22723D01*
X46013Y-21453D01*
X46013Y-21453D01*
X46013Y-21453D01*
X46047Y-21401D01*
X46059Y-21340D01*
X46060Y-21340D01*
X46060Y-19356D01*
X46076Y-19395D01*
X46143Y-19463D01*
X46232Y-19499D01*
X46327Y-19500D01*
X46415Y-19463D01*
X46483Y-19396D01*
X46519Y-19307D01*
X46520Y-19246D01*
X46533Y-19233D01*
X46567Y-19181D01*
X46579Y-19120D01*
X46580Y-19120D01*
X46580Y-18543D01*
X46655Y-18512D01*
X46772Y-18395D01*
X46835Y-18243D01*
X46835Y-18077D01*
X46772Y-17924D01*
X46655Y-17807D01*
X46503Y-17744D01*
X46337Y-17744D01*
X46184Y-17807D01*
X46067Y-17924D01*
X46004Y-18076D01*
X46004Y-18242D01*
X46067Y-18395D01*
X46184Y-18512D01*
X46260Y-18543D01*
X46260Y-19019D01*
X46232Y-19019D01*
X46144Y-19056D01*
X46076Y-19123D01*
X46040Y-19212D01*
X46039Y-19267D01*
X46013Y-19226D01*
X45640Y-18853D01*
X45640Y-17140D01*
X45627Y-17078D01*
X45593Y-17026D01*
X44293Y-15726D01*
X44241Y-15692D01*
X44180Y-15680D01*
X44116Y-15680D01*
X44150Y-15645D01*
X44195Y-15536D01*
X44195Y-15418D01*
X44150Y-15309D01*
X44067Y-15225D01*
X43957Y-15180D01*
X43839Y-15180D01*
X43730Y-15225D01*
X43646Y-15308D01*
X43601Y-15417D01*
X43601Y-15536D01*
X43646Y-15645D01*
X43681Y-15680D01*
X42870Y-15680D01*
X42870Y-15382D01*
X42833Y-15294D01*
X42766Y-15226D01*
X42677Y-15190D01*
X42582Y-15189D01*
X42494Y-15226D01*
X42426Y-15293D01*
X42390Y-15382D01*
X42389Y-15477D01*
X42426Y-15565D01*
X42493Y-15633D01*
X42582Y-15669D01*
X42677Y-15670D01*
X42765Y-15633D01*
X42833Y-15566D01*
X42869Y-15477D01*
X42870Y-15382D01*
X42870Y-15680D01*
X41439Y-15680D01*
X41473Y-15645D01*
X41518Y-15536D01*
X41518Y-15418D01*
X41473Y-15309D01*
X41389Y-15225D01*
X41280Y-15180D01*
X41162Y-15180D01*
X41053Y-15225D01*
X40969Y-15308D01*
X40924Y-15417D01*
X40924Y-15536D01*
X40969Y-15645D01*
X41003Y-15680D01*
X40826Y-15680D01*
X40758Y-15611D01*
X40706Y-15577D01*
X40645Y-15565D01*
X40477Y-15565D01*
X40477Y-15544D01*
X40458Y-15500D01*
X40425Y-15466D01*
X40380Y-15448D01*
X40333Y-15447D01*
X40019Y-15447D01*
X39975Y-15466D01*
X39941Y-15499D01*
X39923Y-15544D01*
X39922Y-15591D01*
X39922Y-15905D01*
X39934Y-15932D01*
X39901Y-15946D01*
X39830Y-16016D01*
X39792Y-16108D01*
X39793Y-16202D01*
X39855Y-16265D01*
X40150Y-16265D01*
X40150Y-16257D01*
X40250Y-16257D01*
X40250Y-16265D01*
X40544Y-16265D01*
X40607Y-16202D01*
X40607Y-16108D01*
X40569Y-16016D01*
X40498Y-15946D01*
X40465Y-15932D01*
X40476Y-15905D01*
X40476Y-15885D01*
X40578Y-15885D01*
X40646Y-15953D01*
X40646Y-15953D01*
X40698Y-15987D01*
X40759Y-15999D01*
X40760Y-16000D01*
X41237Y-16000D01*
X41219Y-16043D01*
X41219Y-16091D01*
X41219Y-16940D01*
X41176Y-16896D01*
X41087Y-16860D01*
X41026Y-16859D01*
X40968Y-16802D01*
X40967Y-16798D01*
X40967Y-16798D01*
X40933Y-16746D01*
X40881Y-16712D01*
X40820Y-16700D01*
X40794Y-16705D01*
X40477Y-16705D01*
X40477Y-16692D01*
X40498Y-16683D01*
X40569Y-16613D01*
X40607Y-16521D01*
X40607Y-16427D01*
X40544Y-16365D01*
X40250Y-16365D01*
X40250Y-16372D01*
X40150Y-16372D01*
X40150Y-16365D01*
X39855Y-16365D01*
X39793Y-16427D01*
X39792Y-16521D01*
X39830Y-16613D01*
X39901Y-16683D01*
X39923Y-16692D01*
X39922Y-16731D01*
X39922Y-17045D01*
X39941Y-17089D01*
X39974Y-17123D01*
X40019Y-17141D01*
X40066Y-17142D01*
X40380Y-17142D01*
X40424Y-17123D01*
X40458Y-17090D01*
X40476Y-17045D01*
X40476Y-17025D01*
X40738Y-17025D01*
X40800Y-17086D01*
X40799Y-17147D01*
X40836Y-17235D01*
X40895Y-17295D01*
X40477Y-17295D01*
X40477Y-17274D01*
X40458Y-17230D01*
X40425Y-17196D01*
X40380Y-17178D01*
X40333Y-17177D01*
X40019Y-17177D01*
X39975Y-17196D01*
X39941Y-17229D01*
X39923Y-17274D01*
X39923Y-17295D01*
X39670Y-17295D01*
X39670Y-16524D01*
X39669Y-16067D01*
X39497Y-15651D01*
X39339Y-15551D01*
X39268Y-15621D01*
X39268Y-15480D01*
X39168Y-15322D01*
X38744Y-15149D01*
X38287Y-15150D01*
X37871Y-15322D01*
X37771Y-15480D01*
X38520Y-16229D01*
X39268Y-15480D01*
X39268Y-15621D01*
X38590Y-16300D01*
X39339Y-17048D01*
X39497Y-16948D01*
X39670Y-16524D01*
X39670Y-17295D01*
X39268Y-17295D01*
X39268Y-17119D01*
X38520Y-16370D01*
X38449Y-16441D01*
X38449Y-16300D01*
X37700Y-15551D01*
X37542Y-15651D01*
X37369Y-16075D01*
X37370Y-16532D01*
X37542Y-16948D01*
X37700Y-17048D01*
X38449Y-16300D01*
X38449Y-16441D01*
X37771Y-17119D01*
X37871Y-17277D01*
X38295Y-17450D01*
X38752Y-17449D01*
X39168Y-17277D01*
X39268Y-17119D01*
X39268Y-17295D01*
X39185Y-17295D01*
X39123Y-17307D01*
X39071Y-17341D01*
X38933Y-17480D01*
X38872Y-17479D01*
X38784Y-17516D01*
X38716Y-17583D01*
X38680Y-17672D01*
X38679Y-17767D01*
X38716Y-17855D01*
X38783Y-17923D01*
X38872Y-17959D01*
X38967Y-17960D01*
X39055Y-17923D01*
X39123Y-17856D01*
X39159Y-17767D01*
X39160Y-17706D01*
X39251Y-17615D01*
X39922Y-17615D01*
X39922Y-17635D01*
X39941Y-17679D01*
X39974Y-17713D01*
X40019Y-17731D01*
X40066Y-17732D01*
X40380Y-17732D01*
X40424Y-17713D01*
X40458Y-17680D01*
X40476Y-17635D01*
X40476Y-17615D01*
X41365Y-17615D01*
X41426Y-17602D01*
X41426Y-17602D01*
X41478Y-17568D01*
X41688Y-17357D01*
X41688Y-17357D01*
X41723Y-17305D01*
X41735Y-17244D01*
X41735Y-17244D01*
X41735Y-17172D01*
X41835Y-17172D01*
X41879Y-17153D01*
X41913Y-17120D01*
X41931Y-17076D01*
X41931Y-17028D01*
X41931Y-16044D01*
X41913Y-16000D01*
X42222Y-16000D01*
X42203Y-16043D01*
X42203Y-16091D01*
X42203Y-17075D01*
X42221Y-17120D01*
X42255Y-17153D01*
X42299Y-17172D01*
X42347Y-17172D01*
X42400Y-17172D01*
X42400Y-19840D01*
X42412Y-19901D01*
X42446Y-19953D01*
X42544Y-20050D01*
X42544Y-20186D01*
X42483Y-20186D01*
X42439Y-20205D01*
X42405Y-20238D01*
X42387Y-20283D01*
X42387Y-20296D01*
X42287Y-20296D01*
X42312Y-20296D01*
X42250Y-20359D01*
X42250Y-20654D01*
X42256Y-20654D01*
X42257Y-20687D01*
X42257Y-20688D01*
X42257Y-20749D01*
X42257Y-20749D01*
X42257Y-20754D01*
X42250Y-20754D01*
X42250Y-20761D01*
X42150Y-20761D01*
X42150Y-18700D01*
X42139Y-18483D01*
X42077Y-18334D01*
X41982Y-18308D01*
X41911Y-18378D01*
X41911Y-18237D01*
X41885Y-18142D01*
X41680Y-18069D01*
X41463Y-18080D01*
X41314Y-18142D01*
X41288Y-18237D01*
X41600Y-18549D01*
X41911Y-18237D01*
X41911Y-18378D01*
X41670Y-18620D01*
X41982Y-18931D01*
X42077Y-18905D01*
X42150Y-18700D01*
X42150Y-20761D01*
X42150Y-20761D01*
X42150Y-20754D01*
X42142Y-20754D01*
X42142Y-20654D01*
X42150Y-20654D01*
X42150Y-20359D01*
X42087Y-20296D01*
X42112Y-20296D01*
X42012Y-20296D01*
X41965Y-20316D01*
X41965Y-20316D01*
X41965Y-20274D01*
X41902Y-20274D01*
X41965Y-20212D01*
X41965Y-20019D01*
X41927Y-19927D01*
X41911Y-19912D01*
X41911Y-19002D01*
X41600Y-18690D01*
X41529Y-18761D01*
X41529Y-18620D01*
X41217Y-18308D01*
X41122Y-18334D01*
X41049Y-18539D01*
X41060Y-18756D01*
X41122Y-18905D01*
X41217Y-18931D01*
X41529Y-18620D01*
X41529Y-18761D01*
X41288Y-19002D01*
X41314Y-19097D01*
X41519Y-19170D01*
X41736Y-19159D01*
X41885Y-19097D01*
X41911Y-19002D01*
X41911Y-19912D01*
X41856Y-19857D01*
X41764Y-19819D01*
X41665Y-19818D01*
X41532Y-19819D01*
X41470Y-19881D01*
X41470Y-20275D01*
X41477Y-20275D01*
X41477Y-20375D01*
X41470Y-20375D01*
X41470Y-20382D01*
X41370Y-20382D01*
X41370Y-20375D01*
X40937Y-20375D01*
X40875Y-20437D01*
X40874Y-20630D01*
X40912Y-20722D01*
X40983Y-20792D01*
X41005Y-20801D01*
X41004Y-20842D01*
X41004Y-20875D01*
X40925Y-20875D01*
X40848Y-20890D01*
X40783Y-20933D01*
X40771Y-20946D01*
X40771Y-20872D01*
X40756Y-20837D01*
X40770Y-20802D01*
X40771Y-20754D01*
X40771Y-20557D01*
X40756Y-20522D01*
X40770Y-20487D01*
X40771Y-20439D01*
X40771Y-20369D01*
X40792Y-20360D01*
X40862Y-20290D01*
X40889Y-20226D01*
X40937Y-20275D01*
X41370Y-20275D01*
X41370Y-19881D01*
X41307Y-19819D01*
X41174Y-19818D01*
X41075Y-19819D01*
X40983Y-19857D01*
X40912Y-19927D01*
X40901Y-19956D01*
X40901Y-19271D01*
X40901Y-18584D01*
X40900Y-18484D01*
X40862Y-18392D01*
X40792Y-18322D01*
X40700Y-18284D01*
X40271Y-18284D01*
X40209Y-18347D01*
X40209Y-18878D01*
X40838Y-18878D01*
X40901Y-18815D01*
X40901Y-18584D01*
X40901Y-19271D01*
X40901Y-19040D01*
X40838Y-18978D01*
X40209Y-18978D01*
X40209Y-19509D01*
X40271Y-19571D01*
X40700Y-19571D01*
X40792Y-19533D01*
X40862Y-19463D01*
X40900Y-19371D01*
X40901Y-19271D01*
X40901Y-19956D01*
X40901Y-19956D01*
X40901Y-20001D01*
X40901Y-19956D01*
X40900Y-19956D01*
X40883Y-19999D01*
X40839Y-19999D01*
X40900Y-19938D01*
X40900Y-19901D01*
X40862Y-19809D01*
X40792Y-19739D01*
X40700Y-19701D01*
X40310Y-19701D01*
X40248Y-19764D01*
X40248Y-20000D01*
X40255Y-20000D01*
X40255Y-20099D01*
X40248Y-20099D01*
X40248Y-20107D01*
X40148Y-20107D01*
X40148Y-20099D01*
X40148Y-20000D01*
X40148Y-19764D01*
X40109Y-19725D01*
X40109Y-19509D01*
X40109Y-18978D01*
X40109Y-18878D01*
X40109Y-18347D01*
X40046Y-18284D01*
X39617Y-18284D01*
X39525Y-18322D01*
X39455Y-18392D01*
X39417Y-18484D01*
X39416Y-18584D01*
X39417Y-18815D01*
X39479Y-18878D01*
X40109Y-18878D01*
X40109Y-18978D01*
X39479Y-18978D01*
X39417Y-19040D01*
X39416Y-19271D01*
X39417Y-19371D01*
X39455Y-19463D01*
X39525Y-19533D01*
X39617Y-19571D01*
X40046Y-19571D01*
X40109Y-19509D01*
X40109Y-19725D01*
X40085Y-19701D01*
X39695Y-19701D01*
X39603Y-19739D01*
X39533Y-19809D01*
X39495Y-19901D01*
X39495Y-19938D01*
X39557Y-20000D01*
X40148Y-20000D01*
X40148Y-20099D01*
X39557Y-20099D01*
X39495Y-20161D01*
X39495Y-20198D01*
X39533Y-20290D01*
X39603Y-20360D01*
X39624Y-20369D01*
X39624Y-20487D01*
X39639Y-20522D01*
X39625Y-20557D01*
X39624Y-20605D01*
X39624Y-20802D01*
X39639Y-20837D01*
X39625Y-20872D01*
X39624Y-20920D01*
X39624Y-21056D01*
X39603Y-21004D01*
X39536Y-20936D01*
X39472Y-20910D01*
X39472Y-19755D01*
X39426Y-19645D01*
X39343Y-19562D01*
X39234Y-19517D01*
X39116Y-19516D01*
X39006Y-19562D01*
X38923Y-19645D01*
X38878Y-19754D01*
X38877Y-19872D01*
X38923Y-19982D01*
X39006Y-20065D01*
X39115Y-20110D01*
X39233Y-20111D01*
X39343Y-20065D01*
X39426Y-19982D01*
X39471Y-19873D01*
X39472Y-19755D01*
X39472Y-20910D01*
X39447Y-20900D01*
X39352Y-20899D01*
X39264Y-20936D01*
X39196Y-21003D01*
X39160Y-21092D01*
X39159Y-21187D01*
X39185Y-21249D01*
X39116Y-21248D01*
X39006Y-21294D01*
X38923Y-21377D01*
X38878Y-21486D01*
X38877Y-21604D01*
X38923Y-21714D01*
X39006Y-21797D01*
X39115Y-21842D01*
X39233Y-21843D01*
X39343Y-21797D01*
X39426Y-21714D01*
X39471Y-21605D01*
X39472Y-21487D01*
X39468Y-21477D01*
X39493Y-21494D01*
X39493Y-21494D01*
X39506Y-21497D01*
X39570Y-21510D01*
X39676Y-21510D01*
X39676Y-21510D01*
X39721Y-21528D01*
X39768Y-21528D01*
X40674Y-21528D01*
X40718Y-21510D01*
X40726Y-21502D01*
X40766Y-21494D01*
X40831Y-21451D01*
X41004Y-21277D01*
X41004Y-21354D01*
X41023Y-21398D01*
X41056Y-21432D01*
X41101Y-21450D01*
X41148Y-21451D01*
X41738Y-21451D01*
X41782Y-21432D01*
X41816Y-21399D01*
X41834Y-21354D01*
X41834Y-21336D01*
X41950Y-21336D01*
X41960Y-21361D01*
X41994Y-21395D01*
X42038Y-21413D01*
X42086Y-21413D01*
X42361Y-21413D01*
X42405Y-21395D01*
X42422Y-21378D01*
X42438Y-21394D01*
X42483Y-21412D01*
X42530Y-21413D01*
X42544Y-21413D01*
X42544Y-21464D01*
X42556Y-21525D01*
X42590Y-21577D01*
X42706Y-21693D01*
X42706Y-21693D01*
X42758Y-21727D01*
X42819Y-21739D01*
X42820Y-21740D01*
X43093Y-21740D01*
X43111Y-21757D01*
X43111Y-21766D01*
X42853Y-21766D01*
X42809Y-21785D01*
X42775Y-21818D01*
X42757Y-21863D01*
X42757Y-21910D01*
X42757Y-22112D01*
X42727Y-22100D01*
X42632Y-22099D01*
X42544Y-22136D01*
X42476Y-22203D01*
X42440Y-22292D01*
X42439Y-22387D01*
X42476Y-22475D01*
X42500Y-22500D01*
X42456Y-22543D01*
X42420Y-22632D01*
X42419Y-22727D01*
X42456Y-22815D01*
X42523Y-22883D01*
X42563Y-22900D01*
X42300Y-22900D01*
X42238Y-22912D01*
X42186Y-22946D01*
X42159Y-22973D01*
X42160Y-22922D01*
X42148Y-22895D01*
X42150Y-22894D01*
X42184Y-22861D01*
X42202Y-22816D01*
X42202Y-22769D01*
X42202Y-21863D01*
X42184Y-21819D01*
X42150Y-21785D01*
X42106Y-21767D01*
X42058Y-21766D01*
X41271Y-21766D01*
X41227Y-21785D01*
X41193Y-21818D01*
X41175Y-21863D01*
X41175Y-21910D01*
X41175Y-22140D01*
X41103Y-22155D01*
X41081Y-22169D01*
X41038Y-22198D01*
X40901Y-22336D01*
X40855Y-22381D01*
X40838Y-22381D01*
X40901Y-22319D01*
X40901Y-22088D01*
X40900Y-21988D01*
X40862Y-21896D01*
X40792Y-21826D01*
X40700Y-21788D01*
X40271Y-21788D01*
X40209Y-21851D01*
X40209Y-22382D01*
X40216Y-22382D01*
X40216Y-22482D01*
X40209Y-22482D01*
X40209Y-23013D01*
X40271Y-23075D01*
X40700Y-23075D01*
X40720Y-23067D01*
X40720Y-23197D01*
X40498Y-23418D01*
X40496Y-23416D01*
X40407Y-23380D01*
X40312Y-23379D01*
X40224Y-23416D01*
X40220Y-23420D01*
X40171Y-23420D01*
X40171Y-23301D01*
X40152Y-23257D01*
X40119Y-23223D01*
X40109Y-23219D01*
X40109Y-23013D01*
X40109Y-22482D01*
X40109Y-22382D01*
X40109Y-21851D01*
X40046Y-21788D01*
X39617Y-21788D01*
X39525Y-21826D01*
X39455Y-21896D01*
X39417Y-21988D01*
X39416Y-22088D01*
X39417Y-22319D01*
X39479Y-22382D01*
X40109Y-22382D01*
X40109Y-22482D01*
X39479Y-22482D01*
X39417Y-22544D01*
X39416Y-22775D01*
X39417Y-22875D01*
X39455Y-22967D01*
X39525Y-23037D01*
X39617Y-23075D01*
X40046Y-23075D01*
X40109Y-23013D01*
X40109Y-23219D01*
X40074Y-23205D01*
X40027Y-23204D01*
X39521Y-23204D01*
X39512Y-23183D01*
X39442Y-23112D01*
X39350Y-23074D01*
X39157Y-23075D01*
X39095Y-23137D01*
X39095Y-23570D01*
X39102Y-23570D01*
X39102Y-23670D01*
X39095Y-23670D01*
X39095Y-24102D01*
X39096Y-24103D01*
X39096Y-24910D01*
X39430Y-24910D01*
X39492Y-24847D01*
X39492Y-24321D01*
X39492Y-24221D01*
X39454Y-24129D01*
X39447Y-24122D01*
X39512Y-24056D01*
X39521Y-24034D01*
X39562Y-24035D01*
X39634Y-24035D01*
X39634Y-24090D01*
X39634Y-24151D01*
X39614Y-24151D01*
X39570Y-24169D01*
X39536Y-24203D01*
X39518Y-24247D01*
X39517Y-24295D01*
X39517Y-25672D01*
X39536Y-25716D01*
X39569Y-25750D01*
X39614Y-25768D01*
X39661Y-25768D01*
X40053Y-25768D01*
X40097Y-25750D01*
X40131Y-25716D01*
X40149Y-25672D01*
X40150Y-25624D01*
X40150Y-25120D01*
X40333Y-25120D01*
X40580Y-25366D01*
X40580Y-25950D01*
X40580Y-25960D01*
X40592Y-26021D01*
X40626Y-26073D01*
X40657Y-26093D01*
X40796Y-26233D01*
X40848Y-26267D01*
X40910Y-26280D01*
X41236Y-26280D01*
X41236Y-26281D01*
X41254Y-26325D01*
X41288Y-26359D01*
X41290Y-26360D01*
X41276Y-26373D01*
X41240Y-26462D01*
X41239Y-26557D01*
X41276Y-26645D01*
X41343Y-26713D01*
X41432Y-26749D01*
X41481Y-26750D01*
X41460Y-26802D01*
X41459Y-26897D01*
X41496Y-26985D01*
X41540Y-27029D01*
X41540Y-27570D01*
X41552Y-27631D01*
X41586Y-27683D01*
X41690Y-27786D01*
X41660Y-27817D01*
X41622Y-27908D01*
X41622Y-28003D01*
X41685Y-28066D01*
X41960Y-28066D01*
X41960Y-28058D01*
X42037Y-28058D01*
X42045Y-28066D01*
X42060Y-28066D01*
X42320Y-28066D01*
X42335Y-28066D01*
X42342Y-28058D01*
X42420Y-28058D01*
X42420Y-28066D01*
X42695Y-28066D01*
X42757Y-28003D01*
X42757Y-27908D01*
X42719Y-27817D01*
X42714Y-27811D01*
X42782Y-27839D01*
X42820Y-27839D01*
X42820Y-28010D01*
X42832Y-28071D01*
X42866Y-28123D01*
X43016Y-28273D01*
X43068Y-28307D01*
X43130Y-28320D01*
X44240Y-28320D01*
X44283Y-28363D01*
X44372Y-28399D01*
X44467Y-28400D01*
X44555Y-28363D01*
X44623Y-28296D01*
X44659Y-28207D01*
X44660Y-28112D01*
X44623Y-28024D01*
X44556Y-27956D01*
X44467Y-27920D01*
X44372Y-27919D01*
X44284Y-27956D01*
X44240Y-28000D01*
X43650Y-28000D01*
X43650Y-27592D01*
X43613Y-27504D01*
X43546Y-27436D01*
X43457Y-27400D01*
X43362Y-27399D01*
X43274Y-27436D01*
X43206Y-27503D01*
X43170Y-27592D01*
X43169Y-27687D01*
X43206Y-27775D01*
X43273Y-27843D01*
X43362Y-27879D01*
X43457Y-27880D01*
X43545Y-27843D01*
X43613Y-27776D01*
X43649Y-27687D01*
X43650Y-27592D01*
X43650Y-28000D01*
X43196Y-28000D01*
X43140Y-27943D01*
X43140Y-27750D01*
X43127Y-27688D01*
X43093Y-27636D01*
X43069Y-27613D01*
X43070Y-27552D01*
X43033Y-27464D01*
X42966Y-27396D01*
X42926Y-27380D01*
X43640Y-27380D01*
X43701Y-27367D01*
X43701Y-27367D01*
X43753Y-27333D01*
X44317Y-26769D01*
X44336Y-26815D01*
X44403Y-26883D01*
X44492Y-26919D01*
X44573Y-26920D01*
X44560Y-26952D01*
X44559Y-27047D01*
X44596Y-27135D01*
X44663Y-27203D01*
X44752Y-27239D01*
X44847Y-27240D01*
X44935Y-27203D01*
X44979Y-27160D01*
X45260Y-27160D01*
X45321Y-27147D01*
X45321Y-27147D01*
X45373Y-27113D01*
X45628Y-26858D01*
X45619Y-26901D01*
X45631Y-26962D01*
X45666Y-27013D01*
X45718Y-27048D01*
X45779Y-27060D01*
X45979Y-27060D01*
X45979Y-27260D01*
X45991Y-27321D01*
X46026Y-27373D01*
X46077Y-27408D01*
X46136Y-27419D01*
X46136Y-27520D01*
X45300Y-27520D01*
X45238Y-27532D01*
X45186Y-27566D01*
X44966Y-27786D01*
X44932Y-27838D01*
X44920Y-27900D01*
X44920Y-28253D01*
X44863Y-28310D01*
X44802Y-28309D01*
X44714Y-28346D01*
X44646Y-28413D01*
X44610Y-28502D01*
X44609Y-28597D01*
X44646Y-28685D01*
X44713Y-28753D01*
X44802Y-28789D01*
X44897Y-28790D01*
X44985Y-28753D01*
X45053Y-28686D01*
X45085Y-28609D01*
X45116Y-28685D01*
X45183Y-28753D01*
X45272Y-28789D01*
X45367Y-28790D01*
X45455Y-28753D01*
X45470Y-28739D01*
X45470Y-29040D01*
X42757Y-29040D01*
X42757Y-28323D01*
X42757Y-28228D01*
X42695Y-28166D01*
X42420Y-28166D01*
X42420Y-28461D01*
X42482Y-28523D01*
X42457Y-28523D01*
X42557Y-28523D01*
X42649Y-28485D01*
X42719Y-28414D01*
X42757Y-28323D01*
X42757Y-29040D01*
X42397Y-29040D01*
X42397Y-28323D01*
X42397Y-28228D01*
X42335Y-28166D01*
X42320Y-28166D01*
X42060Y-28166D01*
X42045Y-28166D01*
X41982Y-28228D01*
X41982Y-28323D01*
X42020Y-28414D01*
X42060Y-28454D01*
X42060Y-28461D01*
X42122Y-28523D01*
X42097Y-28523D01*
X42190Y-28523D01*
X42282Y-28523D01*
X42257Y-28523D01*
X42320Y-28461D01*
X42320Y-28454D01*
X42359Y-28414D01*
X42397Y-28323D01*
X42397Y-29040D01*
X41960Y-29040D01*
X41960Y-28461D01*
X41960Y-28166D01*
X41685Y-28166D01*
X41622Y-28228D01*
X41622Y-28323D01*
X41660Y-28414D01*
X41730Y-28485D01*
X41822Y-28523D01*
X41922Y-28523D01*
X41897Y-28523D01*
X41960Y-28461D01*
X41960Y-29040D01*
X41172Y-29040D01*
X41172Y-27868D01*
X41172Y-26530D01*
X41153Y-26486D01*
X41120Y-26452D01*
X41075Y-26434D01*
X41028Y-26433D01*
X40438Y-26433D01*
X40394Y-26452D01*
X40360Y-26485D01*
X40342Y-26530D01*
X40341Y-26577D01*
X40341Y-27915D01*
X40360Y-27959D01*
X40393Y-27993D01*
X40438Y-28011D01*
X40485Y-28012D01*
X41075Y-28012D01*
X41119Y-27993D01*
X41153Y-27960D01*
X41171Y-27915D01*
X41172Y-27868D01*
X41172Y-29040D01*
X39492Y-29040D01*
X39492Y-25598D01*
X39492Y-25072D01*
X39430Y-25010D01*
X39096Y-25010D01*
X39096Y-25836D01*
X39158Y-25898D01*
X39292Y-25898D01*
X39383Y-25860D01*
X39454Y-25790D01*
X39492Y-25698D01*
X39492Y-25598D01*
X39492Y-29040D01*
X38996Y-29040D01*
X38996Y-25836D01*
X38996Y-25010D01*
X38996Y-24910D01*
X38996Y-24084D01*
X38995Y-24083D01*
X38995Y-23670D01*
X38995Y-23570D01*
X38995Y-23137D01*
X38932Y-23075D01*
X38739Y-23074D01*
X38736Y-23076D01*
X38736Y-22775D01*
X38736Y-22088D01*
X38736Y-19271D01*
X38736Y-18584D01*
X38735Y-18484D01*
X38697Y-18392D01*
X38627Y-18322D01*
X38535Y-18284D01*
X38106Y-18284D01*
X38044Y-18347D01*
X38044Y-18878D01*
X38673Y-18878D01*
X38736Y-18815D01*
X38736Y-18584D01*
X38736Y-19271D01*
X38736Y-19040D01*
X38673Y-18978D01*
X38044Y-18978D01*
X38044Y-19509D01*
X38106Y-19571D01*
X38535Y-19571D01*
X38627Y-19533D01*
X38697Y-19463D01*
X38735Y-19371D01*
X38736Y-19271D01*
X38736Y-22088D01*
X38735Y-21988D01*
X38697Y-21896D01*
X38627Y-21826D01*
X38535Y-21788D01*
X38106Y-21788D01*
X38044Y-21851D01*
X38044Y-22382D01*
X38673Y-22382D01*
X38736Y-22319D01*
X38736Y-22088D01*
X38736Y-22775D01*
X38736Y-22544D01*
X38673Y-22482D01*
X38044Y-22482D01*
X38044Y-23013D01*
X38106Y-23075D01*
X38535Y-23075D01*
X38627Y-23037D01*
X38697Y-22967D01*
X38735Y-22875D01*
X38736Y-22775D01*
X38736Y-23076D01*
X38647Y-23112D01*
X38577Y-23183D01*
X38539Y-23275D01*
X38538Y-23374D01*
X38539Y-23507D01*
X38601Y-23570D01*
X38995Y-23570D01*
X38995Y-23670D01*
X38601Y-23670D01*
X38539Y-23732D01*
X38538Y-23865D01*
X38539Y-23964D01*
X38577Y-24056D01*
X38643Y-24123D01*
X38637Y-24129D01*
X38599Y-24221D01*
X38599Y-24321D01*
X38599Y-24847D01*
X38662Y-24910D01*
X38996Y-24910D01*
X38996Y-25010D01*
X38662Y-25010D01*
X38599Y-25072D01*
X38599Y-25598D01*
X38599Y-25698D01*
X38637Y-25790D01*
X38708Y-25860D01*
X38799Y-25898D01*
X38933Y-25898D01*
X38996Y-25836D01*
X38996Y-29040D01*
X38537Y-29040D01*
X38537Y-27867D01*
X38537Y-26530D01*
X38518Y-26486D01*
X38485Y-26452D01*
X38440Y-26434D01*
X38393Y-26434D01*
X37944Y-26434D01*
X37944Y-23013D01*
X37944Y-22482D01*
X37944Y-22382D01*
X37944Y-21851D01*
X37944Y-19509D01*
X37944Y-18978D01*
X37944Y-18878D01*
X37944Y-18347D01*
X37881Y-18284D01*
X37452Y-18284D01*
X37360Y-18322D01*
X37290Y-18392D01*
X37252Y-18484D01*
X37251Y-18584D01*
X37252Y-18815D01*
X37314Y-18878D01*
X37944Y-18878D01*
X37944Y-18978D01*
X37314Y-18978D01*
X37252Y-19040D01*
X37251Y-19271D01*
X37252Y-19371D01*
X37290Y-19463D01*
X37360Y-19533D01*
X37452Y-19571D01*
X37881Y-19571D01*
X37944Y-19509D01*
X37944Y-21851D01*
X37881Y-21788D01*
X37452Y-21788D01*
X37360Y-21826D01*
X37290Y-21896D01*
X37252Y-21988D01*
X37251Y-22088D01*
X37252Y-22319D01*
X37314Y-22382D01*
X37944Y-22382D01*
X37944Y-22482D01*
X37314Y-22482D01*
X37252Y-22544D01*
X37251Y-22775D01*
X37252Y-22875D01*
X37290Y-22967D01*
X37360Y-23037D01*
X37452Y-23075D01*
X37881Y-23075D01*
X37944Y-23013D01*
X37944Y-26434D01*
X37803Y-26434D01*
X37759Y-26452D01*
X37725Y-26486D01*
X37707Y-26530D01*
X37706Y-26578D01*
X37706Y-27915D01*
X37725Y-27959D01*
X37758Y-27993D01*
X37803Y-28011D01*
X37850Y-28011D01*
X38440Y-28011D01*
X38484Y-27993D01*
X38518Y-27959D01*
X38536Y-27915D01*
X38537Y-27867D01*
X38537Y-29040D01*
X38265Y-29040D01*
X37825Y-28953D01*
X37467Y-28713D01*
X37226Y-28352D01*
X37139Y-27916D01*
X37139Y-16043D01*
X37226Y-15607D01*
X37467Y-15246D01*
X37825Y-15006D01*
X38265Y-14919D01*
X46153Y-14919D01*
X46586Y-15020D01*
X46938Y-15272D01*
X47166Y-15639D01*
X47240Y-16082D01*
X47240Y-21640D01*
X47250Y-21693D01*
X47281Y-21738D01*
X47282Y-21739D01*
X47282Y-21739D01*
G37*
G54D38*
X47282Y-21739D02*
X47229Y-21750D01*
X47093Y-21841D01*
X47001Y-21977D01*
X46970Y-22138D01*
X46970Y-22345D01*
X47001Y-22506D01*
X47093Y-22642D01*
X47208Y-22720D01*
X45850Y-22720D01*
X45850Y-22252D01*
X45813Y-22164D01*
X45746Y-22096D01*
X45657Y-22060D01*
X45562Y-22059D01*
X45474Y-22096D01*
X45406Y-22163D01*
X45370Y-22252D01*
X45369Y-22347D01*
X45406Y-22435D01*
X45473Y-22503D01*
X45562Y-22539D01*
X45657Y-22540D01*
X45745Y-22503D01*
X45813Y-22436D01*
X45849Y-22347D01*
X45850Y-22252D01*
X45850Y-22720D01*
X44760Y-22720D01*
X44742Y-22723D01*
X46013Y-21453D01*
X46013Y-21453D01*
X46013Y-21453D01*
X46047Y-21401D01*
X46059Y-21340D01*
X46060Y-21340D01*
X46060Y-19356D01*
X46076Y-19395D01*
X46143Y-19463D01*
X46232Y-19499D01*
X46327Y-19500D01*
X46415Y-19463D01*
X46483Y-19396D01*
X46519Y-19307D01*
X46520Y-19246D01*
X46533Y-19233D01*
X46567Y-19181D01*
X46579Y-19120D01*
X46580Y-19120D01*
X46580Y-18543D01*
X46655Y-18512D01*
X46772Y-18395D01*
X46835Y-18243D01*
X46835Y-18077D01*
X46772Y-17924D01*
X46655Y-17807D01*
X46503Y-17744D01*
X46337Y-17744D01*
X46184Y-17807D01*
X46067Y-17924D01*
X46004Y-18076D01*
X46004Y-18242D01*
X46067Y-18395D01*
X46184Y-18512D01*
X46260Y-18543D01*
X46260Y-19019D01*
X46232Y-19019D01*
X46144Y-19056D01*
X46076Y-19123D01*
X46040Y-19212D01*
X46039Y-19267D01*
X46013Y-19226D01*
X45640Y-18853D01*
X45640Y-17140D01*
X45627Y-17078D01*
X45593Y-17026D01*
X44293Y-15726D01*
X44241Y-15692D01*
X44180Y-15680D01*
X44116Y-15680D01*
X44150Y-15645D01*
X44195Y-15536D01*
X44195Y-15418D01*
X44150Y-15309D01*
X44067Y-15225D01*
X43957Y-15180D01*
X43839Y-15180D01*
X43730Y-15225D01*
X43646Y-15308D01*
X43601Y-15417D01*
X43601Y-15536D01*
X43646Y-15645D01*
X43681Y-15680D01*
X42870Y-15680D01*
X42870Y-15382D01*
X42833Y-15294D01*
X42766Y-15226D01*
X42677Y-15190D01*
X42582Y-15189D01*
X42494Y-15226D01*
X42426Y-15293D01*
X42390Y-15382D01*
X42389Y-15477D01*
X42426Y-15565D01*
X42493Y-15633D01*
X42582Y-15669D01*
X42677Y-15670D01*
X42765Y-15633D01*
X42833Y-15566D01*
X42869Y-15477D01*
X42870Y-15382D01*
X42870Y-15680D01*
X41439Y-15680D01*
X41473Y-15645D01*
X41518Y-15536D01*
X41518Y-15418D01*
X41473Y-15309D01*
X41389Y-15225D01*
X41280Y-15180D01*
X41162Y-15180D01*
X41053Y-15225D01*
X40969Y-15308D01*
X40924Y-15417D01*
X40924Y-15536D01*
X40969Y-15645D01*
X41003Y-15680D01*
X40826Y-15680D01*
X40758Y-15611D01*
X40706Y-15577D01*
X40645Y-15565D01*
X40477Y-15565D01*
X40477Y-15544D01*
X40458Y-15500D01*
X40425Y-15466D01*
X40380Y-15448D01*
X40333Y-15447D01*
X40019Y-15447D01*
X39975Y-15466D01*
X39941Y-15499D01*
X39923Y-15544D01*
X39922Y-15591D01*
X39922Y-15905D01*
X39934Y-15932D01*
X39901Y-15946D01*
X39830Y-16016D01*
X39792Y-16108D01*
X39793Y-16202D01*
X39855Y-16265D01*
X40150Y-16265D01*
X40150Y-16257D01*
X40250Y-16257D01*
X40250Y-16265D01*
X40544Y-16265D01*
X40607Y-16202D01*
X40607Y-16108D01*
X40569Y-16016D01*
X40498Y-15946D01*
X40465Y-15932D01*
X40476Y-15905D01*
X40476Y-15885D01*
X40578Y-15885D01*
X40646Y-15953D01*
X40646Y-15953D01*
X40698Y-15987D01*
X40759Y-15999D01*
X40760Y-16000D01*
X41237Y-16000D01*
X41219Y-16043D01*
X41219Y-16091D01*
X41219Y-16940D01*
X41176Y-16896D01*
X41087Y-16860D01*
X41026Y-16859D01*
X40968Y-16802D01*
X40967Y-16798D01*
X40967Y-16798D01*
X40933Y-16746D01*
X40881Y-16712D01*
X40820Y-16700D01*
X40794Y-16705D01*
X40477Y-16705D01*
X40477Y-16692D01*
X40498Y-16683D01*
X40569Y-16613D01*
X40607Y-16521D01*
X40607Y-16427D01*
X40544Y-16365D01*
X40250Y-16365D01*
X40250Y-16372D01*
X40150Y-16372D01*
X40150Y-16365D01*
X39855Y-16365D01*
X39793Y-16427D01*
X39792Y-16521D01*
X39830Y-16613D01*
X39901Y-16683D01*
X39923Y-16692D01*
X39922Y-16731D01*
X39922Y-17045D01*
X39941Y-17089D01*
X39974Y-17123D01*
X40019Y-17141D01*
X40066Y-17142D01*
X40380Y-17142D01*
X40424Y-17123D01*
X40458Y-17090D01*
X40476Y-17045D01*
X40476Y-17025D01*
X40738Y-17025D01*
X40800Y-17086D01*
X40799Y-17147D01*
X40836Y-17235D01*
X40895Y-17295D01*
X40477Y-17295D01*
X40477Y-17274D01*
X40458Y-17230D01*
X40425Y-17196D01*
X40380Y-17178D01*
X40333Y-17177D01*
X40019Y-17177D01*
X39975Y-17196D01*
X39941Y-17229D01*
X39923Y-17274D01*
X39923Y-17295D01*
X39670Y-17295D01*
X39670Y-16524D01*
X39669Y-16067D01*
X39497Y-15651D01*
X39339Y-15551D01*
X39268Y-15621D01*
X39268Y-15480D01*
X39168Y-15322D01*
X38744Y-15149D01*
X38287Y-15150D01*
X37871Y-15322D01*
X37771Y-15480D01*
X38520Y-16229D01*
X39268Y-15480D01*
X39268Y-15621D01*
X38590Y-16300D01*
X39339Y-17048D01*
X39497Y-16948D01*
X39670Y-16524D01*
X39670Y-17295D01*
X39268Y-17295D01*
X39268Y-17119D01*
X38520Y-16370D01*
X38449Y-16441D01*
X38449Y-16300D01*
X37700Y-15551D01*
X37542Y-15651D01*
X37369Y-16075D01*
X37370Y-16532D01*
X37542Y-16948D01*
X37700Y-17048D01*
X38449Y-16300D01*
X38449Y-16441D01*
X37771Y-17119D01*
X37871Y-17277D01*
X38295Y-17450D01*
X38752Y-17449D01*
X39168Y-17277D01*
X39268Y-17119D01*
X39268Y-17295D01*
X39185Y-17295D01*
X39123Y-17307D01*
X39071Y-17341D01*
X38933Y-17480D01*
X38872Y-17479D01*
X38784Y-17516D01*
X38716Y-17583D01*
X38680Y-17672D01*
X38679Y-17767D01*
X38716Y-17855D01*
X38783Y-17923D01*
X38872Y-17959D01*
X38967Y-17960D01*
X39055Y-17923D01*
X39123Y-17856D01*
X39159Y-17767D01*
X39160Y-17706D01*
X39251Y-17615D01*
X39922Y-17615D01*
X39922Y-17635D01*
X39941Y-17679D01*
X39974Y-17713D01*
X40019Y-17731D01*
X40066Y-17732D01*
X40380Y-17732D01*
X40424Y-17713D01*
X40458Y-17680D01*
X40476Y-17635D01*
X40476Y-17615D01*
X41365Y-17615D01*
X41426Y-17602D01*
X41426Y-17602D01*
X41478Y-17568D01*
X41688Y-17357D01*
X41688Y-17357D01*
X41723Y-17305D01*
X41735Y-17244D01*
X41735Y-17244D01*
X41735Y-17172D01*
X41835Y-17172D01*
X41879Y-17153D01*
X41913Y-17120D01*
X41931Y-17076D01*
X41931Y-17028D01*
X41931Y-16044D01*
X41913Y-16000D01*
X42222Y-16000D01*
X42203Y-16043D01*
X42203Y-16091D01*
X42203Y-17075D01*
X42221Y-17120D01*
X42255Y-17153D01*
X42299Y-17172D01*
X42347Y-17172D01*
X42400Y-17172D01*
X42400Y-19840D01*
X42412Y-19901D01*
X42446Y-19953D01*
X42544Y-20050D01*
X42544Y-20186D01*
X42483Y-20186D01*
X42439Y-20205D01*
X42405Y-20238D01*
X42387Y-20283D01*
X42387Y-20296D01*
X42287Y-20296D01*
X42312Y-20296D01*
X42250Y-20359D01*
X42250Y-20654D01*
X42256Y-20654D01*
X42257Y-20687D01*
X42257Y-20688D01*
X42257Y-20749D01*
X42257Y-20749D01*
X42257Y-20754D01*
X42250Y-20754D01*
X42250Y-20761D01*
X42150Y-20761D01*
X42150Y-18700D01*
X42139Y-18483D01*
X42077Y-18334D01*
X41982Y-18308D01*
X41911Y-18378D01*
X41911Y-18237D01*
X41885Y-18142D01*
X41680Y-18069D01*
X41463Y-18080D01*
X41314Y-18142D01*
X41288Y-18237D01*
X41600Y-18549D01*
X41911Y-18237D01*
X41911Y-18378D01*
X41670Y-18620D01*
X41982Y-18931D01*
X42077Y-18905D01*
X42150Y-18700D01*
X42150Y-20761D01*
X42150Y-20761D01*
X42150Y-20754D01*
X42142Y-20754D01*
X42142Y-20654D01*
X42150Y-20654D01*
X42150Y-20359D01*
X42087Y-20296D01*
X42112Y-20296D01*
X42012Y-20296D01*
X41965Y-20316D01*
X41965Y-20316D01*
X41965Y-20274D01*
X41902Y-20274D01*
X41965Y-20212D01*
X41965Y-20019D01*
X41927Y-19927D01*
X41911Y-19912D01*
X41911Y-19002D01*
X41600Y-18690D01*
X41529Y-18761D01*
X41529Y-18620D01*
X41217Y-18308D01*
X41122Y-18334D01*
X41049Y-18539D01*
X41060Y-18756D01*
X41122Y-18905D01*
X41217Y-18931D01*
X41529Y-18620D01*
X41529Y-18761D01*
X41288Y-19002D01*
X41314Y-19097D01*
X41519Y-19170D01*
X41736Y-19159D01*
X41885Y-19097D01*
X41911Y-19002D01*
X41911Y-19912D01*
X41856Y-19857D01*
X41764Y-19819D01*
X41665Y-19818D01*
X41532Y-19819D01*
X41470Y-19881D01*
X41470Y-20275D01*
X41477Y-20275D01*
X41477Y-20375D01*
X41470Y-20375D01*
X41470Y-20382D01*
X41370Y-20382D01*
X41370Y-20375D01*
X40937Y-20375D01*
X40875Y-20437D01*
X40874Y-20630D01*
X40912Y-20722D01*
X40983Y-20792D01*
X41005Y-20801D01*
X41004Y-20842D01*
X41004Y-20875D01*
X40925Y-20875D01*
X40848Y-20890D01*
X40783Y-20933D01*
X40771Y-20946D01*
X40771Y-20872D01*
X40756Y-20837D01*
X40770Y-20802D01*
X40771Y-20754D01*
X40771Y-20557D01*
X40756Y-20522D01*
X40770Y-20487D01*
X40771Y-20439D01*
X40771Y-20369D01*
X40792Y-20360D01*
X40862Y-20290D01*
X40889Y-20226D01*
X40937Y-20275D01*
X41370Y-20275D01*
X41370Y-19881D01*
X41307Y-19819D01*
X41174Y-19818D01*
X41075Y-19819D01*
X40983Y-19857D01*
X40912Y-19927D01*
X40901Y-19956D01*
X40901Y-19271D01*
X40901Y-18584D01*
X40900Y-18484D01*
X40862Y-18392D01*
X40792Y-18322D01*
X40700Y-18284D01*
X40271Y-18284D01*
X40209Y-18347D01*
X40209Y-18878D01*
X40838Y-18878D01*
X40901Y-18815D01*
X40901Y-18584D01*
X40901Y-19271D01*
X40901Y-19040D01*
X40838Y-18978D01*
X40209Y-18978D01*
X40209Y-19509D01*
X40271Y-19571D01*
X40700Y-19571D01*
X40792Y-19533D01*
X40862Y-19463D01*
X40900Y-19371D01*
X40901Y-19271D01*
X40901Y-19956D01*
X40901Y-19956D01*
X40901Y-20001D01*
X40901Y-19956D01*
X40900Y-19956D01*
X40883Y-19999D01*
X40839Y-19999D01*
X40900Y-19938D01*
X40900Y-19901D01*
X40862Y-19809D01*
X40792Y-19739D01*
X40700Y-19701D01*
X40310Y-19701D01*
X40248Y-19764D01*
X40248Y-20000D01*
X40255Y-20000D01*
X40255Y-20099D01*
X40248Y-20099D01*
X40248Y-20107D01*
X40148Y-20107D01*
X40148Y-20099D01*
X40148Y-20000D01*
X40148Y-19764D01*
X40109Y-19725D01*
X40109Y-19509D01*
X40109Y-18978D01*
X40109Y-18878D01*
X40109Y-18347D01*
X40046Y-18284D01*
X39617Y-18284D01*
X39525Y-18322D01*
X39455Y-18392D01*
X39417Y-18484D01*
X39416Y-18584D01*
X39417Y-18815D01*
X39479Y-18878D01*
X40109Y-18878D01*
X40109Y-18978D01*
X39479Y-18978D01*
X39417Y-19040D01*
X39416Y-19271D01*
X39417Y-19371D01*
X39455Y-19463D01*
X39525Y-19533D01*
X39617Y-19571D01*
X40046Y-19571D01*
X40109Y-19509D01*
X40109Y-19725D01*
X40085Y-19701D01*
X39695Y-19701D01*
X39603Y-19739D01*
X39533Y-19809D01*
X39495Y-19901D01*
X39495Y-19938D01*
X39557Y-20000D01*
X40148Y-20000D01*
X40148Y-20099D01*
X39557Y-20099D01*
X39495Y-20161D01*
X39495Y-20198D01*
X39533Y-20290D01*
X39603Y-20360D01*
X39624Y-20369D01*
X39624Y-20487D01*
X39639Y-20522D01*
X39625Y-20557D01*
X39624Y-20605D01*
X39624Y-20802D01*
X39639Y-20837D01*
X39625Y-20872D01*
X39624Y-20920D01*
X39624Y-21056D01*
X39603Y-21004D01*
X39536Y-20936D01*
X39472Y-20910D01*
X39472Y-19755D01*
X39426Y-19645D01*
X39343Y-19562D01*
X39234Y-19517D01*
X39116Y-19516D01*
X39006Y-19562D01*
X38923Y-19645D01*
X38878Y-19754D01*
X38877Y-19872D01*
X38923Y-19982D01*
X39006Y-20065D01*
X39115Y-20110D01*
X39233Y-20111D01*
X39343Y-20065D01*
X39426Y-19982D01*
X39471Y-19873D01*
X39472Y-19755D01*
X39472Y-20910D01*
X39447Y-20900D01*
X39352Y-20899D01*
X39264Y-20936D01*
X39196Y-21003D01*
X39160Y-21092D01*
X39159Y-21187D01*
X39185Y-21249D01*
X39116Y-21248D01*
X39006Y-21294D01*
X38923Y-21377D01*
X38878Y-21486D01*
X38877Y-21604D01*
X38923Y-21714D01*
X39006Y-21797D01*
X39115Y-21842D01*
X39233Y-21843D01*
X39343Y-21797D01*
X39426Y-21714D01*
X39471Y-21605D01*
X39472Y-21487D01*
X39468Y-21477D01*
X39493Y-21494D01*
X39493Y-21494D01*
X39506Y-21497D01*
X39570Y-21510D01*
X39676Y-21510D01*
X39676Y-21510D01*
X39721Y-21528D01*
X39768Y-21528D01*
X40674Y-21528D01*
X40718Y-21510D01*
X40726Y-21502D01*
X40766Y-21494D01*
X40831Y-21451D01*
X41004Y-21277D01*
X41004Y-21354D01*
X41023Y-21398D01*
X41056Y-21432D01*
X41101Y-21450D01*
X41148Y-21451D01*
X41738Y-21451D01*
X41782Y-21432D01*
X41816Y-21399D01*
X41834Y-21354D01*
X41834Y-21336D01*
X41950Y-21336D01*
X41960Y-21361D01*
X41994Y-21395D01*
X42038Y-21413D01*
X42086Y-21413D01*
X42361Y-21413D01*
X42405Y-21395D01*
X42422Y-21378D01*
X42438Y-21394D01*
X42483Y-21412D01*
X42530Y-21413D01*
X42544Y-21413D01*
X42544Y-21464D01*
X42556Y-21525D01*
X42590Y-21577D01*
X42706Y-21693D01*
X42706Y-21693D01*
X42758Y-21727D01*
X42819Y-21739D01*
X42820Y-21740D01*
X43093Y-21740D01*
X43111Y-21757D01*
X43111Y-21766D01*
X42853Y-21766D01*
X42809Y-21785D01*
X42775Y-21818D01*
X42757Y-21863D01*
X42757Y-21910D01*
X42757Y-22112D01*
X42727Y-22100D01*
X42632Y-22099D01*
X42544Y-22136D01*
X42476Y-22203D01*
X42440Y-22292D01*
X42439Y-22387D01*
X42476Y-22475D01*
X42500Y-22500D01*
X42456Y-22543D01*
X42420Y-22632D01*
X42419Y-22727D01*
X42456Y-22815D01*
X42523Y-22883D01*
X42563Y-22900D01*
X42300Y-22900D01*
X42238Y-22912D01*
X42186Y-22946D01*
X42159Y-22973D01*
X42160Y-22922D01*
X42148Y-22895D01*
X42150Y-22894D01*
X42184Y-22861D01*
X42202Y-22816D01*
X42202Y-22769D01*
X42202Y-21863D01*
X42184Y-21819D01*
X42150Y-21785D01*
X42106Y-21767D01*
X42058Y-21766D01*
X41271Y-21766D01*
X41227Y-21785D01*
X41193Y-21818D01*
X41175Y-21863D01*
X41175Y-21910D01*
X41175Y-22140D01*
X41103Y-22155D01*
X41081Y-22169D01*
X41038Y-22198D01*
X40901Y-22336D01*
X40855Y-22381D01*
X40838Y-22381D01*
X40901Y-22319D01*
X40901Y-22088D01*
X40900Y-21988D01*
X40862Y-21896D01*
X40792Y-21826D01*
X40700Y-21788D01*
X40271Y-21788D01*
X40209Y-21851D01*
X40209Y-22382D01*
X40216Y-22382D01*
X40216Y-22482D01*
X40209Y-22482D01*
X40209Y-23013D01*
X40271Y-23075D01*
X40700Y-23075D01*
X40720Y-23067D01*
X40720Y-23197D01*
X40498Y-23418D01*
X40496Y-23416D01*
X40407Y-23380D01*
X40312Y-23379D01*
X40224Y-23416D01*
X40220Y-23420D01*
X40171Y-23420D01*
X40171Y-23301D01*
X40152Y-23257D01*
X40119Y-23223D01*
X40109Y-23219D01*
X40109Y-23013D01*
X40109Y-22482D01*
X40109Y-22382D01*
X40109Y-21851D01*
X40046Y-21788D01*
X39617Y-21788D01*
X39525Y-21826D01*
X39455Y-21896D01*
X39417Y-21988D01*
X39416Y-22088D01*
X39417Y-22319D01*
X39479Y-22382D01*
X40109Y-22382D01*
X40109Y-22482D01*
X39479Y-22482D01*
X39417Y-22544D01*
X39416Y-22775D01*
X39417Y-22875D01*
X39455Y-22967D01*
X39525Y-23037D01*
X39617Y-23075D01*
X40046Y-23075D01*
X40109Y-23013D01*
X40109Y-23219D01*
X40074Y-23205D01*
X40027Y-23204D01*
X39521Y-23204D01*
X39512Y-23183D01*
X39442Y-23112D01*
X39350Y-23074D01*
X39157Y-23075D01*
X39095Y-23137D01*
X39095Y-23570D01*
X39102Y-23570D01*
X39102Y-23670D01*
X39095Y-23670D01*
X39095Y-24102D01*
X39096Y-24103D01*
X39096Y-24910D01*
X39430Y-24910D01*
X39492Y-24847D01*
X39492Y-24321D01*
X39492Y-24221D01*
X39454Y-24129D01*
X39447Y-24122D01*
X39512Y-24056D01*
X39521Y-24034D01*
X39562Y-24035D01*
X39634Y-24035D01*
X39634Y-24090D01*
X39634Y-24151D01*
X39614Y-24151D01*
X39570Y-24169D01*
X39536Y-24203D01*
X39518Y-24247D01*
X39517Y-24295D01*
X39517Y-25672D01*
X39536Y-25716D01*
X39569Y-25750D01*
X39614Y-25768D01*
X39661Y-25768D01*
X40053Y-25768D01*
X40097Y-25750D01*
X40131Y-25716D01*
X40149Y-25672D01*
X40150Y-25624D01*
X40150Y-25120D01*
X40333Y-25120D01*
X40580Y-25366D01*
X40580Y-25950D01*
X40580Y-25960D01*
X40592Y-26021D01*
X40626Y-26073D01*
X40657Y-26093D01*
X40796Y-26233D01*
X40848Y-26267D01*
X40910Y-26280D01*
X41236Y-26280D01*
X41236Y-26281D01*
X41254Y-26325D01*
X41288Y-26359D01*
X41290Y-26360D01*
X41276Y-26373D01*
X41240Y-26462D01*
X41239Y-26557D01*
X41276Y-26645D01*
X41343Y-26713D01*
X41432Y-26749D01*
X41481Y-26750D01*
X41460Y-26802D01*
X41459Y-26897D01*
X41496Y-26985D01*
X41540Y-27029D01*
X41540Y-27570D01*
X41552Y-27631D01*
X41586Y-27683D01*
X41690Y-27786D01*
X41660Y-27817D01*
X41622Y-27908D01*
X41622Y-28003D01*
X41685Y-28066D01*
X41960Y-28066D01*
X41960Y-28058D01*
X42037Y-28058D01*
X42045Y-28066D01*
X42060Y-28066D01*
X42320Y-28066D01*
X42335Y-28066D01*
X42342Y-28058D01*
X42420Y-28058D01*
X42420Y-28066D01*
X42695Y-28066D01*
X42757Y-28003D01*
X42757Y-27908D01*
X42719Y-27817D01*
X42714Y-27811D01*
X42782Y-27839D01*
X42820Y-27839D01*
X42820Y-28010D01*
X42832Y-28071D01*
X42866Y-28123D01*
X43016Y-28273D01*
X43068Y-28307D01*
X43130Y-28320D01*
X44240Y-28320D01*
X44283Y-28363D01*
X44372Y-28399D01*
X44467Y-28400D01*
X44555Y-28363D01*
X44623Y-28296D01*
X44659Y-28207D01*
X44660Y-28112D01*
X44623Y-28024D01*
X44556Y-27956D01*
X44467Y-27920D01*
X44372Y-27919D01*
X44284Y-27956D01*
X44240Y-28000D01*
X43650Y-28000D01*
X43650Y-27592D01*
X43613Y-27504D01*
X43546Y-27436D01*
X43457Y-27400D01*
X43362Y-27399D01*
X43274Y-27436D01*
X43206Y-27503D01*
X43170Y-27592D01*
X43169Y-27687D01*
X43206Y-27775D01*
X43273Y-27843D01*
X43362Y-27879D01*
X43457Y-27880D01*
X43545Y-27843D01*
X43613Y-27776D01*
X43649Y-27687D01*
X43650Y-27592D01*
X43650Y-28000D01*
X43196Y-28000D01*
X43140Y-27943D01*
X43140Y-27750D01*
X43127Y-27688D01*
X43093Y-27636D01*
X43069Y-27613D01*
X43070Y-27552D01*
X43033Y-27464D01*
X42966Y-27396D01*
X42926Y-27380D01*
X43640Y-27380D01*
X43701Y-27367D01*
X43701Y-27367D01*
X43753Y-27333D01*
X44317Y-26769D01*
X44336Y-26815D01*
X44403Y-26883D01*
X44492Y-26919D01*
X44573Y-26920D01*
X44560Y-26952D01*
X44559Y-27047D01*
X44596Y-27135D01*
X44663Y-27203D01*
X44752Y-27239D01*
X44847Y-27240D01*
X44935Y-27203D01*
X44979Y-27160D01*
X45260Y-27160D01*
X45321Y-27147D01*
X45321Y-27147D01*
X45373Y-27113D01*
X45628Y-26858D01*
X45619Y-26901D01*
X45631Y-26962D01*
X45666Y-27013D01*
X45718Y-27048D01*
X45779Y-27060D01*
X45979Y-27060D01*
X45979Y-27260D01*
X45991Y-27321D01*
X46026Y-27373D01*
X46077Y-27408D01*
X46136Y-27419D01*
X46136Y-27520D01*
X45300Y-27520D01*
X45238Y-27532D01*
X45186Y-27566D01*
X44966Y-27786D01*
X44932Y-27838D01*
X44920Y-27900D01*
X44920Y-28253D01*
X44863Y-28310D01*
X44802Y-28309D01*
X44714Y-28346D01*
X44646Y-28413D01*
X44610Y-28502D01*
X44609Y-28597D01*
X44646Y-28685D01*
X44713Y-28753D01*
X44802Y-28789D01*
X44897Y-28790D01*
X44985Y-28753D01*
X45053Y-28686D01*
X45085Y-28609D01*
X45116Y-28685D01*
X45183Y-28753D01*
X45272Y-28789D01*
X45367Y-28790D01*
X45455Y-28753D01*
X45470Y-28739D01*
X45470Y-29040D01*
X42757Y-29040D01*
X42757Y-28323D01*
X42757Y-28228D01*
X42695Y-28166D01*
X42420Y-28166D01*
X42420Y-28461D01*
X42482Y-28523D01*
X42457Y-28523D01*
X42557Y-28523D01*
X42649Y-28485D01*
X42719Y-28414D01*
X42757Y-28323D01*
X42757Y-29040D01*
X42397Y-29040D01*
X42397Y-28323D01*
X42397Y-28228D01*
X42335Y-28166D01*
X42320Y-28166D01*
X42060Y-28166D01*
X42045Y-28166D01*
X41982Y-28228D01*
X41982Y-28323D01*
X42020Y-28414D01*
X42060Y-28454D01*
X42060Y-28461D01*
X42122Y-28523D01*
X42097Y-28523D01*
X42190Y-28523D01*
X42282Y-28523D01*
X42257Y-28523D01*
X42320Y-28461D01*
X42320Y-28454D01*
X42359Y-28414D01*
X42397Y-28323D01*
X42397Y-29040D01*
X41960Y-29040D01*
X41960Y-28461D01*
X41960Y-28166D01*
X41685Y-28166D01*
X41622Y-28228D01*
X41622Y-28323D01*
X41660Y-28414D01*
X41730Y-28485D01*
X41822Y-28523D01*
X41922Y-28523D01*
X41897Y-28523D01*
X41960Y-28461D01*
X41960Y-29040D01*
X41172Y-29040D01*
X41172Y-27868D01*
X41172Y-26530D01*
X41153Y-26486D01*
X41120Y-26452D01*
X41075Y-26434D01*
X41028Y-26433D01*
X40438Y-26433D01*
X40394Y-26452D01*
X40360Y-26485D01*
X40342Y-26530D01*
X40341Y-26577D01*
X40341Y-27915D01*
X40360Y-27959D01*
X40393Y-27993D01*
X40438Y-28011D01*
X40485Y-28012D01*
X41075Y-28012D01*
X41119Y-27993D01*
X41153Y-27960D01*
X41171Y-27915D01*
X41172Y-27868D01*
X41172Y-29040D01*
X39492Y-29040D01*
X39492Y-25598D01*
X39492Y-25072D01*
X39430Y-25010D01*
X39096Y-25010D01*
X39096Y-25836D01*
X39158Y-25898D01*
X39292Y-25898D01*
X39383Y-25860D01*
X39454Y-25790D01*
X39492Y-25698D01*
X39492Y-25598D01*
X39492Y-29040D01*
X38996Y-29040D01*
X38996Y-25836D01*
X38996Y-25010D01*
X38996Y-24910D01*
X38996Y-24084D01*
X38995Y-24083D01*
X38995Y-23670D01*
X38995Y-23570D01*
X38995Y-23137D01*
X38932Y-23075D01*
X38739Y-23074D01*
X38736Y-23076D01*
X38736Y-22775D01*
X38736Y-22088D01*
X38736Y-19271D01*
X38736Y-18584D01*
X38735Y-18484D01*
X38697Y-18392D01*
X38627Y-18322D01*
X38535Y-18284D01*
X38106Y-18284D01*
X38044Y-18347D01*
X38044Y-18878D01*
X38673Y-18878D01*
X38736Y-18815D01*
X38736Y-18584D01*
X38736Y-19271D01*
X38736Y-19040D01*
X38673Y-18978D01*
X38044Y-18978D01*
X38044Y-19509D01*
X38106Y-19571D01*
X38535Y-19571D01*
X38627Y-19533D01*
X38697Y-19463D01*
X38735Y-19371D01*
X38736Y-19271D01*
X38736Y-22088D01*
X38735Y-21988D01*
X38697Y-21896D01*
X38627Y-21826D01*
X38535Y-21788D01*
X38106Y-21788D01*
X38044Y-21851D01*
X38044Y-22382D01*
X38673Y-22382D01*
X38736Y-22319D01*
X38736Y-22088D01*
X38736Y-22775D01*
X38736Y-22544D01*
X38673Y-22482D01*
X38044Y-22482D01*
X38044Y-23013D01*
X38106Y-23075D01*
X38535Y-23075D01*
X38627Y-23037D01*
X38697Y-22967D01*
X38735Y-22875D01*
X38736Y-22775D01*
X38736Y-23076D01*
X38647Y-23112D01*
X38577Y-23183D01*
X38539Y-23275D01*
X38538Y-23374D01*
X38539Y-23507D01*
X38601Y-23570D01*
X38995Y-23570D01*
X38995Y-23670D01*
X38601Y-23670D01*
X38539Y-23732D01*
X38538Y-23865D01*
X38539Y-23964D01*
X38577Y-24056D01*
X38643Y-24123D01*
X38637Y-24129D01*
X38599Y-24221D01*
X38599Y-24321D01*
X38599Y-24847D01*
X38662Y-24910D01*
X38996Y-24910D01*
X38996Y-25010D01*
X38662Y-25010D01*
X38599Y-25072D01*
X38599Y-25598D01*
X38599Y-25698D01*
X38637Y-25790D01*
X38708Y-25860D01*
X38799Y-25898D01*
X38933Y-25898D01*
X38996Y-25836D01*
X38996Y-29040D01*
X38537Y-29040D01*
X38537Y-27867D01*
X38537Y-26530D01*
X38518Y-26486D01*
X38485Y-26452D01*
X38440Y-26434D01*
X38393Y-26434D01*
X37944Y-26434D01*
X37944Y-23013D01*
X37944Y-22482D01*
X37944Y-22382D01*
X37944Y-21851D01*
X37944Y-19509D01*
X37944Y-18978D01*
X37944Y-18878D01*
X37944Y-18347D01*
X37881Y-18284D01*
X37452Y-18284D01*
X37360Y-18322D01*
X37290Y-18392D01*
X37252Y-18484D01*
X37251Y-18584D01*
X37252Y-18815D01*
X37314Y-18878D01*
X37944Y-18878D01*
X37944Y-18978D01*
X37314Y-18978D01*
X37252Y-19040D01*
X37251Y-19271D01*
X37252Y-19371D01*
X37290Y-19463D01*
X37360Y-19533D01*
X37452Y-19571D01*
X37881Y-19571D01*
X37944Y-19509D01*
X37944Y-21851D01*
X37881Y-21788D01*
X37452Y-21788D01*
X37360Y-21826D01*
X37290Y-21896D01*
X37252Y-21988D01*
X37251Y-22088D01*
X37252Y-22319D01*
X37314Y-22382D01*
X37944Y-22382D01*
X37944Y-22482D01*
X37314Y-22482D01*
X37252Y-22544D01*
X37251Y-22775D01*
X37252Y-22875D01*
X37290Y-22967D01*
X37360Y-23037D01*
X37452Y-23075D01*
X37881Y-23075D01*
X37944Y-23013D01*
X37944Y-26434D01*
X37803Y-26434D01*
X37759Y-26452D01*
X37725Y-26486D01*
X37707Y-26530D01*
X37706Y-26578D01*
X37706Y-27915D01*
X37725Y-27959D01*
X37758Y-27993D01*
X37803Y-28011D01*
X37850Y-28011D01*
X38440Y-28011D01*
X38484Y-27993D01*
X38518Y-27959D01*
X38536Y-27915D01*
X38537Y-27867D01*
X38537Y-29040D01*
X38265Y-29040D01*
X37825Y-28953D01*
X37467Y-28713D01*
X37226Y-28352D01*
X37139Y-27916D01*
X37139Y-16043D01*
X37226Y-15607D01*
X37467Y-15246D01*
X37825Y-15006D01*
X38265Y-14919D01*
X46153Y-14919D01*
X46586Y-15020D01*
X46938Y-15272D01*
X47166Y-15639D01*
X47240Y-16082D01*
X47240Y-21640D01*
X47250Y-21693D01*
X47281Y-21738D01*
X47282Y-21739D01*
G54D10*
G36*
X49920Y-24120D02*
X48936Y-24120D01*
X49167Y-23888D01*
X49229Y-23929D01*
X49390Y-23961D01*
X49550Y-23929D01*
X49686Y-23838D01*
X49778Y-23702D01*
X49810Y-23541D01*
X49810Y-23334D01*
X49778Y-23173D01*
X49686Y-23037D01*
X49550Y-22946D01*
X49390Y-22914D01*
X49340Y-22924D01*
X49340Y-22820D01*
X49340Y-22292D01*
X48900Y-22292D01*
X48838Y-22378D01*
X48896Y-22586D01*
X49030Y-22756D01*
X49218Y-22862D01*
X49254Y-22868D01*
X49340Y-22820D01*
X49340Y-22924D01*
X49229Y-22946D01*
X49093Y-23037D01*
X49001Y-23173D01*
X48970Y-23334D01*
X48970Y-23541D01*
X48985Y-23618D01*
X48703Y-23900D01*
X48595Y-23900D01*
X48686Y-23838D01*
X48778Y-23702D01*
X48810Y-23541D01*
X48810Y-23334D01*
X48778Y-23173D01*
X48686Y-23037D01*
X48550Y-22946D01*
X48390Y-22914D01*
X48229Y-22946D01*
X48225Y-22949D01*
X48043Y-22766D01*
X47991Y-22732D01*
X47930Y-22720D01*
X47820Y-22720D01*
X47800Y-22720D01*
X47571Y-22720D01*
X47686Y-22642D01*
X47778Y-22506D01*
X47810Y-22345D01*
X47810Y-22138D01*
X47778Y-21977D01*
X47686Y-21841D01*
X47594Y-21779D01*
X48185Y-21779D01*
X48093Y-21841D01*
X48001Y-21977D01*
X47970Y-22138D01*
X47970Y-22345D01*
X48001Y-22506D01*
X48093Y-22642D01*
X48229Y-22733D01*
X48390Y-22765D01*
X48550Y-22733D01*
X48686Y-22642D01*
X48778Y-22506D01*
X48810Y-22345D01*
X48810Y-22138D01*
X48778Y-21977D01*
X48686Y-21841D01*
X48594Y-21779D01*
X48989Y-21779D01*
X48896Y-21897D01*
X48838Y-22105D01*
X48900Y-22192D01*
X49340Y-22192D01*
X49340Y-22184D01*
X49440Y-22184D01*
X49440Y-22192D01*
X49447Y-22192D01*
X49447Y-22292D01*
X49440Y-22292D01*
X49440Y-22820D01*
X49525Y-22868D01*
X49561Y-22862D01*
X49749Y-22756D01*
X49883Y-22586D01*
X49920Y-22455D01*
X49920Y-24120D01*
X49920Y-24120D01*
G37*
G54D38*
X49920Y-24120D02*
X48936Y-24120D01*
X49167Y-23888D01*
X49229Y-23929D01*
X49390Y-23961D01*
X49550Y-23929D01*
X49686Y-23838D01*
X49778Y-23702D01*
X49810Y-23541D01*
X49810Y-23334D01*
X49778Y-23173D01*
X49686Y-23037D01*
X49550Y-22946D01*
X49390Y-22914D01*
X49340Y-22924D01*
X49340Y-22820D01*
X49340Y-22292D01*
X48900Y-22292D01*
X48838Y-22378D01*
X48896Y-22586D01*
X49030Y-22756D01*
X49218Y-22862D01*
X49254Y-22868D01*
X49340Y-22820D01*
X49340Y-22924D01*
X49229Y-22946D01*
X49093Y-23037D01*
X49001Y-23173D01*
X48970Y-23334D01*
X48970Y-23541D01*
X48985Y-23618D01*
X48703Y-23900D01*
X48595Y-23900D01*
X48686Y-23838D01*
X48778Y-23702D01*
X48810Y-23541D01*
X48810Y-23334D01*
X48778Y-23173D01*
X48686Y-23037D01*
X48550Y-22946D01*
X48390Y-22914D01*
X48229Y-22946D01*
X48225Y-22949D01*
X48043Y-22766D01*
X47991Y-22732D01*
X47930Y-22720D01*
X47820Y-22720D01*
X47800Y-22720D01*
X47571Y-22720D01*
X47686Y-22642D01*
X47778Y-22506D01*
X47810Y-22345D01*
X47810Y-22138D01*
X47778Y-21977D01*
X47686Y-21841D01*
X47594Y-21779D01*
X48185Y-21779D01*
X48093Y-21841D01*
X48001Y-21977D01*
X47970Y-22138D01*
X47970Y-22345D01*
X48001Y-22506D01*
X48093Y-22642D01*
X48229Y-22733D01*
X48390Y-22765D01*
X48550Y-22733D01*
X48686Y-22642D01*
X48778Y-22506D01*
X48810Y-22345D01*
X48810Y-22138D01*
X48778Y-21977D01*
X48686Y-21841D01*
X48594Y-21779D01*
X48989Y-21779D01*
X48896Y-21897D01*
X48838Y-22105D01*
X48900Y-22192D01*
X49340Y-22192D01*
X49340Y-22184D01*
X49440Y-22184D01*
X49440Y-22192D01*
X49447Y-22192D01*
X49447Y-22292D01*
X49440Y-22292D01*
X49440Y-22820D01*
X49525Y-22868D01*
X49561Y-22862D01*
X49749Y-22756D01*
X49883Y-22586D01*
X49920Y-22455D01*
X49920Y-24120D01*
G54D10*
G36*
X49920Y-27914D02*
X49833Y-28354D01*
X49593Y-28712D01*
X49232Y-28953D01*
X48796Y-29040D01*
X48427Y-29040D01*
X48427Y-28403D01*
X48427Y-28308D01*
X48365Y-28246D01*
X48090Y-28246D01*
X48090Y-28541D01*
X48152Y-28603D01*
X48127Y-28603D01*
X48227Y-28603D01*
X48319Y-28565D01*
X48389Y-28494D01*
X48427Y-28403D01*
X48427Y-29040D01*
X48047Y-29040D01*
X48047Y-28462D01*
X48047Y-28348D01*
X47990Y-28291D01*
X47990Y-28246D01*
X47715Y-28246D01*
X47708Y-28252D01*
X47675Y-28286D01*
X47650Y-28286D01*
X47650Y-28311D01*
X47646Y-28315D01*
X47646Y-28590D01*
X47650Y-28590D01*
X47650Y-28600D01*
X47712Y-28663D01*
X47747Y-28663D01*
X47846Y-28662D01*
X47938Y-28624D01*
X48009Y-28554D01*
X48047Y-28462D01*
X48047Y-29040D01*
X48003Y-29040D01*
X48003Y-28727D01*
X48003Y-28752D01*
X47941Y-28690D01*
X47646Y-28690D01*
X47646Y-28965D01*
X47708Y-29027D01*
X47803Y-29027D01*
X47894Y-28989D01*
X47965Y-28919D01*
X48003Y-28827D01*
X48003Y-28727D01*
X48003Y-29040D01*
X45760Y-29040D01*
X45760Y-28769D01*
X45783Y-28793D01*
X45872Y-28829D01*
X45962Y-28830D01*
X45974Y-28859D01*
X46045Y-28929D01*
X46136Y-28967D01*
X46231Y-28967D01*
X46294Y-28905D01*
X46294Y-28630D01*
X46286Y-28630D01*
X46286Y-28532D01*
X46289Y-28530D01*
X46294Y-28530D01*
X46294Y-28525D01*
X46294Y-28255D01*
X46294Y-28250D01*
X46289Y-28250D01*
X46286Y-28247D01*
X46286Y-28150D01*
X46294Y-28150D01*
X46294Y-28142D01*
X46394Y-28142D01*
X46394Y-28150D01*
X46401Y-28150D01*
X46401Y-28247D01*
X46399Y-28250D01*
X46394Y-28250D01*
X46394Y-28255D01*
X46394Y-28525D01*
X46394Y-28530D01*
X46399Y-28530D01*
X46401Y-28532D01*
X46401Y-28630D01*
X46394Y-28630D01*
X46394Y-28905D01*
X46456Y-28967D01*
X46551Y-28967D01*
X46642Y-28929D01*
X46713Y-28859D01*
X46722Y-28837D01*
X46901Y-28837D01*
X46904Y-28845D01*
X46938Y-28879D01*
X46982Y-28897D01*
X47030Y-28897D01*
X47217Y-28897D01*
X47226Y-28919D01*
X47297Y-28989D01*
X47388Y-29027D01*
X47483Y-29027D01*
X47546Y-28965D01*
X47546Y-28690D01*
X47538Y-28690D01*
X47538Y-28612D01*
X47550Y-28600D01*
X47550Y-28286D01*
X47542Y-28286D01*
X47542Y-28186D01*
X47550Y-28186D01*
X47550Y-28178D01*
X47650Y-28178D01*
X47650Y-28186D01*
X47984Y-28186D01*
X48032Y-28138D01*
X48090Y-28138D01*
X48090Y-28146D01*
X48365Y-28146D01*
X48427Y-28083D01*
X48427Y-27988D01*
X48389Y-27897D01*
X48319Y-27826D01*
X48297Y-27817D01*
X48297Y-27582D01*
X48285Y-27554D01*
X48319Y-27521D01*
X48337Y-27477D01*
X48337Y-27429D01*
X48337Y-27114D01*
X48323Y-27079D01*
X48337Y-27045D01*
X48337Y-26997D01*
X48337Y-26823D01*
X48366Y-26853D01*
X48418Y-26887D01*
X48447Y-26893D01*
X48456Y-26915D01*
X48523Y-26983D01*
X48612Y-27019D01*
X48707Y-27020D01*
X48795Y-26983D01*
X48863Y-26916D01*
X48899Y-26827D01*
X48900Y-26732D01*
X48863Y-26644D01*
X48796Y-26576D01*
X48707Y-26540D01*
X48612Y-26539D01*
X48560Y-26561D01*
X48560Y-26560D01*
X48547Y-26498D01*
X48513Y-26446D01*
X48432Y-26366D01*
X48483Y-26316D01*
X48519Y-26227D01*
X48520Y-26132D01*
X48483Y-26044D01*
X48416Y-25976D01*
X48337Y-25944D01*
X48337Y-25929D01*
X48337Y-25614D01*
X48323Y-25579D01*
X48337Y-25545D01*
X48337Y-25497D01*
X48337Y-25182D01*
X48319Y-25138D01*
X48285Y-25104D01*
X48241Y-25086D01*
X48193Y-25086D01*
X47973Y-25086D01*
X47977Y-25077D01*
X47977Y-25029D01*
X47977Y-25008D01*
X48077Y-24908D01*
X48098Y-24929D01*
X48142Y-24947D01*
X48190Y-24947D01*
X48505Y-24947D01*
X48540Y-24933D01*
X48574Y-24947D01*
X48596Y-24947D01*
X48596Y-25034D01*
X48576Y-25053D01*
X48540Y-25142D01*
X48539Y-25237D01*
X48576Y-25325D01*
X48643Y-25393D01*
X48732Y-25429D01*
X48827Y-25430D01*
X48915Y-25393D01*
X48983Y-25326D01*
X49019Y-25237D01*
X49020Y-25142D01*
X48983Y-25054D01*
X48916Y-24986D01*
X48916Y-24986D01*
X48916Y-24947D01*
X48937Y-24947D01*
X48981Y-24929D01*
X49015Y-24895D01*
X49033Y-24851D01*
X49033Y-24803D01*
X49033Y-24528D01*
X49015Y-24484D01*
X48981Y-24450D01*
X48937Y-24432D01*
X48889Y-24432D01*
X48574Y-24432D01*
X48539Y-24446D01*
X48505Y-24432D01*
X48457Y-24432D01*
X48142Y-24432D01*
X48098Y-24450D01*
X48064Y-24484D01*
X48046Y-24528D01*
X48046Y-24534D01*
X48008Y-24542D01*
X47977Y-24563D01*
X47977Y-24360D01*
X49920Y-24360D01*
X49920Y-27914D01*
X49920Y-27914D01*
G37*
G54D38*
X49920Y-27914D02*
X49833Y-28354D01*
X49593Y-28712D01*
X49232Y-28953D01*
X48796Y-29040D01*
X48427Y-29040D01*
X48427Y-28403D01*
X48427Y-28308D01*
X48365Y-28246D01*
X48090Y-28246D01*
X48090Y-28541D01*
X48152Y-28603D01*
X48127Y-28603D01*
X48227Y-28603D01*
X48319Y-28565D01*
X48389Y-28494D01*
X48427Y-28403D01*
X48427Y-29040D01*
X48047Y-29040D01*
X48047Y-28462D01*
X48047Y-28348D01*
X47990Y-28291D01*
X47990Y-28246D01*
X47715Y-28246D01*
X47708Y-28252D01*
X47675Y-28286D01*
X47650Y-28286D01*
X47650Y-28311D01*
X47646Y-28315D01*
X47646Y-28590D01*
X47650Y-28590D01*
X47650Y-28600D01*
X47712Y-28663D01*
X47747Y-28663D01*
X47846Y-28662D01*
X47938Y-28624D01*
X48009Y-28554D01*
X48047Y-28462D01*
X48047Y-29040D01*
X48003Y-29040D01*
X48003Y-28727D01*
X48003Y-28752D01*
X47941Y-28690D01*
X47646Y-28690D01*
X47646Y-28965D01*
X47708Y-29027D01*
X47803Y-29027D01*
X47894Y-28989D01*
X47965Y-28919D01*
X48003Y-28827D01*
X48003Y-28727D01*
X48003Y-29040D01*
X45760Y-29040D01*
X45760Y-28769D01*
X45783Y-28793D01*
X45872Y-28829D01*
X45962Y-28830D01*
X45974Y-28859D01*
X46045Y-28929D01*
X46136Y-28967D01*
X46231Y-28967D01*
X46294Y-28905D01*
X46294Y-28630D01*
X46286Y-28630D01*
X46286Y-28532D01*
X46289Y-28530D01*
X46294Y-28530D01*
X46294Y-28525D01*
X46294Y-28255D01*
X46294Y-28250D01*
X46289Y-28250D01*
X46286Y-28247D01*
X46286Y-28150D01*
X46294Y-28150D01*
X46294Y-28142D01*
X46394Y-28142D01*
X46394Y-28150D01*
X46401Y-28150D01*
X46401Y-28247D01*
X46399Y-28250D01*
X46394Y-28250D01*
X46394Y-28255D01*
X46394Y-28525D01*
X46394Y-28530D01*
X46399Y-28530D01*
X46401Y-28532D01*
X46401Y-28630D01*
X46394Y-28630D01*
X46394Y-28905D01*
X46456Y-28967D01*
X46551Y-28967D01*
X46642Y-28929D01*
X46713Y-28859D01*
X46722Y-28837D01*
X46901Y-28837D01*
X46904Y-28845D01*
X46938Y-28879D01*
X46982Y-28897D01*
X47030Y-28897D01*
X47217Y-28897D01*
X47226Y-28919D01*
X47297Y-28989D01*
X47388Y-29027D01*
X47483Y-29027D01*
X47546Y-28965D01*
X47546Y-28690D01*
X47538Y-28690D01*
X47538Y-28612D01*
X47550Y-28600D01*
X47550Y-28286D01*
X47542Y-28286D01*
X47542Y-28186D01*
X47550Y-28186D01*
X47550Y-28178D01*
X47650Y-28178D01*
X47650Y-28186D01*
X47984Y-28186D01*
X48032Y-28138D01*
X48090Y-28138D01*
X48090Y-28146D01*
X48365Y-28146D01*
X48427Y-28083D01*
X48427Y-27988D01*
X48389Y-27897D01*
X48319Y-27826D01*
X48297Y-27817D01*
X48297Y-27582D01*
X48285Y-27554D01*
X48319Y-27521D01*
X48337Y-27477D01*
X48337Y-27429D01*
X48337Y-27114D01*
X48323Y-27079D01*
X48337Y-27045D01*
X48337Y-26997D01*
X48337Y-26823D01*
X48366Y-26853D01*
X48418Y-26887D01*
X48447Y-26893D01*
X48456Y-26915D01*
X48523Y-26983D01*
X48612Y-27019D01*
X48707Y-27020D01*
X48795Y-26983D01*
X48863Y-26916D01*
X48899Y-26827D01*
X48900Y-26732D01*
X48863Y-26644D01*
X48796Y-26576D01*
X48707Y-26540D01*
X48612Y-26539D01*
X48560Y-26561D01*
X48560Y-26560D01*
X48547Y-26498D01*
X48513Y-26446D01*
X48432Y-26366D01*
X48483Y-26316D01*
X48519Y-26227D01*
X48520Y-26132D01*
X48483Y-26044D01*
X48416Y-25976D01*
X48337Y-25944D01*
X48337Y-25929D01*
X48337Y-25614D01*
X48323Y-25579D01*
X48337Y-25545D01*
X48337Y-25497D01*
X48337Y-25182D01*
X48319Y-25138D01*
X48285Y-25104D01*
X48241Y-25086D01*
X48193Y-25086D01*
X47973Y-25086D01*
X47977Y-25077D01*
X47977Y-25029D01*
X47977Y-25008D01*
X48077Y-24908D01*
X48098Y-24929D01*
X48142Y-24947D01*
X48190Y-24947D01*
X48505Y-24947D01*
X48540Y-24933D01*
X48574Y-24947D01*
X48596Y-24947D01*
X48596Y-25034D01*
X48576Y-25053D01*
X48540Y-25142D01*
X48539Y-25237D01*
X48576Y-25325D01*
X48643Y-25393D01*
X48732Y-25429D01*
X48827Y-25430D01*
X48915Y-25393D01*
X48983Y-25326D01*
X49019Y-25237D01*
X49020Y-25142D01*
X48983Y-25054D01*
X48916Y-24986D01*
X48916Y-24986D01*
X48916Y-24947D01*
X48937Y-24947D01*
X48981Y-24929D01*
X49015Y-24895D01*
X49033Y-24851D01*
X49033Y-24803D01*
X49033Y-24528D01*
X49015Y-24484D01*
X48981Y-24450D01*
X48937Y-24432D01*
X48889Y-24432D01*
X48574Y-24432D01*
X48539Y-24446D01*
X48505Y-24432D01*
X48457Y-24432D01*
X48142Y-24432D01*
X48098Y-24450D01*
X48064Y-24484D01*
X48046Y-24528D01*
X48046Y-24534D01*
X48008Y-24542D01*
X47977Y-24563D01*
X47977Y-24360D01*
X49920Y-24360D01*
X49920Y-27914D01*
M02*
