G04 (created by PCBNEW (2013-05-31 BZR 4019)-stable) date 7/3/2014 2:31:18 PM*
%MOIN*%
G04 Gerber Fmt 3.4, Leading zero omitted, Abs format*
%FSLAX34Y34*%
G01*
G70*
G90*
G04 APERTURE LIST*
%ADD10C,0.00590551*%
%ADD11C,0.18*%
%ADD12R,0.06X0.0787*%
%ADD13O,0.06X0.0787*%
%ADD14C,0.024*%
%ADD15C,0.008*%
%ADD16C,0.016*%
%ADD17C,0.01*%
G04 APERTURE END LIST*
G54D10*
G54D11*
X38520Y-16300D03*
G54D12*
X47390Y-23438D03*
G54D13*
X47390Y-22242D03*
X48390Y-23438D03*
X48390Y-22242D03*
X49390Y-23438D03*
X49390Y-22242D03*
G54D14*
X45320Y-28550D03*
X46250Y-26120D03*
X43410Y-27640D03*
X41480Y-26510D03*
X45610Y-22300D03*
X42600Y-24030D03*
X42630Y-15430D03*
X44730Y-20920D03*
X41920Y-22970D03*
X41990Y-23730D03*
X40170Y-24090D03*
X40360Y-23620D03*
X41700Y-26850D03*
X44920Y-16940D03*
X43340Y-25180D03*
X46280Y-19260D03*
X47860Y-26510D03*
X45920Y-28590D03*
X48280Y-26180D03*
X48660Y-26780D03*
X45720Y-25440D03*
X39600Y-26100D03*
X46810Y-24500D03*
X45990Y-22310D03*
X41280Y-24550D03*
X47990Y-28640D03*
X46340Y-28830D03*
X44280Y-26150D03*
X39290Y-20250D03*
X41410Y-19730D03*
X44420Y-28160D03*
X42830Y-27600D03*
X45200Y-26360D03*
X44800Y-27000D03*
X46640Y-26300D03*
X44240Y-25540D03*
X41040Y-17100D03*
X44380Y-17300D03*
X48780Y-25190D03*
X44540Y-26680D03*
X44180Y-23840D03*
X38920Y-17720D03*
X42320Y-23640D03*
X42660Y-22680D03*
X39400Y-21140D03*
X42680Y-22340D03*
X44500Y-25000D03*
X45300Y-23720D03*
X43220Y-24780D03*
X42680Y-24780D03*
X46460Y-26640D03*
X42390Y-26140D03*
X44850Y-28550D03*
X42520Y-24450D03*
X46360Y-23240D03*
X43240Y-23580D03*
X46240Y-23700D03*
X42370Y-26840D03*
G54D15*
X46250Y-26120D02*
X46250Y-26330D01*
X45320Y-27260D02*
X45320Y-28550D01*
X46250Y-26330D02*
X45320Y-27260D01*
X44910Y-23000D02*
X45610Y-22300D01*
X44910Y-23680D02*
X44910Y-23000D01*
X44350Y-24240D02*
X44910Y-23680D01*
X43350Y-24240D02*
X44350Y-24240D01*
X43140Y-24030D02*
X43350Y-24240D01*
X42600Y-24030D02*
X43140Y-24030D01*
X41920Y-23660D02*
X41920Y-22970D01*
X41990Y-23730D02*
X41920Y-23660D01*
G54D16*
X42660Y-23040D02*
X42320Y-23380D01*
X42320Y-23380D02*
X42320Y-23640D01*
X42660Y-22680D02*
X42660Y-23040D01*
G54D10*
G36*
X37000Y-21470D02*
X37000Y-21480D01*
X37000Y-21470D01*
X37000Y-21470D01*
X37000Y-21470D01*
G37*
G54D17*
X37000Y-21470D02*
X37000Y-21480D01*
X37000Y-21470D01*
X37000Y-21470D01*
G54D10*
G36*
X44100Y-23159D02*
X43969Y-23290D01*
X42470Y-23290D01*
X42470Y-21420D01*
X39444Y-21420D01*
X39426Y-21377D01*
X39343Y-21294D01*
X39234Y-21249D01*
X39116Y-21248D01*
X39006Y-21294D01*
X38923Y-21377D01*
X38905Y-21420D01*
X37139Y-21420D01*
X37139Y-16043D01*
X37226Y-15607D01*
X37467Y-15246D01*
X37825Y-15006D01*
X38265Y-14919D01*
X42020Y-14919D01*
X42020Y-17140D01*
X41518Y-17140D01*
X41518Y-15418D01*
X41473Y-15309D01*
X41389Y-15225D01*
X41280Y-15180D01*
X41162Y-15180D01*
X41053Y-15225D01*
X40969Y-15308D01*
X40924Y-15417D01*
X40924Y-15536D01*
X40969Y-15645D01*
X41052Y-15729D01*
X41162Y-15774D01*
X41280Y-15774D01*
X41389Y-15729D01*
X41473Y-15645D01*
X41518Y-15536D01*
X41518Y-15418D01*
X41518Y-17140D01*
X41279Y-17140D01*
X41280Y-17052D01*
X41243Y-16964D01*
X41176Y-16896D01*
X41087Y-16860D01*
X40992Y-16859D01*
X40904Y-16896D01*
X40836Y-16963D01*
X40800Y-17052D01*
X40799Y-17140D01*
X39540Y-17140D01*
X39540Y-16097D01*
X39385Y-15722D01*
X39098Y-15435D01*
X38723Y-15280D01*
X38317Y-15279D01*
X37942Y-15434D01*
X37655Y-15721D01*
X37500Y-16096D01*
X37499Y-16502D01*
X37654Y-16877D01*
X37941Y-17164D01*
X38316Y-17319D01*
X38722Y-17320D01*
X39097Y-17165D01*
X39384Y-16878D01*
X39539Y-16503D01*
X39540Y-16097D01*
X39540Y-17140D01*
X39499Y-17140D01*
X39080Y-17559D01*
X39080Y-19531D01*
X39006Y-19562D01*
X38923Y-19645D01*
X38878Y-19754D01*
X38877Y-19872D01*
X38923Y-19982D01*
X39006Y-20065D01*
X39080Y-20096D01*
X39080Y-20129D01*
X39050Y-20202D01*
X39049Y-20297D01*
X39086Y-20385D01*
X39153Y-20453D01*
X39242Y-20489D01*
X39329Y-20490D01*
X39419Y-20580D01*
X41709Y-20580D01*
X42049Y-20920D01*
X42879Y-20920D01*
X43719Y-21760D01*
X44100Y-21760D01*
X44100Y-23159D01*
X44100Y-23159D01*
G37*
G54D17*
X44100Y-23159D02*
X43969Y-23290D01*
X42470Y-23290D01*
X42470Y-21420D01*
X39444Y-21420D01*
X39426Y-21377D01*
X39343Y-21294D01*
X39234Y-21249D01*
X39116Y-21248D01*
X39006Y-21294D01*
X38923Y-21377D01*
X38905Y-21420D01*
X37139Y-21420D01*
X37139Y-16043D01*
X37226Y-15607D01*
X37467Y-15246D01*
X37825Y-15006D01*
X38265Y-14919D01*
X42020Y-14919D01*
X42020Y-17140D01*
X41518Y-17140D01*
X41518Y-15418D01*
X41473Y-15309D01*
X41389Y-15225D01*
X41280Y-15180D01*
X41162Y-15180D01*
X41053Y-15225D01*
X40969Y-15308D01*
X40924Y-15417D01*
X40924Y-15536D01*
X40969Y-15645D01*
X41052Y-15729D01*
X41162Y-15774D01*
X41280Y-15774D01*
X41389Y-15729D01*
X41473Y-15645D01*
X41518Y-15536D01*
X41518Y-15418D01*
X41518Y-17140D01*
X41279Y-17140D01*
X41280Y-17052D01*
X41243Y-16964D01*
X41176Y-16896D01*
X41087Y-16860D01*
X40992Y-16859D01*
X40904Y-16896D01*
X40836Y-16963D01*
X40800Y-17052D01*
X40799Y-17140D01*
X39540Y-17140D01*
X39540Y-16097D01*
X39385Y-15722D01*
X39098Y-15435D01*
X38723Y-15280D01*
X38317Y-15279D01*
X37942Y-15434D01*
X37655Y-15721D01*
X37500Y-16096D01*
X37499Y-16502D01*
X37654Y-16877D01*
X37941Y-17164D01*
X38316Y-17319D01*
X38722Y-17320D01*
X39097Y-17165D01*
X39384Y-16878D01*
X39539Y-16503D01*
X39540Y-16097D01*
X39540Y-17140D01*
X39499Y-17140D01*
X39080Y-17559D01*
X39080Y-19531D01*
X39006Y-19562D01*
X38923Y-19645D01*
X38878Y-19754D01*
X38877Y-19872D01*
X38923Y-19982D01*
X39006Y-20065D01*
X39080Y-20096D01*
X39080Y-20129D01*
X39050Y-20202D01*
X39049Y-20297D01*
X39086Y-20385D01*
X39153Y-20453D01*
X39242Y-20489D01*
X39329Y-20490D01*
X39419Y-20580D01*
X41709Y-20580D01*
X42049Y-20920D01*
X42879Y-20920D01*
X43719Y-21760D01*
X44100Y-21760D01*
X44100Y-23159D01*
G54D10*
G36*
X42440Y-23849D02*
X42396Y-23893D01*
X42360Y-23982D01*
X42359Y-24077D01*
X42365Y-24090D01*
X40399Y-24090D01*
X40310Y-24179D01*
X40310Y-25660D01*
X37139Y-25660D01*
X37139Y-21650D01*
X38896Y-21650D01*
X38923Y-21714D01*
X39006Y-21797D01*
X39115Y-21842D01*
X39233Y-21843D01*
X39343Y-21797D01*
X39426Y-21714D01*
X39453Y-21650D01*
X42220Y-21650D01*
X42220Y-23197D01*
X42178Y-23238D01*
X42135Y-23303D01*
X42120Y-23380D01*
X42120Y-23500D01*
X42116Y-23503D01*
X42080Y-23592D01*
X42079Y-23687D01*
X42116Y-23775D01*
X42183Y-23843D01*
X42272Y-23879D01*
X42367Y-23880D01*
X42440Y-23849D01*
X42440Y-23849D01*
G37*
G54D17*
X42440Y-23849D02*
X42396Y-23893D01*
X42360Y-23982D01*
X42359Y-24077D01*
X42365Y-24090D01*
X40399Y-24090D01*
X40310Y-24179D01*
X40310Y-25660D01*
X37139Y-25660D01*
X37139Y-21650D01*
X38896Y-21650D01*
X38923Y-21714D01*
X39006Y-21797D01*
X39115Y-21842D01*
X39233Y-21843D01*
X39343Y-21797D01*
X39426Y-21714D01*
X39453Y-21650D01*
X42220Y-21650D01*
X42220Y-23197D01*
X42178Y-23238D01*
X42135Y-23303D01*
X42120Y-23380D01*
X42120Y-23500D01*
X42116Y-23503D01*
X42080Y-23592D01*
X42079Y-23687D01*
X42116Y-23775D01*
X42183Y-23843D01*
X42272Y-23879D01*
X42367Y-23880D01*
X42440Y-23849D01*
G54D10*
G36*
X49920Y-24120D02*
X49810Y-24120D01*
X49810Y-23541D01*
X49810Y-23334D01*
X49778Y-23173D01*
X49686Y-23037D01*
X49550Y-22946D01*
X49390Y-22914D01*
X49229Y-22946D01*
X49093Y-23037D01*
X49001Y-23173D01*
X48970Y-23334D01*
X48970Y-23541D01*
X49001Y-23702D01*
X49093Y-23838D01*
X49229Y-23929D01*
X49390Y-23961D01*
X49550Y-23929D01*
X49686Y-23838D01*
X49778Y-23702D01*
X49810Y-23541D01*
X49810Y-24120D01*
X48810Y-24120D01*
X48810Y-23541D01*
X48810Y-23334D01*
X48778Y-23173D01*
X48686Y-23037D01*
X48550Y-22946D01*
X48390Y-22914D01*
X48229Y-22946D01*
X48093Y-23037D01*
X48001Y-23173D01*
X47970Y-23334D01*
X47970Y-23541D01*
X48001Y-23702D01*
X48093Y-23838D01*
X48229Y-23929D01*
X48390Y-23961D01*
X48550Y-23929D01*
X48686Y-23838D01*
X48778Y-23702D01*
X48810Y-23541D01*
X48810Y-24120D01*
X47941Y-24120D01*
X47941Y-22378D01*
X47879Y-22292D01*
X47440Y-22292D01*
X47440Y-22820D01*
X47525Y-22868D01*
X47561Y-22862D01*
X47749Y-22756D01*
X47883Y-22586D01*
X47941Y-22378D01*
X47941Y-24120D01*
X47810Y-24120D01*
X47810Y-23807D01*
X47810Y-23020D01*
X47791Y-22976D01*
X47758Y-22942D01*
X47713Y-22924D01*
X47666Y-22924D01*
X47340Y-22924D01*
X47340Y-22820D01*
X47340Y-22292D01*
X46900Y-22292D01*
X46838Y-22378D01*
X46896Y-22586D01*
X47030Y-22756D01*
X47218Y-22862D01*
X47254Y-22868D01*
X47340Y-22820D01*
X47340Y-22924D01*
X47066Y-22924D01*
X47022Y-22942D01*
X46988Y-22976D01*
X46970Y-23020D01*
X46969Y-23068D01*
X46969Y-23855D01*
X46988Y-23899D01*
X47021Y-23933D01*
X47066Y-23951D01*
X47113Y-23951D01*
X47713Y-23951D01*
X47757Y-23933D01*
X47791Y-23899D01*
X47809Y-23855D01*
X47810Y-23807D01*
X47810Y-24120D01*
X46600Y-24120D01*
X46600Y-23192D01*
X46563Y-23104D01*
X46520Y-23060D01*
X46520Y-19212D01*
X46483Y-19124D01*
X46416Y-19056D01*
X46327Y-19020D01*
X46232Y-19019D01*
X46144Y-19056D01*
X46076Y-19123D01*
X46040Y-19212D01*
X46039Y-19307D01*
X46076Y-19395D01*
X46143Y-19463D01*
X46232Y-19499D01*
X46327Y-19500D01*
X46415Y-19463D01*
X46483Y-19396D01*
X46519Y-19307D01*
X46520Y-19212D01*
X46520Y-23060D01*
X46496Y-23036D01*
X46407Y-23000D01*
X46312Y-22999D01*
X46230Y-23034D01*
X46230Y-22262D01*
X46193Y-22174D01*
X46126Y-22106D01*
X46037Y-22070D01*
X45942Y-22069D01*
X45854Y-22106D01*
X45786Y-22173D01*
X45750Y-22262D01*
X45749Y-22357D01*
X45786Y-22445D01*
X45853Y-22513D01*
X45942Y-22549D01*
X46037Y-22550D01*
X46125Y-22513D01*
X46193Y-22446D01*
X46229Y-22357D01*
X46230Y-22262D01*
X46230Y-23034D01*
X46224Y-23036D01*
X46156Y-23103D01*
X46120Y-23192D01*
X46119Y-23287D01*
X46156Y-23375D01*
X46223Y-23443D01*
X46264Y-23460D01*
X46192Y-23459D01*
X46104Y-23496D01*
X46036Y-23563D01*
X46000Y-23652D01*
X45999Y-23747D01*
X46036Y-23835D01*
X46103Y-23903D01*
X46192Y-23939D01*
X46287Y-23940D01*
X46375Y-23903D01*
X46443Y-23836D01*
X46479Y-23747D01*
X46480Y-23652D01*
X46443Y-23564D01*
X46376Y-23496D01*
X46335Y-23479D01*
X46407Y-23480D01*
X46495Y-23443D01*
X46563Y-23376D01*
X46599Y-23287D01*
X46600Y-23192D01*
X46600Y-24120D01*
X46249Y-24120D01*
X46080Y-24289D01*
X46080Y-25020D01*
X46180Y-25120D01*
X46180Y-25700D01*
X46440Y-25960D01*
X46440Y-26160D01*
X46436Y-26163D01*
X46400Y-26252D01*
X46399Y-26347D01*
X46421Y-26399D01*
X46412Y-26399D01*
X46324Y-26436D01*
X46256Y-26503D01*
X46220Y-26592D01*
X46219Y-26687D01*
X46256Y-26775D01*
X46323Y-26843D01*
X46412Y-26879D01*
X46507Y-26880D01*
X46595Y-26843D01*
X46663Y-26776D01*
X46699Y-26687D01*
X46700Y-26592D01*
X46678Y-26540D01*
X46687Y-26540D01*
X46775Y-26503D01*
X46830Y-26449D01*
X46830Y-26799D01*
X46629Y-27000D01*
X46429Y-27000D01*
X46310Y-27119D01*
X46310Y-27699D01*
X46189Y-27820D01*
X45960Y-27820D01*
X45960Y-25392D01*
X45923Y-25304D01*
X45856Y-25236D01*
X45767Y-25200D01*
X45672Y-25199D01*
X45584Y-25236D01*
X45540Y-25280D01*
X45540Y-23672D01*
X45503Y-23584D01*
X45436Y-23516D01*
X45347Y-23480D01*
X45252Y-23479D01*
X45164Y-23516D01*
X45160Y-23520D01*
X45160Y-16892D01*
X45123Y-16804D01*
X45056Y-16736D01*
X44967Y-16700D01*
X44872Y-16699D01*
X44784Y-16736D01*
X44716Y-16803D01*
X44680Y-16892D01*
X44679Y-16987D01*
X44716Y-17075D01*
X44783Y-17143D01*
X44872Y-17179D01*
X44967Y-17180D01*
X45055Y-17143D01*
X45123Y-17076D01*
X45159Y-16987D01*
X45160Y-16892D01*
X45160Y-23520D01*
X45096Y-23583D01*
X45060Y-23672D01*
X45059Y-23767D01*
X45096Y-23855D01*
X45163Y-23923D01*
X45252Y-23959D01*
X45347Y-23960D01*
X45435Y-23923D01*
X45503Y-23856D01*
X45539Y-23767D01*
X45540Y-23672D01*
X45540Y-25280D01*
X45516Y-25303D01*
X45480Y-25392D01*
X45479Y-25487D01*
X45516Y-25575D01*
X45583Y-25643D01*
X45672Y-25679D01*
X45767Y-25680D01*
X45855Y-25643D01*
X45923Y-25576D01*
X45959Y-25487D01*
X45960Y-25392D01*
X45960Y-27820D01*
X45619Y-27820D01*
X45470Y-27969D01*
X45470Y-29040D01*
X45440Y-29040D01*
X45440Y-26312D01*
X45403Y-26224D01*
X45336Y-26156D01*
X45247Y-26120D01*
X45152Y-26119D01*
X45064Y-26156D01*
X44996Y-26223D01*
X44960Y-26312D01*
X44959Y-26407D01*
X44996Y-26495D01*
X45063Y-26563D01*
X45152Y-26599D01*
X45247Y-26600D01*
X45335Y-26563D01*
X45403Y-26496D01*
X45439Y-26407D01*
X45440Y-26312D01*
X45440Y-29040D01*
X45090Y-29040D01*
X45090Y-28502D01*
X45053Y-28414D01*
X45040Y-28400D01*
X45040Y-26952D01*
X45003Y-26864D01*
X44936Y-26796D01*
X44847Y-26760D01*
X44766Y-26759D01*
X44779Y-26727D01*
X44780Y-26632D01*
X44743Y-26544D01*
X44740Y-26540D01*
X44740Y-24952D01*
X44703Y-24864D01*
X44636Y-24796D01*
X44620Y-24789D01*
X44620Y-17252D01*
X44583Y-17164D01*
X44516Y-17096D01*
X44427Y-17060D01*
X44332Y-17059D01*
X44244Y-17096D01*
X44195Y-17144D01*
X44195Y-15418D01*
X44150Y-15309D01*
X44067Y-15225D01*
X43957Y-15180D01*
X43839Y-15180D01*
X43730Y-15225D01*
X43646Y-15308D01*
X43601Y-15417D01*
X43601Y-15536D01*
X43646Y-15645D01*
X43730Y-15729D01*
X43839Y-15774D01*
X43957Y-15774D01*
X44066Y-15729D01*
X44150Y-15645D01*
X44195Y-15536D01*
X44195Y-15418D01*
X44195Y-17144D01*
X44176Y-17163D01*
X44140Y-17252D01*
X44139Y-17347D01*
X44176Y-17435D01*
X44243Y-17503D01*
X44332Y-17539D01*
X44427Y-17540D01*
X44515Y-17503D01*
X44583Y-17436D01*
X44619Y-17347D01*
X44620Y-17252D01*
X44620Y-24789D01*
X44547Y-24760D01*
X44452Y-24759D01*
X44420Y-24773D01*
X44420Y-23792D01*
X44383Y-23704D01*
X44316Y-23636D01*
X44227Y-23600D01*
X44132Y-23599D01*
X44044Y-23636D01*
X43976Y-23703D01*
X43940Y-23792D01*
X43939Y-23887D01*
X43976Y-23975D01*
X44043Y-24043D01*
X44132Y-24079D01*
X44227Y-24080D01*
X44315Y-24043D01*
X44383Y-23976D01*
X44419Y-23887D01*
X44420Y-23792D01*
X44420Y-24773D01*
X44364Y-24796D01*
X44296Y-24863D01*
X44260Y-24952D01*
X44259Y-25047D01*
X44296Y-25135D01*
X44363Y-25203D01*
X44452Y-25239D01*
X44547Y-25240D01*
X44635Y-25203D01*
X44703Y-25136D01*
X44739Y-25047D01*
X44740Y-24952D01*
X44740Y-26540D01*
X44676Y-26476D01*
X44587Y-26440D01*
X44520Y-26439D01*
X44520Y-26102D01*
X44483Y-26014D01*
X44480Y-26010D01*
X44480Y-25492D01*
X44443Y-25404D01*
X44376Y-25336D01*
X44287Y-25300D01*
X44192Y-25299D01*
X44104Y-25336D01*
X44036Y-25403D01*
X44000Y-25492D01*
X43999Y-25587D01*
X44036Y-25675D01*
X44103Y-25743D01*
X44192Y-25779D01*
X44287Y-25780D01*
X44375Y-25743D01*
X44443Y-25676D01*
X44479Y-25587D01*
X44480Y-25492D01*
X44480Y-26010D01*
X44416Y-25946D01*
X44327Y-25910D01*
X44232Y-25909D01*
X44144Y-25946D01*
X44076Y-26013D01*
X44040Y-26102D01*
X44039Y-26197D01*
X44076Y-26285D01*
X44143Y-26353D01*
X44232Y-26389D01*
X44327Y-26390D01*
X44415Y-26353D01*
X44483Y-26286D01*
X44519Y-26197D01*
X44520Y-26102D01*
X44520Y-26439D01*
X44492Y-26439D01*
X44404Y-26476D01*
X44336Y-26543D01*
X44300Y-26632D01*
X44299Y-26727D01*
X44336Y-26815D01*
X44403Y-26883D01*
X44492Y-26919D01*
X44573Y-26920D01*
X44560Y-26952D01*
X44559Y-27047D01*
X44596Y-27135D01*
X44663Y-27203D01*
X44752Y-27239D01*
X44847Y-27240D01*
X44935Y-27203D01*
X45003Y-27136D01*
X45039Y-27047D01*
X45040Y-26952D01*
X45040Y-28400D01*
X44986Y-28346D01*
X44897Y-28310D01*
X44802Y-28309D01*
X44714Y-28346D01*
X44660Y-28400D01*
X44660Y-28112D01*
X44623Y-28024D01*
X44556Y-27956D01*
X44467Y-27920D01*
X44372Y-27919D01*
X44284Y-27956D01*
X44216Y-28023D01*
X44180Y-28112D01*
X44179Y-28207D01*
X44216Y-28295D01*
X44283Y-28363D01*
X44372Y-28399D01*
X44467Y-28400D01*
X44555Y-28363D01*
X44623Y-28296D01*
X44659Y-28207D01*
X44660Y-28112D01*
X44660Y-28400D01*
X44646Y-28413D01*
X44610Y-28502D01*
X44609Y-28597D01*
X44646Y-28685D01*
X44713Y-28753D01*
X44802Y-28789D01*
X44897Y-28790D01*
X44985Y-28753D01*
X45053Y-28686D01*
X45089Y-28597D01*
X45090Y-28502D01*
X45090Y-29040D01*
X43580Y-29040D01*
X43580Y-25132D01*
X43543Y-25044D01*
X43476Y-24976D01*
X43396Y-24943D01*
X43423Y-24916D01*
X43459Y-24827D01*
X43460Y-24732D01*
X43423Y-24644D01*
X43356Y-24576D01*
X43267Y-24540D01*
X43172Y-24539D01*
X43084Y-24576D01*
X43016Y-24643D01*
X42980Y-24732D01*
X42979Y-24827D01*
X43016Y-24915D01*
X43083Y-24983D01*
X43163Y-25016D01*
X43136Y-25043D01*
X43100Y-25132D01*
X43099Y-25227D01*
X43136Y-25315D01*
X43203Y-25383D01*
X43292Y-25419D01*
X43387Y-25420D01*
X43475Y-25383D01*
X43543Y-25316D01*
X43579Y-25227D01*
X43580Y-25132D01*
X43580Y-29040D01*
X43070Y-29040D01*
X43070Y-27552D01*
X43033Y-27464D01*
X42966Y-27396D01*
X42877Y-27360D01*
X42782Y-27359D01*
X42694Y-27396D01*
X42630Y-27460D01*
X42630Y-26092D01*
X42593Y-26004D01*
X42526Y-25936D01*
X42437Y-25900D01*
X42342Y-25899D01*
X42254Y-25936D01*
X42186Y-26003D01*
X42150Y-26092D01*
X42149Y-26187D01*
X42186Y-26275D01*
X42253Y-26343D01*
X42342Y-26379D01*
X42437Y-26380D01*
X42525Y-26343D01*
X42593Y-26276D01*
X42629Y-26187D01*
X42630Y-26092D01*
X42630Y-27460D01*
X42626Y-27463D01*
X42610Y-27503D01*
X42610Y-26792D01*
X42573Y-26704D01*
X42506Y-26636D01*
X42417Y-26600D01*
X42322Y-26599D01*
X42234Y-26636D01*
X42166Y-26703D01*
X42130Y-26792D01*
X42129Y-26887D01*
X42166Y-26975D01*
X42233Y-27043D01*
X42322Y-27079D01*
X42417Y-27080D01*
X42505Y-27043D01*
X42573Y-26976D01*
X42609Y-26887D01*
X42610Y-26792D01*
X42610Y-27503D01*
X42590Y-27552D01*
X42589Y-27647D01*
X42626Y-27735D01*
X42693Y-27803D01*
X42782Y-27839D01*
X42877Y-27840D01*
X42965Y-27803D01*
X43033Y-27736D01*
X43069Y-27647D01*
X43070Y-27552D01*
X43070Y-29040D01*
X41940Y-29040D01*
X41940Y-26802D01*
X41903Y-26714D01*
X41836Y-26646D01*
X41747Y-26610D01*
X41652Y-26609D01*
X41564Y-26646D01*
X41496Y-26713D01*
X41460Y-26802D01*
X41459Y-26897D01*
X41496Y-26985D01*
X41563Y-27053D01*
X41652Y-27089D01*
X41747Y-27090D01*
X41835Y-27053D01*
X41903Y-26986D01*
X41939Y-26897D01*
X41940Y-26802D01*
X41940Y-29040D01*
X39840Y-29040D01*
X39840Y-26052D01*
X39803Y-25964D01*
X39736Y-25896D01*
X39647Y-25860D01*
X39552Y-25859D01*
X39464Y-25896D01*
X39396Y-25963D01*
X39360Y-26052D01*
X39359Y-26147D01*
X39396Y-26235D01*
X39463Y-26303D01*
X39552Y-26339D01*
X39647Y-26340D01*
X39735Y-26303D01*
X39803Y-26236D01*
X39839Y-26147D01*
X39840Y-26052D01*
X39840Y-29040D01*
X38265Y-29040D01*
X37825Y-28953D01*
X37467Y-28713D01*
X37226Y-28352D01*
X37139Y-27916D01*
X37139Y-25850D01*
X40450Y-25850D01*
X40520Y-25780D01*
X40520Y-24320D01*
X40530Y-24310D01*
X41232Y-24310D01*
X41144Y-24346D01*
X41076Y-24413D01*
X41040Y-24502D01*
X41039Y-24597D01*
X41076Y-24685D01*
X41143Y-24753D01*
X41232Y-24789D01*
X41327Y-24790D01*
X41415Y-24753D01*
X41483Y-24686D01*
X41519Y-24597D01*
X41520Y-24502D01*
X41483Y-24414D01*
X41416Y-24346D01*
X41327Y-24310D01*
X41280Y-24310D01*
X42320Y-24310D01*
X42316Y-24313D01*
X42280Y-24402D01*
X42279Y-24497D01*
X42316Y-24585D01*
X42383Y-24653D01*
X42459Y-24684D01*
X42440Y-24732D01*
X42439Y-24827D01*
X42476Y-24915D01*
X42543Y-24983D01*
X42632Y-25019D01*
X42727Y-25020D01*
X42815Y-24983D01*
X42883Y-24916D01*
X42919Y-24827D01*
X42920Y-24732D01*
X42883Y-24644D01*
X42816Y-24576D01*
X42740Y-24545D01*
X42759Y-24497D01*
X42760Y-24402D01*
X42723Y-24314D01*
X42719Y-24310D01*
X42750Y-24310D01*
X42970Y-24090D01*
X42970Y-23510D01*
X43009Y-23510D01*
X43000Y-23532D01*
X42999Y-23627D01*
X43036Y-23715D01*
X43103Y-23783D01*
X43192Y-23819D01*
X43287Y-23820D01*
X43375Y-23783D01*
X43443Y-23716D01*
X43479Y-23627D01*
X43480Y-23532D01*
X43470Y-23510D01*
X44100Y-23510D01*
X44330Y-23280D01*
X44330Y-21110D01*
X43530Y-21110D01*
X43030Y-20610D01*
X42330Y-20610D01*
X41940Y-20220D01*
X41650Y-20220D01*
X41650Y-19682D01*
X41613Y-19594D01*
X41546Y-19526D01*
X41457Y-19490D01*
X41362Y-19489D01*
X41274Y-19526D01*
X41206Y-19593D01*
X41170Y-19682D01*
X41169Y-19777D01*
X41206Y-19865D01*
X41273Y-19933D01*
X41362Y-19969D01*
X41457Y-19970D01*
X41545Y-19933D01*
X41613Y-19866D01*
X41649Y-19777D01*
X41650Y-19682D01*
X41650Y-20220D01*
X39570Y-20220D01*
X39513Y-20163D01*
X39493Y-20114D01*
X39440Y-20060D01*
X39440Y-19950D01*
X39471Y-19873D01*
X39472Y-19755D01*
X39440Y-19677D01*
X39440Y-17660D01*
X39650Y-17450D01*
X42260Y-17450D01*
X42260Y-14919D01*
X46153Y-14919D01*
X46586Y-15020D01*
X46938Y-15272D01*
X47166Y-15639D01*
X47240Y-16082D01*
X47240Y-21618D01*
X47218Y-21621D01*
X47030Y-21727D01*
X46896Y-21897D01*
X46838Y-22105D01*
X46900Y-22192D01*
X47340Y-22192D01*
X47340Y-22184D01*
X47440Y-22184D01*
X47440Y-22192D01*
X47879Y-22192D01*
X47941Y-22105D01*
X47883Y-21897D01*
X47790Y-21779D01*
X48185Y-21779D01*
X48093Y-21841D01*
X48001Y-21977D01*
X47970Y-22138D01*
X47970Y-22345D01*
X48001Y-22506D01*
X48093Y-22642D01*
X48229Y-22733D01*
X48390Y-22765D01*
X48550Y-22733D01*
X48686Y-22642D01*
X48778Y-22506D01*
X48810Y-22345D01*
X48810Y-22138D01*
X48778Y-21977D01*
X48686Y-21841D01*
X48594Y-21779D01*
X49185Y-21779D01*
X49093Y-21841D01*
X49001Y-21977D01*
X48970Y-22138D01*
X48970Y-22345D01*
X49001Y-22506D01*
X49093Y-22642D01*
X49229Y-22733D01*
X49390Y-22765D01*
X49550Y-22733D01*
X49686Y-22642D01*
X49778Y-22506D01*
X49810Y-22345D01*
X49810Y-22138D01*
X49778Y-21977D01*
X49686Y-21841D01*
X49594Y-21779D01*
X49920Y-21779D01*
X49920Y-24120D01*
X49920Y-24120D01*
G37*
G54D17*
X49920Y-24120D02*
X49810Y-24120D01*
X49810Y-23541D01*
X49810Y-23334D01*
X49778Y-23173D01*
X49686Y-23037D01*
X49550Y-22946D01*
X49390Y-22914D01*
X49229Y-22946D01*
X49093Y-23037D01*
X49001Y-23173D01*
X48970Y-23334D01*
X48970Y-23541D01*
X49001Y-23702D01*
X49093Y-23838D01*
X49229Y-23929D01*
X49390Y-23961D01*
X49550Y-23929D01*
X49686Y-23838D01*
X49778Y-23702D01*
X49810Y-23541D01*
X49810Y-24120D01*
X48810Y-24120D01*
X48810Y-23541D01*
X48810Y-23334D01*
X48778Y-23173D01*
X48686Y-23037D01*
X48550Y-22946D01*
X48390Y-22914D01*
X48229Y-22946D01*
X48093Y-23037D01*
X48001Y-23173D01*
X47970Y-23334D01*
X47970Y-23541D01*
X48001Y-23702D01*
X48093Y-23838D01*
X48229Y-23929D01*
X48390Y-23961D01*
X48550Y-23929D01*
X48686Y-23838D01*
X48778Y-23702D01*
X48810Y-23541D01*
X48810Y-24120D01*
X47941Y-24120D01*
X47941Y-22378D01*
X47879Y-22292D01*
X47440Y-22292D01*
X47440Y-22820D01*
X47525Y-22868D01*
X47561Y-22862D01*
X47749Y-22756D01*
X47883Y-22586D01*
X47941Y-22378D01*
X47941Y-24120D01*
X47810Y-24120D01*
X47810Y-23807D01*
X47810Y-23020D01*
X47791Y-22976D01*
X47758Y-22942D01*
X47713Y-22924D01*
X47666Y-22924D01*
X47340Y-22924D01*
X47340Y-22820D01*
X47340Y-22292D01*
X46900Y-22292D01*
X46838Y-22378D01*
X46896Y-22586D01*
X47030Y-22756D01*
X47218Y-22862D01*
X47254Y-22868D01*
X47340Y-22820D01*
X47340Y-22924D01*
X47066Y-22924D01*
X47022Y-22942D01*
X46988Y-22976D01*
X46970Y-23020D01*
X46969Y-23068D01*
X46969Y-23855D01*
X46988Y-23899D01*
X47021Y-23933D01*
X47066Y-23951D01*
X47113Y-23951D01*
X47713Y-23951D01*
X47757Y-23933D01*
X47791Y-23899D01*
X47809Y-23855D01*
X47810Y-23807D01*
X47810Y-24120D01*
X46600Y-24120D01*
X46600Y-23192D01*
X46563Y-23104D01*
X46520Y-23060D01*
X46520Y-19212D01*
X46483Y-19124D01*
X46416Y-19056D01*
X46327Y-19020D01*
X46232Y-19019D01*
X46144Y-19056D01*
X46076Y-19123D01*
X46040Y-19212D01*
X46039Y-19307D01*
X46076Y-19395D01*
X46143Y-19463D01*
X46232Y-19499D01*
X46327Y-19500D01*
X46415Y-19463D01*
X46483Y-19396D01*
X46519Y-19307D01*
X46520Y-19212D01*
X46520Y-23060D01*
X46496Y-23036D01*
X46407Y-23000D01*
X46312Y-22999D01*
X46230Y-23034D01*
X46230Y-22262D01*
X46193Y-22174D01*
X46126Y-22106D01*
X46037Y-22070D01*
X45942Y-22069D01*
X45854Y-22106D01*
X45786Y-22173D01*
X45750Y-22262D01*
X45749Y-22357D01*
X45786Y-22445D01*
X45853Y-22513D01*
X45942Y-22549D01*
X46037Y-22550D01*
X46125Y-22513D01*
X46193Y-22446D01*
X46229Y-22357D01*
X46230Y-22262D01*
X46230Y-23034D01*
X46224Y-23036D01*
X46156Y-23103D01*
X46120Y-23192D01*
X46119Y-23287D01*
X46156Y-23375D01*
X46223Y-23443D01*
X46264Y-23460D01*
X46192Y-23459D01*
X46104Y-23496D01*
X46036Y-23563D01*
X46000Y-23652D01*
X45999Y-23747D01*
X46036Y-23835D01*
X46103Y-23903D01*
X46192Y-23939D01*
X46287Y-23940D01*
X46375Y-23903D01*
X46443Y-23836D01*
X46479Y-23747D01*
X46480Y-23652D01*
X46443Y-23564D01*
X46376Y-23496D01*
X46335Y-23479D01*
X46407Y-23480D01*
X46495Y-23443D01*
X46563Y-23376D01*
X46599Y-23287D01*
X46600Y-23192D01*
X46600Y-24120D01*
X46249Y-24120D01*
X46080Y-24289D01*
X46080Y-25020D01*
X46180Y-25120D01*
X46180Y-25700D01*
X46440Y-25960D01*
X46440Y-26160D01*
X46436Y-26163D01*
X46400Y-26252D01*
X46399Y-26347D01*
X46421Y-26399D01*
X46412Y-26399D01*
X46324Y-26436D01*
X46256Y-26503D01*
X46220Y-26592D01*
X46219Y-26687D01*
X46256Y-26775D01*
X46323Y-26843D01*
X46412Y-26879D01*
X46507Y-26880D01*
X46595Y-26843D01*
X46663Y-26776D01*
X46699Y-26687D01*
X46700Y-26592D01*
X46678Y-26540D01*
X46687Y-26540D01*
X46775Y-26503D01*
X46830Y-26449D01*
X46830Y-26799D01*
X46629Y-27000D01*
X46429Y-27000D01*
X46310Y-27119D01*
X46310Y-27699D01*
X46189Y-27820D01*
X45960Y-27820D01*
X45960Y-25392D01*
X45923Y-25304D01*
X45856Y-25236D01*
X45767Y-25200D01*
X45672Y-25199D01*
X45584Y-25236D01*
X45540Y-25280D01*
X45540Y-23672D01*
X45503Y-23584D01*
X45436Y-23516D01*
X45347Y-23480D01*
X45252Y-23479D01*
X45164Y-23516D01*
X45160Y-23520D01*
X45160Y-16892D01*
X45123Y-16804D01*
X45056Y-16736D01*
X44967Y-16700D01*
X44872Y-16699D01*
X44784Y-16736D01*
X44716Y-16803D01*
X44680Y-16892D01*
X44679Y-16987D01*
X44716Y-17075D01*
X44783Y-17143D01*
X44872Y-17179D01*
X44967Y-17180D01*
X45055Y-17143D01*
X45123Y-17076D01*
X45159Y-16987D01*
X45160Y-16892D01*
X45160Y-23520D01*
X45096Y-23583D01*
X45060Y-23672D01*
X45059Y-23767D01*
X45096Y-23855D01*
X45163Y-23923D01*
X45252Y-23959D01*
X45347Y-23960D01*
X45435Y-23923D01*
X45503Y-23856D01*
X45539Y-23767D01*
X45540Y-23672D01*
X45540Y-25280D01*
X45516Y-25303D01*
X45480Y-25392D01*
X45479Y-25487D01*
X45516Y-25575D01*
X45583Y-25643D01*
X45672Y-25679D01*
X45767Y-25680D01*
X45855Y-25643D01*
X45923Y-25576D01*
X45959Y-25487D01*
X45960Y-25392D01*
X45960Y-27820D01*
X45619Y-27820D01*
X45470Y-27969D01*
X45470Y-29040D01*
X45440Y-29040D01*
X45440Y-26312D01*
X45403Y-26224D01*
X45336Y-26156D01*
X45247Y-26120D01*
X45152Y-26119D01*
X45064Y-26156D01*
X44996Y-26223D01*
X44960Y-26312D01*
X44959Y-26407D01*
X44996Y-26495D01*
X45063Y-26563D01*
X45152Y-26599D01*
X45247Y-26600D01*
X45335Y-26563D01*
X45403Y-26496D01*
X45439Y-26407D01*
X45440Y-26312D01*
X45440Y-29040D01*
X45090Y-29040D01*
X45090Y-28502D01*
X45053Y-28414D01*
X45040Y-28400D01*
X45040Y-26952D01*
X45003Y-26864D01*
X44936Y-26796D01*
X44847Y-26760D01*
X44766Y-26759D01*
X44779Y-26727D01*
X44780Y-26632D01*
X44743Y-26544D01*
X44740Y-26540D01*
X44740Y-24952D01*
X44703Y-24864D01*
X44636Y-24796D01*
X44620Y-24789D01*
X44620Y-17252D01*
X44583Y-17164D01*
X44516Y-17096D01*
X44427Y-17060D01*
X44332Y-17059D01*
X44244Y-17096D01*
X44195Y-17144D01*
X44195Y-15418D01*
X44150Y-15309D01*
X44067Y-15225D01*
X43957Y-15180D01*
X43839Y-15180D01*
X43730Y-15225D01*
X43646Y-15308D01*
X43601Y-15417D01*
X43601Y-15536D01*
X43646Y-15645D01*
X43730Y-15729D01*
X43839Y-15774D01*
X43957Y-15774D01*
X44066Y-15729D01*
X44150Y-15645D01*
X44195Y-15536D01*
X44195Y-15418D01*
X44195Y-17144D01*
X44176Y-17163D01*
X44140Y-17252D01*
X44139Y-17347D01*
X44176Y-17435D01*
X44243Y-17503D01*
X44332Y-17539D01*
X44427Y-17540D01*
X44515Y-17503D01*
X44583Y-17436D01*
X44619Y-17347D01*
X44620Y-17252D01*
X44620Y-24789D01*
X44547Y-24760D01*
X44452Y-24759D01*
X44420Y-24773D01*
X44420Y-23792D01*
X44383Y-23704D01*
X44316Y-23636D01*
X44227Y-23600D01*
X44132Y-23599D01*
X44044Y-23636D01*
X43976Y-23703D01*
X43940Y-23792D01*
X43939Y-23887D01*
X43976Y-23975D01*
X44043Y-24043D01*
X44132Y-24079D01*
X44227Y-24080D01*
X44315Y-24043D01*
X44383Y-23976D01*
X44419Y-23887D01*
X44420Y-23792D01*
X44420Y-24773D01*
X44364Y-24796D01*
X44296Y-24863D01*
X44260Y-24952D01*
X44259Y-25047D01*
X44296Y-25135D01*
X44363Y-25203D01*
X44452Y-25239D01*
X44547Y-25240D01*
X44635Y-25203D01*
X44703Y-25136D01*
X44739Y-25047D01*
X44740Y-24952D01*
X44740Y-26540D01*
X44676Y-26476D01*
X44587Y-26440D01*
X44520Y-26439D01*
X44520Y-26102D01*
X44483Y-26014D01*
X44480Y-26010D01*
X44480Y-25492D01*
X44443Y-25404D01*
X44376Y-25336D01*
X44287Y-25300D01*
X44192Y-25299D01*
X44104Y-25336D01*
X44036Y-25403D01*
X44000Y-25492D01*
X43999Y-25587D01*
X44036Y-25675D01*
X44103Y-25743D01*
X44192Y-25779D01*
X44287Y-25780D01*
X44375Y-25743D01*
X44443Y-25676D01*
X44479Y-25587D01*
X44480Y-25492D01*
X44480Y-26010D01*
X44416Y-25946D01*
X44327Y-25910D01*
X44232Y-25909D01*
X44144Y-25946D01*
X44076Y-26013D01*
X44040Y-26102D01*
X44039Y-26197D01*
X44076Y-26285D01*
X44143Y-26353D01*
X44232Y-26389D01*
X44327Y-26390D01*
X44415Y-26353D01*
X44483Y-26286D01*
X44519Y-26197D01*
X44520Y-26102D01*
X44520Y-26439D01*
X44492Y-26439D01*
X44404Y-26476D01*
X44336Y-26543D01*
X44300Y-26632D01*
X44299Y-26727D01*
X44336Y-26815D01*
X44403Y-26883D01*
X44492Y-26919D01*
X44573Y-26920D01*
X44560Y-26952D01*
X44559Y-27047D01*
X44596Y-27135D01*
X44663Y-27203D01*
X44752Y-27239D01*
X44847Y-27240D01*
X44935Y-27203D01*
X45003Y-27136D01*
X45039Y-27047D01*
X45040Y-26952D01*
X45040Y-28400D01*
X44986Y-28346D01*
X44897Y-28310D01*
X44802Y-28309D01*
X44714Y-28346D01*
X44660Y-28400D01*
X44660Y-28112D01*
X44623Y-28024D01*
X44556Y-27956D01*
X44467Y-27920D01*
X44372Y-27919D01*
X44284Y-27956D01*
X44216Y-28023D01*
X44180Y-28112D01*
X44179Y-28207D01*
X44216Y-28295D01*
X44283Y-28363D01*
X44372Y-28399D01*
X44467Y-28400D01*
X44555Y-28363D01*
X44623Y-28296D01*
X44659Y-28207D01*
X44660Y-28112D01*
X44660Y-28400D01*
X44646Y-28413D01*
X44610Y-28502D01*
X44609Y-28597D01*
X44646Y-28685D01*
X44713Y-28753D01*
X44802Y-28789D01*
X44897Y-28790D01*
X44985Y-28753D01*
X45053Y-28686D01*
X45089Y-28597D01*
X45090Y-28502D01*
X45090Y-29040D01*
X43580Y-29040D01*
X43580Y-25132D01*
X43543Y-25044D01*
X43476Y-24976D01*
X43396Y-24943D01*
X43423Y-24916D01*
X43459Y-24827D01*
X43460Y-24732D01*
X43423Y-24644D01*
X43356Y-24576D01*
X43267Y-24540D01*
X43172Y-24539D01*
X43084Y-24576D01*
X43016Y-24643D01*
X42980Y-24732D01*
X42979Y-24827D01*
X43016Y-24915D01*
X43083Y-24983D01*
X43163Y-25016D01*
X43136Y-25043D01*
X43100Y-25132D01*
X43099Y-25227D01*
X43136Y-25315D01*
X43203Y-25383D01*
X43292Y-25419D01*
X43387Y-25420D01*
X43475Y-25383D01*
X43543Y-25316D01*
X43579Y-25227D01*
X43580Y-25132D01*
X43580Y-29040D01*
X43070Y-29040D01*
X43070Y-27552D01*
X43033Y-27464D01*
X42966Y-27396D01*
X42877Y-27360D01*
X42782Y-27359D01*
X42694Y-27396D01*
X42630Y-27460D01*
X42630Y-26092D01*
X42593Y-26004D01*
X42526Y-25936D01*
X42437Y-25900D01*
X42342Y-25899D01*
X42254Y-25936D01*
X42186Y-26003D01*
X42150Y-26092D01*
X42149Y-26187D01*
X42186Y-26275D01*
X42253Y-26343D01*
X42342Y-26379D01*
X42437Y-26380D01*
X42525Y-26343D01*
X42593Y-26276D01*
X42629Y-26187D01*
X42630Y-26092D01*
X42630Y-27460D01*
X42626Y-27463D01*
X42610Y-27503D01*
X42610Y-26792D01*
X42573Y-26704D01*
X42506Y-26636D01*
X42417Y-26600D01*
X42322Y-26599D01*
X42234Y-26636D01*
X42166Y-26703D01*
X42130Y-26792D01*
X42129Y-26887D01*
X42166Y-26975D01*
X42233Y-27043D01*
X42322Y-27079D01*
X42417Y-27080D01*
X42505Y-27043D01*
X42573Y-26976D01*
X42609Y-26887D01*
X42610Y-26792D01*
X42610Y-27503D01*
X42590Y-27552D01*
X42589Y-27647D01*
X42626Y-27735D01*
X42693Y-27803D01*
X42782Y-27839D01*
X42877Y-27840D01*
X42965Y-27803D01*
X43033Y-27736D01*
X43069Y-27647D01*
X43070Y-27552D01*
X43070Y-29040D01*
X41940Y-29040D01*
X41940Y-26802D01*
X41903Y-26714D01*
X41836Y-26646D01*
X41747Y-26610D01*
X41652Y-26609D01*
X41564Y-26646D01*
X41496Y-26713D01*
X41460Y-26802D01*
X41459Y-26897D01*
X41496Y-26985D01*
X41563Y-27053D01*
X41652Y-27089D01*
X41747Y-27090D01*
X41835Y-27053D01*
X41903Y-26986D01*
X41939Y-26897D01*
X41940Y-26802D01*
X41940Y-29040D01*
X39840Y-29040D01*
X39840Y-26052D01*
X39803Y-25964D01*
X39736Y-25896D01*
X39647Y-25860D01*
X39552Y-25859D01*
X39464Y-25896D01*
X39396Y-25963D01*
X39360Y-26052D01*
X39359Y-26147D01*
X39396Y-26235D01*
X39463Y-26303D01*
X39552Y-26339D01*
X39647Y-26340D01*
X39735Y-26303D01*
X39803Y-26236D01*
X39839Y-26147D01*
X39840Y-26052D01*
X39840Y-29040D01*
X38265Y-29040D01*
X37825Y-28953D01*
X37467Y-28713D01*
X37226Y-28352D01*
X37139Y-27916D01*
X37139Y-25850D01*
X40450Y-25850D01*
X40520Y-25780D01*
X40520Y-24320D01*
X40530Y-24310D01*
X41232Y-24310D01*
X41144Y-24346D01*
X41076Y-24413D01*
X41040Y-24502D01*
X41039Y-24597D01*
X41076Y-24685D01*
X41143Y-24753D01*
X41232Y-24789D01*
X41327Y-24790D01*
X41415Y-24753D01*
X41483Y-24686D01*
X41519Y-24597D01*
X41520Y-24502D01*
X41483Y-24414D01*
X41416Y-24346D01*
X41327Y-24310D01*
X41280Y-24310D01*
X42320Y-24310D01*
X42316Y-24313D01*
X42280Y-24402D01*
X42279Y-24497D01*
X42316Y-24585D01*
X42383Y-24653D01*
X42459Y-24684D01*
X42440Y-24732D01*
X42439Y-24827D01*
X42476Y-24915D01*
X42543Y-24983D01*
X42632Y-25019D01*
X42727Y-25020D01*
X42815Y-24983D01*
X42883Y-24916D01*
X42919Y-24827D01*
X42920Y-24732D01*
X42883Y-24644D01*
X42816Y-24576D01*
X42740Y-24545D01*
X42759Y-24497D01*
X42760Y-24402D01*
X42723Y-24314D01*
X42719Y-24310D01*
X42750Y-24310D01*
X42970Y-24090D01*
X42970Y-23510D01*
X43009Y-23510D01*
X43000Y-23532D01*
X42999Y-23627D01*
X43036Y-23715D01*
X43103Y-23783D01*
X43192Y-23819D01*
X43287Y-23820D01*
X43375Y-23783D01*
X43443Y-23716D01*
X43479Y-23627D01*
X43480Y-23532D01*
X43470Y-23510D01*
X44100Y-23510D01*
X44330Y-23280D01*
X44330Y-21110D01*
X43530Y-21110D01*
X43030Y-20610D01*
X42330Y-20610D01*
X41940Y-20220D01*
X41650Y-20220D01*
X41650Y-19682D01*
X41613Y-19594D01*
X41546Y-19526D01*
X41457Y-19490D01*
X41362Y-19489D01*
X41274Y-19526D01*
X41206Y-19593D01*
X41170Y-19682D01*
X41169Y-19777D01*
X41206Y-19865D01*
X41273Y-19933D01*
X41362Y-19969D01*
X41457Y-19970D01*
X41545Y-19933D01*
X41613Y-19866D01*
X41649Y-19777D01*
X41650Y-19682D01*
X41650Y-20220D01*
X39570Y-20220D01*
X39513Y-20163D01*
X39493Y-20114D01*
X39440Y-20060D01*
X39440Y-19950D01*
X39471Y-19873D01*
X39472Y-19755D01*
X39440Y-19677D01*
X39440Y-17660D01*
X39650Y-17450D01*
X42260Y-17450D01*
X42260Y-14919D01*
X46153Y-14919D01*
X46586Y-15020D01*
X46938Y-15272D01*
X47166Y-15639D01*
X47240Y-16082D01*
X47240Y-21618D01*
X47218Y-21621D01*
X47030Y-21727D01*
X46896Y-21897D01*
X46838Y-22105D01*
X46900Y-22192D01*
X47340Y-22192D01*
X47340Y-22184D01*
X47440Y-22184D01*
X47440Y-22192D01*
X47879Y-22192D01*
X47941Y-22105D01*
X47883Y-21897D01*
X47790Y-21779D01*
X48185Y-21779D01*
X48093Y-21841D01*
X48001Y-21977D01*
X47970Y-22138D01*
X47970Y-22345D01*
X48001Y-22506D01*
X48093Y-22642D01*
X48229Y-22733D01*
X48390Y-22765D01*
X48550Y-22733D01*
X48686Y-22642D01*
X48778Y-22506D01*
X48810Y-22345D01*
X48810Y-22138D01*
X48778Y-21977D01*
X48686Y-21841D01*
X48594Y-21779D01*
X49185Y-21779D01*
X49093Y-21841D01*
X49001Y-21977D01*
X48970Y-22138D01*
X48970Y-22345D01*
X49001Y-22506D01*
X49093Y-22642D01*
X49229Y-22733D01*
X49390Y-22765D01*
X49550Y-22733D01*
X49686Y-22642D01*
X49778Y-22506D01*
X49810Y-22345D01*
X49810Y-22138D01*
X49778Y-21977D01*
X49686Y-21841D01*
X49594Y-21779D01*
X49920Y-21779D01*
X49920Y-24120D01*
G54D10*
G36*
X49920Y-27914D02*
X49833Y-28354D01*
X49593Y-28712D01*
X49232Y-28953D01*
X49020Y-28996D01*
X49020Y-25142D01*
X48983Y-25054D01*
X48916Y-24986D01*
X48827Y-24950D01*
X48732Y-24949D01*
X48644Y-24986D01*
X48576Y-25053D01*
X48540Y-25142D01*
X48539Y-25237D01*
X48576Y-25325D01*
X48643Y-25393D01*
X48732Y-25429D01*
X48827Y-25430D01*
X48915Y-25393D01*
X48983Y-25326D01*
X49019Y-25237D01*
X49020Y-25142D01*
X49020Y-28996D01*
X48900Y-29019D01*
X48900Y-26732D01*
X48863Y-26644D01*
X48796Y-26576D01*
X48707Y-26540D01*
X48612Y-26539D01*
X48524Y-26576D01*
X48520Y-26580D01*
X48520Y-26132D01*
X48483Y-26044D01*
X48416Y-25976D01*
X48327Y-25940D01*
X48232Y-25939D01*
X48144Y-25976D01*
X48076Y-26043D01*
X48040Y-26132D01*
X48039Y-26227D01*
X48076Y-26315D01*
X48143Y-26383D01*
X48232Y-26419D01*
X48327Y-26420D01*
X48415Y-26383D01*
X48483Y-26316D01*
X48519Y-26227D01*
X48520Y-26132D01*
X48520Y-26580D01*
X48456Y-26643D01*
X48420Y-26732D01*
X48419Y-26827D01*
X48456Y-26915D01*
X48523Y-26983D01*
X48612Y-27019D01*
X48707Y-27020D01*
X48795Y-26983D01*
X48863Y-26916D01*
X48899Y-26827D01*
X48900Y-26732D01*
X48900Y-29019D01*
X48796Y-29040D01*
X48230Y-29040D01*
X48230Y-28592D01*
X48193Y-28504D01*
X48126Y-28436D01*
X48037Y-28400D01*
X47942Y-28399D01*
X47854Y-28436D01*
X47786Y-28503D01*
X47750Y-28592D01*
X47749Y-28687D01*
X47786Y-28775D01*
X47853Y-28843D01*
X47942Y-28879D01*
X48037Y-28880D01*
X48125Y-28843D01*
X48193Y-28776D01*
X48229Y-28687D01*
X48230Y-28592D01*
X48230Y-29040D01*
X46459Y-29040D01*
X46475Y-29033D01*
X46543Y-28966D01*
X46579Y-28877D01*
X46580Y-28782D01*
X46543Y-28694D01*
X46476Y-28626D01*
X46387Y-28590D01*
X46292Y-28589D01*
X46204Y-28626D01*
X46136Y-28693D01*
X46100Y-28782D01*
X46099Y-28877D01*
X46136Y-28965D01*
X46203Y-29033D01*
X46220Y-29040D01*
X45760Y-29040D01*
X45760Y-28090D01*
X45850Y-28000D01*
X46260Y-28000D01*
X46500Y-27760D01*
X46500Y-27220D01*
X46530Y-27190D01*
X46700Y-27190D01*
X47020Y-26870D01*
X47020Y-26329D01*
X46730Y-26040D01*
X46630Y-26040D01*
X46630Y-25879D01*
X46430Y-25679D01*
X46430Y-25029D01*
X46320Y-24919D01*
X46320Y-24460D01*
X46420Y-24360D01*
X46610Y-24360D01*
X46606Y-24363D01*
X46570Y-24452D01*
X46569Y-24547D01*
X46606Y-24635D01*
X46673Y-24703D01*
X46762Y-24739D01*
X46857Y-24740D01*
X46945Y-24703D01*
X47013Y-24636D01*
X47049Y-24547D01*
X47050Y-24452D01*
X47013Y-24364D01*
X47009Y-24360D01*
X49920Y-24360D01*
X49920Y-27914D01*
X49920Y-27914D01*
G37*
G54D17*
X49920Y-27914D02*
X49833Y-28354D01*
X49593Y-28712D01*
X49232Y-28953D01*
X49020Y-28996D01*
X49020Y-25142D01*
X48983Y-25054D01*
X48916Y-24986D01*
X48827Y-24950D01*
X48732Y-24949D01*
X48644Y-24986D01*
X48576Y-25053D01*
X48540Y-25142D01*
X48539Y-25237D01*
X48576Y-25325D01*
X48643Y-25393D01*
X48732Y-25429D01*
X48827Y-25430D01*
X48915Y-25393D01*
X48983Y-25326D01*
X49019Y-25237D01*
X49020Y-25142D01*
X49020Y-28996D01*
X48900Y-29019D01*
X48900Y-26732D01*
X48863Y-26644D01*
X48796Y-26576D01*
X48707Y-26540D01*
X48612Y-26539D01*
X48524Y-26576D01*
X48520Y-26580D01*
X48520Y-26132D01*
X48483Y-26044D01*
X48416Y-25976D01*
X48327Y-25940D01*
X48232Y-25939D01*
X48144Y-25976D01*
X48076Y-26043D01*
X48040Y-26132D01*
X48039Y-26227D01*
X48076Y-26315D01*
X48143Y-26383D01*
X48232Y-26419D01*
X48327Y-26420D01*
X48415Y-26383D01*
X48483Y-26316D01*
X48519Y-26227D01*
X48520Y-26132D01*
X48520Y-26580D01*
X48456Y-26643D01*
X48420Y-26732D01*
X48419Y-26827D01*
X48456Y-26915D01*
X48523Y-26983D01*
X48612Y-27019D01*
X48707Y-27020D01*
X48795Y-26983D01*
X48863Y-26916D01*
X48899Y-26827D01*
X48900Y-26732D01*
X48900Y-29019D01*
X48796Y-29040D01*
X48230Y-29040D01*
X48230Y-28592D01*
X48193Y-28504D01*
X48126Y-28436D01*
X48037Y-28400D01*
X47942Y-28399D01*
X47854Y-28436D01*
X47786Y-28503D01*
X47750Y-28592D01*
X47749Y-28687D01*
X47786Y-28775D01*
X47853Y-28843D01*
X47942Y-28879D01*
X48037Y-28880D01*
X48125Y-28843D01*
X48193Y-28776D01*
X48229Y-28687D01*
X48230Y-28592D01*
X48230Y-29040D01*
X46459Y-29040D01*
X46475Y-29033D01*
X46543Y-28966D01*
X46579Y-28877D01*
X46580Y-28782D01*
X46543Y-28694D01*
X46476Y-28626D01*
X46387Y-28590D01*
X46292Y-28589D01*
X46204Y-28626D01*
X46136Y-28693D01*
X46100Y-28782D01*
X46099Y-28877D01*
X46136Y-28965D01*
X46203Y-29033D01*
X46220Y-29040D01*
X45760Y-29040D01*
X45760Y-28090D01*
X45850Y-28000D01*
X46260Y-28000D01*
X46500Y-27760D01*
X46500Y-27220D01*
X46530Y-27190D01*
X46700Y-27190D01*
X47020Y-26870D01*
X47020Y-26329D01*
X46730Y-26040D01*
X46630Y-26040D01*
X46630Y-25879D01*
X46430Y-25679D01*
X46430Y-25029D01*
X46320Y-24919D01*
X46320Y-24460D01*
X46420Y-24360D01*
X46610Y-24360D01*
X46606Y-24363D01*
X46570Y-24452D01*
X46569Y-24547D01*
X46606Y-24635D01*
X46673Y-24703D01*
X46762Y-24739D01*
X46857Y-24740D01*
X46945Y-24703D01*
X47013Y-24636D01*
X47049Y-24547D01*
X47050Y-24452D01*
X47013Y-24364D01*
X47009Y-24360D01*
X49920Y-24360D01*
X49920Y-27914D01*
M02*
