G04 (created by PCBNEW (2013-05-31 BZR 4019)-stable) date 7/3/2014 2:31:18 PM*
%MOIN*%
G04 Gerber Fmt 3.4, Leading zero omitted, Abs format*
%FSLAX34Y34*%
G01*
G70*
G90*
G04 APERTURE LIST*
%ADD10C,0.00590551*%
%ADD11R,0.0314961X0.0551181*%
%ADD12R,0.0551181X0.0314961*%
%ADD13C,0.0354*%
%ADD14C,0.18*%
%ADD15R,0.0484173X0.023811*%
%ADD16R,0.023811X0.0434961*%
%ADD17C,0.0354331*%
%ADD18R,0.0275X0.0315*%
%ADD19R,0.04X0.025*%
%ADD20R,0.0315X0.0275*%
%ADD21R,0.06X0.0787*%
%ADD22O,0.06X0.0787*%
%ADD23R,0.120079X0.05*%
%ADD24R,0.0787402X0.015748*%
%ADD25R,0.0388X0.0164*%
%ADD26R,0.0164X0.0388*%
G04 APERTURE END LIST*
G54D10*
G54D11*
X46279Y-16362D03*
X45807Y-16362D03*
X45334Y-16362D03*
X44862Y-16362D03*
X44390Y-16362D03*
X43917Y-16362D03*
X43445Y-16362D03*
X42972Y-16362D03*
X42500Y-16362D03*
X42027Y-16362D03*
X41555Y-16362D03*
X41082Y-16362D03*
X41082Y-21637D03*
X41555Y-21637D03*
X42027Y-21637D03*
X42500Y-21637D03*
X42972Y-21637D03*
X43445Y-21637D03*
X43917Y-21637D03*
X44390Y-21637D03*
X44862Y-21637D03*
X45334Y-21637D03*
X45807Y-21637D03*
X46279Y-21637D03*
G54D12*
X39980Y-20614D03*
X39980Y-20220D03*
X39980Y-19708D03*
X39980Y-19236D03*
X39980Y-18763D03*
X39980Y-18291D03*
X39980Y-17779D03*
X39980Y-17385D03*
G54D13*
X39175Y-21546D03*
X39175Y-19814D03*
G54D14*
X38520Y-16300D03*
G54D15*
X45726Y-24033D03*
X45726Y-23836D03*
X45726Y-23246D03*
X45726Y-23443D03*
X45726Y-23640D03*
X44713Y-23640D03*
X44713Y-23443D03*
X44713Y-23246D03*
X44713Y-23836D03*
X44713Y-24033D03*
G54D16*
X45220Y-23138D03*
X45220Y-24141D03*
X45023Y-23138D03*
X45416Y-23138D03*
X45023Y-24141D03*
X45416Y-24141D03*
G54D17*
X41221Y-15477D03*
X43898Y-15477D03*
G54D18*
X42100Y-24294D03*
X42100Y-24726D03*
G54D19*
X43880Y-27069D03*
X43880Y-27571D03*
G54D20*
X43956Y-25540D03*
X43524Y-25540D03*
G54D18*
X43940Y-26616D03*
X43940Y-26184D03*
X40030Y-26076D03*
X40030Y-25644D03*
G54D20*
X45384Y-22660D03*
X45816Y-22660D03*
X44504Y-22660D03*
X44936Y-22660D03*
G54D18*
X43560Y-26616D03*
X43560Y-26184D03*
G54D21*
X47390Y-23438D03*
G54D22*
X47390Y-22242D03*
X48390Y-23438D03*
X48390Y-22242D03*
X49390Y-23438D03*
X49390Y-22242D03*
G54D23*
X49120Y-26260D03*
X47919Y-27260D03*
X47919Y-25260D03*
G54D24*
X39840Y-27160D03*
X39840Y-26687D03*
X39840Y-27632D03*
G54D25*
X41016Y-25798D03*
X41016Y-25995D03*
X41016Y-26192D03*
X41016Y-26388D03*
X41016Y-26978D03*
G54D26*
X41302Y-27264D03*
X41498Y-27264D03*
X41695Y-27264D03*
X41892Y-27264D03*
X42088Y-27264D03*
X42285Y-27264D03*
G54D25*
X41016Y-25602D03*
G54D26*
X42482Y-27264D03*
X42678Y-27264D03*
G54D25*
X42964Y-26978D03*
X42964Y-26782D03*
X42964Y-26585D03*
X42964Y-26388D03*
X42964Y-26192D03*
X42964Y-25995D03*
X42964Y-25798D03*
X42964Y-25602D03*
G54D26*
X42678Y-25316D03*
X42482Y-25316D03*
X42285Y-25316D03*
X42088Y-25316D03*
G54D25*
X41016Y-26585D03*
X41016Y-26782D03*
G54D26*
X41892Y-25316D03*
X41695Y-25316D03*
X41498Y-25316D03*
X41302Y-25316D03*
M02*
