G04 (created by PCBNEW (2013-05-31 BZR 4019)-stable) date 7/3/2014 2:31:18 PM*
%MOIN*%
G04 Gerber Fmt 3.4, Leading zero omitted, Abs format*
%FSLAX34Y34*%
G01*
G70*
G90*
G04 APERTURE LIST*
%ADD10C,0.00590551*%
%ADD11C,0.015*%
%ADD12C,0.01*%
%ADD13C,0.005*%
%ADD14C,0.0059*%
%ADD15C,0.0079*%
%ADD16C,0.008*%
%ADD17C,0.012*%
%ADD18C,0.0039*%
%ADD19C,0.0047*%
%ADD20C,0.0016*%
%ADD21C,0.0012*%
%ADD22C,0.0024*%
%ADD23C,0.0031*%
G04 APERTURE END LIST*
G54D10*
G54D11*
X37423Y-22196D02*
X37423Y-19164D01*
X37029Y-22196D02*
X37029Y-19164D01*
X37029Y-19164D02*
X40651Y-19164D01*
X40651Y-19164D02*
X40651Y-22196D01*
X40651Y-22196D02*
X37029Y-22196D01*
G54D12*
X46470Y-18160D02*
G75*
G03X46470Y-18160I-50J0D01*
G74*
G01*
X46823Y-18160D02*
G75*
G03X46823Y-18160I-403J0D01*
G74*
G01*
X41650Y-18620D02*
G75*
G03X41650Y-18620I-50J0D01*
G74*
G01*
X42003Y-18620D02*
G75*
G03X42003Y-18620I-403J0D01*
G74*
G01*
G54D13*
X42845Y-21135D02*
X43100Y-21390D01*
X42845Y-21195D02*
X43040Y-21390D01*
X43395Y-20425D02*
X43655Y-20425D01*
X43395Y-21175D02*
X43655Y-21175D01*
X42845Y-20800D02*
X42585Y-20800D01*
X42845Y-20425D02*
X42585Y-20425D01*
X42845Y-21175D02*
X42585Y-21175D01*
X43395Y-21390D02*
X43395Y-20210D01*
X43395Y-20210D02*
X42845Y-20210D01*
X42845Y-20210D02*
X42845Y-21390D01*
X42845Y-21390D02*
X43395Y-21390D01*
X40003Y-17042D02*
X40397Y-17042D01*
X40397Y-17278D02*
X40003Y-17278D01*
X40161Y-17160D02*
X40239Y-17160D01*
X40279Y-17199D02*
X40121Y-17199D01*
X40121Y-17199D02*
X40200Y-17121D01*
X40200Y-17121D02*
X40279Y-17199D01*
X40397Y-17475D02*
X40397Y-16845D01*
X40397Y-16845D02*
X40003Y-16845D01*
X40003Y-16845D02*
X40003Y-17475D01*
X40003Y-17475D02*
X40397Y-17475D01*
X40397Y-16138D02*
X40003Y-16138D01*
X40003Y-15902D02*
X40397Y-15902D01*
X40239Y-16020D02*
X40161Y-16020D01*
X40121Y-15981D02*
X40279Y-15981D01*
X40279Y-15981D02*
X40200Y-16059D01*
X40200Y-16059D02*
X40121Y-15981D01*
X40003Y-15705D02*
X40003Y-16335D01*
X40003Y-16335D02*
X40397Y-16335D01*
X40397Y-16335D02*
X40397Y-15705D01*
X40397Y-15705D02*
X40003Y-15705D01*
G54D14*
X45719Y-27964D02*
X45719Y-28436D01*
X45561Y-28436D02*
X45561Y-27964D01*
X45207Y-28436D02*
X46073Y-28436D01*
X46073Y-28436D02*
X46073Y-27964D01*
X46073Y-27964D02*
X45207Y-27964D01*
X45207Y-27964D02*
X45207Y-28436D01*
G54D13*
X43386Y-23127D02*
X43386Y-21553D01*
X43346Y-21553D02*
X43346Y-23127D01*
X43307Y-23127D02*
X43307Y-21553D01*
X43267Y-21553D02*
X43267Y-23127D01*
X43228Y-23127D02*
X43228Y-21553D01*
X43189Y-23127D02*
X43189Y-21553D01*
X43425Y-23127D02*
X43425Y-21553D01*
X43425Y-21553D02*
X41535Y-21553D01*
X41535Y-21553D02*
X41535Y-23127D01*
X41535Y-23127D02*
X43425Y-23127D01*
X47440Y-27720D02*
X47760Y-27720D01*
X47750Y-28160D02*
X47440Y-28160D01*
X47760Y-28260D02*
X47760Y-27620D01*
X47760Y-27620D02*
X47440Y-27620D01*
X47440Y-27620D02*
X47440Y-28260D01*
X47440Y-28260D02*
X47760Y-28260D01*
X44260Y-21300D02*
X43940Y-21300D01*
X43950Y-20860D02*
X44260Y-20860D01*
X43940Y-20760D02*
X43940Y-21400D01*
X43940Y-21400D02*
X44260Y-21400D01*
X44260Y-21400D02*
X44260Y-20760D01*
X44260Y-20760D02*
X43940Y-20760D01*
G54D10*
X44331Y-16185D02*
X40788Y-16185D01*
X40788Y-14768D02*
X44331Y-14768D01*
X44331Y-14768D02*
X44331Y-16185D01*
X40788Y-14768D02*
X40788Y-16185D01*
G54D11*
X41015Y-27716D02*
X41015Y-24763D01*
X37865Y-24763D02*
X37865Y-27716D01*
X37865Y-24763D02*
X38023Y-24763D01*
X37944Y-25354D02*
X37944Y-24763D01*
X38023Y-24763D02*
X38023Y-25354D01*
X40936Y-24763D02*
X40936Y-25354D01*
X40857Y-25354D02*
X40857Y-24763D01*
X40857Y-24763D02*
X41015Y-24763D01*
X39637Y-27716D02*
X39637Y-27322D01*
X39637Y-27322D02*
X39243Y-27322D01*
X39243Y-27322D02*
X39243Y-27716D01*
X40227Y-25354D02*
X40227Y-27125D01*
X40227Y-27125D02*
X40503Y-27125D01*
X40503Y-27125D02*
X40503Y-25354D01*
X38653Y-25354D02*
X38653Y-27125D01*
X38653Y-27125D02*
X38377Y-27125D01*
X38377Y-27125D02*
X38377Y-25354D01*
X41015Y-27716D02*
X37865Y-27716D01*
X37865Y-25354D02*
X41015Y-25354D01*
X39952Y-27716D02*
X40070Y-27716D01*
G54D13*
X45190Y-25710D02*
X45410Y-25710D01*
X45190Y-25450D02*
X45410Y-25450D01*
X45190Y-25370D02*
X45410Y-25370D01*
X45410Y-25370D02*
X45410Y-25790D01*
X45410Y-25790D02*
X45190Y-25790D01*
X45190Y-25790D02*
X45190Y-25370D01*
X44810Y-25710D02*
X45030Y-25710D01*
X44810Y-25450D02*
X45030Y-25450D01*
X44810Y-25370D02*
X45030Y-25370D01*
X45030Y-25370D02*
X45030Y-25790D01*
X45030Y-25790D02*
X44810Y-25790D01*
X44810Y-25790D02*
X44810Y-25370D01*
X41410Y-23350D02*
X41190Y-23350D01*
X41410Y-23610D02*
X41190Y-23610D01*
X41410Y-23690D02*
X41190Y-23690D01*
X41190Y-23690D02*
X41190Y-23270D01*
X41190Y-23270D02*
X41410Y-23270D01*
X41410Y-23270D02*
X41410Y-23690D01*
X41600Y-26010D02*
X41600Y-26230D01*
X41860Y-26010D02*
X41860Y-26230D01*
X41940Y-26010D02*
X41940Y-26230D01*
X41940Y-26230D02*
X41520Y-26230D01*
X41520Y-26230D02*
X41520Y-26010D01*
X41520Y-26010D02*
X41940Y-26010D01*
X45690Y-24490D02*
X45690Y-24270D01*
X45430Y-24490D02*
X45430Y-24270D01*
X45350Y-24490D02*
X45350Y-24270D01*
X45350Y-24270D02*
X45770Y-24270D01*
X45770Y-24270D02*
X45770Y-24490D01*
X45770Y-24490D02*
X45350Y-24490D01*
X45690Y-24890D02*
X45690Y-24670D01*
X45430Y-24890D02*
X45430Y-24670D01*
X45350Y-24890D02*
X45350Y-24670D01*
X45350Y-24670D02*
X45770Y-24670D01*
X45770Y-24670D02*
X45770Y-24890D01*
X45770Y-24890D02*
X45350Y-24890D01*
X47230Y-24810D02*
X47450Y-24810D01*
X47230Y-24550D02*
X47450Y-24550D01*
X47230Y-24470D02*
X47450Y-24470D01*
X47450Y-24470D02*
X47450Y-24890D01*
X47450Y-24890D02*
X47230Y-24890D01*
X47230Y-24890D02*
X47230Y-24470D01*
X48410Y-24580D02*
X48410Y-24800D01*
X48670Y-24580D02*
X48670Y-24800D01*
X48750Y-24580D02*
X48750Y-24800D01*
X48750Y-24800D02*
X48330Y-24800D01*
X48330Y-24800D02*
X48330Y-24580D01*
X48330Y-24580D02*
X48750Y-24580D01*
X42120Y-27770D02*
X41900Y-27770D01*
X42120Y-28030D02*
X41900Y-28030D01*
X42120Y-28110D02*
X41900Y-28110D01*
X41900Y-28110D02*
X41900Y-27690D01*
X41900Y-27690D02*
X42120Y-27690D01*
X42120Y-27690D02*
X42120Y-28110D01*
X41870Y-25830D02*
X41870Y-25610D01*
X41610Y-25830D02*
X41610Y-25610D01*
X41530Y-25830D02*
X41530Y-25610D01*
X41530Y-25610D02*
X41950Y-25610D01*
X41950Y-25610D02*
X41950Y-25830D01*
X41950Y-25830D02*
X41530Y-25830D01*
X46350Y-24710D02*
X46570Y-24710D01*
X46350Y-24450D02*
X46570Y-24450D01*
X46350Y-24370D02*
X46570Y-24370D01*
X46570Y-24370D02*
X46570Y-24790D01*
X46570Y-24790D02*
X46350Y-24790D01*
X46350Y-24790D02*
X46350Y-24370D01*
X44130Y-19990D02*
X43910Y-19990D01*
X44130Y-20250D02*
X43910Y-20250D01*
X44130Y-20330D02*
X43910Y-20330D01*
X43910Y-20330D02*
X43910Y-19910D01*
X43910Y-19910D02*
X44130Y-19910D01*
X44130Y-19910D02*
X44130Y-20330D01*
X47970Y-25710D02*
X48190Y-25710D01*
X47970Y-25450D02*
X48190Y-25450D01*
X47970Y-25370D02*
X48190Y-25370D01*
X48190Y-25370D02*
X48190Y-25790D01*
X48190Y-25790D02*
X47970Y-25790D01*
X47970Y-25790D02*
X47970Y-25370D01*
X47970Y-27210D02*
X48190Y-27210D01*
X47970Y-26950D02*
X48190Y-26950D01*
X47970Y-26870D02*
X48190Y-26870D01*
X48190Y-26870D02*
X48190Y-27290D01*
X48190Y-27290D02*
X47970Y-27290D01*
X47970Y-27290D02*
X47970Y-26870D01*
X48150Y-27850D02*
X47930Y-27850D01*
X48150Y-28110D02*
X47930Y-28110D01*
X48150Y-28190D02*
X47930Y-28190D01*
X47930Y-28190D02*
X47930Y-27770D01*
X47930Y-27770D02*
X48150Y-27770D01*
X48150Y-27770D02*
X48150Y-28190D01*
X46690Y-28310D02*
X46690Y-28090D01*
X46430Y-28310D02*
X46430Y-28090D01*
X46350Y-28310D02*
X46350Y-28090D01*
X46350Y-28090D02*
X46770Y-28090D01*
X46770Y-28090D02*
X46770Y-28310D01*
X46770Y-28310D02*
X46350Y-28310D01*
X46690Y-28690D02*
X46690Y-28470D01*
X46430Y-28690D02*
X46430Y-28470D01*
X46350Y-28690D02*
X46350Y-28470D01*
X46350Y-28470D02*
X46770Y-28470D01*
X46770Y-28470D02*
X46770Y-28690D01*
X46770Y-28690D02*
X46350Y-28690D01*
X47250Y-28530D02*
X47250Y-28750D01*
X47510Y-28530D02*
X47510Y-28750D01*
X47590Y-28530D02*
X47590Y-28750D01*
X47590Y-28750D02*
X47170Y-28750D01*
X47170Y-28750D02*
X47170Y-28530D01*
X47170Y-28530D02*
X47590Y-28530D01*
X47610Y-24810D02*
X47830Y-24810D01*
X47610Y-24550D02*
X47830Y-24550D01*
X47610Y-24470D02*
X47830Y-24470D01*
X47830Y-24470D02*
X47830Y-24890D01*
X47830Y-24890D02*
X47610Y-24890D01*
X47610Y-24890D02*
X47610Y-24470D01*
X43450Y-20070D02*
X43450Y-19850D01*
X43190Y-20070D02*
X43190Y-19850D01*
X43110Y-20070D02*
X43110Y-19850D01*
X43110Y-19850D02*
X43530Y-19850D01*
X43530Y-19850D02*
X43530Y-20070D01*
X43530Y-20070D02*
X43110Y-20070D01*
X42480Y-27770D02*
X42260Y-27770D01*
X42480Y-28030D02*
X42260Y-28030D01*
X42480Y-28110D02*
X42260Y-28110D01*
X42260Y-28110D02*
X42260Y-27690D01*
X42260Y-27690D02*
X42480Y-27690D01*
X42480Y-27690D02*
X42480Y-28110D01*
X42090Y-21050D02*
X42310Y-21050D01*
X42090Y-20790D02*
X42310Y-20790D01*
X42090Y-20710D02*
X42310Y-20710D01*
X42310Y-20710D02*
X42310Y-21130D01*
X42310Y-21130D02*
X42090Y-21130D01*
X42090Y-21130D02*
X42090Y-20710D01*
X41458Y-24178D02*
G75*
G03X41458Y-24178I-79J0D01*
G74*
G01*
X41417Y-24178D02*
G75*
G03X41417Y-24178I-39J0D01*
G74*
G01*
X41536Y-25281D02*
X42324Y-25281D01*
X41536Y-24099D02*
X42324Y-24099D01*
X42324Y-25281D02*
X42324Y-24099D01*
X41536Y-24099D02*
X41536Y-25281D01*
X39670Y-23870D02*
X39670Y-23370D01*
X39170Y-23870D02*
X39170Y-23380D01*
X39020Y-23870D02*
X39820Y-23870D01*
X39820Y-23870D02*
X39820Y-23370D01*
X39820Y-23370D02*
X39020Y-23370D01*
X39020Y-23370D02*
X39020Y-23870D01*
X41170Y-20950D02*
X41670Y-20950D01*
X41170Y-20450D02*
X41660Y-20450D01*
X41170Y-20300D02*
X41170Y-21100D01*
X41170Y-21100D02*
X41670Y-21100D01*
X41670Y-21100D02*
X41670Y-20300D01*
X41670Y-20300D02*
X41170Y-20300D01*
G54D12*
X44790Y-19980D02*
G75*
G03X44790Y-19980I-50J0D01*
G74*
G01*
X45143Y-19980D02*
G75*
G03X45143Y-19980I-403J0D01*
G74*
G01*
G54D13*
X47438Y-25326D02*
X47714Y-25326D01*
X47714Y-25326D02*
X47714Y-25602D01*
X47714Y-25602D02*
X47438Y-25326D01*
X47674Y-27334D02*
X47674Y-25366D01*
X47674Y-25366D02*
X45706Y-25366D01*
X45706Y-25366D02*
X45706Y-27334D01*
X45706Y-27334D02*
X47674Y-27334D01*
X47675Y-25522D02*
X47518Y-25365D01*
X47556Y-25365D02*
X47674Y-25483D01*
X47674Y-25445D02*
X47595Y-25366D01*
G54D15*
X47525Y-25602D02*
G75*
G03X47525Y-25602I-87J0D01*
G74*
G01*
G54D16*
X39375Y-18781D02*
X39375Y-18381D01*
X39222Y-18381D01*
X39184Y-18400D01*
X39165Y-18420D01*
X39146Y-18458D01*
X39146Y-18515D01*
X39165Y-18553D01*
X39184Y-18572D01*
X39222Y-18591D01*
X39375Y-18591D01*
X38994Y-18420D02*
X38975Y-18400D01*
X38937Y-18381D01*
X38841Y-18381D01*
X38803Y-18400D01*
X38784Y-18420D01*
X38765Y-18458D01*
X38765Y-18496D01*
X38784Y-18553D01*
X39013Y-18781D01*
X38765Y-18781D01*
G54D17*
X47177Y-16962D02*
X46834Y-16962D01*
X47005Y-17562D02*
X47005Y-16962D01*
X46634Y-17562D02*
X46634Y-16962D01*
X46405Y-16962D01*
X46348Y-16991D01*
X46320Y-17020D01*
X46291Y-17077D01*
X46291Y-17162D01*
X46320Y-17220D01*
X46348Y-17248D01*
X46405Y-17277D01*
X46634Y-17277D01*
X46091Y-16962D02*
X45720Y-16962D01*
X45920Y-17191D01*
X45834Y-17191D01*
X45777Y-17220D01*
X45748Y-17248D01*
X45720Y-17305D01*
X45720Y-17448D01*
X45748Y-17505D01*
X45777Y-17534D01*
X45834Y-17562D01*
X46005Y-17562D01*
X46062Y-17534D01*
X46091Y-17505D01*
X42357Y-19262D02*
X42014Y-19262D01*
X42185Y-19862D02*
X42185Y-19262D01*
X41814Y-19862D02*
X41814Y-19262D01*
X41585Y-19262D01*
X41528Y-19291D01*
X41500Y-19320D01*
X41471Y-19377D01*
X41471Y-19462D01*
X41500Y-19520D01*
X41528Y-19548D01*
X41585Y-19577D01*
X41814Y-19577D01*
X40900Y-19862D02*
X41242Y-19862D01*
X41071Y-19862D02*
X41071Y-19262D01*
X41128Y-19348D01*
X41185Y-19405D01*
X41242Y-19434D01*
X42057Y-17391D02*
X42114Y-17362D01*
X42199Y-17362D01*
X42285Y-17391D01*
X42342Y-17448D01*
X42371Y-17505D01*
X42399Y-17620D01*
X42399Y-17705D01*
X42371Y-17820D01*
X42342Y-17877D01*
X42285Y-17934D01*
X42199Y-17962D01*
X42142Y-17962D01*
X42057Y-17934D01*
X42028Y-17905D01*
X42028Y-17705D01*
X42142Y-17705D01*
X41771Y-17962D02*
X41771Y-17362D01*
X41428Y-17962D01*
X41428Y-17362D01*
X41142Y-17962D02*
X41142Y-17362D01*
X41000Y-17362D01*
X40914Y-17391D01*
X40857Y-17448D01*
X40828Y-17505D01*
X40800Y-17620D01*
X40800Y-17705D01*
X40828Y-17820D01*
X40857Y-17877D01*
X40914Y-17934D01*
X41000Y-17962D01*
X41142Y-17962D01*
G54D18*
X43812Y-20649D02*
X43972Y-20649D01*
X43990Y-20659D01*
X44000Y-20668D01*
X44009Y-20687D01*
X44009Y-20724D01*
X44000Y-20743D01*
X43990Y-20753D01*
X43972Y-20762D01*
X43812Y-20762D01*
X43812Y-20837D02*
X43812Y-20959D01*
X43887Y-20893D01*
X43887Y-20921D01*
X43897Y-20940D01*
X43906Y-20950D01*
X43925Y-20959D01*
X43972Y-20959D01*
X43990Y-20950D01*
X44000Y-20940D01*
X44009Y-20921D01*
X44009Y-20865D01*
X44000Y-20846D01*
X43990Y-20837D01*
G54D19*
X40728Y-16985D02*
X40492Y-16985D01*
X40492Y-17042D01*
X40503Y-17075D01*
X40526Y-17098D01*
X40548Y-17109D01*
X40593Y-17120D01*
X40627Y-17120D01*
X40672Y-17109D01*
X40694Y-17098D01*
X40717Y-17075D01*
X40728Y-17042D01*
X40728Y-16985D01*
X40728Y-17345D02*
X40728Y-17210D01*
X40728Y-17278D02*
X40492Y-17278D01*
X40526Y-17255D01*
X40548Y-17233D01*
X40559Y-17210D01*
X39801Y-16991D02*
X39812Y-16980D01*
X39823Y-16946D01*
X39823Y-16924D01*
X39812Y-16890D01*
X39789Y-16867D01*
X39767Y-16856D01*
X39722Y-16845D01*
X39688Y-16845D01*
X39643Y-16856D01*
X39621Y-16867D01*
X39598Y-16890D01*
X39587Y-16924D01*
X39587Y-16946D01*
X39598Y-16980D01*
X39610Y-16991D01*
X39823Y-17092D02*
X39587Y-17092D01*
X39699Y-17092D02*
X39699Y-17227D01*
X39823Y-17227D02*
X39587Y-17227D01*
X39598Y-17463D02*
X39587Y-17440D01*
X39587Y-17407D01*
X39598Y-17373D01*
X39621Y-17351D01*
X39643Y-17339D01*
X39688Y-17328D01*
X39722Y-17328D01*
X39767Y-17339D01*
X39789Y-17351D01*
X39812Y-17373D01*
X39823Y-17407D01*
X39823Y-17429D01*
X39812Y-17463D01*
X39801Y-17474D01*
X39722Y-17474D01*
X39722Y-17429D01*
X39862Y-15845D02*
X39626Y-15845D01*
X39626Y-15902D01*
X39637Y-15935D01*
X39660Y-15958D01*
X39682Y-15969D01*
X39727Y-15980D01*
X39761Y-15980D01*
X39806Y-15969D01*
X39828Y-15958D01*
X39851Y-15935D01*
X39862Y-15902D01*
X39862Y-15845D01*
X39626Y-16059D02*
X39626Y-16205D01*
X39716Y-16126D01*
X39716Y-16160D01*
X39727Y-16182D01*
X39738Y-16194D01*
X39761Y-16205D01*
X39817Y-16205D01*
X39840Y-16194D01*
X39851Y-16182D01*
X39862Y-16160D01*
X39862Y-16093D01*
X39851Y-16070D01*
X39840Y-16059D01*
G54D18*
X46276Y-28076D02*
X46276Y-28011D01*
X46379Y-28011D02*
X46183Y-28011D01*
X46183Y-28104D01*
X46276Y-28244D02*
X46286Y-28272D01*
X46295Y-28282D01*
X46314Y-28291D01*
X46342Y-28291D01*
X46360Y-28282D01*
X46370Y-28272D01*
X46379Y-28254D01*
X46379Y-28179D01*
X46183Y-28179D01*
X46183Y-28244D01*
X46192Y-28263D01*
X46202Y-28272D01*
X46220Y-28282D01*
X46239Y-28282D01*
X46258Y-28272D01*
X46267Y-28263D01*
X46276Y-28244D01*
X46276Y-28179D01*
X46379Y-28478D02*
X46379Y-28366D01*
X46379Y-28422D02*
X46183Y-28422D01*
X46211Y-28403D01*
X46230Y-28384D01*
X46239Y-28366D01*
G54D19*
X42625Y-23403D02*
X42625Y-23206D01*
X42578Y-23206D01*
X42550Y-23216D01*
X42531Y-23234D01*
X42522Y-23253D01*
X42512Y-23291D01*
X42512Y-23319D01*
X42522Y-23356D01*
X42531Y-23375D01*
X42550Y-23394D01*
X42578Y-23403D01*
X42625Y-23403D01*
X42437Y-23225D02*
X42428Y-23216D01*
X42409Y-23206D01*
X42362Y-23206D01*
X42343Y-23216D01*
X42334Y-23225D01*
X42325Y-23244D01*
X42325Y-23263D01*
X42334Y-23291D01*
X42447Y-23403D01*
X42325Y-23403D01*
G54D20*
X48284Y-27909D02*
X48288Y-27905D01*
X48291Y-27894D01*
X48291Y-27886D01*
X48288Y-27875D01*
X48280Y-27867D01*
X48273Y-27864D01*
X48258Y-27860D01*
X48246Y-27860D01*
X48231Y-27864D01*
X48224Y-27867D01*
X48216Y-27875D01*
X48212Y-27886D01*
X48212Y-27894D01*
X48216Y-27905D01*
X48220Y-27909D01*
X48291Y-27984D02*
X48291Y-27939D01*
X48291Y-27961D02*
X48212Y-27961D01*
X48224Y-27954D01*
X48231Y-27946D01*
X48235Y-27939D01*
X48212Y-28052D02*
X48212Y-28037D01*
X48216Y-28029D01*
X48220Y-28025D01*
X48231Y-28018D01*
X48246Y-28014D01*
X48276Y-28014D01*
X48284Y-28018D01*
X48288Y-28022D01*
X48291Y-28029D01*
X48291Y-28044D01*
X48288Y-28052D01*
X48284Y-28055D01*
X48276Y-28059D01*
X48258Y-28059D01*
X48250Y-28055D01*
X48246Y-28052D01*
X48243Y-28044D01*
X48243Y-28029D01*
X48246Y-28022D01*
X48250Y-28018D01*
X48258Y-28014D01*
X43874Y-21029D02*
X43878Y-21025D01*
X43881Y-21014D01*
X43881Y-21006D01*
X43878Y-20995D01*
X43870Y-20987D01*
X43863Y-20984D01*
X43848Y-20980D01*
X43836Y-20980D01*
X43821Y-20984D01*
X43814Y-20987D01*
X43806Y-20995D01*
X43802Y-21006D01*
X43802Y-21014D01*
X43806Y-21025D01*
X43810Y-21029D01*
X43881Y-21104D02*
X43881Y-21059D01*
X43881Y-21081D02*
X43802Y-21081D01*
X43814Y-21074D01*
X43821Y-21066D01*
X43825Y-21059D01*
X43881Y-21179D02*
X43881Y-21134D01*
X43881Y-21157D02*
X43802Y-21157D01*
X43814Y-21149D01*
X43821Y-21142D01*
X43825Y-21134D01*
G54D10*
X44380Y-16480D02*
X44399Y-16536D01*
X44399Y-16630D01*
X44380Y-16667D01*
X44361Y-16686D01*
X44324Y-16705D01*
X44286Y-16705D01*
X44249Y-16686D01*
X44230Y-16667D01*
X44211Y-16630D01*
X44193Y-16555D01*
X44174Y-16517D01*
X44155Y-16498D01*
X44118Y-16480D01*
X44080Y-16480D01*
X44043Y-16498D01*
X44024Y-16517D01*
X44005Y-16555D01*
X44005Y-16648D01*
X44024Y-16705D01*
X44043Y-16854D02*
X44024Y-16873D01*
X44005Y-16911D01*
X44005Y-17004D01*
X44024Y-17042D01*
X44043Y-17061D01*
X44080Y-17079D01*
X44118Y-17079D01*
X44174Y-17061D01*
X44399Y-16836D01*
X44399Y-17079D01*
X44785Y-14910D02*
X44785Y-14985D01*
X44804Y-15022D01*
X44841Y-15060D01*
X44916Y-15078D01*
X45048Y-15078D01*
X45123Y-15060D01*
X45160Y-15022D01*
X45179Y-14985D01*
X45179Y-14910D01*
X45160Y-14872D01*
X45123Y-14835D01*
X45048Y-14816D01*
X44916Y-14816D01*
X44841Y-14835D01*
X44804Y-14872D01*
X44785Y-14910D01*
X45179Y-15247D02*
X44785Y-15247D01*
X45179Y-15472D01*
X44785Y-15472D01*
X44766Y-15941D02*
X45273Y-15603D01*
X45141Y-16297D02*
X45160Y-16278D01*
X45179Y-16222D01*
X45179Y-16184D01*
X45160Y-16128D01*
X45123Y-16091D01*
X45085Y-16072D01*
X45010Y-16053D01*
X44954Y-16053D01*
X44879Y-16072D01*
X44841Y-16091D01*
X44804Y-16128D01*
X44785Y-16184D01*
X44785Y-16222D01*
X44804Y-16278D01*
X44823Y-16297D01*
X45179Y-16466D02*
X44785Y-16466D01*
X44973Y-16466D02*
X44973Y-16691D01*
X45179Y-16691D02*
X44785Y-16691D01*
X44804Y-17084D02*
X44785Y-17047D01*
X44785Y-16991D01*
X44804Y-16934D01*
X44841Y-16897D01*
X44879Y-16878D01*
X44954Y-16859D01*
X45010Y-16859D01*
X45085Y-16878D01*
X45123Y-16897D01*
X45160Y-16934D01*
X45179Y-16991D01*
X45179Y-17028D01*
X45160Y-17084D01*
X45141Y-17103D01*
X45010Y-17103D01*
X45010Y-17028D01*
G54D17*
X38482Y-23597D02*
X37882Y-23597D01*
X37882Y-23825D01*
X37911Y-23882D01*
X37940Y-23911D01*
X37997Y-23940D01*
X38082Y-23940D01*
X38140Y-23911D01*
X38168Y-23882D01*
X38197Y-23825D01*
X38197Y-23597D01*
X38482Y-24511D02*
X38482Y-24168D01*
X38482Y-24340D02*
X37882Y-24340D01*
X37968Y-24282D01*
X38025Y-24225D01*
X38054Y-24168D01*
G54D21*
X45338Y-25098D02*
X45341Y-25101D01*
X45350Y-25104D01*
X45355Y-25104D01*
X45364Y-25101D01*
X45370Y-25095D01*
X45372Y-25090D01*
X45375Y-25078D01*
X45375Y-25070D01*
X45372Y-25058D01*
X45370Y-25052D01*
X45364Y-25047D01*
X45355Y-25044D01*
X45350Y-25044D01*
X45341Y-25047D01*
X45338Y-25050D01*
X45315Y-25050D02*
X45312Y-25047D01*
X45307Y-25044D01*
X45292Y-25044D01*
X45287Y-25047D01*
X45284Y-25050D01*
X45281Y-25055D01*
X45281Y-25061D01*
X45284Y-25070D01*
X45318Y-25104D01*
X45281Y-25104D01*
X45230Y-25064D02*
X45230Y-25104D01*
X45244Y-25041D02*
X45258Y-25084D01*
X45221Y-25084D01*
X44958Y-25098D02*
X44961Y-25101D01*
X44970Y-25104D01*
X44975Y-25104D01*
X44984Y-25101D01*
X44990Y-25095D01*
X44992Y-25090D01*
X44995Y-25078D01*
X44995Y-25070D01*
X44992Y-25058D01*
X44990Y-25052D01*
X44984Y-25047D01*
X44975Y-25044D01*
X44970Y-25044D01*
X44961Y-25047D01*
X44958Y-25050D01*
X44935Y-25050D02*
X44932Y-25047D01*
X44927Y-25044D01*
X44912Y-25044D01*
X44907Y-25047D01*
X44904Y-25050D01*
X44901Y-25055D01*
X44901Y-25061D01*
X44904Y-25070D01*
X44938Y-25104D01*
X44901Y-25104D01*
X44847Y-25044D02*
X44875Y-25044D01*
X44878Y-25072D01*
X44875Y-25070D01*
X44870Y-25067D01*
X44855Y-25067D01*
X44850Y-25070D01*
X44847Y-25072D01*
X44844Y-25078D01*
X44844Y-25092D01*
X44847Y-25098D01*
X44850Y-25101D01*
X44855Y-25104D01*
X44870Y-25104D01*
X44875Y-25101D01*
X44878Y-25098D01*
X41310Y-24024D02*
X41330Y-23995D01*
X41344Y-24024D02*
X41344Y-23964D01*
X41321Y-23964D01*
X41315Y-23967D01*
X41312Y-23970D01*
X41310Y-23975D01*
X41310Y-23984D01*
X41312Y-23990D01*
X41315Y-23992D01*
X41321Y-23995D01*
X41344Y-23995D01*
X41258Y-23984D02*
X41258Y-24024D01*
X41272Y-23961D02*
X41287Y-24004D01*
X41250Y-24004D01*
X41234Y-26110D02*
X41205Y-26090D01*
X41234Y-26075D02*
X41174Y-26075D01*
X41174Y-26098D01*
X41177Y-26104D01*
X41180Y-26107D01*
X41185Y-26110D01*
X41194Y-26110D01*
X41200Y-26107D01*
X41202Y-26104D01*
X41205Y-26098D01*
X41205Y-26075D01*
X41234Y-26167D02*
X41234Y-26132D01*
X41234Y-26150D02*
X41174Y-26150D01*
X41182Y-26144D01*
X41188Y-26138D01*
X41191Y-26132D01*
X45570Y-24594D02*
X45590Y-24565D01*
X45604Y-24594D02*
X45604Y-24534D01*
X45581Y-24534D01*
X45575Y-24537D01*
X45572Y-24540D01*
X45570Y-24545D01*
X45570Y-24554D01*
X45572Y-24560D01*
X45575Y-24562D01*
X45581Y-24565D01*
X45604Y-24565D01*
X45541Y-24594D02*
X45530Y-24594D01*
X45524Y-24591D01*
X45521Y-24588D01*
X45515Y-24580D01*
X45512Y-24568D01*
X45512Y-24545D01*
X45515Y-24540D01*
X45518Y-24537D01*
X45524Y-24534D01*
X45535Y-24534D01*
X45541Y-24537D01*
X45544Y-24540D01*
X45547Y-24545D01*
X45547Y-24560D01*
X45544Y-24565D01*
X45541Y-24568D01*
X45535Y-24571D01*
X45524Y-24571D01*
X45518Y-24568D01*
X45515Y-24565D01*
X45512Y-24560D01*
X45598Y-24994D02*
X45618Y-24965D01*
X45632Y-24994D02*
X45632Y-24934D01*
X45610Y-24934D01*
X45604Y-24937D01*
X45601Y-24940D01*
X45598Y-24945D01*
X45598Y-24954D01*
X45601Y-24960D01*
X45604Y-24962D01*
X45610Y-24965D01*
X45632Y-24965D01*
X45541Y-24994D02*
X45575Y-24994D01*
X45558Y-24994D02*
X45558Y-24934D01*
X45564Y-24942D01*
X45570Y-24948D01*
X45575Y-24951D01*
X45504Y-24934D02*
X45498Y-24934D01*
X45492Y-24937D01*
X45490Y-24940D01*
X45487Y-24945D01*
X45484Y-24957D01*
X45484Y-24971D01*
X45487Y-24982D01*
X45490Y-24988D01*
X45492Y-24991D01*
X45498Y-24994D01*
X45504Y-24994D01*
X45510Y-24991D01*
X45512Y-24988D01*
X45515Y-24982D01*
X45518Y-24971D01*
X45518Y-24957D01*
X45515Y-24945D01*
X45512Y-24940D01*
X45510Y-24937D01*
X45504Y-24934D01*
X47844Y-24641D02*
X47815Y-24621D01*
X47844Y-24607D02*
X47784Y-24607D01*
X47784Y-24630D01*
X47787Y-24635D01*
X47790Y-24638D01*
X47795Y-24641D01*
X47804Y-24641D01*
X47810Y-24638D01*
X47812Y-24635D01*
X47815Y-24630D01*
X47815Y-24607D01*
X47844Y-24698D02*
X47844Y-24664D01*
X47844Y-24681D02*
X47784Y-24681D01*
X47792Y-24675D01*
X47798Y-24670D01*
X47801Y-24664D01*
X47790Y-24721D02*
X47787Y-24724D01*
X47784Y-24730D01*
X47784Y-24744D01*
X47787Y-24750D01*
X47790Y-24752D01*
X47795Y-24755D01*
X47801Y-24755D01*
X47810Y-24752D01*
X47844Y-24718D01*
X47844Y-24755D01*
X48550Y-24454D02*
X48570Y-24425D01*
X48584Y-24454D02*
X48584Y-24394D01*
X48561Y-24394D01*
X48555Y-24397D01*
X48552Y-24400D01*
X48550Y-24405D01*
X48550Y-24414D01*
X48552Y-24420D01*
X48555Y-24422D01*
X48561Y-24425D01*
X48584Y-24425D01*
X48515Y-24420D02*
X48521Y-24417D01*
X48524Y-24414D01*
X48527Y-24408D01*
X48527Y-24405D01*
X48524Y-24400D01*
X48521Y-24397D01*
X48515Y-24394D01*
X48504Y-24394D01*
X48498Y-24397D01*
X48495Y-24400D01*
X48492Y-24405D01*
X48492Y-24408D01*
X48495Y-24414D01*
X48498Y-24417D01*
X48504Y-24420D01*
X48515Y-24420D01*
X48521Y-24422D01*
X48524Y-24425D01*
X48527Y-24431D01*
X48527Y-24442D01*
X48524Y-24448D01*
X48521Y-24451D01*
X48515Y-24454D01*
X48504Y-24454D01*
X48498Y-24451D01*
X48495Y-24448D01*
X48492Y-24442D01*
X48492Y-24431D01*
X48495Y-24425D01*
X48498Y-24422D01*
X48504Y-24420D01*
X42000Y-28444D02*
X42020Y-28415D01*
X42034Y-28444D02*
X42034Y-28384D01*
X42011Y-28384D01*
X42005Y-28387D01*
X42002Y-28390D01*
X42000Y-28395D01*
X42000Y-28404D01*
X42002Y-28410D01*
X42005Y-28412D01*
X42011Y-28415D01*
X42034Y-28415D01*
X41977Y-28390D02*
X41974Y-28387D01*
X41968Y-28384D01*
X41954Y-28384D01*
X41948Y-28387D01*
X41945Y-28390D01*
X41942Y-28395D01*
X41942Y-28401D01*
X41945Y-28410D01*
X41980Y-28444D01*
X41942Y-28444D01*
X41740Y-26014D02*
X41760Y-25985D01*
X41774Y-26014D02*
X41774Y-25954D01*
X41751Y-25954D01*
X41745Y-25957D01*
X41742Y-25960D01*
X41740Y-25965D01*
X41740Y-25974D01*
X41742Y-25980D01*
X41745Y-25982D01*
X41751Y-25985D01*
X41774Y-25985D01*
X41685Y-25954D02*
X41714Y-25954D01*
X41717Y-25982D01*
X41714Y-25980D01*
X41708Y-25977D01*
X41694Y-25977D01*
X41688Y-25980D01*
X41685Y-25982D01*
X41682Y-25988D01*
X41682Y-26002D01*
X41685Y-26008D01*
X41688Y-26011D01*
X41694Y-26014D01*
X41708Y-26014D01*
X41714Y-26011D01*
X41717Y-26008D01*
X46498Y-24098D02*
X46501Y-24101D01*
X46510Y-24104D01*
X46515Y-24104D01*
X46524Y-24101D01*
X46530Y-24095D01*
X46532Y-24090D01*
X46535Y-24078D01*
X46535Y-24070D01*
X46532Y-24058D01*
X46530Y-24052D01*
X46524Y-24047D01*
X46515Y-24044D01*
X46510Y-24044D01*
X46501Y-24047D01*
X46498Y-24050D01*
X46441Y-24104D02*
X46475Y-24104D01*
X46458Y-24104D02*
X46458Y-24044D01*
X46464Y-24052D01*
X46470Y-24058D01*
X46475Y-24061D01*
X46421Y-24044D02*
X46381Y-24044D01*
X46407Y-24104D01*
X44228Y-20081D02*
X44231Y-20078D01*
X44234Y-20070D01*
X44234Y-20064D01*
X44231Y-20055D01*
X44225Y-20050D01*
X44220Y-20047D01*
X44208Y-20044D01*
X44200Y-20044D01*
X44188Y-20047D01*
X44182Y-20050D01*
X44177Y-20055D01*
X44174Y-20064D01*
X44174Y-20070D01*
X44177Y-20078D01*
X44180Y-20081D01*
X44234Y-20138D02*
X44234Y-20104D01*
X44234Y-20121D02*
X44174Y-20121D01*
X44182Y-20115D01*
X44188Y-20110D01*
X44191Y-20104D01*
X44180Y-20161D02*
X44177Y-20164D01*
X44174Y-20170D01*
X44174Y-20184D01*
X44177Y-20190D01*
X44180Y-20192D01*
X44185Y-20195D01*
X44191Y-20195D01*
X44200Y-20192D01*
X44234Y-20158D01*
X44234Y-20195D01*
X48398Y-25541D02*
X48401Y-25538D01*
X48404Y-25530D01*
X48404Y-25524D01*
X48401Y-25515D01*
X48395Y-25510D01*
X48390Y-25507D01*
X48378Y-25504D01*
X48370Y-25504D01*
X48358Y-25507D01*
X48352Y-25510D01*
X48347Y-25515D01*
X48344Y-25524D01*
X48344Y-25530D01*
X48347Y-25538D01*
X48350Y-25541D01*
X48404Y-25598D02*
X48404Y-25564D01*
X48404Y-25581D02*
X48344Y-25581D01*
X48352Y-25575D01*
X48358Y-25570D01*
X48361Y-25564D01*
X48344Y-25618D02*
X48344Y-25655D01*
X48367Y-25635D01*
X48367Y-25644D01*
X48370Y-25650D01*
X48372Y-25652D01*
X48378Y-25655D01*
X48392Y-25655D01*
X48398Y-25652D01*
X48401Y-25650D01*
X48404Y-25644D01*
X48404Y-25627D01*
X48401Y-25621D01*
X48398Y-25618D01*
X48398Y-27041D02*
X48401Y-27038D01*
X48404Y-27030D01*
X48404Y-27024D01*
X48401Y-27015D01*
X48395Y-27010D01*
X48390Y-27007D01*
X48378Y-27004D01*
X48370Y-27004D01*
X48358Y-27007D01*
X48352Y-27010D01*
X48347Y-27015D01*
X48344Y-27024D01*
X48344Y-27030D01*
X48347Y-27038D01*
X48350Y-27041D01*
X48404Y-27098D02*
X48404Y-27064D01*
X48404Y-27081D02*
X48344Y-27081D01*
X48352Y-27075D01*
X48358Y-27070D01*
X48361Y-27064D01*
X48364Y-27150D02*
X48404Y-27150D01*
X48341Y-27135D02*
X48384Y-27121D01*
X48384Y-27158D01*
X48398Y-27941D02*
X48401Y-27938D01*
X48404Y-27930D01*
X48404Y-27924D01*
X48401Y-27915D01*
X48395Y-27910D01*
X48390Y-27907D01*
X48378Y-27904D01*
X48370Y-27904D01*
X48358Y-27907D01*
X48352Y-27910D01*
X48347Y-27915D01*
X48344Y-27924D01*
X48344Y-27930D01*
X48347Y-27938D01*
X48350Y-27941D01*
X48404Y-27998D02*
X48404Y-27964D01*
X48404Y-27981D02*
X48344Y-27981D01*
X48352Y-27975D01*
X48358Y-27970D01*
X48361Y-27964D01*
X48344Y-28052D02*
X48344Y-28024D01*
X48372Y-28021D01*
X48370Y-28024D01*
X48367Y-28030D01*
X48367Y-28044D01*
X48370Y-28050D01*
X48372Y-28052D01*
X48378Y-28055D01*
X48392Y-28055D01*
X48398Y-28052D01*
X48401Y-28050D01*
X48404Y-28044D01*
X48404Y-28030D01*
X48401Y-28024D01*
X48398Y-28021D01*
X46078Y-28161D02*
X46081Y-28158D01*
X46084Y-28150D01*
X46084Y-28144D01*
X46081Y-28135D01*
X46075Y-28130D01*
X46070Y-28127D01*
X46058Y-28124D01*
X46050Y-28124D01*
X46038Y-28127D01*
X46032Y-28130D01*
X46027Y-28135D01*
X46024Y-28144D01*
X46024Y-28150D01*
X46027Y-28158D01*
X46030Y-28161D01*
X46030Y-28184D02*
X46027Y-28187D01*
X46024Y-28192D01*
X46024Y-28207D01*
X46027Y-28212D01*
X46030Y-28215D01*
X46035Y-28218D01*
X46041Y-28218D01*
X46050Y-28215D01*
X46084Y-28181D01*
X46084Y-28218D01*
X46024Y-28238D02*
X46024Y-28275D01*
X46047Y-28255D01*
X46047Y-28264D01*
X46050Y-28270D01*
X46052Y-28272D01*
X46058Y-28275D01*
X46072Y-28275D01*
X46078Y-28272D01*
X46081Y-28270D01*
X46084Y-28264D01*
X46084Y-28247D01*
X46081Y-28241D01*
X46078Y-28238D01*
X46078Y-28541D02*
X46081Y-28538D01*
X46084Y-28530D01*
X46084Y-28524D01*
X46081Y-28515D01*
X46075Y-28510D01*
X46070Y-28507D01*
X46058Y-28504D01*
X46050Y-28504D01*
X46038Y-28507D01*
X46032Y-28510D01*
X46027Y-28515D01*
X46024Y-28524D01*
X46024Y-28530D01*
X46027Y-28538D01*
X46030Y-28541D01*
X46030Y-28564D02*
X46027Y-28567D01*
X46024Y-28572D01*
X46024Y-28587D01*
X46027Y-28592D01*
X46030Y-28595D01*
X46035Y-28598D01*
X46041Y-28598D01*
X46050Y-28595D01*
X46084Y-28561D01*
X46084Y-28598D01*
X46030Y-28621D02*
X46027Y-28624D01*
X46024Y-28630D01*
X46024Y-28644D01*
X46027Y-28650D01*
X46030Y-28652D01*
X46035Y-28655D01*
X46041Y-28655D01*
X46050Y-28652D01*
X46084Y-28618D01*
X46084Y-28655D01*
X47418Y-28938D02*
X47421Y-28941D01*
X47430Y-28944D01*
X47435Y-28944D01*
X47444Y-28941D01*
X47450Y-28935D01*
X47452Y-28930D01*
X47455Y-28918D01*
X47455Y-28910D01*
X47452Y-28898D01*
X47450Y-28892D01*
X47444Y-28887D01*
X47435Y-28884D01*
X47430Y-28884D01*
X47421Y-28887D01*
X47418Y-28890D01*
X47361Y-28944D02*
X47395Y-28944D01*
X47378Y-28944D02*
X47378Y-28884D01*
X47384Y-28892D01*
X47390Y-28898D01*
X47395Y-28901D01*
X47327Y-28910D02*
X47332Y-28907D01*
X47335Y-28904D01*
X47338Y-28898D01*
X47338Y-28895D01*
X47335Y-28890D01*
X47332Y-28887D01*
X47327Y-28884D01*
X47315Y-28884D01*
X47310Y-28887D01*
X47307Y-28890D01*
X47304Y-28895D01*
X47304Y-28898D01*
X47307Y-28904D01*
X47310Y-28907D01*
X47315Y-28910D01*
X47327Y-28910D01*
X47332Y-28912D01*
X47335Y-28915D01*
X47338Y-28921D01*
X47338Y-28932D01*
X47335Y-28938D01*
X47332Y-28941D01*
X47327Y-28944D01*
X47315Y-28944D01*
X47310Y-28941D01*
X47307Y-28938D01*
X47304Y-28932D01*
X47304Y-28921D01*
X47307Y-28915D01*
X47310Y-28912D01*
X47315Y-28910D01*
X48438Y-24641D02*
X48441Y-24638D01*
X48444Y-24630D01*
X48444Y-24624D01*
X48441Y-24615D01*
X48435Y-24610D01*
X48430Y-24607D01*
X48418Y-24604D01*
X48410Y-24604D01*
X48398Y-24607D01*
X48392Y-24610D01*
X48387Y-24615D01*
X48384Y-24624D01*
X48384Y-24630D01*
X48387Y-24638D01*
X48390Y-24641D01*
X48444Y-24698D02*
X48444Y-24664D01*
X48444Y-24681D02*
X48384Y-24681D01*
X48392Y-24675D01*
X48398Y-24670D01*
X48401Y-24664D01*
X48444Y-24727D02*
X48444Y-24738D01*
X48441Y-24744D01*
X48438Y-24747D01*
X48430Y-24752D01*
X48418Y-24755D01*
X48395Y-24755D01*
X48390Y-24752D01*
X48387Y-24750D01*
X48384Y-24744D01*
X48384Y-24732D01*
X48387Y-24727D01*
X48390Y-24724D01*
X48395Y-24721D01*
X48410Y-24721D01*
X48415Y-24724D01*
X48418Y-24727D01*
X48421Y-24732D01*
X48421Y-24744D01*
X48418Y-24750D01*
X48415Y-24752D01*
X48410Y-24755D01*
X43358Y-20168D02*
X43361Y-20171D01*
X43370Y-20174D01*
X43375Y-20174D01*
X43384Y-20171D01*
X43390Y-20165D01*
X43392Y-20160D01*
X43395Y-20148D01*
X43395Y-20140D01*
X43392Y-20128D01*
X43390Y-20122D01*
X43384Y-20117D01*
X43375Y-20114D01*
X43370Y-20114D01*
X43361Y-20117D01*
X43358Y-20120D01*
X43301Y-20174D02*
X43335Y-20174D01*
X43318Y-20174D02*
X43318Y-20114D01*
X43324Y-20122D01*
X43330Y-20128D01*
X43335Y-20131D01*
X43264Y-20114D02*
X43258Y-20114D01*
X43252Y-20117D01*
X43250Y-20120D01*
X43247Y-20125D01*
X43244Y-20137D01*
X43244Y-20151D01*
X43247Y-20162D01*
X43250Y-20168D01*
X43252Y-20171D01*
X43258Y-20174D01*
X43264Y-20174D01*
X43270Y-20171D01*
X43272Y-20168D01*
X43275Y-20162D01*
X43278Y-20151D01*
X43278Y-20137D01*
X43275Y-20125D01*
X43272Y-20120D01*
X43270Y-20117D01*
X43264Y-20114D01*
X42360Y-28438D02*
X42362Y-28441D01*
X42371Y-28444D01*
X42377Y-28444D01*
X42385Y-28441D01*
X42391Y-28435D01*
X42394Y-28430D01*
X42397Y-28418D01*
X42397Y-28410D01*
X42394Y-28398D01*
X42391Y-28392D01*
X42385Y-28387D01*
X42377Y-28384D01*
X42371Y-28384D01*
X42362Y-28387D01*
X42360Y-28390D01*
X42340Y-28384D02*
X42302Y-28384D01*
X42322Y-28407D01*
X42314Y-28407D01*
X42308Y-28410D01*
X42305Y-28412D01*
X42302Y-28418D01*
X42302Y-28432D01*
X42305Y-28438D01*
X42308Y-28441D01*
X42314Y-28444D01*
X42331Y-28444D01*
X42337Y-28441D01*
X42340Y-28438D01*
X42028Y-20910D02*
X42031Y-20907D01*
X42034Y-20898D01*
X42034Y-20892D01*
X42031Y-20884D01*
X42025Y-20878D01*
X42020Y-20875D01*
X42008Y-20872D01*
X42000Y-20872D01*
X41988Y-20875D01*
X41982Y-20878D01*
X41977Y-20884D01*
X41974Y-20892D01*
X41974Y-20898D01*
X41977Y-20907D01*
X41980Y-20910D01*
X42034Y-20938D02*
X42034Y-20950D01*
X42031Y-20955D01*
X42028Y-20958D01*
X42020Y-20964D01*
X42008Y-20967D01*
X41985Y-20967D01*
X41980Y-20964D01*
X41977Y-20961D01*
X41974Y-20955D01*
X41974Y-20944D01*
X41977Y-20938D01*
X41980Y-20935D01*
X41985Y-20932D01*
X42000Y-20932D01*
X42005Y-20935D01*
X42008Y-20938D01*
X42011Y-20944D01*
X42011Y-20955D01*
X42008Y-20961D01*
X42005Y-20964D01*
X42000Y-20967D01*
G54D18*
X42472Y-24559D02*
X42632Y-24559D01*
X42650Y-24569D01*
X42660Y-24578D01*
X42669Y-24597D01*
X42669Y-24634D01*
X42660Y-24653D01*
X42650Y-24663D01*
X42632Y-24672D01*
X42472Y-24672D01*
X42491Y-24756D02*
X42482Y-24766D01*
X42472Y-24785D01*
X42472Y-24831D01*
X42482Y-24850D01*
X42491Y-24860D01*
X42510Y-24869D01*
X42529Y-24869D01*
X42557Y-24860D01*
X42669Y-24747D01*
X42669Y-24869D01*
G54D22*
X40336Y-23620D02*
X40342Y-23614D01*
X40347Y-23597D01*
X40347Y-23586D01*
X40342Y-23569D01*
X40330Y-23558D01*
X40319Y-23552D01*
X40297Y-23547D01*
X40280Y-23547D01*
X40257Y-23552D01*
X40246Y-23558D01*
X40235Y-23569D01*
X40229Y-23586D01*
X40229Y-23597D01*
X40235Y-23614D01*
X40241Y-23620D01*
X40269Y-23721D02*
X40347Y-23721D01*
X40224Y-23693D02*
X40308Y-23665D01*
X40308Y-23738D01*
X41066Y-20680D02*
X41072Y-20674D01*
X41077Y-20657D01*
X41077Y-20646D01*
X41072Y-20629D01*
X41060Y-20618D01*
X41049Y-20612D01*
X41027Y-20607D01*
X41010Y-20607D01*
X40987Y-20612D01*
X40976Y-20618D01*
X40965Y-20629D01*
X40959Y-20646D01*
X40959Y-20657D01*
X40965Y-20674D01*
X40971Y-20680D01*
X41010Y-20747D02*
X41004Y-20736D01*
X40999Y-20730D01*
X40987Y-20725D01*
X40982Y-20725D01*
X40971Y-20730D01*
X40965Y-20736D01*
X40959Y-20747D01*
X40959Y-20770D01*
X40965Y-20781D01*
X40971Y-20787D01*
X40982Y-20792D01*
X40987Y-20792D01*
X40999Y-20787D01*
X41004Y-20781D01*
X41010Y-20770D01*
X41010Y-20747D01*
X41015Y-20736D01*
X41021Y-20730D01*
X41032Y-20725D01*
X41055Y-20725D01*
X41066Y-20730D01*
X41072Y-20736D01*
X41077Y-20747D01*
X41077Y-20770D01*
X41072Y-20781D01*
X41066Y-20787D01*
X41055Y-20792D01*
X41032Y-20792D01*
X41021Y-20787D01*
X41015Y-20781D01*
X41010Y-20770D01*
G54D17*
X45497Y-18622D02*
X45154Y-18622D01*
X45325Y-19222D02*
X45325Y-18622D01*
X44954Y-19222D02*
X44954Y-18622D01*
X44725Y-18622D01*
X44668Y-18651D01*
X44640Y-18680D01*
X44611Y-18737D01*
X44611Y-18822D01*
X44640Y-18880D01*
X44668Y-18908D01*
X44725Y-18937D01*
X44954Y-18937D01*
X44382Y-18680D02*
X44354Y-18651D01*
X44297Y-18622D01*
X44154Y-18622D01*
X44097Y-18651D01*
X44068Y-18680D01*
X44040Y-18737D01*
X44040Y-18794D01*
X44068Y-18880D01*
X44411Y-19222D01*
X44040Y-19222D01*
X46982Y-19642D02*
X46611Y-19642D01*
X46811Y-19871D01*
X46725Y-19871D01*
X46668Y-19900D01*
X46640Y-19928D01*
X46611Y-19985D01*
X46611Y-20128D01*
X46640Y-20185D01*
X46668Y-20214D01*
X46725Y-20242D01*
X46897Y-20242D01*
X46954Y-20214D01*
X46982Y-20185D01*
X46440Y-19642D02*
X46240Y-20242D01*
X46040Y-19642D01*
X45897Y-19642D02*
X45525Y-19642D01*
X45725Y-19871D01*
X45640Y-19871D01*
X45582Y-19900D01*
X45554Y-19928D01*
X45525Y-19985D01*
X45525Y-20128D01*
X45554Y-20185D01*
X45582Y-20214D01*
X45640Y-20242D01*
X45811Y-20242D01*
X45868Y-20214D01*
X45897Y-20185D01*
G54D23*
X45257Y-26230D02*
X45384Y-26230D01*
X45399Y-26237D01*
X45407Y-26245D01*
X45414Y-26260D01*
X45414Y-26290D01*
X45407Y-26305D01*
X45399Y-26312D01*
X45384Y-26320D01*
X45257Y-26320D01*
X45257Y-26469D02*
X45257Y-26394D01*
X45332Y-26387D01*
X45324Y-26394D01*
X45317Y-26409D01*
X45317Y-26447D01*
X45324Y-26462D01*
X45332Y-26469D01*
X45347Y-26477D01*
X45384Y-26477D01*
X45399Y-26469D01*
X45407Y-26462D01*
X45414Y-26447D01*
X45414Y-26409D01*
X45407Y-26394D01*
X45399Y-26387D01*
M02*
