G04 (created by PCBNEW (2013-05-31 BZR 4019)-stable) date 7/3/2014 2:31:18 PM*
%MOIN*%
G04 Gerber Fmt 3.4, Leading zero omitted, Abs format*
%FSLAX34Y34*%
G01*
G70*
G90*
G04 APERTURE LIST*
%ADD10C,0.00590551*%
%ADD11C,0.0075*%
%ADD12C,0.01*%
%ADD13C,0.005*%
%ADD14C,0.0059*%
%ADD15C,0.012*%
%ADD16C,0.0079*%
%ADD17C,0.011811*%
%ADD18C,0.0012*%
%ADD19C,0.0039*%
%ADD20C,0.008*%
%ADD21C,0.0078*%
%ADD22C,0.0077*%
%ADD23C,0.0031*%
%ADD24C,0.003*%
G04 APERTURE END LIST*
G54D10*
G54D11*
X37721Y-24926D02*
X37371Y-24926D01*
X37621Y-24810D01*
X37371Y-24693D01*
X37721Y-24693D01*
X37488Y-24376D02*
X37721Y-24376D01*
X37488Y-24526D02*
X37671Y-24526D01*
X37705Y-24510D01*
X37721Y-24476D01*
X37721Y-24426D01*
X37705Y-24393D01*
X37688Y-24376D01*
X37705Y-24226D02*
X37721Y-24193D01*
X37721Y-24126D01*
X37705Y-24093D01*
X37671Y-24076D01*
X37655Y-24076D01*
X37621Y-24093D01*
X37605Y-24126D01*
X37605Y-24176D01*
X37588Y-24210D01*
X37555Y-24226D01*
X37538Y-24226D01*
X37505Y-24210D01*
X37488Y-24176D01*
X37488Y-24126D01*
X37505Y-24093D01*
X37705Y-23776D02*
X37721Y-23810D01*
X37721Y-23876D01*
X37705Y-23910D01*
X37688Y-23926D01*
X37655Y-23943D01*
X37555Y-23943D01*
X37521Y-23926D01*
X37505Y-23910D01*
X37488Y-23876D01*
X37488Y-23810D01*
X37505Y-23776D01*
X37721Y-23576D02*
X37705Y-23610D01*
X37671Y-23626D01*
X37371Y-23626D01*
X37705Y-23310D02*
X37721Y-23343D01*
X37721Y-23410D01*
X37705Y-23443D01*
X37671Y-23460D01*
X37538Y-23460D01*
X37505Y-23443D01*
X37488Y-23410D01*
X37488Y-23343D01*
X37505Y-23310D01*
X37538Y-23293D01*
X37571Y-23293D01*
X37605Y-23460D01*
X37538Y-23026D02*
X37555Y-22976D01*
X37571Y-22960D01*
X37605Y-22943D01*
X37655Y-22943D01*
X37688Y-22960D01*
X37705Y-22976D01*
X37721Y-23010D01*
X37721Y-23143D01*
X37371Y-23143D01*
X37371Y-23026D01*
X37388Y-22993D01*
X37405Y-22976D01*
X37438Y-22960D01*
X37471Y-22960D01*
X37505Y-22976D01*
X37521Y-22993D01*
X37538Y-23026D01*
X37538Y-23143D01*
X37721Y-22743D02*
X37705Y-22776D01*
X37688Y-22793D01*
X37655Y-22810D01*
X37555Y-22810D01*
X37521Y-22793D01*
X37505Y-22776D01*
X37488Y-22743D01*
X37488Y-22693D01*
X37505Y-22660D01*
X37521Y-22643D01*
X37555Y-22626D01*
X37655Y-22626D01*
X37688Y-22643D01*
X37705Y-22660D01*
X37721Y-22693D01*
X37721Y-22743D01*
X37721Y-22326D02*
X37538Y-22326D01*
X37505Y-22343D01*
X37488Y-22376D01*
X37488Y-22443D01*
X37505Y-22476D01*
X37705Y-22326D02*
X37721Y-22360D01*
X37721Y-22443D01*
X37705Y-22476D01*
X37671Y-22493D01*
X37638Y-22493D01*
X37605Y-22476D01*
X37588Y-22443D01*
X37588Y-22360D01*
X37571Y-22326D01*
X37721Y-22160D02*
X37488Y-22160D01*
X37555Y-22160D02*
X37521Y-22143D01*
X37505Y-22126D01*
X37488Y-22093D01*
X37488Y-22060D01*
X37721Y-21793D02*
X37371Y-21793D01*
X37705Y-21793D02*
X37721Y-21826D01*
X37721Y-21893D01*
X37705Y-21926D01*
X37688Y-21943D01*
X37655Y-21960D01*
X37555Y-21960D01*
X37521Y-21943D01*
X37505Y-21926D01*
X37488Y-21893D01*
X37488Y-21826D01*
X37505Y-21793D01*
X37721Y-21160D02*
X37555Y-21276D01*
X37721Y-21360D02*
X37371Y-21360D01*
X37371Y-21226D01*
X37388Y-21193D01*
X37405Y-21176D01*
X37438Y-21160D01*
X37488Y-21160D01*
X37521Y-21176D01*
X37538Y-21193D01*
X37555Y-21226D01*
X37555Y-21360D01*
X37721Y-20826D02*
X37721Y-21026D01*
X37721Y-20926D02*
X37371Y-20926D01*
X37421Y-20960D01*
X37455Y-20993D01*
X37471Y-21026D01*
X38186Y-24943D02*
X38186Y-24776D01*
X38286Y-24976D02*
X37936Y-24860D01*
X38286Y-24743D01*
X37936Y-24676D02*
X37936Y-24476D01*
X38286Y-24576D02*
X37936Y-24576D01*
X38286Y-24360D02*
X37936Y-24360D01*
X38186Y-24243D01*
X37936Y-24126D01*
X38286Y-24126D01*
X38103Y-23960D02*
X38103Y-23843D01*
X38286Y-23793D02*
X38286Y-23960D01*
X37936Y-23960D01*
X37936Y-23793D01*
X37953Y-23460D02*
X37936Y-23493D01*
X37936Y-23543D01*
X37953Y-23593D01*
X37986Y-23626D01*
X38020Y-23643D01*
X38086Y-23660D01*
X38136Y-23660D01*
X38203Y-23643D01*
X38236Y-23626D01*
X38270Y-23593D01*
X38286Y-23543D01*
X38286Y-23510D01*
X38270Y-23460D01*
X38253Y-23443D01*
X38136Y-23443D01*
X38136Y-23510D01*
X38186Y-23310D02*
X38186Y-23143D01*
X38286Y-23343D02*
X37936Y-23226D01*
X38286Y-23110D01*
X37936Y-23026D02*
X37936Y-22810D01*
X38070Y-22926D01*
X38070Y-22876D01*
X38086Y-22843D01*
X38103Y-22826D01*
X38136Y-22810D01*
X38220Y-22810D01*
X38253Y-22826D01*
X38270Y-22843D01*
X38286Y-22876D01*
X38286Y-22976D01*
X38270Y-23010D01*
X38253Y-23026D01*
X37970Y-22676D02*
X37953Y-22660D01*
X37936Y-22626D01*
X37936Y-22543D01*
X37953Y-22510D01*
X37970Y-22493D01*
X38003Y-22476D01*
X38036Y-22476D01*
X38086Y-22493D01*
X38286Y-22693D01*
X38286Y-22476D01*
X38086Y-22276D02*
X38070Y-22310D01*
X38053Y-22326D01*
X38020Y-22343D01*
X38003Y-22343D01*
X37970Y-22326D01*
X37953Y-22310D01*
X37936Y-22276D01*
X37936Y-22210D01*
X37953Y-22176D01*
X37970Y-22160D01*
X38003Y-22143D01*
X38020Y-22143D01*
X38053Y-22160D01*
X38070Y-22176D01*
X38086Y-22210D01*
X38086Y-22276D01*
X38103Y-22310D01*
X38120Y-22326D01*
X38153Y-22343D01*
X38220Y-22343D01*
X38253Y-22326D01*
X38270Y-22310D01*
X38286Y-22276D01*
X38286Y-22210D01*
X38270Y-22176D01*
X38253Y-22160D01*
X38220Y-22143D01*
X38153Y-22143D01*
X38120Y-22160D01*
X38103Y-22176D01*
X38086Y-22210D01*
X38153Y-21993D02*
X38153Y-21726D01*
X38286Y-21559D02*
X37936Y-21559D01*
X38070Y-21559D02*
X38053Y-21526D01*
X38053Y-21459D01*
X38070Y-21426D01*
X38086Y-21409D01*
X38120Y-21393D01*
X38220Y-21393D01*
X38253Y-21409D01*
X38270Y-21426D01*
X38286Y-21459D01*
X38286Y-21526D01*
X38270Y-21559D01*
X38286Y-21093D02*
X38103Y-21093D01*
X38070Y-21110D01*
X38053Y-21143D01*
X38053Y-21210D01*
X38070Y-21243D01*
X38270Y-21093D02*
X38286Y-21126D01*
X38286Y-21210D01*
X38270Y-21243D01*
X38236Y-21260D01*
X38203Y-21260D01*
X38170Y-21243D01*
X38153Y-21210D01*
X38153Y-21126D01*
X38136Y-21093D01*
X38270Y-20943D02*
X38286Y-20910D01*
X38286Y-20843D01*
X38270Y-20810D01*
X38236Y-20793D01*
X38220Y-20793D01*
X38186Y-20810D01*
X38170Y-20843D01*
X38170Y-20893D01*
X38153Y-20926D01*
X38120Y-20943D01*
X38103Y-20943D01*
X38070Y-20926D01*
X38053Y-20893D01*
X38053Y-20843D01*
X38070Y-20810D01*
X38270Y-20510D02*
X38286Y-20543D01*
X38286Y-20610D01*
X38270Y-20643D01*
X38236Y-20660D01*
X38103Y-20660D01*
X38070Y-20643D01*
X38053Y-20610D01*
X38053Y-20543D01*
X38070Y-20510D01*
X38103Y-20493D01*
X38136Y-20493D01*
X38170Y-20660D01*
X38286Y-20193D02*
X37936Y-20193D01*
X38270Y-20193D02*
X38286Y-20226D01*
X38286Y-20293D01*
X38270Y-20326D01*
X38253Y-20343D01*
X38220Y-20360D01*
X38120Y-20360D01*
X38086Y-20343D01*
X38070Y-20326D01*
X38053Y-20293D01*
X38053Y-20226D01*
X38070Y-20193D01*
X38618Y-24960D02*
X38851Y-24893D01*
X38685Y-24826D01*
X38851Y-24760D01*
X38618Y-24693D01*
X38851Y-24560D02*
X38618Y-24560D01*
X38501Y-24560D02*
X38518Y-24576D01*
X38535Y-24560D01*
X38518Y-24543D01*
X38501Y-24560D01*
X38535Y-24560D01*
X38851Y-24393D02*
X38618Y-24393D01*
X38685Y-24393D02*
X38651Y-24376D01*
X38635Y-24360D01*
X38618Y-24326D01*
X38618Y-24293D01*
X38835Y-24043D02*
X38851Y-24076D01*
X38851Y-24143D01*
X38835Y-24176D01*
X38801Y-24193D01*
X38668Y-24193D01*
X38635Y-24176D01*
X38618Y-24143D01*
X38618Y-24076D01*
X38635Y-24043D01*
X38668Y-24026D01*
X38701Y-24026D01*
X38735Y-24193D01*
X38851Y-23826D02*
X38835Y-23860D01*
X38801Y-23876D01*
X38501Y-23876D01*
X38835Y-23560D02*
X38851Y-23593D01*
X38851Y-23660D01*
X38835Y-23693D01*
X38801Y-23710D01*
X38668Y-23710D01*
X38635Y-23693D01*
X38618Y-23660D01*
X38618Y-23593D01*
X38635Y-23560D01*
X38668Y-23543D01*
X38701Y-23543D01*
X38735Y-23710D01*
X38835Y-23410D02*
X38851Y-23376D01*
X38851Y-23310D01*
X38835Y-23276D01*
X38801Y-23260D01*
X38785Y-23260D01*
X38751Y-23276D01*
X38735Y-23310D01*
X38735Y-23360D01*
X38718Y-23393D01*
X38685Y-23410D01*
X38668Y-23410D01*
X38635Y-23393D01*
X38618Y-23360D01*
X38618Y-23310D01*
X38635Y-23276D01*
X38835Y-23126D02*
X38851Y-23093D01*
X38851Y-23026D01*
X38835Y-22993D01*
X38801Y-22976D01*
X38785Y-22976D01*
X38751Y-22993D01*
X38735Y-23026D01*
X38735Y-23076D01*
X38718Y-23110D01*
X38685Y-23126D01*
X38668Y-23126D01*
X38635Y-23110D01*
X38618Y-23076D01*
X38618Y-23026D01*
X38635Y-22993D01*
X38668Y-22560D02*
X38668Y-22443D01*
X38851Y-22393D02*
X38851Y-22560D01*
X38501Y-22560D01*
X38501Y-22393D01*
X38851Y-22243D02*
X38501Y-22243D01*
X38751Y-22126D01*
X38501Y-22010D01*
X38851Y-22010D01*
X38518Y-21660D02*
X38501Y-21693D01*
X38501Y-21743D01*
X38518Y-21793D01*
X38551Y-21826D01*
X38585Y-21843D01*
X38651Y-21860D01*
X38701Y-21860D01*
X38768Y-21843D01*
X38801Y-21826D01*
X38835Y-21793D01*
X38851Y-21743D01*
X38851Y-21710D01*
X38835Y-21660D01*
X38818Y-21643D01*
X38701Y-21643D01*
X38701Y-21710D01*
X38618Y-21276D02*
X38618Y-21143D01*
X38851Y-21226D02*
X38551Y-21226D01*
X38518Y-21210D01*
X38501Y-21176D01*
X38501Y-21143D01*
X38851Y-21026D02*
X38618Y-21026D01*
X38685Y-21026D02*
X38651Y-21010D01*
X38635Y-20993D01*
X38618Y-20960D01*
X38618Y-20926D01*
X38851Y-20760D02*
X38835Y-20793D01*
X38818Y-20810D01*
X38785Y-20826D01*
X38685Y-20826D01*
X38651Y-20810D01*
X38635Y-20793D01*
X38618Y-20760D01*
X38618Y-20710D01*
X38635Y-20676D01*
X38651Y-20660D01*
X38685Y-20643D01*
X38785Y-20643D01*
X38818Y-20660D01*
X38835Y-20676D01*
X38851Y-20710D01*
X38851Y-20760D01*
X38618Y-20493D02*
X38851Y-20493D01*
X38651Y-20493D02*
X38635Y-20476D01*
X38618Y-20443D01*
X38618Y-20393D01*
X38635Y-20360D01*
X38668Y-20343D01*
X38851Y-20343D01*
X38618Y-20226D02*
X38618Y-20093D01*
X38501Y-20176D02*
X38801Y-20176D01*
X38835Y-20160D01*
X38851Y-20126D01*
X38851Y-20093D01*
X38718Y-19976D02*
X38718Y-19710D01*
X38835Y-19410D02*
X38851Y-19443D01*
X38851Y-19510D01*
X38835Y-19543D01*
X38801Y-19560D01*
X38668Y-19560D01*
X38635Y-19543D01*
X38618Y-19510D01*
X38618Y-19443D01*
X38635Y-19410D01*
X38668Y-19393D01*
X38701Y-19393D01*
X38735Y-19560D01*
X38618Y-19243D02*
X38851Y-19243D01*
X38651Y-19243D02*
X38635Y-19226D01*
X38618Y-19193D01*
X38618Y-19143D01*
X38635Y-19110D01*
X38668Y-19093D01*
X38851Y-19093D01*
X38851Y-18776D02*
X38501Y-18776D01*
X38835Y-18776D02*
X38851Y-18810D01*
X38851Y-18876D01*
X38835Y-18910D01*
X38818Y-18926D01*
X38785Y-18943D01*
X38685Y-18943D01*
X38651Y-18926D01*
X38635Y-18910D01*
X38618Y-18876D01*
X38618Y-18810D01*
X38635Y-18776D01*
G54D12*
X48090Y-17858D02*
X48090Y-17425D01*
X49744Y-18291D02*
X49744Y-17858D01*
X49744Y-17858D02*
X48090Y-17858D01*
X49744Y-18291D02*
X48090Y-18291D01*
X49744Y-17425D02*
X48090Y-17425D01*
X49744Y-17425D02*
X49744Y-16637D01*
X48090Y-18724D02*
X48090Y-18291D01*
X49744Y-19157D02*
X49744Y-18724D01*
X49744Y-18724D02*
X48090Y-18724D01*
X49744Y-19157D02*
X48090Y-19157D01*
X49744Y-20023D02*
X48090Y-20023D01*
X49744Y-19590D02*
X48090Y-19590D01*
X49744Y-20023D02*
X49744Y-19590D01*
X48090Y-19590D02*
X48090Y-19157D01*
X48090Y-20456D02*
X48090Y-20023D01*
X47382Y-20889D02*
X49744Y-20889D01*
X49744Y-20889D02*
X49744Y-20456D01*
X49744Y-20456D02*
X48090Y-20456D01*
X50059Y-16362D02*
X50059Y-21637D01*
X50059Y-21637D02*
X39980Y-21637D01*
X39980Y-16362D02*
X39980Y-21637D01*
X50059Y-16362D02*
X39980Y-16362D01*
X47382Y-16519D02*
X47382Y-21480D01*
X47382Y-21480D02*
X40138Y-21480D01*
X40138Y-16519D02*
X40138Y-21480D01*
X47382Y-16519D02*
X40138Y-16519D01*
G54D10*
X44511Y-24230D02*
X44826Y-24230D01*
X45928Y-24230D02*
X45613Y-24230D01*
X45613Y-23049D02*
X45928Y-23049D01*
X44629Y-23049D02*
X44786Y-23049D01*
X44629Y-23049D02*
X44393Y-23049D01*
X44393Y-23049D02*
X44393Y-23364D01*
G54D13*
X41990Y-24380D02*
X42210Y-24380D01*
X41990Y-24640D02*
X42210Y-24640D01*
X41990Y-24720D02*
X42210Y-24720D01*
X42210Y-24720D02*
X42210Y-24300D01*
X42210Y-24300D02*
X41990Y-24300D01*
X41990Y-24300D02*
X41990Y-24720D01*
G54D14*
X43644Y-27399D02*
X44116Y-27399D01*
X44116Y-27241D02*
X43644Y-27241D01*
X44116Y-26887D02*
X44116Y-27753D01*
X44116Y-27753D02*
X43644Y-27753D01*
X43644Y-27753D02*
X43644Y-26887D01*
X43644Y-26887D02*
X44116Y-26887D01*
G54D13*
X43870Y-25430D02*
X43870Y-25650D01*
X43610Y-25430D02*
X43610Y-25650D01*
X43530Y-25430D02*
X43530Y-25650D01*
X43530Y-25650D02*
X43950Y-25650D01*
X43950Y-25650D02*
X43950Y-25430D01*
X43950Y-25430D02*
X43530Y-25430D01*
X44050Y-26530D02*
X43830Y-26530D01*
X44050Y-26270D02*
X43830Y-26270D01*
X44050Y-26190D02*
X43830Y-26190D01*
X43830Y-26190D02*
X43830Y-26610D01*
X43830Y-26610D02*
X44050Y-26610D01*
X44050Y-26610D02*
X44050Y-26190D01*
X40140Y-25990D02*
X39920Y-25990D01*
X40140Y-25730D02*
X39920Y-25730D01*
X40140Y-25650D02*
X39920Y-25650D01*
X39920Y-25650D02*
X39920Y-26070D01*
X39920Y-26070D02*
X40140Y-26070D01*
X40140Y-26070D02*
X40140Y-25650D01*
X45470Y-22770D02*
X45470Y-22550D01*
X45730Y-22770D02*
X45730Y-22550D01*
X45810Y-22770D02*
X45810Y-22550D01*
X45810Y-22550D02*
X45390Y-22550D01*
X45390Y-22550D02*
X45390Y-22770D01*
X45390Y-22770D02*
X45810Y-22770D01*
X44590Y-22770D02*
X44590Y-22550D01*
X44850Y-22770D02*
X44850Y-22550D01*
X44930Y-22770D02*
X44930Y-22550D01*
X44930Y-22550D02*
X44510Y-22550D01*
X44510Y-22550D02*
X44510Y-22770D01*
X44510Y-22770D02*
X44930Y-22770D01*
X43670Y-26530D02*
X43450Y-26530D01*
X43670Y-26270D02*
X43450Y-26270D01*
X43670Y-26190D02*
X43450Y-26190D01*
X43450Y-26190D02*
X43450Y-26610D01*
X43450Y-26610D02*
X43670Y-26610D01*
X43670Y-26610D02*
X43670Y-26190D01*
G54D15*
X46890Y-21840D02*
X49890Y-21840D01*
X49890Y-21840D02*
X49890Y-23840D01*
X49890Y-23840D02*
X46890Y-23840D01*
X46890Y-22840D02*
X47890Y-22840D01*
X47890Y-22840D02*
X47890Y-23840D01*
X46890Y-21840D02*
X46890Y-23840D01*
G54D12*
X48008Y-26771D02*
X49031Y-26771D01*
X49031Y-24724D02*
X49031Y-27795D01*
X49031Y-27795D02*
X48008Y-27795D01*
X48008Y-27795D02*
X48008Y-24724D01*
X48008Y-24724D02*
X49031Y-24724D01*
X48201Y-28834D02*
X48201Y-28661D01*
X48618Y-28484D02*
X48649Y-28535D01*
X48649Y-28535D02*
X48701Y-28598D01*
X48701Y-28598D02*
X48768Y-28653D01*
X48768Y-28653D02*
X48803Y-28665D01*
X48803Y-28665D02*
X48201Y-28665D01*
X48201Y-28665D02*
X48201Y-28492D01*
X48480Y-28071D02*
X48559Y-28071D01*
X48559Y-28110D02*
X48480Y-28110D01*
X48441Y-28149D02*
X48598Y-28149D01*
X48598Y-28189D02*
X48441Y-28189D01*
X48401Y-28228D02*
X48638Y-28228D01*
X48520Y-27952D02*
X48362Y-28267D01*
X48362Y-28267D02*
X48677Y-28267D01*
X48677Y-28267D02*
X48520Y-27952D01*
G54D10*
X40194Y-27829D02*
X39446Y-27829D01*
X40194Y-26490D02*
X39446Y-26490D01*
G54D13*
X41242Y-25266D02*
X40966Y-25266D01*
X40966Y-25266D02*
X40966Y-25542D01*
X40966Y-25542D02*
X41242Y-25266D01*
X41006Y-27274D02*
X41006Y-25306D01*
X41006Y-25306D02*
X42974Y-25306D01*
X42974Y-25306D02*
X42974Y-27274D01*
X42974Y-27274D02*
X41006Y-27274D01*
X41005Y-25462D02*
X41162Y-25305D01*
X41124Y-25305D02*
X41006Y-25423D01*
X41006Y-25385D02*
X41085Y-25306D01*
G54D16*
X41329Y-25542D02*
G75*
G03X41329Y-25542I-87J0D01*
G74*
G01*
G54D17*
X41290Y-15208D02*
X41290Y-15686D01*
X41318Y-15742D01*
X41346Y-15770D01*
X41402Y-15799D01*
X41515Y-15799D01*
X41571Y-15770D01*
X41599Y-15742D01*
X41627Y-15686D01*
X41627Y-15208D01*
X42161Y-15405D02*
X42161Y-15799D01*
X42021Y-15180D02*
X41880Y-15602D01*
X42246Y-15602D01*
G54D11*
X45530Y-24516D02*
X45530Y-24840D01*
X45549Y-24878D01*
X45568Y-24897D01*
X45606Y-24916D01*
X45682Y-24916D01*
X45720Y-24897D01*
X45739Y-24878D01*
X45758Y-24840D01*
X45758Y-24516D01*
X46120Y-24516D02*
X46044Y-24516D01*
X46006Y-24535D01*
X45987Y-24555D01*
X45949Y-24612D01*
X45930Y-24688D01*
X45930Y-24840D01*
X45949Y-24878D01*
X45968Y-24897D01*
X46006Y-24916D01*
X46082Y-24916D01*
X46120Y-24897D01*
X46139Y-24878D01*
X46158Y-24840D01*
X46158Y-24745D01*
X46139Y-24707D01*
X46120Y-24688D01*
X46082Y-24669D01*
X46006Y-24669D01*
X45968Y-24688D01*
X45949Y-24707D01*
X45930Y-24745D01*
G54D18*
X42090Y-25034D02*
X42070Y-25005D01*
X42055Y-25034D02*
X42055Y-24974D01*
X42078Y-24974D01*
X42084Y-24977D01*
X42087Y-24980D01*
X42090Y-24985D01*
X42090Y-24994D01*
X42087Y-25000D01*
X42084Y-25002D01*
X42078Y-25005D01*
X42055Y-25005D01*
X42110Y-24974D02*
X42147Y-24974D01*
X42127Y-24997D01*
X42135Y-24997D01*
X42141Y-25000D01*
X42144Y-25002D01*
X42147Y-25008D01*
X42147Y-25022D01*
X42144Y-25028D01*
X42141Y-25031D01*
X42135Y-25034D01*
X42118Y-25034D01*
X42112Y-25031D01*
X42110Y-25028D01*
G54D19*
X44459Y-27352D02*
X44459Y-27446D01*
X44263Y-27446D01*
X44459Y-27184D02*
X44459Y-27296D01*
X44459Y-27240D02*
X44263Y-27240D01*
X44291Y-27259D01*
X44310Y-27278D01*
X44319Y-27296D01*
G54D18*
X44284Y-25550D02*
X44255Y-25570D01*
X44284Y-25584D02*
X44224Y-25584D01*
X44224Y-25561D01*
X44227Y-25555D01*
X44230Y-25552D01*
X44235Y-25550D01*
X44244Y-25550D01*
X44250Y-25552D01*
X44252Y-25555D01*
X44255Y-25561D01*
X44255Y-25584D01*
X44224Y-25530D02*
X44224Y-25490D01*
X44284Y-25515D01*
X43910Y-25878D02*
X43907Y-25881D01*
X43898Y-25884D01*
X43892Y-25884D01*
X43884Y-25881D01*
X43878Y-25875D01*
X43875Y-25870D01*
X43872Y-25858D01*
X43872Y-25850D01*
X43875Y-25838D01*
X43878Y-25832D01*
X43884Y-25827D01*
X43892Y-25824D01*
X43898Y-25824D01*
X43907Y-25827D01*
X43910Y-25830D01*
X43967Y-25884D02*
X43932Y-25884D01*
X43950Y-25884D02*
X43950Y-25824D01*
X43944Y-25832D01*
X43938Y-25838D01*
X43932Y-25841D01*
X40238Y-25870D02*
X40241Y-25872D01*
X40244Y-25881D01*
X40244Y-25887D01*
X40241Y-25895D01*
X40235Y-25901D01*
X40230Y-25904D01*
X40218Y-25907D01*
X40210Y-25907D01*
X40198Y-25904D01*
X40192Y-25901D01*
X40187Y-25895D01*
X40184Y-25887D01*
X40184Y-25881D01*
X40187Y-25872D01*
X40190Y-25870D01*
X40184Y-25815D02*
X40184Y-25844D01*
X40212Y-25847D01*
X40210Y-25844D01*
X40207Y-25838D01*
X40207Y-25824D01*
X40210Y-25818D01*
X40212Y-25815D01*
X40218Y-25812D01*
X40232Y-25812D01*
X40238Y-25815D01*
X40241Y-25818D01*
X40244Y-25824D01*
X40244Y-25838D01*
X40241Y-25844D01*
X40238Y-25847D01*
X45561Y-22868D02*
X45558Y-22871D01*
X45550Y-22874D01*
X45544Y-22874D01*
X45535Y-22871D01*
X45530Y-22865D01*
X45527Y-22860D01*
X45524Y-22848D01*
X45524Y-22840D01*
X45527Y-22828D01*
X45530Y-22822D01*
X45535Y-22817D01*
X45544Y-22814D01*
X45550Y-22814D01*
X45558Y-22817D01*
X45561Y-22820D01*
X45584Y-22820D02*
X45587Y-22817D01*
X45592Y-22814D01*
X45607Y-22814D01*
X45612Y-22817D01*
X45615Y-22820D01*
X45618Y-22825D01*
X45618Y-22831D01*
X45615Y-22840D01*
X45581Y-22874D01*
X45618Y-22874D01*
X45675Y-22874D02*
X45641Y-22874D01*
X45658Y-22874D02*
X45658Y-22814D01*
X45652Y-22822D01*
X45647Y-22828D01*
X45641Y-22831D01*
X44681Y-22868D02*
X44678Y-22871D01*
X44670Y-22874D01*
X44664Y-22874D01*
X44655Y-22871D01*
X44650Y-22865D01*
X44647Y-22860D01*
X44644Y-22848D01*
X44644Y-22840D01*
X44647Y-22828D01*
X44650Y-22822D01*
X44655Y-22817D01*
X44664Y-22814D01*
X44670Y-22814D01*
X44678Y-22817D01*
X44681Y-22820D01*
X44704Y-22820D02*
X44707Y-22817D01*
X44712Y-22814D01*
X44727Y-22814D01*
X44732Y-22817D01*
X44735Y-22820D01*
X44738Y-22825D01*
X44738Y-22831D01*
X44735Y-22840D01*
X44701Y-22874D01*
X44738Y-22874D01*
X44775Y-22814D02*
X44781Y-22814D01*
X44787Y-22817D01*
X44790Y-22820D01*
X44792Y-22825D01*
X44795Y-22837D01*
X44795Y-22851D01*
X44792Y-22862D01*
X44790Y-22868D01*
X44787Y-22871D01*
X44781Y-22874D01*
X44775Y-22874D01*
X44770Y-22871D01*
X44767Y-22868D01*
X44764Y-22862D01*
X44761Y-22851D01*
X44761Y-22837D01*
X44764Y-22825D01*
X44767Y-22820D01*
X44770Y-22817D01*
X44775Y-22814D01*
X43550Y-25878D02*
X43547Y-25881D01*
X43538Y-25884D01*
X43532Y-25884D01*
X43524Y-25881D01*
X43518Y-25875D01*
X43515Y-25870D01*
X43512Y-25858D01*
X43512Y-25850D01*
X43515Y-25838D01*
X43518Y-25832D01*
X43524Y-25827D01*
X43532Y-25824D01*
X43538Y-25824D01*
X43547Y-25827D01*
X43550Y-25830D01*
X43572Y-25830D02*
X43575Y-25827D01*
X43581Y-25824D01*
X43595Y-25824D01*
X43601Y-25827D01*
X43604Y-25830D01*
X43607Y-25835D01*
X43607Y-25841D01*
X43604Y-25850D01*
X43570Y-25884D01*
X43607Y-25884D01*
G54D20*
X49134Y-21541D02*
X49134Y-21141D01*
X49287Y-21141D01*
X49325Y-21160D01*
X49344Y-21180D01*
X49363Y-21218D01*
X49363Y-21275D01*
X49344Y-21313D01*
X49325Y-21332D01*
X49287Y-21351D01*
X49134Y-21351D01*
X49496Y-21141D02*
X49744Y-21141D01*
X49610Y-21294D01*
X49668Y-21294D01*
X49706Y-21313D01*
X49725Y-21332D01*
X49744Y-21370D01*
X49744Y-21465D01*
X49725Y-21503D01*
X49706Y-21522D01*
X49668Y-21541D01*
X49553Y-21541D01*
X49515Y-21522D01*
X49496Y-21503D01*
X46651Y-23576D02*
X46251Y-23576D01*
X46613Y-23210D02*
X46632Y-23226D01*
X46651Y-23276D01*
X46651Y-23310D01*
X46632Y-23360D01*
X46594Y-23393D01*
X46556Y-23410D01*
X46480Y-23426D01*
X46423Y-23426D01*
X46347Y-23410D01*
X46309Y-23393D01*
X46270Y-23360D01*
X46251Y-23310D01*
X46251Y-23276D01*
X46270Y-23226D01*
X46290Y-23210D01*
X46632Y-23076D02*
X46651Y-23026D01*
X46651Y-22943D01*
X46632Y-22910D01*
X46613Y-22893D01*
X46575Y-22876D01*
X46537Y-22876D01*
X46499Y-22893D01*
X46480Y-22910D01*
X46461Y-22943D01*
X46442Y-23010D01*
X46423Y-23043D01*
X46404Y-23060D01*
X46366Y-23076D01*
X46328Y-23076D01*
X46290Y-23060D01*
X46270Y-23043D01*
X46251Y-23010D01*
X46251Y-22926D01*
X46270Y-22876D01*
X46651Y-22726D02*
X46251Y-22726D01*
X46251Y-22593D01*
X46270Y-22560D01*
X46290Y-22543D01*
X46328Y-22526D01*
X46385Y-22526D01*
X46423Y-22543D01*
X46442Y-22560D01*
X46461Y-22593D01*
X46461Y-22726D01*
G54D21*
X49659Y-27370D02*
X49266Y-27370D01*
X49266Y-27220D01*
X49284Y-27182D01*
X49303Y-27164D01*
X49340Y-27145D01*
X49397Y-27145D01*
X49434Y-27164D01*
X49453Y-27182D01*
X49471Y-27220D01*
X49471Y-27370D01*
X49397Y-26808D02*
X49659Y-26808D01*
X49247Y-26902D02*
X49528Y-26995D01*
X49528Y-26752D01*
G54D22*
X46819Y-26875D02*
X46819Y-26745D01*
X47025Y-26689D02*
X47025Y-26875D01*
X46633Y-26875D01*
X46633Y-26689D01*
X47025Y-26334D02*
X47025Y-26521D01*
X46633Y-26521D01*
X46819Y-26203D02*
X46819Y-26073D01*
X47025Y-26017D02*
X47025Y-26203D01*
X46633Y-26203D01*
X46633Y-26017D01*
X46987Y-25625D02*
X47006Y-25644D01*
X47025Y-25700D01*
X47025Y-25737D01*
X47006Y-25793D01*
X46969Y-25830D01*
X46931Y-25849D01*
X46857Y-25868D01*
X46801Y-25868D01*
X46726Y-25849D01*
X46689Y-25830D01*
X46651Y-25793D01*
X46633Y-25737D01*
X46633Y-25700D01*
X46651Y-25644D01*
X46670Y-25625D01*
G54D10*
X38906Y-27347D02*
X39093Y-27347D01*
X38700Y-27478D02*
X38906Y-27347D01*
X38700Y-27216D01*
X39093Y-26878D02*
X39093Y-27103D01*
X39093Y-26991D02*
X38700Y-26991D01*
X38756Y-27028D01*
X38793Y-27066D01*
X38812Y-27103D01*
G54D23*
X43235Y-26409D02*
X43362Y-26409D01*
X43377Y-26402D01*
X43385Y-26394D01*
X43392Y-26379D01*
X43392Y-26349D01*
X43385Y-26334D01*
X43377Y-26327D01*
X43362Y-26319D01*
X43235Y-26319D01*
X43392Y-26162D02*
X43392Y-26252D01*
X43392Y-26207D02*
X43235Y-26207D01*
X43257Y-26222D01*
X43272Y-26237D01*
X43280Y-26252D01*
G54D24*
X40631Y-26996D02*
X40631Y-26921D01*
X40676Y-27011D02*
X40519Y-26959D01*
X40676Y-26906D01*
X40519Y-26876D02*
X40519Y-26787D01*
X40676Y-26832D02*
X40519Y-26832D01*
X40676Y-26734D02*
X40519Y-26734D01*
X40631Y-26682D01*
X40519Y-26630D01*
X40676Y-26630D01*
X40594Y-26555D02*
X40594Y-26503D01*
X40676Y-26480D02*
X40676Y-26555D01*
X40519Y-26555D01*
X40519Y-26480D01*
X40527Y-26331D02*
X40519Y-26346D01*
X40519Y-26368D01*
X40527Y-26390D01*
X40541Y-26405D01*
X40556Y-26413D01*
X40586Y-26420D01*
X40609Y-26420D01*
X40639Y-26413D01*
X40654Y-26405D01*
X40669Y-26390D01*
X40676Y-26368D01*
X40676Y-26353D01*
X40669Y-26331D01*
X40661Y-26323D01*
X40609Y-26323D01*
X40609Y-26353D01*
X40631Y-26263D02*
X40631Y-26189D01*
X40676Y-26278D02*
X40519Y-26226D01*
X40676Y-26174D01*
X40519Y-26136D02*
X40519Y-26039D01*
X40579Y-26091D01*
X40579Y-26069D01*
X40586Y-26054D01*
X40594Y-26047D01*
X40609Y-26039D01*
X40646Y-26039D01*
X40661Y-26047D01*
X40669Y-26054D01*
X40676Y-26069D01*
X40676Y-26114D01*
X40669Y-26129D01*
X40661Y-26136D01*
X40534Y-25979D02*
X40527Y-25972D01*
X40519Y-25957D01*
X40519Y-25919D01*
X40527Y-25904D01*
X40534Y-25897D01*
X40549Y-25890D01*
X40564Y-25890D01*
X40586Y-25897D01*
X40676Y-25987D01*
X40676Y-25890D01*
X40586Y-25800D02*
X40579Y-25815D01*
X40571Y-25822D01*
X40556Y-25830D01*
X40549Y-25830D01*
X40534Y-25822D01*
X40527Y-25815D01*
X40519Y-25800D01*
X40519Y-25770D01*
X40527Y-25755D01*
X40534Y-25747D01*
X40549Y-25740D01*
X40556Y-25740D01*
X40571Y-25747D01*
X40579Y-25755D01*
X40586Y-25770D01*
X40586Y-25800D01*
X40594Y-25815D01*
X40601Y-25822D01*
X40616Y-25830D01*
X40646Y-25830D01*
X40661Y-25822D01*
X40669Y-25815D01*
X40676Y-25800D01*
X40676Y-25770D01*
X40669Y-25755D01*
X40661Y-25747D01*
X40646Y-25740D01*
X40616Y-25740D01*
X40601Y-25747D01*
X40594Y-25755D01*
X40586Y-25770D01*
X40676Y-25673D02*
X40519Y-25673D01*
X40519Y-25613D01*
X40527Y-25598D01*
X40534Y-25590D01*
X40549Y-25583D01*
X40571Y-25583D01*
X40586Y-25590D01*
X40594Y-25598D01*
X40601Y-25613D01*
X40601Y-25673D01*
M02*
