M48
;DRILL file {Pcbnew (2013-05-31 BZR 4019)-stable} date 7/3/2014 2:31:21 PM
;FORMAT={-:-/ absolute / inch / decimal}
FMAT,2
INCH,TZ
T1C0.012
T2C0.039
T3C0.125
%
G90
G05
M72
T1
X3.892Y-1.772
X3.929Y-2.025
X3.94Y-2.114
X3.96Y-2.61
X4.017Y-2.409
X4.036Y-2.362
X4.104Y-1.71
X4.128Y-2.455
X4.141Y-1.973
X4.148Y-2.651
X4.17Y-2.685
X4.192Y-2.297
X4.199Y-2.373
X4.232Y-2.364
X4.237Y-2.684
X4.239Y-2.614
X4.252Y-2.445
X4.26Y-2.403
X4.263Y-1.543
X4.266Y-2.268
X4.268Y-2.234
X4.268Y-2.478
X4.283Y-2.76
X4.322Y-2.478
X4.324Y-2.358
X4.334Y-2.518
X4.341Y-2.764
X4.418Y-2.384
X4.424Y-2.554
X4.428Y-2.615
X4.438Y-1.73
X4.442Y-2.816
X4.45Y-2.5
X4.454Y-2.668
X4.473Y-2.092
X4.48Y-2.7
X4.485Y-2.855
X4.492Y-1.694
X4.52Y-2.636
X4.53Y-2.372
X4.532Y-2.855
X4.561Y-2.23
X4.572Y-2.544
X4.592Y-2.859
X4.599Y-2.231
X4.624Y-2.37
X4.625Y-2.612
X4.628Y-1.926
X4.634Y-2.883
X4.636Y-2.324
X4.646Y-2.664
X4.664Y-2.63
X4.681Y-2.45
X4.786Y-2.651
X4.799Y-2.864
X4.828Y-2.618
X4.866Y-2.678
X4.878Y-2.519
T2
X4.739Y-2.234
X4.739Y-2.334
X4.839Y-2.234
X4.839Y-2.334
X4.939Y-2.234
X4.939Y-2.334
T3
X3.852Y-1.63
T0
M30
