G04 (created by PCBNEW (2013-05-31 BZR 4019)-stable) date 6/2/2014 4:22:05 PM*
%MOIN*%
G04 Gerber Fmt 3.4, Leading zero omitted, Abs format*
%FSLAX34Y34*%
G01*
G70*
G90*
G04 APERTURE LIST*
%ADD10C,0.00590551*%
%ADD11C,0.007*%
%ADD12C,0.011811*%
G04 APERTURE END LIST*
G54D10*
G54D11*
X85841Y-38810D02*
X85841Y-39401D01*
X86038Y-38979D01*
X86235Y-39401D01*
X86235Y-38810D01*
X86769Y-39204D02*
X86769Y-38810D01*
X86516Y-39204D02*
X86516Y-38895D01*
X86544Y-38839D01*
X86600Y-38810D01*
X86684Y-38810D01*
X86741Y-38839D01*
X86769Y-38867D01*
X87022Y-38839D02*
X87078Y-38810D01*
X87191Y-38810D01*
X87247Y-38839D01*
X87275Y-38895D01*
X87275Y-38923D01*
X87247Y-38979D01*
X87191Y-39007D01*
X87106Y-39007D01*
X87050Y-39035D01*
X87022Y-39092D01*
X87022Y-39120D01*
X87050Y-39176D01*
X87106Y-39204D01*
X87191Y-39204D01*
X87247Y-39176D01*
X87781Y-38839D02*
X87725Y-38810D01*
X87612Y-38810D01*
X87556Y-38839D01*
X87528Y-38867D01*
X87500Y-38923D01*
X87500Y-39092D01*
X87528Y-39148D01*
X87556Y-39176D01*
X87612Y-39204D01*
X87725Y-39204D01*
X87781Y-39176D01*
X88119Y-38810D02*
X88062Y-38839D01*
X88034Y-38895D01*
X88034Y-39401D01*
X88569Y-38839D02*
X88512Y-38810D01*
X88400Y-38810D01*
X88344Y-38839D01*
X88316Y-38895D01*
X88316Y-39120D01*
X88344Y-39176D01*
X88400Y-39204D01*
X88512Y-39204D01*
X88569Y-39176D01*
X88597Y-39120D01*
X88597Y-39064D01*
X88316Y-39007D01*
X89047Y-39120D02*
X89131Y-39092D01*
X89159Y-39064D01*
X89187Y-39007D01*
X89187Y-38923D01*
X89159Y-38867D01*
X89131Y-38839D01*
X89075Y-38810D01*
X88850Y-38810D01*
X88850Y-39401D01*
X89047Y-39401D01*
X89103Y-39373D01*
X89131Y-39345D01*
X89159Y-39289D01*
X89159Y-39232D01*
X89131Y-39176D01*
X89103Y-39148D01*
X89047Y-39120D01*
X88850Y-39120D01*
X89525Y-38810D02*
X89469Y-38839D01*
X89440Y-38867D01*
X89412Y-38923D01*
X89412Y-39092D01*
X89440Y-39148D01*
X89469Y-39176D01*
X89525Y-39204D01*
X89609Y-39204D01*
X89665Y-39176D01*
X89693Y-39148D01*
X89722Y-39092D01*
X89722Y-38923D01*
X89693Y-38867D01*
X89665Y-38839D01*
X89609Y-38810D01*
X89525Y-38810D01*
X90228Y-38810D02*
X90228Y-39120D01*
X90200Y-39176D01*
X90143Y-39204D01*
X90031Y-39204D01*
X89975Y-39176D01*
X90228Y-38839D02*
X90172Y-38810D01*
X90031Y-38810D01*
X89975Y-38839D01*
X89947Y-38895D01*
X89947Y-38951D01*
X89975Y-39007D01*
X90031Y-39035D01*
X90172Y-39035D01*
X90228Y-39064D01*
X90509Y-38810D02*
X90509Y-39204D01*
X90509Y-39092D02*
X90537Y-39148D01*
X90565Y-39176D01*
X90621Y-39204D01*
X90678Y-39204D01*
X91128Y-38810D02*
X91128Y-39401D01*
X91128Y-38839D02*
X91071Y-38810D01*
X90959Y-38810D01*
X90903Y-38839D01*
X90875Y-38867D01*
X90846Y-38923D01*
X90846Y-39092D01*
X90875Y-39148D01*
X90903Y-39176D01*
X90959Y-39204D01*
X91071Y-39204D01*
X91128Y-39176D01*
X91409Y-38867D02*
X91437Y-38839D01*
X91409Y-38810D01*
X91381Y-38839D01*
X91409Y-38867D01*
X91409Y-38810D01*
X91409Y-39176D02*
X91437Y-39148D01*
X91409Y-39120D01*
X91381Y-39148D01*
X91409Y-39176D01*
X91409Y-39120D01*
X81201Y-38082D02*
X81482Y-38082D01*
X81145Y-37914D02*
X81341Y-38504D01*
X81538Y-37914D01*
X81735Y-37914D02*
X81735Y-38307D01*
X81735Y-38195D02*
X81763Y-38251D01*
X81791Y-38279D01*
X81848Y-38307D01*
X81904Y-38307D01*
X82354Y-37914D02*
X82354Y-38504D01*
X82354Y-37942D02*
X82298Y-37914D01*
X82185Y-37914D01*
X82129Y-37942D01*
X82101Y-37970D01*
X82073Y-38026D01*
X82073Y-38195D01*
X82101Y-38251D01*
X82129Y-38279D01*
X82185Y-38307D01*
X82298Y-38307D01*
X82354Y-38279D01*
X82888Y-38307D02*
X82888Y-37914D01*
X82635Y-38307D02*
X82635Y-37998D01*
X82663Y-37942D01*
X82719Y-37914D01*
X82804Y-37914D01*
X82860Y-37942D01*
X82888Y-37970D01*
X83169Y-37914D02*
X83169Y-38307D01*
X83169Y-38504D02*
X83141Y-38476D01*
X83169Y-38448D01*
X83197Y-38476D01*
X83169Y-38504D01*
X83169Y-38448D01*
X83451Y-38307D02*
X83451Y-37914D01*
X83451Y-38251D02*
X83479Y-38279D01*
X83535Y-38307D01*
X83619Y-38307D01*
X83675Y-38279D01*
X83704Y-38223D01*
X83704Y-37914D01*
X84069Y-37914D02*
X84013Y-37942D01*
X83985Y-37970D01*
X83957Y-38026D01*
X83957Y-38195D01*
X83985Y-38251D01*
X84013Y-38279D01*
X84069Y-38307D01*
X84154Y-38307D01*
X84210Y-38279D01*
X84238Y-38251D01*
X84266Y-38195D01*
X84266Y-38026D01*
X84238Y-37970D01*
X84210Y-37942D01*
X84154Y-37914D01*
X84069Y-37914D01*
X84969Y-37914D02*
X84969Y-38504D01*
X85250Y-37914D02*
X85250Y-38504D01*
X85391Y-38504D01*
X85475Y-38476D01*
X85532Y-38420D01*
X85560Y-38364D01*
X85588Y-38251D01*
X85588Y-38167D01*
X85560Y-38054D01*
X85532Y-37998D01*
X85475Y-37942D01*
X85391Y-37914D01*
X85250Y-37914D01*
X85841Y-38223D02*
X86038Y-38223D01*
X86122Y-37914D02*
X85841Y-37914D01*
X85841Y-38504D01*
X86122Y-38504D01*
X87078Y-37942D02*
X87022Y-37914D01*
X86909Y-37914D01*
X86853Y-37942D01*
X86825Y-37970D01*
X86797Y-38026D01*
X86797Y-38195D01*
X86825Y-38251D01*
X86853Y-38279D01*
X86909Y-38307D01*
X87022Y-38307D01*
X87078Y-38279D01*
X87416Y-37914D02*
X87359Y-37942D01*
X87331Y-37970D01*
X87303Y-38026D01*
X87303Y-38195D01*
X87331Y-38251D01*
X87359Y-38279D01*
X87416Y-38307D01*
X87500Y-38307D01*
X87556Y-38279D01*
X87584Y-38251D01*
X87612Y-38195D01*
X87612Y-38026D01*
X87584Y-37970D01*
X87556Y-37942D01*
X87500Y-37914D01*
X87416Y-37914D01*
X87866Y-37914D02*
X87866Y-38307D01*
X87866Y-38251D02*
X87894Y-38279D01*
X87950Y-38307D01*
X88034Y-38307D01*
X88091Y-38279D01*
X88119Y-38223D01*
X88119Y-37914D01*
X88119Y-38223D02*
X88147Y-38279D01*
X88203Y-38307D01*
X88287Y-38307D01*
X88344Y-38279D01*
X88372Y-38223D01*
X88372Y-37914D01*
X88653Y-38307D02*
X88653Y-37717D01*
X88653Y-38279D02*
X88709Y-38307D01*
X88822Y-38307D01*
X88878Y-38279D01*
X88906Y-38251D01*
X88934Y-38195D01*
X88934Y-38026D01*
X88906Y-37970D01*
X88878Y-37942D01*
X88822Y-37914D01*
X88709Y-37914D01*
X88653Y-37942D01*
X89440Y-37914D02*
X89440Y-38223D01*
X89412Y-38279D01*
X89356Y-38307D01*
X89244Y-38307D01*
X89187Y-38279D01*
X89440Y-37942D02*
X89384Y-37914D01*
X89244Y-37914D01*
X89187Y-37942D01*
X89159Y-37998D01*
X89159Y-38054D01*
X89187Y-38111D01*
X89244Y-38139D01*
X89384Y-38139D01*
X89440Y-38167D01*
X89637Y-38307D02*
X89862Y-38307D01*
X89722Y-38504D02*
X89722Y-37998D01*
X89750Y-37942D01*
X89806Y-37914D01*
X89862Y-37914D01*
X90059Y-37914D02*
X90059Y-38307D01*
X90059Y-38504D02*
X90031Y-38476D01*
X90059Y-38448D01*
X90087Y-38476D01*
X90059Y-38504D01*
X90059Y-38448D01*
X90340Y-37914D02*
X90340Y-38504D01*
X90340Y-38279D02*
X90397Y-38307D01*
X90509Y-38307D01*
X90565Y-38279D01*
X90593Y-38251D01*
X90621Y-38195D01*
X90621Y-38026D01*
X90593Y-37970D01*
X90565Y-37942D01*
X90509Y-37914D01*
X90397Y-37914D01*
X90340Y-37942D01*
X90959Y-37914D02*
X90903Y-37942D01*
X90875Y-37998D01*
X90875Y-38504D01*
X91409Y-37942D02*
X91353Y-37914D01*
X91240Y-37914D01*
X91184Y-37942D01*
X91156Y-37998D01*
X91156Y-38223D01*
X91184Y-38279D01*
X91240Y-38307D01*
X91353Y-38307D01*
X91409Y-38279D01*
X91437Y-38223D01*
X91437Y-38167D01*
X91156Y-38111D01*
X82551Y-37551D02*
X82579Y-37579D01*
X82635Y-37607D01*
X82776Y-37607D01*
X82832Y-37579D01*
X82860Y-37551D01*
X82888Y-37495D01*
X82888Y-37439D01*
X82860Y-37354D01*
X82523Y-37017D01*
X82888Y-37017D01*
X83141Y-37242D02*
X83591Y-37242D01*
X84125Y-37045D02*
X84069Y-37017D01*
X83957Y-37017D01*
X83900Y-37045D01*
X83872Y-37073D01*
X83844Y-37129D01*
X83844Y-37298D01*
X83872Y-37354D01*
X83900Y-37383D01*
X83957Y-37411D01*
X84069Y-37411D01*
X84125Y-37383D01*
X84379Y-37017D02*
X84379Y-37607D01*
X84632Y-37017D02*
X84632Y-37326D01*
X84603Y-37383D01*
X84547Y-37411D01*
X84463Y-37411D01*
X84407Y-37383D01*
X84379Y-37354D01*
X85166Y-37017D02*
X85166Y-37326D01*
X85138Y-37383D01*
X85082Y-37411D01*
X84969Y-37411D01*
X84913Y-37383D01*
X85166Y-37045D02*
X85110Y-37017D01*
X84969Y-37017D01*
X84913Y-37045D01*
X84885Y-37101D01*
X84885Y-37158D01*
X84913Y-37214D01*
X84969Y-37242D01*
X85110Y-37242D01*
X85166Y-37270D01*
X85447Y-37411D02*
X85447Y-37017D01*
X85447Y-37354D02*
X85475Y-37383D01*
X85532Y-37411D01*
X85616Y-37411D01*
X85672Y-37383D01*
X85700Y-37326D01*
X85700Y-37017D01*
X85981Y-37411D02*
X85981Y-37017D01*
X85981Y-37354D02*
X86010Y-37383D01*
X86066Y-37411D01*
X86150Y-37411D01*
X86206Y-37383D01*
X86235Y-37326D01*
X86235Y-37017D01*
X86741Y-37045D02*
X86684Y-37017D01*
X86572Y-37017D01*
X86516Y-37045D01*
X86488Y-37101D01*
X86488Y-37326D01*
X86516Y-37383D01*
X86572Y-37411D01*
X86684Y-37411D01*
X86741Y-37383D01*
X86769Y-37326D01*
X86769Y-37270D01*
X86488Y-37214D01*
X87106Y-37017D02*
X87050Y-37045D01*
X87022Y-37101D01*
X87022Y-37607D01*
X87725Y-37411D02*
X87837Y-37017D01*
X87950Y-37298D01*
X88062Y-37017D01*
X88175Y-37411D01*
X88625Y-37045D02*
X88569Y-37017D01*
X88456Y-37017D01*
X88400Y-37045D01*
X88372Y-37101D01*
X88372Y-37326D01*
X88400Y-37383D01*
X88456Y-37411D01*
X88569Y-37411D01*
X88625Y-37383D01*
X88653Y-37326D01*
X88653Y-37270D01*
X88372Y-37214D01*
X89159Y-37017D02*
X89159Y-37326D01*
X89131Y-37383D01*
X89075Y-37411D01*
X88962Y-37411D01*
X88906Y-37383D01*
X89159Y-37045D02*
X89103Y-37017D01*
X88962Y-37017D01*
X88906Y-37045D01*
X88878Y-37101D01*
X88878Y-37158D01*
X88906Y-37214D01*
X88962Y-37242D01*
X89103Y-37242D01*
X89159Y-37270D01*
X89440Y-37017D02*
X89440Y-37411D01*
X89440Y-37298D02*
X89469Y-37354D01*
X89497Y-37383D01*
X89553Y-37411D01*
X89609Y-37411D01*
X90059Y-37017D02*
X90059Y-37326D01*
X90031Y-37383D01*
X89975Y-37411D01*
X89862Y-37411D01*
X89806Y-37383D01*
X90059Y-37045D02*
X90003Y-37017D01*
X89862Y-37017D01*
X89806Y-37045D01*
X89778Y-37101D01*
X89778Y-37158D01*
X89806Y-37214D01*
X89862Y-37242D01*
X90003Y-37242D01*
X90059Y-37270D01*
X90340Y-37017D02*
X90340Y-37607D01*
X90340Y-37383D02*
X90397Y-37411D01*
X90509Y-37411D01*
X90565Y-37383D01*
X90593Y-37354D01*
X90621Y-37298D01*
X90621Y-37129D01*
X90593Y-37073D01*
X90565Y-37045D01*
X90509Y-37017D01*
X90397Y-37017D01*
X90340Y-37045D01*
X90959Y-37017D02*
X90903Y-37045D01*
X90875Y-37101D01*
X90875Y-37607D01*
X91409Y-37045D02*
X91353Y-37017D01*
X91240Y-37017D01*
X91184Y-37045D01*
X91156Y-37101D01*
X91156Y-37326D01*
X91184Y-37383D01*
X91240Y-37411D01*
X91353Y-37411D01*
X91409Y-37383D01*
X91437Y-37326D01*
X91437Y-37270D01*
X91156Y-37214D01*
X84603Y-36429D02*
X84800Y-36429D01*
X84885Y-36120D02*
X84603Y-36120D01*
X84603Y-36711D01*
X84885Y-36711D01*
X85138Y-36120D02*
X85138Y-36711D01*
X85335Y-36289D01*
X85532Y-36711D01*
X85532Y-36120D01*
X86122Y-36683D02*
X86066Y-36711D01*
X85981Y-36711D01*
X85897Y-36683D01*
X85841Y-36626D01*
X85813Y-36570D01*
X85785Y-36458D01*
X85785Y-36373D01*
X85813Y-36261D01*
X85841Y-36205D01*
X85897Y-36148D01*
X85981Y-36120D01*
X86038Y-36120D01*
X86122Y-36148D01*
X86150Y-36176D01*
X86150Y-36373D01*
X86038Y-36373D01*
X86825Y-36739D02*
X86319Y-35980D01*
X87022Y-36429D02*
X87219Y-36429D01*
X87303Y-36120D02*
X87022Y-36120D01*
X87022Y-36711D01*
X87303Y-36711D01*
X87894Y-36176D02*
X87866Y-36148D01*
X87781Y-36120D01*
X87725Y-36120D01*
X87641Y-36148D01*
X87584Y-36205D01*
X87556Y-36261D01*
X87528Y-36373D01*
X87528Y-36458D01*
X87556Y-36570D01*
X87584Y-36626D01*
X87641Y-36683D01*
X87725Y-36711D01*
X87781Y-36711D01*
X87866Y-36683D01*
X87894Y-36654D01*
X88456Y-36683D02*
X88400Y-36711D01*
X88316Y-36711D01*
X88231Y-36683D01*
X88175Y-36626D01*
X88147Y-36570D01*
X88119Y-36458D01*
X88119Y-36373D01*
X88147Y-36261D01*
X88175Y-36205D01*
X88231Y-36148D01*
X88316Y-36120D01*
X88372Y-36120D01*
X88456Y-36148D01*
X88484Y-36176D01*
X88484Y-36373D01*
X88372Y-36373D01*
X89187Y-36120D02*
X89187Y-36711D01*
X89187Y-36486D02*
X89244Y-36514D01*
X89356Y-36514D01*
X89412Y-36486D01*
X89440Y-36458D01*
X89469Y-36401D01*
X89469Y-36233D01*
X89440Y-36176D01*
X89412Y-36148D01*
X89356Y-36120D01*
X89244Y-36120D01*
X89187Y-36148D01*
X89806Y-36120D02*
X89750Y-36148D01*
X89722Y-36176D01*
X89693Y-36233D01*
X89693Y-36401D01*
X89722Y-36458D01*
X89750Y-36486D01*
X89806Y-36514D01*
X89890Y-36514D01*
X89947Y-36486D01*
X89975Y-36458D01*
X90003Y-36401D01*
X90003Y-36233D01*
X89975Y-36176D01*
X89947Y-36148D01*
X89890Y-36120D01*
X89806Y-36120D01*
X90509Y-36120D02*
X90509Y-36429D01*
X90481Y-36486D01*
X90425Y-36514D01*
X90312Y-36514D01*
X90256Y-36486D01*
X90509Y-36148D02*
X90453Y-36120D01*
X90312Y-36120D01*
X90256Y-36148D01*
X90228Y-36205D01*
X90228Y-36261D01*
X90256Y-36317D01*
X90312Y-36345D01*
X90453Y-36345D01*
X90509Y-36373D01*
X90790Y-36120D02*
X90790Y-36514D01*
X90790Y-36401D02*
X90818Y-36458D01*
X90846Y-36486D01*
X90903Y-36514D01*
X90959Y-36514D01*
X91409Y-36120D02*
X91409Y-36711D01*
X91409Y-36148D02*
X91353Y-36120D01*
X91240Y-36120D01*
X91184Y-36148D01*
X91156Y-36176D01*
X91128Y-36233D01*
X91128Y-36401D01*
X91156Y-36458D01*
X91184Y-36486D01*
X91240Y-36514D01*
X91353Y-36514D01*
X91409Y-36486D01*
X89525Y-34327D02*
X89328Y-34608D01*
X89187Y-34327D02*
X89187Y-34917D01*
X89412Y-34917D01*
X89469Y-34889D01*
X89497Y-34861D01*
X89525Y-34805D01*
X89525Y-34720D01*
X89497Y-34664D01*
X89469Y-34636D01*
X89412Y-34608D01*
X89187Y-34608D01*
X90003Y-34355D02*
X89947Y-34327D01*
X89834Y-34327D01*
X89778Y-34355D01*
X89750Y-34411D01*
X89750Y-34636D01*
X89778Y-34692D01*
X89834Y-34720D01*
X89947Y-34720D01*
X90003Y-34692D01*
X90031Y-34636D01*
X90031Y-34580D01*
X89750Y-34523D01*
X90228Y-34720D02*
X90368Y-34327D01*
X90509Y-34720D01*
X91156Y-34495D02*
X91437Y-34495D01*
X91100Y-34327D02*
X91296Y-34917D01*
X91493Y-34327D01*
G54D12*
X80491Y-33651D02*
X80856Y-33651D01*
X80659Y-33426D01*
X80744Y-33426D01*
X80800Y-33398D01*
X80828Y-33370D01*
X80856Y-33314D01*
X80856Y-33173D01*
X80828Y-33117D01*
X80800Y-33089D01*
X80744Y-33060D01*
X80575Y-33060D01*
X80519Y-33089D01*
X80491Y-33117D01*
X81109Y-33117D02*
X81138Y-33089D01*
X81109Y-33060D01*
X81081Y-33089D01*
X81109Y-33117D01*
X81109Y-33060D01*
X81334Y-33651D02*
X81728Y-33651D01*
X81475Y-33060D01*
X81869Y-33651D02*
X82066Y-33060D01*
X82262Y-33651D01*
X83190Y-33060D02*
X82909Y-33060D01*
X82909Y-33651D01*
X83387Y-33060D02*
X83387Y-33651D01*
X84006Y-33060D02*
X83809Y-33342D01*
X83668Y-33060D02*
X83668Y-33651D01*
X83893Y-33651D01*
X83950Y-33623D01*
X83978Y-33595D01*
X84006Y-33539D01*
X84006Y-33454D01*
X83978Y-33398D01*
X83950Y-33370D01*
X83893Y-33342D01*
X83668Y-33342D01*
X84709Y-33060D02*
X84709Y-33651D01*
X84709Y-33426D02*
X84765Y-33454D01*
X84878Y-33454D01*
X84934Y-33426D01*
X84962Y-33398D01*
X84990Y-33342D01*
X84990Y-33173D01*
X84962Y-33117D01*
X84934Y-33089D01*
X84878Y-33060D01*
X84765Y-33060D01*
X84709Y-33089D01*
X85496Y-33060D02*
X85496Y-33370D01*
X85468Y-33426D01*
X85412Y-33454D01*
X85300Y-33454D01*
X85243Y-33426D01*
X85496Y-33089D02*
X85440Y-33060D01*
X85300Y-33060D01*
X85243Y-33089D01*
X85215Y-33145D01*
X85215Y-33201D01*
X85243Y-33257D01*
X85300Y-33285D01*
X85440Y-33285D01*
X85496Y-33314D01*
X85693Y-33454D02*
X85918Y-33454D01*
X85778Y-33651D02*
X85778Y-33145D01*
X85806Y-33089D01*
X85862Y-33060D01*
X85918Y-33060D01*
X86031Y-33454D02*
X86256Y-33454D01*
X86115Y-33651D02*
X86115Y-33145D01*
X86143Y-33089D01*
X86199Y-33060D01*
X86256Y-33060D01*
X86677Y-33089D02*
X86621Y-33060D01*
X86509Y-33060D01*
X86452Y-33089D01*
X86424Y-33145D01*
X86424Y-33370D01*
X86452Y-33426D01*
X86509Y-33454D01*
X86621Y-33454D01*
X86677Y-33426D01*
X86706Y-33370D01*
X86706Y-33314D01*
X86424Y-33257D01*
X86959Y-33060D02*
X86959Y-33454D01*
X86959Y-33342D02*
X86987Y-33398D01*
X87015Y-33426D01*
X87071Y-33454D01*
X87127Y-33454D01*
X87268Y-33454D02*
X87409Y-33060D01*
X87549Y-33454D02*
X87409Y-33060D01*
X87352Y-32920D01*
X87324Y-32892D01*
X87268Y-32864D01*
X88308Y-33060D02*
X88252Y-33089D01*
X88224Y-33117D01*
X88196Y-33173D01*
X88196Y-33342D01*
X88224Y-33398D01*
X88252Y-33426D01*
X88308Y-33454D01*
X88393Y-33454D01*
X88449Y-33426D01*
X88477Y-33398D01*
X88505Y-33342D01*
X88505Y-33173D01*
X88477Y-33117D01*
X88449Y-33089D01*
X88393Y-33060D01*
X88308Y-33060D01*
X88758Y-33454D02*
X88758Y-33060D01*
X88758Y-33398D02*
X88787Y-33426D01*
X88843Y-33454D01*
X88927Y-33454D01*
X88983Y-33426D01*
X89012Y-33370D01*
X89012Y-33060D01*
X89377Y-33060D02*
X89321Y-33089D01*
X89293Y-33145D01*
X89293Y-33651D01*
X89546Y-33454D02*
X89686Y-33060D01*
X89827Y-33454D02*
X89686Y-33060D01*
X89630Y-32920D01*
X89602Y-32892D01*
X89546Y-32864D01*
X90052Y-33117D02*
X90080Y-33089D01*
X90052Y-33060D01*
X90024Y-33089D01*
X90052Y-33117D01*
X90052Y-33060D01*
X90052Y-33285D02*
X90024Y-33623D01*
X90052Y-33651D01*
X90080Y-33623D01*
X90052Y-33285D01*
X90052Y-33651D01*
M02*
