G04 (created by PCBNEW (2013-05-31 BZR 4019)-stable) date 6/2/2014 4:07:52 PM*
%MOIN*%
G04 Gerber Fmt 3.4, Leading zero omitted, Abs format*
%FSLAX34Y34*%
G01*
G70*
G90*
G04 APERTURE LIST*
%ADD10C,0.00590551*%
%ADD11C,0.0394*%
%ADD12R,0.0315X0.0275*%
%ADD13R,0.025X0.04*%
%ADD14R,0.0944882X0.0669291*%
%ADD15R,0.0275X0.0315*%
%ADD16R,0.015748X0.0259843*%
%ADD17R,0.0551181X0.0314961*%
%ADD18R,0.0314961X0.0551181*%
%ADD19R,0.0275X0.0235*%
%ADD20R,0.0787X0.06*%
%ADD21O,0.0787X0.06*%
%ADD22R,0.011811X0.0364173*%
%ADD23R,0.0314961X0.011811*%
%ADD24R,0.0315X0.0138*%
%ADD25R,0.0138X0.0315*%
%ADD26R,0.00787402X0.0314961*%
%ADD27R,0.0314961X0.00787402*%
%ADD28R,0.0984252X0.0472441*%
%ADD29R,0.23622X0.216535*%
%ADD30R,0.314961X0.314961*%
%ADD31R,0.0394X0.0354*%
%ADD32R,0.0354X0.0394*%
%ADD33R,0.015748X0.0187008*%
%ADD34R,0.0393701X0.0413386*%
%ADD35R,0.0110236X0.0295276*%
%ADD36R,0.0110236X0.0334646*%
%ADD37C,0.045*%
%ADD38C,0.1875*%
%ADD39O,0.0590551X0.0787402*%
%ADD40R,0.0590551X0.0787402*%
%ADD41C,0.028*%
%ADD42C,0.018*%
%ADD43C,0.007*%
%ADD44C,0.016*%
%ADD45C,0.008*%
%ADD46C,0.01*%
G04 APERTURE END LIST*
G54D10*
G54D11*
X92450Y-44350D03*
X91900Y-43300D03*
X84460Y-45510D03*
X92450Y-45050D03*
G54D12*
X82771Y-42030D03*
X82339Y-42030D03*
X79316Y-46150D03*
X78884Y-46150D03*
X78884Y-45750D03*
X79316Y-45750D03*
G54D13*
X83614Y-44530D03*
X84116Y-44530D03*
G54D14*
X79205Y-43251D03*
X79205Y-44708D03*
G54D15*
X80085Y-43314D03*
X80085Y-43746D03*
G54D12*
X79316Y-46550D03*
X78884Y-46550D03*
G54D15*
X80455Y-43191D03*
X80455Y-42759D03*
X80085Y-44636D03*
X80085Y-44204D03*
X83635Y-44026D03*
X83635Y-43594D03*
X91955Y-33334D03*
X91955Y-33766D03*
X84095Y-44026D03*
X84095Y-43594D03*
G54D12*
X91184Y-34200D03*
X91616Y-34200D03*
G54D15*
X92025Y-47666D03*
X92025Y-47234D03*
X80235Y-46521D03*
X80235Y-46089D03*
X79815Y-46521D03*
X79815Y-46089D03*
G54D12*
X79774Y-49635D03*
X80206Y-49635D03*
G54D15*
X79840Y-48031D03*
X79840Y-47599D03*
X83560Y-46429D03*
X83560Y-46861D03*
G54D12*
X81391Y-46050D03*
X80959Y-46050D03*
X81391Y-45680D03*
X80959Y-45680D03*
G54D15*
X83645Y-47841D03*
X83645Y-47409D03*
X84070Y-47841D03*
X84070Y-47409D03*
G54D12*
X80136Y-47225D03*
X79704Y-47225D03*
G54D15*
X80254Y-48026D03*
X80254Y-47594D03*
G54D12*
X82836Y-48990D03*
X82404Y-48990D03*
X81391Y-49000D03*
X80959Y-49000D03*
G54D15*
X84150Y-48259D03*
X84150Y-48691D03*
G54D12*
X83254Y-49065D03*
X83686Y-49065D03*
G54D16*
X80019Y-48455D03*
X79500Y-48455D03*
X79760Y-48455D03*
X79500Y-49255D03*
X80019Y-49255D03*
G54D17*
X90987Y-48539D03*
X90987Y-48067D03*
X90987Y-47594D03*
X90987Y-47122D03*
X90987Y-46650D03*
X90987Y-46177D03*
X90987Y-45705D03*
X90987Y-45232D03*
X90987Y-44760D03*
X90987Y-44287D03*
X90987Y-43815D03*
X90987Y-43342D03*
X85712Y-43342D03*
X85712Y-43815D03*
X85712Y-44287D03*
X85712Y-44760D03*
X85712Y-45232D03*
X85712Y-45705D03*
X85712Y-46177D03*
X85712Y-46650D03*
X85712Y-47122D03*
X85712Y-47594D03*
X85712Y-48067D03*
X85712Y-48539D03*
G54D18*
X86735Y-42240D03*
X87129Y-42240D03*
X87641Y-42240D03*
X88113Y-42240D03*
X88586Y-42240D03*
X89058Y-42240D03*
X89570Y-42240D03*
X89964Y-42240D03*
G54D19*
X92025Y-48084D03*
X92025Y-48516D03*
G54D15*
X80420Y-49211D03*
X80420Y-48779D03*
G54D20*
X79813Y-39850D03*
G54D21*
X78617Y-39850D03*
X79813Y-38850D03*
X78617Y-38850D03*
X79813Y-37850D03*
X78617Y-37850D03*
G54D15*
X78510Y-42191D03*
X78510Y-41759D03*
X78510Y-41316D03*
X78510Y-40884D03*
G54D22*
X79853Y-41033D03*
X79656Y-41033D03*
X79066Y-41033D03*
X79263Y-41033D03*
X79460Y-41033D03*
X79460Y-42046D03*
X79263Y-42046D03*
X79066Y-42046D03*
X79656Y-42046D03*
X79853Y-42046D03*
G54D23*
X78958Y-41540D03*
X79961Y-41540D03*
X78958Y-41736D03*
X78958Y-41343D03*
X79961Y-41736D03*
X79961Y-41343D03*
G54D24*
X80850Y-43110D03*
X80850Y-43366D03*
X80850Y-43622D03*
X80850Y-43878D03*
G54D25*
X81204Y-44745D03*
X81460Y-44745D03*
X81716Y-44745D03*
X81972Y-44745D03*
X82228Y-44745D03*
X82484Y-44745D03*
X82740Y-44745D03*
G54D24*
X80850Y-42854D03*
X83095Y-44410D03*
X83095Y-44154D03*
X83095Y-43898D03*
X83095Y-43622D03*
X83095Y-43386D03*
X83095Y-43130D03*
X83095Y-42874D03*
G54D25*
X82740Y-42500D03*
X82484Y-42500D03*
X82228Y-42500D03*
X81972Y-42500D03*
X81716Y-42500D03*
X81460Y-42500D03*
X81204Y-42500D03*
G54D24*
X80850Y-44134D03*
X80850Y-44390D03*
G54D26*
X81504Y-48597D03*
X81662Y-48597D03*
X81819Y-48597D03*
X81977Y-48597D03*
X82449Y-48597D03*
G54D27*
X82872Y-48174D03*
X82872Y-48017D03*
X82872Y-47859D03*
X82872Y-47702D03*
X82872Y-47545D03*
X82872Y-47387D03*
G54D26*
X81347Y-48597D03*
G54D27*
X82872Y-47230D03*
X82872Y-47072D03*
G54D26*
X82449Y-46649D03*
X82292Y-46649D03*
X82134Y-46649D03*
X81977Y-46649D03*
X81819Y-46649D03*
X81662Y-46649D03*
X81504Y-46649D03*
X81347Y-46649D03*
G54D27*
X80924Y-47072D03*
X80924Y-47230D03*
X80924Y-47387D03*
X80924Y-47545D03*
G54D26*
X82134Y-48597D03*
X82292Y-48597D03*
G54D27*
X80924Y-47702D03*
X80924Y-47859D03*
X80924Y-48017D03*
X80924Y-48174D03*
G54D28*
X91450Y-40600D03*
X91450Y-41584D03*
X91450Y-39615D03*
G54D29*
X91498Y-36050D03*
X79451Y-36050D03*
G54D30*
X85475Y-36050D03*
G54D31*
X80100Y-34596D03*
X80100Y-34004D03*
G54D32*
X91104Y-34640D03*
X91696Y-34640D03*
G54D31*
X90615Y-40444D03*
X90615Y-41036D03*
G54D32*
X83154Y-48575D03*
X83746Y-48575D03*
G54D33*
X91780Y-38209D03*
X91269Y-38209D03*
X91525Y-38209D03*
X91525Y-37490D03*
X91269Y-37490D03*
X91780Y-37490D03*
G54D34*
X91406Y-37850D03*
G54D16*
X91780Y-37850D03*
G54D35*
X91405Y-33756D03*
X91601Y-33756D03*
X91601Y-33303D03*
X91405Y-33303D03*
X91208Y-33303D03*
G54D36*
X91208Y-33736D03*
G54D37*
X85020Y-45150D03*
X92230Y-45960D03*
X85040Y-44500D03*
X85030Y-43810D03*
X84980Y-43200D03*
G54D38*
X78750Y-51100D03*
X78750Y-33600D03*
G54D39*
X83190Y-50016D03*
X83190Y-51213D03*
G54D40*
X81190Y-51213D03*
G54D39*
X81190Y-50016D03*
X82190Y-51213D03*
X82190Y-50016D03*
G54D13*
X84531Y-49545D03*
X84029Y-49545D03*
G54D41*
X78870Y-45460D03*
X80870Y-36340D03*
X90050Y-36090D03*
X90210Y-46650D03*
X84200Y-42725D03*
X89350Y-45700D03*
X92050Y-44800D03*
X90400Y-46100D03*
X91875Y-46475D03*
X83950Y-43025D03*
X81175Y-42095D03*
X82465Y-42940D03*
X83800Y-49545D03*
X82440Y-48170D03*
X80870Y-49400D03*
X81380Y-48020D03*
X81265Y-43465D03*
X78500Y-42500D03*
X78145Y-41320D03*
X84785Y-49545D03*
X83120Y-41940D03*
G54D42*
X84190Y-45050D03*
G54D41*
X90870Y-34200D03*
X90450Y-43810D03*
X81690Y-47075D03*
X78200Y-41775D03*
X82260Y-47750D03*
X79400Y-47290D03*
X79550Y-48860D03*
X82690Y-43540D03*
X91970Y-34180D03*
X92000Y-37475D03*
X80100Y-33750D03*
G54D42*
X87360Y-42960D03*
G54D41*
X79050Y-40725D03*
X84050Y-49075D03*
X80540Y-48420D03*
X78970Y-46890D03*
X80670Y-45680D03*
X90460Y-48540D03*
X80455Y-44590D03*
X80450Y-43635D03*
X80085Y-43010D03*
X83920Y-47025D03*
X81862Y-41087D03*
X83420Y-42190D03*
X81725Y-42140D03*
X81600Y-41650D03*
X81855Y-43730D03*
X81920Y-46200D03*
X80430Y-41540D03*
X82740Y-45205D03*
X81505Y-44030D03*
X79560Y-41600D03*
G54D42*
X83055Y-46205D03*
G54D41*
X82280Y-47045D03*
X81660Y-43395D03*
X83095Y-44795D03*
X82030Y-47360D03*
X80785Y-41815D03*
X92175Y-34600D03*
X91475Y-40100D03*
X81570Y-39290D03*
X81710Y-45155D03*
X81250Y-42860D03*
X80850Y-44780D03*
X82240Y-45465D03*
X81800Y-44305D03*
X81175Y-40925D03*
G54D43*
X91780Y-38209D02*
X92040Y-38209D01*
X92125Y-38125D02*
X92125Y-37850D01*
X92040Y-38209D02*
X92125Y-38125D01*
X92125Y-37850D02*
X92350Y-37625D01*
X92350Y-36831D02*
X91503Y-35985D01*
X92350Y-37625D02*
X92350Y-36831D01*
X91780Y-38209D02*
X91780Y-38705D01*
X91450Y-41225D02*
X91575Y-41100D01*
X91575Y-41100D02*
X92000Y-41100D01*
X92000Y-41100D02*
X92100Y-41000D01*
X92100Y-41000D02*
X92100Y-39025D01*
X92100Y-39025D02*
X91785Y-38710D01*
X91450Y-41225D02*
X91450Y-41584D01*
X91780Y-38705D02*
X91785Y-38710D01*
X80100Y-34516D02*
X80100Y-35341D01*
X80100Y-35341D02*
X79456Y-35985D01*
X78884Y-45474D02*
X78870Y-45460D01*
X78884Y-45474D02*
X78884Y-45750D01*
X92240Y-36721D02*
X91503Y-35985D01*
X80870Y-36340D02*
X79811Y-36340D01*
X79811Y-36340D02*
X79456Y-35985D01*
X90155Y-35985D02*
X91503Y-35985D01*
X90050Y-36090D02*
X90155Y-35985D01*
X91184Y-34640D02*
X91184Y-35665D01*
X91184Y-35665D02*
X91503Y-35985D01*
X83095Y-43898D02*
X83507Y-43898D01*
X83507Y-43898D02*
X83635Y-44026D01*
X83279Y-44154D02*
X83614Y-44489D01*
X83865Y-44480D02*
X83865Y-44256D01*
X83614Y-44530D02*
X83815Y-44530D01*
X83815Y-44530D02*
X83865Y-44480D01*
X83865Y-44256D02*
X84095Y-44026D01*
X83095Y-44154D02*
X83279Y-44154D01*
X83614Y-44489D02*
X83614Y-44530D01*
G54D44*
X90875Y-37850D02*
X90875Y-37650D01*
X91034Y-37490D02*
X91269Y-37490D01*
X90875Y-37650D02*
X91034Y-37490D01*
X90875Y-37850D02*
X90875Y-38050D01*
X91034Y-38209D02*
X91269Y-38209D01*
X90875Y-38050D02*
X91034Y-38209D01*
X91525Y-38209D02*
X91269Y-38209D01*
X91525Y-37490D02*
X91269Y-37490D01*
X90875Y-37850D02*
X89390Y-37850D01*
X89390Y-37850D02*
X87525Y-35985D01*
X87525Y-35985D02*
X85480Y-35985D01*
G54D43*
X79316Y-46150D02*
X79316Y-46550D01*
X79316Y-45750D02*
X79316Y-46150D01*
X79316Y-45750D02*
X80100Y-45750D01*
X80650Y-45200D02*
X81250Y-45200D01*
X81250Y-45200D02*
X81460Y-44989D01*
X81460Y-44989D02*
X81460Y-44745D01*
X80100Y-45750D02*
X80650Y-45200D01*
X84400Y-44275D02*
X84400Y-44125D01*
X84470Y-42955D02*
X84350Y-43075D01*
X84400Y-44275D02*
X84400Y-44850D01*
X84400Y-44850D02*
X84460Y-44910D01*
X84460Y-45510D02*
X84460Y-44910D01*
X83300Y-42874D02*
X83095Y-42874D01*
X83725Y-42450D02*
X84350Y-42450D01*
X83300Y-42874D02*
X83725Y-42450D01*
X84350Y-42450D02*
X84470Y-42570D01*
X84470Y-42570D02*
X84470Y-42955D01*
X84350Y-44075D02*
X84350Y-43075D01*
X84400Y-44125D02*
X84350Y-44075D01*
X85712Y-46177D02*
X84897Y-46177D01*
X84460Y-45740D02*
X84897Y-46177D01*
X84460Y-45740D02*
X84460Y-45510D01*
X84470Y-45500D02*
X84460Y-45510D01*
X83825Y-42725D02*
X84200Y-42725D01*
X90987Y-46650D02*
X90210Y-46650D01*
X90210Y-46650D02*
X90210Y-46650D01*
X83419Y-43130D02*
X83095Y-43130D01*
X83419Y-43130D02*
X83825Y-42725D01*
X80924Y-47230D02*
X80620Y-47230D01*
X79815Y-46835D02*
X79815Y-46521D01*
X79940Y-46960D02*
X79815Y-46835D01*
X80350Y-46960D02*
X79940Y-46960D01*
X80620Y-47230D02*
X80350Y-46960D01*
X80924Y-47072D02*
X80712Y-47072D01*
X80235Y-46760D02*
X80235Y-46521D01*
X80285Y-46810D02*
X80235Y-46760D01*
X80450Y-46810D02*
X80285Y-46810D01*
X80712Y-47072D02*
X80450Y-46810D01*
X81347Y-48597D02*
X81127Y-48597D01*
X80959Y-48766D02*
X80959Y-49000D01*
X81127Y-48597D02*
X80959Y-48766D01*
X81504Y-48597D02*
X81504Y-48886D01*
X81504Y-48886D02*
X81391Y-49000D01*
X82292Y-48597D02*
X82292Y-48878D01*
X82292Y-48878D02*
X82404Y-48990D01*
X82449Y-48597D02*
X82632Y-48597D01*
X82836Y-48801D02*
X82836Y-48990D01*
X82632Y-48597D02*
X82836Y-48801D01*
X80019Y-48455D02*
X80019Y-48895D01*
X79774Y-49081D02*
X79774Y-49635D01*
X79840Y-49015D02*
X79774Y-49081D01*
X79900Y-49015D02*
X79840Y-49015D01*
X80019Y-48895D02*
X79900Y-49015D01*
X80254Y-48320D02*
X80254Y-48340D01*
X80254Y-48026D02*
X80254Y-48320D01*
X80140Y-48455D02*
X80019Y-48455D01*
X80254Y-48340D02*
X80140Y-48455D01*
G54D45*
X80254Y-48026D02*
X79861Y-48026D01*
X80924Y-47859D02*
X80599Y-47859D01*
X80432Y-48026D02*
X80254Y-48026D01*
X80599Y-47859D02*
X80432Y-48026D01*
X80924Y-47859D02*
X80924Y-47702D01*
X80254Y-47594D02*
X79861Y-47594D01*
X80924Y-47545D02*
X80520Y-47545D01*
X80470Y-47594D02*
X80254Y-47594D01*
X80520Y-47545D02*
X80470Y-47594D01*
G54D43*
X82872Y-47859D02*
X83159Y-47859D01*
X84016Y-48125D02*
X84150Y-48259D01*
X83425Y-48125D02*
X84016Y-48125D01*
X83159Y-47859D02*
X83425Y-48125D01*
X80924Y-47387D02*
X80562Y-47387D01*
X80400Y-47225D02*
X80136Y-47225D01*
X80562Y-47387D02*
X80400Y-47225D01*
X83254Y-49065D02*
X83254Y-48675D01*
X83254Y-48675D02*
X83154Y-48575D01*
X82872Y-48174D02*
X82872Y-48293D01*
X82872Y-48293D02*
X83154Y-48575D01*
X92450Y-45050D02*
X92300Y-45050D01*
X86555Y-47594D02*
X88450Y-45700D01*
X88450Y-45700D02*
X89100Y-45700D01*
X86555Y-47594D02*
X85712Y-47594D01*
X89350Y-45700D02*
X89100Y-45700D01*
X92300Y-45050D02*
X92050Y-44800D01*
X86527Y-47122D02*
X88300Y-45350D01*
X88300Y-45350D02*
X89500Y-45350D01*
X89500Y-45350D02*
X90250Y-46100D01*
X90250Y-46100D02*
X90400Y-46100D01*
X85712Y-47122D02*
X86527Y-47122D01*
X83915Y-43085D02*
X83915Y-43060D01*
X92025Y-47234D02*
X92025Y-46625D01*
X83328Y-43386D02*
X83095Y-43386D01*
X83695Y-43305D02*
X83915Y-43085D01*
X83410Y-43305D02*
X83695Y-43305D01*
X83328Y-43386D02*
X83410Y-43305D01*
X92025Y-46625D02*
X91875Y-46475D01*
X83915Y-43060D02*
X83950Y-43025D01*
X85712Y-44287D02*
X85252Y-44287D01*
X85252Y-44287D02*
X85040Y-44500D01*
X80850Y-42214D02*
X80970Y-42095D01*
X80970Y-42095D02*
X81175Y-42095D01*
X80850Y-42214D02*
X80850Y-42854D01*
X82462Y-42942D02*
X82092Y-42942D01*
X82462Y-42942D02*
X82465Y-42940D01*
X85712Y-44760D02*
X85409Y-44760D01*
X85409Y-44760D02*
X85020Y-45150D01*
X85020Y-45150D02*
X84930Y-45150D01*
X80850Y-43110D02*
X81924Y-43110D01*
X81924Y-43110D02*
X82092Y-42942D01*
X82092Y-42942D02*
X82095Y-42940D01*
X84092Y-49545D02*
X83800Y-49545D01*
X82872Y-47702D02*
X82617Y-47702D01*
X82530Y-48080D02*
X82440Y-48170D01*
X82530Y-47790D02*
X82530Y-48080D01*
X82617Y-47702D02*
X82530Y-47790D01*
X80681Y-49211D02*
X80870Y-49400D01*
X80681Y-49211D02*
X80420Y-49211D01*
X80924Y-48017D02*
X81377Y-48017D01*
X81377Y-48017D02*
X81380Y-48020D01*
X82872Y-47702D02*
X83247Y-47702D01*
X83247Y-47702D02*
X83350Y-47805D01*
X83386Y-47841D02*
X83350Y-47805D01*
X83645Y-47841D02*
X83386Y-47841D01*
X80920Y-48179D02*
X80924Y-48174D01*
X84070Y-47841D02*
X83645Y-47841D01*
X80924Y-48017D02*
X80924Y-48174D01*
X80019Y-49255D02*
X80376Y-49255D01*
X80376Y-49255D02*
X80420Y-49211D01*
X81662Y-48597D02*
X81662Y-50572D01*
X81662Y-50572D02*
X82190Y-51100D01*
X81819Y-48597D02*
X81819Y-49729D01*
X81819Y-49729D02*
X82190Y-50100D01*
X82680Y-50590D02*
X83190Y-51100D01*
X82680Y-49780D02*
X82680Y-50590D01*
X82370Y-49470D02*
X82680Y-49780D01*
X82120Y-49470D02*
X82370Y-49470D01*
X81977Y-49327D02*
X82120Y-49470D01*
X81977Y-48597D02*
X81977Y-49327D01*
X83190Y-50100D02*
X83190Y-49990D01*
X82210Y-49290D02*
X82134Y-49214D01*
X82490Y-49290D02*
X82210Y-49290D01*
X83190Y-49990D02*
X82490Y-49290D01*
X82134Y-49214D02*
X82134Y-48597D01*
X80850Y-43366D02*
X81166Y-43366D01*
X81166Y-43366D02*
X81265Y-43465D01*
X78510Y-42490D02*
X78500Y-42500D01*
X78510Y-42191D02*
X78510Y-42490D01*
X78510Y-41316D02*
X78149Y-41316D01*
X78149Y-41316D02*
X78145Y-41320D01*
X84468Y-49545D02*
X84785Y-49545D01*
X80850Y-43366D02*
X80630Y-43366D01*
X80630Y-43366D02*
X80455Y-43191D01*
X83030Y-42030D02*
X83120Y-41940D01*
X82771Y-42030D02*
X83030Y-42030D01*
X84116Y-44976D02*
X84190Y-45050D01*
X90455Y-43815D02*
X90450Y-43810D01*
X84116Y-44530D02*
X84116Y-44976D01*
X90987Y-43815D02*
X91915Y-43815D01*
X91915Y-43815D02*
X92450Y-44350D01*
X91184Y-34200D02*
X90870Y-34200D01*
X81504Y-46889D02*
X81690Y-47075D01*
X81504Y-46649D02*
X81504Y-46889D01*
X90455Y-43815D02*
X90987Y-43815D01*
X79066Y-42046D02*
X78923Y-42046D01*
X78779Y-42191D02*
X78510Y-42191D01*
X78923Y-42046D02*
X78779Y-42191D01*
X78958Y-41343D02*
X78537Y-41343D01*
X78537Y-41343D02*
X78510Y-41316D01*
X91208Y-33736D02*
X91208Y-34175D01*
X91208Y-34175D02*
X91184Y-34200D01*
X81391Y-46050D02*
X81391Y-45680D01*
X81504Y-46649D02*
X81504Y-46429D01*
X81391Y-46316D02*
X81391Y-46050D01*
X81504Y-46429D02*
X81391Y-46316D01*
X78216Y-41759D02*
X78200Y-41775D01*
X78510Y-41759D02*
X78216Y-41759D01*
X80455Y-42759D02*
X80336Y-42759D01*
X80336Y-42759D02*
X80085Y-43010D01*
X82872Y-47545D02*
X82465Y-47545D01*
X82465Y-47545D02*
X82260Y-47750D01*
X79704Y-47225D02*
X79465Y-47225D01*
X79465Y-47225D02*
X79400Y-47290D01*
X79760Y-48455D02*
X79760Y-48650D01*
X79760Y-48650D02*
X79550Y-48860D01*
X83095Y-43622D02*
X82772Y-43622D01*
X82772Y-43622D02*
X82690Y-43540D01*
X82872Y-48017D02*
X83120Y-48017D01*
X83746Y-48346D02*
X83746Y-48575D01*
X83664Y-48264D02*
X83746Y-48346D01*
X83367Y-48264D02*
X83664Y-48264D01*
X83120Y-48017D02*
X83367Y-48264D01*
X91780Y-37490D02*
X91984Y-37490D01*
X91984Y-37490D02*
X92000Y-37475D01*
X80100Y-34084D02*
X80100Y-33750D01*
X90987Y-43342D02*
X91857Y-43342D01*
X91857Y-43342D02*
X91900Y-43300D01*
X87360Y-42960D02*
X87360Y-42710D01*
X87350Y-42710D02*
X87360Y-42710D01*
X87360Y-42710D02*
X89570Y-42710D01*
X90202Y-43342D02*
X89570Y-42710D01*
X79066Y-41033D02*
X79066Y-40741D01*
X79066Y-40741D02*
X79050Y-40725D01*
X83686Y-49065D02*
X84040Y-49065D01*
X84040Y-49065D02*
X84050Y-49075D01*
X80420Y-48779D02*
X80420Y-48540D01*
X80420Y-48540D02*
X80540Y-48420D01*
X91955Y-33766D02*
X91955Y-34165D01*
X91955Y-34165D02*
X91970Y-34180D01*
X91616Y-34200D02*
X91950Y-34200D01*
X91950Y-34200D02*
X91970Y-34180D01*
X78510Y-40884D02*
X78510Y-40790D01*
X78884Y-46550D02*
X78884Y-46804D01*
X78884Y-46804D02*
X78970Y-46890D01*
X80959Y-45680D02*
X80670Y-45680D01*
X90460Y-48539D02*
X90460Y-48540D01*
X90987Y-48539D02*
X90460Y-48539D01*
X87129Y-42240D02*
X87129Y-42489D01*
X87129Y-42489D02*
X87350Y-42710D01*
X90987Y-43342D02*
X90202Y-43342D01*
X89570Y-42710D02*
X89570Y-42240D01*
X91616Y-34640D02*
X91616Y-34200D01*
X78884Y-46150D02*
X78884Y-46550D01*
X80409Y-44636D02*
X80455Y-44590D01*
X80409Y-44636D02*
X80085Y-44636D01*
X80850Y-43622D02*
X80462Y-43622D01*
X80462Y-43622D02*
X80450Y-43635D01*
X84070Y-47175D02*
X83920Y-47025D01*
X84070Y-47409D02*
X84070Y-47175D01*
X83920Y-47025D02*
X83920Y-46575D01*
X83774Y-46429D02*
X83560Y-46429D01*
X83920Y-46575D02*
X83774Y-46429D01*
X79066Y-41033D02*
X79263Y-41033D01*
X78510Y-40884D02*
X78679Y-40884D01*
X78679Y-40884D02*
X78828Y-41033D01*
X78828Y-41033D02*
X79066Y-41033D01*
X78958Y-41736D02*
X78532Y-41736D01*
X78532Y-41736D02*
X78510Y-41759D01*
X91601Y-33756D02*
X91945Y-33756D01*
X91945Y-33756D02*
X91955Y-33766D01*
X91616Y-34200D02*
X91616Y-33770D01*
X91616Y-33770D02*
X91601Y-33756D01*
X80085Y-43010D02*
X80085Y-43314D01*
X83686Y-48715D02*
X83686Y-49065D01*
X81347Y-46649D02*
X81347Y-46470D01*
X80959Y-46269D02*
X80959Y-46050D01*
X81020Y-46330D02*
X80959Y-46269D01*
X81207Y-46330D02*
X81020Y-46330D01*
X81347Y-46470D02*
X81207Y-46330D01*
X80959Y-46050D02*
X80274Y-46050D01*
X80274Y-46050D02*
X80235Y-46089D01*
X80235Y-46089D02*
X79815Y-46089D01*
X80959Y-46050D02*
X80959Y-45680D01*
X82872Y-47545D02*
X83190Y-47545D01*
X83326Y-47409D02*
X83645Y-47409D01*
X83190Y-47545D02*
X83326Y-47409D01*
X84070Y-48691D02*
X83710Y-48691D01*
X83710Y-48691D02*
X83686Y-48715D01*
X83645Y-47409D02*
X84070Y-47409D01*
G54D46*
X83635Y-43594D02*
X84095Y-43594D01*
X83095Y-43622D02*
X83606Y-43622D01*
X83606Y-43622D02*
X83635Y-43594D01*
G54D43*
X79460Y-41033D02*
X79460Y-40775D01*
X79460Y-40775D02*
X79610Y-40625D01*
X83109Y-42500D02*
X82740Y-42500D01*
X83420Y-42190D02*
X83109Y-42500D01*
X81862Y-41087D02*
X81400Y-40625D01*
X79610Y-40625D02*
X81400Y-40625D01*
X85712Y-43815D02*
X85035Y-43815D01*
X85035Y-43815D02*
X85030Y-43810D01*
X81725Y-42140D02*
X81716Y-42148D01*
X81716Y-42148D02*
X81716Y-42500D01*
X84980Y-43200D02*
X85150Y-43200D01*
X85292Y-43342D02*
X85712Y-43342D01*
X85150Y-43200D02*
X85292Y-43342D01*
X81460Y-41789D02*
X81460Y-42500D01*
X81460Y-41789D02*
X81600Y-41650D01*
X85710Y-43345D02*
X85712Y-43342D01*
X82595Y-44060D02*
X82265Y-43730D01*
X82735Y-44470D02*
X82595Y-44330D01*
X82595Y-44330D02*
X82595Y-44060D01*
X82740Y-44470D02*
X82740Y-44745D01*
X82740Y-44470D02*
X82735Y-44470D01*
X82265Y-43730D02*
X81855Y-43730D01*
X81819Y-46300D02*
X81819Y-46649D01*
X81819Y-46300D02*
X81920Y-46200D01*
X79961Y-41540D02*
X80430Y-41540D01*
X82740Y-44745D02*
X82740Y-45204D01*
X82740Y-45204D02*
X82740Y-45205D01*
X82420Y-44255D02*
X82195Y-44030D01*
X82195Y-44030D02*
X81505Y-44030D01*
X82484Y-44745D02*
X82484Y-44439D01*
X82484Y-44439D02*
X82420Y-44375D01*
X82420Y-44375D02*
X82420Y-44255D01*
X79696Y-41736D02*
X79961Y-41736D01*
X79560Y-41600D02*
X79696Y-41736D01*
X82484Y-44745D02*
X82484Y-45399D01*
X83055Y-45970D02*
X83055Y-46205D01*
X82484Y-45399D02*
X83055Y-45970D01*
X82134Y-46649D02*
X82134Y-46899D01*
X82134Y-46899D02*
X82280Y-47045D01*
X92025Y-48084D02*
X92025Y-47666D01*
X80850Y-44134D02*
X80154Y-44134D01*
X80154Y-44134D02*
X80085Y-44204D01*
X80085Y-44204D02*
X79341Y-44204D01*
X79341Y-44204D02*
X79205Y-44340D01*
X79205Y-44340D02*
X79205Y-44708D01*
X80085Y-43746D02*
X80085Y-43785D01*
X80178Y-43878D02*
X80850Y-43878D01*
X80085Y-43785D02*
X80178Y-43878D01*
X80085Y-43746D02*
X79281Y-43746D01*
X79205Y-43670D02*
X79205Y-43251D01*
X79281Y-43746D02*
X79205Y-43670D01*
X80206Y-49635D02*
X80725Y-49635D01*
X80725Y-49635D02*
X81190Y-50100D01*
X81660Y-43395D02*
X82185Y-43395D01*
X82755Y-43965D02*
X82185Y-43395D01*
X81977Y-46649D02*
X81977Y-47307D01*
X83095Y-44795D02*
X83095Y-44794D01*
X83095Y-44794D02*
X83095Y-44410D01*
X81977Y-47307D02*
X82030Y-47360D01*
X80750Y-41815D02*
X80785Y-41815D01*
X80080Y-42485D02*
X80750Y-41815D01*
X79770Y-42485D02*
X80080Y-42485D01*
X79656Y-42371D02*
X79770Y-42485D01*
X79656Y-42046D02*
X79656Y-42371D01*
X82755Y-43965D02*
X82750Y-43965D01*
X83095Y-44410D02*
X82900Y-44410D01*
X82755Y-44265D02*
X82755Y-43965D01*
X82900Y-44410D02*
X82755Y-44265D01*
X79500Y-48455D02*
X79275Y-48455D01*
X79215Y-49255D02*
X79500Y-49255D01*
X79150Y-49190D02*
X79215Y-49255D01*
X79150Y-48580D02*
X79150Y-49190D01*
X79275Y-48455D02*
X79150Y-48580D01*
X79500Y-49255D02*
X79500Y-49820D01*
X80020Y-49930D02*
X81190Y-51100D01*
X79610Y-49930D02*
X80020Y-49930D01*
X79500Y-49820D02*
X79610Y-49930D01*
X92230Y-34545D02*
X92230Y-33405D01*
X91955Y-33334D02*
X92159Y-33334D01*
X92230Y-33405D02*
X92159Y-33334D01*
X92175Y-34600D02*
X92230Y-34545D01*
X91450Y-40125D02*
X91450Y-40600D01*
X91475Y-40100D02*
X91450Y-40125D01*
X90615Y-40524D02*
X91374Y-40524D01*
X91374Y-40524D02*
X91450Y-40600D01*
X91208Y-33303D02*
X91208Y-33071D01*
X91601Y-33076D02*
X91601Y-33303D01*
X91550Y-33025D02*
X91601Y-33076D01*
X91255Y-33025D02*
X91550Y-33025D01*
X91208Y-33071D02*
X91255Y-33025D01*
X91955Y-33334D02*
X91632Y-33334D01*
X91632Y-33334D02*
X91601Y-33303D01*
X91450Y-39615D02*
X89985Y-39615D01*
X81570Y-39290D02*
X89660Y-39290D01*
X89985Y-39615D02*
X89660Y-39290D01*
X82292Y-46649D02*
X82292Y-46032D01*
X81972Y-45712D02*
X81972Y-44745D01*
X82292Y-46032D02*
X81972Y-45712D01*
X81204Y-42789D02*
X81204Y-42814D01*
X81662Y-46649D02*
X81662Y-45787D01*
X81204Y-42789D02*
X81204Y-42500D01*
X81710Y-45740D02*
X81710Y-45155D01*
X81662Y-45787D02*
X81710Y-45740D01*
X81204Y-42814D02*
X81250Y-42860D01*
X80850Y-44779D02*
X80850Y-44780D01*
X83296Y-46861D02*
X82815Y-46380D01*
X82815Y-46380D02*
X82815Y-46040D01*
X82815Y-46040D02*
X82240Y-45465D01*
X83560Y-46861D02*
X83296Y-46861D01*
X80850Y-44779D02*
X80850Y-44390D01*
X82872Y-47230D02*
X83284Y-47230D01*
X83560Y-47050D02*
X83560Y-46861D01*
X83470Y-47140D02*
X83560Y-47050D01*
X83375Y-47140D02*
X83470Y-47140D01*
X83284Y-47230D02*
X83375Y-47140D01*
X83554Y-46855D02*
X83560Y-46861D01*
X82339Y-42030D02*
X82339Y-40939D01*
X80490Y-38625D02*
X79715Y-37850D01*
X80490Y-39090D02*
X80490Y-38625D01*
X82339Y-40939D02*
X80490Y-39090D01*
X81972Y-42500D02*
X81972Y-42202D01*
X82145Y-42030D02*
X82339Y-42030D01*
X81972Y-42202D02*
X82145Y-42030D01*
X82228Y-44745D02*
X82228Y-44463D01*
X82070Y-44305D02*
X81800Y-44305D01*
X82228Y-44463D02*
X82070Y-44305D01*
X79961Y-41343D02*
X80206Y-41343D01*
X80875Y-41225D02*
X81175Y-40925D01*
X80325Y-41225D02*
X80875Y-41225D01*
X80206Y-41343D02*
X80325Y-41225D01*
G54D10*
G36*
X79124Y-41083D02*
X79095Y-41083D01*
X79036Y-41083D01*
X79016Y-41083D01*
X79008Y-41083D01*
X79008Y-40983D01*
X79016Y-40983D01*
X79036Y-40983D01*
X79095Y-40983D01*
X79124Y-40983D01*
X79124Y-41083D01*
X79124Y-41083D01*
G37*
G54D46*
X79124Y-41083D02*
X79095Y-41083D01*
X79036Y-41083D01*
X79016Y-41083D01*
X79008Y-41083D01*
X79008Y-40983D01*
X79016Y-40983D01*
X79036Y-40983D01*
X79095Y-40983D01*
X79124Y-40983D01*
X79124Y-41083D01*
G54D10*
G36*
X79861Y-48834D02*
X79834Y-48861D01*
X79828Y-48862D01*
X79780Y-48871D01*
X79730Y-48905D01*
X79730Y-48905D01*
X79664Y-48971D01*
X79633Y-49017D01*
X79602Y-49005D01*
X79555Y-49005D01*
X79397Y-49005D01*
X79353Y-49023D01*
X79319Y-49057D01*
X79305Y-49092D01*
X79305Y-48644D01*
X79306Y-48643D01*
X79312Y-48657D01*
X79348Y-48693D01*
X79395Y-48713D01*
X79446Y-48713D01*
X79464Y-48713D01*
X79469Y-48726D01*
X79539Y-48796D01*
X79631Y-48834D01*
X79658Y-48834D01*
X79720Y-48772D01*
X79720Y-48505D01*
X79707Y-48505D01*
X79707Y-48405D01*
X79720Y-48405D01*
X79720Y-48397D01*
X79799Y-48397D01*
X79799Y-48405D01*
X79812Y-48405D01*
X79812Y-48505D01*
X79799Y-48505D01*
X79799Y-48772D01*
X79861Y-48834D01*
X79861Y-48834D01*
G37*
G54D46*
X79861Y-48834D02*
X79834Y-48861D01*
X79828Y-48862D01*
X79780Y-48871D01*
X79730Y-48905D01*
X79730Y-48905D01*
X79664Y-48971D01*
X79633Y-49017D01*
X79602Y-49005D01*
X79555Y-49005D01*
X79397Y-49005D01*
X79353Y-49023D01*
X79319Y-49057D01*
X79305Y-49092D01*
X79305Y-48644D01*
X79306Y-48643D01*
X79312Y-48657D01*
X79348Y-48693D01*
X79395Y-48713D01*
X79446Y-48713D01*
X79464Y-48713D01*
X79469Y-48726D01*
X79539Y-48796D01*
X79631Y-48834D01*
X79658Y-48834D01*
X79720Y-48772D01*
X79720Y-48505D01*
X79707Y-48505D01*
X79707Y-48405D01*
X79720Y-48405D01*
X79720Y-48397D01*
X79799Y-48397D01*
X79799Y-48405D01*
X79812Y-48405D01*
X79812Y-48505D01*
X79799Y-48505D01*
X79799Y-48772D01*
X79861Y-48834D01*
G54D10*
G36*
X80142Y-43364D02*
X80135Y-43364D01*
X80135Y-43371D01*
X80035Y-43371D01*
X80035Y-43364D01*
X80027Y-43364D01*
X80027Y-43264D01*
X80035Y-43264D01*
X80035Y-43256D01*
X80135Y-43256D01*
X80135Y-43264D01*
X80142Y-43264D01*
X80142Y-43364D01*
X80142Y-43364D01*
G37*
G54D46*
X80142Y-43364D02*
X80135Y-43364D01*
X80135Y-43371D01*
X80035Y-43371D01*
X80035Y-43364D01*
X80027Y-43364D01*
X80027Y-43264D01*
X80035Y-43264D01*
X80035Y-43256D01*
X80135Y-43256D01*
X80135Y-43264D01*
X80142Y-43264D01*
X80142Y-43364D01*
G54D10*
G36*
X80512Y-42809D02*
X80505Y-42809D01*
X80505Y-42816D01*
X80405Y-42816D01*
X80405Y-42809D01*
X80397Y-42809D01*
X80397Y-42709D01*
X80405Y-42709D01*
X80405Y-42701D01*
X80505Y-42701D01*
X80505Y-42709D01*
X80512Y-42709D01*
X80512Y-42809D01*
X80512Y-42809D01*
G37*
G54D46*
X80512Y-42809D02*
X80505Y-42809D01*
X80505Y-42816D01*
X80405Y-42816D01*
X80405Y-42809D01*
X80397Y-42809D01*
X80397Y-42709D01*
X80405Y-42709D01*
X80405Y-42701D01*
X80505Y-42701D01*
X80505Y-42709D01*
X80512Y-42709D01*
X80512Y-42809D01*
G54D10*
G36*
X80908Y-43657D02*
X80900Y-43657D01*
X80900Y-43680D01*
X80800Y-43680D01*
X80800Y-43657D01*
X80505Y-43657D01*
X80442Y-43719D01*
X80442Y-43723D01*
X80342Y-43723D01*
X80342Y-43692D01*
X80364Y-43683D01*
X80434Y-43612D01*
X80462Y-43545D01*
X80505Y-43588D01*
X80800Y-43588D01*
X80800Y-43565D01*
X80900Y-43565D01*
X80900Y-43588D01*
X80908Y-43588D01*
X80908Y-43657D01*
X80908Y-43657D01*
G37*
G54D46*
X80908Y-43657D02*
X80900Y-43657D01*
X80900Y-43680D01*
X80800Y-43680D01*
X80800Y-43657D01*
X80505Y-43657D01*
X80442Y-43719D01*
X80442Y-43723D01*
X80342Y-43723D01*
X80342Y-43692D01*
X80364Y-43683D01*
X80434Y-43612D01*
X80462Y-43545D01*
X80505Y-43588D01*
X80800Y-43588D01*
X80800Y-43565D01*
X80900Y-43565D01*
X80900Y-43588D01*
X80908Y-43588D01*
X80908Y-43657D01*
G54D10*
G36*
X81207Y-45023D02*
X81185Y-45045D01*
X80650Y-45045D01*
X80590Y-45056D01*
X80540Y-45090D01*
X80472Y-45158D01*
X80472Y-44843D01*
X80472Y-44748D01*
X80410Y-44686D01*
X80135Y-44686D01*
X80135Y-44981D01*
X80197Y-45043D01*
X80172Y-45043D01*
X80272Y-45043D01*
X80364Y-45005D01*
X80434Y-44934D01*
X80472Y-44843D01*
X80472Y-45158D01*
X80035Y-45595D01*
X79593Y-45595D01*
X79593Y-45588D01*
X79575Y-45544D01*
X79541Y-45510D01*
X79497Y-45492D01*
X79449Y-45492D01*
X79134Y-45492D01*
X79129Y-45494D01*
X79130Y-45408D01*
X79090Y-45312D01*
X79017Y-45239D01*
X78921Y-45200D01*
X78818Y-45199D01*
X78722Y-45239D01*
X78649Y-45312D01*
X78610Y-45408D01*
X78609Y-45511D01*
X78624Y-45545D01*
X78606Y-45588D01*
X78606Y-45636D01*
X78606Y-45791D01*
X78585Y-45800D01*
X78514Y-45870D01*
X78476Y-45962D01*
X78476Y-46062D01*
X78476Y-46037D01*
X78539Y-46100D01*
X78834Y-46100D01*
X78834Y-46092D01*
X78934Y-46092D01*
X78934Y-46100D01*
X78941Y-46100D01*
X78941Y-46200D01*
X78934Y-46200D01*
X78934Y-46225D01*
X78934Y-46475D01*
X78934Y-46500D01*
X78941Y-46500D01*
X78941Y-46600D01*
X78934Y-46600D01*
X78934Y-46875D01*
X78996Y-46937D01*
X79091Y-46937D01*
X79182Y-46899D01*
X79253Y-46829D01*
X79262Y-46807D01*
X79497Y-46807D01*
X79541Y-46789D01*
X79575Y-46755D01*
X79578Y-46748D01*
X79609Y-46780D01*
X79653Y-46798D01*
X79660Y-46798D01*
X79660Y-46835D01*
X79660Y-46837D01*
X79653Y-46837D01*
X79653Y-46899D01*
X79591Y-46837D01*
X79496Y-46837D01*
X79405Y-46875D01*
X79380Y-46900D01*
X79279Y-46900D01*
X79079Y-47100D01*
X78834Y-47100D01*
X78834Y-46875D01*
X78834Y-46600D01*
X78834Y-46500D01*
X78834Y-46475D01*
X78834Y-46225D01*
X78834Y-46200D01*
X78809Y-46200D01*
X78771Y-46162D01*
X78676Y-46162D01*
X78586Y-46200D01*
X78539Y-46200D01*
X78476Y-46262D01*
X78476Y-46237D01*
X78476Y-46337D01*
X78481Y-46350D01*
X78476Y-46362D01*
X78476Y-46462D01*
X78476Y-46437D01*
X78539Y-46500D01*
X78586Y-46500D01*
X78676Y-46537D01*
X78771Y-46537D01*
X78809Y-46500D01*
X78834Y-46500D01*
X78834Y-46600D01*
X78539Y-46600D01*
X78476Y-46662D01*
X78476Y-46637D01*
X78476Y-46737D01*
X78514Y-46829D01*
X78585Y-46899D01*
X78676Y-46937D01*
X78771Y-46937D01*
X78834Y-46875D01*
X78834Y-47100D01*
X77639Y-47100D01*
X77639Y-42900D01*
X78612Y-42900D01*
X78612Y-42940D01*
X78612Y-43610D01*
X78630Y-43654D01*
X78664Y-43687D01*
X78708Y-43706D01*
X78756Y-43706D01*
X79057Y-43706D01*
X79061Y-43729D01*
X79095Y-43779D01*
X79171Y-43855D01*
X79171Y-43855D01*
X79221Y-43889D01*
X79221Y-43889D01*
X79269Y-43898D01*
X79280Y-43901D01*
X79280Y-43900D01*
X79281Y-43901D01*
X79827Y-43901D01*
X79827Y-43927D01*
X79845Y-43971D01*
X79849Y-43974D01*
X79845Y-43978D01*
X79827Y-44022D01*
X79827Y-44049D01*
X79341Y-44049D01*
X79281Y-44060D01*
X79231Y-44094D01*
X79231Y-44094D01*
X79231Y-44094D01*
X79095Y-44230D01*
X79079Y-44253D01*
X78708Y-44253D01*
X78664Y-44271D01*
X78630Y-44305D01*
X78612Y-44349D01*
X78612Y-44397D01*
X78612Y-45066D01*
X78630Y-45110D01*
X78664Y-45144D01*
X78708Y-45162D01*
X78756Y-45163D01*
X79701Y-45163D01*
X79745Y-45144D01*
X79779Y-45111D01*
X79797Y-45066D01*
X79797Y-45019D01*
X79797Y-44997D01*
X79805Y-45005D01*
X79897Y-45043D01*
X79997Y-45043D01*
X79972Y-45043D01*
X80035Y-44981D01*
X80035Y-44686D01*
X80027Y-44686D01*
X80027Y-44586D01*
X80035Y-44586D01*
X80035Y-44578D01*
X80135Y-44578D01*
X80135Y-44586D01*
X80410Y-44586D01*
X80472Y-44523D01*
X80472Y-44428D01*
X80434Y-44337D01*
X80387Y-44289D01*
X80576Y-44289D01*
X80573Y-44297D01*
X80572Y-44345D01*
X80572Y-44483D01*
X80591Y-44527D01*
X80624Y-44561D01*
X80669Y-44579D01*
X80682Y-44579D01*
X80629Y-44632D01*
X80590Y-44728D01*
X80589Y-44831D01*
X80629Y-44927D01*
X80702Y-45000D01*
X80798Y-45039D01*
X80901Y-45040D01*
X80997Y-45000D01*
X81031Y-44966D01*
X81033Y-44971D01*
X81067Y-45005D01*
X81111Y-45023D01*
X81159Y-45023D01*
X81207Y-45023D01*
X81207Y-45023D01*
G37*
G54D46*
X81207Y-45023D02*
X81185Y-45045D01*
X80650Y-45045D01*
X80590Y-45056D01*
X80540Y-45090D01*
X80472Y-45158D01*
X80472Y-44843D01*
X80472Y-44748D01*
X80410Y-44686D01*
X80135Y-44686D01*
X80135Y-44981D01*
X80197Y-45043D01*
X80172Y-45043D01*
X80272Y-45043D01*
X80364Y-45005D01*
X80434Y-44934D01*
X80472Y-44843D01*
X80472Y-45158D01*
X80035Y-45595D01*
X79593Y-45595D01*
X79593Y-45588D01*
X79575Y-45544D01*
X79541Y-45510D01*
X79497Y-45492D01*
X79449Y-45492D01*
X79134Y-45492D01*
X79129Y-45494D01*
X79130Y-45408D01*
X79090Y-45312D01*
X79017Y-45239D01*
X78921Y-45200D01*
X78818Y-45199D01*
X78722Y-45239D01*
X78649Y-45312D01*
X78610Y-45408D01*
X78609Y-45511D01*
X78624Y-45545D01*
X78606Y-45588D01*
X78606Y-45636D01*
X78606Y-45791D01*
X78585Y-45800D01*
X78514Y-45870D01*
X78476Y-45962D01*
X78476Y-46062D01*
X78476Y-46037D01*
X78539Y-46100D01*
X78834Y-46100D01*
X78834Y-46092D01*
X78934Y-46092D01*
X78934Y-46100D01*
X78941Y-46100D01*
X78941Y-46200D01*
X78934Y-46200D01*
X78934Y-46225D01*
X78934Y-46475D01*
X78934Y-46500D01*
X78941Y-46500D01*
X78941Y-46600D01*
X78934Y-46600D01*
X78934Y-46875D01*
X78996Y-46937D01*
X79091Y-46937D01*
X79182Y-46899D01*
X79253Y-46829D01*
X79262Y-46807D01*
X79497Y-46807D01*
X79541Y-46789D01*
X79575Y-46755D01*
X79578Y-46748D01*
X79609Y-46780D01*
X79653Y-46798D01*
X79660Y-46798D01*
X79660Y-46835D01*
X79660Y-46837D01*
X79653Y-46837D01*
X79653Y-46899D01*
X79591Y-46837D01*
X79496Y-46837D01*
X79405Y-46875D01*
X79380Y-46900D01*
X79279Y-46900D01*
X79079Y-47100D01*
X78834Y-47100D01*
X78834Y-46875D01*
X78834Y-46600D01*
X78834Y-46500D01*
X78834Y-46475D01*
X78834Y-46225D01*
X78834Y-46200D01*
X78809Y-46200D01*
X78771Y-46162D01*
X78676Y-46162D01*
X78586Y-46200D01*
X78539Y-46200D01*
X78476Y-46262D01*
X78476Y-46237D01*
X78476Y-46337D01*
X78481Y-46350D01*
X78476Y-46362D01*
X78476Y-46462D01*
X78476Y-46437D01*
X78539Y-46500D01*
X78586Y-46500D01*
X78676Y-46537D01*
X78771Y-46537D01*
X78809Y-46500D01*
X78834Y-46500D01*
X78834Y-46600D01*
X78539Y-46600D01*
X78476Y-46662D01*
X78476Y-46637D01*
X78476Y-46737D01*
X78514Y-46829D01*
X78585Y-46899D01*
X78676Y-46937D01*
X78771Y-46937D01*
X78834Y-46875D01*
X78834Y-47100D01*
X77639Y-47100D01*
X77639Y-42900D01*
X78612Y-42900D01*
X78612Y-42940D01*
X78612Y-43610D01*
X78630Y-43654D01*
X78664Y-43687D01*
X78708Y-43706D01*
X78756Y-43706D01*
X79057Y-43706D01*
X79061Y-43729D01*
X79095Y-43779D01*
X79171Y-43855D01*
X79171Y-43855D01*
X79221Y-43889D01*
X79221Y-43889D01*
X79269Y-43898D01*
X79280Y-43901D01*
X79280Y-43900D01*
X79281Y-43901D01*
X79827Y-43901D01*
X79827Y-43927D01*
X79845Y-43971D01*
X79849Y-43974D01*
X79845Y-43978D01*
X79827Y-44022D01*
X79827Y-44049D01*
X79341Y-44049D01*
X79281Y-44060D01*
X79231Y-44094D01*
X79231Y-44094D01*
X79231Y-44094D01*
X79095Y-44230D01*
X79079Y-44253D01*
X78708Y-44253D01*
X78664Y-44271D01*
X78630Y-44305D01*
X78612Y-44349D01*
X78612Y-44397D01*
X78612Y-45066D01*
X78630Y-45110D01*
X78664Y-45144D01*
X78708Y-45162D01*
X78756Y-45163D01*
X79701Y-45163D01*
X79745Y-45144D01*
X79779Y-45111D01*
X79797Y-45066D01*
X79797Y-45019D01*
X79797Y-44997D01*
X79805Y-45005D01*
X79897Y-45043D01*
X79997Y-45043D01*
X79972Y-45043D01*
X80035Y-44981D01*
X80035Y-44686D01*
X80027Y-44686D01*
X80027Y-44586D01*
X80035Y-44586D01*
X80035Y-44578D01*
X80135Y-44578D01*
X80135Y-44586D01*
X80410Y-44586D01*
X80472Y-44523D01*
X80472Y-44428D01*
X80434Y-44337D01*
X80387Y-44289D01*
X80576Y-44289D01*
X80573Y-44297D01*
X80572Y-44345D01*
X80572Y-44483D01*
X80591Y-44527D01*
X80624Y-44561D01*
X80669Y-44579D01*
X80682Y-44579D01*
X80629Y-44632D01*
X80590Y-44728D01*
X80589Y-44831D01*
X80629Y-44927D01*
X80702Y-45000D01*
X80798Y-45039D01*
X80901Y-45040D01*
X80997Y-45000D01*
X81031Y-44966D01*
X81033Y-44971D01*
X81067Y-45005D01*
X81111Y-45023D01*
X81159Y-45023D01*
X81207Y-45023D01*
G54D10*
G36*
X81439Y-47150D02*
X81196Y-47150D01*
X81201Y-47135D01*
X81201Y-47088D01*
X81201Y-47033D01*
X81258Y-47057D01*
X81265Y-47057D01*
X81327Y-46994D01*
X81327Y-46699D01*
X81120Y-46699D01*
X81057Y-46762D01*
X81057Y-46757D01*
X81057Y-46857D01*
X81081Y-46913D01*
X81058Y-46913D01*
X80772Y-46913D01*
X80559Y-46700D01*
X80509Y-46666D01*
X80492Y-46663D01*
X80492Y-46654D01*
X80492Y-46467D01*
X80514Y-46458D01*
X80584Y-46387D01*
X80603Y-46342D01*
X80660Y-46399D01*
X80751Y-46437D01*
X80846Y-46437D01*
X80909Y-46375D01*
X80909Y-46100D01*
X80614Y-46100D01*
X80567Y-46146D01*
X80560Y-46139D01*
X80551Y-46139D01*
X80551Y-46137D01*
X80551Y-46139D01*
X80285Y-46139D01*
X80285Y-46146D01*
X80185Y-46146D01*
X80185Y-46139D01*
X80140Y-46139D01*
X79910Y-46139D01*
X79865Y-46139D01*
X79865Y-46146D01*
X79765Y-46146D01*
X79765Y-46139D01*
X79757Y-46139D01*
X79757Y-46039D01*
X79765Y-46039D01*
X79765Y-46031D01*
X79865Y-46031D01*
X79865Y-46039D01*
X79910Y-46039D01*
X80140Y-46039D01*
X80185Y-46039D01*
X80185Y-46031D01*
X80285Y-46031D01*
X80285Y-46039D01*
X80560Y-46039D01*
X80606Y-45992D01*
X80614Y-46000D01*
X80630Y-46000D01*
X80660Y-46029D01*
X80751Y-46067D01*
X80846Y-46067D01*
X80909Y-46005D01*
X80909Y-46000D01*
X80909Y-45730D01*
X80909Y-45725D01*
X80846Y-45662D01*
X80751Y-45662D01*
X80660Y-45700D01*
X80630Y-45730D01*
X80614Y-45730D01*
X80569Y-45774D01*
X80514Y-45719D01*
X80422Y-45681D01*
X80387Y-45681D01*
X80551Y-45517D01*
X80551Y-45592D01*
X80551Y-45567D01*
X80614Y-45630D01*
X80909Y-45630D01*
X80909Y-45622D01*
X81009Y-45622D01*
X81009Y-45630D01*
X81016Y-45630D01*
X81016Y-45717D01*
X81009Y-45725D01*
X81009Y-45730D01*
X81009Y-46000D01*
X81009Y-46005D01*
X81016Y-46012D01*
X81016Y-46100D01*
X81009Y-46100D01*
X81009Y-46375D01*
X81063Y-46429D01*
X81057Y-46442D01*
X81057Y-46541D01*
X81057Y-46537D01*
X81120Y-46599D01*
X81327Y-46599D01*
X81327Y-46591D01*
X81345Y-46591D01*
X81345Y-46830D01*
X81349Y-46841D01*
X81349Y-46889D01*
X81361Y-46949D01*
X81366Y-46957D01*
X81366Y-46994D01*
X81429Y-47057D01*
X81430Y-47057D01*
X81429Y-47126D01*
X81439Y-47150D01*
X81439Y-47150D01*
G37*
G54D46*
X81439Y-47150D02*
X81196Y-47150D01*
X81201Y-47135D01*
X81201Y-47088D01*
X81201Y-47033D01*
X81258Y-47057D01*
X81265Y-47057D01*
X81327Y-46994D01*
X81327Y-46699D01*
X81120Y-46699D01*
X81057Y-46762D01*
X81057Y-46757D01*
X81057Y-46857D01*
X81081Y-46913D01*
X81058Y-46913D01*
X80772Y-46913D01*
X80559Y-46700D01*
X80509Y-46666D01*
X80492Y-46663D01*
X80492Y-46654D01*
X80492Y-46467D01*
X80514Y-46458D01*
X80584Y-46387D01*
X80603Y-46342D01*
X80660Y-46399D01*
X80751Y-46437D01*
X80846Y-46437D01*
X80909Y-46375D01*
X80909Y-46100D01*
X80614Y-46100D01*
X80567Y-46146D01*
X80560Y-46139D01*
X80551Y-46139D01*
X80551Y-46137D01*
X80551Y-46139D01*
X80285Y-46139D01*
X80285Y-46146D01*
X80185Y-46146D01*
X80185Y-46139D01*
X80140Y-46139D01*
X79910Y-46139D01*
X79865Y-46139D01*
X79865Y-46146D01*
X79765Y-46146D01*
X79765Y-46139D01*
X79757Y-46139D01*
X79757Y-46039D01*
X79765Y-46039D01*
X79765Y-46031D01*
X79865Y-46031D01*
X79865Y-46039D01*
X79910Y-46039D01*
X80140Y-46039D01*
X80185Y-46039D01*
X80185Y-46031D01*
X80285Y-46031D01*
X80285Y-46039D01*
X80560Y-46039D01*
X80606Y-45992D01*
X80614Y-46000D01*
X80630Y-46000D01*
X80660Y-46029D01*
X80751Y-46067D01*
X80846Y-46067D01*
X80909Y-46005D01*
X80909Y-46000D01*
X80909Y-45730D01*
X80909Y-45725D01*
X80846Y-45662D01*
X80751Y-45662D01*
X80660Y-45700D01*
X80630Y-45730D01*
X80614Y-45730D01*
X80569Y-45774D01*
X80514Y-45719D01*
X80422Y-45681D01*
X80387Y-45681D01*
X80551Y-45517D01*
X80551Y-45592D01*
X80551Y-45567D01*
X80614Y-45630D01*
X80909Y-45630D01*
X80909Y-45622D01*
X81009Y-45622D01*
X81009Y-45630D01*
X81016Y-45630D01*
X81016Y-45717D01*
X81009Y-45725D01*
X81009Y-45730D01*
X81009Y-46000D01*
X81009Y-46005D01*
X81016Y-46012D01*
X81016Y-46100D01*
X81009Y-46100D01*
X81009Y-46375D01*
X81063Y-46429D01*
X81057Y-46442D01*
X81057Y-46541D01*
X81057Y-46537D01*
X81120Y-46599D01*
X81327Y-46599D01*
X81327Y-46591D01*
X81345Y-46591D01*
X81345Y-46830D01*
X81349Y-46841D01*
X81349Y-46889D01*
X81361Y-46949D01*
X81366Y-46957D01*
X81366Y-46994D01*
X81429Y-47057D01*
X81430Y-47057D01*
X81429Y-47126D01*
X81439Y-47150D01*
G54D10*
G36*
X83289Y-47014D02*
X83265Y-47030D01*
X83265Y-47030D01*
X83220Y-47075D01*
X83149Y-47075D01*
X83149Y-47009D01*
X83131Y-46965D01*
X83097Y-46931D01*
X83053Y-46913D01*
X83006Y-46913D01*
X82691Y-46913D01*
X82647Y-46931D01*
X82613Y-46965D01*
X82594Y-47009D01*
X82594Y-47056D01*
X82594Y-47135D01*
X82601Y-47151D01*
X82594Y-47166D01*
X82594Y-47214D01*
X82594Y-47250D01*
X82475Y-47250D01*
X82475Y-47431D01*
X82464Y-47455D01*
X82464Y-47462D01*
X82527Y-47525D01*
X82643Y-47525D01*
X82646Y-47528D01*
X82686Y-47545D01*
X82680Y-47547D01*
X82617Y-47547D01*
X82558Y-47559D01*
X82550Y-47564D01*
X82527Y-47564D01*
X82464Y-47627D01*
X82464Y-47634D01*
X82465Y-47635D01*
X82420Y-47680D01*
X82386Y-47730D01*
X82375Y-47790D01*
X82375Y-47915D01*
X82292Y-47949D01*
X82219Y-48022D01*
X82180Y-48118D01*
X82179Y-48221D01*
X82219Y-48317D01*
X82224Y-48322D01*
X82213Y-48326D01*
X82197Y-48320D01*
X82150Y-48320D01*
X82071Y-48320D01*
X82055Y-48326D01*
X82040Y-48320D01*
X81992Y-48320D01*
X81914Y-48320D01*
X81898Y-48326D01*
X81883Y-48320D01*
X81835Y-48320D01*
X81756Y-48320D01*
X81740Y-48326D01*
X81725Y-48320D01*
X81677Y-48320D01*
X81599Y-48320D01*
X81583Y-48326D01*
X81568Y-48320D01*
X81520Y-48320D01*
X81441Y-48320D01*
X81426Y-48326D01*
X81410Y-48320D01*
X81362Y-48320D01*
X81284Y-48320D01*
X81239Y-48338D01*
X81206Y-48372D01*
X81187Y-48416D01*
X81187Y-48442D01*
X81127Y-48442D01*
X81067Y-48454D01*
X81017Y-48488D01*
X80849Y-48656D01*
X80815Y-48706D01*
X80808Y-48742D01*
X80807Y-48742D01*
X80807Y-48742D01*
X80807Y-48728D01*
X80745Y-48728D01*
X80807Y-48666D01*
X80807Y-48571D01*
X80769Y-48480D01*
X80699Y-48409D01*
X80607Y-48371D01*
X80507Y-48371D01*
X80532Y-48371D01*
X80470Y-48434D01*
X80470Y-48729D01*
X80477Y-48729D01*
X80477Y-48829D01*
X80470Y-48829D01*
X80470Y-48836D01*
X80370Y-48836D01*
X80370Y-48829D01*
X80362Y-48829D01*
X80362Y-48729D01*
X80370Y-48729D01*
X80370Y-48441D01*
X80397Y-48399D01*
X80397Y-48399D01*
X80409Y-48340D01*
X80409Y-48340D01*
X80409Y-48320D01*
X80409Y-48304D01*
X80415Y-48304D01*
X80460Y-48286D01*
X80493Y-48252D01*
X80512Y-48208D01*
X80512Y-48162D01*
X80512Y-48162D01*
X80545Y-48139D01*
X80646Y-48038D01*
X80646Y-48080D01*
X80653Y-48096D01*
X80646Y-48111D01*
X80646Y-48159D01*
X80646Y-48238D01*
X80665Y-48282D01*
X80698Y-48315D01*
X80742Y-48334D01*
X80790Y-48334D01*
X80919Y-48334D01*
X80920Y-48334D01*
X80920Y-48334D01*
X81105Y-48334D01*
X81149Y-48316D01*
X81183Y-48282D01*
X81201Y-48238D01*
X81201Y-48209D01*
X81232Y-48240D01*
X81328Y-48279D01*
X81431Y-48280D01*
X81527Y-48240D01*
X81600Y-48167D01*
X81639Y-48071D01*
X81640Y-47968D01*
X81600Y-47872D01*
X81527Y-47799D01*
X81431Y-47760D01*
X81328Y-47759D01*
X81232Y-47799D01*
X81201Y-47830D01*
X81201Y-47796D01*
X81195Y-47781D01*
X81201Y-47765D01*
X81201Y-47718D01*
X81201Y-47639D01*
X81195Y-47623D01*
X81201Y-47608D01*
X81201Y-47560D01*
X81201Y-47481D01*
X81195Y-47466D01*
X81201Y-47450D01*
X81201Y-47403D01*
X81201Y-47350D01*
X81500Y-47350D01*
X81500Y-47252D01*
X81542Y-47295D01*
X81638Y-47334D01*
X81741Y-47335D01*
X81770Y-47323D01*
X81769Y-47411D01*
X81809Y-47507D01*
X81882Y-47580D01*
X81978Y-47619D01*
X82081Y-47620D01*
X82177Y-47580D01*
X82250Y-47507D01*
X82289Y-47411D01*
X82290Y-47308D01*
X82288Y-47305D01*
X82331Y-47305D01*
X82427Y-47265D01*
X82500Y-47192D01*
X82539Y-47096D01*
X82540Y-46993D01*
X82512Y-46927D01*
X82512Y-46927D01*
X82556Y-46909D01*
X82590Y-46875D01*
X82608Y-46831D01*
X82608Y-46783D01*
X82608Y-46468D01*
X82590Y-46424D01*
X82557Y-46390D01*
X82512Y-46372D01*
X82465Y-46372D01*
X82447Y-46372D01*
X82447Y-46032D01*
X82447Y-46032D01*
X82435Y-45972D01*
X82435Y-45972D01*
X82401Y-45922D01*
X82401Y-45922D01*
X82204Y-45724D01*
X82280Y-45725D01*
X82660Y-46104D01*
X82660Y-46380D01*
X82671Y-46439D01*
X82705Y-46489D01*
X83186Y-46970D01*
X83236Y-47004D01*
X83236Y-47004D01*
X83289Y-47014D01*
X83289Y-47014D01*
G37*
G54D46*
X83289Y-47014D02*
X83265Y-47030D01*
X83265Y-47030D01*
X83220Y-47075D01*
X83149Y-47075D01*
X83149Y-47009D01*
X83131Y-46965D01*
X83097Y-46931D01*
X83053Y-46913D01*
X83006Y-46913D01*
X82691Y-46913D01*
X82647Y-46931D01*
X82613Y-46965D01*
X82594Y-47009D01*
X82594Y-47056D01*
X82594Y-47135D01*
X82601Y-47151D01*
X82594Y-47166D01*
X82594Y-47214D01*
X82594Y-47250D01*
X82475Y-47250D01*
X82475Y-47431D01*
X82464Y-47455D01*
X82464Y-47462D01*
X82527Y-47525D01*
X82643Y-47525D01*
X82646Y-47528D01*
X82686Y-47545D01*
X82680Y-47547D01*
X82617Y-47547D01*
X82558Y-47559D01*
X82550Y-47564D01*
X82527Y-47564D01*
X82464Y-47627D01*
X82464Y-47634D01*
X82465Y-47635D01*
X82420Y-47680D01*
X82386Y-47730D01*
X82375Y-47790D01*
X82375Y-47915D01*
X82292Y-47949D01*
X82219Y-48022D01*
X82180Y-48118D01*
X82179Y-48221D01*
X82219Y-48317D01*
X82224Y-48322D01*
X82213Y-48326D01*
X82197Y-48320D01*
X82150Y-48320D01*
X82071Y-48320D01*
X82055Y-48326D01*
X82040Y-48320D01*
X81992Y-48320D01*
X81914Y-48320D01*
X81898Y-48326D01*
X81883Y-48320D01*
X81835Y-48320D01*
X81756Y-48320D01*
X81740Y-48326D01*
X81725Y-48320D01*
X81677Y-48320D01*
X81599Y-48320D01*
X81583Y-48326D01*
X81568Y-48320D01*
X81520Y-48320D01*
X81441Y-48320D01*
X81426Y-48326D01*
X81410Y-48320D01*
X81362Y-48320D01*
X81284Y-48320D01*
X81239Y-48338D01*
X81206Y-48372D01*
X81187Y-48416D01*
X81187Y-48442D01*
X81127Y-48442D01*
X81067Y-48454D01*
X81017Y-48488D01*
X80849Y-48656D01*
X80815Y-48706D01*
X80808Y-48742D01*
X80807Y-48742D01*
X80807Y-48742D01*
X80807Y-48728D01*
X80745Y-48728D01*
X80807Y-48666D01*
X80807Y-48571D01*
X80769Y-48480D01*
X80699Y-48409D01*
X80607Y-48371D01*
X80507Y-48371D01*
X80532Y-48371D01*
X80470Y-48434D01*
X80470Y-48729D01*
X80477Y-48729D01*
X80477Y-48829D01*
X80470Y-48829D01*
X80470Y-48836D01*
X80370Y-48836D01*
X80370Y-48829D01*
X80362Y-48829D01*
X80362Y-48729D01*
X80370Y-48729D01*
X80370Y-48441D01*
X80397Y-48399D01*
X80397Y-48399D01*
X80409Y-48340D01*
X80409Y-48340D01*
X80409Y-48320D01*
X80409Y-48304D01*
X80415Y-48304D01*
X80460Y-48286D01*
X80493Y-48252D01*
X80512Y-48208D01*
X80512Y-48162D01*
X80512Y-48162D01*
X80545Y-48139D01*
X80646Y-48038D01*
X80646Y-48080D01*
X80653Y-48096D01*
X80646Y-48111D01*
X80646Y-48159D01*
X80646Y-48238D01*
X80665Y-48282D01*
X80698Y-48315D01*
X80742Y-48334D01*
X80790Y-48334D01*
X80919Y-48334D01*
X80920Y-48334D01*
X80920Y-48334D01*
X81105Y-48334D01*
X81149Y-48316D01*
X81183Y-48282D01*
X81201Y-48238D01*
X81201Y-48209D01*
X81232Y-48240D01*
X81328Y-48279D01*
X81431Y-48280D01*
X81527Y-48240D01*
X81600Y-48167D01*
X81639Y-48071D01*
X81640Y-47968D01*
X81600Y-47872D01*
X81527Y-47799D01*
X81431Y-47760D01*
X81328Y-47759D01*
X81232Y-47799D01*
X81201Y-47830D01*
X81201Y-47796D01*
X81195Y-47781D01*
X81201Y-47765D01*
X81201Y-47718D01*
X81201Y-47639D01*
X81195Y-47623D01*
X81201Y-47608D01*
X81201Y-47560D01*
X81201Y-47481D01*
X81195Y-47466D01*
X81201Y-47450D01*
X81201Y-47403D01*
X81201Y-47350D01*
X81500Y-47350D01*
X81500Y-47252D01*
X81542Y-47295D01*
X81638Y-47334D01*
X81741Y-47335D01*
X81770Y-47323D01*
X81769Y-47411D01*
X81809Y-47507D01*
X81882Y-47580D01*
X81978Y-47619D01*
X82081Y-47620D01*
X82177Y-47580D01*
X82250Y-47507D01*
X82289Y-47411D01*
X82290Y-47308D01*
X82288Y-47305D01*
X82331Y-47305D01*
X82427Y-47265D01*
X82500Y-47192D01*
X82539Y-47096D01*
X82540Y-46993D01*
X82512Y-46927D01*
X82512Y-46927D01*
X82556Y-46909D01*
X82590Y-46875D01*
X82608Y-46831D01*
X82608Y-46783D01*
X82608Y-46468D01*
X82590Y-46424D01*
X82557Y-46390D01*
X82512Y-46372D01*
X82465Y-46372D01*
X82447Y-46372D01*
X82447Y-46032D01*
X82447Y-46032D01*
X82435Y-45972D01*
X82435Y-45972D01*
X82401Y-45922D01*
X82401Y-45922D01*
X82204Y-45724D01*
X82280Y-45725D01*
X82660Y-46104D01*
X82660Y-46380D01*
X82671Y-46439D01*
X82705Y-46489D01*
X83186Y-46970D01*
X83236Y-47004D01*
X83236Y-47004D01*
X83289Y-47014D01*
G54D10*
G36*
X83803Y-48625D02*
X83796Y-48625D01*
X83796Y-48680D01*
X83736Y-48739D01*
X83736Y-48677D01*
X83696Y-48677D01*
X83696Y-48625D01*
X83688Y-48625D01*
X83688Y-48525D01*
X83696Y-48525D01*
X83696Y-48517D01*
X83762Y-48517D01*
X83762Y-48578D01*
X83803Y-48619D01*
X83803Y-48625D01*
X83803Y-48625D01*
G37*
G54D46*
X83803Y-48625D02*
X83796Y-48625D01*
X83796Y-48680D01*
X83736Y-48739D01*
X83736Y-48677D01*
X83696Y-48677D01*
X83696Y-48625D01*
X83688Y-48625D01*
X83688Y-48525D01*
X83696Y-48525D01*
X83696Y-48517D01*
X83762Y-48517D01*
X83762Y-48578D01*
X83803Y-48619D01*
X83803Y-48625D01*
G54D10*
G36*
X84150Y-47459D02*
X84120Y-47459D01*
X84120Y-47466D01*
X84020Y-47466D01*
X84020Y-47459D01*
X83970Y-47459D01*
X83745Y-47459D01*
X83695Y-47459D01*
X83695Y-47466D01*
X83595Y-47466D01*
X83595Y-47459D01*
X83587Y-47459D01*
X83587Y-47359D01*
X83595Y-47359D01*
X83595Y-47351D01*
X83695Y-47351D01*
X83695Y-47359D01*
X83745Y-47359D01*
X83970Y-47359D01*
X84020Y-47359D01*
X84020Y-47309D01*
X84029Y-47300D01*
X84120Y-47300D01*
X84120Y-47359D01*
X84150Y-47359D01*
X84150Y-47459D01*
X84150Y-47459D01*
G37*
G54D46*
X84150Y-47459D02*
X84120Y-47459D01*
X84120Y-47466D01*
X84020Y-47466D01*
X84020Y-47459D01*
X83970Y-47459D01*
X83745Y-47459D01*
X83695Y-47459D01*
X83695Y-47466D01*
X83595Y-47466D01*
X83595Y-47459D01*
X83587Y-47459D01*
X83587Y-47359D01*
X83595Y-47359D01*
X83595Y-47351D01*
X83695Y-47351D01*
X83695Y-47359D01*
X83745Y-47359D01*
X83970Y-47359D01*
X84020Y-47359D01*
X84020Y-47309D01*
X84029Y-47300D01*
X84120Y-47300D01*
X84120Y-47359D01*
X84150Y-47359D01*
X84150Y-47459D01*
G54D10*
G36*
X84150Y-49224D02*
X84130Y-49224D01*
X84093Y-49224D01*
X84093Y-49152D01*
X84093Y-49177D01*
X84031Y-49115D01*
X83736Y-49115D01*
X83736Y-49122D01*
X83636Y-49122D01*
X83636Y-49115D01*
X83628Y-49115D01*
X83628Y-49022D01*
X83633Y-49022D01*
X83648Y-49007D01*
X83736Y-49007D01*
X83736Y-49015D01*
X83825Y-49015D01*
X83870Y-49060D01*
X83962Y-49098D01*
X84062Y-49098D01*
X84037Y-49098D01*
X84099Y-49036D01*
X84099Y-49098D01*
X84150Y-49098D01*
X84150Y-49224D01*
X84150Y-49224D01*
G37*
G54D46*
X84150Y-49224D02*
X84130Y-49224D01*
X84093Y-49224D01*
X84093Y-49152D01*
X84093Y-49177D01*
X84031Y-49115D01*
X83736Y-49115D01*
X83736Y-49122D01*
X83636Y-49122D01*
X83636Y-49115D01*
X83628Y-49115D01*
X83628Y-49022D01*
X83633Y-49022D01*
X83648Y-49007D01*
X83736Y-49007D01*
X83736Y-49015D01*
X83825Y-49015D01*
X83870Y-49060D01*
X83962Y-49098D01*
X84062Y-49098D01*
X84037Y-49098D01*
X84099Y-49036D01*
X84099Y-49098D01*
X84150Y-49098D01*
X84150Y-49224D01*
G54D10*
G36*
X84152Y-43644D02*
X84145Y-43644D01*
X84145Y-43651D01*
X84045Y-43651D01*
X84045Y-43644D01*
X83960Y-43644D01*
X83770Y-43644D01*
X83685Y-43644D01*
X83685Y-43651D01*
X83585Y-43651D01*
X83585Y-43644D01*
X83310Y-43644D01*
X83296Y-43657D01*
X83145Y-43657D01*
X83145Y-43680D01*
X83045Y-43680D01*
X83045Y-43657D01*
X82750Y-43657D01*
X82708Y-43699D01*
X82294Y-43285D01*
X82244Y-43251D01*
X82185Y-43240D01*
X82004Y-43240D01*
X82033Y-43220D01*
X82156Y-43097D01*
X82254Y-43097D01*
X82317Y-43160D01*
X82413Y-43199D01*
X82516Y-43200D01*
X82612Y-43160D01*
X82685Y-43087D01*
X82724Y-42991D01*
X82725Y-42888D01*
X82685Y-42792D01*
X82671Y-42778D01*
X82695Y-42778D01*
X82819Y-42778D01*
X82818Y-42781D01*
X82817Y-42829D01*
X82817Y-42967D01*
X82832Y-43002D01*
X82818Y-43037D01*
X82817Y-43085D01*
X82817Y-43223D01*
X82832Y-43258D01*
X82818Y-43293D01*
X82817Y-43333D01*
X82796Y-43342D01*
X82725Y-43412D01*
X82687Y-43504D01*
X82687Y-43525D01*
X82750Y-43588D01*
X83045Y-43588D01*
X83045Y-43575D01*
X83145Y-43575D01*
X83145Y-43588D01*
X83440Y-43588D01*
X83484Y-43544D01*
X83585Y-43544D01*
X83585Y-43536D01*
X83685Y-43536D01*
X83685Y-43544D01*
X83770Y-43544D01*
X83960Y-43544D01*
X84045Y-43544D01*
X84045Y-43536D01*
X84145Y-43536D01*
X84145Y-43544D01*
X84152Y-43544D01*
X84152Y-43644D01*
X84152Y-43644D01*
G37*
G54D46*
X84152Y-43644D02*
X84145Y-43644D01*
X84145Y-43651D01*
X84045Y-43651D01*
X84045Y-43644D01*
X83960Y-43644D01*
X83770Y-43644D01*
X83685Y-43644D01*
X83685Y-43651D01*
X83585Y-43651D01*
X83585Y-43644D01*
X83310Y-43644D01*
X83296Y-43657D01*
X83145Y-43657D01*
X83145Y-43680D01*
X83045Y-43680D01*
X83045Y-43657D01*
X82750Y-43657D01*
X82708Y-43699D01*
X82294Y-43285D01*
X82244Y-43251D01*
X82185Y-43240D01*
X82004Y-43240D01*
X82033Y-43220D01*
X82156Y-43097D01*
X82254Y-43097D01*
X82317Y-43160D01*
X82413Y-43199D01*
X82516Y-43200D01*
X82612Y-43160D01*
X82685Y-43087D01*
X82724Y-42991D01*
X82725Y-42888D01*
X82685Y-42792D01*
X82671Y-42778D01*
X82695Y-42778D01*
X82819Y-42778D01*
X82818Y-42781D01*
X82817Y-42829D01*
X82817Y-42967D01*
X82832Y-43002D01*
X82818Y-43037D01*
X82817Y-43085D01*
X82817Y-43223D01*
X82832Y-43258D01*
X82818Y-43293D01*
X82817Y-43333D01*
X82796Y-43342D01*
X82725Y-43412D01*
X82687Y-43504D01*
X82687Y-43525D01*
X82750Y-43588D01*
X83045Y-43588D01*
X83045Y-43575D01*
X83145Y-43575D01*
X83145Y-43588D01*
X83440Y-43588D01*
X83484Y-43544D01*
X83585Y-43544D01*
X83585Y-43536D01*
X83685Y-43536D01*
X83685Y-43544D01*
X83770Y-43544D01*
X83960Y-43544D01*
X84045Y-43544D01*
X84045Y-43536D01*
X84145Y-43536D01*
X84145Y-43544D01*
X84152Y-43544D01*
X84152Y-43644D01*
G54D10*
G36*
X84400Y-52210D02*
X78765Y-52210D01*
X78325Y-52123D01*
X77967Y-51883D01*
X77726Y-51522D01*
X77639Y-51086D01*
X77639Y-47300D01*
X79170Y-47300D01*
X79327Y-47143D01*
X79359Y-47175D01*
X79654Y-47175D01*
X79654Y-47167D01*
X79754Y-47167D01*
X79754Y-47175D01*
X79761Y-47175D01*
X79761Y-47275D01*
X79754Y-47275D01*
X79754Y-47282D01*
X79654Y-47282D01*
X79654Y-47275D01*
X79359Y-47275D01*
X79296Y-47337D01*
X79296Y-47312D01*
X79296Y-47412D01*
X79334Y-47504D01*
X79405Y-47574D01*
X79496Y-47612D01*
X79582Y-47612D01*
X79582Y-47780D01*
X79596Y-47815D01*
X79582Y-47849D01*
X79582Y-47897D01*
X79582Y-48095D01*
X79539Y-48113D01*
X79469Y-48183D01*
X79464Y-48196D01*
X79395Y-48196D01*
X79348Y-48215D01*
X79312Y-48252D01*
X79292Y-48299D01*
X79292Y-48300D01*
X79275Y-48300D01*
X79274Y-48300D01*
X79263Y-48302D01*
X79215Y-48311D01*
X79165Y-48345D01*
X79165Y-48345D01*
X79165Y-48345D01*
X79040Y-48470D01*
X79006Y-48520D01*
X78995Y-48580D01*
X78995Y-49190D01*
X79006Y-49249D01*
X79040Y-49299D01*
X79105Y-49364D01*
X79105Y-49364D01*
X79155Y-49398D01*
X79155Y-49398D01*
X79215Y-49410D01*
X79301Y-49410D01*
X79319Y-49452D01*
X79345Y-49478D01*
X79345Y-49820D01*
X79356Y-49879D01*
X79390Y-49929D01*
X79500Y-50039D01*
X79550Y-50073D01*
X79550Y-50073D01*
X79610Y-50085D01*
X79955Y-50085D01*
X80774Y-50903D01*
X80774Y-51630D01*
X80792Y-51674D01*
X80826Y-51708D01*
X80870Y-51727D01*
X80918Y-51727D01*
X81509Y-51727D01*
X81553Y-51708D01*
X81586Y-51675D01*
X81605Y-51631D01*
X81605Y-51583D01*
X81605Y-50795D01*
X81587Y-50751D01*
X81553Y-50718D01*
X81509Y-50699D01*
X81461Y-50699D01*
X81008Y-50699D01*
X80201Y-49892D01*
X80387Y-49892D01*
X80431Y-49874D01*
X80465Y-49840D01*
X80483Y-49796D01*
X80483Y-49790D01*
X80660Y-49790D01*
X80775Y-49904D01*
X80774Y-49908D01*
X80774Y-50125D01*
X80806Y-50283D01*
X80896Y-50418D01*
X81031Y-50508D01*
X81190Y-50540D01*
X81348Y-50508D01*
X81483Y-50418D01*
X81507Y-50383D01*
X81507Y-50572D01*
X81519Y-50631D01*
X81552Y-50681D01*
X81810Y-50939D01*
X81806Y-50945D01*
X81774Y-51104D01*
X81774Y-51321D01*
X81806Y-51480D01*
X81896Y-51615D01*
X82031Y-51705D01*
X82190Y-51737D01*
X82348Y-51705D01*
X82483Y-51615D01*
X82573Y-51480D01*
X82605Y-51321D01*
X82605Y-51104D01*
X82573Y-50945D01*
X82483Y-50811D01*
X82348Y-50721D01*
X82190Y-50689D01*
X82031Y-50721D01*
X82030Y-50721D01*
X81817Y-50508D01*
X81817Y-50300D01*
X81896Y-50418D01*
X82031Y-50508D01*
X82190Y-50540D01*
X82348Y-50508D01*
X82483Y-50418D01*
X82525Y-50356D01*
X82525Y-50590D01*
X82536Y-50649D01*
X82570Y-50699D01*
X82810Y-50939D01*
X82806Y-50945D01*
X82774Y-51104D01*
X82774Y-51321D01*
X82806Y-51480D01*
X82896Y-51615D01*
X83031Y-51705D01*
X83190Y-51737D01*
X83348Y-51705D01*
X83483Y-51615D01*
X83573Y-51480D01*
X83605Y-51321D01*
X83605Y-51104D01*
X83573Y-50945D01*
X83483Y-50811D01*
X83348Y-50721D01*
X83190Y-50689D01*
X83031Y-50721D01*
X83030Y-50721D01*
X82835Y-50525D01*
X82835Y-50326D01*
X82896Y-50418D01*
X83031Y-50508D01*
X83190Y-50540D01*
X83348Y-50508D01*
X83483Y-50418D01*
X83573Y-50283D01*
X83605Y-50125D01*
X83605Y-49908D01*
X83573Y-49749D01*
X83483Y-49614D01*
X83348Y-49524D01*
X83190Y-49492D01*
X83031Y-49524D01*
X82978Y-49559D01*
X82666Y-49247D01*
X82702Y-49247D01*
X82985Y-49247D01*
X82994Y-49270D01*
X83028Y-49304D01*
X83072Y-49322D01*
X83120Y-49322D01*
X83307Y-49322D01*
X83316Y-49344D01*
X83387Y-49414D01*
X83478Y-49452D01*
X83556Y-49452D01*
X83540Y-49493D01*
X83539Y-49596D01*
X83579Y-49692D01*
X83652Y-49765D01*
X83748Y-49804D01*
X83798Y-49804D01*
X83802Y-49812D01*
X83835Y-49846D01*
X83880Y-49864D01*
X83927Y-49865D01*
X84177Y-49865D01*
X84221Y-49846D01*
X84255Y-49813D01*
X84273Y-49768D01*
X84273Y-49744D01*
X84285Y-49756D01*
X84285Y-49768D01*
X84304Y-49812D01*
X84337Y-49846D01*
X84382Y-49864D01*
X84394Y-49864D01*
X84400Y-49870D01*
X84400Y-52210D01*
X84400Y-52210D01*
G37*
G54D46*
X84400Y-52210D02*
X78765Y-52210D01*
X78325Y-52123D01*
X77967Y-51883D01*
X77726Y-51522D01*
X77639Y-51086D01*
X77639Y-47300D01*
X79170Y-47300D01*
X79327Y-47143D01*
X79359Y-47175D01*
X79654Y-47175D01*
X79654Y-47167D01*
X79754Y-47167D01*
X79754Y-47175D01*
X79761Y-47175D01*
X79761Y-47275D01*
X79754Y-47275D01*
X79754Y-47282D01*
X79654Y-47282D01*
X79654Y-47275D01*
X79359Y-47275D01*
X79296Y-47337D01*
X79296Y-47312D01*
X79296Y-47412D01*
X79334Y-47504D01*
X79405Y-47574D01*
X79496Y-47612D01*
X79582Y-47612D01*
X79582Y-47780D01*
X79596Y-47815D01*
X79582Y-47849D01*
X79582Y-47897D01*
X79582Y-48095D01*
X79539Y-48113D01*
X79469Y-48183D01*
X79464Y-48196D01*
X79395Y-48196D01*
X79348Y-48215D01*
X79312Y-48252D01*
X79292Y-48299D01*
X79292Y-48300D01*
X79275Y-48300D01*
X79274Y-48300D01*
X79263Y-48302D01*
X79215Y-48311D01*
X79165Y-48345D01*
X79165Y-48345D01*
X79165Y-48345D01*
X79040Y-48470D01*
X79006Y-48520D01*
X78995Y-48580D01*
X78995Y-49190D01*
X79006Y-49249D01*
X79040Y-49299D01*
X79105Y-49364D01*
X79105Y-49364D01*
X79155Y-49398D01*
X79155Y-49398D01*
X79215Y-49410D01*
X79301Y-49410D01*
X79319Y-49452D01*
X79345Y-49478D01*
X79345Y-49820D01*
X79356Y-49879D01*
X79390Y-49929D01*
X79500Y-50039D01*
X79550Y-50073D01*
X79550Y-50073D01*
X79610Y-50085D01*
X79955Y-50085D01*
X80774Y-50903D01*
X80774Y-51630D01*
X80792Y-51674D01*
X80826Y-51708D01*
X80870Y-51727D01*
X80918Y-51727D01*
X81509Y-51727D01*
X81553Y-51708D01*
X81586Y-51675D01*
X81605Y-51631D01*
X81605Y-51583D01*
X81605Y-50795D01*
X81587Y-50751D01*
X81553Y-50718D01*
X81509Y-50699D01*
X81461Y-50699D01*
X81008Y-50699D01*
X80201Y-49892D01*
X80387Y-49892D01*
X80431Y-49874D01*
X80465Y-49840D01*
X80483Y-49796D01*
X80483Y-49790D01*
X80660Y-49790D01*
X80775Y-49904D01*
X80774Y-49908D01*
X80774Y-50125D01*
X80806Y-50283D01*
X80896Y-50418D01*
X81031Y-50508D01*
X81190Y-50540D01*
X81348Y-50508D01*
X81483Y-50418D01*
X81507Y-50383D01*
X81507Y-50572D01*
X81519Y-50631D01*
X81552Y-50681D01*
X81810Y-50939D01*
X81806Y-50945D01*
X81774Y-51104D01*
X81774Y-51321D01*
X81806Y-51480D01*
X81896Y-51615D01*
X82031Y-51705D01*
X82190Y-51737D01*
X82348Y-51705D01*
X82483Y-51615D01*
X82573Y-51480D01*
X82605Y-51321D01*
X82605Y-51104D01*
X82573Y-50945D01*
X82483Y-50811D01*
X82348Y-50721D01*
X82190Y-50689D01*
X82031Y-50721D01*
X82030Y-50721D01*
X81817Y-50508D01*
X81817Y-50300D01*
X81896Y-50418D01*
X82031Y-50508D01*
X82190Y-50540D01*
X82348Y-50508D01*
X82483Y-50418D01*
X82525Y-50356D01*
X82525Y-50590D01*
X82536Y-50649D01*
X82570Y-50699D01*
X82810Y-50939D01*
X82806Y-50945D01*
X82774Y-51104D01*
X82774Y-51321D01*
X82806Y-51480D01*
X82896Y-51615D01*
X83031Y-51705D01*
X83190Y-51737D01*
X83348Y-51705D01*
X83483Y-51615D01*
X83573Y-51480D01*
X83605Y-51321D01*
X83605Y-51104D01*
X83573Y-50945D01*
X83483Y-50811D01*
X83348Y-50721D01*
X83190Y-50689D01*
X83031Y-50721D01*
X83030Y-50721D01*
X82835Y-50525D01*
X82835Y-50326D01*
X82896Y-50418D01*
X83031Y-50508D01*
X83190Y-50540D01*
X83348Y-50508D01*
X83483Y-50418D01*
X83573Y-50283D01*
X83605Y-50125D01*
X83605Y-49908D01*
X83573Y-49749D01*
X83483Y-49614D01*
X83348Y-49524D01*
X83190Y-49492D01*
X83031Y-49524D01*
X82978Y-49559D01*
X82666Y-49247D01*
X82702Y-49247D01*
X82985Y-49247D01*
X82994Y-49270D01*
X83028Y-49304D01*
X83072Y-49322D01*
X83120Y-49322D01*
X83307Y-49322D01*
X83316Y-49344D01*
X83387Y-49414D01*
X83478Y-49452D01*
X83556Y-49452D01*
X83540Y-49493D01*
X83539Y-49596D01*
X83579Y-49692D01*
X83652Y-49765D01*
X83748Y-49804D01*
X83798Y-49804D01*
X83802Y-49812D01*
X83835Y-49846D01*
X83880Y-49864D01*
X83927Y-49865D01*
X84177Y-49865D01*
X84221Y-49846D01*
X84255Y-49813D01*
X84273Y-49768D01*
X84273Y-49744D01*
X84285Y-49756D01*
X84285Y-49768D01*
X84304Y-49812D01*
X84337Y-49846D01*
X84382Y-49864D01*
X84394Y-49864D01*
X84400Y-49870D01*
X84400Y-52210D01*
G54D10*
G36*
X91753Y-34690D02*
X91746Y-34690D01*
X91746Y-34697D01*
X91646Y-34697D01*
X91646Y-34690D01*
X91638Y-34690D01*
X91638Y-34590D01*
X91646Y-34590D01*
X91646Y-34587D01*
X91666Y-34587D01*
X91666Y-34525D01*
X91728Y-34587D01*
X91746Y-34587D01*
X91746Y-34590D01*
X91753Y-34590D01*
X91753Y-34690D01*
X91753Y-34690D01*
G37*
G54D46*
X91753Y-34690D02*
X91746Y-34690D01*
X91746Y-34697D01*
X91646Y-34697D01*
X91646Y-34690D01*
X91638Y-34690D01*
X91638Y-34590D01*
X91646Y-34590D01*
X91646Y-34587D01*
X91666Y-34587D01*
X91666Y-34525D01*
X91728Y-34587D01*
X91746Y-34587D01*
X91746Y-34590D01*
X91753Y-34590D01*
X91753Y-34690D01*
G54D10*
G36*
X92012Y-33816D02*
X92005Y-33816D01*
X92005Y-33968D01*
X91985Y-33920D01*
X91914Y-33850D01*
X91905Y-33846D01*
X91905Y-33816D01*
X91897Y-33816D01*
X91897Y-33716D01*
X91905Y-33716D01*
X91905Y-33708D01*
X92005Y-33708D01*
X92005Y-33716D01*
X92012Y-33716D01*
X92012Y-33816D01*
X92012Y-33816D01*
G37*
G54D46*
X92012Y-33816D02*
X92005Y-33816D01*
X92005Y-33968D01*
X91985Y-33920D01*
X91914Y-33850D01*
X91905Y-33846D01*
X91905Y-33816D01*
X91897Y-33816D01*
X91897Y-33716D01*
X91905Y-33716D01*
X91905Y-33708D01*
X92005Y-33708D01*
X92005Y-33716D01*
X92012Y-33716D01*
X92012Y-33816D01*
G54D10*
G36*
X92075Y-34291D02*
X92014Y-34230D01*
X91922Y-34192D01*
X91808Y-34193D01*
X91751Y-34250D01*
X91666Y-34250D01*
X91666Y-34257D01*
X91646Y-34257D01*
X91646Y-34255D01*
X91583Y-34193D01*
X91558Y-34192D01*
X91558Y-34150D01*
X91566Y-34150D01*
X91566Y-34099D01*
X91574Y-34091D01*
X91574Y-33989D01*
X91605Y-34064D01*
X91629Y-34088D01*
X91629Y-34091D01*
X91666Y-34128D01*
X91666Y-34150D01*
X91687Y-34150D01*
X91691Y-34154D01*
X91706Y-34154D01*
X91713Y-34151D01*
X91767Y-34173D01*
X91867Y-34173D01*
X91842Y-34173D01*
X91866Y-34150D01*
X91961Y-34150D01*
X92005Y-34106D01*
X92005Y-34111D01*
X92067Y-34173D01*
X92042Y-34173D01*
X92075Y-34173D01*
X92075Y-34291D01*
X92075Y-34291D01*
G37*
G54D46*
X92075Y-34291D02*
X92014Y-34230D01*
X91922Y-34192D01*
X91808Y-34193D01*
X91751Y-34250D01*
X91666Y-34250D01*
X91666Y-34257D01*
X91646Y-34257D01*
X91646Y-34255D01*
X91583Y-34193D01*
X91558Y-34192D01*
X91558Y-34150D01*
X91566Y-34150D01*
X91566Y-34099D01*
X91574Y-34091D01*
X91574Y-33989D01*
X91605Y-34064D01*
X91629Y-34088D01*
X91629Y-34091D01*
X91666Y-34128D01*
X91666Y-34150D01*
X91687Y-34150D01*
X91691Y-34154D01*
X91706Y-34154D01*
X91713Y-34151D01*
X91767Y-34173D01*
X91867Y-34173D01*
X91842Y-34173D01*
X91866Y-34150D01*
X91961Y-34150D01*
X92005Y-34106D01*
X92005Y-34111D01*
X92067Y-34173D01*
X92042Y-34173D01*
X92075Y-34173D01*
X92075Y-34291D01*
G54D10*
G36*
X92195Y-37560D02*
X92101Y-37654D01*
X92109Y-37634D01*
X92109Y-37599D01*
X92047Y-37537D01*
X91820Y-37537D01*
X91820Y-37548D01*
X91741Y-37548D01*
X91741Y-37537D01*
X91723Y-37537D01*
X91723Y-37496D01*
X91725Y-37490D01*
X91723Y-37484D01*
X91723Y-37443D01*
X91741Y-37443D01*
X91741Y-37432D01*
X91820Y-37432D01*
X91820Y-37443D01*
X92047Y-37443D01*
X92109Y-37381D01*
X92109Y-37347D01*
X92071Y-37255D01*
X92068Y-37252D01*
X92195Y-37252D01*
X92195Y-37560D01*
X92195Y-37560D01*
G37*
G54D46*
X92195Y-37560D02*
X92101Y-37654D01*
X92109Y-37634D01*
X92109Y-37599D01*
X92047Y-37537D01*
X91820Y-37537D01*
X91820Y-37548D01*
X91741Y-37548D01*
X91741Y-37537D01*
X91723Y-37537D01*
X91723Y-37496D01*
X91725Y-37490D01*
X91723Y-37484D01*
X91723Y-37443D01*
X91741Y-37443D01*
X91741Y-37432D01*
X91820Y-37432D01*
X91820Y-37443D01*
X92047Y-37443D01*
X92109Y-37381D01*
X92109Y-37347D01*
X92071Y-37255D01*
X92068Y-37252D01*
X92195Y-37252D01*
X92195Y-37560D01*
G54D10*
G36*
X93110Y-47682D02*
X92965Y-48412D01*
X92829Y-48615D01*
X92829Y-41879D01*
X92829Y-39202D01*
X92784Y-39093D01*
X92701Y-39009D01*
X92592Y-38964D01*
X92473Y-38964D01*
X92364Y-39009D01*
X92280Y-39092D01*
X92255Y-39155D01*
X92255Y-39025D01*
X92243Y-38965D01*
X92243Y-38965D01*
X92209Y-38915D01*
X91935Y-38641D01*
X91935Y-38396D01*
X91961Y-38370D01*
X91964Y-38364D01*
X92040Y-38364D01*
X92100Y-38352D01*
X92100Y-38352D01*
X92150Y-38318D01*
X92234Y-38234D01*
X92234Y-38234D01*
X92234Y-38234D01*
X92268Y-38184D01*
X92268Y-38184D01*
X92280Y-38125D01*
X92280Y-37914D01*
X92459Y-37734D01*
X92493Y-37684D01*
X92493Y-37684D01*
X92505Y-37625D01*
X92505Y-37252D01*
X92703Y-37252D01*
X92747Y-37234D01*
X92781Y-37200D01*
X92799Y-37156D01*
X92799Y-37108D01*
X92799Y-34943D01*
X92781Y-34899D01*
X92747Y-34865D01*
X92703Y-34847D01*
X92655Y-34847D01*
X92257Y-34847D01*
X92322Y-34820D01*
X92395Y-34747D01*
X92434Y-34651D01*
X92435Y-34548D01*
X92395Y-34452D01*
X92385Y-34442D01*
X92385Y-33405D01*
X92373Y-33345D01*
X92373Y-33345D01*
X92339Y-33295D01*
X92268Y-33224D01*
X92218Y-33190D01*
X92212Y-33189D01*
X92212Y-33152D01*
X92194Y-33108D01*
X92160Y-33074D01*
X92116Y-33056D01*
X92068Y-33056D01*
X91793Y-33056D01*
X91755Y-33072D01*
X91745Y-33017D01*
X91745Y-33017D01*
X91711Y-32967D01*
X91711Y-32967D01*
X91659Y-32915D01*
X91609Y-32881D01*
X91550Y-32870D01*
X91255Y-32870D01*
X91195Y-32881D01*
X91145Y-32915D01*
X91098Y-32962D01*
X91064Y-33012D01*
X91053Y-33071D01*
X91053Y-33086D01*
X91051Y-33087D01*
X91033Y-33132D01*
X91033Y-33179D01*
X91033Y-33475D01*
X91047Y-33510D01*
X91033Y-33545D01*
X91033Y-33593D01*
X91033Y-33927D01*
X91039Y-33942D01*
X91002Y-33942D01*
X90965Y-33957D01*
X90921Y-33940D01*
X90818Y-33939D01*
X90722Y-33979D01*
X90649Y-34052D01*
X90610Y-34148D01*
X90609Y-34251D01*
X90649Y-34347D01*
X90722Y-34420D01*
X90806Y-34455D01*
X90806Y-34466D01*
X90806Y-34847D01*
X90293Y-34847D01*
X90249Y-34865D01*
X90215Y-34899D01*
X90197Y-34943D01*
X90197Y-34991D01*
X90197Y-35830D01*
X90155Y-35830D01*
X90154Y-35830D01*
X90143Y-35832D01*
X90119Y-35837D01*
X90101Y-35830D01*
X89998Y-35829D01*
X89902Y-35869D01*
X89829Y-35942D01*
X89790Y-36038D01*
X89789Y-36141D01*
X89829Y-36237D01*
X89902Y-36310D01*
X89998Y-36349D01*
X90101Y-36350D01*
X90197Y-36310D01*
X90197Y-36310D01*
X90197Y-37156D01*
X90215Y-37200D01*
X90249Y-37234D01*
X90293Y-37252D01*
X90341Y-37252D01*
X91493Y-37252D01*
X91490Y-37255D01*
X91481Y-37277D01*
X91422Y-37277D01*
X91397Y-37287D01*
X91371Y-37277D01*
X91324Y-37277D01*
X91166Y-37277D01*
X91133Y-37290D01*
X91034Y-37290D01*
X90970Y-37303D01*
X90957Y-37305D01*
X90892Y-37349D01*
X90733Y-37508D01*
X90690Y-37573D01*
X90675Y-37650D01*
X89472Y-37650D01*
X87666Y-35843D01*
X87601Y-35800D01*
X87525Y-35785D01*
X87169Y-35785D01*
X87169Y-34451D01*
X87151Y-34407D01*
X87117Y-34373D01*
X87073Y-34355D01*
X87026Y-34355D01*
X83876Y-34355D01*
X83832Y-34373D01*
X83798Y-34407D01*
X83780Y-34451D01*
X83780Y-34498D01*
X83780Y-37648D01*
X83798Y-37692D01*
X83832Y-37726D01*
X83876Y-37744D01*
X83923Y-37744D01*
X87073Y-37744D01*
X87117Y-37726D01*
X87151Y-37692D01*
X87169Y-37648D01*
X87169Y-37601D01*
X87169Y-36185D01*
X87442Y-36185D01*
X89248Y-37991D01*
X89313Y-38034D01*
X89313Y-38034D01*
X89390Y-38050D01*
X90675Y-38050D01*
X90690Y-38126D01*
X90733Y-38191D01*
X90892Y-38350D01*
X90892Y-38350D01*
X90957Y-38394D01*
X90957Y-38394D01*
X90970Y-38396D01*
X91034Y-38409D01*
X91133Y-38409D01*
X91166Y-38422D01*
X91214Y-38422D01*
X91371Y-38422D01*
X91397Y-38412D01*
X91422Y-38422D01*
X91470Y-38422D01*
X91625Y-38422D01*
X91625Y-38705D01*
X91637Y-38765D01*
X91671Y-38815D01*
X91676Y-38820D01*
X91945Y-39089D01*
X91945Y-39259D01*
X91918Y-39259D01*
X90934Y-39259D01*
X90889Y-39277D01*
X90856Y-39311D01*
X90837Y-39355D01*
X90837Y-39403D01*
X90837Y-39460D01*
X90049Y-39460D01*
X89769Y-39180D01*
X89719Y-39146D01*
X89660Y-39135D01*
X81782Y-39135D01*
X81717Y-39069D01*
X81621Y-39030D01*
X81518Y-39029D01*
X81422Y-39069D01*
X81349Y-39142D01*
X81310Y-39238D01*
X81309Y-39341D01*
X81349Y-39437D01*
X81422Y-39510D01*
X81518Y-39549D01*
X81621Y-39550D01*
X81717Y-39510D01*
X81782Y-39445D01*
X89595Y-39445D01*
X89876Y-39725D01*
X89926Y-39758D01*
X89926Y-39758D01*
X89985Y-39770D01*
X90837Y-39770D01*
X90837Y-39875D01*
X90856Y-39919D01*
X90889Y-39953D01*
X90933Y-39971D01*
X90981Y-39971D01*
X91246Y-39971D01*
X91215Y-40048D01*
X91214Y-40151D01*
X91253Y-40243D01*
X90934Y-40243D01*
X90932Y-40244D01*
X90932Y-40243D01*
X90913Y-40199D01*
X90880Y-40165D01*
X90835Y-40147D01*
X90788Y-40146D01*
X90394Y-40146D01*
X90350Y-40165D01*
X90316Y-40198D01*
X90298Y-40243D01*
X90297Y-40290D01*
X90297Y-40638D01*
X90276Y-40647D01*
X90205Y-40717D01*
X90167Y-40809D01*
X90168Y-40923D01*
X90230Y-40986D01*
X90565Y-40986D01*
X90565Y-40978D01*
X90665Y-40978D01*
X90665Y-40986D01*
X90999Y-40986D01*
X91029Y-40956D01*
X91518Y-40956D01*
X91515Y-40956D01*
X91465Y-40990D01*
X91465Y-40990D01*
X91465Y-40990D01*
X91340Y-41115D01*
X91306Y-41165D01*
X91295Y-41225D01*
X91295Y-41228D01*
X91062Y-41228D01*
X91062Y-41148D01*
X90999Y-41086D01*
X90665Y-41086D01*
X90665Y-41400D01*
X90727Y-41463D01*
X90762Y-41463D01*
X90837Y-41462D01*
X90837Y-41844D01*
X90856Y-41888D01*
X90889Y-41922D01*
X90933Y-41940D01*
X90981Y-41940D01*
X91965Y-41940D01*
X92010Y-41922D01*
X92043Y-41888D01*
X92062Y-41844D01*
X92062Y-41796D01*
X92062Y-41324D01*
X92043Y-41280D01*
X92015Y-41251D01*
X92059Y-41243D01*
X92059Y-41243D01*
X92109Y-41209D01*
X92209Y-41109D01*
X92243Y-41059D01*
X92243Y-41059D01*
X92255Y-41000D01*
X92255Y-39367D01*
X92280Y-39429D01*
X92364Y-39513D01*
X92473Y-39558D01*
X92591Y-39558D01*
X92700Y-39513D01*
X92784Y-39429D01*
X92829Y-39320D01*
X92829Y-39202D01*
X92829Y-41879D01*
X92784Y-41770D01*
X92701Y-41686D01*
X92592Y-41641D01*
X92473Y-41641D01*
X92364Y-41686D01*
X92280Y-41770D01*
X92235Y-41879D01*
X92235Y-41997D01*
X92280Y-42106D01*
X92364Y-42190D01*
X92473Y-42235D01*
X92591Y-42235D01*
X92700Y-42190D01*
X92784Y-42107D01*
X92829Y-41997D01*
X92829Y-41879D01*
X92829Y-48615D01*
X92767Y-48709D01*
X92767Y-44987D01*
X92718Y-44870D01*
X92629Y-44781D01*
X92513Y-44733D01*
X92387Y-44732D01*
X92310Y-44764D01*
X92310Y-44748D01*
X92270Y-44652D01*
X92197Y-44579D01*
X92101Y-44540D01*
X91998Y-44539D01*
X91902Y-44579D01*
X91829Y-44652D01*
X91790Y-44748D01*
X91789Y-44851D01*
X91829Y-44947D01*
X91902Y-45020D01*
X91998Y-45059D01*
X92090Y-45060D01*
X92132Y-45102D01*
X92132Y-45112D01*
X92181Y-45229D01*
X92270Y-45318D01*
X92386Y-45366D01*
X92512Y-45367D01*
X92629Y-45318D01*
X92718Y-45229D01*
X92766Y-45113D01*
X92767Y-44987D01*
X92767Y-48709D01*
X92575Y-48996D01*
X92575Y-45891D01*
X92522Y-45764D01*
X92425Y-45667D01*
X92298Y-45615D01*
X92161Y-45614D01*
X92034Y-45667D01*
X91937Y-45764D01*
X91885Y-45891D01*
X91884Y-46028D01*
X91937Y-46155D01*
X92034Y-46252D01*
X92161Y-46304D01*
X92298Y-46305D01*
X92425Y-46252D01*
X92522Y-46155D01*
X92574Y-46028D01*
X92575Y-45891D01*
X92575Y-48996D01*
X92564Y-49012D01*
X92412Y-49113D01*
X92412Y-48683D01*
X92412Y-48348D01*
X92374Y-48257D01*
X92304Y-48186D01*
X92282Y-48177D01*
X92282Y-47942D01*
X92264Y-47898D01*
X92260Y-47895D01*
X92264Y-47891D01*
X92282Y-47847D01*
X92282Y-47799D01*
X92282Y-47484D01*
X92268Y-47449D01*
X92282Y-47415D01*
X92282Y-47367D01*
X92282Y-47052D01*
X92264Y-47008D01*
X92230Y-46974D01*
X92186Y-46956D01*
X92180Y-46956D01*
X92180Y-46625D01*
X92168Y-46565D01*
X92168Y-46565D01*
X92134Y-46515D01*
X92135Y-46423D01*
X92095Y-46327D01*
X92022Y-46254D01*
X91926Y-46215D01*
X91823Y-46214D01*
X91727Y-46254D01*
X91654Y-46327D01*
X91615Y-46423D01*
X91614Y-46526D01*
X91654Y-46622D01*
X91727Y-46695D01*
X91823Y-46734D01*
X91870Y-46734D01*
X91870Y-46956D01*
X91863Y-46956D01*
X91819Y-46974D01*
X91785Y-47008D01*
X91767Y-47052D01*
X91767Y-47100D01*
X91767Y-47415D01*
X91781Y-47450D01*
X91767Y-47484D01*
X91767Y-47532D01*
X91767Y-47847D01*
X91785Y-47891D01*
X91789Y-47894D01*
X91785Y-47898D01*
X91767Y-47942D01*
X91767Y-47990D01*
X91767Y-48177D01*
X91745Y-48186D01*
X91675Y-48257D01*
X91637Y-48348D01*
X91637Y-48403D01*
X91700Y-48466D01*
X91975Y-48466D01*
X91975Y-48458D01*
X92075Y-48458D01*
X92075Y-48466D01*
X92350Y-48466D01*
X92412Y-48403D01*
X92412Y-48348D01*
X92412Y-48683D01*
X92412Y-48628D01*
X92350Y-48566D01*
X92075Y-48566D01*
X92075Y-48821D01*
X92137Y-48883D01*
X92112Y-48883D01*
X92212Y-48883D01*
X92304Y-48845D01*
X92374Y-48774D01*
X92412Y-48683D01*
X92412Y-49113D01*
X91975Y-49406D01*
X91975Y-48821D01*
X91975Y-48566D01*
X91700Y-48566D01*
X91637Y-48628D01*
X91637Y-48683D01*
X91675Y-48774D01*
X91745Y-48845D01*
X91837Y-48883D01*
X91937Y-48883D01*
X91912Y-48883D01*
X91975Y-48821D01*
X91975Y-49406D01*
X91959Y-49417D01*
X91513Y-49505D01*
X91513Y-48647D01*
X91513Y-48652D01*
X91450Y-48589D01*
X91037Y-48589D01*
X91037Y-48884D01*
X91100Y-48947D01*
X91312Y-48947D01*
X91404Y-48909D01*
X91475Y-48839D01*
X91513Y-48747D01*
X91513Y-48647D01*
X91513Y-49505D01*
X91236Y-49560D01*
X90937Y-49560D01*
X90937Y-48884D01*
X90937Y-48589D01*
X90524Y-48589D01*
X90462Y-48652D01*
X90462Y-48647D01*
X90462Y-48747D01*
X90500Y-48839D01*
X90570Y-48909D01*
X90662Y-48947D01*
X90875Y-48947D01*
X90937Y-48884D01*
X90937Y-49560D01*
X85650Y-49560D01*
X85596Y-49570D01*
X85551Y-49601D01*
X85520Y-49646D01*
X85510Y-49700D01*
X85510Y-52210D01*
X84625Y-52210D01*
X84625Y-49865D01*
X84679Y-49865D01*
X84723Y-49846D01*
X84757Y-49813D01*
X84761Y-49804D01*
X84836Y-49805D01*
X84932Y-49765D01*
X85005Y-49692D01*
X85044Y-49596D01*
X85045Y-49493D01*
X85005Y-49397D01*
X84932Y-49324D01*
X84836Y-49285D01*
X84761Y-49284D01*
X84757Y-49277D01*
X84724Y-49243D01*
X84679Y-49225D01*
X84632Y-49224D01*
X84382Y-49224D01*
X84375Y-49227D01*
X84375Y-49082D01*
X84429Y-49060D01*
X84499Y-48989D01*
X84537Y-48898D01*
X84537Y-48803D01*
X84475Y-48741D01*
X84375Y-48741D01*
X84375Y-48641D01*
X84475Y-48641D01*
X84537Y-48578D01*
X84537Y-48483D01*
X84499Y-48392D01*
X84429Y-48321D01*
X84407Y-48312D01*
X84407Y-48077D01*
X84389Y-48033D01*
X84375Y-48019D01*
X84375Y-47752D01*
X84419Y-47707D01*
X84457Y-47616D01*
X84457Y-47521D01*
X84395Y-47459D01*
X84375Y-47459D01*
X84375Y-47359D01*
X84395Y-47359D01*
X84457Y-47296D01*
X84457Y-47201D01*
X84419Y-47110D01*
X84349Y-47039D01*
X84257Y-47001D01*
X84157Y-47001D01*
X84182Y-47001D01*
X84120Y-47064D01*
X84120Y-47100D01*
X84020Y-47100D01*
X84020Y-47064D01*
X83957Y-47001D01*
X83982Y-47001D01*
X83882Y-47001D01*
X83857Y-47011D01*
X83832Y-47001D01*
X83817Y-47001D01*
X83817Y-46994D01*
X83817Y-46807D01*
X83839Y-46798D01*
X83909Y-46727D01*
X83947Y-46636D01*
X83947Y-46221D01*
X83909Y-46130D01*
X83839Y-46059D01*
X83747Y-46021D01*
X83647Y-46021D01*
X83672Y-46021D01*
X83610Y-46084D01*
X83610Y-46379D01*
X83885Y-46379D01*
X83947Y-46316D01*
X83947Y-46221D01*
X83947Y-46636D01*
X83947Y-46541D01*
X83885Y-46479D01*
X83610Y-46479D01*
X83610Y-46486D01*
X83510Y-46486D01*
X83510Y-46479D01*
X83235Y-46479D01*
X83184Y-46529D01*
X83069Y-46415D01*
X83096Y-46415D01*
X83173Y-46383D01*
X83206Y-46350D01*
X83235Y-46379D01*
X83510Y-46379D01*
X83510Y-46084D01*
X83447Y-46021D01*
X83472Y-46021D01*
X83372Y-46021D01*
X83280Y-46059D01*
X83239Y-46101D01*
X83233Y-46086D01*
X83210Y-46063D01*
X83210Y-45970D01*
X83198Y-45910D01*
X83198Y-45910D01*
X83164Y-45860D01*
X82769Y-45465D01*
X82791Y-45465D01*
X82887Y-45425D01*
X82960Y-45352D01*
X82999Y-45256D01*
X83000Y-45153D01*
X82960Y-45057D01*
X82895Y-44992D01*
X82895Y-44987D01*
X82907Y-44975D01*
X82947Y-45015D01*
X83043Y-45054D01*
X83146Y-45055D01*
X83242Y-45015D01*
X83315Y-44942D01*
X83354Y-44846D01*
X83355Y-44743D01*
X83315Y-44647D01*
X83267Y-44599D01*
X83276Y-44599D01*
X83320Y-44581D01*
X83354Y-44547D01*
X83368Y-44513D01*
X83368Y-44753D01*
X83387Y-44797D01*
X83420Y-44831D01*
X83465Y-44849D01*
X83512Y-44850D01*
X83762Y-44850D01*
X83806Y-44831D01*
X83840Y-44798D01*
X83858Y-44753D01*
X83859Y-44706D01*
X83859Y-44676D01*
X83859Y-44676D01*
X83870Y-44673D01*
X83870Y-44753D01*
X83889Y-44797D01*
X83922Y-44831D01*
X83961Y-44847D01*
X83961Y-44976D01*
X83972Y-45035D01*
X83980Y-45046D01*
X83980Y-45046D01*
X83979Y-45091D01*
X84011Y-45168D01*
X84070Y-45227D01*
X84148Y-45259D01*
X84231Y-45260D01*
X84305Y-45229D01*
X84305Y-45231D01*
X84280Y-45241D01*
X84191Y-45330D01*
X84143Y-45446D01*
X84142Y-45572D01*
X84191Y-45689D01*
X84280Y-45778D01*
X84315Y-45793D01*
X84316Y-45799D01*
X84350Y-45849D01*
X84788Y-46287D01*
X84788Y-46287D01*
X84838Y-46320D01*
X84838Y-46320D01*
X84885Y-46330D01*
X84897Y-46332D01*
X84897Y-46332D01*
X84897Y-46332D01*
X85307Y-46332D01*
X85307Y-46360D01*
X85327Y-46407D01*
X85333Y-46413D01*
X85327Y-46419D01*
X85307Y-46466D01*
X85307Y-46518D01*
X85307Y-46833D01*
X85327Y-46880D01*
X85333Y-46886D01*
X85327Y-46892D01*
X85307Y-46939D01*
X85307Y-46990D01*
X85307Y-47305D01*
X85327Y-47352D01*
X85333Y-47358D01*
X85327Y-47364D01*
X85307Y-47411D01*
X85307Y-47462D01*
X85307Y-47777D01*
X85327Y-47825D01*
X85333Y-47831D01*
X85327Y-47836D01*
X85307Y-47884D01*
X85307Y-47935D01*
X85307Y-48250D01*
X85327Y-48297D01*
X85333Y-48303D01*
X85327Y-48309D01*
X85307Y-48356D01*
X85307Y-48407D01*
X85307Y-48722D01*
X85327Y-48770D01*
X85363Y-48806D01*
X85410Y-48826D01*
X85462Y-48826D01*
X86013Y-48826D01*
X86060Y-48806D01*
X86096Y-48770D01*
X86116Y-48723D01*
X86116Y-48671D01*
X86116Y-48356D01*
X86096Y-48309D01*
X86091Y-48303D01*
X86096Y-48297D01*
X86116Y-48250D01*
X86116Y-48199D01*
X86116Y-47884D01*
X86096Y-47837D01*
X86091Y-47831D01*
X86096Y-47825D01*
X86116Y-47778D01*
X86116Y-47749D01*
X86555Y-47749D01*
X86614Y-47738D01*
X86614Y-47738D01*
X86664Y-47704D01*
X88514Y-45855D01*
X89100Y-45855D01*
X89137Y-45855D01*
X89202Y-45920D01*
X89298Y-45959D01*
X89401Y-45960D01*
X89497Y-45920D01*
X89570Y-45847D01*
X89609Y-45751D01*
X89610Y-45679D01*
X90140Y-46209D01*
X90140Y-46209D01*
X90172Y-46231D01*
X90179Y-46247D01*
X90252Y-46320D01*
X90348Y-46359D01*
X90451Y-46360D01*
X90547Y-46320D01*
X90583Y-46284D01*
X90583Y-46360D01*
X90603Y-46407D01*
X90608Y-46413D01*
X90603Y-46419D01*
X90583Y-46466D01*
X90583Y-46495D01*
X90422Y-46495D01*
X90357Y-46429D01*
X90261Y-46390D01*
X90158Y-46389D01*
X90062Y-46429D01*
X89989Y-46502D01*
X89950Y-46598D01*
X89949Y-46701D01*
X89989Y-46797D01*
X90062Y-46870D01*
X90158Y-46909D01*
X90261Y-46910D01*
X90357Y-46870D01*
X90422Y-46805D01*
X90583Y-46805D01*
X90583Y-46833D01*
X90603Y-46880D01*
X90608Y-46886D01*
X90603Y-46892D01*
X90583Y-46939D01*
X90583Y-46990D01*
X90583Y-47305D01*
X90603Y-47352D01*
X90608Y-47358D01*
X90603Y-47364D01*
X90583Y-47411D01*
X90583Y-47462D01*
X90583Y-47777D01*
X90603Y-47825D01*
X90608Y-47831D01*
X90603Y-47836D01*
X90583Y-47884D01*
X90583Y-47935D01*
X90583Y-48165D01*
X90570Y-48170D01*
X90500Y-48240D01*
X90462Y-48332D01*
X90462Y-48431D01*
X90462Y-48427D01*
X90524Y-48489D01*
X90937Y-48489D01*
X90937Y-48481D01*
X91037Y-48481D01*
X91037Y-48489D01*
X91450Y-48489D01*
X91513Y-48427D01*
X91513Y-48431D01*
X91513Y-48332D01*
X91475Y-48240D01*
X91404Y-48170D01*
X91392Y-48165D01*
X91392Y-47884D01*
X91372Y-47837D01*
X91366Y-47831D01*
X91372Y-47825D01*
X91392Y-47778D01*
X91392Y-47726D01*
X91392Y-47411D01*
X91372Y-47364D01*
X91366Y-47358D01*
X91372Y-47353D01*
X91392Y-47305D01*
X91392Y-47254D01*
X91392Y-46939D01*
X91372Y-46892D01*
X91366Y-46886D01*
X91372Y-46880D01*
X91392Y-46833D01*
X91392Y-46782D01*
X91392Y-46467D01*
X91372Y-46419D01*
X91366Y-46413D01*
X91372Y-46408D01*
X91392Y-46360D01*
X91392Y-46309D01*
X91392Y-45994D01*
X91372Y-45947D01*
X91366Y-45941D01*
X91372Y-45935D01*
X91392Y-45888D01*
X91392Y-45837D01*
X91392Y-45522D01*
X91372Y-45474D01*
X91366Y-45468D01*
X91372Y-45463D01*
X91392Y-45415D01*
X91392Y-45364D01*
X91392Y-45049D01*
X91372Y-45002D01*
X91366Y-44996D01*
X91372Y-44990D01*
X91392Y-44943D01*
X91392Y-44892D01*
X91392Y-44577D01*
X91372Y-44530D01*
X91366Y-44524D01*
X91372Y-44518D01*
X91392Y-44471D01*
X91392Y-44419D01*
X91392Y-44104D01*
X91372Y-44057D01*
X91366Y-44051D01*
X91372Y-44045D01*
X91392Y-43998D01*
X91392Y-43970D01*
X91851Y-43970D01*
X92143Y-44262D01*
X92133Y-44286D01*
X92132Y-44412D01*
X92181Y-44529D01*
X92270Y-44618D01*
X92386Y-44666D01*
X92512Y-44667D01*
X92629Y-44618D01*
X92718Y-44529D01*
X92766Y-44413D01*
X92767Y-44287D01*
X92718Y-44170D01*
X92629Y-44081D01*
X92513Y-44033D01*
X92387Y-44032D01*
X92362Y-44043D01*
X92352Y-44032D01*
X92352Y-43357D01*
X92339Y-43179D01*
X92295Y-43074D01*
X92211Y-43059D01*
X92140Y-43130D01*
X92140Y-42988D01*
X92125Y-42904D01*
X91957Y-42847D01*
X91779Y-42860D01*
X91674Y-42904D01*
X91659Y-42988D01*
X91900Y-43229D01*
X92140Y-42988D01*
X92140Y-43130D01*
X91970Y-43300D01*
X92211Y-43540D01*
X92295Y-43525D01*
X92352Y-43357D01*
X92352Y-44032D01*
X92047Y-43728D01*
X92125Y-43695D01*
X92140Y-43611D01*
X91900Y-43370D01*
X91659Y-43611D01*
X91668Y-43660D01*
X91457Y-43660D01*
X91475Y-43642D01*
X91513Y-43550D01*
X91513Y-43527D01*
X91588Y-43540D01*
X91829Y-43300D01*
X91588Y-43059D01*
X91504Y-43074D01*
X91496Y-43095D01*
X91475Y-43043D01*
X91404Y-42973D01*
X91312Y-42935D01*
X91100Y-42935D01*
X91037Y-42998D01*
X91037Y-43292D01*
X91045Y-43292D01*
X91045Y-43392D01*
X91037Y-43392D01*
X91037Y-43400D01*
X90937Y-43400D01*
X90937Y-43392D01*
X90937Y-43292D01*
X90937Y-42998D01*
X90875Y-42935D01*
X90662Y-42935D01*
X90570Y-42973D01*
X90565Y-42979D01*
X90565Y-41400D01*
X90565Y-41086D01*
X90230Y-41086D01*
X90168Y-41148D01*
X90167Y-41262D01*
X90205Y-41354D01*
X90276Y-41424D01*
X90368Y-41462D01*
X90467Y-41463D01*
X90502Y-41463D01*
X90565Y-41400D01*
X90565Y-42979D01*
X90500Y-43043D01*
X90462Y-43135D01*
X90462Y-43235D01*
X90462Y-43230D01*
X90524Y-43292D01*
X90937Y-43292D01*
X90937Y-43392D01*
X90524Y-43392D01*
X90462Y-43455D01*
X90462Y-43450D01*
X90462Y-43550D01*
X90398Y-43549D01*
X90302Y-43589D01*
X90250Y-43641D01*
X90250Y-42490D01*
X90250Y-41939D01*
X90230Y-41892D01*
X90194Y-41855D01*
X90147Y-41836D01*
X90096Y-41836D01*
X89945Y-41836D01*
X89939Y-41823D01*
X89869Y-41752D01*
X89777Y-41714D01*
X89682Y-41715D01*
X89620Y-41777D01*
X89620Y-42190D01*
X89628Y-42190D01*
X89628Y-42290D01*
X89620Y-42290D01*
X89620Y-42703D01*
X89682Y-42766D01*
X89777Y-42766D01*
X89869Y-42728D01*
X89939Y-42658D01*
X89945Y-42644D01*
X90147Y-42644D01*
X90194Y-42625D01*
X90230Y-42589D01*
X90250Y-42541D01*
X90250Y-42490D01*
X90250Y-43641D01*
X90229Y-43662D01*
X90190Y-43758D01*
X90189Y-43861D01*
X90229Y-43957D01*
X90302Y-44030D01*
X90398Y-44069D01*
X90501Y-44070D01*
X90596Y-44030D01*
X90603Y-44045D01*
X90608Y-44051D01*
X90603Y-44057D01*
X90583Y-44104D01*
X90583Y-44155D01*
X90583Y-44470D01*
X90603Y-44518D01*
X90608Y-44524D01*
X90603Y-44529D01*
X90583Y-44577D01*
X90583Y-44628D01*
X90583Y-44943D01*
X90603Y-44990D01*
X90608Y-44996D01*
X90603Y-45002D01*
X90583Y-45049D01*
X90583Y-45100D01*
X90583Y-45415D01*
X90603Y-45463D01*
X90608Y-45468D01*
X90603Y-45474D01*
X90583Y-45521D01*
X90583Y-45573D01*
X90583Y-45888D01*
X90602Y-45935D01*
X90547Y-45879D01*
X90451Y-45840D01*
X90348Y-45839D01*
X90252Y-45879D01*
X90250Y-45881D01*
X89609Y-45240D01*
X89559Y-45206D01*
X89520Y-45199D01*
X89520Y-42703D01*
X89520Y-42290D01*
X89512Y-42290D01*
X89512Y-42190D01*
X89520Y-42190D01*
X89520Y-41777D01*
X89457Y-41715D01*
X89363Y-41714D01*
X89271Y-41752D01*
X89201Y-41823D01*
X89195Y-41836D01*
X89190Y-41836D01*
X88875Y-41836D01*
X88828Y-41855D01*
X88822Y-41861D01*
X88816Y-41855D01*
X88769Y-41836D01*
X88718Y-41836D01*
X88403Y-41836D01*
X88355Y-41855D01*
X88350Y-41861D01*
X88344Y-41855D01*
X88296Y-41836D01*
X88245Y-41836D01*
X87930Y-41836D01*
X87883Y-41855D01*
X87877Y-41861D01*
X87871Y-41855D01*
X87824Y-41836D01*
X87773Y-41836D01*
X87504Y-41836D01*
X87498Y-41823D01*
X87428Y-41752D01*
X87336Y-41714D01*
X87242Y-41715D01*
X87179Y-41777D01*
X87179Y-42190D01*
X87187Y-42190D01*
X87187Y-42290D01*
X87179Y-42290D01*
X87179Y-42703D01*
X87242Y-42766D01*
X87336Y-42766D01*
X87428Y-42728D01*
X87498Y-42658D01*
X87504Y-42644D01*
X87509Y-42644D01*
X87824Y-42644D01*
X87871Y-42625D01*
X87877Y-42619D01*
X87883Y-42625D01*
X87930Y-42644D01*
X87981Y-42644D01*
X88296Y-42644D01*
X88344Y-42625D01*
X88349Y-42619D01*
X88355Y-42625D01*
X88403Y-42644D01*
X88454Y-42644D01*
X88769Y-42644D01*
X88816Y-42625D01*
X88822Y-42619D01*
X88828Y-42625D01*
X88875Y-42644D01*
X88926Y-42644D01*
X89195Y-42644D01*
X89201Y-42658D01*
X89271Y-42728D01*
X89363Y-42766D01*
X89457Y-42766D01*
X89520Y-42703D01*
X89520Y-45199D01*
X89500Y-45195D01*
X88300Y-45195D01*
X88240Y-45206D01*
X88190Y-45240D01*
X87079Y-46351D01*
X87079Y-42703D01*
X87079Y-42290D01*
X87071Y-42290D01*
X87071Y-42190D01*
X87079Y-42190D01*
X87079Y-41777D01*
X87017Y-41715D01*
X86922Y-41714D01*
X86830Y-41752D01*
X86760Y-41823D01*
X86754Y-41836D01*
X86552Y-41836D01*
X86505Y-41855D01*
X86469Y-41892D01*
X86449Y-41939D01*
X86449Y-41990D01*
X86449Y-42541D01*
X86469Y-42589D01*
X86505Y-42625D01*
X86552Y-42644D01*
X86603Y-42644D01*
X86754Y-42644D01*
X86760Y-42658D01*
X86830Y-42728D01*
X86922Y-42766D01*
X87017Y-42766D01*
X87079Y-42703D01*
X87079Y-46351D01*
X86463Y-46967D01*
X86116Y-46967D01*
X86116Y-46939D01*
X86096Y-46892D01*
X86091Y-46886D01*
X86096Y-46880D01*
X86116Y-46833D01*
X86116Y-46782D01*
X86116Y-46467D01*
X86096Y-46419D01*
X86091Y-46413D01*
X86096Y-46408D01*
X86116Y-46360D01*
X86116Y-46309D01*
X86116Y-45994D01*
X86096Y-45947D01*
X86091Y-45941D01*
X86096Y-45935D01*
X86116Y-45888D01*
X86116Y-45837D01*
X86116Y-45522D01*
X86096Y-45474D01*
X86091Y-45468D01*
X86096Y-45463D01*
X86116Y-45415D01*
X86116Y-45364D01*
X86116Y-45049D01*
X86096Y-45002D01*
X86091Y-44996D01*
X86096Y-44990D01*
X86116Y-44943D01*
X86116Y-44892D01*
X86116Y-44577D01*
X86096Y-44530D01*
X86091Y-44524D01*
X86096Y-44518D01*
X86116Y-44471D01*
X86116Y-44419D01*
X86116Y-44104D01*
X86096Y-44057D01*
X86091Y-44051D01*
X86096Y-44045D01*
X86116Y-43998D01*
X86116Y-43947D01*
X86116Y-43632D01*
X86096Y-43585D01*
X86091Y-43579D01*
X86096Y-43573D01*
X86116Y-43526D01*
X86116Y-43474D01*
X86116Y-43160D01*
X86096Y-43112D01*
X86060Y-43076D01*
X86013Y-43056D01*
X85962Y-43056D01*
X85411Y-43056D01*
X85363Y-43076D01*
X85327Y-43112D01*
X85322Y-43125D01*
X85272Y-43004D01*
X85175Y-42907D01*
X85048Y-42855D01*
X84911Y-42854D01*
X84784Y-42907D01*
X84687Y-43004D01*
X84635Y-43131D01*
X84634Y-43268D01*
X84687Y-43395D01*
X84784Y-43492D01*
X84839Y-43515D01*
X84834Y-43517D01*
X84737Y-43614D01*
X84685Y-43741D01*
X84684Y-43878D01*
X84737Y-44005D01*
X84834Y-44102D01*
X84961Y-44154D01*
X84971Y-44154D01*
X84844Y-44207D01*
X84747Y-44304D01*
X84695Y-44431D01*
X84694Y-44568D01*
X84747Y-44695D01*
X84844Y-44792D01*
X84913Y-44820D01*
X84824Y-44857D01*
X84727Y-44954D01*
X84675Y-45081D01*
X84674Y-45218D01*
X84716Y-45317D01*
X84639Y-45241D01*
X84615Y-45231D01*
X84615Y-44910D01*
X84603Y-44850D01*
X84603Y-44850D01*
X84569Y-44800D01*
X84555Y-44785D01*
X84555Y-44275D01*
X84555Y-44125D01*
X84543Y-44065D01*
X84543Y-44065D01*
X84509Y-44015D01*
X84505Y-44010D01*
X84505Y-43139D01*
X84579Y-43064D01*
X84613Y-43014D01*
X84613Y-43014D01*
X84625Y-42955D01*
X84625Y-42570D01*
X84613Y-42510D01*
X84613Y-42510D01*
X84579Y-42460D01*
X84459Y-42340D01*
X84409Y-42306D01*
X84350Y-42295D01*
X83725Y-42295D01*
X83665Y-42306D01*
X83648Y-42318D01*
X83679Y-42241D01*
X83680Y-42138D01*
X83640Y-42042D01*
X83567Y-41969D01*
X83471Y-41930D01*
X83380Y-41929D01*
X83380Y-41888D01*
X83340Y-41792D01*
X83267Y-41719D01*
X83171Y-41680D01*
X83068Y-41679D01*
X82972Y-41719D01*
X82919Y-41772D01*
X82904Y-41772D01*
X82589Y-41772D01*
X82554Y-41786D01*
X82520Y-41772D01*
X82494Y-41772D01*
X82494Y-40939D01*
X82482Y-40879D01*
X82482Y-40879D01*
X82448Y-40829D01*
X81130Y-39510D01*
X81130Y-36288D01*
X81090Y-36192D01*
X81017Y-36119D01*
X80921Y-36080D01*
X80818Y-36079D01*
X80752Y-36107D01*
X80752Y-34943D01*
X80734Y-34899D01*
X80700Y-34865D01*
X80656Y-34847D01*
X80608Y-34847D01*
X80392Y-34847D01*
X80398Y-34841D01*
X80416Y-34796D01*
X80417Y-34749D01*
X80417Y-34401D01*
X80438Y-34392D01*
X80509Y-34322D01*
X80547Y-34230D01*
X80547Y-33777D01*
X80509Y-33685D01*
X80438Y-33615D01*
X80346Y-33577D01*
X80247Y-33576D01*
X80212Y-33577D01*
X80150Y-33639D01*
X80150Y-33954D01*
X80484Y-33954D01*
X80547Y-33891D01*
X80547Y-33777D01*
X80547Y-34230D01*
X80547Y-34116D01*
X80484Y-34054D01*
X80150Y-34054D01*
X80150Y-34061D01*
X80050Y-34061D01*
X80050Y-34054D01*
X80050Y-33954D01*
X80050Y-33639D01*
X79987Y-33577D01*
X79952Y-33576D01*
X79853Y-33577D01*
X79761Y-33615D01*
X79690Y-33685D01*
X79652Y-33777D01*
X79653Y-33891D01*
X79715Y-33954D01*
X80050Y-33954D01*
X80050Y-34054D01*
X79715Y-34054D01*
X79653Y-34116D01*
X79652Y-34230D01*
X79690Y-34322D01*
X79761Y-34392D01*
X79783Y-34401D01*
X79782Y-34442D01*
X79782Y-34796D01*
X79801Y-34840D01*
X79807Y-34847D01*
X78246Y-34847D01*
X78202Y-34865D01*
X78168Y-34899D01*
X78150Y-34943D01*
X78150Y-34991D01*
X78150Y-37156D01*
X78168Y-37200D01*
X78202Y-37234D01*
X78246Y-37252D01*
X78294Y-37252D01*
X80656Y-37252D01*
X80700Y-37234D01*
X80734Y-37200D01*
X80752Y-37156D01*
X80752Y-37108D01*
X80752Y-36572D01*
X80818Y-36599D01*
X80921Y-36600D01*
X81017Y-36560D01*
X81090Y-36487D01*
X81129Y-36391D01*
X81130Y-36288D01*
X81130Y-39510D01*
X80645Y-39025D01*
X80645Y-38625D01*
X80633Y-38565D01*
X80633Y-38565D01*
X80599Y-38515D01*
X80220Y-38136D01*
X80304Y-38010D01*
X80336Y-37850D01*
X80304Y-37689D01*
X80213Y-37553D01*
X80077Y-37461D01*
X79916Y-37430D01*
X79709Y-37430D01*
X79548Y-37461D01*
X79412Y-37553D01*
X79321Y-37689D01*
X79289Y-37850D01*
X79321Y-38010D01*
X79412Y-38146D01*
X79548Y-38238D01*
X79709Y-38270D01*
X79915Y-38270D01*
X80169Y-38523D01*
X80077Y-38461D01*
X79916Y-38430D01*
X79709Y-38430D01*
X79548Y-38461D01*
X79412Y-38553D01*
X79321Y-38689D01*
X79289Y-38850D01*
X79321Y-39010D01*
X79412Y-39146D01*
X79548Y-39238D01*
X79709Y-39270D01*
X79916Y-39270D01*
X80077Y-39238D01*
X80213Y-39146D01*
X80304Y-39010D01*
X80335Y-38857D01*
X80335Y-39090D01*
X80346Y-39149D01*
X80380Y-39199D01*
X82184Y-41003D01*
X82184Y-41772D01*
X82157Y-41772D01*
X82113Y-41790D01*
X82079Y-41824D01*
X82061Y-41868D01*
X82061Y-41902D01*
X82035Y-41920D01*
X81950Y-42005D01*
X81945Y-41992D01*
X81872Y-41919D01*
X81776Y-41880D01*
X81724Y-41879D01*
X81747Y-41870D01*
X81820Y-41797D01*
X81859Y-41701D01*
X81860Y-41598D01*
X81820Y-41502D01*
X81747Y-41429D01*
X81651Y-41390D01*
X81548Y-41389D01*
X81452Y-41429D01*
X81379Y-41502D01*
X81340Y-41598D01*
X81339Y-41696D01*
X81317Y-41730D01*
X81305Y-41789D01*
X81305Y-41867D01*
X81226Y-41835D01*
X81123Y-41834D01*
X81044Y-41867D01*
X81044Y-41866D01*
X81045Y-41763D01*
X81005Y-41667D01*
X80932Y-41594D01*
X80836Y-41555D01*
X80733Y-41554D01*
X80689Y-41572D01*
X80690Y-41488D01*
X80650Y-41392D01*
X80637Y-41380D01*
X80875Y-41380D01*
X80934Y-41368D01*
X80934Y-41368D01*
X80984Y-41334D01*
X81134Y-41184D01*
X81226Y-41185D01*
X81322Y-41145D01*
X81395Y-41072D01*
X81434Y-40976D01*
X81435Y-40879D01*
X81602Y-41046D01*
X81602Y-41138D01*
X81641Y-41234D01*
X81715Y-41307D01*
X81810Y-41347D01*
X81913Y-41347D01*
X82009Y-41308D01*
X82082Y-41234D01*
X82122Y-41139D01*
X82122Y-41036D01*
X82083Y-40940D01*
X82009Y-40867D01*
X81914Y-40827D01*
X81821Y-40827D01*
X81509Y-40515D01*
X81459Y-40481D01*
X81400Y-40470D01*
X80326Y-40470D01*
X80326Y-40126D01*
X80326Y-39526D01*
X80308Y-39482D01*
X80274Y-39448D01*
X80230Y-39430D01*
X80182Y-39429D01*
X79395Y-39429D01*
X79351Y-39448D01*
X79317Y-39481D01*
X79299Y-39526D01*
X79299Y-39573D01*
X79299Y-40173D01*
X79317Y-40217D01*
X79351Y-40251D01*
X79395Y-40269D01*
X79443Y-40270D01*
X80230Y-40270D01*
X80274Y-40251D01*
X80308Y-40218D01*
X80326Y-40173D01*
X80326Y-40126D01*
X80326Y-40470D01*
X79610Y-40470D01*
X79550Y-40481D01*
X79500Y-40515D01*
X79402Y-40613D01*
X79372Y-40601D01*
X79355Y-40601D01*
X79292Y-40663D01*
X79292Y-40664D01*
X79267Y-40639D01*
X79243Y-40629D01*
X79243Y-37985D01*
X79243Y-37714D01*
X79237Y-37678D01*
X79131Y-37490D01*
X78961Y-37356D01*
X78753Y-37298D01*
X78667Y-37360D01*
X78667Y-37800D01*
X79195Y-37800D01*
X79243Y-37714D01*
X79243Y-37985D01*
X79195Y-37900D01*
X78667Y-37900D01*
X78667Y-38339D01*
X78753Y-38401D01*
X78961Y-38343D01*
X79131Y-38209D01*
X79237Y-38021D01*
X79243Y-37985D01*
X79243Y-40629D01*
X79175Y-40601D01*
X79171Y-40601D01*
X79171Y-40601D01*
X79164Y-40601D01*
X79158Y-40601D01*
X79158Y-40601D01*
X79154Y-40601D01*
X79140Y-40606D01*
X79140Y-39850D01*
X79140Y-38850D01*
X79108Y-38689D01*
X79017Y-38553D01*
X78881Y-38461D01*
X78720Y-38430D01*
X78567Y-38430D01*
X78567Y-38339D01*
X78567Y-37900D01*
X78567Y-37800D01*
X78567Y-37360D01*
X78480Y-37298D01*
X78272Y-37356D01*
X78102Y-37490D01*
X77996Y-37678D01*
X77990Y-37714D01*
X78038Y-37800D01*
X78567Y-37800D01*
X78567Y-37900D01*
X78038Y-37900D01*
X77990Y-37985D01*
X77996Y-38021D01*
X78102Y-38209D01*
X78272Y-38343D01*
X78480Y-38401D01*
X78567Y-38339D01*
X78567Y-38430D01*
X78513Y-38430D01*
X78352Y-38461D01*
X78216Y-38553D01*
X78125Y-38689D01*
X78093Y-38850D01*
X78125Y-39010D01*
X78216Y-39146D01*
X78352Y-39238D01*
X78513Y-39270D01*
X78720Y-39270D01*
X78881Y-39238D01*
X79017Y-39146D01*
X79108Y-39010D01*
X79140Y-38850D01*
X79140Y-39850D01*
X79108Y-39689D01*
X79017Y-39553D01*
X78881Y-39461D01*
X78720Y-39430D01*
X78513Y-39430D01*
X78352Y-39461D01*
X78216Y-39553D01*
X78125Y-39689D01*
X78093Y-39850D01*
X78125Y-40010D01*
X78216Y-40146D01*
X78352Y-40238D01*
X78513Y-40270D01*
X78720Y-40270D01*
X78881Y-40238D01*
X79017Y-40146D01*
X79108Y-40010D01*
X79140Y-39850D01*
X79140Y-40606D01*
X79062Y-40639D01*
X79036Y-40664D01*
X79036Y-40663D01*
X78974Y-40601D01*
X78957Y-40601D01*
X78879Y-40633D01*
X78859Y-40585D01*
X78789Y-40514D01*
X78697Y-40476D01*
X78597Y-40476D01*
X78622Y-40476D01*
X78560Y-40539D01*
X78560Y-40834D01*
X78567Y-40834D01*
X78567Y-40934D01*
X78560Y-40934D01*
X78560Y-40941D01*
X78460Y-40941D01*
X78460Y-40934D01*
X78460Y-40834D01*
X78460Y-40539D01*
X78397Y-40476D01*
X78422Y-40476D01*
X78322Y-40476D01*
X78230Y-40514D01*
X78160Y-40585D01*
X78122Y-40676D01*
X78122Y-40771D01*
X78185Y-40834D01*
X78460Y-40834D01*
X78460Y-40934D01*
X78185Y-40934D01*
X78122Y-40996D01*
X78122Y-41059D01*
X78093Y-41059D01*
X77997Y-41099D01*
X77924Y-41172D01*
X77885Y-41268D01*
X77884Y-41371D01*
X77924Y-41467D01*
X77997Y-41540D01*
X78093Y-41579D01*
X78122Y-41579D01*
X78122Y-41646D01*
X78185Y-41709D01*
X78460Y-41709D01*
X78460Y-41701D01*
X78560Y-41701D01*
X78560Y-41709D01*
X78752Y-41709D01*
X78776Y-41719D01*
X78824Y-41719D01*
X79015Y-41719D01*
X79015Y-41744D01*
X78983Y-41744D01*
X78939Y-41763D01*
X78908Y-41794D01*
X78908Y-41766D01*
X78613Y-41766D01*
X78570Y-41809D01*
X78560Y-41809D01*
X78560Y-41816D01*
X78460Y-41816D01*
X78460Y-41809D01*
X78185Y-41809D01*
X78122Y-41871D01*
X78122Y-41966D01*
X78160Y-42057D01*
X78230Y-42128D01*
X78252Y-42137D01*
X78252Y-42372D01*
X78261Y-42395D01*
X78240Y-42448D01*
X78239Y-42551D01*
X78279Y-42647D01*
X78282Y-42650D01*
X77639Y-42650D01*
X77639Y-33566D01*
X77743Y-33135D01*
X77997Y-32785D01*
X78366Y-32559D01*
X78808Y-32489D01*
X91236Y-32489D01*
X91959Y-32632D01*
X92564Y-33037D01*
X92965Y-33637D01*
X93110Y-34367D01*
X93110Y-47682D01*
X93110Y-47682D01*
G37*
G54D46*
X93110Y-47682D02*
X92965Y-48412D01*
X92829Y-48615D01*
X92829Y-41879D01*
X92829Y-39202D01*
X92784Y-39093D01*
X92701Y-39009D01*
X92592Y-38964D01*
X92473Y-38964D01*
X92364Y-39009D01*
X92280Y-39092D01*
X92255Y-39155D01*
X92255Y-39025D01*
X92243Y-38965D01*
X92243Y-38965D01*
X92209Y-38915D01*
X91935Y-38641D01*
X91935Y-38396D01*
X91961Y-38370D01*
X91964Y-38364D01*
X92040Y-38364D01*
X92100Y-38352D01*
X92100Y-38352D01*
X92150Y-38318D01*
X92234Y-38234D01*
X92234Y-38234D01*
X92234Y-38234D01*
X92268Y-38184D01*
X92268Y-38184D01*
X92280Y-38125D01*
X92280Y-37914D01*
X92459Y-37734D01*
X92493Y-37684D01*
X92493Y-37684D01*
X92505Y-37625D01*
X92505Y-37252D01*
X92703Y-37252D01*
X92747Y-37234D01*
X92781Y-37200D01*
X92799Y-37156D01*
X92799Y-37108D01*
X92799Y-34943D01*
X92781Y-34899D01*
X92747Y-34865D01*
X92703Y-34847D01*
X92655Y-34847D01*
X92257Y-34847D01*
X92322Y-34820D01*
X92395Y-34747D01*
X92434Y-34651D01*
X92435Y-34548D01*
X92395Y-34452D01*
X92385Y-34442D01*
X92385Y-33405D01*
X92373Y-33345D01*
X92373Y-33345D01*
X92339Y-33295D01*
X92268Y-33224D01*
X92218Y-33190D01*
X92212Y-33189D01*
X92212Y-33152D01*
X92194Y-33108D01*
X92160Y-33074D01*
X92116Y-33056D01*
X92068Y-33056D01*
X91793Y-33056D01*
X91755Y-33072D01*
X91745Y-33017D01*
X91745Y-33017D01*
X91711Y-32967D01*
X91711Y-32967D01*
X91659Y-32915D01*
X91609Y-32881D01*
X91550Y-32870D01*
X91255Y-32870D01*
X91195Y-32881D01*
X91145Y-32915D01*
X91098Y-32962D01*
X91064Y-33012D01*
X91053Y-33071D01*
X91053Y-33086D01*
X91051Y-33087D01*
X91033Y-33132D01*
X91033Y-33179D01*
X91033Y-33475D01*
X91047Y-33510D01*
X91033Y-33545D01*
X91033Y-33593D01*
X91033Y-33927D01*
X91039Y-33942D01*
X91002Y-33942D01*
X90965Y-33957D01*
X90921Y-33940D01*
X90818Y-33939D01*
X90722Y-33979D01*
X90649Y-34052D01*
X90610Y-34148D01*
X90609Y-34251D01*
X90649Y-34347D01*
X90722Y-34420D01*
X90806Y-34455D01*
X90806Y-34466D01*
X90806Y-34847D01*
X90293Y-34847D01*
X90249Y-34865D01*
X90215Y-34899D01*
X90197Y-34943D01*
X90197Y-34991D01*
X90197Y-35830D01*
X90155Y-35830D01*
X90154Y-35830D01*
X90143Y-35832D01*
X90119Y-35837D01*
X90101Y-35830D01*
X89998Y-35829D01*
X89902Y-35869D01*
X89829Y-35942D01*
X89790Y-36038D01*
X89789Y-36141D01*
X89829Y-36237D01*
X89902Y-36310D01*
X89998Y-36349D01*
X90101Y-36350D01*
X90197Y-36310D01*
X90197Y-36310D01*
X90197Y-37156D01*
X90215Y-37200D01*
X90249Y-37234D01*
X90293Y-37252D01*
X90341Y-37252D01*
X91493Y-37252D01*
X91490Y-37255D01*
X91481Y-37277D01*
X91422Y-37277D01*
X91397Y-37287D01*
X91371Y-37277D01*
X91324Y-37277D01*
X91166Y-37277D01*
X91133Y-37290D01*
X91034Y-37290D01*
X90970Y-37303D01*
X90957Y-37305D01*
X90892Y-37349D01*
X90733Y-37508D01*
X90690Y-37573D01*
X90675Y-37650D01*
X89472Y-37650D01*
X87666Y-35843D01*
X87601Y-35800D01*
X87525Y-35785D01*
X87169Y-35785D01*
X87169Y-34451D01*
X87151Y-34407D01*
X87117Y-34373D01*
X87073Y-34355D01*
X87026Y-34355D01*
X83876Y-34355D01*
X83832Y-34373D01*
X83798Y-34407D01*
X83780Y-34451D01*
X83780Y-34498D01*
X83780Y-37648D01*
X83798Y-37692D01*
X83832Y-37726D01*
X83876Y-37744D01*
X83923Y-37744D01*
X87073Y-37744D01*
X87117Y-37726D01*
X87151Y-37692D01*
X87169Y-37648D01*
X87169Y-37601D01*
X87169Y-36185D01*
X87442Y-36185D01*
X89248Y-37991D01*
X89313Y-38034D01*
X89313Y-38034D01*
X89390Y-38050D01*
X90675Y-38050D01*
X90690Y-38126D01*
X90733Y-38191D01*
X90892Y-38350D01*
X90892Y-38350D01*
X90957Y-38394D01*
X90957Y-38394D01*
X90970Y-38396D01*
X91034Y-38409D01*
X91133Y-38409D01*
X91166Y-38422D01*
X91214Y-38422D01*
X91371Y-38422D01*
X91397Y-38412D01*
X91422Y-38422D01*
X91470Y-38422D01*
X91625Y-38422D01*
X91625Y-38705D01*
X91637Y-38765D01*
X91671Y-38815D01*
X91676Y-38820D01*
X91945Y-39089D01*
X91945Y-39259D01*
X91918Y-39259D01*
X90934Y-39259D01*
X90889Y-39277D01*
X90856Y-39311D01*
X90837Y-39355D01*
X90837Y-39403D01*
X90837Y-39460D01*
X90049Y-39460D01*
X89769Y-39180D01*
X89719Y-39146D01*
X89660Y-39135D01*
X81782Y-39135D01*
X81717Y-39069D01*
X81621Y-39030D01*
X81518Y-39029D01*
X81422Y-39069D01*
X81349Y-39142D01*
X81310Y-39238D01*
X81309Y-39341D01*
X81349Y-39437D01*
X81422Y-39510D01*
X81518Y-39549D01*
X81621Y-39550D01*
X81717Y-39510D01*
X81782Y-39445D01*
X89595Y-39445D01*
X89876Y-39725D01*
X89926Y-39758D01*
X89926Y-39758D01*
X89985Y-39770D01*
X90837Y-39770D01*
X90837Y-39875D01*
X90856Y-39919D01*
X90889Y-39953D01*
X90933Y-39971D01*
X90981Y-39971D01*
X91246Y-39971D01*
X91215Y-40048D01*
X91214Y-40151D01*
X91253Y-40243D01*
X90934Y-40243D01*
X90932Y-40244D01*
X90932Y-40243D01*
X90913Y-40199D01*
X90880Y-40165D01*
X90835Y-40147D01*
X90788Y-40146D01*
X90394Y-40146D01*
X90350Y-40165D01*
X90316Y-40198D01*
X90298Y-40243D01*
X90297Y-40290D01*
X90297Y-40638D01*
X90276Y-40647D01*
X90205Y-40717D01*
X90167Y-40809D01*
X90168Y-40923D01*
X90230Y-40986D01*
X90565Y-40986D01*
X90565Y-40978D01*
X90665Y-40978D01*
X90665Y-40986D01*
X90999Y-40986D01*
X91029Y-40956D01*
X91518Y-40956D01*
X91515Y-40956D01*
X91465Y-40990D01*
X91465Y-40990D01*
X91465Y-40990D01*
X91340Y-41115D01*
X91306Y-41165D01*
X91295Y-41225D01*
X91295Y-41228D01*
X91062Y-41228D01*
X91062Y-41148D01*
X90999Y-41086D01*
X90665Y-41086D01*
X90665Y-41400D01*
X90727Y-41463D01*
X90762Y-41463D01*
X90837Y-41462D01*
X90837Y-41844D01*
X90856Y-41888D01*
X90889Y-41922D01*
X90933Y-41940D01*
X90981Y-41940D01*
X91965Y-41940D01*
X92010Y-41922D01*
X92043Y-41888D01*
X92062Y-41844D01*
X92062Y-41796D01*
X92062Y-41324D01*
X92043Y-41280D01*
X92015Y-41251D01*
X92059Y-41243D01*
X92059Y-41243D01*
X92109Y-41209D01*
X92209Y-41109D01*
X92243Y-41059D01*
X92243Y-41059D01*
X92255Y-41000D01*
X92255Y-39367D01*
X92280Y-39429D01*
X92364Y-39513D01*
X92473Y-39558D01*
X92591Y-39558D01*
X92700Y-39513D01*
X92784Y-39429D01*
X92829Y-39320D01*
X92829Y-39202D01*
X92829Y-41879D01*
X92784Y-41770D01*
X92701Y-41686D01*
X92592Y-41641D01*
X92473Y-41641D01*
X92364Y-41686D01*
X92280Y-41770D01*
X92235Y-41879D01*
X92235Y-41997D01*
X92280Y-42106D01*
X92364Y-42190D01*
X92473Y-42235D01*
X92591Y-42235D01*
X92700Y-42190D01*
X92784Y-42107D01*
X92829Y-41997D01*
X92829Y-41879D01*
X92829Y-48615D01*
X92767Y-48709D01*
X92767Y-44987D01*
X92718Y-44870D01*
X92629Y-44781D01*
X92513Y-44733D01*
X92387Y-44732D01*
X92310Y-44764D01*
X92310Y-44748D01*
X92270Y-44652D01*
X92197Y-44579D01*
X92101Y-44540D01*
X91998Y-44539D01*
X91902Y-44579D01*
X91829Y-44652D01*
X91790Y-44748D01*
X91789Y-44851D01*
X91829Y-44947D01*
X91902Y-45020D01*
X91998Y-45059D01*
X92090Y-45060D01*
X92132Y-45102D01*
X92132Y-45112D01*
X92181Y-45229D01*
X92270Y-45318D01*
X92386Y-45366D01*
X92512Y-45367D01*
X92629Y-45318D01*
X92718Y-45229D01*
X92766Y-45113D01*
X92767Y-44987D01*
X92767Y-48709D01*
X92575Y-48996D01*
X92575Y-45891D01*
X92522Y-45764D01*
X92425Y-45667D01*
X92298Y-45615D01*
X92161Y-45614D01*
X92034Y-45667D01*
X91937Y-45764D01*
X91885Y-45891D01*
X91884Y-46028D01*
X91937Y-46155D01*
X92034Y-46252D01*
X92161Y-46304D01*
X92298Y-46305D01*
X92425Y-46252D01*
X92522Y-46155D01*
X92574Y-46028D01*
X92575Y-45891D01*
X92575Y-48996D01*
X92564Y-49012D01*
X92412Y-49113D01*
X92412Y-48683D01*
X92412Y-48348D01*
X92374Y-48257D01*
X92304Y-48186D01*
X92282Y-48177D01*
X92282Y-47942D01*
X92264Y-47898D01*
X92260Y-47895D01*
X92264Y-47891D01*
X92282Y-47847D01*
X92282Y-47799D01*
X92282Y-47484D01*
X92268Y-47449D01*
X92282Y-47415D01*
X92282Y-47367D01*
X92282Y-47052D01*
X92264Y-47008D01*
X92230Y-46974D01*
X92186Y-46956D01*
X92180Y-46956D01*
X92180Y-46625D01*
X92168Y-46565D01*
X92168Y-46565D01*
X92134Y-46515D01*
X92135Y-46423D01*
X92095Y-46327D01*
X92022Y-46254D01*
X91926Y-46215D01*
X91823Y-46214D01*
X91727Y-46254D01*
X91654Y-46327D01*
X91615Y-46423D01*
X91614Y-46526D01*
X91654Y-46622D01*
X91727Y-46695D01*
X91823Y-46734D01*
X91870Y-46734D01*
X91870Y-46956D01*
X91863Y-46956D01*
X91819Y-46974D01*
X91785Y-47008D01*
X91767Y-47052D01*
X91767Y-47100D01*
X91767Y-47415D01*
X91781Y-47450D01*
X91767Y-47484D01*
X91767Y-47532D01*
X91767Y-47847D01*
X91785Y-47891D01*
X91789Y-47894D01*
X91785Y-47898D01*
X91767Y-47942D01*
X91767Y-47990D01*
X91767Y-48177D01*
X91745Y-48186D01*
X91675Y-48257D01*
X91637Y-48348D01*
X91637Y-48403D01*
X91700Y-48466D01*
X91975Y-48466D01*
X91975Y-48458D01*
X92075Y-48458D01*
X92075Y-48466D01*
X92350Y-48466D01*
X92412Y-48403D01*
X92412Y-48348D01*
X92412Y-48683D01*
X92412Y-48628D01*
X92350Y-48566D01*
X92075Y-48566D01*
X92075Y-48821D01*
X92137Y-48883D01*
X92112Y-48883D01*
X92212Y-48883D01*
X92304Y-48845D01*
X92374Y-48774D01*
X92412Y-48683D01*
X92412Y-49113D01*
X91975Y-49406D01*
X91975Y-48821D01*
X91975Y-48566D01*
X91700Y-48566D01*
X91637Y-48628D01*
X91637Y-48683D01*
X91675Y-48774D01*
X91745Y-48845D01*
X91837Y-48883D01*
X91937Y-48883D01*
X91912Y-48883D01*
X91975Y-48821D01*
X91975Y-49406D01*
X91959Y-49417D01*
X91513Y-49505D01*
X91513Y-48647D01*
X91513Y-48652D01*
X91450Y-48589D01*
X91037Y-48589D01*
X91037Y-48884D01*
X91100Y-48947D01*
X91312Y-48947D01*
X91404Y-48909D01*
X91475Y-48839D01*
X91513Y-48747D01*
X91513Y-48647D01*
X91513Y-49505D01*
X91236Y-49560D01*
X90937Y-49560D01*
X90937Y-48884D01*
X90937Y-48589D01*
X90524Y-48589D01*
X90462Y-48652D01*
X90462Y-48647D01*
X90462Y-48747D01*
X90500Y-48839D01*
X90570Y-48909D01*
X90662Y-48947D01*
X90875Y-48947D01*
X90937Y-48884D01*
X90937Y-49560D01*
X85650Y-49560D01*
X85596Y-49570D01*
X85551Y-49601D01*
X85520Y-49646D01*
X85510Y-49700D01*
X85510Y-52210D01*
X84625Y-52210D01*
X84625Y-49865D01*
X84679Y-49865D01*
X84723Y-49846D01*
X84757Y-49813D01*
X84761Y-49804D01*
X84836Y-49805D01*
X84932Y-49765D01*
X85005Y-49692D01*
X85044Y-49596D01*
X85045Y-49493D01*
X85005Y-49397D01*
X84932Y-49324D01*
X84836Y-49285D01*
X84761Y-49284D01*
X84757Y-49277D01*
X84724Y-49243D01*
X84679Y-49225D01*
X84632Y-49224D01*
X84382Y-49224D01*
X84375Y-49227D01*
X84375Y-49082D01*
X84429Y-49060D01*
X84499Y-48989D01*
X84537Y-48898D01*
X84537Y-48803D01*
X84475Y-48741D01*
X84375Y-48741D01*
X84375Y-48641D01*
X84475Y-48641D01*
X84537Y-48578D01*
X84537Y-48483D01*
X84499Y-48392D01*
X84429Y-48321D01*
X84407Y-48312D01*
X84407Y-48077D01*
X84389Y-48033D01*
X84375Y-48019D01*
X84375Y-47752D01*
X84419Y-47707D01*
X84457Y-47616D01*
X84457Y-47521D01*
X84395Y-47459D01*
X84375Y-47459D01*
X84375Y-47359D01*
X84395Y-47359D01*
X84457Y-47296D01*
X84457Y-47201D01*
X84419Y-47110D01*
X84349Y-47039D01*
X84257Y-47001D01*
X84157Y-47001D01*
X84182Y-47001D01*
X84120Y-47064D01*
X84120Y-47100D01*
X84020Y-47100D01*
X84020Y-47064D01*
X83957Y-47001D01*
X83982Y-47001D01*
X83882Y-47001D01*
X83857Y-47011D01*
X83832Y-47001D01*
X83817Y-47001D01*
X83817Y-46994D01*
X83817Y-46807D01*
X83839Y-46798D01*
X83909Y-46727D01*
X83947Y-46636D01*
X83947Y-46221D01*
X83909Y-46130D01*
X83839Y-46059D01*
X83747Y-46021D01*
X83647Y-46021D01*
X83672Y-46021D01*
X83610Y-46084D01*
X83610Y-46379D01*
X83885Y-46379D01*
X83947Y-46316D01*
X83947Y-46221D01*
X83947Y-46636D01*
X83947Y-46541D01*
X83885Y-46479D01*
X83610Y-46479D01*
X83610Y-46486D01*
X83510Y-46486D01*
X83510Y-46479D01*
X83235Y-46479D01*
X83184Y-46529D01*
X83069Y-46415D01*
X83096Y-46415D01*
X83173Y-46383D01*
X83206Y-46350D01*
X83235Y-46379D01*
X83510Y-46379D01*
X83510Y-46084D01*
X83447Y-46021D01*
X83472Y-46021D01*
X83372Y-46021D01*
X83280Y-46059D01*
X83239Y-46101D01*
X83233Y-46086D01*
X83210Y-46063D01*
X83210Y-45970D01*
X83198Y-45910D01*
X83198Y-45910D01*
X83164Y-45860D01*
X82769Y-45465D01*
X82791Y-45465D01*
X82887Y-45425D01*
X82960Y-45352D01*
X82999Y-45256D01*
X83000Y-45153D01*
X82960Y-45057D01*
X82895Y-44992D01*
X82895Y-44987D01*
X82907Y-44975D01*
X82947Y-45015D01*
X83043Y-45054D01*
X83146Y-45055D01*
X83242Y-45015D01*
X83315Y-44942D01*
X83354Y-44846D01*
X83355Y-44743D01*
X83315Y-44647D01*
X83267Y-44599D01*
X83276Y-44599D01*
X83320Y-44581D01*
X83354Y-44547D01*
X83368Y-44513D01*
X83368Y-44753D01*
X83387Y-44797D01*
X83420Y-44831D01*
X83465Y-44849D01*
X83512Y-44850D01*
X83762Y-44850D01*
X83806Y-44831D01*
X83840Y-44798D01*
X83858Y-44753D01*
X83859Y-44706D01*
X83859Y-44676D01*
X83859Y-44676D01*
X83870Y-44673D01*
X83870Y-44753D01*
X83889Y-44797D01*
X83922Y-44831D01*
X83961Y-44847D01*
X83961Y-44976D01*
X83972Y-45035D01*
X83980Y-45046D01*
X83980Y-45046D01*
X83979Y-45091D01*
X84011Y-45168D01*
X84070Y-45227D01*
X84148Y-45259D01*
X84231Y-45260D01*
X84305Y-45229D01*
X84305Y-45231D01*
X84280Y-45241D01*
X84191Y-45330D01*
X84143Y-45446D01*
X84142Y-45572D01*
X84191Y-45689D01*
X84280Y-45778D01*
X84315Y-45793D01*
X84316Y-45799D01*
X84350Y-45849D01*
X84788Y-46287D01*
X84788Y-46287D01*
X84838Y-46320D01*
X84838Y-46320D01*
X84885Y-46330D01*
X84897Y-46332D01*
X84897Y-46332D01*
X84897Y-46332D01*
X85307Y-46332D01*
X85307Y-46360D01*
X85327Y-46407D01*
X85333Y-46413D01*
X85327Y-46419D01*
X85307Y-46466D01*
X85307Y-46518D01*
X85307Y-46833D01*
X85327Y-46880D01*
X85333Y-46886D01*
X85327Y-46892D01*
X85307Y-46939D01*
X85307Y-46990D01*
X85307Y-47305D01*
X85327Y-47352D01*
X85333Y-47358D01*
X85327Y-47364D01*
X85307Y-47411D01*
X85307Y-47462D01*
X85307Y-47777D01*
X85327Y-47825D01*
X85333Y-47831D01*
X85327Y-47836D01*
X85307Y-47884D01*
X85307Y-47935D01*
X85307Y-48250D01*
X85327Y-48297D01*
X85333Y-48303D01*
X85327Y-48309D01*
X85307Y-48356D01*
X85307Y-48407D01*
X85307Y-48722D01*
X85327Y-48770D01*
X85363Y-48806D01*
X85410Y-48826D01*
X85462Y-48826D01*
X86013Y-48826D01*
X86060Y-48806D01*
X86096Y-48770D01*
X86116Y-48723D01*
X86116Y-48671D01*
X86116Y-48356D01*
X86096Y-48309D01*
X86091Y-48303D01*
X86096Y-48297D01*
X86116Y-48250D01*
X86116Y-48199D01*
X86116Y-47884D01*
X86096Y-47837D01*
X86091Y-47831D01*
X86096Y-47825D01*
X86116Y-47778D01*
X86116Y-47749D01*
X86555Y-47749D01*
X86614Y-47738D01*
X86614Y-47738D01*
X86664Y-47704D01*
X88514Y-45855D01*
X89100Y-45855D01*
X89137Y-45855D01*
X89202Y-45920D01*
X89298Y-45959D01*
X89401Y-45960D01*
X89497Y-45920D01*
X89570Y-45847D01*
X89609Y-45751D01*
X89610Y-45679D01*
X90140Y-46209D01*
X90140Y-46209D01*
X90172Y-46231D01*
X90179Y-46247D01*
X90252Y-46320D01*
X90348Y-46359D01*
X90451Y-46360D01*
X90547Y-46320D01*
X90583Y-46284D01*
X90583Y-46360D01*
X90603Y-46407D01*
X90608Y-46413D01*
X90603Y-46419D01*
X90583Y-46466D01*
X90583Y-46495D01*
X90422Y-46495D01*
X90357Y-46429D01*
X90261Y-46390D01*
X90158Y-46389D01*
X90062Y-46429D01*
X89989Y-46502D01*
X89950Y-46598D01*
X89949Y-46701D01*
X89989Y-46797D01*
X90062Y-46870D01*
X90158Y-46909D01*
X90261Y-46910D01*
X90357Y-46870D01*
X90422Y-46805D01*
X90583Y-46805D01*
X90583Y-46833D01*
X90603Y-46880D01*
X90608Y-46886D01*
X90603Y-46892D01*
X90583Y-46939D01*
X90583Y-46990D01*
X90583Y-47305D01*
X90603Y-47352D01*
X90608Y-47358D01*
X90603Y-47364D01*
X90583Y-47411D01*
X90583Y-47462D01*
X90583Y-47777D01*
X90603Y-47825D01*
X90608Y-47831D01*
X90603Y-47836D01*
X90583Y-47884D01*
X90583Y-47935D01*
X90583Y-48165D01*
X90570Y-48170D01*
X90500Y-48240D01*
X90462Y-48332D01*
X90462Y-48431D01*
X90462Y-48427D01*
X90524Y-48489D01*
X90937Y-48489D01*
X90937Y-48481D01*
X91037Y-48481D01*
X91037Y-48489D01*
X91450Y-48489D01*
X91513Y-48427D01*
X91513Y-48431D01*
X91513Y-48332D01*
X91475Y-48240D01*
X91404Y-48170D01*
X91392Y-48165D01*
X91392Y-47884D01*
X91372Y-47837D01*
X91366Y-47831D01*
X91372Y-47825D01*
X91392Y-47778D01*
X91392Y-47726D01*
X91392Y-47411D01*
X91372Y-47364D01*
X91366Y-47358D01*
X91372Y-47353D01*
X91392Y-47305D01*
X91392Y-47254D01*
X91392Y-46939D01*
X91372Y-46892D01*
X91366Y-46886D01*
X91372Y-46880D01*
X91392Y-46833D01*
X91392Y-46782D01*
X91392Y-46467D01*
X91372Y-46419D01*
X91366Y-46413D01*
X91372Y-46408D01*
X91392Y-46360D01*
X91392Y-46309D01*
X91392Y-45994D01*
X91372Y-45947D01*
X91366Y-45941D01*
X91372Y-45935D01*
X91392Y-45888D01*
X91392Y-45837D01*
X91392Y-45522D01*
X91372Y-45474D01*
X91366Y-45468D01*
X91372Y-45463D01*
X91392Y-45415D01*
X91392Y-45364D01*
X91392Y-45049D01*
X91372Y-45002D01*
X91366Y-44996D01*
X91372Y-44990D01*
X91392Y-44943D01*
X91392Y-44892D01*
X91392Y-44577D01*
X91372Y-44530D01*
X91366Y-44524D01*
X91372Y-44518D01*
X91392Y-44471D01*
X91392Y-44419D01*
X91392Y-44104D01*
X91372Y-44057D01*
X91366Y-44051D01*
X91372Y-44045D01*
X91392Y-43998D01*
X91392Y-43970D01*
X91851Y-43970D01*
X92143Y-44262D01*
X92133Y-44286D01*
X92132Y-44412D01*
X92181Y-44529D01*
X92270Y-44618D01*
X92386Y-44666D01*
X92512Y-44667D01*
X92629Y-44618D01*
X92718Y-44529D01*
X92766Y-44413D01*
X92767Y-44287D01*
X92718Y-44170D01*
X92629Y-44081D01*
X92513Y-44033D01*
X92387Y-44032D01*
X92362Y-44043D01*
X92352Y-44032D01*
X92352Y-43357D01*
X92339Y-43179D01*
X92295Y-43074D01*
X92211Y-43059D01*
X92140Y-43130D01*
X92140Y-42988D01*
X92125Y-42904D01*
X91957Y-42847D01*
X91779Y-42860D01*
X91674Y-42904D01*
X91659Y-42988D01*
X91900Y-43229D01*
X92140Y-42988D01*
X92140Y-43130D01*
X91970Y-43300D01*
X92211Y-43540D01*
X92295Y-43525D01*
X92352Y-43357D01*
X92352Y-44032D01*
X92047Y-43728D01*
X92125Y-43695D01*
X92140Y-43611D01*
X91900Y-43370D01*
X91659Y-43611D01*
X91668Y-43660D01*
X91457Y-43660D01*
X91475Y-43642D01*
X91513Y-43550D01*
X91513Y-43527D01*
X91588Y-43540D01*
X91829Y-43300D01*
X91588Y-43059D01*
X91504Y-43074D01*
X91496Y-43095D01*
X91475Y-43043D01*
X91404Y-42973D01*
X91312Y-42935D01*
X91100Y-42935D01*
X91037Y-42998D01*
X91037Y-43292D01*
X91045Y-43292D01*
X91045Y-43392D01*
X91037Y-43392D01*
X91037Y-43400D01*
X90937Y-43400D01*
X90937Y-43392D01*
X90937Y-43292D01*
X90937Y-42998D01*
X90875Y-42935D01*
X90662Y-42935D01*
X90570Y-42973D01*
X90565Y-42979D01*
X90565Y-41400D01*
X90565Y-41086D01*
X90230Y-41086D01*
X90168Y-41148D01*
X90167Y-41262D01*
X90205Y-41354D01*
X90276Y-41424D01*
X90368Y-41462D01*
X90467Y-41463D01*
X90502Y-41463D01*
X90565Y-41400D01*
X90565Y-42979D01*
X90500Y-43043D01*
X90462Y-43135D01*
X90462Y-43235D01*
X90462Y-43230D01*
X90524Y-43292D01*
X90937Y-43292D01*
X90937Y-43392D01*
X90524Y-43392D01*
X90462Y-43455D01*
X90462Y-43450D01*
X90462Y-43550D01*
X90398Y-43549D01*
X90302Y-43589D01*
X90250Y-43641D01*
X90250Y-42490D01*
X90250Y-41939D01*
X90230Y-41892D01*
X90194Y-41855D01*
X90147Y-41836D01*
X90096Y-41836D01*
X89945Y-41836D01*
X89939Y-41823D01*
X89869Y-41752D01*
X89777Y-41714D01*
X89682Y-41715D01*
X89620Y-41777D01*
X89620Y-42190D01*
X89628Y-42190D01*
X89628Y-42290D01*
X89620Y-42290D01*
X89620Y-42703D01*
X89682Y-42766D01*
X89777Y-42766D01*
X89869Y-42728D01*
X89939Y-42658D01*
X89945Y-42644D01*
X90147Y-42644D01*
X90194Y-42625D01*
X90230Y-42589D01*
X90250Y-42541D01*
X90250Y-42490D01*
X90250Y-43641D01*
X90229Y-43662D01*
X90190Y-43758D01*
X90189Y-43861D01*
X90229Y-43957D01*
X90302Y-44030D01*
X90398Y-44069D01*
X90501Y-44070D01*
X90596Y-44030D01*
X90603Y-44045D01*
X90608Y-44051D01*
X90603Y-44057D01*
X90583Y-44104D01*
X90583Y-44155D01*
X90583Y-44470D01*
X90603Y-44518D01*
X90608Y-44524D01*
X90603Y-44529D01*
X90583Y-44577D01*
X90583Y-44628D01*
X90583Y-44943D01*
X90603Y-44990D01*
X90608Y-44996D01*
X90603Y-45002D01*
X90583Y-45049D01*
X90583Y-45100D01*
X90583Y-45415D01*
X90603Y-45463D01*
X90608Y-45468D01*
X90603Y-45474D01*
X90583Y-45521D01*
X90583Y-45573D01*
X90583Y-45888D01*
X90602Y-45935D01*
X90547Y-45879D01*
X90451Y-45840D01*
X90348Y-45839D01*
X90252Y-45879D01*
X90250Y-45881D01*
X89609Y-45240D01*
X89559Y-45206D01*
X89520Y-45199D01*
X89520Y-42703D01*
X89520Y-42290D01*
X89512Y-42290D01*
X89512Y-42190D01*
X89520Y-42190D01*
X89520Y-41777D01*
X89457Y-41715D01*
X89363Y-41714D01*
X89271Y-41752D01*
X89201Y-41823D01*
X89195Y-41836D01*
X89190Y-41836D01*
X88875Y-41836D01*
X88828Y-41855D01*
X88822Y-41861D01*
X88816Y-41855D01*
X88769Y-41836D01*
X88718Y-41836D01*
X88403Y-41836D01*
X88355Y-41855D01*
X88350Y-41861D01*
X88344Y-41855D01*
X88296Y-41836D01*
X88245Y-41836D01*
X87930Y-41836D01*
X87883Y-41855D01*
X87877Y-41861D01*
X87871Y-41855D01*
X87824Y-41836D01*
X87773Y-41836D01*
X87504Y-41836D01*
X87498Y-41823D01*
X87428Y-41752D01*
X87336Y-41714D01*
X87242Y-41715D01*
X87179Y-41777D01*
X87179Y-42190D01*
X87187Y-42190D01*
X87187Y-42290D01*
X87179Y-42290D01*
X87179Y-42703D01*
X87242Y-42766D01*
X87336Y-42766D01*
X87428Y-42728D01*
X87498Y-42658D01*
X87504Y-42644D01*
X87509Y-42644D01*
X87824Y-42644D01*
X87871Y-42625D01*
X87877Y-42619D01*
X87883Y-42625D01*
X87930Y-42644D01*
X87981Y-42644D01*
X88296Y-42644D01*
X88344Y-42625D01*
X88349Y-42619D01*
X88355Y-42625D01*
X88403Y-42644D01*
X88454Y-42644D01*
X88769Y-42644D01*
X88816Y-42625D01*
X88822Y-42619D01*
X88828Y-42625D01*
X88875Y-42644D01*
X88926Y-42644D01*
X89195Y-42644D01*
X89201Y-42658D01*
X89271Y-42728D01*
X89363Y-42766D01*
X89457Y-42766D01*
X89520Y-42703D01*
X89520Y-45199D01*
X89500Y-45195D01*
X88300Y-45195D01*
X88240Y-45206D01*
X88190Y-45240D01*
X87079Y-46351D01*
X87079Y-42703D01*
X87079Y-42290D01*
X87071Y-42290D01*
X87071Y-42190D01*
X87079Y-42190D01*
X87079Y-41777D01*
X87017Y-41715D01*
X86922Y-41714D01*
X86830Y-41752D01*
X86760Y-41823D01*
X86754Y-41836D01*
X86552Y-41836D01*
X86505Y-41855D01*
X86469Y-41892D01*
X86449Y-41939D01*
X86449Y-41990D01*
X86449Y-42541D01*
X86469Y-42589D01*
X86505Y-42625D01*
X86552Y-42644D01*
X86603Y-42644D01*
X86754Y-42644D01*
X86760Y-42658D01*
X86830Y-42728D01*
X86922Y-42766D01*
X87017Y-42766D01*
X87079Y-42703D01*
X87079Y-46351D01*
X86463Y-46967D01*
X86116Y-46967D01*
X86116Y-46939D01*
X86096Y-46892D01*
X86091Y-46886D01*
X86096Y-46880D01*
X86116Y-46833D01*
X86116Y-46782D01*
X86116Y-46467D01*
X86096Y-46419D01*
X86091Y-46413D01*
X86096Y-46408D01*
X86116Y-46360D01*
X86116Y-46309D01*
X86116Y-45994D01*
X86096Y-45947D01*
X86091Y-45941D01*
X86096Y-45935D01*
X86116Y-45888D01*
X86116Y-45837D01*
X86116Y-45522D01*
X86096Y-45474D01*
X86091Y-45468D01*
X86096Y-45463D01*
X86116Y-45415D01*
X86116Y-45364D01*
X86116Y-45049D01*
X86096Y-45002D01*
X86091Y-44996D01*
X86096Y-44990D01*
X86116Y-44943D01*
X86116Y-44892D01*
X86116Y-44577D01*
X86096Y-44530D01*
X86091Y-44524D01*
X86096Y-44518D01*
X86116Y-44471D01*
X86116Y-44419D01*
X86116Y-44104D01*
X86096Y-44057D01*
X86091Y-44051D01*
X86096Y-44045D01*
X86116Y-43998D01*
X86116Y-43947D01*
X86116Y-43632D01*
X86096Y-43585D01*
X86091Y-43579D01*
X86096Y-43573D01*
X86116Y-43526D01*
X86116Y-43474D01*
X86116Y-43160D01*
X86096Y-43112D01*
X86060Y-43076D01*
X86013Y-43056D01*
X85962Y-43056D01*
X85411Y-43056D01*
X85363Y-43076D01*
X85327Y-43112D01*
X85322Y-43125D01*
X85272Y-43004D01*
X85175Y-42907D01*
X85048Y-42855D01*
X84911Y-42854D01*
X84784Y-42907D01*
X84687Y-43004D01*
X84635Y-43131D01*
X84634Y-43268D01*
X84687Y-43395D01*
X84784Y-43492D01*
X84839Y-43515D01*
X84834Y-43517D01*
X84737Y-43614D01*
X84685Y-43741D01*
X84684Y-43878D01*
X84737Y-44005D01*
X84834Y-44102D01*
X84961Y-44154D01*
X84971Y-44154D01*
X84844Y-44207D01*
X84747Y-44304D01*
X84695Y-44431D01*
X84694Y-44568D01*
X84747Y-44695D01*
X84844Y-44792D01*
X84913Y-44820D01*
X84824Y-44857D01*
X84727Y-44954D01*
X84675Y-45081D01*
X84674Y-45218D01*
X84716Y-45317D01*
X84639Y-45241D01*
X84615Y-45231D01*
X84615Y-44910D01*
X84603Y-44850D01*
X84603Y-44850D01*
X84569Y-44800D01*
X84555Y-44785D01*
X84555Y-44275D01*
X84555Y-44125D01*
X84543Y-44065D01*
X84543Y-44065D01*
X84509Y-44015D01*
X84505Y-44010D01*
X84505Y-43139D01*
X84579Y-43064D01*
X84613Y-43014D01*
X84613Y-43014D01*
X84625Y-42955D01*
X84625Y-42570D01*
X84613Y-42510D01*
X84613Y-42510D01*
X84579Y-42460D01*
X84459Y-42340D01*
X84409Y-42306D01*
X84350Y-42295D01*
X83725Y-42295D01*
X83665Y-42306D01*
X83648Y-42318D01*
X83679Y-42241D01*
X83680Y-42138D01*
X83640Y-42042D01*
X83567Y-41969D01*
X83471Y-41930D01*
X83380Y-41929D01*
X83380Y-41888D01*
X83340Y-41792D01*
X83267Y-41719D01*
X83171Y-41680D01*
X83068Y-41679D01*
X82972Y-41719D01*
X82919Y-41772D01*
X82904Y-41772D01*
X82589Y-41772D01*
X82554Y-41786D01*
X82520Y-41772D01*
X82494Y-41772D01*
X82494Y-40939D01*
X82482Y-40879D01*
X82482Y-40879D01*
X82448Y-40829D01*
X81130Y-39510D01*
X81130Y-36288D01*
X81090Y-36192D01*
X81017Y-36119D01*
X80921Y-36080D01*
X80818Y-36079D01*
X80752Y-36107D01*
X80752Y-34943D01*
X80734Y-34899D01*
X80700Y-34865D01*
X80656Y-34847D01*
X80608Y-34847D01*
X80392Y-34847D01*
X80398Y-34841D01*
X80416Y-34796D01*
X80417Y-34749D01*
X80417Y-34401D01*
X80438Y-34392D01*
X80509Y-34322D01*
X80547Y-34230D01*
X80547Y-33777D01*
X80509Y-33685D01*
X80438Y-33615D01*
X80346Y-33577D01*
X80247Y-33576D01*
X80212Y-33577D01*
X80150Y-33639D01*
X80150Y-33954D01*
X80484Y-33954D01*
X80547Y-33891D01*
X80547Y-33777D01*
X80547Y-34230D01*
X80547Y-34116D01*
X80484Y-34054D01*
X80150Y-34054D01*
X80150Y-34061D01*
X80050Y-34061D01*
X80050Y-34054D01*
X80050Y-33954D01*
X80050Y-33639D01*
X79987Y-33577D01*
X79952Y-33576D01*
X79853Y-33577D01*
X79761Y-33615D01*
X79690Y-33685D01*
X79652Y-33777D01*
X79653Y-33891D01*
X79715Y-33954D01*
X80050Y-33954D01*
X80050Y-34054D01*
X79715Y-34054D01*
X79653Y-34116D01*
X79652Y-34230D01*
X79690Y-34322D01*
X79761Y-34392D01*
X79783Y-34401D01*
X79782Y-34442D01*
X79782Y-34796D01*
X79801Y-34840D01*
X79807Y-34847D01*
X78246Y-34847D01*
X78202Y-34865D01*
X78168Y-34899D01*
X78150Y-34943D01*
X78150Y-34991D01*
X78150Y-37156D01*
X78168Y-37200D01*
X78202Y-37234D01*
X78246Y-37252D01*
X78294Y-37252D01*
X80656Y-37252D01*
X80700Y-37234D01*
X80734Y-37200D01*
X80752Y-37156D01*
X80752Y-37108D01*
X80752Y-36572D01*
X80818Y-36599D01*
X80921Y-36600D01*
X81017Y-36560D01*
X81090Y-36487D01*
X81129Y-36391D01*
X81130Y-36288D01*
X81130Y-39510D01*
X80645Y-39025D01*
X80645Y-38625D01*
X80633Y-38565D01*
X80633Y-38565D01*
X80599Y-38515D01*
X80220Y-38136D01*
X80304Y-38010D01*
X80336Y-37850D01*
X80304Y-37689D01*
X80213Y-37553D01*
X80077Y-37461D01*
X79916Y-37430D01*
X79709Y-37430D01*
X79548Y-37461D01*
X79412Y-37553D01*
X79321Y-37689D01*
X79289Y-37850D01*
X79321Y-38010D01*
X79412Y-38146D01*
X79548Y-38238D01*
X79709Y-38270D01*
X79915Y-38270D01*
X80169Y-38523D01*
X80077Y-38461D01*
X79916Y-38430D01*
X79709Y-38430D01*
X79548Y-38461D01*
X79412Y-38553D01*
X79321Y-38689D01*
X79289Y-38850D01*
X79321Y-39010D01*
X79412Y-39146D01*
X79548Y-39238D01*
X79709Y-39270D01*
X79916Y-39270D01*
X80077Y-39238D01*
X80213Y-39146D01*
X80304Y-39010D01*
X80335Y-38857D01*
X80335Y-39090D01*
X80346Y-39149D01*
X80380Y-39199D01*
X82184Y-41003D01*
X82184Y-41772D01*
X82157Y-41772D01*
X82113Y-41790D01*
X82079Y-41824D01*
X82061Y-41868D01*
X82061Y-41902D01*
X82035Y-41920D01*
X81950Y-42005D01*
X81945Y-41992D01*
X81872Y-41919D01*
X81776Y-41880D01*
X81724Y-41879D01*
X81747Y-41870D01*
X81820Y-41797D01*
X81859Y-41701D01*
X81860Y-41598D01*
X81820Y-41502D01*
X81747Y-41429D01*
X81651Y-41390D01*
X81548Y-41389D01*
X81452Y-41429D01*
X81379Y-41502D01*
X81340Y-41598D01*
X81339Y-41696D01*
X81317Y-41730D01*
X81305Y-41789D01*
X81305Y-41867D01*
X81226Y-41835D01*
X81123Y-41834D01*
X81044Y-41867D01*
X81044Y-41866D01*
X81045Y-41763D01*
X81005Y-41667D01*
X80932Y-41594D01*
X80836Y-41555D01*
X80733Y-41554D01*
X80689Y-41572D01*
X80690Y-41488D01*
X80650Y-41392D01*
X80637Y-41380D01*
X80875Y-41380D01*
X80934Y-41368D01*
X80934Y-41368D01*
X80984Y-41334D01*
X81134Y-41184D01*
X81226Y-41185D01*
X81322Y-41145D01*
X81395Y-41072D01*
X81434Y-40976D01*
X81435Y-40879D01*
X81602Y-41046D01*
X81602Y-41138D01*
X81641Y-41234D01*
X81715Y-41307D01*
X81810Y-41347D01*
X81913Y-41347D01*
X82009Y-41308D01*
X82082Y-41234D01*
X82122Y-41139D01*
X82122Y-41036D01*
X82083Y-40940D01*
X82009Y-40867D01*
X81914Y-40827D01*
X81821Y-40827D01*
X81509Y-40515D01*
X81459Y-40481D01*
X81400Y-40470D01*
X80326Y-40470D01*
X80326Y-40126D01*
X80326Y-39526D01*
X80308Y-39482D01*
X80274Y-39448D01*
X80230Y-39430D01*
X80182Y-39429D01*
X79395Y-39429D01*
X79351Y-39448D01*
X79317Y-39481D01*
X79299Y-39526D01*
X79299Y-39573D01*
X79299Y-40173D01*
X79317Y-40217D01*
X79351Y-40251D01*
X79395Y-40269D01*
X79443Y-40270D01*
X80230Y-40270D01*
X80274Y-40251D01*
X80308Y-40218D01*
X80326Y-40173D01*
X80326Y-40126D01*
X80326Y-40470D01*
X79610Y-40470D01*
X79550Y-40481D01*
X79500Y-40515D01*
X79402Y-40613D01*
X79372Y-40601D01*
X79355Y-40601D01*
X79292Y-40663D01*
X79292Y-40664D01*
X79267Y-40639D01*
X79243Y-40629D01*
X79243Y-37985D01*
X79243Y-37714D01*
X79237Y-37678D01*
X79131Y-37490D01*
X78961Y-37356D01*
X78753Y-37298D01*
X78667Y-37360D01*
X78667Y-37800D01*
X79195Y-37800D01*
X79243Y-37714D01*
X79243Y-37985D01*
X79195Y-37900D01*
X78667Y-37900D01*
X78667Y-38339D01*
X78753Y-38401D01*
X78961Y-38343D01*
X79131Y-38209D01*
X79237Y-38021D01*
X79243Y-37985D01*
X79243Y-40629D01*
X79175Y-40601D01*
X79171Y-40601D01*
X79171Y-40601D01*
X79164Y-40601D01*
X79158Y-40601D01*
X79158Y-40601D01*
X79154Y-40601D01*
X79140Y-40606D01*
X79140Y-39850D01*
X79140Y-38850D01*
X79108Y-38689D01*
X79017Y-38553D01*
X78881Y-38461D01*
X78720Y-38430D01*
X78567Y-38430D01*
X78567Y-38339D01*
X78567Y-37900D01*
X78567Y-37800D01*
X78567Y-37360D01*
X78480Y-37298D01*
X78272Y-37356D01*
X78102Y-37490D01*
X77996Y-37678D01*
X77990Y-37714D01*
X78038Y-37800D01*
X78567Y-37800D01*
X78567Y-37900D01*
X78038Y-37900D01*
X77990Y-37985D01*
X77996Y-38021D01*
X78102Y-38209D01*
X78272Y-38343D01*
X78480Y-38401D01*
X78567Y-38339D01*
X78567Y-38430D01*
X78513Y-38430D01*
X78352Y-38461D01*
X78216Y-38553D01*
X78125Y-38689D01*
X78093Y-38850D01*
X78125Y-39010D01*
X78216Y-39146D01*
X78352Y-39238D01*
X78513Y-39270D01*
X78720Y-39270D01*
X78881Y-39238D01*
X79017Y-39146D01*
X79108Y-39010D01*
X79140Y-38850D01*
X79140Y-39850D01*
X79108Y-39689D01*
X79017Y-39553D01*
X78881Y-39461D01*
X78720Y-39430D01*
X78513Y-39430D01*
X78352Y-39461D01*
X78216Y-39553D01*
X78125Y-39689D01*
X78093Y-39850D01*
X78125Y-40010D01*
X78216Y-40146D01*
X78352Y-40238D01*
X78513Y-40270D01*
X78720Y-40270D01*
X78881Y-40238D01*
X79017Y-40146D01*
X79108Y-40010D01*
X79140Y-39850D01*
X79140Y-40606D01*
X79062Y-40639D01*
X79036Y-40664D01*
X79036Y-40663D01*
X78974Y-40601D01*
X78957Y-40601D01*
X78879Y-40633D01*
X78859Y-40585D01*
X78789Y-40514D01*
X78697Y-40476D01*
X78597Y-40476D01*
X78622Y-40476D01*
X78560Y-40539D01*
X78560Y-40834D01*
X78567Y-40834D01*
X78567Y-40934D01*
X78560Y-40934D01*
X78560Y-40941D01*
X78460Y-40941D01*
X78460Y-40934D01*
X78460Y-40834D01*
X78460Y-40539D01*
X78397Y-40476D01*
X78422Y-40476D01*
X78322Y-40476D01*
X78230Y-40514D01*
X78160Y-40585D01*
X78122Y-40676D01*
X78122Y-40771D01*
X78185Y-40834D01*
X78460Y-40834D01*
X78460Y-40934D01*
X78185Y-40934D01*
X78122Y-40996D01*
X78122Y-41059D01*
X78093Y-41059D01*
X77997Y-41099D01*
X77924Y-41172D01*
X77885Y-41268D01*
X77884Y-41371D01*
X77924Y-41467D01*
X77997Y-41540D01*
X78093Y-41579D01*
X78122Y-41579D01*
X78122Y-41646D01*
X78185Y-41709D01*
X78460Y-41709D01*
X78460Y-41701D01*
X78560Y-41701D01*
X78560Y-41709D01*
X78752Y-41709D01*
X78776Y-41719D01*
X78824Y-41719D01*
X79015Y-41719D01*
X79015Y-41744D01*
X78983Y-41744D01*
X78939Y-41763D01*
X78908Y-41794D01*
X78908Y-41766D01*
X78613Y-41766D01*
X78570Y-41809D01*
X78560Y-41809D01*
X78560Y-41816D01*
X78460Y-41816D01*
X78460Y-41809D01*
X78185Y-41809D01*
X78122Y-41871D01*
X78122Y-41966D01*
X78160Y-42057D01*
X78230Y-42128D01*
X78252Y-42137D01*
X78252Y-42372D01*
X78261Y-42395D01*
X78240Y-42448D01*
X78239Y-42551D01*
X78279Y-42647D01*
X78282Y-42650D01*
X77639Y-42650D01*
X77639Y-33566D01*
X77743Y-33135D01*
X77997Y-32785D01*
X78366Y-32559D01*
X78808Y-32489D01*
X91236Y-32489D01*
X91959Y-32632D01*
X92564Y-33037D01*
X92965Y-33637D01*
X93110Y-34367D01*
X93110Y-47682D01*
M02*
