M48
;DRILL file {Pcbnew (2013-05-31 BZR 4019)-stable} date 6/2/2014 4:13:46 PM
;FORMAT={-:-/ absolute / inch / decimal}
FMAT,2
INCH,TZ
T1C0.008
T2C0.025
T3C0.035
T4C0.039
T5C0.040
T6C0.125
%
G90
G05
M72
T1
X7.8145Y-4.132
X7.82Y-4.1775
X7.85Y-4.25
X7.887Y-4.546
X7.897Y-4.689
X7.905Y-4.0725
X7.94Y-4.729
X7.955Y-4.886
X7.956Y-4.16
X8.0085Y-4.301
X8.01Y-3.375
X8.043Y-4.154
X8.045Y-4.3635
X8.0455Y-4.459
X8.054Y-4.842
X8.067Y-4.568
X8.0785Y-4.1815
X8.085Y-4.478
X8.087Y-3.634
X8.087Y-4.94
X8.1175Y-4.0925
X8.1175Y-4.2095
X8.125Y-4.286
X8.1265Y-4.3465
X8.138Y-4.802
X8.1505Y-4.403
X8.157Y-3.929
X8.16Y-4.165
X8.166Y-4.3395
X8.169Y-4.7075
X8.171Y-4.5155
X8.1725Y-4.214
X8.18Y-4.4305
X8.1855Y-4.373
X8.1862Y-4.1087
X8.192Y-4.62
X8.203Y-4.736
X8.224Y-4.5465
X8.226Y-4.775
X8.228Y-4.7045
X8.244Y-4.817
X8.2465Y-4.294
X8.269Y-4.354
X8.274Y-4.5205
X8.3055Y-4.6205
X8.3095Y-4.4795
X8.312Y-4.194
X8.342Y-4.219
X8.38Y-4.9545
X8.392Y-4.7025
X8.395Y-4.3025
X8.405Y-4.9075
X8.419Y-4.505
X8.42Y-4.2725
X8.4785Y-4.9545
X8.736Y-4.296
X8.935Y-4.57
X9.005Y-3.609
X9.021Y-4.665
X9.04Y-4.61
X9.045Y-4.381
X9.046Y-4.854
X9.087Y-3.42
X9.1475Y-4.01
X9.1875Y-4.6475
X9.197Y-3.418
X9.2Y-3.7475
X9.205Y-4.48
X9.2175Y-3.46
T2
X8.498Y-4.32
X8.502Y-4.515
X8.503Y-4.381
X8.504Y-4.45
X9.223Y-4.596
T3
X9.2533Y-3.9261
X9.2533Y-4.1939
T4
X7.8715Y-3.785
X7.8715Y-3.885
X7.8715Y-3.985
X7.9715Y-3.785
X7.9715Y-3.885
X7.9715Y-3.985
T5
X8.119Y-5.0115
X8.119Y-5.1115
X8.219Y-5.0115
X8.219Y-5.1115
X8.319Y-5.0115
X8.319Y-5.1115
T6
X7.875Y-3.36
X7.875Y-5.11
T0
M30
