G04 (created by PCBNEW (2013-05-31 BZR 4019)-stable) date 6/2/2014 4:07:52 PM*
%MOIN*%
G04 Gerber Fmt 3.4, Leading zero omitted, Abs format*
%FSLAX34Y34*%
G01*
G70*
G90*
G04 APERTURE LIST*
%ADD10C,0.00590551*%
%ADD11R,0.0787X0.06*%
%ADD12O,0.0787X0.06*%
%ADD13C,0.045*%
%ADD14C,0.1875*%
%ADD15O,0.0590551X0.0787402*%
%ADD16R,0.0590551X0.0787402*%
%ADD17C,0.028*%
%ADD18C,0.018*%
%ADD19C,0.007*%
%ADD20C,0.01*%
G04 APERTURE END LIST*
G54D10*
G54D11*
X79813Y-39850D03*
G54D12*
X78617Y-39850D03*
X79813Y-38850D03*
X78617Y-38850D03*
X79813Y-37850D03*
X78617Y-37850D03*
G54D13*
X85020Y-45150D03*
X92230Y-45960D03*
X85040Y-44500D03*
X85030Y-43810D03*
X84980Y-43200D03*
G54D14*
X78750Y-51100D03*
X78750Y-33600D03*
G54D15*
X83190Y-50016D03*
X83190Y-51213D03*
G54D16*
X81190Y-51213D03*
G54D15*
X81190Y-50016D03*
X82190Y-51213D03*
X82190Y-50016D03*
G54D17*
X78870Y-45460D03*
X80870Y-36340D03*
X90050Y-36090D03*
X90210Y-46650D03*
X84200Y-42725D03*
X89350Y-45700D03*
X92050Y-44800D03*
X90400Y-46100D03*
X91875Y-46475D03*
X83950Y-43025D03*
X81175Y-42095D03*
X82465Y-42940D03*
X83800Y-49545D03*
X82440Y-48170D03*
X80870Y-49400D03*
X81380Y-48020D03*
X81265Y-43465D03*
X78500Y-42500D03*
X78145Y-41320D03*
X84785Y-49545D03*
X83120Y-41940D03*
G54D18*
X84190Y-45050D03*
G54D17*
X90870Y-34200D03*
X90450Y-43810D03*
X81690Y-47075D03*
X78200Y-41775D03*
X82260Y-47750D03*
X79400Y-47290D03*
X79550Y-48860D03*
X82690Y-43540D03*
X91970Y-34180D03*
X92000Y-37475D03*
X80100Y-33750D03*
G54D18*
X87360Y-42960D03*
G54D17*
X79050Y-40725D03*
X84050Y-49075D03*
X80540Y-48420D03*
X78970Y-46890D03*
X80670Y-45680D03*
X90460Y-48540D03*
X80455Y-44590D03*
X80450Y-43635D03*
X80085Y-43010D03*
X83920Y-47025D03*
X81862Y-41087D03*
X83420Y-42190D03*
X81725Y-42140D03*
X81600Y-41650D03*
X81855Y-43730D03*
X81920Y-46200D03*
X80430Y-41540D03*
X82740Y-45205D03*
X81505Y-44030D03*
X79560Y-41600D03*
G54D18*
X83055Y-46205D03*
G54D17*
X82280Y-47045D03*
X81660Y-43395D03*
X83095Y-44795D03*
X82030Y-47360D03*
X80785Y-41815D03*
X92175Y-34600D03*
X91475Y-40100D03*
X81570Y-39290D03*
X81710Y-45155D03*
X81250Y-42860D03*
X80850Y-44780D03*
X82240Y-45465D03*
X81800Y-44305D03*
X81175Y-40925D03*
G54D19*
X78200Y-41775D02*
X78835Y-41775D01*
X79050Y-41560D02*
X79050Y-40725D01*
X78835Y-41775D02*
X79050Y-41560D01*
X81430Y-46820D02*
X81430Y-47505D01*
X80670Y-46060D02*
X81430Y-46820D01*
X80670Y-45680D02*
X80670Y-46060D01*
X81675Y-47750D02*
X81850Y-47750D01*
X81430Y-47505D02*
X81675Y-47750D01*
X82260Y-47750D02*
X81850Y-47750D01*
X80865Y-42935D02*
X80870Y-42935D01*
X80870Y-42935D02*
X80865Y-42930D01*
X92425Y-34325D02*
X92425Y-36715D01*
X91970Y-34180D02*
X92280Y-34180D01*
X92280Y-34180D02*
X92425Y-34325D01*
X92425Y-36715D02*
X91770Y-37370D01*
X90170Y-41290D02*
X89870Y-41290D01*
X91770Y-37370D02*
X91040Y-37370D01*
X91040Y-37370D02*
X90860Y-37550D01*
X90860Y-37550D02*
X90860Y-40600D01*
X90860Y-40600D02*
X90170Y-41290D01*
X89870Y-41290D02*
X88190Y-41290D01*
X87360Y-42120D02*
X87360Y-42960D01*
X88190Y-41290D02*
X87360Y-42120D01*
X92000Y-37475D02*
X92000Y-37150D01*
X80800Y-37250D02*
X80340Y-37250D01*
X81650Y-36400D02*
X80800Y-37250D01*
X81650Y-34300D02*
X81650Y-36400D01*
X80850Y-33500D02*
X81650Y-34300D01*
X80350Y-33500D02*
X80850Y-33500D01*
X80100Y-33750D02*
X80350Y-33500D01*
X80075Y-40607D02*
X80075Y-41900D01*
X80075Y-41900D02*
X80300Y-42125D01*
X80300Y-42125D02*
X80725Y-42125D01*
X80725Y-42125D02*
X80865Y-42265D01*
X80865Y-42265D02*
X80865Y-42935D01*
X87000Y-46190D02*
X87000Y-43320D01*
X89350Y-48540D02*
X87000Y-46190D01*
X84930Y-42590D02*
X85660Y-43320D01*
X85660Y-43320D02*
X87000Y-43320D01*
X87000Y-43320D02*
X87360Y-42960D01*
X79167Y-40607D02*
X80075Y-40607D01*
X79050Y-40725D02*
X79167Y-40607D01*
X80075Y-40607D02*
X80082Y-40607D01*
X80480Y-37740D02*
X80480Y-40210D01*
X80340Y-37600D02*
X80480Y-37740D01*
X80340Y-37230D02*
X80340Y-37250D01*
X80340Y-37250D02*
X80340Y-37600D01*
X80480Y-40210D02*
X80082Y-40607D01*
X81850Y-47750D02*
X81850Y-48140D01*
X81630Y-48360D02*
X80600Y-48360D01*
X81850Y-48140D02*
X81630Y-48360D01*
X80600Y-48360D02*
X80540Y-48420D01*
X78715Y-37850D02*
X78715Y-37665D01*
X79150Y-37230D02*
X80340Y-37230D01*
X78715Y-37665D02*
X79150Y-37230D01*
X80455Y-44590D02*
X80455Y-45465D01*
X80455Y-45465D02*
X80670Y-45680D01*
X78970Y-46890D02*
X78980Y-46880D01*
X78980Y-46880D02*
X79110Y-46880D01*
X79110Y-46880D02*
X80310Y-45680D01*
X80310Y-45680D02*
X80670Y-45680D01*
X90460Y-48540D02*
X89350Y-48540D01*
X80450Y-43635D02*
X80450Y-44585D01*
X80450Y-44585D02*
X80455Y-44590D01*
X80085Y-43270D02*
X80085Y-43010D01*
X80450Y-43635D02*
X80085Y-43270D01*
X80160Y-42935D02*
X80865Y-42935D01*
X80085Y-43010D02*
X80160Y-42935D01*
G54D10*
G36*
X93110Y-47682D02*
X92965Y-48412D01*
X92829Y-48615D01*
X92829Y-41879D01*
X92829Y-39202D01*
X92784Y-39093D01*
X92701Y-39009D01*
X92592Y-38964D01*
X92473Y-38964D01*
X92435Y-38980D01*
X92435Y-34548D01*
X92395Y-34452D01*
X92322Y-34379D01*
X92226Y-34340D01*
X92123Y-34339D01*
X92027Y-34379D01*
X91954Y-34452D01*
X91915Y-34548D01*
X91914Y-34651D01*
X91954Y-34747D01*
X92027Y-34820D01*
X92123Y-34859D01*
X92226Y-34860D01*
X92322Y-34820D01*
X92395Y-34747D01*
X92434Y-34651D01*
X92435Y-34548D01*
X92435Y-38980D01*
X92364Y-39009D01*
X92280Y-39092D01*
X92235Y-39202D01*
X92235Y-39320D01*
X92280Y-39429D01*
X92364Y-39513D01*
X92473Y-39558D01*
X92591Y-39558D01*
X92700Y-39513D01*
X92784Y-39429D01*
X92829Y-39320D01*
X92829Y-39202D01*
X92829Y-41879D01*
X92784Y-41770D01*
X92701Y-41686D01*
X92592Y-41641D01*
X92473Y-41641D01*
X92364Y-41686D01*
X92280Y-41770D01*
X92235Y-41879D01*
X92235Y-41997D01*
X92280Y-42106D01*
X92364Y-42190D01*
X92473Y-42235D01*
X92591Y-42235D01*
X92700Y-42190D01*
X92784Y-42107D01*
X92829Y-41997D01*
X92829Y-41879D01*
X92829Y-48615D01*
X92575Y-48996D01*
X92575Y-45891D01*
X92522Y-45764D01*
X92425Y-45667D01*
X92310Y-45619D01*
X92310Y-44748D01*
X92270Y-44652D01*
X92197Y-44579D01*
X92101Y-44540D01*
X91998Y-44539D01*
X91902Y-44579D01*
X91829Y-44652D01*
X91790Y-44748D01*
X91789Y-44851D01*
X91829Y-44947D01*
X91902Y-45020D01*
X91998Y-45059D01*
X92101Y-45060D01*
X92197Y-45020D01*
X92270Y-44947D01*
X92309Y-44851D01*
X92310Y-44748D01*
X92310Y-45619D01*
X92298Y-45615D01*
X92161Y-45614D01*
X92034Y-45667D01*
X91937Y-45764D01*
X91885Y-45891D01*
X91884Y-46028D01*
X91937Y-46155D01*
X92034Y-46252D01*
X92161Y-46304D01*
X92298Y-46305D01*
X92425Y-46252D01*
X92522Y-46155D01*
X92574Y-46028D01*
X92575Y-45891D01*
X92575Y-48996D01*
X92564Y-49012D01*
X92135Y-49299D01*
X92135Y-46423D01*
X92095Y-46327D01*
X92022Y-46254D01*
X91926Y-46215D01*
X91823Y-46214D01*
X91735Y-46251D01*
X91735Y-40048D01*
X91695Y-39952D01*
X91622Y-39879D01*
X91526Y-39840D01*
X91423Y-39839D01*
X91327Y-39879D01*
X91254Y-39952D01*
X91215Y-40048D01*
X91214Y-40151D01*
X91254Y-40247D01*
X91327Y-40320D01*
X91423Y-40359D01*
X91526Y-40360D01*
X91622Y-40320D01*
X91695Y-40247D01*
X91734Y-40151D01*
X91735Y-40048D01*
X91735Y-46251D01*
X91727Y-46254D01*
X91654Y-46327D01*
X91615Y-46423D01*
X91614Y-46526D01*
X91654Y-46622D01*
X91727Y-46695D01*
X91823Y-46734D01*
X91926Y-46735D01*
X92022Y-46695D01*
X92095Y-46622D01*
X92134Y-46526D01*
X92135Y-46423D01*
X92135Y-49299D01*
X91959Y-49417D01*
X91236Y-49560D01*
X91130Y-49560D01*
X91130Y-34148D01*
X91090Y-34052D01*
X91017Y-33979D01*
X90921Y-33940D01*
X90818Y-33939D01*
X90722Y-33979D01*
X90649Y-34052D01*
X90610Y-34148D01*
X90609Y-34251D01*
X90649Y-34347D01*
X90722Y-34420D01*
X90818Y-34459D01*
X90921Y-34460D01*
X91017Y-34420D01*
X91090Y-34347D01*
X91129Y-34251D01*
X91130Y-34148D01*
X91130Y-49560D01*
X90710Y-49560D01*
X90710Y-43758D01*
X90670Y-43662D01*
X90597Y-43589D01*
X90501Y-43550D01*
X90398Y-43549D01*
X90310Y-43586D01*
X90310Y-36038D01*
X90270Y-35942D01*
X90197Y-35869D01*
X90101Y-35830D01*
X89998Y-35829D01*
X89902Y-35869D01*
X89829Y-35942D01*
X89790Y-36038D01*
X89789Y-36141D01*
X89829Y-36237D01*
X89902Y-36310D01*
X89998Y-36349D01*
X90101Y-36350D01*
X90197Y-36310D01*
X90270Y-36237D01*
X90309Y-36141D01*
X90310Y-36038D01*
X90310Y-43586D01*
X90302Y-43589D01*
X90229Y-43662D01*
X90190Y-43758D01*
X90189Y-43861D01*
X90229Y-43957D01*
X90302Y-44030D01*
X90398Y-44069D01*
X90501Y-44070D01*
X90597Y-44030D01*
X90670Y-43957D01*
X90709Y-43861D01*
X90710Y-43758D01*
X90710Y-49560D01*
X90660Y-49560D01*
X90660Y-46048D01*
X90620Y-45952D01*
X90547Y-45879D01*
X90451Y-45840D01*
X90348Y-45839D01*
X90252Y-45879D01*
X90179Y-45952D01*
X90140Y-46048D01*
X90139Y-46151D01*
X90179Y-46247D01*
X90252Y-46320D01*
X90348Y-46359D01*
X90451Y-46360D01*
X90547Y-46320D01*
X90620Y-46247D01*
X90659Y-46151D01*
X90660Y-46048D01*
X90660Y-49560D01*
X90470Y-49560D01*
X90470Y-46598D01*
X90430Y-46502D01*
X90357Y-46429D01*
X90261Y-46390D01*
X90158Y-46389D01*
X90062Y-46429D01*
X89989Y-46502D01*
X89950Y-46598D01*
X89949Y-46701D01*
X89989Y-46797D01*
X90062Y-46870D01*
X90158Y-46909D01*
X90261Y-46910D01*
X90357Y-46870D01*
X90430Y-46797D01*
X90469Y-46701D01*
X90470Y-46598D01*
X90470Y-49560D01*
X89610Y-49560D01*
X89610Y-45648D01*
X89570Y-45552D01*
X89497Y-45479D01*
X89401Y-45440D01*
X89298Y-45439D01*
X89202Y-45479D01*
X89129Y-45552D01*
X89090Y-45648D01*
X89089Y-45751D01*
X89129Y-45847D01*
X89202Y-45920D01*
X89298Y-45959D01*
X89401Y-45960D01*
X89497Y-45920D01*
X89570Y-45847D01*
X89609Y-45751D01*
X89610Y-45648D01*
X89610Y-49560D01*
X85650Y-49560D01*
X85596Y-49570D01*
X85551Y-49601D01*
X85520Y-49646D01*
X85510Y-49700D01*
X85510Y-52210D01*
X85385Y-52210D01*
X85385Y-44431D01*
X85332Y-44304D01*
X85235Y-44207D01*
X85108Y-44155D01*
X85098Y-44155D01*
X85225Y-44102D01*
X85322Y-44005D01*
X85374Y-43878D01*
X85375Y-43741D01*
X85322Y-43614D01*
X85225Y-43517D01*
X85170Y-43494D01*
X85175Y-43492D01*
X85272Y-43395D01*
X85324Y-43268D01*
X85325Y-43131D01*
X85272Y-43004D01*
X85175Y-42907D01*
X85048Y-42855D01*
X84911Y-42854D01*
X84784Y-42907D01*
X84687Y-43004D01*
X84635Y-43131D01*
X84634Y-43268D01*
X84687Y-43395D01*
X84784Y-43492D01*
X84839Y-43515D01*
X84834Y-43517D01*
X84737Y-43614D01*
X84685Y-43741D01*
X84684Y-43878D01*
X84737Y-44005D01*
X84834Y-44102D01*
X84961Y-44154D01*
X84971Y-44154D01*
X84844Y-44207D01*
X84747Y-44304D01*
X84695Y-44431D01*
X84694Y-44568D01*
X84747Y-44695D01*
X84844Y-44792D01*
X84913Y-44820D01*
X84824Y-44857D01*
X84727Y-44954D01*
X84675Y-45081D01*
X84674Y-45218D01*
X84727Y-45345D01*
X84824Y-45442D01*
X84951Y-45494D01*
X85088Y-45495D01*
X85215Y-45442D01*
X85312Y-45345D01*
X85364Y-45218D01*
X85365Y-45081D01*
X85312Y-44954D01*
X85215Y-44857D01*
X85146Y-44829D01*
X85235Y-44792D01*
X85332Y-44695D01*
X85384Y-44568D01*
X85385Y-44431D01*
X85385Y-52210D01*
X85045Y-52210D01*
X85045Y-49493D01*
X85005Y-49397D01*
X84932Y-49324D01*
X84836Y-49285D01*
X84733Y-49284D01*
X84637Y-49324D01*
X84564Y-49397D01*
X84525Y-49493D01*
X84524Y-49596D01*
X84564Y-49692D01*
X84637Y-49765D01*
X84733Y-49804D01*
X84836Y-49805D01*
X84932Y-49765D01*
X85005Y-49692D01*
X85044Y-49596D01*
X85045Y-49493D01*
X85045Y-52210D01*
X84625Y-52210D01*
X84625Y-49779D01*
X84460Y-49614D01*
X84460Y-42673D01*
X84420Y-42577D01*
X84347Y-42504D01*
X84251Y-42465D01*
X84148Y-42464D01*
X84052Y-42504D01*
X83979Y-42577D01*
X83940Y-42673D01*
X83939Y-42764D01*
X83898Y-42764D01*
X83802Y-42804D01*
X83729Y-42877D01*
X83690Y-42973D01*
X83689Y-43076D01*
X83729Y-43172D01*
X83802Y-43245D01*
X83898Y-43284D01*
X84001Y-43285D01*
X84097Y-43245D01*
X84170Y-43172D01*
X84209Y-43076D01*
X84210Y-42985D01*
X84251Y-42985D01*
X84347Y-42945D01*
X84420Y-42872D01*
X84459Y-42776D01*
X84460Y-42673D01*
X84460Y-49614D01*
X84400Y-49554D01*
X84400Y-45008D01*
X84368Y-44931D01*
X84309Y-44872D01*
X84231Y-44840D01*
X84148Y-44839D01*
X84071Y-44871D01*
X84012Y-44930D01*
X83980Y-45008D01*
X83979Y-45091D01*
X84011Y-45168D01*
X84070Y-45227D01*
X84148Y-45259D01*
X84231Y-45260D01*
X84308Y-45228D01*
X84367Y-45169D01*
X84399Y-45091D01*
X84400Y-45008D01*
X84400Y-49554D01*
X84375Y-49529D01*
X84375Y-47100D01*
X83680Y-47100D01*
X83680Y-42138D01*
X83640Y-42042D01*
X83567Y-41969D01*
X83471Y-41930D01*
X83380Y-41929D01*
X83380Y-41888D01*
X83340Y-41792D01*
X83267Y-41719D01*
X83171Y-41680D01*
X83068Y-41679D01*
X82972Y-41719D01*
X82899Y-41792D01*
X82860Y-41888D01*
X82859Y-41991D01*
X82899Y-42087D01*
X82972Y-42160D01*
X83068Y-42199D01*
X83159Y-42200D01*
X83159Y-42241D01*
X83199Y-42337D01*
X83272Y-42410D01*
X83368Y-42449D01*
X83471Y-42450D01*
X83567Y-42410D01*
X83640Y-42337D01*
X83679Y-42241D01*
X83680Y-42138D01*
X83680Y-47100D01*
X83355Y-47100D01*
X83355Y-44743D01*
X83315Y-44647D01*
X83242Y-44574D01*
X83146Y-44535D01*
X83043Y-44534D01*
X82947Y-44574D01*
X82874Y-44647D01*
X82835Y-44743D01*
X82834Y-44846D01*
X82874Y-44942D01*
X82947Y-45015D01*
X83043Y-45054D01*
X83146Y-45055D01*
X83242Y-45015D01*
X83315Y-44942D01*
X83354Y-44846D01*
X83355Y-44743D01*
X83355Y-47100D01*
X83354Y-47100D01*
X83265Y-47189D01*
X83265Y-46163D01*
X83233Y-46086D01*
X83174Y-46027D01*
X83096Y-45995D01*
X83013Y-45994D01*
X83000Y-46000D01*
X83000Y-45153D01*
X82960Y-45057D01*
X82887Y-44984D01*
X82791Y-44945D01*
X82725Y-44944D01*
X82725Y-42888D01*
X82685Y-42792D01*
X82612Y-42719D01*
X82516Y-42680D01*
X82413Y-42679D01*
X82317Y-42719D01*
X82244Y-42792D01*
X82205Y-42888D01*
X82204Y-42991D01*
X82244Y-43087D01*
X82317Y-43160D01*
X82413Y-43199D01*
X82516Y-43200D01*
X82612Y-43160D01*
X82685Y-43087D01*
X82724Y-42991D01*
X82725Y-42888D01*
X82725Y-44944D01*
X82688Y-44944D01*
X82592Y-44984D01*
X82519Y-45057D01*
X82480Y-45153D01*
X82479Y-45256D01*
X82519Y-45352D01*
X82592Y-45425D01*
X82688Y-45464D01*
X82791Y-45465D01*
X82887Y-45425D01*
X82960Y-45352D01*
X82999Y-45256D01*
X83000Y-45153D01*
X83000Y-46000D01*
X82936Y-46026D01*
X82877Y-46085D01*
X82845Y-46163D01*
X82844Y-46246D01*
X82876Y-46323D01*
X82935Y-46382D01*
X83013Y-46414D01*
X83096Y-46415D01*
X83173Y-46383D01*
X83232Y-46324D01*
X83264Y-46246D01*
X83265Y-46163D01*
X83265Y-47189D01*
X83204Y-47250D01*
X82475Y-47250D01*
X82475Y-47450D01*
X83270Y-47450D01*
X83420Y-47300D01*
X84150Y-47300D01*
X84150Y-49620D01*
X84400Y-49870D01*
X84400Y-52210D01*
X84060Y-52210D01*
X84060Y-49493D01*
X84020Y-49397D01*
X83947Y-49324D01*
X83851Y-49285D01*
X83748Y-49284D01*
X83652Y-49324D01*
X83579Y-49397D01*
X83540Y-49493D01*
X83539Y-49596D01*
X83579Y-49692D01*
X83652Y-49765D01*
X83748Y-49804D01*
X83851Y-49805D01*
X83947Y-49765D01*
X84020Y-49692D01*
X84059Y-49596D01*
X84060Y-49493D01*
X84060Y-52210D01*
X83605Y-52210D01*
X83605Y-51321D01*
X83605Y-51104D01*
X83605Y-50125D01*
X83605Y-49908D01*
X83573Y-49749D01*
X83483Y-49614D01*
X83348Y-49524D01*
X83190Y-49492D01*
X83031Y-49524D01*
X82896Y-49614D01*
X82806Y-49749D01*
X82774Y-49908D01*
X82774Y-50125D01*
X82806Y-50283D01*
X82896Y-50418D01*
X83031Y-50508D01*
X83190Y-50540D01*
X83348Y-50508D01*
X83483Y-50418D01*
X83573Y-50283D01*
X83605Y-50125D01*
X83605Y-51104D01*
X83573Y-50945D01*
X83483Y-50811D01*
X83348Y-50721D01*
X83190Y-50689D01*
X83031Y-50721D01*
X82896Y-50811D01*
X82806Y-50945D01*
X82774Y-51104D01*
X82774Y-51321D01*
X82806Y-51480D01*
X82896Y-51615D01*
X83031Y-51705D01*
X83190Y-51737D01*
X83348Y-51705D01*
X83483Y-51615D01*
X83573Y-51480D01*
X83605Y-51321D01*
X83605Y-52210D01*
X82700Y-52210D01*
X82700Y-48118D01*
X82660Y-48022D01*
X82587Y-47949D01*
X82491Y-47910D01*
X82388Y-47909D01*
X82292Y-47949D01*
X82219Y-48022D01*
X82180Y-48118D01*
X82179Y-48221D01*
X82219Y-48317D01*
X82292Y-48390D01*
X82388Y-48429D01*
X82491Y-48430D01*
X82587Y-48390D01*
X82660Y-48317D01*
X82699Y-48221D01*
X82700Y-48118D01*
X82700Y-52210D01*
X82605Y-52210D01*
X82605Y-51321D01*
X82605Y-51104D01*
X82605Y-50125D01*
X82605Y-49908D01*
X82573Y-49749D01*
X82483Y-49614D01*
X82348Y-49524D01*
X82190Y-49492D01*
X82031Y-49524D01*
X81896Y-49614D01*
X81806Y-49749D01*
X81774Y-49908D01*
X81774Y-50125D01*
X81806Y-50283D01*
X81896Y-50418D01*
X82031Y-50508D01*
X82190Y-50540D01*
X82348Y-50508D01*
X82483Y-50418D01*
X82573Y-50283D01*
X82605Y-50125D01*
X82605Y-51104D01*
X82573Y-50945D01*
X82483Y-50811D01*
X82348Y-50721D01*
X82190Y-50689D01*
X82031Y-50721D01*
X81896Y-50811D01*
X81806Y-50945D01*
X81774Y-51104D01*
X81774Y-51321D01*
X81806Y-51480D01*
X81896Y-51615D01*
X82031Y-51705D01*
X82190Y-51737D01*
X82348Y-51705D01*
X82483Y-51615D01*
X82573Y-51480D01*
X82605Y-51321D01*
X82605Y-52210D01*
X81640Y-52210D01*
X81640Y-47968D01*
X81600Y-47872D01*
X81527Y-47799D01*
X81431Y-47760D01*
X81328Y-47759D01*
X81232Y-47799D01*
X81159Y-47872D01*
X81120Y-47968D01*
X81119Y-48071D01*
X81159Y-48167D01*
X81232Y-48240D01*
X81328Y-48279D01*
X81431Y-48280D01*
X81527Y-48240D01*
X81600Y-48167D01*
X81639Y-48071D01*
X81640Y-47968D01*
X81640Y-52210D01*
X81605Y-52210D01*
X81605Y-51583D01*
X81605Y-50795D01*
X81605Y-50795D01*
X81605Y-50125D01*
X81605Y-49908D01*
X81573Y-49749D01*
X81483Y-49614D01*
X81348Y-49524D01*
X81190Y-49492D01*
X81106Y-49509D01*
X81129Y-49451D01*
X81130Y-49348D01*
X81090Y-49252D01*
X81017Y-49179D01*
X80921Y-49140D01*
X80818Y-49139D01*
X80722Y-49179D01*
X80649Y-49252D01*
X80610Y-49348D01*
X80609Y-49451D01*
X80649Y-49547D01*
X80722Y-49620D01*
X80818Y-49659D01*
X80865Y-49659D01*
X80806Y-49749D01*
X80774Y-49908D01*
X80774Y-50125D01*
X80806Y-50283D01*
X80896Y-50418D01*
X81031Y-50508D01*
X81190Y-50540D01*
X81348Y-50508D01*
X81483Y-50418D01*
X81573Y-50283D01*
X81605Y-50125D01*
X81605Y-50795D01*
X81587Y-50751D01*
X81553Y-50718D01*
X81509Y-50699D01*
X81461Y-50699D01*
X80870Y-50699D01*
X80826Y-50717D01*
X80793Y-50751D01*
X80774Y-50795D01*
X80774Y-50843D01*
X80774Y-51630D01*
X80792Y-51674D01*
X80826Y-51708D01*
X80870Y-51727D01*
X80918Y-51727D01*
X81509Y-51727D01*
X81553Y-51708D01*
X81586Y-51675D01*
X81605Y-51631D01*
X81605Y-51583D01*
X81605Y-52210D01*
X78765Y-52210D01*
X78325Y-52123D01*
X77967Y-51883D01*
X77726Y-51522D01*
X77639Y-51086D01*
X77639Y-47300D01*
X79170Y-47300D01*
X79370Y-47100D01*
X79900Y-47100D01*
X80329Y-47100D01*
X80579Y-47350D01*
X81500Y-47350D01*
X81500Y-47252D01*
X81542Y-47295D01*
X81638Y-47334D01*
X81741Y-47335D01*
X81770Y-47323D01*
X81769Y-47411D01*
X81809Y-47507D01*
X81882Y-47580D01*
X81978Y-47619D01*
X82081Y-47620D01*
X82177Y-47580D01*
X82250Y-47507D01*
X82289Y-47411D01*
X82290Y-47308D01*
X82288Y-47305D01*
X82331Y-47305D01*
X82427Y-47265D01*
X82500Y-47192D01*
X82539Y-47096D01*
X82540Y-46993D01*
X82500Y-46897D01*
X82500Y-46897D01*
X82500Y-45413D01*
X82460Y-45317D01*
X82387Y-45244D01*
X82291Y-45205D01*
X82188Y-45204D01*
X82122Y-45232D01*
X82122Y-41036D01*
X82083Y-40940D01*
X82009Y-40867D01*
X81914Y-40827D01*
X81830Y-40827D01*
X81830Y-39238D01*
X81790Y-39142D01*
X81717Y-39069D01*
X81621Y-39030D01*
X81518Y-39029D01*
X81422Y-39069D01*
X81349Y-39142D01*
X81310Y-39238D01*
X81309Y-39341D01*
X81349Y-39437D01*
X81422Y-39510D01*
X81518Y-39549D01*
X81621Y-39550D01*
X81717Y-39510D01*
X81790Y-39437D01*
X81829Y-39341D01*
X81830Y-39238D01*
X81830Y-40827D01*
X81811Y-40827D01*
X81715Y-40866D01*
X81642Y-40940D01*
X81602Y-41035D01*
X81602Y-41138D01*
X81641Y-41234D01*
X81715Y-41307D01*
X81810Y-41347D01*
X81913Y-41347D01*
X82009Y-41308D01*
X82082Y-41234D01*
X82122Y-41139D01*
X82122Y-41036D01*
X82122Y-45232D01*
X82115Y-45235D01*
X82115Y-43678D01*
X82075Y-43582D01*
X82002Y-43509D01*
X81985Y-43502D01*
X81985Y-42088D01*
X81945Y-41992D01*
X81872Y-41919D01*
X81776Y-41880D01*
X81724Y-41879D01*
X81747Y-41870D01*
X81820Y-41797D01*
X81859Y-41701D01*
X81860Y-41598D01*
X81820Y-41502D01*
X81747Y-41429D01*
X81651Y-41390D01*
X81548Y-41389D01*
X81452Y-41429D01*
X81435Y-41447D01*
X81435Y-40873D01*
X81395Y-40777D01*
X81322Y-40704D01*
X81226Y-40665D01*
X81130Y-40664D01*
X81130Y-36288D01*
X81090Y-36192D01*
X81017Y-36119D01*
X80921Y-36080D01*
X80818Y-36079D01*
X80722Y-36119D01*
X80649Y-36192D01*
X80610Y-36288D01*
X80609Y-36391D01*
X80649Y-36487D01*
X80722Y-36560D01*
X80818Y-36599D01*
X80921Y-36600D01*
X81017Y-36560D01*
X81090Y-36487D01*
X81129Y-36391D01*
X81130Y-36288D01*
X81130Y-40664D01*
X81123Y-40664D01*
X81027Y-40704D01*
X80954Y-40777D01*
X80915Y-40873D01*
X80914Y-40976D01*
X80954Y-41072D01*
X81027Y-41145D01*
X81123Y-41184D01*
X81226Y-41185D01*
X81322Y-41145D01*
X81395Y-41072D01*
X81434Y-40976D01*
X81435Y-40873D01*
X81435Y-41447D01*
X81379Y-41502D01*
X81340Y-41598D01*
X81339Y-41701D01*
X81379Y-41797D01*
X81452Y-41870D01*
X81548Y-41909D01*
X81600Y-41910D01*
X81577Y-41919D01*
X81504Y-41992D01*
X81465Y-42088D01*
X81464Y-42191D01*
X81504Y-42287D01*
X81577Y-42360D01*
X81673Y-42399D01*
X81776Y-42400D01*
X81872Y-42360D01*
X81945Y-42287D01*
X81984Y-42191D01*
X81985Y-42088D01*
X81985Y-43502D01*
X81909Y-43471D01*
X81919Y-43446D01*
X81920Y-43343D01*
X81880Y-43247D01*
X81807Y-43174D01*
X81711Y-43135D01*
X81608Y-43134D01*
X81512Y-43174D01*
X81510Y-43177D01*
X81510Y-42808D01*
X81470Y-42712D01*
X81435Y-42677D01*
X81435Y-42043D01*
X81395Y-41947D01*
X81322Y-41874D01*
X81226Y-41835D01*
X81123Y-41834D01*
X81044Y-41867D01*
X81044Y-41866D01*
X81045Y-41763D01*
X81005Y-41667D01*
X80932Y-41594D01*
X80836Y-41555D01*
X80733Y-41554D01*
X80689Y-41572D01*
X80690Y-41488D01*
X80650Y-41392D01*
X80577Y-41319D01*
X80481Y-41280D01*
X80378Y-41279D01*
X80336Y-41297D01*
X80336Y-38850D01*
X80336Y-37850D01*
X80304Y-37689D01*
X80213Y-37553D01*
X80077Y-37461D01*
X79916Y-37430D01*
X79709Y-37430D01*
X79548Y-37461D01*
X79412Y-37553D01*
X79321Y-37689D01*
X79289Y-37850D01*
X79321Y-38010D01*
X79412Y-38146D01*
X79548Y-38238D01*
X79709Y-38270D01*
X79916Y-38270D01*
X80077Y-38238D01*
X80213Y-38146D01*
X80304Y-38010D01*
X80336Y-37850D01*
X80336Y-38850D01*
X80304Y-38689D01*
X80213Y-38553D01*
X80077Y-38461D01*
X79916Y-38430D01*
X79709Y-38430D01*
X79548Y-38461D01*
X79412Y-38553D01*
X79321Y-38689D01*
X79289Y-38850D01*
X79321Y-39010D01*
X79412Y-39146D01*
X79548Y-39238D01*
X79709Y-39270D01*
X79916Y-39270D01*
X80077Y-39238D01*
X80213Y-39146D01*
X80304Y-39010D01*
X80336Y-38850D01*
X80336Y-41297D01*
X80326Y-41301D01*
X80326Y-40126D01*
X80326Y-39526D01*
X80308Y-39482D01*
X80274Y-39448D01*
X80230Y-39430D01*
X80182Y-39429D01*
X79395Y-39429D01*
X79351Y-39448D01*
X79317Y-39481D01*
X79299Y-39526D01*
X79299Y-39573D01*
X79299Y-40173D01*
X79317Y-40217D01*
X79351Y-40251D01*
X79395Y-40269D01*
X79443Y-40270D01*
X80230Y-40270D01*
X80274Y-40251D01*
X80308Y-40218D01*
X80326Y-40173D01*
X80326Y-40126D01*
X80326Y-41301D01*
X80282Y-41319D01*
X80209Y-41392D01*
X80170Y-41488D01*
X80169Y-41591D01*
X80209Y-41687D01*
X80282Y-41760D01*
X80378Y-41799D01*
X80481Y-41800D01*
X80525Y-41782D01*
X80524Y-41866D01*
X80564Y-41962D01*
X80637Y-42035D01*
X80733Y-42074D01*
X80836Y-42075D01*
X80915Y-42042D01*
X80915Y-42043D01*
X80914Y-42146D01*
X80954Y-42242D01*
X81027Y-42315D01*
X81123Y-42354D01*
X81226Y-42355D01*
X81322Y-42315D01*
X81395Y-42242D01*
X81434Y-42146D01*
X81435Y-42043D01*
X81435Y-42677D01*
X81397Y-42639D01*
X81301Y-42600D01*
X81198Y-42599D01*
X81102Y-42639D01*
X81029Y-42712D01*
X80990Y-42808D01*
X80989Y-42911D01*
X81029Y-43007D01*
X81102Y-43080D01*
X81198Y-43119D01*
X81301Y-43120D01*
X81397Y-43080D01*
X81470Y-43007D01*
X81509Y-42911D01*
X81510Y-42808D01*
X81510Y-43177D01*
X81439Y-43247D01*
X81432Y-43264D01*
X81412Y-43244D01*
X81316Y-43205D01*
X81213Y-43204D01*
X81117Y-43244D01*
X81044Y-43317D01*
X81005Y-43413D01*
X81004Y-43516D01*
X81044Y-43612D01*
X81117Y-43685D01*
X81213Y-43724D01*
X81316Y-43725D01*
X81412Y-43685D01*
X81485Y-43612D01*
X81492Y-43595D01*
X81512Y-43615D01*
X81605Y-43653D01*
X81595Y-43678D01*
X81594Y-43781D01*
X81597Y-43786D01*
X81556Y-43770D01*
X81453Y-43769D01*
X81357Y-43809D01*
X81284Y-43882D01*
X81245Y-43978D01*
X81244Y-44081D01*
X81284Y-44177D01*
X81357Y-44250D01*
X81453Y-44289D01*
X81540Y-44290D01*
X81539Y-44356D01*
X81579Y-44452D01*
X81652Y-44525D01*
X81748Y-44564D01*
X81851Y-44565D01*
X81947Y-44525D01*
X82020Y-44452D01*
X82059Y-44356D01*
X82060Y-44253D01*
X82020Y-44157D01*
X81947Y-44084D01*
X81851Y-44045D01*
X81764Y-44044D01*
X81765Y-43978D01*
X81762Y-43973D01*
X81803Y-43989D01*
X81906Y-43990D01*
X82002Y-43950D01*
X82075Y-43877D01*
X82114Y-43781D01*
X82115Y-43678D01*
X82115Y-45235D01*
X82092Y-45244D01*
X82019Y-45317D01*
X81980Y-45413D01*
X81979Y-45516D01*
X82019Y-45612D01*
X82092Y-45685D01*
X82188Y-45724D01*
X82291Y-45725D01*
X82387Y-45685D01*
X82460Y-45612D01*
X82499Y-45516D01*
X82500Y-45413D01*
X82500Y-46897D01*
X82427Y-46824D01*
X82331Y-46785D01*
X82228Y-46784D01*
X82180Y-46804D01*
X82180Y-46148D01*
X82140Y-46052D01*
X82067Y-45979D01*
X81971Y-45940D01*
X81970Y-45940D01*
X81970Y-45103D01*
X81930Y-45007D01*
X81857Y-44934D01*
X81761Y-44895D01*
X81658Y-44894D01*
X81562Y-44934D01*
X81489Y-45007D01*
X81450Y-45103D01*
X81449Y-45206D01*
X81489Y-45302D01*
X81562Y-45375D01*
X81658Y-45414D01*
X81761Y-45415D01*
X81857Y-45375D01*
X81930Y-45302D01*
X81969Y-45206D01*
X81970Y-45103D01*
X81970Y-45940D01*
X81868Y-45939D01*
X81772Y-45979D01*
X81699Y-46052D01*
X81660Y-46148D01*
X81659Y-46251D01*
X81699Y-46347D01*
X81772Y-46420D01*
X81868Y-46459D01*
X81971Y-46460D01*
X82067Y-46420D01*
X82140Y-46347D01*
X82179Y-46251D01*
X82180Y-46148D01*
X82180Y-46804D01*
X82132Y-46824D01*
X82059Y-46897D01*
X82020Y-46993D01*
X82019Y-47096D01*
X82021Y-47099D01*
X81978Y-47099D01*
X81949Y-47111D01*
X81950Y-47023D01*
X81910Y-46927D01*
X81837Y-46854D01*
X81741Y-46815D01*
X81638Y-46814D01*
X81542Y-46854D01*
X81469Y-46927D01*
X81430Y-47023D01*
X81429Y-47126D01*
X81439Y-47150D01*
X81110Y-47150D01*
X81110Y-44728D01*
X81070Y-44632D01*
X80997Y-44559D01*
X80901Y-44520D01*
X80798Y-44519D01*
X80702Y-44559D01*
X80629Y-44632D01*
X80590Y-44728D01*
X80589Y-44831D01*
X80629Y-44927D01*
X80702Y-45000D01*
X80798Y-45039D01*
X80901Y-45040D01*
X80997Y-45000D01*
X81070Y-44927D01*
X81109Y-44831D01*
X81110Y-44728D01*
X81110Y-47150D01*
X80645Y-47150D01*
X80395Y-46900D01*
X79925Y-46900D01*
X79279Y-46900D01*
X79130Y-47049D01*
X79130Y-45408D01*
X79090Y-45312D01*
X79017Y-45239D01*
X78921Y-45200D01*
X78818Y-45199D01*
X78722Y-45239D01*
X78649Y-45312D01*
X78610Y-45408D01*
X78609Y-45511D01*
X78649Y-45607D01*
X78722Y-45680D01*
X78818Y-45719D01*
X78921Y-45720D01*
X79017Y-45680D01*
X79090Y-45607D01*
X79129Y-45511D01*
X79130Y-45408D01*
X79130Y-47049D01*
X79079Y-47100D01*
X77639Y-47100D01*
X77639Y-42900D01*
X80095Y-42900D01*
X80820Y-42175D01*
X80504Y-42175D01*
X80029Y-42650D01*
X79820Y-42650D01*
X79820Y-41548D01*
X79780Y-41452D01*
X79707Y-41379D01*
X79611Y-41340D01*
X79508Y-41339D01*
X79412Y-41379D01*
X79339Y-41452D01*
X79300Y-41548D01*
X79299Y-41651D01*
X79339Y-41747D01*
X79412Y-41820D01*
X79508Y-41859D01*
X79611Y-41860D01*
X79707Y-41820D01*
X79780Y-41747D01*
X79819Y-41651D01*
X79820Y-41548D01*
X79820Y-42650D01*
X79243Y-42650D01*
X79243Y-37985D01*
X79243Y-37714D01*
X79237Y-37678D01*
X79131Y-37490D01*
X78961Y-37356D01*
X78753Y-37298D01*
X78667Y-37360D01*
X78667Y-37800D01*
X79195Y-37800D01*
X79243Y-37714D01*
X79243Y-37985D01*
X79195Y-37900D01*
X78667Y-37900D01*
X78667Y-38339D01*
X78753Y-38401D01*
X78961Y-38343D01*
X79131Y-38209D01*
X79237Y-38021D01*
X79243Y-37985D01*
X79243Y-42650D01*
X79140Y-42650D01*
X79140Y-39850D01*
X79140Y-38850D01*
X79108Y-38689D01*
X79017Y-38553D01*
X78881Y-38461D01*
X78720Y-38430D01*
X78567Y-38430D01*
X78567Y-38339D01*
X78567Y-37900D01*
X78567Y-37800D01*
X78567Y-37360D01*
X78480Y-37298D01*
X78272Y-37356D01*
X78102Y-37490D01*
X77996Y-37678D01*
X77990Y-37714D01*
X78038Y-37800D01*
X78567Y-37800D01*
X78567Y-37900D01*
X78038Y-37900D01*
X77990Y-37985D01*
X77996Y-38021D01*
X78102Y-38209D01*
X78272Y-38343D01*
X78480Y-38401D01*
X78567Y-38339D01*
X78567Y-38430D01*
X78513Y-38430D01*
X78352Y-38461D01*
X78216Y-38553D01*
X78125Y-38689D01*
X78093Y-38850D01*
X78125Y-39010D01*
X78216Y-39146D01*
X78352Y-39238D01*
X78513Y-39270D01*
X78720Y-39270D01*
X78881Y-39238D01*
X79017Y-39146D01*
X79108Y-39010D01*
X79140Y-38850D01*
X79140Y-39850D01*
X79108Y-39689D01*
X79017Y-39553D01*
X78881Y-39461D01*
X78720Y-39430D01*
X78513Y-39430D01*
X78352Y-39461D01*
X78216Y-39553D01*
X78125Y-39689D01*
X78093Y-39850D01*
X78125Y-40010D01*
X78216Y-40146D01*
X78352Y-40238D01*
X78513Y-40270D01*
X78720Y-40270D01*
X78881Y-40238D01*
X79017Y-40146D01*
X79108Y-40010D01*
X79140Y-39850D01*
X79140Y-42650D01*
X78717Y-42650D01*
X78720Y-42647D01*
X78759Y-42551D01*
X78760Y-42448D01*
X78720Y-42352D01*
X78647Y-42279D01*
X78551Y-42240D01*
X78448Y-42239D01*
X78405Y-42257D01*
X78405Y-41268D01*
X78365Y-41172D01*
X78292Y-41099D01*
X78196Y-41060D01*
X78093Y-41059D01*
X77997Y-41099D01*
X77924Y-41172D01*
X77885Y-41268D01*
X77884Y-41371D01*
X77924Y-41467D01*
X77997Y-41540D01*
X78093Y-41579D01*
X78196Y-41580D01*
X78292Y-41540D01*
X78365Y-41467D01*
X78404Y-41371D01*
X78405Y-41268D01*
X78405Y-42257D01*
X78352Y-42279D01*
X78279Y-42352D01*
X78240Y-42448D01*
X78239Y-42551D01*
X78279Y-42647D01*
X78282Y-42650D01*
X77639Y-42650D01*
X77639Y-33566D01*
X77743Y-33135D01*
X77997Y-32785D01*
X78366Y-32559D01*
X78808Y-32489D01*
X91236Y-32489D01*
X91959Y-32632D01*
X92564Y-33037D01*
X92965Y-33637D01*
X93110Y-34367D01*
X93110Y-47682D01*
X93110Y-47682D01*
G37*
G54D20*
X93110Y-47682D02*
X92965Y-48412D01*
X92829Y-48615D01*
X92829Y-41879D01*
X92829Y-39202D01*
X92784Y-39093D01*
X92701Y-39009D01*
X92592Y-38964D01*
X92473Y-38964D01*
X92435Y-38980D01*
X92435Y-34548D01*
X92395Y-34452D01*
X92322Y-34379D01*
X92226Y-34340D01*
X92123Y-34339D01*
X92027Y-34379D01*
X91954Y-34452D01*
X91915Y-34548D01*
X91914Y-34651D01*
X91954Y-34747D01*
X92027Y-34820D01*
X92123Y-34859D01*
X92226Y-34860D01*
X92322Y-34820D01*
X92395Y-34747D01*
X92434Y-34651D01*
X92435Y-34548D01*
X92435Y-38980D01*
X92364Y-39009D01*
X92280Y-39092D01*
X92235Y-39202D01*
X92235Y-39320D01*
X92280Y-39429D01*
X92364Y-39513D01*
X92473Y-39558D01*
X92591Y-39558D01*
X92700Y-39513D01*
X92784Y-39429D01*
X92829Y-39320D01*
X92829Y-39202D01*
X92829Y-41879D01*
X92784Y-41770D01*
X92701Y-41686D01*
X92592Y-41641D01*
X92473Y-41641D01*
X92364Y-41686D01*
X92280Y-41770D01*
X92235Y-41879D01*
X92235Y-41997D01*
X92280Y-42106D01*
X92364Y-42190D01*
X92473Y-42235D01*
X92591Y-42235D01*
X92700Y-42190D01*
X92784Y-42107D01*
X92829Y-41997D01*
X92829Y-41879D01*
X92829Y-48615D01*
X92575Y-48996D01*
X92575Y-45891D01*
X92522Y-45764D01*
X92425Y-45667D01*
X92310Y-45619D01*
X92310Y-44748D01*
X92270Y-44652D01*
X92197Y-44579D01*
X92101Y-44540D01*
X91998Y-44539D01*
X91902Y-44579D01*
X91829Y-44652D01*
X91790Y-44748D01*
X91789Y-44851D01*
X91829Y-44947D01*
X91902Y-45020D01*
X91998Y-45059D01*
X92101Y-45060D01*
X92197Y-45020D01*
X92270Y-44947D01*
X92309Y-44851D01*
X92310Y-44748D01*
X92310Y-45619D01*
X92298Y-45615D01*
X92161Y-45614D01*
X92034Y-45667D01*
X91937Y-45764D01*
X91885Y-45891D01*
X91884Y-46028D01*
X91937Y-46155D01*
X92034Y-46252D01*
X92161Y-46304D01*
X92298Y-46305D01*
X92425Y-46252D01*
X92522Y-46155D01*
X92574Y-46028D01*
X92575Y-45891D01*
X92575Y-48996D01*
X92564Y-49012D01*
X92135Y-49299D01*
X92135Y-46423D01*
X92095Y-46327D01*
X92022Y-46254D01*
X91926Y-46215D01*
X91823Y-46214D01*
X91735Y-46251D01*
X91735Y-40048D01*
X91695Y-39952D01*
X91622Y-39879D01*
X91526Y-39840D01*
X91423Y-39839D01*
X91327Y-39879D01*
X91254Y-39952D01*
X91215Y-40048D01*
X91214Y-40151D01*
X91254Y-40247D01*
X91327Y-40320D01*
X91423Y-40359D01*
X91526Y-40360D01*
X91622Y-40320D01*
X91695Y-40247D01*
X91734Y-40151D01*
X91735Y-40048D01*
X91735Y-46251D01*
X91727Y-46254D01*
X91654Y-46327D01*
X91615Y-46423D01*
X91614Y-46526D01*
X91654Y-46622D01*
X91727Y-46695D01*
X91823Y-46734D01*
X91926Y-46735D01*
X92022Y-46695D01*
X92095Y-46622D01*
X92134Y-46526D01*
X92135Y-46423D01*
X92135Y-49299D01*
X91959Y-49417D01*
X91236Y-49560D01*
X91130Y-49560D01*
X91130Y-34148D01*
X91090Y-34052D01*
X91017Y-33979D01*
X90921Y-33940D01*
X90818Y-33939D01*
X90722Y-33979D01*
X90649Y-34052D01*
X90610Y-34148D01*
X90609Y-34251D01*
X90649Y-34347D01*
X90722Y-34420D01*
X90818Y-34459D01*
X90921Y-34460D01*
X91017Y-34420D01*
X91090Y-34347D01*
X91129Y-34251D01*
X91130Y-34148D01*
X91130Y-49560D01*
X90710Y-49560D01*
X90710Y-43758D01*
X90670Y-43662D01*
X90597Y-43589D01*
X90501Y-43550D01*
X90398Y-43549D01*
X90310Y-43586D01*
X90310Y-36038D01*
X90270Y-35942D01*
X90197Y-35869D01*
X90101Y-35830D01*
X89998Y-35829D01*
X89902Y-35869D01*
X89829Y-35942D01*
X89790Y-36038D01*
X89789Y-36141D01*
X89829Y-36237D01*
X89902Y-36310D01*
X89998Y-36349D01*
X90101Y-36350D01*
X90197Y-36310D01*
X90270Y-36237D01*
X90309Y-36141D01*
X90310Y-36038D01*
X90310Y-43586D01*
X90302Y-43589D01*
X90229Y-43662D01*
X90190Y-43758D01*
X90189Y-43861D01*
X90229Y-43957D01*
X90302Y-44030D01*
X90398Y-44069D01*
X90501Y-44070D01*
X90597Y-44030D01*
X90670Y-43957D01*
X90709Y-43861D01*
X90710Y-43758D01*
X90710Y-49560D01*
X90660Y-49560D01*
X90660Y-46048D01*
X90620Y-45952D01*
X90547Y-45879D01*
X90451Y-45840D01*
X90348Y-45839D01*
X90252Y-45879D01*
X90179Y-45952D01*
X90140Y-46048D01*
X90139Y-46151D01*
X90179Y-46247D01*
X90252Y-46320D01*
X90348Y-46359D01*
X90451Y-46360D01*
X90547Y-46320D01*
X90620Y-46247D01*
X90659Y-46151D01*
X90660Y-46048D01*
X90660Y-49560D01*
X90470Y-49560D01*
X90470Y-46598D01*
X90430Y-46502D01*
X90357Y-46429D01*
X90261Y-46390D01*
X90158Y-46389D01*
X90062Y-46429D01*
X89989Y-46502D01*
X89950Y-46598D01*
X89949Y-46701D01*
X89989Y-46797D01*
X90062Y-46870D01*
X90158Y-46909D01*
X90261Y-46910D01*
X90357Y-46870D01*
X90430Y-46797D01*
X90469Y-46701D01*
X90470Y-46598D01*
X90470Y-49560D01*
X89610Y-49560D01*
X89610Y-45648D01*
X89570Y-45552D01*
X89497Y-45479D01*
X89401Y-45440D01*
X89298Y-45439D01*
X89202Y-45479D01*
X89129Y-45552D01*
X89090Y-45648D01*
X89089Y-45751D01*
X89129Y-45847D01*
X89202Y-45920D01*
X89298Y-45959D01*
X89401Y-45960D01*
X89497Y-45920D01*
X89570Y-45847D01*
X89609Y-45751D01*
X89610Y-45648D01*
X89610Y-49560D01*
X85650Y-49560D01*
X85596Y-49570D01*
X85551Y-49601D01*
X85520Y-49646D01*
X85510Y-49700D01*
X85510Y-52210D01*
X85385Y-52210D01*
X85385Y-44431D01*
X85332Y-44304D01*
X85235Y-44207D01*
X85108Y-44155D01*
X85098Y-44155D01*
X85225Y-44102D01*
X85322Y-44005D01*
X85374Y-43878D01*
X85375Y-43741D01*
X85322Y-43614D01*
X85225Y-43517D01*
X85170Y-43494D01*
X85175Y-43492D01*
X85272Y-43395D01*
X85324Y-43268D01*
X85325Y-43131D01*
X85272Y-43004D01*
X85175Y-42907D01*
X85048Y-42855D01*
X84911Y-42854D01*
X84784Y-42907D01*
X84687Y-43004D01*
X84635Y-43131D01*
X84634Y-43268D01*
X84687Y-43395D01*
X84784Y-43492D01*
X84839Y-43515D01*
X84834Y-43517D01*
X84737Y-43614D01*
X84685Y-43741D01*
X84684Y-43878D01*
X84737Y-44005D01*
X84834Y-44102D01*
X84961Y-44154D01*
X84971Y-44154D01*
X84844Y-44207D01*
X84747Y-44304D01*
X84695Y-44431D01*
X84694Y-44568D01*
X84747Y-44695D01*
X84844Y-44792D01*
X84913Y-44820D01*
X84824Y-44857D01*
X84727Y-44954D01*
X84675Y-45081D01*
X84674Y-45218D01*
X84727Y-45345D01*
X84824Y-45442D01*
X84951Y-45494D01*
X85088Y-45495D01*
X85215Y-45442D01*
X85312Y-45345D01*
X85364Y-45218D01*
X85365Y-45081D01*
X85312Y-44954D01*
X85215Y-44857D01*
X85146Y-44829D01*
X85235Y-44792D01*
X85332Y-44695D01*
X85384Y-44568D01*
X85385Y-44431D01*
X85385Y-52210D01*
X85045Y-52210D01*
X85045Y-49493D01*
X85005Y-49397D01*
X84932Y-49324D01*
X84836Y-49285D01*
X84733Y-49284D01*
X84637Y-49324D01*
X84564Y-49397D01*
X84525Y-49493D01*
X84524Y-49596D01*
X84564Y-49692D01*
X84637Y-49765D01*
X84733Y-49804D01*
X84836Y-49805D01*
X84932Y-49765D01*
X85005Y-49692D01*
X85044Y-49596D01*
X85045Y-49493D01*
X85045Y-52210D01*
X84625Y-52210D01*
X84625Y-49779D01*
X84460Y-49614D01*
X84460Y-42673D01*
X84420Y-42577D01*
X84347Y-42504D01*
X84251Y-42465D01*
X84148Y-42464D01*
X84052Y-42504D01*
X83979Y-42577D01*
X83940Y-42673D01*
X83939Y-42764D01*
X83898Y-42764D01*
X83802Y-42804D01*
X83729Y-42877D01*
X83690Y-42973D01*
X83689Y-43076D01*
X83729Y-43172D01*
X83802Y-43245D01*
X83898Y-43284D01*
X84001Y-43285D01*
X84097Y-43245D01*
X84170Y-43172D01*
X84209Y-43076D01*
X84210Y-42985D01*
X84251Y-42985D01*
X84347Y-42945D01*
X84420Y-42872D01*
X84459Y-42776D01*
X84460Y-42673D01*
X84460Y-49614D01*
X84400Y-49554D01*
X84400Y-45008D01*
X84368Y-44931D01*
X84309Y-44872D01*
X84231Y-44840D01*
X84148Y-44839D01*
X84071Y-44871D01*
X84012Y-44930D01*
X83980Y-45008D01*
X83979Y-45091D01*
X84011Y-45168D01*
X84070Y-45227D01*
X84148Y-45259D01*
X84231Y-45260D01*
X84308Y-45228D01*
X84367Y-45169D01*
X84399Y-45091D01*
X84400Y-45008D01*
X84400Y-49554D01*
X84375Y-49529D01*
X84375Y-47100D01*
X83680Y-47100D01*
X83680Y-42138D01*
X83640Y-42042D01*
X83567Y-41969D01*
X83471Y-41930D01*
X83380Y-41929D01*
X83380Y-41888D01*
X83340Y-41792D01*
X83267Y-41719D01*
X83171Y-41680D01*
X83068Y-41679D01*
X82972Y-41719D01*
X82899Y-41792D01*
X82860Y-41888D01*
X82859Y-41991D01*
X82899Y-42087D01*
X82972Y-42160D01*
X83068Y-42199D01*
X83159Y-42200D01*
X83159Y-42241D01*
X83199Y-42337D01*
X83272Y-42410D01*
X83368Y-42449D01*
X83471Y-42450D01*
X83567Y-42410D01*
X83640Y-42337D01*
X83679Y-42241D01*
X83680Y-42138D01*
X83680Y-47100D01*
X83355Y-47100D01*
X83355Y-44743D01*
X83315Y-44647D01*
X83242Y-44574D01*
X83146Y-44535D01*
X83043Y-44534D01*
X82947Y-44574D01*
X82874Y-44647D01*
X82835Y-44743D01*
X82834Y-44846D01*
X82874Y-44942D01*
X82947Y-45015D01*
X83043Y-45054D01*
X83146Y-45055D01*
X83242Y-45015D01*
X83315Y-44942D01*
X83354Y-44846D01*
X83355Y-44743D01*
X83355Y-47100D01*
X83354Y-47100D01*
X83265Y-47189D01*
X83265Y-46163D01*
X83233Y-46086D01*
X83174Y-46027D01*
X83096Y-45995D01*
X83013Y-45994D01*
X83000Y-46000D01*
X83000Y-45153D01*
X82960Y-45057D01*
X82887Y-44984D01*
X82791Y-44945D01*
X82725Y-44944D01*
X82725Y-42888D01*
X82685Y-42792D01*
X82612Y-42719D01*
X82516Y-42680D01*
X82413Y-42679D01*
X82317Y-42719D01*
X82244Y-42792D01*
X82205Y-42888D01*
X82204Y-42991D01*
X82244Y-43087D01*
X82317Y-43160D01*
X82413Y-43199D01*
X82516Y-43200D01*
X82612Y-43160D01*
X82685Y-43087D01*
X82724Y-42991D01*
X82725Y-42888D01*
X82725Y-44944D01*
X82688Y-44944D01*
X82592Y-44984D01*
X82519Y-45057D01*
X82480Y-45153D01*
X82479Y-45256D01*
X82519Y-45352D01*
X82592Y-45425D01*
X82688Y-45464D01*
X82791Y-45465D01*
X82887Y-45425D01*
X82960Y-45352D01*
X82999Y-45256D01*
X83000Y-45153D01*
X83000Y-46000D01*
X82936Y-46026D01*
X82877Y-46085D01*
X82845Y-46163D01*
X82844Y-46246D01*
X82876Y-46323D01*
X82935Y-46382D01*
X83013Y-46414D01*
X83096Y-46415D01*
X83173Y-46383D01*
X83232Y-46324D01*
X83264Y-46246D01*
X83265Y-46163D01*
X83265Y-47189D01*
X83204Y-47250D01*
X82475Y-47250D01*
X82475Y-47450D01*
X83270Y-47450D01*
X83420Y-47300D01*
X84150Y-47300D01*
X84150Y-49620D01*
X84400Y-49870D01*
X84400Y-52210D01*
X84060Y-52210D01*
X84060Y-49493D01*
X84020Y-49397D01*
X83947Y-49324D01*
X83851Y-49285D01*
X83748Y-49284D01*
X83652Y-49324D01*
X83579Y-49397D01*
X83540Y-49493D01*
X83539Y-49596D01*
X83579Y-49692D01*
X83652Y-49765D01*
X83748Y-49804D01*
X83851Y-49805D01*
X83947Y-49765D01*
X84020Y-49692D01*
X84059Y-49596D01*
X84060Y-49493D01*
X84060Y-52210D01*
X83605Y-52210D01*
X83605Y-51321D01*
X83605Y-51104D01*
X83605Y-50125D01*
X83605Y-49908D01*
X83573Y-49749D01*
X83483Y-49614D01*
X83348Y-49524D01*
X83190Y-49492D01*
X83031Y-49524D01*
X82896Y-49614D01*
X82806Y-49749D01*
X82774Y-49908D01*
X82774Y-50125D01*
X82806Y-50283D01*
X82896Y-50418D01*
X83031Y-50508D01*
X83190Y-50540D01*
X83348Y-50508D01*
X83483Y-50418D01*
X83573Y-50283D01*
X83605Y-50125D01*
X83605Y-51104D01*
X83573Y-50945D01*
X83483Y-50811D01*
X83348Y-50721D01*
X83190Y-50689D01*
X83031Y-50721D01*
X82896Y-50811D01*
X82806Y-50945D01*
X82774Y-51104D01*
X82774Y-51321D01*
X82806Y-51480D01*
X82896Y-51615D01*
X83031Y-51705D01*
X83190Y-51737D01*
X83348Y-51705D01*
X83483Y-51615D01*
X83573Y-51480D01*
X83605Y-51321D01*
X83605Y-52210D01*
X82700Y-52210D01*
X82700Y-48118D01*
X82660Y-48022D01*
X82587Y-47949D01*
X82491Y-47910D01*
X82388Y-47909D01*
X82292Y-47949D01*
X82219Y-48022D01*
X82180Y-48118D01*
X82179Y-48221D01*
X82219Y-48317D01*
X82292Y-48390D01*
X82388Y-48429D01*
X82491Y-48430D01*
X82587Y-48390D01*
X82660Y-48317D01*
X82699Y-48221D01*
X82700Y-48118D01*
X82700Y-52210D01*
X82605Y-52210D01*
X82605Y-51321D01*
X82605Y-51104D01*
X82605Y-50125D01*
X82605Y-49908D01*
X82573Y-49749D01*
X82483Y-49614D01*
X82348Y-49524D01*
X82190Y-49492D01*
X82031Y-49524D01*
X81896Y-49614D01*
X81806Y-49749D01*
X81774Y-49908D01*
X81774Y-50125D01*
X81806Y-50283D01*
X81896Y-50418D01*
X82031Y-50508D01*
X82190Y-50540D01*
X82348Y-50508D01*
X82483Y-50418D01*
X82573Y-50283D01*
X82605Y-50125D01*
X82605Y-51104D01*
X82573Y-50945D01*
X82483Y-50811D01*
X82348Y-50721D01*
X82190Y-50689D01*
X82031Y-50721D01*
X81896Y-50811D01*
X81806Y-50945D01*
X81774Y-51104D01*
X81774Y-51321D01*
X81806Y-51480D01*
X81896Y-51615D01*
X82031Y-51705D01*
X82190Y-51737D01*
X82348Y-51705D01*
X82483Y-51615D01*
X82573Y-51480D01*
X82605Y-51321D01*
X82605Y-52210D01*
X81640Y-52210D01*
X81640Y-47968D01*
X81600Y-47872D01*
X81527Y-47799D01*
X81431Y-47760D01*
X81328Y-47759D01*
X81232Y-47799D01*
X81159Y-47872D01*
X81120Y-47968D01*
X81119Y-48071D01*
X81159Y-48167D01*
X81232Y-48240D01*
X81328Y-48279D01*
X81431Y-48280D01*
X81527Y-48240D01*
X81600Y-48167D01*
X81639Y-48071D01*
X81640Y-47968D01*
X81640Y-52210D01*
X81605Y-52210D01*
X81605Y-51583D01*
X81605Y-50795D01*
X81605Y-50795D01*
X81605Y-50125D01*
X81605Y-49908D01*
X81573Y-49749D01*
X81483Y-49614D01*
X81348Y-49524D01*
X81190Y-49492D01*
X81106Y-49509D01*
X81129Y-49451D01*
X81130Y-49348D01*
X81090Y-49252D01*
X81017Y-49179D01*
X80921Y-49140D01*
X80818Y-49139D01*
X80722Y-49179D01*
X80649Y-49252D01*
X80610Y-49348D01*
X80609Y-49451D01*
X80649Y-49547D01*
X80722Y-49620D01*
X80818Y-49659D01*
X80865Y-49659D01*
X80806Y-49749D01*
X80774Y-49908D01*
X80774Y-50125D01*
X80806Y-50283D01*
X80896Y-50418D01*
X81031Y-50508D01*
X81190Y-50540D01*
X81348Y-50508D01*
X81483Y-50418D01*
X81573Y-50283D01*
X81605Y-50125D01*
X81605Y-50795D01*
X81587Y-50751D01*
X81553Y-50718D01*
X81509Y-50699D01*
X81461Y-50699D01*
X80870Y-50699D01*
X80826Y-50717D01*
X80793Y-50751D01*
X80774Y-50795D01*
X80774Y-50843D01*
X80774Y-51630D01*
X80792Y-51674D01*
X80826Y-51708D01*
X80870Y-51727D01*
X80918Y-51727D01*
X81509Y-51727D01*
X81553Y-51708D01*
X81586Y-51675D01*
X81605Y-51631D01*
X81605Y-51583D01*
X81605Y-52210D01*
X78765Y-52210D01*
X78325Y-52123D01*
X77967Y-51883D01*
X77726Y-51522D01*
X77639Y-51086D01*
X77639Y-47300D01*
X79170Y-47300D01*
X79370Y-47100D01*
X79900Y-47100D01*
X80329Y-47100D01*
X80579Y-47350D01*
X81500Y-47350D01*
X81500Y-47252D01*
X81542Y-47295D01*
X81638Y-47334D01*
X81741Y-47335D01*
X81770Y-47323D01*
X81769Y-47411D01*
X81809Y-47507D01*
X81882Y-47580D01*
X81978Y-47619D01*
X82081Y-47620D01*
X82177Y-47580D01*
X82250Y-47507D01*
X82289Y-47411D01*
X82290Y-47308D01*
X82288Y-47305D01*
X82331Y-47305D01*
X82427Y-47265D01*
X82500Y-47192D01*
X82539Y-47096D01*
X82540Y-46993D01*
X82500Y-46897D01*
X82500Y-46897D01*
X82500Y-45413D01*
X82460Y-45317D01*
X82387Y-45244D01*
X82291Y-45205D01*
X82188Y-45204D01*
X82122Y-45232D01*
X82122Y-41036D01*
X82083Y-40940D01*
X82009Y-40867D01*
X81914Y-40827D01*
X81830Y-40827D01*
X81830Y-39238D01*
X81790Y-39142D01*
X81717Y-39069D01*
X81621Y-39030D01*
X81518Y-39029D01*
X81422Y-39069D01*
X81349Y-39142D01*
X81310Y-39238D01*
X81309Y-39341D01*
X81349Y-39437D01*
X81422Y-39510D01*
X81518Y-39549D01*
X81621Y-39550D01*
X81717Y-39510D01*
X81790Y-39437D01*
X81829Y-39341D01*
X81830Y-39238D01*
X81830Y-40827D01*
X81811Y-40827D01*
X81715Y-40866D01*
X81642Y-40940D01*
X81602Y-41035D01*
X81602Y-41138D01*
X81641Y-41234D01*
X81715Y-41307D01*
X81810Y-41347D01*
X81913Y-41347D01*
X82009Y-41308D01*
X82082Y-41234D01*
X82122Y-41139D01*
X82122Y-41036D01*
X82122Y-45232D01*
X82115Y-45235D01*
X82115Y-43678D01*
X82075Y-43582D01*
X82002Y-43509D01*
X81985Y-43502D01*
X81985Y-42088D01*
X81945Y-41992D01*
X81872Y-41919D01*
X81776Y-41880D01*
X81724Y-41879D01*
X81747Y-41870D01*
X81820Y-41797D01*
X81859Y-41701D01*
X81860Y-41598D01*
X81820Y-41502D01*
X81747Y-41429D01*
X81651Y-41390D01*
X81548Y-41389D01*
X81452Y-41429D01*
X81435Y-41447D01*
X81435Y-40873D01*
X81395Y-40777D01*
X81322Y-40704D01*
X81226Y-40665D01*
X81130Y-40664D01*
X81130Y-36288D01*
X81090Y-36192D01*
X81017Y-36119D01*
X80921Y-36080D01*
X80818Y-36079D01*
X80722Y-36119D01*
X80649Y-36192D01*
X80610Y-36288D01*
X80609Y-36391D01*
X80649Y-36487D01*
X80722Y-36560D01*
X80818Y-36599D01*
X80921Y-36600D01*
X81017Y-36560D01*
X81090Y-36487D01*
X81129Y-36391D01*
X81130Y-36288D01*
X81130Y-40664D01*
X81123Y-40664D01*
X81027Y-40704D01*
X80954Y-40777D01*
X80915Y-40873D01*
X80914Y-40976D01*
X80954Y-41072D01*
X81027Y-41145D01*
X81123Y-41184D01*
X81226Y-41185D01*
X81322Y-41145D01*
X81395Y-41072D01*
X81434Y-40976D01*
X81435Y-40873D01*
X81435Y-41447D01*
X81379Y-41502D01*
X81340Y-41598D01*
X81339Y-41701D01*
X81379Y-41797D01*
X81452Y-41870D01*
X81548Y-41909D01*
X81600Y-41910D01*
X81577Y-41919D01*
X81504Y-41992D01*
X81465Y-42088D01*
X81464Y-42191D01*
X81504Y-42287D01*
X81577Y-42360D01*
X81673Y-42399D01*
X81776Y-42400D01*
X81872Y-42360D01*
X81945Y-42287D01*
X81984Y-42191D01*
X81985Y-42088D01*
X81985Y-43502D01*
X81909Y-43471D01*
X81919Y-43446D01*
X81920Y-43343D01*
X81880Y-43247D01*
X81807Y-43174D01*
X81711Y-43135D01*
X81608Y-43134D01*
X81512Y-43174D01*
X81510Y-43177D01*
X81510Y-42808D01*
X81470Y-42712D01*
X81435Y-42677D01*
X81435Y-42043D01*
X81395Y-41947D01*
X81322Y-41874D01*
X81226Y-41835D01*
X81123Y-41834D01*
X81044Y-41867D01*
X81044Y-41866D01*
X81045Y-41763D01*
X81005Y-41667D01*
X80932Y-41594D01*
X80836Y-41555D01*
X80733Y-41554D01*
X80689Y-41572D01*
X80690Y-41488D01*
X80650Y-41392D01*
X80577Y-41319D01*
X80481Y-41280D01*
X80378Y-41279D01*
X80336Y-41297D01*
X80336Y-38850D01*
X80336Y-37850D01*
X80304Y-37689D01*
X80213Y-37553D01*
X80077Y-37461D01*
X79916Y-37430D01*
X79709Y-37430D01*
X79548Y-37461D01*
X79412Y-37553D01*
X79321Y-37689D01*
X79289Y-37850D01*
X79321Y-38010D01*
X79412Y-38146D01*
X79548Y-38238D01*
X79709Y-38270D01*
X79916Y-38270D01*
X80077Y-38238D01*
X80213Y-38146D01*
X80304Y-38010D01*
X80336Y-37850D01*
X80336Y-38850D01*
X80304Y-38689D01*
X80213Y-38553D01*
X80077Y-38461D01*
X79916Y-38430D01*
X79709Y-38430D01*
X79548Y-38461D01*
X79412Y-38553D01*
X79321Y-38689D01*
X79289Y-38850D01*
X79321Y-39010D01*
X79412Y-39146D01*
X79548Y-39238D01*
X79709Y-39270D01*
X79916Y-39270D01*
X80077Y-39238D01*
X80213Y-39146D01*
X80304Y-39010D01*
X80336Y-38850D01*
X80336Y-41297D01*
X80326Y-41301D01*
X80326Y-40126D01*
X80326Y-39526D01*
X80308Y-39482D01*
X80274Y-39448D01*
X80230Y-39430D01*
X80182Y-39429D01*
X79395Y-39429D01*
X79351Y-39448D01*
X79317Y-39481D01*
X79299Y-39526D01*
X79299Y-39573D01*
X79299Y-40173D01*
X79317Y-40217D01*
X79351Y-40251D01*
X79395Y-40269D01*
X79443Y-40270D01*
X80230Y-40270D01*
X80274Y-40251D01*
X80308Y-40218D01*
X80326Y-40173D01*
X80326Y-40126D01*
X80326Y-41301D01*
X80282Y-41319D01*
X80209Y-41392D01*
X80170Y-41488D01*
X80169Y-41591D01*
X80209Y-41687D01*
X80282Y-41760D01*
X80378Y-41799D01*
X80481Y-41800D01*
X80525Y-41782D01*
X80524Y-41866D01*
X80564Y-41962D01*
X80637Y-42035D01*
X80733Y-42074D01*
X80836Y-42075D01*
X80915Y-42042D01*
X80915Y-42043D01*
X80914Y-42146D01*
X80954Y-42242D01*
X81027Y-42315D01*
X81123Y-42354D01*
X81226Y-42355D01*
X81322Y-42315D01*
X81395Y-42242D01*
X81434Y-42146D01*
X81435Y-42043D01*
X81435Y-42677D01*
X81397Y-42639D01*
X81301Y-42600D01*
X81198Y-42599D01*
X81102Y-42639D01*
X81029Y-42712D01*
X80990Y-42808D01*
X80989Y-42911D01*
X81029Y-43007D01*
X81102Y-43080D01*
X81198Y-43119D01*
X81301Y-43120D01*
X81397Y-43080D01*
X81470Y-43007D01*
X81509Y-42911D01*
X81510Y-42808D01*
X81510Y-43177D01*
X81439Y-43247D01*
X81432Y-43264D01*
X81412Y-43244D01*
X81316Y-43205D01*
X81213Y-43204D01*
X81117Y-43244D01*
X81044Y-43317D01*
X81005Y-43413D01*
X81004Y-43516D01*
X81044Y-43612D01*
X81117Y-43685D01*
X81213Y-43724D01*
X81316Y-43725D01*
X81412Y-43685D01*
X81485Y-43612D01*
X81492Y-43595D01*
X81512Y-43615D01*
X81605Y-43653D01*
X81595Y-43678D01*
X81594Y-43781D01*
X81597Y-43786D01*
X81556Y-43770D01*
X81453Y-43769D01*
X81357Y-43809D01*
X81284Y-43882D01*
X81245Y-43978D01*
X81244Y-44081D01*
X81284Y-44177D01*
X81357Y-44250D01*
X81453Y-44289D01*
X81540Y-44290D01*
X81539Y-44356D01*
X81579Y-44452D01*
X81652Y-44525D01*
X81748Y-44564D01*
X81851Y-44565D01*
X81947Y-44525D01*
X82020Y-44452D01*
X82059Y-44356D01*
X82060Y-44253D01*
X82020Y-44157D01*
X81947Y-44084D01*
X81851Y-44045D01*
X81764Y-44044D01*
X81765Y-43978D01*
X81762Y-43973D01*
X81803Y-43989D01*
X81906Y-43990D01*
X82002Y-43950D01*
X82075Y-43877D01*
X82114Y-43781D01*
X82115Y-43678D01*
X82115Y-45235D01*
X82092Y-45244D01*
X82019Y-45317D01*
X81980Y-45413D01*
X81979Y-45516D01*
X82019Y-45612D01*
X82092Y-45685D01*
X82188Y-45724D01*
X82291Y-45725D01*
X82387Y-45685D01*
X82460Y-45612D01*
X82499Y-45516D01*
X82500Y-45413D01*
X82500Y-46897D01*
X82427Y-46824D01*
X82331Y-46785D01*
X82228Y-46784D01*
X82180Y-46804D01*
X82180Y-46148D01*
X82140Y-46052D01*
X82067Y-45979D01*
X81971Y-45940D01*
X81970Y-45940D01*
X81970Y-45103D01*
X81930Y-45007D01*
X81857Y-44934D01*
X81761Y-44895D01*
X81658Y-44894D01*
X81562Y-44934D01*
X81489Y-45007D01*
X81450Y-45103D01*
X81449Y-45206D01*
X81489Y-45302D01*
X81562Y-45375D01*
X81658Y-45414D01*
X81761Y-45415D01*
X81857Y-45375D01*
X81930Y-45302D01*
X81969Y-45206D01*
X81970Y-45103D01*
X81970Y-45940D01*
X81868Y-45939D01*
X81772Y-45979D01*
X81699Y-46052D01*
X81660Y-46148D01*
X81659Y-46251D01*
X81699Y-46347D01*
X81772Y-46420D01*
X81868Y-46459D01*
X81971Y-46460D01*
X82067Y-46420D01*
X82140Y-46347D01*
X82179Y-46251D01*
X82180Y-46148D01*
X82180Y-46804D01*
X82132Y-46824D01*
X82059Y-46897D01*
X82020Y-46993D01*
X82019Y-47096D01*
X82021Y-47099D01*
X81978Y-47099D01*
X81949Y-47111D01*
X81950Y-47023D01*
X81910Y-46927D01*
X81837Y-46854D01*
X81741Y-46815D01*
X81638Y-46814D01*
X81542Y-46854D01*
X81469Y-46927D01*
X81430Y-47023D01*
X81429Y-47126D01*
X81439Y-47150D01*
X81110Y-47150D01*
X81110Y-44728D01*
X81070Y-44632D01*
X80997Y-44559D01*
X80901Y-44520D01*
X80798Y-44519D01*
X80702Y-44559D01*
X80629Y-44632D01*
X80590Y-44728D01*
X80589Y-44831D01*
X80629Y-44927D01*
X80702Y-45000D01*
X80798Y-45039D01*
X80901Y-45040D01*
X80997Y-45000D01*
X81070Y-44927D01*
X81109Y-44831D01*
X81110Y-44728D01*
X81110Y-47150D01*
X80645Y-47150D01*
X80395Y-46900D01*
X79925Y-46900D01*
X79279Y-46900D01*
X79130Y-47049D01*
X79130Y-45408D01*
X79090Y-45312D01*
X79017Y-45239D01*
X78921Y-45200D01*
X78818Y-45199D01*
X78722Y-45239D01*
X78649Y-45312D01*
X78610Y-45408D01*
X78609Y-45511D01*
X78649Y-45607D01*
X78722Y-45680D01*
X78818Y-45719D01*
X78921Y-45720D01*
X79017Y-45680D01*
X79090Y-45607D01*
X79129Y-45511D01*
X79130Y-45408D01*
X79130Y-47049D01*
X79079Y-47100D01*
X77639Y-47100D01*
X77639Y-42900D01*
X80095Y-42900D01*
X80820Y-42175D01*
X80504Y-42175D01*
X80029Y-42650D01*
X79820Y-42650D01*
X79820Y-41548D01*
X79780Y-41452D01*
X79707Y-41379D01*
X79611Y-41340D01*
X79508Y-41339D01*
X79412Y-41379D01*
X79339Y-41452D01*
X79300Y-41548D01*
X79299Y-41651D01*
X79339Y-41747D01*
X79412Y-41820D01*
X79508Y-41859D01*
X79611Y-41860D01*
X79707Y-41820D01*
X79780Y-41747D01*
X79819Y-41651D01*
X79820Y-41548D01*
X79820Y-42650D01*
X79243Y-42650D01*
X79243Y-37985D01*
X79243Y-37714D01*
X79237Y-37678D01*
X79131Y-37490D01*
X78961Y-37356D01*
X78753Y-37298D01*
X78667Y-37360D01*
X78667Y-37800D01*
X79195Y-37800D01*
X79243Y-37714D01*
X79243Y-37985D01*
X79195Y-37900D01*
X78667Y-37900D01*
X78667Y-38339D01*
X78753Y-38401D01*
X78961Y-38343D01*
X79131Y-38209D01*
X79237Y-38021D01*
X79243Y-37985D01*
X79243Y-42650D01*
X79140Y-42650D01*
X79140Y-39850D01*
X79140Y-38850D01*
X79108Y-38689D01*
X79017Y-38553D01*
X78881Y-38461D01*
X78720Y-38430D01*
X78567Y-38430D01*
X78567Y-38339D01*
X78567Y-37900D01*
X78567Y-37800D01*
X78567Y-37360D01*
X78480Y-37298D01*
X78272Y-37356D01*
X78102Y-37490D01*
X77996Y-37678D01*
X77990Y-37714D01*
X78038Y-37800D01*
X78567Y-37800D01*
X78567Y-37900D01*
X78038Y-37900D01*
X77990Y-37985D01*
X77996Y-38021D01*
X78102Y-38209D01*
X78272Y-38343D01*
X78480Y-38401D01*
X78567Y-38339D01*
X78567Y-38430D01*
X78513Y-38430D01*
X78352Y-38461D01*
X78216Y-38553D01*
X78125Y-38689D01*
X78093Y-38850D01*
X78125Y-39010D01*
X78216Y-39146D01*
X78352Y-39238D01*
X78513Y-39270D01*
X78720Y-39270D01*
X78881Y-39238D01*
X79017Y-39146D01*
X79108Y-39010D01*
X79140Y-38850D01*
X79140Y-39850D01*
X79108Y-39689D01*
X79017Y-39553D01*
X78881Y-39461D01*
X78720Y-39430D01*
X78513Y-39430D01*
X78352Y-39461D01*
X78216Y-39553D01*
X78125Y-39689D01*
X78093Y-39850D01*
X78125Y-40010D01*
X78216Y-40146D01*
X78352Y-40238D01*
X78513Y-40270D01*
X78720Y-40270D01*
X78881Y-40238D01*
X79017Y-40146D01*
X79108Y-40010D01*
X79140Y-39850D01*
X79140Y-42650D01*
X78717Y-42650D01*
X78720Y-42647D01*
X78759Y-42551D01*
X78760Y-42448D01*
X78720Y-42352D01*
X78647Y-42279D01*
X78551Y-42240D01*
X78448Y-42239D01*
X78405Y-42257D01*
X78405Y-41268D01*
X78365Y-41172D01*
X78292Y-41099D01*
X78196Y-41060D01*
X78093Y-41059D01*
X77997Y-41099D01*
X77924Y-41172D01*
X77885Y-41268D01*
X77884Y-41371D01*
X77924Y-41467D01*
X77997Y-41540D01*
X78093Y-41579D01*
X78196Y-41580D01*
X78292Y-41540D01*
X78365Y-41467D01*
X78404Y-41371D01*
X78405Y-41268D01*
X78405Y-42257D01*
X78352Y-42279D01*
X78279Y-42352D01*
X78240Y-42448D01*
X78239Y-42551D01*
X78279Y-42647D01*
X78282Y-42650D01*
X77639Y-42650D01*
X77639Y-33566D01*
X77743Y-33135D01*
X77997Y-32785D01*
X78366Y-32559D01*
X78808Y-32489D01*
X91236Y-32489D01*
X91959Y-32632D01*
X92564Y-33037D01*
X92965Y-33637D01*
X93110Y-34367D01*
X93110Y-47682D01*
M02*
