M48
;DRILL file {Pcbnew (2013-05-31 BZR 4019)-stable} date 1/30/2014 2:25:16 PM
;FORMAT={-:-/ absolute / inch / decimal}
FMAT,2
INCH,TZ
T1C0.012
T2C0.025
T3C0.032
T4C0.035
T5C0.040
T6C0.125
%
G90
G05
M72
T1
X7.7775Y-5.045
X8.185Y-4.5775
X8.315Y-5.085
X8.315Y-5.215
X8.5325Y-4.6725
X8.5325Y-4.79
X8.63Y-4.605
X8.7275Y-4.855
X8.73Y-5.075
X8.73Y-5.12
X8.7725Y-5.2075
X8.98Y-5.395
X9.025Y-4.72
X9.11Y-5.
X9.1525Y-4.9025
X9.155Y-4.8325
X9.225Y-5.535
X9.265Y-5.625
X9.44Y-5.46
X9.5Y-5.22
X9.5Y-5.325
X9.595Y-4.9175
T2
X7.5025Y-4.975
X8.095Y-4.9275
X8.15Y-5.0675
X8.37Y-4.74
X8.426Y-5.332
X8.55Y-5.165
X8.83Y-4.99
X8.8425Y-5.435
X8.925Y-4.755
X8.955Y-5.2
X9.005Y-5.04
X9.035Y-4.595
X9.1375Y-4.6275
X9.253Y-4.888
X9.253Y-4.952
X9.317Y-4.888
X9.317Y-4.952
X9.325Y-5.555
X9.415Y-5.26
X9.525Y-5.055
X9.535Y-5.52
X9.65Y-4.765
T3
X7.635Y-4.39
X7.635Y-4.49
X7.635Y-6.29
X7.635Y-6.39
X7.735Y-4.39
X7.735Y-4.49
X7.735Y-6.29
X7.735Y-6.39
X7.835Y-4.39
X7.835Y-4.49
X7.835Y-6.29
X7.835Y-6.39
X7.935Y-4.39
X7.935Y-4.49
X7.935Y-6.29
X7.935Y-6.39
X8.035Y-4.39
X8.035Y-4.49
X8.035Y-6.29
X8.035Y-6.39
X8.135Y-4.39
X8.135Y-4.49
X8.135Y-6.29
X8.135Y-6.39
X8.235Y-4.39
X8.235Y-4.49
X8.235Y-6.29
X8.235Y-6.39
X8.335Y-4.39
X8.335Y-4.49
X8.335Y-6.29
X8.335Y-6.39
X8.435Y-4.39
X8.435Y-4.49
X8.435Y-6.29
X8.435Y-6.39
X8.535Y-4.39
X8.535Y-4.49
X8.535Y-6.29
X8.535Y-6.39
X8.635Y-4.39
X8.635Y-4.49
X8.635Y-6.29
X8.635Y-6.39
X8.735Y-4.39
X8.735Y-4.49
X8.735Y-6.29
X8.735Y-6.39
X8.835Y-4.39
X8.835Y-4.49
X8.835Y-6.29
X8.835Y-6.39
X8.935Y-4.39
X8.935Y-4.49
X8.935Y-6.29
X8.935Y-6.39
X9.035Y-4.39
X9.035Y-4.49
X9.035Y-6.29
X9.035Y-6.39
X9.135Y-4.39
X9.135Y-4.49
X9.135Y-6.29
X9.135Y-6.39
X9.235Y-4.39
X9.235Y-4.49
X9.235Y-6.29
X9.235Y-6.39
X9.335Y-4.39
X9.335Y-4.49
X9.335Y-6.29
X9.335Y-6.39
X9.435Y-4.39
X9.435Y-4.49
X9.435Y-6.29
X9.435Y-6.39
X9.535Y-4.39
X9.535Y-4.49
X9.535Y-6.29
X9.535Y-6.39
X9.635Y-4.39
X9.635Y-4.49
X9.635Y-6.29
X9.635Y-6.39
X9.735Y-4.39
X9.735Y-4.49
X9.735Y-6.29
X9.735Y-6.39
X9.835Y-4.49
X9.835Y-6.39
T4
X10.3965Y-4.7084
X10.3965Y-4.8816
T5
X9.835Y-4.39
X9.835Y-6.29
X9.93Y-4.635
X9.93Y-4.735
X10.03Y-4.635
X10.03Y-4.735
T6
X7.435Y-4.565
X7.435Y-6.215
X10.035Y-4.44
T0
M30
