G04 (created by PCBNEW (2013-05-31 BZR 4019)-stable) date 1/30/2014 2:02:55 PM*
%MOIN*%
G04 Gerber Fmt 3.4, Leading zero omitted, Abs format*
%FSLAX34Y34*%
G01*
G70*
G90*
G04 APERTURE LIST*
%ADD10C,0.00590551*%
%ADD11C,0.18*%
%ADD12R,0.065X0.065*%
%ADD13C,0.0512*%
%ADD14R,0.025X0.05*%
%ADD15R,0.05X0.025*%
%ADD16R,0.045X0.025*%
%ADD17C,0.045*%
%ADD18R,0.06X0.06*%
%ADD19C,0.06*%
%ADD20R,0.0393701X0.0354331*%
%ADD21C,0.0354*%
%ADD22R,0.0314X0.0314*%
G04 APERTURE END LIST*
G54D10*
G54D11*
X74350Y-45650D03*
X100350Y-44400D03*
X74350Y-62150D03*
G54D12*
X98350Y-43900D03*
G54D13*
X98350Y-44900D03*
X97350Y-43900D03*
X97350Y-44900D03*
X96350Y-43900D03*
X96350Y-44900D03*
X95350Y-43900D03*
X95350Y-44900D03*
X94350Y-43900D03*
X94350Y-44900D03*
X93350Y-43900D03*
X93350Y-44900D03*
X92350Y-43900D03*
X92350Y-44900D03*
X91350Y-43900D03*
X91350Y-44900D03*
X90350Y-43900D03*
X90350Y-44900D03*
X89350Y-43900D03*
X89350Y-44900D03*
X88350Y-43900D03*
X88350Y-44900D03*
X87350Y-43900D03*
X87350Y-44900D03*
X86350Y-43900D03*
X86350Y-44900D03*
X85350Y-43900D03*
X85350Y-44900D03*
X84350Y-43900D03*
X84350Y-44900D03*
X83350Y-43900D03*
X83350Y-44900D03*
X82350Y-43900D03*
X82350Y-44900D03*
X81350Y-43900D03*
X81350Y-44900D03*
X80350Y-43900D03*
X80350Y-44900D03*
X79350Y-43900D03*
X79350Y-44900D03*
X78350Y-43900D03*
X78350Y-44900D03*
X77350Y-43900D03*
X77350Y-44900D03*
X76350Y-43900D03*
X76350Y-44900D03*
G54D12*
X98350Y-62900D03*
G54D13*
X98350Y-63900D03*
X97350Y-62900D03*
X97350Y-63900D03*
X96350Y-62900D03*
X96350Y-63900D03*
X95350Y-62900D03*
X95350Y-63900D03*
X94350Y-62900D03*
X94350Y-63900D03*
X93350Y-62900D03*
X93350Y-63900D03*
X92350Y-62900D03*
X92350Y-63900D03*
X91350Y-62900D03*
X91350Y-63900D03*
X90350Y-62900D03*
X90350Y-63900D03*
X89350Y-62900D03*
X89350Y-63900D03*
X88350Y-62900D03*
X88350Y-63900D03*
X87350Y-62900D03*
X87350Y-63900D03*
X86350Y-62900D03*
X86350Y-63900D03*
X85350Y-62900D03*
X85350Y-63900D03*
X84350Y-62900D03*
X84350Y-63900D03*
X83350Y-62900D03*
X83350Y-63900D03*
X82350Y-62900D03*
X82350Y-63900D03*
X81350Y-62900D03*
X81350Y-63900D03*
X80350Y-62900D03*
X80350Y-63900D03*
X79350Y-62900D03*
X79350Y-63900D03*
X78350Y-62900D03*
X78350Y-63900D03*
X77350Y-62900D03*
X77350Y-63900D03*
X76350Y-62900D03*
X76350Y-63900D03*
G54D14*
X84627Y-52150D03*
X84273Y-52150D03*
X101777Y-47160D03*
X101423Y-47160D03*
G54D15*
X100390Y-48627D03*
X100390Y-48273D03*
G54D14*
X96677Y-46400D03*
X96323Y-46400D03*
G54D16*
X74425Y-49350D03*
X74425Y-48750D03*
X74425Y-50175D03*
X74425Y-50775D03*
G54D17*
X81500Y-50675D03*
X96500Y-47650D03*
X90350Y-45950D03*
X90050Y-50400D03*
X88300Y-49900D03*
X88425Y-54350D03*
X94150Y-52600D03*
X93250Y-55550D03*
G54D18*
X100300Y-47350D03*
G54D19*
X99300Y-47350D03*
X100300Y-46350D03*
X99300Y-46350D03*
G54D20*
X98586Y-59192D03*
X97956Y-59192D03*
X98586Y-60807D03*
X97956Y-60807D03*
X95986Y-59192D03*
X95356Y-59192D03*
X95986Y-60807D03*
X95356Y-60807D03*
G54D14*
X84627Y-50850D03*
X84273Y-50850D03*
X94080Y-56000D03*
X94400Y-56000D03*
X94720Y-56000D03*
G54D21*
X103965Y-47084D03*
X103965Y-48816D03*
G54D22*
X73450Y-50770D03*
X73450Y-50180D03*
X73450Y-48780D03*
X73450Y-49370D03*
G54D15*
X96200Y-54502D03*
X96200Y-54148D03*
M02*
