G04 (created by PCBNEW (2013-05-31 BZR 4019)-stable) date 7/22/2013 11:29:18 AM*
%MOIN*%
G04 Gerber Fmt 3.4, Leading zero omitted, Abs format*
%FSLAX34Y34*%
G01*
G70*
G90*
G04 APERTURE LIST*
%ADD10C,0.00590551*%
%ADD11C,0.0045*%
%ADD12C,0.00976378*%
%ADD13C,0.00787402*%
%ADD14C,0.011811*%
%ADD15C,0.005*%
%ADD16C,0.008*%
%ADD17C,0.0039*%
%ADD18C,0.012*%
%ADD19C,0.0026*%
%ADD20C,0.004*%
%ADD21C,0.006*%
%ADD22C,0.003*%
%ADD23C,0.0043*%
%ADD24C,0.0035*%
G04 APERTURE END LIST*
G54D10*
G54D11*
X-25697Y-4944D02*
X-25637Y-5039D01*
X-25594Y-4944D02*
X-25594Y-5144D01*
X-25662Y-5144D01*
X-25680Y-5134D01*
X-25688Y-5125D01*
X-25697Y-5105D01*
X-25697Y-5077D01*
X-25688Y-5058D01*
X-25680Y-5048D01*
X-25662Y-5039D01*
X-25594Y-5039D01*
X-25774Y-5048D02*
X-25834Y-5048D01*
X-25860Y-4944D02*
X-25774Y-4944D01*
X-25774Y-5144D01*
X-25860Y-5144D01*
X-25997Y-5048D02*
X-25937Y-5048D01*
X-25937Y-4944D02*
X-25937Y-5144D01*
X-26022Y-5144D01*
X-25439Y-11963D02*
X-25430Y-11953D01*
X-25405Y-11944D01*
X-25387Y-11944D01*
X-25362Y-11953D01*
X-25345Y-11972D01*
X-25336Y-11991D01*
X-25327Y-12029D01*
X-25327Y-12058D01*
X-25336Y-12096D01*
X-25345Y-12115D01*
X-25362Y-12134D01*
X-25387Y-12144D01*
X-25405Y-12144D01*
X-25430Y-12134D01*
X-25439Y-12125D01*
X-25516Y-11944D02*
X-25516Y-12144D01*
X-25516Y-12048D02*
X-25619Y-12048D01*
X-25619Y-11944D02*
X-25619Y-12144D01*
X-25782Y-12077D02*
X-25782Y-11944D01*
X-25739Y-12153D02*
X-25696Y-12010D01*
X-25807Y-12010D01*
X-25876Y-12020D02*
X-26013Y-12020D01*
X-25945Y-11944D02*
X-25945Y-12096D01*
X-25439Y-12938D02*
X-25430Y-12928D01*
X-25405Y-12919D01*
X-25387Y-12919D01*
X-25362Y-12928D01*
X-25345Y-12947D01*
X-25336Y-12966D01*
X-25327Y-13004D01*
X-25327Y-13033D01*
X-25336Y-13071D01*
X-25345Y-13090D01*
X-25362Y-13109D01*
X-25387Y-13119D01*
X-25405Y-13119D01*
X-25430Y-13109D01*
X-25439Y-13100D01*
X-25516Y-12919D02*
X-25516Y-13119D01*
X-25516Y-13023D02*
X-25619Y-13023D01*
X-25619Y-12919D02*
X-25619Y-13119D01*
X-25687Y-13119D02*
X-25799Y-13119D01*
X-25739Y-13042D01*
X-25765Y-13042D01*
X-25782Y-13033D01*
X-25790Y-13023D01*
X-25799Y-13004D01*
X-25799Y-12957D01*
X-25790Y-12938D01*
X-25782Y-12928D01*
X-25765Y-12919D01*
X-25713Y-12919D01*
X-25696Y-12928D01*
X-25687Y-12938D01*
X-25876Y-12995D02*
X-26013Y-12995D01*
X-25945Y-12919D02*
X-25945Y-13071D01*
X-25439Y-14913D02*
X-25430Y-14903D01*
X-25405Y-14894D01*
X-25387Y-14894D01*
X-25362Y-14903D01*
X-25345Y-14922D01*
X-25336Y-14941D01*
X-25327Y-14979D01*
X-25327Y-15008D01*
X-25336Y-15046D01*
X-25345Y-15065D01*
X-25362Y-15084D01*
X-25387Y-15094D01*
X-25405Y-15094D01*
X-25430Y-15084D01*
X-25439Y-15075D01*
X-25516Y-14894D02*
X-25516Y-15094D01*
X-25516Y-14998D02*
X-25619Y-14998D01*
X-25619Y-14894D02*
X-25619Y-15094D01*
X-25799Y-14894D02*
X-25696Y-14894D01*
X-25747Y-14894D02*
X-25747Y-15094D01*
X-25730Y-15065D01*
X-25713Y-15046D01*
X-25696Y-15036D01*
X-25876Y-14970D02*
X-26013Y-14970D01*
X-25945Y-14894D02*
X-25945Y-15046D01*
X-25439Y-13938D02*
X-25430Y-13928D01*
X-25405Y-13919D01*
X-25387Y-13919D01*
X-25362Y-13928D01*
X-25345Y-13947D01*
X-25336Y-13966D01*
X-25327Y-14004D01*
X-25327Y-14033D01*
X-25336Y-14071D01*
X-25345Y-14090D01*
X-25362Y-14109D01*
X-25387Y-14119D01*
X-25405Y-14119D01*
X-25430Y-14109D01*
X-25439Y-14100D01*
X-25516Y-13919D02*
X-25516Y-14119D01*
X-25516Y-14023D02*
X-25619Y-14023D01*
X-25619Y-13919D02*
X-25619Y-14119D01*
X-25696Y-14100D02*
X-25705Y-14109D01*
X-25722Y-14119D01*
X-25765Y-14119D01*
X-25782Y-14109D01*
X-25790Y-14100D01*
X-25799Y-14080D01*
X-25799Y-14061D01*
X-25790Y-14033D01*
X-25687Y-13919D01*
X-25799Y-13919D01*
X-25876Y-13995D02*
X-26013Y-13995D01*
X-25945Y-13919D02*
X-25945Y-14071D01*
X-25439Y-9963D02*
X-25430Y-9953D01*
X-25405Y-9944D01*
X-25387Y-9944D01*
X-25362Y-9953D01*
X-25345Y-9972D01*
X-25336Y-9991D01*
X-25327Y-10029D01*
X-25327Y-10058D01*
X-25336Y-10096D01*
X-25345Y-10115D01*
X-25362Y-10134D01*
X-25387Y-10144D01*
X-25405Y-10144D01*
X-25430Y-10134D01*
X-25439Y-10125D01*
X-25516Y-9944D02*
X-25516Y-10144D01*
X-25516Y-10048D02*
X-25619Y-10048D01*
X-25619Y-9944D02*
X-25619Y-10144D01*
X-25782Y-10144D02*
X-25747Y-10144D01*
X-25730Y-10134D01*
X-25722Y-10125D01*
X-25705Y-10096D01*
X-25696Y-10058D01*
X-25696Y-9982D01*
X-25705Y-9963D01*
X-25713Y-9953D01*
X-25730Y-9944D01*
X-25765Y-9944D01*
X-25782Y-9953D01*
X-25790Y-9963D01*
X-25799Y-9982D01*
X-25799Y-10029D01*
X-25790Y-10048D01*
X-25782Y-10058D01*
X-25765Y-10067D01*
X-25730Y-10067D01*
X-25713Y-10058D01*
X-25705Y-10048D01*
X-25696Y-10029D01*
X-25876Y-10020D02*
X-26013Y-10020D01*
X-25945Y-9944D02*
X-25945Y-10096D01*
X-25439Y-10938D02*
X-25430Y-10928D01*
X-25405Y-10919D01*
X-25387Y-10919D01*
X-25362Y-10928D01*
X-25345Y-10947D01*
X-25336Y-10966D01*
X-25327Y-11004D01*
X-25327Y-11033D01*
X-25336Y-11071D01*
X-25345Y-11090D01*
X-25362Y-11109D01*
X-25387Y-11119D01*
X-25405Y-11119D01*
X-25430Y-11109D01*
X-25439Y-11100D01*
X-25516Y-10919D02*
X-25516Y-11119D01*
X-25516Y-11023D02*
X-25619Y-11023D01*
X-25619Y-10919D02*
X-25619Y-11119D01*
X-25790Y-11119D02*
X-25705Y-11119D01*
X-25696Y-11023D01*
X-25705Y-11033D01*
X-25722Y-11042D01*
X-25765Y-11042D01*
X-25782Y-11033D01*
X-25790Y-11023D01*
X-25799Y-11004D01*
X-25799Y-10957D01*
X-25790Y-10938D01*
X-25782Y-10928D01*
X-25765Y-10919D01*
X-25722Y-10919D01*
X-25705Y-10928D01*
X-25696Y-10938D01*
X-25876Y-10995D02*
X-26013Y-10995D01*
X-25945Y-10919D02*
X-25945Y-11071D01*
X-25439Y-8963D02*
X-25430Y-8953D01*
X-25405Y-8944D01*
X-25387Y-8944D01*
X-25362Y-8953D01*
X-25345Y-8972D01*
X-25336Y-8991D01*
X-25327Y-9029D01*
X-25327Y-9058D01*
X-25336Y-9096D01*
X-25345Y-9115D01*
X-25362Y-9134D01*
X-25387Y-9144D01*
X-25405Y-9144D01*
X-25430Y-9134D01*
X-25439Y-9125D01*
X-25516Y-8944D02*
X-25516Y-9144D01*
X-25516Y-9048D02*
X-25619Y-9048D01*
X-25619Y-8944D02*
X-25619Y-9144D01*
X-25687Y-9144D02*
X-25807Y-9144D01*
X-25730Y-8944D01*
X-25876Y-9020D02*
X-26013Y-9020D01*
X-25945Y-8944D02*
X-25945Y-9096D01*
X-25439Y-7988D02*
X-25430Y-7978D01*
X-25405Y-7969D01*
X-25387Y-7969D01*
X-25362Y-7978D01*
X-25345Y-7997D01*
X-25336Y-8016D01*
X-25327Y-8054D01*
X-25327Y-8083D01*
X-25336Y-8121D01*
X-25345Y-8140D01*
X-25362Y-8159D01*
X-25387Y-8169D01*
X-25405Y-8169D01*
X-25430Y-8159D01*
X-25439Y-8150D01*
X-25516Y-7969D02*
X-25516Y-8169D01*
X-25516Y-8073D02*
X-25619Y-8073D01*
X-25619Y-7969D02*
X-25619Y-8169D01*
X-25730Y-8083D02*
X-25713Y-8092D01*
X-25705Y-8102D01*
X-25696Y-8121D01*
X-25696Y-8130D01*
X-25705Y-8150D01*
X-25713Y-8159D01*
X-25730Y-8169D01*
X-25765Y-8169D01*
X-25782Y-8159D01*
X-25790Y-8150D01*
X-25799Y-8130D01*
X-25799Y-8121D01*
X-25790Y-8102D01*
X-25782Y-8092D01*
X-25765Y-8083D01*
X-25730Y-8083D01*
X-25713Y-8073D01*
X-25705Y-8064D01*
X-25696Y-8045D01*
X-25696Y-8007D01*
X-25705Y-7988D01*
X-25713Y-7978D01*
X-25730Y-7969D01*
X-25765Y-7969D01*
X-25782Y-7978D01*
X-25790Y-7988D01*
X-25799Y-8007D01*
X-25799Y-8045D01*
X-25790Y-8064D01*
X-25782Y-8073D01*
X-25765Y-8083D01*
X-25876Y-8045D02*
X-26013Y-8045D01*
X-25945Y-7969D02*
X-25945Y-8121D01*
X-25391Y-6928D02*
X-25417Y-6919D01*
X-25460Y-6919D01*
X-25477Y-6928D01*
X-25485Y-6938D01*
X-25494Y-6957D01*
X-25494Y-6976D01*
X-25485Y-6995D01*
X-25477Y-7004D01*
X-25460Y-7014D01*
X-25425Y-7023D01*
X-25408Y-7033D01*
X-25400Y-7042D01*
X-25391Y-7061D01*
X-25391Y-7080D01*
X-25400Y-7100D01*
X-25408Y-7109D01*
X-25425Y-7119D01*
X-25468Y-7119D01*
X-25494Y-7109D01*
X-25571Y-6919D02*
X-25571Y-7119D01*
X-25571Y-7023D02*
X-25674Y-7023D01*
X-25674Y-6919D02*
X-25674Y-7119D01*
X-25845Y-6919D02*
X-25760Y-6919D01*
X-25760Y-7119D01*
X-25905Y-6919D02*
X-25905Y-7119D01*
X-25948Y-7119D01*
X-25974Y-7109D01*
X-25991Y-7090D01*
X-26000Y-7071D01*
X-26008Y-7033D01*
X-26008Y-7004D01*
X-26000Y-6966D01*
X-25991Y-6947D01*
X-25974Y-6928D01*
X-25948Y-6919D01*
X-25905Y-6919D01*
X-25557Y-6048D02*
X-25582Y-6039D01*
X-25591Y-6029D01*
X-25600Y-6010D01*
X-25600Y-5982D01*
X-25591Y-5963D01*
X-25582Y-5953D01*
X-25565Y-5944D01*
X-25497Y-5944D01*
X-25497Y-6144D01*
X-25557Y-6144D01*
X-25574Y-6134D01*
X-25582Y-6125D01*
X-25591Y-6105D01*
X-25591Y-6086D01*
X-25582Y-6067D01*
X-25574Y-6058D01*
X-25557Y-6048D01*
X-25497Y-6048D01*
X-25677Y-5944D02*
X-25677Y-6144D01*
X-25754Y-6001D02*
X-25840Y-6001D01*
X-25737Y-5944D02*
X-25797Y-6144D01*
X-25857Y-5944D01*
X-25908Y-5953D02*
X-25934Y-5944D01*
X-25977Y-5944D01*
X-25994Y-5953D01*
X-26002Y-5963D01*
X-26011Y-5982D01*
X-26011Y-6001D01*
X-26002Y-6020D01*
X-25994Y-6029D01*
X-25977Y-6039D01*
X-25942Y-6048D01*
X-25925Y-6058D01*
X-25917Y-6067D01*
X-25908Y-6086D01*
X-25908Y-6105D01*
X-25917Y-6125D01*
X-25925Y-6134D01*
X-25942Y-6144D01*
X-25985Y-6144D01*
X-26011Y-6134D01*
G54D12*
X-24711Y208D02*
X-24711Y-182D01*
X-24860Y-182D01*
X-24897Y-163D01*
X-24916Y-145D01*
X-24934Y-108D01*
X-24934Y-52D01*
X-24916Y-15D01*
X-24897Y3D01*
X-24860Y22D01*
X-24711Y22D01*
X-25120Y208D02*
X-25195Y208D01*
X-25232Y189D01*
X-25251Y170D01*
X-25288Y115D01*
X-25306Y40D01*
X-25306Y-108D01*
X-25288Y-145D01*
X-25269Y-163D01*
X-25232Y-182D01*
X-25158Y-182D01*
X-25120Y-163D01*
X-25102Y-145D01*
X-25083Y-108D01*
X-25083Y-15D01*
X-25102Y22D01*
X-25120Y40D01*
X-25158Y59D01*
X-25232Y59D01*
X-25269Y40D01*
X-25288Y22D01*
X-25306Y-15D01*
X-24786Y-18741D02*
X-24786Y-19132D01*
X-24935Y-19132D01*
X-24972Y-19113D01*
X-24991Y-19095D01*
X-25009Y-19058D01*
X-25009Y-19002D01*
X-24991Y-18965D01*
X-24972Y-18946D01*
X-24935Y-18927D01*
X-24786Y-18927D01*
X-25233Y-18965D02*
X-25195Y-18983D01*
X-25177Y-19002D01*
X-25158Y-19039D01*
X-25158Y-19058D01*
X-25177Y-19095D01*
X-25195Y-19113D01*
X-25233Y-19132D01*
X-25307Y-19132D01*
X-25344Y-19113D01*
X-25363Y-19095D01*
X-25381Y-19058D01*
X-25381Y-19039D01*
X-25363Y-19002D01*
X-25344Y-18983D01*
X-25307Y-18965D01*
X-25233Y-18965D01*
X-25195Y-18946D01*
X-25177Y-18927D01*
X-25158Y-18890D01*
X-25158Y-18816D01*
X-25177Y-18779D01*
X-25195Y-18760D01*
X-25233Y-18741D01*
X-25307Y-18741D01*
X-25344Y-18760D01*
X-25363Y-18779D01*
X-25381Y-18816D01*
X-25381Y-18890D01*
X-25363Y-18927D01*
X-25344Y-18946D01*
X-25307Y-18965D01*
X-1286Y683D02*
X-1063Y683D01*
X-1175Y683D02*
X-1175Y292D01*
X-1137Y348D01*
X-1100Y385D01*
X-1063Y404D01*
X-1063Y-670D02*
X-1082Y-688D01*
X-1119Y-707D01*
X-1212Y-707D01*
X-1249Y-688D01*
X-1267Y-670D01*
X-1286Y-633D01*
X-1286Y-595D01*
X-1267Y-540D01*
X-1044Y-316D01*
X-1286Y-316D01*
X-1063Y-19670D02*
X-1082Y-19688D01*
X-1119Y-19707D01*
X-1212Y-19707D01*
X-1249Y-19688D01*
X-1267Y-19670D01*
X-1286Y-19633D01*
X-1286Y-19595D01*
X-1267Y-19540D01*
X-1044Y-19316D01*
X-1286Y-19316D01*
X-1286Y-18316D02*
X-1063Y-18316D01*
X-1175Y-18316D02*
X-1175Y-18707D01*
X-1137Y-18651D01*
X-1100Y-18614D01*
X-1063Y-18595D01*
G54D13*
X-1425Y-1050D02*
X-1425Y1050D01*
X-24525Y1050D02*
X-24525Y-1050D01*
X-24525Y-1050D02*
X-1425Y-1050D01*
X-1425Y1050D02*
X-24525Y1050D01*
X-1450Y-17900D02*
X-24550Y-17900D01*
X-1450Y-20000D02*
X-1450Y-17900D01*
X-24550Y-20000D02*
X-1450Y-20000D01*
X-24550Y-17900D02*
X-24550Y-20000D01*
G54D14*
X-16053Y-17220D02*
X-16137Y-17192D01*
X-16165Y-17164D01*
X-16194Y-17107D01*
X-16194Y-17023D01*
X-16165Y-16967D01*
X-16137Y-16939D01*
X-16081Y-16910D01*
X-15856Y-16910D01*
X-15856Y-17501D01*
X-16053Y-17501D01*
X-16109Y-17473D01*
X-16137Y-17445D01*
X-16165Y-17389D01*
X-16165Y-17332D01*
X-16137Y-17276D01*
X-16109Y-17248D01*
X-16053Y-17220D01*
X-15856Y-17220D01*
X-16447Y-16910D02*
X-16447Y-17304D01*
X-16447Y-17192D02*
X-16475Y-17248D01*
X-16503Y-17276D01*
X-16559Y-17304D01*
X-16615Y-17304D01*
X-17065Y-16910D02*
X-17065Y-17220D01*
X-17037Y-17276D01*
X-16981Y-17304D01*
X-16869Y-17304D01*
X-16812Y-17276D01*
X-17065Y-16939D02*
X-17009Y-16910D01*
X-16869Y-16910D01*
X-16812Y-16939D01*
X-16784Y-16995D01*
X-16784Y-17051D01*
X-16812Y-17107D01*
X-16869Y-17135D01*
X-17009Y-17135D01*
X-17065Y-17164D01*
X-17347Y-16910D02*
X-17347Y-17304D01*
X-17347Y-17501D02*
X-17318Y-17473D01*
X-17347Y-17445D01*
X-17375Y-17473D01*
X-17347Y-17501D01*
X-17347Y-17445D01*
X-17628Y-17304D02*
X-17628Y-16910D01*
X-17628Y-17248D02*
X-17656Y-17276D01*
X-17712Y-17304D01*
X-17797Y-17304D01*
X-17853Y-17276D01*
X-17881Y-17220D01*
X-17881Y-16910D01*
X-18359Y-17220D02*
X-18443Y-17192D01*
X-18471Y-17164D01*
X-18500Y-17107D01*
X-18500Y-17023D01*
X-18471Y-16967D01*
X-18443Y-16939D01*
X-18387Y-16910D01*
X-18162Y-16910D01*
X-18162Y-17501D01*
X-18359Y-17501D01*
X-18415Y-17473D01*
X-18443Y-17445D01*
X-18471Y-17389D01*
X-18471Y-17332D01*
X-18443Y-17276D01*
X-18415Y-17248D01*
X-18359Y-17220D01*
X-18162Y-17220D01*
X-18837Y-16910D02*
X-18781Y-16939D01*
X-18753Y-16967D01*
X-18725Y-17023D01*
X-18725Y-17192D01*
X-18753Y-17248D01*
X-18781Y-17276D01*
X-18837Y-17304D01*
X-18921Y-17304D01*
X-18978Y-17276D01*
X-19006Y-17248D01*
X-19034Y-17192D01*
X-19034Y-17023D01*
X-19006Y-16967D01*
X-18978Y-16939D01*
X-18921Y-16910D01*
X-18837Y-16910D01*
X-19540Y-16910D02*
X-19540Y-17220D01*
X-19512Y-17276D01*
X-19456Y-17304D01*
X-19343Y-17304D01*
X-19287Y-17276D01*
X-19540Y-16939D02*
X-19484Y-16910D01*
X-19343Y-16910D01*
X-19287Y-16939D01*
X-19259Y-16995D01*
X-19259Y-17051D01*
X-19287Y-17107D01*
X-19343Y-17135D01*
X-19484Y-17135D01*
X-19540Y-17164D01*
X-19821Y-16910D02*
X-19821Y-17304D01*
X-19821Y-17192D02*
X-19849Y-17248D01*
X-19878Y-17276D01*
X-19934Y-17304D01*
X-19990Y-17304D01*
X-20440Y-16910D02*
X-20440Y-17501D01*
X-20440Y-16939D02*
X-20384Y-16910D01*
X-20271Y-16910D01*
X-20215Y-16939D01*
X-20187Y-16967D01*
X-20159Y-17023D01*
X-20159Y-17192D01*
X-20187Y-17248D01*
X-20215Y-17276D01*
X-20271Y-17304D01*
X-20384Y-17304D01*
X-20440Y-17276D01*
X-21509Y-16910D02*
X-21312Y-17192D01*
X-21171Y-16910D02*
X-21171Y-17501D01*
X-21396Y-17501D01*
X-21452Y-17473D01*
X-21480Y-17445D01*
X-21509Y-17389D01*
X-21509Y-17304D01*
X-21480Y-17248D01*
X-21452Y-17220D01*
X-21396Y-17192D01*
X-21171Y-17192D01*
X-21874Y-17501D02*
X-21930Y-17501D01*
X-21987Y-17473D01*
X-22015Y-17445D01*
X-22043Y-17389D01*
X-22071Y-17276D01*
X-22071Y-17135D01*
X-22043Y-17023D01*
X-22015Y-16967D01*
X-21987Y-16939D01*
X-21930Y-16910D01*
X-21874Y-16910D01*
X-21818Y-16939D01*
X-21790Y-16967D01*
X-21762Y-17023D01*
X-21734Y-17135D01*
X-21734Y-17276D01*
X-21762Y-17389D01*
X-21790Y-17445D01*
X-21818Y-17473D01*
X-21874Y-17501D01*
G54D15*
X-12750Y-17223D02*
X-2594Y-17223D01*
X-2594Y-17223D02*
X-2594Y-12027D01*
X-2594Y-12027D02*
X-12750Y-12027D01*
X-12750Y-12027D02*
X-12750Y-17223D01*
G54D16*
X-5704Y-17223D02*
X-5035Y-17223D01*
X-5704Y-12027D02*
X-5035Y-12027D01*
X-12750Y-17223D02*
X-12750Y-16829D01*
X-12750Y-17223D02*
X-12357Y-17223D01*
X-12750Y-12027D02*
X-12750Y-12421D01*
X-12750Y-12027D02*
X-12357Y-12027D01*
X-2594Y-12027D02*
X-2594Y-12421D01*
X-2594Y-12027D02*
X-2988Y-12027D01*
X-2594Y-17223D02*
X-2594Y-16829D01*
X-2594Y-17223D02*
X-2988Y-17223D01*
X-19668Y-9632D02*
G75*
G03X-19668Y-9632I-150J0D01*
G74*
G01*
X-16218Y-13232D02*
X-16218Y-9232D01*
X-16218Y-9232D02*
X-19968Y-9232D01*
X-19968Y-9232D02*
X-20218Y-9482D01*
X-20218Y-9482D02*
X-20218Y-13232D01*
X-20218Y-13232D02*
X-16218Y-13232D01*
G54D17*
X-19450Y-15900D02*
X-19450Y-16300D01*
X-19450Y-16300D02*
X-20050Y-16300D01*
X-20050Y-16300D02*
X-20050Y-15900D01*
X-20050Y-15500D02*
X-20050Y-15100D01*
X-20050Y-15100D02*
X-19450Y-15100D01*
X-19450Y-15100D02*
X-19450Y-15500D01*
G54D15*
X-14925Y-3575D02*
X-14925Y-2875D01*
X-14925Y-2875D02*
X-13725Y-2875D01*
X-13725Y-2875D02*
X-13725Y-3575D01*
X-13725Y-3575D02*
X-14925Y-3575D01*
G54D17*
X-21850Y-8000D02*
G75*
G03X-21850Y-8000I-50J0D01*
G74*
G01*
X-21450Y-8000D02*
X-21850Y-8000D01*
X-21850Y-8000D02*
X-21850Y-7400D01*
X-21850Y-7400D02*
X-21450Y-7400D01*
X-21050Y-7400D02*
X-20650Y-7400D01*
X-20650Y-7400D02*
X-20650Y-8000D01*
X-20650Y-8000D02*
X-21050Y-8000D01*
G54D15*
X-24600Y-15750D02*
X-23700Y-15750D01*
X-23700Y-15750D02*
X-23700Y-16250D01*
X-23700Y-16250D02*
X-24600Y-16250D01*
X-24600Y-16250D02*
X-24600Y-15750D01*
X-24600Y-5250D02*
X-23700Y-5250D01*
X-23700Y-5250D02*
X-23700Y-5750D01*
X-23700Y-5750D02*
X-24600Y-5750D01*
X-24600Y-5750D02*
X-24600Y-5250D01*
X-24600Y-14250D02*
X-23700Y-14250D01*
X-23700Y-14250D02*
X-23700Y-14750D01*
X-23700Y-14750D02*
X-24600Y-14750D01*
X-24600Y-14750D02*
X-24600Y-14250D01*
X-24600Y-12750D02*
X-23700Y-12750D01*
X-23700Y-12750D02*
X-23700Y-13250D01*
X-23700Y-13250D02*
X-24600Y-13250D01*
X-24600Y-13250D02*
X-24600Y-12750D01*
X-24600Y-11250D02*
X-23700Y-11250D01*
X-23700Y-11250D02*
X-23700Y-11750D01*
X-23700Y-11750D02*
X-24600Y-11750D01*
X-24600Y-11750D02*
X-24600Y-11250D01*
X-24600Y-9750D02*
X-23700Y-9750D01*
X-23700Y-9750D02*
X-23700Y-10250D01*
X-23700Y-10250D02*
X-24600Y-10250D01*
X-24600Y-10250D02*
X-24600Y-9750D01*
X-24600Y-8250D02*
X-23700Y-8250D01*
X-23700Y-8250D02*
X-23700Y-8750D01*
X-23700Y-8750D02*
X-24600Y-8750D01*
X-24600Y-8750D02*
X-24600Y-8250D01*
X-24600Y-6750D02*
X-23700Y-6750D01*
X-23700Y-6750D02*
X-23700Y-7250D01*
X-23700Y-7250D02*
X-24600Y-7250D01*
X-24600Y-7250D02*
X-24600Y-6750D01*
X-23700Y-12500D02*
X-24600Y-12500D01*
X-24600Y-12500D02*
X-24600Y-12000D01*
X-24600Y-12000D02*
X-23700Y-12000D01*
X-23700Y-12000D02*
X-23700Y-12500D01*
X-14575Y-9050D02*
X-14575Y-8150D01*
X-14575Y-8150D02*
X-14075Y-8150D01*
X-14075Y-8150D02*
X-14075Y-9050D01*
X-14075Y-9050D02*
X-14575Y-9050D01*
X-24600Y-3750D02*
X-23700Y-3750D01*
X-23700Y-3750D02*
X-23700Y-4250D01*
X-23700Y-4250D02*
X-24600Y-4250D01*
X-24600Y-4250D02*
X-24600Y-3750D01*
X-24600Y-2250D02*
X-23700Y-2250D01*
X-23700Y-2250D02*
X-23700Y-2750D01*
X-23700Y-2750D02*
X-24600Y-2750D01*
X-24600Y-2750D02*
X-24600Y-2250D01*
X-24600Y-4500D02*
X-23700Y-4500D01*
X-23700Y-4500D02*
X-23700Y-5000D01*
X-23700Y-5000D02*
X-24600Y-5000D01*
X-24600Y-5000D02*
X-24600Y-4500D01*
X-6100Y-8900D02*
X-5200Y-8900D01*
X-5200Y-8900D02*
X-5200Y-9400D01*
X-5200Y-9400D02*
X-6100Y-9400D01*
X-6100Y-9400D02*
X-6100Y-8900D01*
X-6100Y-6700D02*
X-5200Y-6700D01*
X-5200Y-6700D02*
X-5200Y-7200D01*
X-5200Y-7200D02*
X-6100Y-7200D01*
X-6100Y-7200D02*
X-6100Y-6700D01*
X-7025Y-2850D02*
X-7025Y-1950D01*
X-7025Y-1950D02*
X-6525Y-1950D01*
X-6525Y-1950D02*
X-6525Y-2850D01*
X-6525Y-2850D02*
X-7025Y-2850D01*
X-23700Y-17000D02*
X-24600Y-17000D01*
X-24600Y-17000D02*
X-24600Y-16500D01*
X-24600Y-16500D02*
X-23700Y-16500D01*
X-23700Y-16500D02*
X-23700Y-17000D01*
X-7825Y-2850D02*
X-7825Y-1950D01*
X-7825Y-1950D02*
X-7325Y-1950D01*
X-7325Y-1950D02*
X-7325Y-2850D01*
X-7325Y-2850D02*
X-7825Y-2850D01*
X-5150Y-10550D02*
X-5150Y-11450D01*
X-5150Y-11450D02*
X-5650Y-11450D01*
X-5650Y-11450D02*
X-5650Y-10550D01*
X-5650Y-10550D02*
X-5150Y-10550D01*
X3025Y-50D02*
X3925Y-50D01*
X3925Y-50D02*
X3925Y-550D01*
X3925Y-550D02*
X3025Y-550D01*
X3025Y-550D02*
X3025Y-50D01*
X-16500Y-6550D02*
X-15600Y-6550D01*
X-15600Y-6550D02*
X-15600Y-7050D01*
X-15600Y-7050D02*
X-16500Y-7050D01*
X-16500Y-7050D02*
X-16500Y-6550D01*
X-10200Y-2700D02*
X-10200Y-1800D01*
X-10200Y-1800D02*
X-9700Y-1800D01*
X-9700Y-1800D02*
X-9700Y-2700D01*
X-9700Y-2700D02*
X-10200Y-2700D01*
X-11050Y-2700D02*
X-11050Y-1800D01*
X-11050Y-1800D02*
X-10550Y-1800D01*
X-10550Y-1800D02*
X-10550Y-2700D01*
X-10550Y-2700D02*
X-11050Y-2700D01*
X-18500Y-15250D02*
X-18500Y-16150D01*
X-18500Y-16150D02*
X-19000Y-16150D01*
X-19000Y-16150D02*
X-19000Y-15250D01*
X-19000Y-15250D02*
X-18500Y-15250D01*
X-17850Y-7250D02*
X-17850Y-6350D01*
X-17850Y-6350D02*
X-17350Y-6350D01*
X-17350Y-6350D02*
X-17350Y-7250D01*
X-17350Y-7250D02*
X-17850Y-7250D01*
X-18600Y-7250D02*
X-18600Y-6350D01*
X-18600Y-6350D02*
X-18100Y-6350D01*
X-18100Y-6350D02*
X-18100Y-7250D01*
X-18100Y-7250D02*
X-18600Y-7250D01*
X-16500Y-7300D02*
X-15600Y-7300D01*
X-15600Y-7300D02*
X-15600Y-7800D01*
X-15600Y-7800D02*
X-16500Y-7800D01*
X-16500Y-7800D02*
X-16500Y-7300D01*
X-23700Y-15500D02*
X-24600Y-15500D01*
X-24600Y-15500D02*
X-24600Y-15000D01*
X-24600Y-15000D02*
X-23700Y-15000D01*
X-23700Y-15000D02*
X-23700Y-15500D01*
X-15325Y-9050D02*
X-15325Y-8150D01*
X-15325Y-8150D02*
X-14825Y-8150D01*
X-14825Y-8150D02*
X-14825Y-9050D01*
X-14825Y-9050D02*
X-15325Y-9050D01*
X-19400Y-7250D02*
X-19400Y-6350D01*
X-19400Y-6350D02*
X-18900Y-6350D01*
X-18900Y-6350D02*
X-18900Y-7250D01*
X-18900Y-7250D02*
X-19400Y-7250D01*
X-20150Y-7250D02*
X-20150Y-6350D01*
X-20150Y-6350D02*
X-19650Y-6350D01*
X-19650Y-6350D02*
X-19650Y-7250D01*
X-19650Y-7250D02*
X-20150Y-7250D01*
X-23700Y-14000D02*
X-24600Y-14000D01*
X-24600Y-14000D02*
X-24600Y-13500D01*
X-24600Y-13500D02*
X-23700Y-13500D01*
X-23700Y-13500D02*
X-23700Y-14000D01*
X-23700Y-11000D02*
X-24600Y-11000D01*
X-24600Y-11000D02*
X-24600Y-10500D01*
X-24600Y-10500D02*
X-23700Y-10500D01*
X-23700Y-10500D02*
X-23700Y-11000D01*
X-23700Y-9500D02*
X-24600Y-9500D01*
X-24600Y-9500D02*
X-24600Y-9000D01*
X-24600Y-9000D02*
X-23700Y-9000D01*
X-23700Y-9000D02*
X-23700Y-9500D01*
X-23700Y-8000D02*
X-24600Y-8000D01*
X-24600Y-8000D02*
X-24600Y-7500D01*
X-24600Y-7500D02*
X-23700Y-7500D01*
X-23700Y-7500D02*
X-23700Y-8000D01*
X-23700Y-6450D02*
X-24600Y-6450D01*
X-24600Y-6450D02*
X-24600Y-5950D01*
X-24600Y-5950D02*
X-23700Y-5950D01*
X-23700Y-5950D02*
X-23700Y-6450D01*
X-23700Y-3450D02*
X-24600Y-3450D01*
X-24600Y-3450D02*
X-24600Y-2950D01*
X-24600Y-2950D02*
X-23700Y-2950D01*
X-23700Y-2950D02*
X-23700Y-3450D01*
X-18850Y-3950D02*
X-18850Y-3050D01*
X-18850Y-3050D02*
X-18350Y-3050D01*
X-18350Y-3050D02*
X-18350Y-3950D01*
X-18350Y-3950D02*
X-18850Y-3950D01*
X-5200Y-6475D02*
X-6100Y-6475D01*
X-6100Y-6475D02*
X-6100Y-5975D01*
X-6100Y-5975D02*
X-5200Y-5975D01*
X-5200Y-5975D02*
X-5200Y-6475D01*
X-5750Y-1950D02*
X-5750Y-2850D01*
X-5750Y-2850D02*
X-6250Y-2850D01*
X-6250Y-2850D02*
X-6250Y-1950D01*
X-6250Y-1950D02*
X-5750Y-1950D01*
X-12925Y-7800D02*
X-12025Y-7800D01*
X-12025Y-7800D02*
X-12025Y-8300D01*
X-12025Y-8300D02*
X-12925Y-8300D01*
X-12925Y-8300D02*
X-12925Y-7800D01*
X-20550Y-15700D02*
X-21450Y-15700D01*
X-21450Y-15700D02*
X-21450Y-15200D01*
X-21450Y-15200D02*
X-20550Y-15200D01*
X-20550Y-15200D02*
X-20550Y-15700D01*
X-20550Y-14950D02*
X-21450Y-14950D01*
X-21450Y-14950D02*
X-21450Y-14450D01*
X-21450Y-14450D02*
X-20550Y-14450D01*
X-20550Y-14450D02*
X-20550Y-14950D01*
G54D18*
X4500Y-1000D02*
X4500Y-6000D01*
X4500Y-6000D02*
X2500Y-6000D01*
X2500Y-6000D02*
X2500Y-1000D01*
X2500Y-1000D02*
X4500Y-1000D01*
G54D14*
X-27250Y-15500D02*
X-27250Y-3500D01*
X-27250Y-3500D02*
X-26250Y-3500D01*
X-26250Y-3500D02*
X-26250Y-15500D01*
G54D18*
X-26250Y-15500D02*
X-27250Y-15500D01*
X-26250Y-14500D02*
X-27250Y-14500D01*
G54D16*
X-19625Y-2825D02*
X-19125Y-3300D01*
X-19125Y-2825D02*
X-20375Y-2825D01*
X-20375Y-2825D02*
X-20375Y-4075D01*
X-20375Y-4075D02*
X-19125Y-4075D01*
X-19125Y-4075D02*
X-19125Y-2825D01*
G54D15*
X-1683Y-1550D02*
G75*
G03X-1683Y-1550I-316J0D01*
G74*
G01*
X-15650Y-3900D02*
X-15650Y-3000D01*
X-15650Y-3000D02*
X-15150Y-3000D01*
X-15150Y-3000D02*
X-15150Y-3900D01*
X-15150Y-3900D02*
X-15650Y-3900D01*
X-15200Y-15250D02*
X-15200Y-16150D01*
X-15200Y-16150D02*
X-15700Y-16150D01*
X-15700Y-16150D02*
X-15700Y-15250D01*
X-15700Y-15250D02*
X-15200Y-15250D01*
X-20800Y-7100D02*
X-21700Y-7100D01*
X-21700Y-7100D02*
X-21700Y-6600D01*
X-21700Y-6600D02*
X-20800Y-6600D01*
X-20800Y-6600D02*
X-20800Y-7100D01*
X-6100Y-7400D02*
X-5200Y-7400D01*
X-5200Y-7400D02*
X-5200Y-7900D01*
X-5200Y-7900D02*
X-6100Y-7900D01*
X-6100Y-7900D02*
X-6100Y-7400D01*
G54D17*
X-6250Y-8700D02*
G75*
G03X-6250Y-8700I-50J0D01*
G74*
G01*
X-5850Y-8700D02*
X-6250Y-8700D01*
X-6250Y-8700D02*
X-6250Y-8100D01*
X-6250Y-8100D02*
X-5850Y-8100D01*
X-5450Y-8100D02*
X-5050Y-8100D01*
X-5050Y-8100D02*
X-5050Y-8700D01*
X-5050Y-8700D02*
X-5450Y-8700D01*
G54D15*
X-18100Y-15250D02*
X-18100Y-16150D01*
X-18100Y-16150D02*
X-17450Y-16150D01*
X-16750Y-15250D02*
X-16100Y-15250D01*
X-16100Y-15250D02*
X-16100Y-16150D01*
X-16100Y-16150D02*
X-16750Y-16150D01*
X-17450Y-15250D02*
X-18100Y-15250D01*
G54D10*
X-262Y-4231D02*
X1154Y-4231D01*
X1154Y-4231D02*
X1154Y-1868D01*
X1154Y-1868D02*
X-262Y-1868D01*
X-262Y-1868D02*
X-262Y-4231D01*
G54D15*
X-1350Y-15825D02*
X-1350Y-14925D01*
X-1350Y-14925D02*
X-850Y-14925D01*
X-850Y-14925D02*
X-850Y-15825D01*
X-850Y-15825D02*
X-1350Y-15825D01*
X-100Y-15850D02*
X-100Y-14950D01*
X-100Y-14950D02*
X400Y-14950D01*
X400Y-14950D02*
X400Y-15850D01*
X400Y-15850D02*
X-100Y-15850D01*
G54D19*
X-1277Y-16298D02*
X-923Y-16298D01*
X-923Y-16298D02*
X-923Y-16141D01*
X-1277Y-16141D02*
X-923Y-16141D01*
X-1277Y-16298D02*
X-1277Y-16141D01*
X-1277Y-16809D02*
X-923Y-16809D01*
X-923Y-16809D02*
X-923Y-16652D01*
X-1277Y-16652D02*
X-923Y-16652D01*
X-1277Y-16809D02*
X-1277Y-16652D01*
X-1277Y-16475D02*
X-1218Y-16475D01*
X-1218Y-16475D02*
X-1218Y-16357D01*
X-1277Y-16357D02*
X-1218Y-16357D01*
X-1277Y-16475D02*
X-1277Y-16357D01*
X-982Y-16475D02*
X-923Y-16475D01*
X-923Y-16475D02*
X-923Y-16357D01*
X-982Y-16357D02*
X-923Y-16357D01*
X-982Y-16475D02*
X-982Y-16357D01*
X-1159Y-16475D02*
X-1041Y-16475D01*
X-1041Y-16475D02*
X-1041Y-16357D01*
X-1159Y-16357D02*
X-1041Y-16357D01*
X-1159Y-16475D02*
X-1159Y-16357D01*
G54D20*
X-1257Y-16298D02*
X-1257Y-16652D01*
X-943Y-16298D02*
X-943Y-16652D01*
G54D19*
X-27Y-16298D02*
X327Y-16298D01*
X327Y-16298D02*
X327Y-16141D01*
X-27Y-16141D02*
X327Y-16141D01*
X-27Y-16298D02*
X-27Y-16141D01*
X-27Y-16809D02*
X327Y-16809D01*
X327Y-16809D02*
X327Y-16652D01*
X-27Y-16652D02*
X327Y-16652D01*
X-27Y-16809D02*
X-27Y-16652D01*
X-27Y-16475D02*
X32Y-16475D01*
X32Y-16475D02*
X32Y-16357D01*
X-27Y-16357D02*
X32Y-16357D01*
X-27Y-16475D02*
X-27Y-16357D01*
X268Y-16475D02*
X327Y-16475D01*
X327Y-16475D02*
X327Y-16357D01*
X268Y-16357D02*
X327Y-16357D01*
X268Y-16475D02*
X268Y-16357D01*
X91Y-16475D02*
X209Y-16475D01*
X209Y-16475D02*
X209Y-16357D01*
X91Y-16357D02*
X209Y-16357D01*
X91Y-16475D02*
X91Y-16357D01*
G54D20*
X-7Y-16298D02*
X-7Y-16652D01*
X307Y-16298D02*
X307Y-16652D01*
G54D15*
X-12183Y-1875D02*
G75*
G03X-12183Y-1875I-316J0D01*
G74*
G01*
X-2683Y-2125D02*
G75*
G03X-2683Y-2125I-316J0D01*
G74*
G01*
X-22683Y-1525D02*
G75*
G03X-22683Y-1525I-316J0D01*
G74*
G01*
X-15158Y-5350D02*
G75*
G03X-15158Y-5350I-316J0D01*
G74*
G01*
X-3583Y-11050D02*
G75*
G03X-3583Y-11050I-316J0D01*
G74*
G01*
G54D19*
X-8993Y-4054D02*
X-8910Y-4138D01*
X-8854Y-4194D02*
X-8770Y-4277D01*
X-8715Y-4332D02*
X-8631Y-4416D01*
X-8576Y-4472D02*
X-8492Y-4555D01*
X-8436Y-4611D02*
X-8353Y-4694D01*
X-8297Y-4750D02*
X-8214Y-4834D01*
X-8159Y-4889D02*
X-8075Y-4972D01*
X-8019Y-5028D02*
X-7936Y-5111D01*
X-7880Y-5167D02*
X-7797Y-5251D01*
X-7741Y-5306D02*
X-7657Y-5390D01*
X-7602Y-5445D02*
X-7519Y-5529D01*
X-7463Y-5585D02*
X-7379Y-5668D01*
X-7463Y-6014D02*
X-7379Y-5931D01*
X-7602Y-6154D02*
X-7519Y-6070D01*
X-7741Y-6293D02*
X-7657Y-6209D01*
X-7880Y-6432D02*
X-7797Y-6348D01*
X-8019Y-6571D02*
X-7936Y-6488D01*
X-8159Y-6710D02*
X-8075Y-6627D01*
X-8297Y-6849D02*
X-8214Y-6765D01*
X-8436Y-6988D02*
X-8353Y-6905D01*
X-8576Y-7127D02*
X-8492Y-7044D01*
X-8715Y-7267D02*
X-8631Y-7183D01*
X-8854Y-7405D02*
X-8770Y-7322D01*
X-8993Y-7545D02*
X-8910Y-7461D01*
X-9339Y-7461D02*
X-9256Y-7545D01*
X-9479Y-7322D02*
X-9395Y-7405D01*
X-9618Y-7183D02*
X-9534Y-7267D01*
X-9757Y-7044D02*
X-9673Y-7127D01*
X-9896Y-6905D02*
X-9813Y-6988D01*
X-10035Y-6765D02*
X-9952Y-6849D01*
X-10174Y-6627D02*
X-10090Y-6710D01*
X-10313Y-6488D02*
X-10230Y-6571D01*
X-10452Y-6348D02*
X-10369Y-6432D01*
X-10592Y-6209D02*
X-10508Y-6293D01*
X-10730Y-6070D02*
X-10647Y-6154D01*
X-10870Y-5931D02*
X-10786Y-6014D01*
X-10870Y-5668D02*
X-10786Y-5585D01*
X-10730Y-5529D02*
X-10647Y-5445D01*
X-10452Y-5251D02*
X-10369Y-5167D01*
X-10592Y-5390D02*
X-10508Y-5306D01*
X-10174Y-4972D02*
X-10090Y-4889D01*
X-10313Y-5111D02*
X-10230Y-5028D01*
X-9896Y-4694D02*
X-9813Y-4611D01*
X-10035Y-4834D02*
X-9952Y-4750D01*
X-9618Y-4416D02*
X-9534Y-4332D01*
X-9757Y-4555D02*
X-9673Y-4472D01*
X-9479Y-4277D02*
X-9395Y-4194D01*
X-9339Y-4138D02*
X-9256Y-4054D01*
G54D21*
X-10863Y-5661D02*
X-10863Y-5938D01*
X-10863Y-5938D02*
X-9263Y-7538D01*
X-9263Y-7538D02*
X-8986Y-7538D01*
X-8986Y-7538D02*
X-7386Y-5938D01*
X-7386Y-5938D02*
X-7386Y-5661D01*
X-7386Y-5661D02*
X-8986Y-4061D01*
X-8986Y-4061D02*
X-9263Y-4061D01*
X-9263Y-4061D02*
X-10863Y-5661D01*
G54D22*
X-10377Y-5800D02*
G75*
G03X-10377Y-5800I-138J0D01*
G74*
G01*
G54D10*
X-9507Y-14267D02*
X-9507Y-14753D01*
X-9478Y-14810D01*
X-9450Y-14839D01*
X-9392Y-14867D01*
X-9278Y-14867D01*
X-9221Y-14839D01*
X-9192Y-14810D01*
X-9164Y-14753D01*
X-9164Y-14267D01*
X-8850Y-14867D02*
X-8735Y-14867D01*
X-8678Y-14839D01*
X-8650Y-14810D01*
X-8592Y-14725D01*
X-8564Y-14610D01*
X-8564Y-14382D01*
X-8592Y-14325D01*
X-8621Y-14296D01*
X-8678Y-14267D01*
X-8792Y-14267D01*
X-8850Y-14296D01*
X-8878Y-14325D01*
X-8907Y-14382D01*
X-8907Y-14525D01*
X-8878Y-14582D01*
X-8850Y-14610D01*
X-8792Y-14639D01*
X-8678Y-14639D01*
X-8621Y-14610D01*
X-8592Y-14582D01*
X-8564Y-14525D01*
G54D15*
X-18507Y-11529D02*
X-18157Y-11529D01*
X-18115Y-11509D01*
X-18095Y-11488D01*
X-18074Y-11447D01*
X-18074Y-11364D01*
X-18095Y-11323D01*
X-18115Y-11303D01*
X-18157Y-11282D01*
X-18507Y-11282D01*
X-18363Y-10890D02*
X-18074Y-10890D01*
X-18528Y-10993D02*
X-18219Y-11096D01*
X-18219Y-10828D01*
G54D23*
X-19664Y-16657D02*
X-19654Y-16667D01*
X-19645Y-16695D01*
X-19645Y-16714D01*
X-19654Y-16742D01*
X-19673Y-16761D01*
X-19692Y-16770D01*
X-19729Y-16779D01*
X-19757Y-16779D01*
X-19795Y-16770D01*
X-19814Y-16761D01*
X-19832Y-16742D01*
X-19842Y-16714D01*
X-19842Y-16695D01*
X-19832Y-16667D01*
X-19823Y-16657D01*
X-19842Y-16592D02*
X-19842Y-16470D01*
X-19767Y-16535D01*
X-19767Y-16507D01*
X-19757Y-16488D01*
X-19748Y-16479D01*
X-19729Y-16470D01*
X-19682Y-16470D01*
X-19664Y-16479D01*
X-19654Y-16488D01*
X-19645Y-16507D01*
X-19645Y-16564D01*
X-19654Y-16582D01*
X-19664Y-16592D01*
G54D15*
X-14659Y-3076D02*
X-14659Y-3278D01*
X-14647Y-3302D01*
X-14635Y-3314D01*
X-14611Y-3326D01*
X-14564Y-3326D01*
X-14540Y-3314D01*
X-14528Y-3302D01*
X-14516Y-3278D01*
X-14516Y-3076D01*
X-14266Y-3326D02*
X-14409Y-3326D01*
X-14338Y-3326D02*
X-14338Y-3076D01*
X-14361Y-3111D01*
X-14385Y-3135D01*
X-14409Y-3147D01*
X-14111Y-3076D02*
X-14088Y-3076D01*
X-14064Y-3088D01*
X-14052Y-3100D01*
X-14040Y-3123D01*
X-14028Y-3171D01*
X-14028Y-3230D01*
X-14040Y-3278D01*
X-14052Y-3302D01*
X-14064Y-3314D01*
X-14088Y-3326D01*
X-14111Y-3326D01*
X-14135Y-3314D01*
X-14147Y-3302D01*
X-14159Y-3278D01*
X-14171Y-3230D01*
X-14171Y-3171D01*
X-14159Y-3123D01*
X-14147Y-3100D01*
X-14135Y-3088D01*
X-14111Y-3076D01*
G54D23*
X-21282Y-8354D02*
X-21348Y-8260D01*
X-21395Y-8354D02*
X-21395Y-8157D01*
X-21320Y-8157D01*
X-21301Y-8167D01*
X-21292Y-8176D01*
X-21282Y-8195D01*
X-21282Y-8223D01*
X-21292Y-8242D01*
X-21301Y-8251D01*
X-21320Y-8260D01*
X-21395Y-8260D01*
X-21189Y-8354D02*
X-21151Y-8354D01*
X-21132Y-8345D01*
X-21123Y-8335D01*
X-21104Y-8307D01*
X-21095Y-8270D01*
X-21095Y-8195D01*
X-21104Y-8176D01*
X-21113Y-8167D01*
X-21132Y-8157D01*
X-21170Y-8157D01*
X-21189Y-8167D01*
X-21198Y-8176D01*
X-21207Y-8195D01*
X-21207Y-8242D01*
X-21198Y-8260D01*
X-21189Y-8270D01*
X-21170Y-8279D01*
X-21132Y-8279D01*
X-21113Y-8270D01*
X-21104Y-8260D01*
X-21095Y-8242D01*
G54D11*
X-23415Y-16080D02*
X-23475Y-15985D01*
X-23518Y-16080D02*
X-23518Y-15880D01*
X-23450Y-15880D01*
X-23432Y-15890D01*
X-23424Y-15900D01*
X-23415Y-15919D01*
X-23415Y-15947D01*
X-23424Y-15966D01*
X-23432Y-15976D01*
X-23450Y-15985D01*
X-23518Y-15985D01*
X-23347Y-15900D02*
X-23338Y-15890D01*
X-23321Y-15880D01*
X-23278Y-15880D01*
X-23261Y-15890D01*
X-23252Y-15900D01*
X-23244Y-15919D01*
X-23244Y-15938D01*
X-23252Y-15966D01*
X-23355Y-16080D01*
X-23244Y-16080D01*
X-23072Y-16080D02*
X-23175Y-16080D01*
X-23124Y-16080D02*
X-23124Y-15880D01*
X-23141Y-15909D01*
X-23158Y-15928D01*
X-23175Y-15938D01*
X-23415Y-5580D02*
X-23475Y-5485D01*
X-23518Y-5580D02*
X-23518Y-5380D01*
X-23450Y-5380D01*
X-23432Y-5390D01*
X-23424Y-5400D01*
X-23415Y-5419D01*
X-23415Y-5447D01*
X-23424Y-5466D01*
X-23432Y-5476D01*
X-23450Y-5485D01*
X-23518Y-5485D01*
X-23244Y-5580D02*
X-23347Y-5580D01*
X-23295Y-5580D02*
X-23295Y-5380D01*
X-23312Y-5409D01*
X-23330Y-5428D01*
X-23347Y-5438D01*
X-23090Y-5447D02*
X-23090Y-5580D01*
X-23132Y-5371D02*
X-23175Y-5514D01*
X-23064Y-5514D01*
X-23415Y-14580D02*
X-23475Y-14485D01*
X-23518Y-14580D02*
X-23518Y-14380D01*
X-23450Y-14380D01*
X-23432Y-14390D01*
X-23424Y-14400D01*
X-23415Y-14419D01*
X-23415Y-14447D01*
X-23424Y-14466D01*
X-23432Y-14476D01*
X-23450Y-14485D01*
X-23518Y-14485D01*
X-23347Y-14400D02*
X-23338Y-14390D01*
X-23321Y-14380D01*
X-23278Y-14380D01*
X-23261Y-14390D01*
X-23252Y-14400D01*
X-23244Y-14419D01*
X-23244Y-14438D01*
X-23252Y-14466D01*
X-23355Y-14580D01*
X-23244Y-14580D01*
X-23132Y-14380D02*
X-23115Y-14380D01*
X-23098Y-14390D01*
X-23090Y-14400D01*
X-23081Y-14419D01*
X-23072Y-14457D01*
X-23072Y-14504D01*
X-23081Y-14542D01*
X-23090Y-14561D01*
X-23098Y-14571D01*
X-23115Y-14580D01*
X-23132Y-14580D01*
X-23150Y-14571D01*
X-23158Y-14561D01*
X-23167Y-14542D01*
X-23175Y-14504D01*
X-23175Y-14457D01*
X-23167Y-14419D01*
X-23158Y-14400D01*
X-23150Y-14390D01*
X-23132Y-14380D01*
X-23415Y-13080D02*
X-23475Y-12985D01*
X-23518Y-13080D02*
X-23518Y-12880D01*
X-23450Y-12880D01*
X-23432Y-12890D01*
X-23424Y-12900D01*
X-23415Y-12919D01*
X-23415Y-12947D01*
X-23424Y-12966D01*
X-23432Y-12976D01*
X-23450Y-12985D01*
X-23518Y-12985D01*
X-23244Y-13080D02*
X-23347Y-13080D01*
X-23295Y-13080D02*
X-23295Y-12880D01*
X-23312Y-12909D01*
X-23330Y-12928D01*
X-23347Y-12938D01*
X-23158Y-13080D02*
X-23124Y-13080D01*
X-23107Y-13071D01*
X-23098Y-13061D01*
X-23081Y-13033D01*
X-23072Y-12995D01*
X-23072Y-12919D01*
X-23081Y-12900D01*
X-23090Y-12890D01*
X-23107Y-12880D01*
X-23141Y-12880D01*
X-23158Y-12890D01*
X-23167Y-12900D01*
X-23175Y-12919D01*
X-23175Y-12966D01*
X-23167Y-12985D01*
X-23158Y-12995D01*
X-23141Y-13004D01*
X-23107Y-13004D01*
X-23090Y-12995D01*
X-23081Y-12985D01*
X-23072Y-12966D01*
X-23415Y-11555D02*
X-23475Y-11460D01*
X-23518Y-11555D02*
X-23518Y-11355D01*
X-23450Y-11355D01*
X-23432Y-11365D01*
X-23424Y-11375D01*
X-23415Y-11394D01*
X-23415Y-11422D01*
X-23424Y-11441D01*
X-23432Y-11451D01*
X-23450Y-11460D01*
X-23518Y-11460D01*
X-23244Y-11555D02*
X-23347Y-11555D01*
X-23295Y-11555D02*
X-23295Y-11355D01*
X-23312Y-11384D01*
X-23330Y-11403D01*
X-23347Y-11413D01*
X-23141Y-11441D02*
X-23158Y-11432D01*
X-23167Y-11422D01*
X-23175Y-11403D01*
X-23175Y-11394D01*
X-23167Y-11375D01*
X-23158Y-11365D01*
X-23141Y-11355D01*
X-23107Y-11355D01*
X-23090Y-11365D01*
X-23081Y-11375D01*
X-23072Y-11394D01*
X-23072Y-11403D01*
X-23081Y-11422D01*
X-23090Y-11432D01*
X-23107Y-11441D01*
X-23141Y-11441D01*
X-23158Y-11451D01*
X-23167Y-11460D01*
X-23175Y-11479D01*
X-23175Y-11517D01*
X-23167Y-11536D01*
X-23158Y-11546D01*
X-23141Y-11555D01*
X-23107Y-11555D01*
X-23090Y-11546D01*
X-23081Y-11536D01*
X-23072Y-11517D01*
X-23072Y-11479D01*
X-23081Y-11460D01*
X-23090Y-11451D01*
X-23107Y-11441D01*
X-23415Y-10105D02*
X-23475Y-10010D01*
X-23518Y-10105D02*
X-23518Y-9905D01*
X-23450Y-9905D01*
X-23432Y-9915D01*
X-23424Y-9925D01*
X-23415Y-9944D01*
X-23415Y-9972D01*
X-23424Y-9991D01*
X-23432Y-10001D01*
X-23450Y-10010D01*
X-23518Y-10010D01*
X-23244Y-10105D02*
X-23347Y-10105D01*
X-23295Y-10105D02*
X-23295Y-9905D01*
X-23312Y-9934D01*
X-23330Y-9953D01*
X-23347Y-9963D01*
X-23184Y-9905D02*
X-23064Y-9905D01*
X-23141Y-10105D01*
X-23415Y-8555D02*
X-23475Y-8460D01*
X-23518Y-8555D02*
X-23518Y-8355D01*
X-23450Y-8355D01*
X-23432Y-8365D01*
X-23424Y-8375D01*
X-23415Y-8394D01*
X-23415Y-8422D01*
X-23424Y-8441D01*
X-23432Y-8451D01*
X-23450Y-8460D01*
X-23518Y-8460D01*
X-23244Y-8555D02*
X-23347Y-8555D01*
X-23295Y-8555D02*
X-23295Y-8355D01*
X-23312Y-8384D01*
X-23330Y-8403D01*
X-23347Y-8413D01*
X-23090Y-8355D02*
X-23124Y-8355D01*
X-23141Y-8365D01*
X-23150Y-8375D01*
X-23167Y-8403D01*
X-23175Y-8441D01*
X-23175Y-8517D01*
X-23167Y-8536D01*
X-23158Y-8546D01*
X-23141Y-8555D01*
X-23107Y-8555D01*
X-23090Y-8546D01*
X-23081Y-8536D01*
X-23072Y-8517D01*
X-23072Y-8470D01*
X-23081Y-8451D01*
X-23090Y-8441D01*
X-23107Y-8432D01*
X-23141Y-8432D01*
X-23158Y-8441D01*
X-23167Y-8451D01*
X-23175Y-8470D01*
X-23415Y-7080D02*
X-23475Y-6985D01*
X-23518Y-7080D02*
X-23518Y-6880D01*
X-23450Y-6880D01*
X-23432Y-6890D01*
X-23424Y-6900D01*
X-23415Y-6919D01*
X-23415Y-6947D01*
X-23424Y-6966D01*
X-23432Y-6976D01*
X-23450Y-6985D01*
X-23518Y-6985D01*
X-23244Y-7080D02*
X-23347Y-7080D01*
X-23295Y-7080D02*
X-23295Y-6880D01*
X-23312Y-6909D01*
X-23330Y-6928D01*
X-23347Y-6938D01*
X-23081Y-6880D02*
X-23167Y-6880D01*
X-23175Y-6976D01*
X-23167Y-6966D01*
X-23150Y-6957D01*
X-23107Y-6957D01*
X-23090Y-6966D01*
X-23081Y-6976D01*
X-23072Y-6995D01*
X-23072Y-7042D01*
X-23081Y-7061D01*
X-23090Y-7071D01*
X-23107Y-7080D01*
X-23150Y-7080D01*
X-23167Y-7071D01*
X-23175Y-7061D01*
X-23415Y-12311D02*
X-23424Y-12321D01*
X-23450Y-12330D01*
X-23467Y-12330D01*
X-23492Y-12321D01*
X-23510Y-12302D01*
X-23518Y-12283D01*
X-23527Y-12245D01*
X-23527Y-12216D01*
X-23518Y-12178D01*
X-23510Y-12159D01*
X-23492Y-12140D01*
X-23467Y-12130D01*
X-23450Y-12130D01*
X-23424Y-12140D01*
X-23415Y-12150D01*
X-23347Y-12150D02*
X-23338Y-12140D01*
X-23321Y-12130D01*
X-23278Y-12130D01*
X-23261Y-12140D01*
X-23252Y-12150D01*
X-23244Y-12169D01*
X-23244Y-12188D01*
X-23252Y-12216D01*
X-23355Y-12330D01*
X-23244Y-12330D01*
X-23081Y-12130D02*
X-23167Y-12130D01*
X-23175Y-12226D01*
X-23167Y-12216D01*
X-23150Y-12207D01*
X-23107Y-12207D01*
X-23090Y-12216D01*
X-23081Y-12226D01*
X-23072Y-12245D01*
X-23072Y-12292D01*
X-23081Y-12311D01*
X-23090Y-12321D01*
X-23107Y-12330D01*
X-23150Y-12330D01*
X-23167Y-12321D01*
X-23175Y-12311D01*
X-13763Y-8715D02*
X-13753Y-8724D01*
X-13744Y-8750D01*
X-13744Y-8767D01*
X-13753Y-8792D01*
X-13772Y-8810D01*
X-13791Y-8818D01*
X-13829Y-8827D01*
X-13858Y-8827D01*
X-13896Y-8818D01*
X-13915Y-8810D01*
X-13934Y-8792D01*
X-13944Y-8767D01*
X-13944Y-8750D01*
X-13934Y-8724D01*
X-13925Y-8715D01*
X-13744Y-8544D02*
X-13744Y-8647D01*
X-13744Y-8595D02*
X-13944Y-8595D01*
X-13915Y-8612D01*
X-13896Y-8630D01*
X-13886Y-8647D01*
X-13944Y-8390D02*
X-13944Y-8424D01*
X-13934Y-8441D01*
X-13925Y-8450D01*
X-13896Y-8467D01*
X-13858Y-8475D01*
X-13782Y-8475D01*
X-13763Y-8467D01*
X-13753Y-8458D01*
X-13744Y-8441D01*
X-13744Y-8407D01*
X-13753Y-8390D01*
X-13763Y-8381D01*
X-13782Y-8372D01*
X-13829Y-8372D01*
X-13848Y-8381D01*
X-13858Y-8390D01*
X-13867Y-8407D01*
X-13867Y-8441D01*
X-13858Y-8458D01*
X-13848Y-8467D01*
X-13829Y-8475D01*
X-23415Y-4105D02*
X-23475Y-4010D01*
X-23518Y-4105D02*
X-23518Y-3905D01*
X-23450Y-3905D01*
X-23432Y-3915D01*
X-23424Y-3925D01*
X-23415Y-3944D01*
X-23415Y-3972D01*
X-23424Y-3991D01*
X-23432Y-4001D01*
X-23450Y-4010D01*
X-23518Y-4010D01*
X-23244Y-4105D02*
X-23347Y-4105D01*
X-23295Y-4105D02*
X-23295Y-3905D01*
X-23312Y-3934D01*
X-23330Y-3953D01*
X-23347Y-3963D01*
X-23175Y-3925D02*
X-23167Y-3915D01*
X-23150Y-3905D01*
X-23107Y-3905D01*
X-23090Y-3915D01*
X-23081Y-3925D01*
X-23072Y-3944D01*
X-23072Y-3963D01*
X-23081Y-3991D01*
X-23184Y-4105D01*
X-23072Y-4105D01*
X-23415Y-2605D02*
X-23475Y-2510D01*
X-23518Y-2605D02*
X-23518Y-2405D01*
X-23450Y-2405D01*
X-23432Y-2415D01*
X-23424Y-2425D01*
X-23415Y-2444D01*
X-23415Y-2472D01*
X-23424Y-2491D01*
X-23432Y-2501D01*
X-23450Y-2510D01*
X-23518Y-2510D01*
X-23244Y-2605D02*
X-23347Y-2605D01*
X-23295Y-2605D02*
X-23295Y-2405D01*
X-23312Y-2434D01*
X-23330Y-2453D01*
X-23347Y-2463D01*
X-23072Y-2605D02*
X-23175Y-2605D01*
X-23124Y-2605D02*
X-23124Y-2405D01*
X-23141Y-2434D01*
X-23158Y-2453D01*
X-23175Y-2463D01*
X-23415Y-4855D02*
X-23475Y-4760D01*
X-23518Y-4855D02*
X-23518Y-4655D01*
X-23450Y-4655D01*
X-23432Y-4665D01*
X-23424Y-4675D01*
X-23415Y-4694D01*
X-23415Y-4722D01*
X-23424Y-4741D01*
X-23432Y-4751D01*
X-23450Y-4760D01*
X-23518Y-4760D01*
X-23244Y-4855D02*
X-23347Y-4855D01*
X-23295Y-4855D02*
X-23295Y-4655D01*
X-23312Y-4684D01*
X-23330Y-4703D01*
X-23347Y-4713D01*
X-23184Y-4655D02*
X-23072Y-4655D01*
X-23132Y-4732D01*
X-23107Y-4732D01*
X-23090Y-4741D01*
X-23081Y-4751D01*
X-23072Y-4770D01*
X-23072Y-4817D01*
X-23081Y-4836D01*
X-23090Y-4846D01*
X-23107Y-4855D01*
X-23158Y-4855D01*
X-23175Y-4846D01*
X-23184Y-4836D01*
X-4815Y-9211D02*
X-4824Y-9221D01*
X-4850Y-9230D01*
X-4867Y-9230D01*
X-4892Y-9221D01*
X-4910Y-9202D01*
X-4918Y-9183D01*
X-4927Y-9145D01*
X-4927Y-9116D01*
X-4918Y-9078D01*
X-4910Y-9059D01*
X-4892Y-9040D01*
X-4867Y-9030D01*
X-4850Y-9030D01*
X-4824Y-9040D01*
X-4815Y-9050D01*
X-4755Y-9030D02*
X-4644Y-9030D01*
X-4704Y-9107D01*
X-4678Y-9107D01*
X-4661Y-9116D01*
X-4652Y-9126D01*
X-4644Y-9145D01*
X-4644Y-9192D01*
X-4652Y-9211D01*
X-4661Y-9221D01*
X-4678Y-9230D01*
X-4730Y-9230D01*
X-4747Y-9221D01*
X-4755Y-9211D01*
X-4584Y-9030D02*
X-4472Y-9030D01*
X-4532Y-9107D01*
X-4507Y-9107D01*
X-4490Y-9116D01*
X-4481Y-9126D01*
X-4472Y-9145D01*
X-4472Y-9192D01*
X-4481Y-9211D01*
X-4490Y-9221D01*
X-4507Y-9230D01*
X-4558Y-9230D01*
X-4575Y-9221D01*
X-4584Y-9211D01*
X-4940Y-7011D02*
X-4949Y-7021D01*
X-4975Y-7030D01*
X-4992Y-7030D01*
X-5017Y-7021D01*
X-5035Y-7002D01*
X-5043Y-6983D01*
X-5052Y-6945D01*
X-5052Y-6916D01*
X-5043Y-6878D01*
X-5035Y-6859D01*
X-5017Y-6840D01*
X-4992Y-6830D01*
X-4975Y-6830D01*
X-4949Y-6840D01*
X-4940Y-6850D01*
X-4880Y-6830D02*
X-4769Y-6830D01*
X-4829Y-6907D01*
X-4803Y-6907D01*
X-4786Y-6916D01*
X-4777Y-6926D01*
X-4769Y-6945D01*
X-4769Y-6992D01*
X-4777Y-7011D01*
X-4786Y-7021D01*
X-4803Y-7030D01*
X-4855Y-7030D01*
X-4872Y-7021D01*
X-4880Y-7011D01*
X-4657Y-6830D02*
X-4640Y-6830D01*
X-4623Y-6840D01*
X-4615Y-6850D01*
X-4606Y-6869D01*
X-4597Y-6907D01*
X-4597Y-6954D01*
X-4606Y-6992D01*
X-4615Y-7011D01*
X-4623Y-7021D01*
X-4640Y-7030D01*
X-4657Y-7030D01*
X-4675Y-7021D01*
X-4683Y-7011D01*
X-4692Y-6992D01*
X-4700Y-6954D01*
X-4700Y-6907D01*
X-4692Y-6869D01*
X-4683Y-6850D01*
X-4675Y-6840D01*
X-4657Y-6830D01*
X-6713Y-2515D02*
X-6703Y-2524D01*
X-6694Y-2550D01*
X-6694Y-2567D01*
X-6703Y-2592D01*
X-6722Y-2610D01*
X-6741Y-2618D01*
X-6779Y-2627D01*
X-6808Y-2627D01*
X-6846Y-2618D01*
X-6865Y-2610D01*
X-6884Y-2592D01*
X-6894Y-2567D01*
X-6894Y-2550D01*
X-6884Y-2524D01*
X-6875Y-2515D01*
X-6875Y-2447D02*
X-6884Y-2438D01*
X-6894Y-2421D01*
X-6894Y-2378D01*
X-6884Y-2361D01*
X-6875Y-2352D01*
X-6855Y-2344D01*
X-6836Y-2344D01*
X-6808Y-2352D01*
X-6694Y-2455D01*
X-6694Y-2344D01*
X-6694Y-2258D02*
X-6694Y-2224D01*
X-6703Y-2207D01*
X-6713Y-2198D01*
X-6741Y-2181D01*
X-6779Y-2172D01*
X-6855Y-2172D01*
X-6875Y-2181D01*
X-6884Y-2190D01*
X-6894Y-2207D01*
X-6894Y-2241D01*
X-6884Y-2258D01*
X-6875Y-2267D01*
X-6855Y-2275D01*
X-6808Y-2275D01*
X-6789Y-2267D01*
X-6779Y-2258D01*
X-6770Y-2241D01*
X-6770Y-2207D01*
X-6779Y-2190D01*
X-6789Y-2181D01*
X-6808Y-2172D01*
X-23415Y-16811D02*
X-23424Y-16821D01*
X-23450Y-16830D01*
X-23467Y-16830D01*
X-23492Y-16821D01*
X-23510Y-16802D01*
X-23518Y-16783D01*
X-23527Y-16745D01*
X-23527Y-16716D01*
X-23518Y-16678D01*
X-23510Y-16659D01*
X-23492Y-16640D01*
X-23467Y-16630D01*
X-23450Y-16630D01*
X-23424Y-16640D01*
X-23415Y-16650D01*
X-23347Y-16650D02*
X-23338Y-16640D01*
X-23321Y-16630D01*
X-23278Y-16630D01*
X-23261Y-16640D01*
X-23252Y-16650D01*
X-23244Y-16669D01*
X-23244Y-16688D01*
X-23252Y-16716D01*
X-23355Y-16830D01*
X-23244Y-16830D01*
X-23141Y-16716D02*
X-23158Y-16707D01*
X-23167Y-16697D01*
X-23175Y-16678D01*
X-23175Y-16669D01*
X-23167Y-16650D01*
X-23158Y-16640D01*
X-23141Y-16630D01*
X-23107Y-16630D01*
X-23090Y-16640D01*
X-23081Y-16650D01*
X-23072Y-16669D01*
X-23072Y-16678D01*
X-23081Y-16697D01*
X-23090Y-16707D01*
X-23107Y-16716D01*
X-23141Y-16716D01*
X-23158Y-16726D01*
X-23167Y-16735D01*
X-23175Y-16754D01*
X-23175Y-16792D01*
X-23167Y-16811D01*
X-23158Y-16821D01*
X-23141Y-16830D01*
X-23107Y-16830D01*
X-23090Y-16821D01*
X-23081Y-16811D01*
X-23072Y-16792D01*
X-23072Y-16754D01*
X-23081Y-16735D01*
X-23090Y-16726D01*
X-23107Y-16716D01*
X-7513Y-2515D02*
X-7503Y-2524D01*
X-7494Y-2550D01*
X-7494Y-2567D01*
X-7503Y-2592D01*
X-7522Y-2610D01*
X-7541Y-2618D01*
X-7579Y-2627D01*
X-7608Y-2627D01*
X-7646Y-2618D01*
X-7665Y-2610D01*
X-7684Y-2592D01*
X-7694Y-2567D01*
X-7694Y-2550D01*
X-7684Y-2524D01*
X-7675Y-2515D01*
X-7694Y-2455D02*
X-7694Y-2344D01*
X-7617Y-2404D01*
X-7617Y-2378D01*
X-7608Y-2361D01*
X-7598Y-2352D01*
X-7579Y-2344D01*
X-7532Y-2344D01*
X-7513Y-2352D01*
X-7503Y-2361D01*
X-7494Y-2378D01*
X-7494Y-2430D01*
X-7503Y-2447D01*
X-7513Y-2455D01*
X-7627Y-2190D02*
X-7494Y-2190D01*
X-7703Y-2232D02*
X-7560Y-2275D01*
X-7560Y-2164D01*
X-5844Y-11090D02*
X-5939Y-11150D01*
X-5844Y-11193D02*
X-6044Y-11193D01*
X-6044Y-11125D01*
X-6034Y-11107D01*
X-6025Y-11099D01*
X-6005Y-11090D01*
X-5977Y-11090D01*
X-5958Y-11099D01*
X-5948Y-11107D01*
X-5939Y-11125D01*
X-5939Y-11193D01*
X-6025Y-11022D02*
X-6034Y-11013D01*
X-6044Y-10996D01*
X-6044Y-10953D01*
X-6034Y-10936D01*
X-6025Y-10927D01*
X-6005Y-10919D01*
X-5986Y-10919D01*
X-5958Y-10927D01*
X-5844Y-11030D01*
X-5844Y-10919D01*
X-5977Y-10765D02*
X-5844Y-10765D01*
X-6053Y-10807D02*
X-5910Y-10850D01*
X-5910Y-10739D01*
X2484Y-361D02*
X2475Y-371D01*
X2450Y-380D01*
X2432Y-380D01*
X2407Y-371D01*
X2390Y-352D01*
X2381Y-333D01*
X2372Y-295D01*
X2372Y-266D01*
X2381Y-228D01*
X2390Y-209D01*
X2407Y-190D01*
X2432Y-180D01*
X2450Y-180D01*
X2475Y-190D01*
X2484Y-200D01*
X2544Y-180D02*
X2655Y-180D01*
X2595Y-257D01*
X2621Y-257D01*
X2638Y-266D01*
X2647Y-276D01*
X2655Y-295D01*
X2655Y-342D01*
X2647Y-361D01*
X2638Y-371D01*
X2621Y-380D01*
X2570Y-380D01*
X2552Y-371D01*
X2544Y-361D01*
X2818Y-180D02*
X2732Y-180D01*
X2724Y-276D01*
X2732Y-266D01*
X2750Y-257D01*
X2792Y-257D01*
X2810Y-266D01*
X2818Y-276D01*
X2827Y-295D01*
X2827Y-342D01*
X2818Y-361D01*
X2810Y-371D01*
X2792Y-380D01*
X2750Y-380D01*
X2732Y-371D01*
X2724Y-361D01*
X-16990Y-6886D02*
X-16999Y-6896D01*
X-17025Y-6905D01*
X-17042Y-6905D01*
X-17067Y-6896D01*
X-17085Y-6877D01*
X-17093Y-6858D01*
X-17102Y-6820D01*
X-17102Y-6791D01*
X-17093Y-6753D01*
X-17085Y-6734D01*
X-17067Y-6715D01*
X-17042Y-6705D01*
X-17025Y-6705D01*
X-16999Y-6715D01*
X-16990Y-6725D01*
X-16819Y-6905D02*
X-16922Y-6905D01*
X-16870Y-6905D02*
X-16870Y-6705D01*
X-16887Y-6734D01*
X-16905Y-6753D01*
X-16922Y-6763D01*
X-16750Y-6725D02*
X-16742Y-6715D01*
X-16725Y-6705D01*
X-16682Y-6705D01*
X-16665Y-6715D01*
X-16656Y-6725D01*
X-16647Y-6744D01*
X-16647Y-6763D01*
X-16656Y-6791D01*
X-16759Y-6905D01*
X-16647Y-6905D01*
X-9869Y-3005D02*
X-9964Y-3065D01*
X-9869Y-3107D02*
X-10069Y-3107D01*
X-10069Y-3039D01*
X-10059Y-3022D01*
X-10050Y-3013D01*
X-10030Y-3005D01*
X-10002Y-3005D01*
X-9983Y-3013D01*
X-9973Y-3022D01*
X-9964Y-3039D01*
X-9964Y-3107D01*
X-10069Y-2850D02*
X-10069Y-2885D01*
X-10059Y-2902D01*
X-10050Y-2910D01*
X-10021Y-2927D01*
X-9983Y-2936D01*
X-9907Y-2936D01*
X-9888Y-2927D01*
X-9878Y-2919D01*
X-9869Y-2902D01*
X-9869Y-2867D01*
X-9878Y-2850D01*
X-9888Y-2842D01*
X-9907Y-2833D01*
X-9954Y-2833D01*
X-9973Y-2842D01*
X-9983Y-2850D01*
X-9992Y-2867D01*
X-9992Y-2902D01*
X-9983Y-2919D01*
X-9973Y-2927D01*
X-9954Y-2936D01*
X-10694Y-3005D02*
X-10789Y-3065D01*
X-10694Y-3107D02*
X-10894Y-3107D01*
X-10894Y-3039D01*
X-10884Y-3022D01*
X-10875Y-3013D01*
X-10855Y-3005D01*
X-10827Y-3005D01*
X-10808Y-3013D01*
X-10798Y-3022D01*
X-10789Y-3039D01*
X-10789Y-3107D01*
X-10894Y-2842D02*
X-10894Y-2927D01*
X-10798Y-2936D01*
X-10808Y-2927D01*
X-10817Y-2910D01*
X-10817Y-2867D01*
X-10808Y-2850D01*
X-10798Y-2842D01*
X-10779Y-2833D01*
X-10732Y-2833D01*
X-10713Y-2842D01*
X-10703Y-2850D01*
X-10694Y-2867D01*
X-10694Y-2910D01*
X-10703Y-2927D01*
X-10713Y-2936D01*
X-18688Y-16530D02*
X-18678Y-16538D01*
X-18669Y-16564D01*
X-18669Y-16581D01*
X-18678Y-16607D01*
X-18697Y-16624D01*
X-18716Y-16632D01*
X-18754Y-16641D01*
X-18783Y-16641D01*
X-18821Y-16632D01*
X-18840Y-16624D01*
X-18859Y-16607D01*
X-18869Y-16581D01*
X-18869Y-16564D01*
X-18859Y-16538D01*
X-18850Y-16530D01*
X-18802Y-16375D02*
X-18669Y-16375D01*
X-18878Y-16418D02*
X-18735Y-16461D01*
X-18735Y-16350D01*
X-17538Y-6130D02*
X-17528Y-6138D01*
X-17519Y-6164D01*
X-17519Y-6181D01*
X-17528Y-6207D01*
X-17547Y-6224D01*
X-17566Y-6232D01*
X-17604Y-6241D01*
X-17633Y-6241D01*
X-17671Y-6232D01*
X-17690Y-6224D01*
X-17709Y-6207D01*
X-17719Y-6181D01*
X-17719Y-6164D01*
X-17709Y-6138D01*
X-17700Y-6130D01*
X-17719Y-5967D02*
X-17719Y-6052D01*
X-17623Y-6061D01*
X-17633Y-6052D01*
X-17642Y-6035D01*
X-17642Y-5992D01*
X-17633Y-5975D01*
X-17623Y-5967D01*
X-17604Y-5958D01*
X-17557Y-5958D01*
X-17538Y-5967D01*
X-17528Y-5975D01*
X-17519Y-5992D01*
X-17519Y-6035D01*
X-17528Y-6052D01*
X-17538Y-6061D01*
X-18288Y-6130D02*
X-18278Y-6138D01*
X-18269Y-6164D01*
X-18269Y-6181D01*
X-18278Y-6207D01*
X-18297Y-6224D01*
X-18316Y-6232D01*
X-18354Y-6241D01*
X-18383Y-6241D01*
X-18421Y-6232D01*
X-18440Y-6224D01*
X-18459Y-6207D01*
X-18469Y-6181D01*
X-18469Y-6164D01*
X-18459Y-6138D01*
X-18450Y-6130D01*
X-18469Y-5975D02*
X-18469Y-6010D01*
X-18459Y-6027D01*
X-18450Y-6035D01*
X-18421Y-6052D01*
X-18383Y-6061D01*
X-18307Y-6061D01*
X-18288Y-6052D01*
X-18278Y-6044D01*
X-18269Y-6027D01*
X-18269Y-5992D01*
X-18278Y-5975D01*
X-18288Y-5967D01*
X-18307Y-5958D01*
X-18354Y-5958D01*
X-18373Y-5967D01*
X-18383Y-5975D01*
X-18392Y-5992D01*
X-18392Y-6027D01*
X-18383Y-6044D01*
X-18373Y-6052D01*
X-18354Y-6061D01*
X-16990Y-7611D02*
X-16999Y-7621D01*
X-17025Y-7630D01*
X-17042Y-7630D01*
X-17067Y-7621D01*
X-17085Y-7602D01*
X-17093Y-7583D01*
X-17102Y-7545D01*
X-17102Y-7516D01*
X-17093Y-7478D01*
X-17085Y-7459D01*
X-17067Y-7440D01*
X-17042Y-7430D01*
X-17025Y-7430D01*
X-16999Y-7440D01*
X-16990Y-7450D01*
X-16819Y-7630D02*
X-16922Y-7630D01*
X-16870Y-7630D02*
X-16870Y-7430D01*
X-16887Y-7459D01*
X-16905Y-7478D01*
X-16922Y-7488D01*
X-16707Y-7430D02*
X-16690Y-7430D01*
X-16673Y-7440D01*
X-16665Y-7450D01*
X-16656Y-7469D01*
X-16647Y-7507D01*
X-16647Y-7554D01*
X-16656Y-7592D01*
X-16665Y-7611D01*
X-16673Y-7621D01*
X-16690Y-7630D01*
X-16707Y-7630D01*
X-16725Y-7621D01*
X-16733Y-7611D01*
X-16742Y-7592D01*
X-16750Y-7554D01*
X-16750Y-7507D01*
X-16742Y-7469D01*
X-16733Y-7450D01*
X-16725Y-7440D01*
X-16707Y-7430D01*
X-23415Y-15311D02*
X-23424Y-15321D01*
X-23450Y-15330D01*
X-23467Y-15330D01*
X-23492Y-15321D01*
X-23510Y-15302D01*
X-23518Y-15283D01*
X-23527Y-15245D01*
X-23527Y-15216D01*
X-23518Y-15178D01*
X-23510Y-15159D01*
X-23492Y-15140D01*
X-23467Y-15130D01*
X-23450Y-15130D01*
X-23424Y-15140D01*
X-23415Y-15150D01*
X-23347Y-15150D02*
X-23338Y-15140D01*
X-23321Y-15130D01*
X-23278Y-15130D01*
X-23261Y-15140D01*
X-23252Y-15150D01*
X-23244Y-15169D01*
X-23244Y-15188D01*
X-23252Y-15216D01*
X-23355Y-15330D01*
X-23244Y-15330D01*
X-23184Y-15130D02*
X-23064Y-15130D01*
X-23141Y-15330D01*
X-15013Y-9590D02*
X-15003Y-9599D01*
X-14994Y-9625D01*
X-14994Y-9642D01*
X-15003Y-9667D01*
X-15022Y-9685D01*
X-15041Y-9693D01*
X-15079Y-9702D01*
X-15108Y-9702D01*
X-15146Y-9693D01*
X-15165Y-9685D01*
X-15184Y-9667D01*
X-15194Y-9642D01*
X-15194Y-9625D01*
X-15184Y-9599D01*
X-15175Y-9590D01*
X-14994Y-9419D02*
X-14994Y-9522D01*
X-14994Y-9470D02*
X-15194Y-9470D01*
X-15165Y-9487D01*
X-15146Y-9505D01*
X-15136Y-9522D01*
X-15127Y-9265D02*
X-14994Y-9265D01*
X-15203Y-9307D02*
X-15060Y-9350D01*
X-15060Y-9239D01*
X-19088Y-6130D02*
X-19078Y-6138D01*
X-19069Y-6164D01*
X-19069Y-6181D01*
X-19078Y-6207D01*
X-19097Y-6224D01*
X-19116Y-6232D01*
X-19154Y-6241D01*
X-19183Y-6241D01*
X-19221Y-6232D01*
X-19240Y-6224D01*
X-19259Y-6207D01*
X-19269Y-6181D01*
X-19269Y-6164D01*
X-19259Y-6138D01*
X-19250Y-6130D01*
X-19069Y-6044D02*
X-19069Y-6010D01*
X-19078Y-5992D01*
X-19088Y-5984D01*
X-19116Y-5967D01*
X-19154Y-5958D01*
X-19230Y-5958D01*
X-19250Y-5967D01*
X-19259Y-5975D01*
X-19269Y-5992D01*
X-19269Y-6027D01*
X-19259Y-6044D01*
X-19250Y-6052D01*
X-19230Y-6061D01*
X-19183Y-6061D01*
X-19164Y-6052D01*
X-19154Y-6044D01*
X-19145Y-6027D01*
X-19145Y-5992D01*
X-19154Y-5975D01*
X-19164Y-5967D01*
X-19183Y-5958D01*
X-19838Y-6115D02*
X-19828Y-6124D01*
X-19819Y-6150D01*
X-19819Y-6167D01*
X-19828Y-6192D01*
X-19847Y-6210D01*
X-19866Y-6218D01*
X-19904Y-6227D01*
X-19933Y-6227D01*
X-19971Y-6218D01*
X-19990Y-6210D01*
X-20009Y-6192D01*
X-20019Y-6167D01*
X-20019Y-6150D01*
X-20009Y-6124D01*
X-20000Y-6115D01*
X-19819Y-5944D02*
X-19819Y-6047D01*
X-19819Y-5995D02*
X-20019Y-5995D01*
X-19990Y-6012D01*
X-19971Y-6030D01*
X-19961Y-6047D01*
X-19819Y-5772D02*
X-19819Y-5875D01*
X-19819Y-5824D02*
X-20019Y-5824D01*
X-19990Y-5841D01*
X-19971Y-5858D01*
X-19961Y-5875D01*
X-23440Y-13861D02*
X-23449Y-13871D01*
X-23475Y-13880D01*
X-23492Y-13880D01*
X-23517Y-13871D01*
X-23535Y-13852D01*
X-23543Y-13833D01*
X-23552Y-13795D01*
X-23552Y-13766D01*
X-23543Y-13728D01*
X-23535Y-13709D01*
X-23517Y-13690D01*
X-23492Y-13680D01*
X-23475Y-13680D01*
X-23449Y-13690D01*
X-23440Y-13700D01*
X-23372Y-13700D02*
X-23363Y-13690D01*
X-23346Y-13680D01*
X-23303Y-13680D01*
X-23286Y-13690D01*
X-23277Y-13700D01*
X-23269Y-13719D01*
X-23269Y-13738D01*
X-23277Y-13766D01*
X-23380Y-13880D01*
X-23269Y-13880D01*
X-23115Y-13680D02*
X-23149Y-13680D01*
X-23166Y-13690D01*
X-23175Y-13700D01*
X-23192Y-13728D01*
X-23200Y-13766D01*
X-23200Y-13842D01*
X-23192Y-13861D01*
X-23183Y-13871D01*
X-23166Y-13880D01*
X-23132Y-13880D01*
X-23115Y-13871D01*
X-23106Y-13861D01*
X-23097Y-13842D01*
X-23097Y-13795D01*
X-23106Y-13776D01*
X-23115Y-13766D01*
X-23132Y-13757D01*
X-23166Y-13757D01*
X-23183Y-13766D01*
X-23192Y-13776D01*
X-23200Y-13795D01*
X-23415Y-10811D02*
X-23424Y-10821D01*
X-23450Y-10830D01*
X-23467Y-10830D01*
X-23492Y-10821D01*
X-23510Y-10802D01*
X-23518Y-10783D01*
X-23527Y-10745D01*
X-23527Y-10716D01*
X-23518Y-10678D01*
X-23510Y-10659D01*
X-23492Y-10640D01*
X-23467Y-10630D01*
X-23450Y-10630D01*
X-23424Y-10640D01*
X-23415Y-10650D01*
X-23347Y-10650D02*
X-23338Y-10640D01*
X-23321Y-10630D01*
X-23278Y-10630D01*
X-23261Y-10640D01*
X-23252Y-10650D01*
X-23244Y-10669D01*
X-23244Y-10688D01*
X-23252Y-10716D01*
X-23355Y-10830D01*
X-23244Y-10830D01*
X-23090Y-10697D02*
X-23090Y-10830D01*
X-23132Y-10621D02*
X-23175Y-10764D01*
X-23064Y-10764D01*
X-23440Y-9336D02*
X-23449Y-9346D01*
X-23475Y-9355D01*
X-23492Y-9355D01*
X-23517Y-9346D01*
X-23535Y-9327D01*
X-23543Y-9308D01*
X-23552Y-9270D01*
X-23552Y-9241D01*
X-23543Y-9203D01*
X-23535Y-9184D01*
X-23517Y-9165D01*
X-23492Y-9155D01*
X-23475Y-9155D01*
X-23449Y-9165D01*
X-23440Y-9175D01*
X-23372Y-9175D02*
X-23363Y-9165D01*
X-23346Y-9155D01*
X-23303Y-9155D01*
X-23286Y-9165D01*
X-23277Y-9175D01*
X-23269Y-9194D01*
X-23269Y-9213D01*
X-23277Y-9241D01*
X-23380Y-9355D01*
X-23269Y-9355D01*
X-23209Y-9155D02*
X-23097Y-9155D01*
X-23157Y-9232D01*
X-23132Y-9232D01*
X-23115Y-9241D01*
X-23106Y-9251D01*
X-23097Y-9270D01*
X-23097Y-9317D01*
X-23106Y-9336D01*
X-23115Y-9346D01*
X-23132Y-9355D01*
X-23183Y-9355D01*
X-23200Y-9346D01*
X-23209Y-9336D01*
X-23415Y-7811D02*
X-23424Y-7821D01*
X-23450Y-7830D01*
X-23467Y-7830D01*
X-23492Y-7821D01*
X-23510Y-7802D01*
X-23518Y-7783D01*
X-23527Y-7745D01*
X-23527Y-7716D01*
X-23518Y-7678D01*
X-23510Y-7659D01*
X-23492Y-7640D01*
X-23467Y-7630D01*
X-23450Y-7630D01*
X-23424Y-7640D01*
X-23415Y-7650D01*
X-23347Y-7650D02*
X-23338Y-7640D01*
X-23321Y-7630D01*
X-23278Y-7630D01*
X-23261Y-7640D01*
X-23252Y-7650D01*
X-23244Y-7669D01*
X-23244Y-7688D01*
X-23252Y-7716D01*
X-23355Y-7830D01*
X-23244Y-7830D01*
X-23175Y-7650D02*
X-23167Y-7640D01*
X-23150Y-7630D01*
X-23107Y-7630D01*
X-23090Y-7640D01*
X-23081Y-7650D01*
X-23072Y-7669D01*
X-23072Y-7688D01*
X-23081Y-7716D01*
X-23184Y-7830D01*
X-23072Y-7830D01*
X-23415Y-6261D02*
X-23424Y-6271D01*
X-23450Y-6280D01*
X-23467Y-6280D01*
X-23492Y-6271D01*
X-23510Y-6252D01*
X-23518Y-6233D01*
X-23527Y-6195D01*
X-23527Y-6166D01*
X-23518Y-6128D01*
X-23510Y-6109D01*
X-23492Y-6090D01*
X-23467Y-6080D01*
X-23450Y-6080D01*
X-23424Y-6090D01*
X-23415Y-6100D01*
X-23347Y-6100D02*
X-23338Y-6090D01*
X-23321Y-6080D01*
X-23278Y-6080D01*
X-23261Y-6090D01*
X-23252Y-6100D01*
X-23244Y-6119D01*
X-23244Y-6138D01*
X-23252Y-6166D01*
X-23355Y-6280D01*
X-23244Y-6280D01*
X-23072Y-6280D02*
X-23175Y-6280D01*
X-23124Y-6280D02*
X-23124Y-6080D01*
X-23141Y-6109D01*
X-23158Y-6128D01*
X-23175Y-6138D01*
X-23415Y-3261D02*
X-23424Y-3271D01*
X-23450Y-3280D01*
X-23467Y-3280D01*
X-23492Y-3271D01*
X-23510Y-3252D01*
X-23518Y-3233D01*
X-23527Y-3195D01*
X-23527Y-3166D01*
X-23518Y-3128D01*
X-23510Y-3109D01*
X-23492Y-3090D01*
X-23467Y-3080D01*
X-23450Y-3080D01*
X-23424Y-3090D01*
X-23415Y-3100D01*
X-23347Y-3100D02*
X-23338Y-3090D01*
X-23321Y-3080D01*
X-23278Y-3080D01*
X-23261Y-3090D01*
X-23252Y-3100D01*
X-23244Y-3119D01*
X-23244Y-3138D01*
X-23252Y-3166D01*
X-23355Y-3280D01*
X-23244Y-3280D01*
X-23132Y-3080D02*
X-23115Y-3080D01*
X-23098Y-3090D01*
X-23090Y-3100D01*
X-23081Y-3119D01*
X-23072Y-3157D01*
X-23072Y-3204D01*
X-23081Y-3242D01*
X-23090Y-3261D01*
X-23098Y-3271D01*
X-23115Y-3280D01*
X-23132Y-3280D01*
X-23150Y-3271D01*
X-23158Y-3261D01*
X-23167Y-3242D01*
X-23175Y-3204D01*
X-23175Y-3157D01*
X-23167Y-3119D01*
X-23158Y-3100D01*
X-23150Y-3090D01*
X-23132Y-3080D01*
X-18013Y-3530D02*
X-18003Y-3538D01*
X-17994Y-3564D01*
X-17994Y-3581D01*
X-18003Y-3607D01*
X-18022Y-3624D01*
X-18041Y-3632D01*
X-18079Y-3641D01*
X-18108Y-3641D01*
X-18146Y-3632D01*
X-18165Y-3624D01*
X-18184Y-3607D01*
X-18194Y-3581D01*
X-18194Y-3564D01*
X-18184Y-3538D01*
X-18175Y-3530D01*
X-17994Y-3358D02*
X-17994Y-3461D01*
X-17994Y-3410D02*
X-18194Y-3410D01*
X-18165Y-3427D01*
X-18146Y-3444D01*
X-18136Y-3461D01*
X-4940Y-6330D02*
X-5000Y-6235D01*
X-5043Y-6330D02*
X-5043Y-6130D01*
X-4975Y-6130D01*
X-4957Y-6140D01*
X-4949Y-6150D01*
X-4940Y-6169D01*
X-4940Y-6197D01*
X-4949Y-6216D01*
X-4957Y-6226D01*
X-4975Y-6235D01*
X-5043Y-6235D01*
X-4769Y-6330D02*
X-4872Y-6330D01*
X-4820Y-6330D02*
X-4820Y-6130D01*
X-4837Y-6159D01*
X-4855Y-6178D01*
X-4872Y-6188D01*
X-4657Y-6130D02*
X-4640Y-6130D01*
X-4623Y-6140D01*
X-4615Y-6150D01*
X-4606Y-6169D01*
X-4597Y-6207D01*
X-4597Y-6254D01*
X-4606Y-6292D01*
X-4615Y-6311D01*
X-4623Y-6321D01*
X-4640Y-6330D01*
X-4657Y-6330D01*
X-4675Y-6321D01*
X-4683Y-6311D01*
X-4692Y-6292D01*
X-4700Y-6254D01*
X-4700Y-6207D01*
X-4692Y-6169D01*
X-4683Y-6150D01*
X-4675Y-6140D01*
X-4657Y-6130D01*
X-5919Y-2430D02*
X-6014Y-2490D01*
X-5919Y-2532D02*
X-6119Y-2532D01*
X-6119Y-2464D01*
X-6109Y-2447D01*
X-6100Y-2438D01*
X-6080Y-2430D01*
X-6052Y-2430D01*
X-6033Y-2438D01*
X-6023Y-2447D01*
X-6014Y-2464D01*
X-6014Y-2532D01*
X-6033Y-2327D02*
X-6042Y-2344D01*
X-6052Y-2352D01*
X-6071Y-2361D01*
X-6080Y-2361D01*
X-6100Y-2352D01*
X-6109Y-2344D01*
X-6119Y-2327D01*
X-6119Y-2292D01*
X-6109Y-2275D01*
X-6100Y-2267D01*
X-6080Y-2258D01*
X-6071Y-2258D01*
X-6052Y-2267D01*
X-6042Y-2275D01*
X-6033Y-2292D01*
X-6033Y-2327D01*
X-6023Y-2344D01*
X-6014Y-2352D01*
X-5995Y-2361D01*
X-5957Y-2361D01*
X-5938Y-2352D01*
X-5928Y-2344D01*
X-5919Y-2327D01*
X-5919Y-2292D01*
X-5928Y-2275D01*
X-5938Y-2267D01*
X-5957Y-2258D01*
X-5995Y-2258D01*
X-6014Y-2267D01*
X-6023Y-2275D01*
X-6033Y-2292D01*
X-12505Y-8705D02*
X-12565Y-8610D01*
X-12607Y-8705D02*
X-12607Y-8505D01*
X-12539Y-8505D01*
X-12522Y-8515D01*
X-12513Y-8525D01*
X-12505Y-8544D01*
X-12505Y-8572D01*
X-12513Y-8591D01*
X-12522Y-8601D01*
X-12539Y-8610D01*
X-12607Y-8610D01*
X-12445Y-8505D02*
X-12325Y-8505D01*
X-12402Y-8705D01*
X-21965Y-15511D02*
X-21974Y-15521D01*
X-22000Y-15530D01*
X-22017Y-15530D01*
X-22042Y-15521D01*
X-22060Y-15502D01*
X-22068Y-15483D01*
X-22077Y-15445D01*
X-22077Y-15416D01*
X-22068Y-15378D01*
X-22060Y-15359D01*
X-22042Y-15340D01*
X-22017Y-15330D01*
X-22000Y-15330D01*
X-21974Y-15340D01*
X-21965Y-15350D01*
X-21794Y-15530D02*
X-21897Y-15530D01*
X-21845Y-15530D02*
X-21845Y-15330D01*
X-21862Y-15359D01*
X-21880Y-15378D01*
X-21897Y-15388D01*
X-21631Y-15330D02*
X-21717Y-15330D01*
X-21725Y-15426D01*
X-21717Y-15416D01*
X-21700Y-15407D01*
X-21657Y-15407D01*
X-21640Y-15416D01*
X-21631Y-15426D01*
X-21622Y-15445D01*
X-21622Y-15492D01*
X-21631Y-15511D01*
X-21640Y-15521D01*
X-21657Y-15530D01*
X-21700Y-15530D01*
X-21717Y-15521D01*
X-21725Y-15511D01*
X-21965Y-14761D02*
X-21974Y-14771D01*
X-22000Y-14780D01*
X-22017Y-14780D01*
X-22042Y-14771D01*
X-22060Y-14752D01*
X-22068Y-14733D01*
X-22077Y-14695D01*
X-22077Y-14666D01*
X-22068Y-14628D01*
X-22060Y-14609D01*
X-22042Y-14590D01*
X-22017Y-14580D01*
X-22000Y-14580D01*
X-21974Y-14590D01*
X-21965Y-14600D01*
X-21794Y-14780D02*
X-21897Y-14780D01*
X-21845Y-14780D02*
X-21845Y-14580D01*
X-21862Y-14609D01*
X-21880Y-14628D01*
X-21897Y-14638D01*
X-21734Y-14580D02*
X-21622Y-14580D01*
X-21682Y-14657D01*
X-21657Y-14657D01*
X-21640Y-14666D01*
X-21631Y-14676D01*
X-21622Y-14695D01*
X-21622Y-14742D01*
X-21631Y-14761D01*
X-21640Y-14771D01*
X-21657Y-14780D01*
X-21708Y-14780D01*
X-21725Y-14771D01*
X-21734Y-14761D01*
G54D16*
X2161Y-3795D02*
X1761Y-3795D01*
X1761Y-3642D01*
X1780Y-3604D01*
X1800Y-3585D01*
X1838Y-3566D01*
X1895Y-3566D01*
X1933Y-3585D01*
X1952Y-3604D01*
X1971Y-3642D01*
X1971Y-3795D01*
X1761Y-3433D02*
X1761Y-3185D01*
X1914Y-3319D01*
X1914Y-3261D01*
X1933Y-3223D01*
X1952Y-3204D01*
X1990Y-3185D01*
X2085Y-3185D01*
X2123Y-3204D01*
X2142Y-3223D01*
X2161Y-3261D01*
X2161Y-3376D01*
X2142Y-3414D01*
X2123Y-3433D01*
X4761Y-3966D02*
X5047Y-3966D01*
X5104Y-3985D01*
X5142Y-4023D01*
X5161Y-4080D01*
X5161Y-4119D01*
X4761Y-3833D02*
X4761Y-3604D01*
X5161Y-3719D02*
X4761Y-3719D01*
X5047Y-3490D02*
X5047Y-3300D01*
X5161Y-3528D02*
X4761Y-3395D01*
X5161Y-3261D01*
X4780Y-2919D02*
X4761Y-2957D01*
X4761Y-3014D01*
X4780Y-3071D01*
X4819Y-3109D01*
X4857Y-3128D01*
X4933Y-3147D01*
X4990Y-3147D01*
X5066Y-3128D01*
X5104Y-3109D01*
X5142Y-3071D01*
X5161Y-3014D01*
X5161Y-2976D01*
X5142Y-2919D01*
X5123Y-2900D01*
X4990Y-2900D01*
X4990Y-2976D01*
X-26563Y-16395D02*
X-26963Y-16395D01*
X-26963Y-16242D01*
X-26944Y-16204D01*
X-26925Y-16185D01*
X-26886Y-16166D01*
X-26829Y-16166D01*
X-26791Y-16185D01*
X-26772Y-16204D01*
X-26753Y-16242D01*
X-26753Y-16395D01*
X-26925Y-16014D02*
X-26944Y-15995D01*
X-26963Y-15957D01*
X-26963Y-15861D01*
X-26944Y-15823D01*
X-26925Y-15804D01*
X-26886Y-15785D01*
X-26848Y-15785D01*
X-26791Y-15804D01*
X-26563Y-16033D01*
X-26563Y-15785D01*
G54D21*
X-20075Y-3265D02*
X-20075Y-3584D01*
X-20056Y-3621D01*
X-20037Y-3640D01*
X-20000Y-3659D01*
X-19925Y-3659D01*
X-19887Y-3640D01*
X-19868Y-3621D01*
X-19850Y-3584D01*
X-19850Y-3265D01*
X-19699Y-3265D02*
X-19456Y-3265D01*
X-19587Y-3415D01*
X-19531Y-3415D01*
X-19493Y-3434D01*
X-19474Y-3453D01*
X-19456Y-3490D01*
X-19456Y-3584D01*
X-19474Y-3621D01*
X-19493Y-3640D01*
X-19531Y-3659D01*
X-19643Y-3659D01*
X-19681Y-3640D01*
X-19699Y-3621D01*
G54D15*
X-2185Y-1930D02*
X-2138Y-2130D01*
X-2099Y-1988D01*
X-2061Y-2130D01*
X-2014Y-1930D01*
X-1938Y-2130D02*
X-1938Y-1930D01*
X-1861Y-1930D01*
X-1842Y-1940D01*
X-1833Y-1950D01*
X-1823Y-1969D01*
X-1823Y-1997D01*
X-1833Y-2016D01*
X-1842Y-2026D01*
X-1861Y-2035D01*
X-1938Y-2035D01*
G54D11*
X-15888Y-3565D02*
X-15878Y-3574D01*
X-15869Y-3600D01*
X-15869Y-3617D01*
X-15878Y-3642D01*
X-15897Y-3660D01*
X-15916Y-3668D01*
X-15954Y-3677D01*
X-15983Y-3677D01*
X-16021Y-3668D01*
X-16040Y-3660D01*
X-16059Y-3642D01*
X-16069Y-3617D01*
X-16069Y-3600D01*
X-16059Y-3574D01*
X-16050Y-3565D01*
X-16069Y-3505D02*
X-16069Y-3394D01*
X-15992Y-3454D01*
X-15992Y-3428D01*
X-15983Y-3411D01*
X-15973Y-3402D01*
X-15954Y-3394D01*
X-15907Y-3394D01*
X-15888Y-3402D01*
X-15878Y-3411D01*
X-15869Y-3428D01*
X-15869Y-3480D01*
X-15878Y-3497D01*
X-15888Y-3505D01*
X-16069Y-3240D02*
X-16069Y-3274D01*
X-16059Y-3291D01*
X-16050Y-3300D01*
X-16021Y-3317D01*
X-15983Y-3325D01*
X-15907Y-3325D01*
X-15888Y-3317D01*
X-15878Y-3308D01*
X-15869Y-3291D01*
X-15869Y-3257D01*
X-15878Y-3240D01*
X-15888Y-3231D01*
X-15907Y-3222D01*
X-15954Y-3222D01*
X-15973Y-3231D01*
X-15983Y-3240D01*
X-15992Y-3257D01*
X-15992Y-3291D01*
X-15983Y-3308D01*
X-15973Y-3317D01*
X-15954Y-3325D01*
X-15388Y-16505D02*
X-15378Y-16513D01*
X-15369Y-16539D01*
X-15369Y-16556D01*
X-15378Y-16582D01*
X-15397Y-16599D01*
X-15416Y-16607D01*
X-15454Y-16616D01*
X-15483Y-16616D01*
X-15521Y-16607D01*
X-15540Y-16599D01*
X-15559Y-16582D01*
X-15569Y-16556D01*
X-15569Y-16539D01*
X-15559Y-16513D01*
X-15550Y-16505D01*
X-15569Y-16445D02*
X-15569Y-16325D01*
X-15369Y-16402D01*
X-21280Y-6411D02*
X-21288Y-6421D01*
X-21314Y-6430D01*
X-21331Y-6430D01*
X-21357Y-6421D01*
X-21374Y-6402D01*
X-21382Y-6383D01*
X-21391Y-6345D01*
X-21391Y-6316D01*
X-21382Y-6278D01*
X-21374Y-6259D01*
X-21357Y-6240D01*
X-21331Y-6230D01*
X-21314Y-6230D01*
X-21288Y-6240D01*
X-21280Y-6250D01*
X-21211Y-6250D02*
X-21202Y-6240D01*
X-21185Y-6230D01*
X-21142Y-6230D01*
X-21125Y-6240D01*
X-21117Y-6250D01*
X-21108Y-6269D01*
X-21108Y-6288D01*
X-21117Y-6316D01*
X-21220Y-6430D01*
X-21108Y-6430D01*
X-4940Y-7711D02*
X-4949Y-7721D01*
X-4975Y-7730D01*
X-4992Y-7730D01*
X-5017Y-7721D01*
X-5035Y-7702D01*
X-5043Y-7683D01*
X-5052Y-7645D01*
X-5052Y-7616D01*
X-5043Y-7578D01*
X-5035Y-7559D01*
X-5017Y-7540D01*
X-4992Y-7530D01*
X-4975Y-7530D01*
X-4949Y-7540D01*
X-4940Y-7550D01*
X-4880Y-7530D02*
X-4769Y-7530D01*
X-4829Y-7607D01*
X-4803Y-7607D01*
X-4786Y-7616D01*
X-4777Y-7626D01*
X-4769Y-7645D01*
X-4769Y-7692D01*
X-4777Y-7711D01*
X-4786Y-7721D01*
X-4803Y-7730D01*
X-4855Y-7730D01*
X-4872Y-7721D01*
X-4880Y-7711D01*
X-4597Y-7730D02*
X-4700Y-7730D01*
X-4649Y-7730D02*
X-4649Y-7530D01*
X-4666Y-7559D01*
X-4683Y-7578D01*
X-4700Y-7588D01*
G54D23*
X-4801Y-8485D02*
X-4811Y-8495D01*
X-4839Y-8504D01*
X-4857Y-8504D01*
X-4886Y-8495D01*
X-4904Y-8476D01*
X-4914Y-8457D01*
X-4923Y-8420D01*
X-4923Y-8392D01*
X-4914Y-8354D01*
X-4904Y-8335D01*
X-4886Y-8317D01*
X-4857Y-8307D01*
X-4839Y-8307D01*
X-4811Y-8317D01*
X-4801Y-8326D01*
X-4735Y-8307D02*
X-4614Y-8307D01*
X-4679Y-8382D01*
X-4651Y-8382D01*
X-4632Y-8392D01*
X-4623Y-8401D01*
X-4614Y-8420D01*
X-4614Y-8467D01*
X-4623Y-8485D01*
X-4632Y-8495D01*
X-4651Y-8504D01*
X-4707Y-8504D01*
X-4726Y-8495D01*
X-4735Y-8485D01*
X-4538Y-8326D02*
X-4529Y-8317D01*
X-4510Y-8307D01*
X-4463Y-8307D01*
X-4445Y-8317D01*
X-4435Y-8326D01*
X-4426Y-8345D01*
X-4426Y-8364D01*
X-4435Y-8392D01*
X-4548Y-8504D01*
X-4426Y-8504D01*
G54D15*
X-17150Y-15792D02*
X-17164Y-15807D01*
X-17207Y-15821D01*
X-17235Y-15821D01*
X-17278Y-15807D01*
X-17307Y-15778D01*
X-17321Y-15750D01*
X-17335Y-15692D01*
X-17335Y-15650D01*
X-17321Y-15592D01*
X-17307Y-15564D01*
X-17278Y-15535D01*
X-17235Y-15521D01*
X-17207Y-15521D01*
X-17164Y-15535D01*
X-17150Y-15550D01*
X-16978Y-15650D02*
X-17007Y-15635D01*
X-17021Y-15621D01*
X-17035Y-15592D01*
X-17035Y-15578D01*
X-17021Y-15550D01*
X-17007Y-15535D01*
X-16978Y-15521D01*
X-16921Y-15521D01*
X-16892Y-15535D01*
X-16878Y-15550D01*
X-16864Y-15578D01*
X-16864Y-15592D01*
X-16878Y-15621D01*
X-16892Y-15635D01*
X-16921Y-15650D01*
X-16978Y-15650D01*
X-17007Y-15664D01*
X-17021Y-15678D01*
X-17035Y-15707D01*
X-17035Y-15764D01*
X-17021Y-15792D01*
X-17007Y-15807D01*
X-16978Y-15821D01*
X-16921Y-15821D01*
X-16892Y-15807D01*
X-16878Y-15792D01*
X-16864Y-15764D01*
X-16864Y-15707D01*
X-16878Y-15678D01*
X-16892Y-15664D01*
X-16921Y-15650D01*
G54D10*
X-534Y-3324D02*
X-515Y-3268D01*
X-515Y-3174D01*
X-534Y-3137D01*
X-553Y-3118D01*
X-590Y-3099D01*
X-628Y-3099D01*
X-665Y-3118D01*
X-684Y-3137D01*
X-703Y-3174D01*
X-721Y-3249D01*
X-740Y-3287D01*
X-759Y-3306D01*
X-796Y-3324D01*
X-834Y-3324D01*
X-871Y-3306D01*
X-890Y-3287D01*
X-909Y-3249D01*
X-909Y-3156D01*
X-890Y-3099D01*
X-871Y-2950D02*
X-890Y-2931D01*
X-909Y-2893D01*
X-909Y-2800D01*
X-890Y-2762D01*
X-871Y-2743D01*
X-834Y-2725D01*
X-796Y-2725D01*
X-740Y-2743D01*
X-515Y-2968D01*
X-515Y-2725D01*
X290Y-4472D02*
X290Y-4697D01*
X290Y-4585D02*
X-103Y-4585D01*
X-46Y-4622D01*
X-9Y-4660D01*
X9Y-4697D01*
G54D11*
X-1215Y-14755D02*
X-1275Y-14660D01*
X-1318Y-14755D02*
X-1318Y-14555D01*
X-1250Y-14555D01*
X-1232Y-14565D01*
X-1224Y-14575D01*
X-1215Y-14594D01*
X-1215Y-14622D01*
X-1224Y-14641D01*
X-1232Y-14651D01*
X-1250Y-14660D01*
X-1318Y-14660D01*
X-1147Y-14575D02*
X-1138Y-14565D01*
X-1121Y-14555D01*
X-1078Y-14555D01*
X-1061Y-14565D01*
X-1052Y-14575D01*
X-1044Y-14594D01*
X-1044Y-14613D01*
X-1052Y-14641D01*
X-1155Y-14755D01*
X-1044Y-14755D01*
X-975Y-14575D02*
X-967Y-14565D01*
X-950Y-14555D01*
X-907Y-14555D01*
X-890Y-14565D01*
X-881Y-14575D01*
X-872Y-14594D01*
X-872Y-14613D01*
X-881Y-14641D01*
X-984Y-14755D01*
X-872Y-14755D01*
X34Y-14755D02*
X-25Y-14660D01*
X-68Y-14755D02*
X-68Y-14555D01*
X0Y-14555D01*
X17Y-14565D01*
X25Y-14575D01*
X34Y-14594D01*
X34Y-14622D01*
X25Y-14641D01*
X17Y-14651D01*
X0Y-14660D01*
X-68Y-14660D01*
X102Y-14575D02*
X111Y-14565D01*
X128Y-14555D01*
X171Y-14555D01*
X188Y-14565D01*
X197Y-14575D01*
X205Y-14594D01*
X205Y-14613D01*
X197Y-14641D01*
X94Y-14755D01*
X205Y-14755D01*
X265Y-14555D02*
X377Y-14555D01*
X317Y-14632D01*
X342Y-14632D01*
X360Y-14641D01*
X368Y-14651D01*
X377Y-14670D01*
X377Y-14717D01*
X368Y-14736D01*
X360Y-14746D01*
X342Y-14755D01*
X291Y-14755D01*
X274Y-14746D01*
X265Y-14736D01*
G54D15*
X-1419Y-16622D02*
X-1619Y-16622D01*
X-1619Y-16575D01*
X-1609Y-16546D01*
X-1590Y-16527D01*
X-1571Y-16517D01*
X-1533Y-16508D01*
X-1504Y-16508D01*
X-1466Y-16517D01*
X-1447Y-16527D01*
X-1428Y-16546D01*
X-1419Y-16575D01*
X-1419Y-16622D01*
X-1419Y-16317D02*
X-1419Y-16432D01*
X-1419Y-16375D02*
X-1619Y-16375D01*
X-1590Y-16394D01*
X-1571Y-16413D01*
X-1561Y-16432D01*
X-628Y-16970D02*
X-619Y-16941D01*
X-619Y-16894D01*
X-628Y-16875D01*
X-638Y-16865D01*
X-657Y-16855D01*
X-676Y-16855D01*
X-695Y-16865D01*
X-704Y-16875D01*
X-714Y-16894D01*
X-723Y-16932D01*
X-733Y-16951D01*
X-742Y-16960D01*
X-761Y-16970D01*
X-780Y-16970D01*
X-800Y-16960D01*
X-809Y-16951D01*
X-819Y-16932D01*
X-819Y-16884D01*
X-809Y-16855D01*
X-819Y-16798D02*
X-819Y-16684D01*
X-619Y-16741D02*
X-819Y-16741D01*
X-676Y-16627D02*
X-676Y-16532D01*
X-619Y-16646D02*
X-819Y-16579D01*
X-619Y-16513D01*
X-819Y-16474D02*
X-819Y-16360D01*
X-619Y-16417D02*
X-819Y-16417D01*
X-819Y-16294D02*
X-657Y-16294D01*
X-638Y-16284D01*
X-628Y-16274D01*
X-619Y-16255D01*
X-619Y-16217D01*
X-628Y-16198D01*
X-638Y-16189D01*
X-657Y-16179D01*
X-819Y-16179D01*
X-628Y-16094D02*
X-619Y-16065D01*
X-619Y-16017D01*
X-628Y-15998D01*
X-638Y-15989D01*
X-657Y-15979D01*
X-676Y-15979D01*
X-695Y-15989D01*
X-704Y-15998D01*
X-714Y-16017D01*
X-723Y-16055D01*
X-733Y-16074D01*
X-742Y-16084D01*
X-761Y-16094D01*
X-780Y-16094D01*
X-800Y-16084D01*
X-809Y-16074D01*
X-819Y-16055D01*
X-819Y-16008D01*
X-809Y-15979D01*
X-169Y-16622D02*
X-369Y-16622D01*
X-369Y-16575D01*
X-359Y-16546D01*
X-340Y-16527D01*
X-321Y-16517D01*
X-283Y-16508D01*
X-254Y-16508D01*
X-216Y-16517D01*
X-197Y-16527D01*
X-178Y-16546D01*
X-169Y-16575D01*
X-169Y-16622D01*
X-350Y-16432D02*
X-359Y-16422D01*
X-369Y-16403D01*
X-369Y-16355D01*
X-359Y-16336D01*
X-350Y-16327D01*
X-330Y-16317D01*
X-311Y-16317D01*
X-283Y-16327D01*
X-169Y-16441D01*
X-169Y-16317D01*
X686Y-16994D02*
X696Y-17003D01*
X705Y-17032D01*
X705Y-17051D01*
X696Y-17079D01*
X677Y-17098D01*
X658Y-17108D01*
X620Y-17117D01*
X591Y-17117D01*
X553Y-17108D01*
X534Y-17098D01*
X515Y-17079D01*
X505Y-17051D01*
X505Y-17032D01*
X515Y-17003D01*
X525Y-16994D01*
X505Y-16870D02*
X505Y-16832D01*
X515Y-16813D01*
X534Y-16794D01*
X572Y-16784D01*
X639Y-16784D01*
X677Y-16794D01*
X696Y-16813D01*
X705Y-16832D01*
X705Y-16870D01*
X696Y-16889D01*
X677Y-16908D01*
X639Y-16917D01*
X572Y-16917D01*
X534Y-16908D01*
X515Y-16889D01*
X505Y-16870D01*
X705Y-16698D02*
X505Y-16698D01*
X705Y-16584D01*
X505Y-16584D01*
X705Y-16489D02*
X505Y-16489D01*
X705Y-16375D01*
X505Y-16375D01*
X601Y-16279D02*
X601Y-16213D01*
X705Y-16184D02*
X705Y-16279D01*
X505Y-16279D01*
X505Y-16184D01*
X686Y-15984D02*
X696Y-15994D01*
X705Y-16022D01*
X705Y-16041D01*
X696Y-16070D01*
X677Y-16089D01*
X658Y-16098D01*
X620Y-16108D01*
X591Y-16108D01*
X553Y-16098D01*
X534Y-16089D01*
X515Y-16070D01*
X505Y-16041D01*
X505Y-16022D01*
X515Y-15994D01*
X525Y-15984D01*
X505Y-15927D02*
X505Y-15813D01*
X705Y-15870D02*
X505Y-15870D01*
X-12638Y-2255D02*
X-12733Y-2255D01*
X-12742Y-2351D01*
X-12733Y-2341D01*
X-12714Y-2332D01*
X-12666Y-2332D01*
X-12647Y-2341D01*
X-12638Y-2351D01*
X-12628Y-2370D01*
X-12628Y-2417D01*
X-12638Y-2436D01*
X-12647Y-2446D01*
X-12666Y-2455D01*
X-12714Y-2455D01*
X-12733Y-2446D01*
X-12742Y-2436D01*
X-12571Y-2255D02*
X-12504Y-2455D01*
X-12438Y-2255D01*
X-12371Y-2455D02*
X-12371Y-2255D01*
X-12323Y-2255D01*
X-12295Y-2265D01*
X-12276Y-2284D01*
X-12266Y-2303D01*
X-12257Y-2341D01*
X-12257Y-2370D01*
X-12266Y-2408D01*
X-12276Y-2427D01*
X-12295Y-2446D01*
X-12323Y-2455D01*
X-12371Y-2455D01*
X-3272Y-1455D02*
X-3148Y-1455D01*
X-3215Y-1532D01*
X-3186Y-1532D01*
X-3167Y-1541D01*
X-3158Y-1551D01*
X-3148Y-1570D01*
X-3148Y-1617D01*
X-3158Y-1636D01*
X-3167Y-1646D01*
X-3186Y-1655D01*
X-3244Y-1655D01*
X-3263Y-1646D01*
X-3272Y-1636D01*
X-3091Y-1455D02*
X-3025Y-1655D01*
X-2958Y-1455D01*
X-2910Y-1455D02*
X-2786Y-1455D01*
X-2853Y-1532D01*
X-2824Y-1532D01*
X-2805Y-1541D01*
X-2796Y-1551D01*
X-2786Y-1570D01*
X-2786Y-1617D01*
X-2796Y-1636D01*
X-2805Y-1646D01*
X-2824Y-1655D01*
X-2882Y-1655D01*
X-2901Y-1646D01*
X-2910Y-1636D01*
X-23152Y-1915D02*
X-23171Y-1905D01*
X-23200Y-1905D01*
X-23228Y-1915D01*
X-23247Y-1934D01*
X-23257Y-1953D01*
X-23266Y-1991D01*
X-23266Y-2020D01*
X-23257Y-2058D01*
X-23247Y-2077D01*
X-23228Y-2096D01*
X-23200Y-2105D01*
X-23180Y-2105D01*
X-23152Y-2096D01*
X-23142Y-2086D01*
X-23142Y-2020D01*
X-23180Y-2020D01*
X-23057Y-2105D02*
X-23057Y-1905D01*
X-22942Y-2105D01*
X-22942Y-1905D01*
X-22847Y-2105D02*
X-22847Y-1905D01*
X-22800Y-1905D01*
X-22771Y-1915D01*
X-22752Y-1934D01*
X-22742Y-1953D01*
X-22733Y-1991D01*
X-22733Y-2020D01*
X-22742Y-2058D01*
X-22752Y-2077D01*
X-22771Y-2096D01*
X-22800Y-2105D01*
X-22847Y-2105D01*
X-15598Y-4705D02*
X-15694Y-4705D01*
X-15703Y-4801D01*
X-15694Y-4791D01*
X-15675Y-4782D01*
X-15627Y-4782D01*
X-15608Y-4791D01*
X-15598Y-4801D01*
X-15589Y-4820D01*
X-15589Y-4867D01*
X-15598Y-4886D01*
X-15608Y-4896D01*
X-15627Y-4905D01*
X-15675Y-4905D01*
X-15694Y-4896D01*
X-15703Y-4886D01*
X-15532Y-4705D02*
X-15465Y-4905D01*
X-15398Y-4705D01*
X-15341Y-4848D02*
X-15246Y-4848D01*
X-15360Y-4905D02*
X-15294Y-4705D01*
X-15227Y-4905D01*
X-4047Y-10631D02*
X-4047Y-10431D01*
X-3971Y-10431D01*
X-3952Y-10441D01*
X-3942Y-10451D01*
X-3933Y-10470D01*
X-3933Y-10498D01*
X-3942Y-10517D01*
X-3952Y-10527D01*
X-3971Y-10536D01*
X-4047Y-10536D01*
X-3761Y-10498D02*
X-3761Y-10631D01*
X-3809Y-10422D02*
X-3857Y-10565D01*
X-3733Y-10565D01*
X-4233Y-11526D02*
X-4204Y-11535D01*
X-4195Y-11545D01*
X-4185Y-11564D01*
X-4185Y-11592D01*
X-4195Y-11611D01*
X-4204Y-11621D01*
X-4223Y-11630D01*
X-4300Y-11630D01*
X-4300Y-11430D01*
X-4233Y-11430D01*
X-4214Y-11440D01*
X-4204Y-11450D01*
X-4195Y-11469D01*
X-4195Y-11488D01*
X-4204Y-11507D01*
X-4214Y-11516D01*
X-4233Y-11526D01*
X-4300Y-11526D01*
X-4128Y-11430D02*
X-4014Y-11430D01*
X-4071Y-11630D02*
X-4071Y-11430D01*
X-3833Y-11630D02*
X-3900Y-11535D01*
X-3947Y-11630D02*
X-3947Y-11430D01*
X-3871Y-11430D01*
X-3852Y-11440D01*
X-3842Y-11450D01*
X-3833Y-11469D01*
X-3833Y-11497D01*
X-3842Y-11516D01*
X-3852Y-11526D01*
X-3871Y-11535D01*
X-3947Y-11535D01*
X-3757Y-11621D02*
X-3728Y-11630D01*
X-3680Y-11630D01*
X-3661Y-11621D01*
X-3652Y-11611D01*
X-3642Y-11592D01*
X-3642Y-11573D01*
X-3652Y-11554D01*
X-3661Y-11545D01*
X-3680Y-11535D01*
X-3719Y-11526D01*
X-3738Y-11516D01*
X-3747Y-11507D01*
X-3757Y-11488D01*
X-3757Y-11469D01*
X-3747Y-11450D01*
X-3738Y-11440D01*
X-3719Y-11430D01*
X-3671Y-11430D01*
X-3642Y-11440D01*
X-3585Y-11430D02*
X-3471Y-11430D01*
X-3528Y-11630D02*
X-3528Y-11430D01*
G54D24*
X-9333Y-6420D02*
X-9620Y-6706D01*
X-9636Y-6756D01*
X-9636Y-6790D01*
X-9620Y-6841D01*
X-9552Y-6908D01*
X-9502Y-6925D01*
X-9468Y-6925D01*
X-9418Y-6908D01*
X-9131Y-6622D01*
X-9064Y-6992D02*
X-9081Y-6942D01*
X-9081Y-6908D01*
X-9064Y-6857D01*
X-9047Y-6841D01*
X-8997Y-6824D01*
X-8963Y-6824D01*
X-8913Y-6841D01*
X-8845Y-6908D01*
X-8828Y-6958D01*
X-8828Y-6992D01*
X-8845Y-7043D01*
X-8862Y-7059D01*
X-8913Y-7076D01*
X-8946Y-7076D01*
X-8997Y-7059D01*
X-9064Y-6992D01*
X-9115Y-6975D01*
X-9148Y-6975D01*
X-9199Y-6992D01*
X-9266Y-7059D01*
X-9283Y-7110D01*
X-9283Y-7144D01*
X-9266Y-7194D01*
X-9199Y-7261D01*
X-9148Y-7278D01*
X-9115Y-7278D01*
X-9064Y-7261D01*
X-8997Y-7194D01*
X-8980Y-7144D01*
X-8980Y-7110D01*
X-8997Y-7059D01*
M02*
