G04 (created by PCBNEW (2013-05-31 BZR 4019)-stable) date 7/19/2013 4:54:48 PM*
%MOIN*%
G04 Gerber Fmt 3.4, Leading zero omitted, Abs format*
%FSLAX34Y34*%
G01*
G70*
G90*
G04 APERTURE LIST*
%ADD10C,0.00590551*%
%ADD11R,0.0354X0.0669*%
%ADD12R,0.0669X0.0354*%
%ADD13R,0.066X0.0158*%
%ADD14R,0.0158X0.066*%
%ADD15R,0.067X0.047*%
%ADD16R,0.032X0.042*%
%ADD17R,0.047X0.067*%
%ADD18R,0.037X0.057*%
%ADD19R,0.057X0.037*%
%ADD20R,0.072X0.072*%
%ADD21C,0.072*%
%ADD22R,0.027X0.062*%
%ADD23C,0.057*%
%ADD24R,0.072X0.092*%
%ADD25C,0.192*%
%ADD26R,0.077X0.077*%
%ADD27C,0.0632*%
%ADD28R,0.0513701X0.0474331*%
%ADD29R,0.0434X0.0434*%
G04 APERTURE END LIST*
G54D10*
G54D11*
X-6452Y-12027D03*
X-6925Y-12027D03*
X-7397Y-12027D03*
X-7869Y-12027D03*
X-8342Y-12027D03*
X-8814Y-12027D03*
X-9286Y-12027D03*
X-9758Y-12027D03*
X-10231Y-12027D03*
X-10703Y-12027D03*
X-11175Y-12027D03*
X-11648Y-12027D03*
X-11648Y-17223D03*
X-11175Y-17223D03*
X-10703Y-17223D03*
X-10231Y-17223D03*
X-9758Y-17223D03*
X-9286Y-17223D03*
X-8814Y-17223D03*
X-8342Y-17223D03*
X-7869Y-17223D03*
X-7397Y-17223D03*
X-6925Y-17223D03*
X-6452Y-17223D03*
G54D12*
X-5350Y-16514D03*
X-5350Y-15884D03*
X-5350Y-15254D03*
X-12750Y-15845D03*
X-12750Y-13405D03*
X-12750Y-13003D03*
X-12750Y-13877D03*
X-12750Y-14350D03*
X-12750Y-14900D03*
X-12750Y-15373D03*
X-12750Y-16247D03*
G54D13*
X-20561Y-9724D03*
X-20561Y-9921D03*
X-20561Y-10118D03*
X-20561Y-10315D03*
X-20561Y-10512D03*
X-20561Y-10708D03*
X-20561Y-10905D03*
X-20561Y-11102D03*
X-20561Y-11299D03*
X-20561Y-11496D03*
X-20561Y-11693D03*
X-20561Y-11889D03*
X-20561Y-12086D03*
X-20561Y-12283D03*
X-20561Y-12480D03*
X-20561Y-12677D03*
G54D14*
X-19726Y-13575D03*
X-19529Y-13575D03*
X-19332Y-13575D03*
X-19135Y-13575D03*
X-18938Y-13575D03*
X-18742Y-13575D03*
X-18545Y-13575D03*
X-18348Y-13575D03*
X-18151Y-13575D03*
X-17954Y-13575D03*
X-17757Y-13575D03*
X-17561Y-13575D03*
X-17364Y-13575D03*
X-17167Y-13575D03*
X-16970Y-13575D03*
X-16773Y-13575D03*
G54D13*
X-15875Y-12677D03*
X-15875Y-12480D03*
X-15875Y-12283D03*
X-15875Y-12086D03*
X-15875Y-11889D03*
X-15875Y-11693D03*
X-15875Y-11496D03*
X-15875Y-11299D03*
X-15875Y-11102D03*
X-15875Y-10905D03*
X-15875Y-10708D03*
X-15875Y-10512D03*
X-15875Y-10315D03*
X-15875Y-10118D03*
X-15875Y-9921D03*
X-15875Y-9724D03*
G54D14*
X-16773Y-8889D03*
X-16970Y-8889D03*
X-17364Y-8889D03*
X-17167Y-8882D03*
X-17561Y-8889D03*
X-17757Y-8889D03*
X-17954Y-8889D03*
X-18151Y-8889D03*
X-18348Y-8889D03*
X-18545Y-8889D03*
X-18739Y-8889D03*
X-18936Y-8889D03*
X-19133Y-8889D03*
X-19330Y-8889D03*
X-19526Y-8889D03*
X-19723Y-8889D03*
G54D10*
G36*
X-11351Y-6384D02*
X-10906Y-5939D01*
X-10794Y-6051D01*
X-11239Y-6496D01*
X-11351Y-6384D01*
X-11351Y-6384D01*
G37*
G36*
X-11212Y-6524D02*
X-10766Y-6078D01*
X-10655Y-6190D01*
X-11100Y-6635D01*
X-11212Y-6524D01*
X-11212Y-6524D01*
G37*
G36*
X-11073Y-6663D02*
X-10627Y-6217D01*
X-10515Y-6329D01*
X-10961Y-6775D01*
X-11073Y-6663D01*
X-11073Y-6663D01*
G37*
G36*
X-10934Y-6801D02*
X-10489Y-6356D01*
X-10377Y-6468D01*
X-10822Y-6913D01*
X-10934Y-6801D01*
X-10934Y-6801D01*
G37*
G36*
X-10795Y-6941D02*
X-10349Y-6495D01*
X-10237Y-6607D01*
X-10683Y-7052D01*
X-10795Y-6941D01*
X-10795Y-6941D01*
G37*
G36*
X-10655Y-7080D02*
X-10210Y-6635D01*
X-10098Y-6746D01*
X-10544Y-7192D01*
X-10655Y-7080D01*
X-10655Y-7080D01*
G37*
G36*
X-10517Y-7219D02*
X-10071Y-6773D01*
X-9960Y-6885D01*
X-10405Y-7330D01*
X-10517Y-7219D01*
X-10517Y-7219D01*
G37*
G36*
X-10377Y-7358D02*
X-9932Y-6912D01*
X-9820Y-7024D01*
X-10266Y-7470D01*
X-10377Y-7358D01*
X-10377Y-7358D01*
G37*
G36*
X-10238Y-7497D02*
X-9793Y-7052D01*
X-9681Y-7164D01*
X-10126Y-7609D01*
X-10238Y-7497D01*
X-10238Y-7497D01*
G37*
G36*
X-10100Y-7636D02*
X-9654Y-7190D01*
X-9542Y-7302D01*
X-9988Y-7748D01*
X-10100Y-7636D01*
X-10100Y-7636D01*
G37*
G36*
X-9960Y-7775D02*
X-9515Y-7330D01*
X-9403Y-7441D01*
X-9849Y-7887D01*
X-9960Y-7775D01*
X-9960Y-7775D01*
G37*
G36*
X-9821Y-7914D02*
X-9376Y-7469D01*
X-9264Y-7581D01*
X-9709Y-8026D01*
X-9821Y-7914D01*
X-9821Y-7914D01*
G37*
G36*
X-8985Y-7581D02*
X-8873Y-7469D01*
X-8428Y-7914D01*
X-8540Y-8026D01*
X-8985Y-7581D01*
X-8985Y-7581D01*
G37*
G36*
X-8846Y-7441D02*
X-8734Y-7330D01*
X-8289Y-7775D01*
X-8400Y-7887D01*
X-8846Y-7441D01*
X-8846Y-7441D01*
G37*
G36*
X-8707Y-7302D02*
X-8595Y-7190D01*
X-8149Y-7636D01*
X-8261Y-7748D01*
X-8707Y-7302D01*
X-8707Y-7302D01*
G37*
G36*
X-8568Y-7164D02*
X-8456Y-7052D01*
X-8011Y-7497D01*
X-8123Y-7609D01*
X-8568Y-7164D01*
X-8568Y-7164D01*
G37*
G36*
X-8429Y-7024D02*
X-8317Y-6912D01*
X-7872Y-7358D01*
X-7983Y-7470D01*
X-8429Y-7024D01*
X-8429Y-7024D01*
G37*
G36*
X-8289Y-6885D02*
X-8178Y-6773D01*
X-7732Y-7219D01*
X-7844Y-7330D01*
X-8289Y-6885D01*
X-8289Y-6885D01*
G37*
G36*
X-8151Y-6746D02*
X-8039Y-6635D01*
X-7594Y-7080D01*
X-7705Y-7192D01*
X-8151Y-6746D01*
X-8151Y-6746D01*
G37*
G36*
X-8012Y-6607D02*
X-7900Y-6495D01*
X-7454Y-6941D01*
X-7566Y-7052D01*
X-8012Y-6607D01*
X-8012Y-6607D01*
G37*
G36*
X-7872Y-6468D02*
X-7760Y-6356D01*
X-7315Y-6801D01*
X-7427Y-6913D01*
X-7872Y-6468D01*
X-7872Y-6468D01*
G37*
G36*
X-7734Y-6329D02*
X-7622Y-6217D01*
X-7176Y-6663D01*
X-7288Y-6775D01*
X-7734Y-6329D01*
X-7734Y-6329D01*
G37*
G36*
X-7594Y-6190D02*
X-7483Y-6078D01*
X-7037Y-6524D01*
X-7149Y-6635D01*
X-7594Y-6190D01*
X-7594Y-6190D01*
G37*
G36*
X-7455Y-6051D02*
X-7343Y-5939D01*
X-6898Y-6384D01*
X-7010Y-6496D01*
X-7455Y-6051D01*
X-7455Y-6051D01*
G37*
G36*
X-7455Y-5548D02*
X-7010Y-5103D01*
X-6898Y-5215D01*
X-7343Y-5660D01*
X-7455Y-5548D01*
X-7455Y-5548D01*
G37*
G36*
X-7594Y-5409D02*
X-7149Y-4964D01*
X-7037Y-5075D01*
X-7483Y-5521D01*
X-7594Y-5409D01*
X-7594Y-5409D01*
G37*
G36*
X-7734Y-5270D02*
X-7288Y-4824D01*
X-7176Y-4936D01*
X-7622Y-5382D01*
X-7734Y-5270D01*
X-7734Y-5270D01*
G37*
G36*
X-7872Y-5131D02*
X-7427Y-4686D01*
X-7315Y-4798D01*
X-7760Y-5243D01*
X-7872Y-5131D01*
X-7872Y-5131D01*
G37*
G36*
X-8012Y-4992D02*
X-7566Y-4547D01*
X-7454Y-4658D01*
X-7900Y-5104D01*
X-8012Y-4992D01*
X-8012Y-4992D01*
G37*
G36*
X-8151Y-4853D02*
X-7705Y-4407D01*
X-7594Y-4519D01*
X-8039Y-4964D01*
X-8151Y-4853D01*
X-8151Y-4853D01*
G37*
G36*
X-8289Y-4714D02*
X-7844Y-4269D01*
X-7732Y-4380D01*
X-8178Y-4826D01*
X-8289Y-4714D01*
X-8289Y-4714D01*
G37*
G36*
X-8429Y-4575D02*
X-7983Y-4129D01*
X-7872Y-4241D01*
X-8317Y-4687D01*
X-8429Y-4575D01*
X-8429Y-4575D01*
G37*
G36*
X-8568Y-4435D02*
X-8123Y-3990D01*
X-8011Y-4102D01*
X-8456Y-4547D01*
X-8568Y-4435D01*
X-8568Y-4435D01*
G37*
G36*
X-8707Y-4297D02*
X-8261Y-3851D01*
X-8149Y-3963D01*
X-8595Y-4409D01*
X-8707Y-4297D01*
X-8707Y-4297D01*
G37*
G36*
X-8846Y-4158D02*
X-8400Y-3712D01*
X-8289Y-3824D01*
X-8734Y-4269D01*
X-8846Y-4158D01*
X-8846Y-4158D01*
G37*
G36*
X-8985Y-4018D02*
X-8540Y-3573D01*
X-8428Y-3685D01*
X-8873Y-4130D01*
X-8985Y-4018D01*
X-8985Y-4018D01*
G37*
G36*
X-9821Y-3685D02*
X-9709Y-3573D01*
X-9264Y-4018D01*
X-9376Y-4130D01*
X-9821Y-3685D01*
X-9821Y-3685D01*
G37*
G36*
X-9960Y-3824D02*
X-9849Y-3712D01*
X-9403Y-4158D01*
X-9515Y-4269D01*
X-9960Y-3824D01*
X-9960Y-3824D01*
G37*
G36*
X-10100Y-3963D02*
X-9988Y-3851D01*
X-9542Y-4297D01*
X-9654Y-4409D01*
X-10100Y-3963D01*
X-10100Y-3963D01*
G37*
G36*
X-10238Y-4102D02*
X-10126Y-3990D01*
X-9681Y-4435D01*
X-9793Y-4547D01*
X-10238Y-4102D01*
X-10238Y-4102D01*
G37*
G36*
X-10377Y-4241D02*
X-10266Y-4129D01*
X-9820Y-4575D01*
X-9932Y-4687D01*
X-10377Y-4241D01*
X-10377Y-4241D01*
G37*
G36*
X-10517Y-4380D02*
X-10405Y-4269D01*
X-9960Y-4714D01*
X-10071Y-4826D01*
X-10517Y-4380D01*
X-10517Y-4380D01*
G37*
G36*
X-10655Y-4519D02*
X-10544Y-4407D01*
X-10098Y-4853D01*
X-10210Y-4964D01*
X-10655Y-4519D01*
X-10655Y-4519D01*
G37*
G36*
X-10795Y-4658D02*
X-10683Y-4547D01*
X-10237Y-4992D01*
X-10349Y-5104D01*
X-10795Y-4658D01*
X-10795Y-4658D01*
G37*
G36*
X-10934Y-4798D02*
X-10822Y-4686D01*
X-10377Y-5131D01*
X-10489Y-5243D01*
X-10934Y-4798D01*
X-10934Y-4798D01*
G37*
G36*
X-11073Y-4936D02*
X-10961Y-4824D01*
X-10515Y-5270D01*
X-10627Y-5382D01*
X-11073Y-4936D01*
X-11073Y-4936D01*
G37*
G36*
X-11212Y-5075D02*
X-11100Y-4964D01*
X-10655Y-5409D01*
X-10766Y-5521D01*
X-11212Y-5075D01*
X-11212Y-5075D01*
G37*
G36*
X-11351Y-5215D02*
X-11239Y-5103D01*
X-10794Y-5548D01*
X-10906Y-5660D01*
X-11351Y-5215D01*
X-11351Y-5215D01*
G37*
G54D15*
X-19750Y-16075D03*
X-19750Y-15325D03*
G54D16*
X-13950Y-2725D03*
X-14700Y-2725D03*
X-13950Y-3725D03*
X-14325Y-2725D03*
X-14700Y-3725D03*
G54D17*
X-21625Y-7700D03*
X-20875Y-7700D03*
G54D18*
X-24450Y-16000D03*
X-23850Y-16000D03*
X-24450Y-5500D03*
X-23850Y-5500D03*
X-24450Y-14500D03*
X-23850Y-14500D03*
X-24450Y-13000D03*
X-23850Y-13000D03*
X-24450Y-11500D03*
X-23850Y-11500D03*
X-24450Y-10000D03*
X-23850Y-10000D03*
X-24450Y-8500D03*
X-23850Y-8500D03*
X-24450Y-7000D03*
X-23850Y-7000D03*
X-23850Y-12250D03*
X-24450Y-12250D03*
G54D19*
X-14325Y-8900D03*
X-14325Y-8300D03*
G54D18*
X-24450Y-4000D03*
X-23850Y-4000D03*
X-24450Y-2500D03*
X-23850Y-2500D03*
X-24450Y-4750D03*
X-23850Y-4750D03*
X-5950Y-9150D03*
X-5350Y-9150D03*
X-5950Y-6950D03*
X-5350Y-6950D03*
G54D19*
X-6775Y-2700D03*
X-6775Y-2100D03*
G54D18*
X-23850Y-16750D03*
X-24450Y-16750D03*
G54D19*
X-7575Y-2700D03*
X-7575Y-2100D03*
X-5400Y-10700D03*
X-5400Y-11300D03*
G54D18*
X3175Y-300D03*
X3775Y-300D03*
X-16350Y-6800D03*
X-15750Y-6800D03*
G54D19*
X-9950Y-2550D03*
X-9950Y-1950D03*
X-10800Y-2550D03*
X-10800Y-1950D03*
X-18750Y-15400D03*
X-18750Y-16000D03*
X-17600Y-7100D03*
X-17600Y-6500D03*
X-18350Y-7100D03*
X-18350Y-6500D03*
G54D18*
X-16350Y-7550D03*
X-15750Y-7550D03*
X-23850Y-15250D03*
X-24450Y-15250D03*
G54D19*
X-15075Y-8900D03*
X-15075Y-8300D03*
X-19150Y-7100D03*
X-19150Y-6500D03*
X-19900Y-7100D03*
X-19900Y-6500D03*
G54D18*
X-23850Y-13750D03*
X-24450Y-13750D03*
X-23850Y-10750D03*
X-24450Y-10750D03*
X-23850Y-9250D03*
X-24450Y-9250D03*
X-23850Y-7750D03*
X-24450Y-7750D03*
X-23850Y-6200D03*
X-24450Y-6200D03*
X-23850Y-3200D03*
X-24450Y-3200D03*
G54D19*
X-18600Y-3800D03*
X-18600Y-3200D03*
G54D18*
X-5350Y-6225D03*
X-5950Y-6225D03*
G54D19*
X-6000Y-2100D03*
X-6000Y-2700D03*
G54D18*
X-12775Y-8050D03*
X-12175Y-8050D03*
X-20700Y-15450D03*
X-21300Y-15450D03*
X-20700Y-14700D03*
X-21300Y-14700D03*
G54D20*
X3000Y-1500D03*
G54D21*
X4000Y-1500D03*
X3000Y-2500D03*
X4000Y-2500D03*
X3000Y-3500D03*
X4000Y-3500D03*
X3000Y-4500D03*
X4000Y-4500D03*
X3000Y-5500D03*
X4000Y-5500D03*
X-26750Y-4000D03*
X-26750Y-5000D03*
X-26750Y-6000D03*
X-26750Y-7000D03*
X-26750Y-8000D03*
X-26750Y-9000D03*
G54D20*
X-26750Y-15000D03*
G54D21*
X-26750Y-14000D03*
X-26750Y-13000D03*
X-26750Y-12000D03*
X-26750Y-11000D03*
X-26750Y-10000D03*
G54D22*
X-19366Y-2600D03*
X-19622Y-2600D03*
X-19878Y-2600D03*
X-20134Y-2600D03*
X-20134Y-4300D03*
X-19878Y-4300D03*
X-19622Y-4300D03*
X-19366Y-4300D03*
G54D23*
X-2000Y-1550D03*
G54D19*
X-15400Y-3750D03*
X-15400Y-3150D03*
X-15450Y-15400D03*
X-15450Y-16000D03*
G54D18*
X-20950Y-6850D03*
X-21550Y-6850D03*
X-5950Y-7650D03*
X-5350Y-7650D03*
G54D17*
X-6025Y-8400D03*
X-5275Y-8400D03*
G54D24*
X-17750Y-15700D03*
X-16450Y-15700D03*
G54D25*
X-26000Y-1250D03*
X0Y0D03*
X0Y-19000D03*
X-26000Y-17750D03*
G54D26*
X-2000Y500D03*
G54D27*
X-2000Y-500D03*
X-3000Y500D03*
X-3000Y-500D03*
X-4000Y500D03*
X-4000Y-500D03*
X-5000Y500D03*
X-5000Y-500D03*
X-6000Y500D03*
X-6000Y-500D03*
X-7000Y500D03*
X-7000Y-500D03*
X-8000Y500D03*
X-8000Y-500D03*
X-9000Y500D03*
X-9000Y-500D03*
X-10000Y500D03*
X-10000Y-500D03*
X-11000Y500D03*
X-11000Y-500D03*
X-12000Y500D03*
X-12000Y-500D03*
X-13000Y500D03*
X-13000Y-500D03*
X-14000Y500D03*
X-14000Y-500D03*
X-15000Y500D03*
X-15000Y-500D03*
X-16000Y500D03*
X-16000Y-500D03*
X-17000Y500D03*
X-17000Y-500D03*
X-18000Y500D03*
X-18000Y-500D03*
X-19000Y500D03*
X-19000Y-500D03*
X-20000Y500D03*
X-20000Y-500D03*
X-21000Y500D03*
X-21000Y-500D03*
X-22000Y500D03*
X-22000Y-500D03*
X-23000Y500D03*
X-23000Y-500D03*
X-24000Y500D03*
X-24000Y-500D03*
G54D26*
X-2000Y-18500D03*
G54D27*
X-2000Y-19500D03*
X-3000Y-18500D03*
X-3000Y-19500D03*
X-4000Y-18500D03*
X-4000Y-19500D03*
X-5000Y-18500D03*
X-5000Y-19500D03*
X-6000Y-18500D03*
X-6000Y-19500D03*
X-7000Y-18500D03*
X-7000Y-19500D03*
X-8000Y-18500D03*
X-8000Y-19500D03*
X-9000Y-18500D03*
X-9000Y-19500D03*
X-10000Y-18500D03*
X-10000Y-19500D03*
X-11000Y-18500D03*
X-11000Y-19500D03*
X-12000Y-18500D03*
X-12000Y-19500D03*
X-13000Y-18500D03*
X-13000Y-19500D03*
X-14000Y-18500D03*
X-14000Y-19500D03*
X-15000Y-18500D03*
X-15000Y-19500D03*
X-16000Y-18500D03*
X-16000Y-19500D03*
X-17000Y-18500D03*
X-17000Y-19500D03*
X-18000Y-18500D03*
X-18000Y-19500D03*
X-19000Y-18500D03*
X-19000Y-19500D03*
X-20000Y-18500D03*
X-20000Y-19500D03*
X-21000Y-18500D03*
X-21000Y-19500D03*
X-22000Y-18500D03*
X-22000Y-19500D03*
X-23000Y-18500D03*
X-23000Y-19500D03*
X-24000Y-18500D03*
X-24000Y-19500D03*
G54D28*
X761Y-2242D03*
X131Y-2242D03*
X761Y-3857D03*
X131Y-3857D03*
G54D19*
X-1100Y-15675D03*
X-1100Y-15075D03*
X150Y-15700D03*
X150Y-15100D03*
G54D29*
X-1100Y-16770D03*
X-1100Y-16180D03*
X150Y-16770D03*
X150Y-16180D03*
G54D23*
X-12500Y-1875D03*
X-3000Y-2125D03*
X-23000Y-1525D03*
X-15475Y-5350D03*
X-3900Y-11050D03*
M02*
