M48
;DRILL file {Pcbnew (2013-05-31 BZR 4019)-stable} date 7/19/2013 5:13:31 PM
;FORMAT={-:-/ absolute / inch / decimal}
FMAT,2
INCH,TZ
T1C0.025
T2C0.032
T3C0.040
T4C0.125
%
G90
G05
M72
T1
X-2.5625Y-1.14
X-2.54Y-0.83
X-2.54Y-1.25
X-2.54Y-1.39
X-2.53Y-0.9425
X-2.5225Y-1.0425
X-2.52Y-0.64
X-2.49Y-1.6625
X-2.485Y-0.3275
X-2.485Y-1.54
X-2.325Y-0.355
X-2.325Y-1.2075
X-2.32Y-1.01
X-2.3175Y-0.6675
X-2.315Y-1.495
X-2.3Y-0.1525
X-2.275Y-0.5325
X-2.255Y-0.355
X-2.15Y-0.62
X-2.095Y-0.4425
X-2.0825Y-1.3975
X-2.06Y-0.245
X-2.01Y-0.505
X-1.97Y-0.57
X-1.93Y-1.22
X-1.915Y-0.59
X-1.88Y-0.25
X-1.88Y-0.44
X-1.8775Y-1.255
X-1.8525Y-0.995
X-1.85Y-0.78
X-1.745Y-0.98
X-1.73Y-0.21
X-1.6725Y-1.1275
X-1.67Y-1.65
X-1.66Y-1.2175
X-1.635Y-0.615
X-1.6275Y-0.85
X-1.595Y-1.43
X-1.5475Y-0.535
X-1.5325Y-1.34
X-1.53Y-0.68
X-1.53Y-0.755
X-1.5075Y-1.2475
X-1.505Y-1.17
X-1.4675Y-0.455
X-1.4475Y-0.2125
X-1.4275Y-0.9375
X-1.415Y-0.7625
X-1.3675Y-1.34
X-1.36Y-1.565
X-1.35Y-0.1875
X-1.345Y-1.2075
X-1.3075Y-0.7325
X-1.3Y-0.8875
X-1.25Y-0.1875
X-1.2075Y-0.53
X-1.2075Y-0.73
X-1.1675Y-0.585
X-1.1575Y-0.6875
X-1.1425Y-1.11
X-1.1325Y-0.2775
X-1.0975Y-0.3575
X-1.085Y-0.825
X-1.0825Y-0.97
X-1.0375Y-1.0525
X-0.985Y-0.63
X-0.9125Y-0.455
X-0.9125Y-0.5075
X-0.8725Y-0.2625
X-0.8725Y-0.545
X-0.84Y-0.3
X-0.825Y-0.2225
X-0.815Y-0.5475
X-0.81Y-0.6125
X-0.805Y-0.15
X-0.805Y-1.0575
X-0.7725Y-0.79
X-0.7575Y-0.33
X-0.74Y-1.6475
X-0.72Y-0.4025
X-0.6925Y-1.0925
X-0.6725Y-0.365
X-0.6725Y-0.735
X-0.67Y-1.62
X-0.6575Y-0.895
X-0.645Y-1.285
X-0.63Y-0.45
X-0.5675Y-0.465
X-0.485Y-0.465
X-0.485Y-0.775
X-0.47Y-0.9475
X-0.425Y-0.425
X-0.41Y-0.9475
X-0.39Y-0.375
X-0.39Y-1.105
X-0.3Y-0.2125
X-0.2Y-0.155
X-0.1975Y-1.5325
X0.1725Y-0.5125
T2
X-2.4Y0.05
X-2.4Y-0.05
X-2.4Y-1.85
X-2.4Y-1.95
X-2.3Y0.05
X-2.3Y-0.05
X-2.3Y-1.85
X-2.3Y-1.95
X-2.2Y0.05
X-2.2Y-0.05
X-2.2Y-1.85
X-2.2Y-1.95
X-2.1Y0.05
X-2.1Y-0.05
X-2.1Y-1.85
X-2.1Y-1.95
X-2.Y0.05
X-2.Y-0.05
X-2.Y-1.85
X-2.Y-1.95
X-1.9Y0.05
X-1.9Y-0.05
X-1.9Y-1.85
X-1.9Y-1.95
X-1.8Y0.05
X-1.8Y-0.05
X-1.8Y-1.85
X-1.8Y-1.95
X-1.7Y0.05
X-1.7Y-0.05
X-1.7Y-1.85
X-1.7Y-1.95
X-1.6Y0.05
X-1.6Y-0.05
X-1.6Y-1.85
X-1.6Y-1.95
X-1.5Y0.05
X-1.5Y-0.05
X-1.5Y-1.85
X-1.5Y-1.95
X-1.4Y0.05
X-1.4Y-0.05
X-1.4Y-1.85
X-1.4Y-1.95
X-1.3Y0.05
X-1.3Y-0.05
X-1.3Y-1.85
X-1.3Y-1.95
X-1.2Y0.05
X-1.2Y-0.05
X-1.2Y-1.85
X-1.2Y-1.95
X-1.1Y0.05
X-1.1Y-0.05
X-1.1Y-1.85
X-1.1Y-1.95
X-1.Y0.05
X-1.Y-0.05
X-1.Y-1.85
X-1.Y-1.95
X-0.9Y0.05
X-0.9Y-0.05
X-0.9Y-1.85
X-0.9Y-1.95
X-0.8Y0.05
X-0.8Y-0.05
X-0.8Y-1.85
X-0.8Y-1.95
X-0.7Y0.05
X-0.7Y-0.05
X-0.7Y-1.85
X-0.7Y-1.95
X-0.6Y0.05
X-0.6Y-0.05
X-0.6Y-1.85
X-0.6Y-1.95
X-0.5Y0.05
X-0.5Y-0.05
X-0.5Y-1.85
X-0.5Y-1.95
X-0.4Y0.05
X-0.4Y-0.05
X-0.4Y-1.85
X-0.4Y-1.95
X-0.3Y0.05
X-0.3Y-0.05
X-0.3Y-1.85
X-0.3Y-1.95
X-0.2Y-0.05
X-0.2Y-1.95
T3
X-2.675Y-0.4
X-2.675Y-0.5
X-2.675Y-0.6
X-2.675Y-0.7
X-2.675Y-0.8
X-2.675Y-0.9
X-2.675Y-1.
X-2.675Y-1.1
X-2.675Y-1.2
X-2.675Y-1.3
X-2.675Y-1.4
X-2.675Y-1.5
X-0.2Y0.05
X-0.2Y-1.85
X0.3Y-0.15
X0.3Y-0.25
X0.3Y-0.35
X0.3Y-0.45
X0.3Y-0.55
X0.4Y-0.15
X0.4Y-0.25
X0.4Y-0.35
X0.4Y-0.45
X0.4Y-0.55
T4
X-2.6Y-0.125
X-2.6Y-1.775
X0.Y0.
X0.Y-1.9
T0
M30
