G04 (created by PCBNEW (2013-05-31 BZR 4019)-stable) date 7/19/2013 3:45:29 PM*
%MOIN*%
G04 Gerber Fmt 3.4, Leading zero omitted, Abs format*
%FSLAX34Y34*%
G01*
G70*
G90*
G04 APERTURE LIST*
%ADD10C,0.00590551*%
%ADD11R,0.06X0.06*%
%ADD12C,0.06*%
%ADD13C,0.045*%
%ADD14C,0.18*%
%ADD15R,0.065X0.065*%
%ADD16C,0.0512*%
%ADD17C,0.035*%
%ADD18C,0.016*%
%ADD19C,0.008*%
%ADD20C,0.01*%
G04 APERTURE END LIST*
G54D10*
G54D11*
X3000Y-1500D03*
G54D12*
X4000Y-1500D03*
X3000Y-2500D03*
X4000Y-2500D03*
X3000Y-3500D03*
X4000Y-3500D03*
X3000Y-4500D03*
X4000Y-4500D03*
X3000Y-5500D03*
X4000Y-5500D03*
X-26750Y-4000D03*
X-26750Y-5000D03*
X-26750Y-6000D03*
X-26750Y-7000D03*
X-26750Y-8000D03*
X-26750Y-9000D03*
G54D11*
X-26750Y-15000D03*
G54D12*
X-26750Y-14000D03*
X-26750Y-13000D03*
X-26750Y-12000D03*
X-26750Y-11000D03*
X-26750Y-10000D03*
G54D13*
X-2000Y-1550D03*
G54D14*
X-26000Y-1250D03*
X0Y0D03*
X0Y-19000D03*
X-26000Y-17750D03*
G54D15*
X-2000Y500D03*
G54D16*
X-2000Y-500D03*
X-3000Y500D03*
X-3000Y-500D03*
X-4000Y500D03*
X-4000Y-500D03*
X-5000Y500D03*
X-5000Y-500D03*
X-6000Y500D03*
X-6000Y-500D03*
X-7000Y500D03*
X-7000Y-500D03*
X-8000Y500D03*
X-8000Y-500D03*
X-9000Y500D03*
X-9000Y-500D03*
X-10000Y500D03*
X-10000Y-500D03*
X-11000Y500D03*
X-11000Y-500D03*
X-12000Y500D03*
X-12000Y-500D03*
X-13000Y500D03*
X-13000Y-500D03*
X-14000Y500D03*
X-14000Y-500D03*
X-15000Y500D03*
X-15000Y-500D03*
X-16000Y500D03*
X-16000Y-500D03*
X-17000Y500D03*
X-17000Y-500D03*
X-18000Y500D03*
X-18000Y-500D03*
X-19000Y500D03*
X-19000Y-500D03*
X-20000Y500D03*
X-20000Y-500D03*
X-21000Y500D03*
X-21000Y-500D03*
X-22000Y500D03*
X-22000Y-500D03*
X-23000Y500D03*
X-23000Y-500D03*
X-24000Y500D03*
X-24000Y-500D03*
G54D15*
X-2000Y-18500D03*
G54D16*
X-2000Y-19500D03*
X-3000Y-18500D03*
X-3000Y-19500D03*
X-4000Y-18500D03*
X-4000Y-19500D03*
X-5000Y-18500D03*
X-5000Y-19500D03*
X-6000Y-18500D03*
X-6000Y-19500D03*
X-7000Y-18500D03*
X-7000Y-19500D03*
X-8000Y-18500D03*
X-8000Y-19500D03*
X-9000Y-18500D03*
X-9000Y-19500D03*
X-10000Y-18500D03*
X-10000Y-19500D03*
X-11000Y-18500D03*
X-11000Y-19500D03*
X-12000Y-18500D03*
X-12000Y-19500D03*
X-13000Y-18500D03*
X-13000Y-19500D03*
X-14000Y-18500D03*
X-14000Y-19500D03*
X-15000Y-18500D03*
X-15000Y-19500D03*
X-16000Y-18500D03*
X-16000Y-19500D03*
X-17000Y-18500D03*
X-17000Y-19500D03*
X-18000Y-18500D03*
X-18000Y-19500D03*
X-19000Y-18500D03*
X-19000Y-19500D03*
X-20000Y-18500D03*
X-20000Y-19500D03*
X-21000Y-18500D03*
X-21000Y-19500D03*
X-22000Y-18500D03*
X-22000Y-19500D03*
X-23000Y-18500D03*
X-23000Y-19500D03*
X-24000Y-18500D03*
X-24000Y-19500D03*
G54D13*
X-12500Y-1875D03*
X-3000Y-2125D03*
X-23000Y-1525D03*
X-15475Y-5350D03*
X-3900Y-11050D03*
G54D17*
X-18525Y-9950D03*
X-14675Y-4550D03*
X-20825Y-13975D03*
X-22750Y-5325D03*
X-23200Y-10100D03*
X-23150Y-14950D03*
X-16350Y-6150D03*
X-18800Y-4400D03*
X-13500Y-1875D03*
X-20950Y-4425D03*
X-21500Y-6200D03*
X-19700Y-5700D03*
X-19300Y-12200D03*
X-18775Y-12550D03*
X-6925Y-10925D03*
X-7400Y-16475D03*
X-10375Y-10525D03*
X-8400Y-3000D03*
X-4250Y-4250D03*
X-12075Y-7300D03*
X-12075Y-5300D03*
X1725Y-5125D03*
X-4100Y-9475D03*
X-16725Y-11275D03*
X-13000Y-8875D03*
X-8725Y-5450D03*
X-11675Y-5850D03*
X-13450Y-12075D03*
X-6300Y-4500D03*
X-8100Y-6125D03*
X-16600Y-12175D03*
X-11325Y-2775D03*
X-13075Y-7325D03*
X-6575Y-8950D03*
X-9850Y-6300D03*
X-7575Y-3300D03*
X-11425Y-11100D03*
X-14275Y-9375D03*
X-25225Y-10425D03*
X-1975Y-15325D03*
X-3900Y-3750D03*
X-8150Y-5475D03*
X-11575Y-6875D03*
X-4850Y-7750D03*
X-6725Y-3650D03*
X-8250Y-2225D03*
X-14475Y-2125D03*
X-6700Y-16200D03*
X-6450Y-12850D03*
X-15325Y-13400D03*
X-13675Y-13400D03*
X-13600Y-15650D03*
X-16275Y-8500D03*
X-14150Y-7625D03*
X-23250Y-3550D03*
X-23175Y-6675D03*
X-23250Y-12075D03*
X-24850Y-3275D03*
X-25200Y-6400D03*
X-25400Y-8300D03*
X-25300Y-9425D03*
X-25625Y-11400D03*
X-25400Y-12500D03*
X-25400Y-13900D03*
X-24900Y-16625D03*
X-24850Y-15400D03*
X-18800Y-2500D03*
X-20600Y-2450D03*
X-17450Y-9800D03*
X-19150Y-5900D03*
X-18500Y-7800D03*
X-15300Y-6800D03*
X-15300Y-7550D03*
X-16700Y-16500D03*
X-15950Y-14300D03*
X-22550Y-3550D03*
X-10850Y-8250D03*
X-15075Y-12475D03*
X-20100Y-5050D03*
X-17300Y-2100D03*
X-4700Y-9475D03*
X-8050Y-10575D03*
X-4850Y-4650D03*
X-7200Y-4025D03*
X-10825Y-9700D03*
X-7725Y-7900D03*
X-10975Y-3575D03*
X-15050Y-11700D03*
X-5675Y-4650D03*
X-6725Y-7350D03*
X-9125Y-5075D03*
X-8725Y-2625D03*
X-9125Y-4550D03*
X-8050Y-1500D03*
G54D18*
X-16350Y-6150D02*
X-16275Y-6150D01*
X-16275Y-6150D02*
X-15475Y-5350D01*
X-15475Y-5350D02*
X-15475Y-5275D01*
X-15475Y-5275D02*
X-15000Y-4800D01*
X-15000Y-4800D02*
X-15000Y-4600D01*
X-18125Y-7925D02*
X-16350Y-6150D01*
X-18125Y-9550D02*
X-18125Y-7925D01*
X-18525Y-9950D02*
X-18125Y-9550D01*
X-14725Y-4600D02*
X-15000Y-4600D01*
X-14675Y-4550D02*
X-14725Y-4600D01*
X-20825Y-13975D02*
X-21700Y-13975D01*
X-22575Y-9475D02*
X-23200Y-10100D01*
X-22575Y-5500D02*
X-22575Y-9475D01*
X-22750Y-5325D02*
X-22575Y-5500D01*
X-21700Y-11600D02*
X-21700Y-13975D01*
X-23200Y-10100D02*
X-21700Y-11600D01*
X-21875Y-14150D02*
X-21700Y-13975D01*
X-21875Y-14750D02*
X-21875Y-14150D01*
X-22100Y-14975D02*
X-21875Y-14750D01*
X-23125Y-14975D02*
X-22100Y-14975D01*
X-23150Y-14950D02*
X-23125Y-14975D01*
X-21700Y-13975D02*
X-20750Y-13975D01*
X-20750Y-13975D02*
X-20725Y-13975D01*
X-15200Y-4400D02*
X-18800Y-4400D01*
X-15000Y-4600D02*
X-15200Y-4400D01*
X-12500Y-1875D02*
X-13500Y-1875D01*
X-5500Y0D02*
X-5000Y500D01*
X-13350Y0D02*
X-5500Y0D01*
X-13500Y-150D02*
X-13350Y0D01*
X-13500Y-1875D02*
X-13500Y-150D01*
X-5000Y-500D02*
X-5000Y500D01*
G54D19*
X-8900Y-3300D02*
X-7575Y-3300D01*
X-9025Y-3175D02*
X-8900Y-3300D01*
X-10925Y-3175D02*
X-9025Y-3175D01*
X-11325Y-2775D02*
X-10925Y-3175D01*
G54D18*
X-3000Y-500D02*
X-3000Y-2275D01*
X-3000Y-2275D02*
X-3600Y-2875D01*
X-3600Y-2875D02*
X-5150Y-2875D01*
X-5150Y-2875D02*
X-5575Y-3300D01*
X-5575Y-3300D02*
X-7575Y-3300D01*
X-3000Y500D02*
X-3000Y-500D01*
G54D19*
X-14275Y-8525D02*
X-14275Y-9375D01*
X-13075Y-7325D02*
X-14275Y-8525D01*
G54D18*
X-9150Y-7000D02*
X-9850Y-6300D01*
X-9150Y-8800D02*
X-9150Y-7000D01*
X-9000Y-8950D02*
X-9150Y-8800D01*
X-6575Y-8950D02*
X-9000Y-8950D01*
G54D19*
X-7575Y-6350D02*
X-7575Y-3300D01*
X-7750Y-6525D02*
X-7575Y-6350D01*
X-9625Y-6525D02*
X-7750Y-6525D01*
X-9850Y-6300D02*
X-9625Y-6525D01*
G54D18*
X-11425Y-11100D02*
X-13075Y-9450D01*
X-13075Y-9450D02*
X-14200Y-9450D01*
X-14200Y-9450D02*
X-14275Y-9375D01*
G54D10*
G36*
X-14025Y-5479D02*
X-14925Y-6379D01*
X-14925Y-6594D01*
X-14939Y-6559D01*
X-14994Y-6504D01*
X-14994Y-5413D01*
X-15007Y-5225D01*
X-15055Y-5107D01*
X-15143Y-5089D01*
X-15214Y-5159D01*
X-15214Y-5018D01*
X-15232Y-4930D01*
X-15411Y-4869D01*
X-15599Y-4882D01*
X-15717Y-4930D01*
X-15735Y-5018D01*
X-15475Y-5279D01*
X-15214Y-5018D01*
X-15214Y-5159D01*
X-15404Y-5350D01*
X-15143Y-5610D01*
X-15055Y-5592D01*
X-14994Y-5413D01*
X-14994Y-6504D01*
X-15058Y-6439D01*
X-15214Y-6375D01*
X-15214Y-5681D01*
X-15475Y-5420D01*
X-15545Y-5491D01*
X-15545Y-5350D01*
X-15806Y-5089D01*
X-15894Y-5107D01*
X-15955Y-5286D01*
X-15942Y-5474D01*
X-15894Y-5592D01*
X-15806Y-5610D01*
X-15545Y-5350D01*
X-15545Y-5491D01*
X-15735Y-5681D01*
X-15717Y-5769D01*
X-15538Y-5830D01*
X-15350Y-5817D01*
X-15232Y-5769D01*
X-15214Y-5681D01*
X-15214Y-6375D01*
X-15215Y-6375D01*
X-15384Y-6374D01*
X-15540Y-6439D01*
X-15660Y-6558D01*
X-15724Y-6715D01*
X-15725Y-6884D01*
X-15660Y-7040D01*
X-15541Y-7160D01*
X-15505Y-7174D01*
X-15540Y-7189D01*
X-15660Y-7308D01*
X-15724Y-7465D01*
X-15725Y-7634D01*
X-15660Y-7790D01*
X-15541Y-7910D01*
X-15505Y-7925D01*
X-16874Y-7925D01*
X-16874Y-2015D01*
X-16939Y-1859D01*
X-17058Y-1739D01*
X-17215Y-1675D01*
X-17384Y-1674D01*
X-17540Y-1739D01*
X-17660Y-1858D01*
X-17724Y-2015D01*
X-17725Y-2184D01*
X-17660Y-2340D01*
X-17541Y-2460D01*
X-17384Y-2524D01*
X-17215Y-2525D01*
X-17059Y-2460D01*
X-16939Y-2341D01*
X-16875Y-2184D01*
X-16874Y-2015D01*
X-16874Y-7925D01*
X-17220Y-7925D01*
X-17525Y-8229D01*
X-17525Y-9370D01*
X-17520Y-9374D01*
X-17534Y-9374D01*
X-17690Y-9439D01*
X-17810Y-9558D01*
X-17874Y-9715D01*
X-17875Y-9884D01*
X-17810Y-10040D01*
X-17691Y-10160D01*
X-17534Y-10224D01*
X-17365Y-10225D01*
X-17209Y-10160D01*
X-17089Y-10041D01*
X-17075Y-10005D01*
X-17075Y-10129D01*
X-17625Y-10679D01*
X-17625Y-11504D01*
X-17925Y-11804D01*
X-17925Y-12750D01*
X-16945Y-12750D01*
X-16425Y-13270D01*
X-16425Y-14000D01*
X-16251Y-14000D01*
X-16310Y-14058D01*
X-16374Y-14215D01*
X-16375Y-14384D01*
X-16310Y-14540D01*
X-16191Y-14660D01*
X-16034Y-14724D01*
X-15865Y-14725D01*
X-15709Y-14660D01*
X-15589Y-14541D01*
X-15525Y-14384D01*
X-15524Y-14295D01*
X-14550Y-15270D01*
X-14550Y-17529D01*
X-14770Y-17750D01*
X-16274Y-17750D01*
X-16274Y-16415D01*
X-16339Y-16259D01*
X-16458Y-16139D01*
X-16615Y-16075D01*
X-16784Y-16074D01*
X-16940Y-16139D01*
X-17060Y-16258D01*
X-17124Y-16415D01*
X-17125Y-16584D01*
X-17060Y-16740D01*
X-16941Y-16860D01*
X-16784Y-16924D01*
X-16615Y-16925D01*
X-16459Y-16860D01*
X-16339Y-16741D01*
X-16275Y-16584D01*
X-16274Y-16415D01*
X-16274Y-17750D01*
X-18074Y-17750D01*
X-18074Y-7715D01*
X-18139Y-7559D01*
X-18258Y-7439D01*
X-18374Y-7391D01*
X-18374Y-2415D01*
X-18439Y-2259D01*
X-18558Y-2139D01*
X-18715Y-2075D01*
X-18884Y-2074D01*
X-19040Y-2139D01*
X-19160Y-2258D01*
X-19224Y-2415D01*
X-19225Y-2584D01*
X-19160Y-2740D01*
X-19041Y-2860D01*
X-18884Y-2924D01*
X-18715Y-2925D01*
X-18559Y-2860D01*
X-18439Y-2741D01*
X-18375Y-2584D01*
X-18374Y-2415D01*
X-18374Y-7391D01*
X-18415Y-7375D01*
X-18584Y-7374D01*
X-18724Y-7433D01*
X-18724Y-5815D01*
X-18789Y-5659D01*
X-18908Y-5539D01*
X-19065Y-5475D01*
X-19234Y-5474D01*
X-19318Y-5509D01*
X-19339Y-5459D01*
X-19458Y-5339D01*
X-19615Y-5275D01*
X-19733Y-5274D01*
X-19675Y-5134D01*
X-19674Y-4965D01*
X-19739Y-4809D01*
X-19858Y-4689D01*
X-20015Y-4625D01*
X-20174Y-4624D01*
X-20174Y-2365D01*
X-20239Y-2209D01*
X-20358Y-2089D01*
X-20515Y-2025D01*
X-20684Y-2024D01*
X-20840Y-2089D01*
X-20960Y-2208D01*
X-21024Y-2365D01*
X-21025Y-2534D01*
X-20960Y-2690D01*
X-20841Y-2810D01*
X-20684Y-2874D01*
X-20515Y-2875D01*
X-20359Y-2810D01*
X-20239Y-2691D01*
X-20175Y-2534D01*
X-20174Y-2365D01*
X-20174Y-4624D01*
X-20184Y-4624D01*
X-20340Y-4689D01*
X-20460Y-4808D01*
X-20524Y-4965D01*
X-20524Y-4340D01*
X-20589Y-4184D01*
X-20708Y-4064D01*
X-20865Y-4000D01*
X-21034Y-3999D01*
X-21190Y-4064D01*
X-21310Y-4183D01*
X-21374Y-4340D01*
X-21375Y-4509D01*
X-21310Y-4665D01*
X-21191Y-4785D01*
X-21034Y-4849D01*
X-20865Y-4850D01*
X-20709Y-4785D01*
X-20589Y-4666D01*
X-20525Y-4509D01*
X-20524Y-4340D01*
X-20524Y-4965D01*
X-20525Y-5134D01*
X-20460Y-5290D01*
X-20341Y-5410D01*
X-20184Y-5474D01*
X-20066Y-5475D01*
X-20124Y-5615D01*
X-20125Y-5784D01*
X-20060Y-5940D01*
X-19941Y-6060D01*
X-19784Y-6124D01*
X-19615Y-6125D01*
X-19531Y-6090D01*
X-19510Y-6140D01*
X-19391Y-6260D01*
X-19234Y-6324D01*
X-19065Y-6325D01*
X-18909Y-6260D01*
X-18789Y-6141D01*
X-18725Y-5984D01*
X-18724Y-5815D01*
X-18724Y-7433D01*
X-18740Y-7439D01*
X-18860Y-7558D01*
X-18924Y-7715D01*
X-18925Y-7884D01*
X-18860Y-8040D01*
X-18741Y-8160D01*
X-18584Y-8224D01*
X-18415Y-8225D01*
X-18259Y-8160D01*
X-18139Y-8041D01*
X-18075Y-7884D01*
X-18074Y-7715D01*
X-18074Y-17750D01*
X-18349Y-17750D01*
X-18349Y-12465D01*
X-18414Y-12309D01*
X-18533Y-12189D01*
X-18690Y-12125D01*
X-18859Y-12124D01*
X-18874Y-12131D01*
X-18874Y-12115D01*
X-18939Y-11959D01*
X-19058Y-11839D01*
X-19215Y-11775D01*
X-19384Y-11774D01*
X-19540Y-11839D01*
X-19660Y-11958D01*
X-19724Y-12115D01*
X-19725Y-12284D01*
X-19660Y-12440D01*
X-19541Y-12560D01*
X-19384Y-12624D01*
X-19215Y-12625D01*
X-19200Y-12618D01*
X-19200Y-12634D01*
X-19135Y-12790D01*
X-19016Y-12910D01*
X-18859Y-12974D01*
X-18690Y-12975D01*
X-18534Y-12910D01*
X-18414Y-12791D01*
X-18350Y-12634D01*
X-18349Y-12465D01*
X-18349Y-17750D01*
X-21074Y-17750D01*
X-21074Y-6115D01*
X-21139Y-5959D01*
X-21258Y-5839D01*
X-21415Y-5775D01*
X-21584Y-5774D01*
X-21740Y-5839D01*
X-21860Y-5958D01*
X-21924Y-6115D01*
X-21925Y-6284D01*
X-21860Y-6440D01*
X-21741Y-6560D01*
X-21584Y-6624D01*
X-21415Y-6625D01*
X-21259Y-6560D01*
X-21139Y-6441D01*
X-21075Y-6284D01*
X-21074Y-6115D01*
X-21074Y-17750D01*
X-22124Y-17750D01*
X-22124Y-3465D01*
X-22189Y-3309D01*
X-22308Y-3189D01*
X-22465Y-3125D01*
X-22634Y-3124D01*
X-22790Y-3189D01*
X-22900Y-3298D01*
X-23008Y-3189D01*
X-23165Y-3125D01*
X-23334Y-3124D01*
X-23490Y-3189D01*
X-23610Y-3308D01*
X-23674Y-3465D01*
X-23675Y-3634D01*
X-23610Y-3790D01*
X-23491Y-3910D01*
X-23334Y-3974D01*
X-23165Y-3975D01*
X-23009Y-3910D01*
X-22899Y-3801D01*
X-22791Y-3910D01*
X-22634Y-3974D01*
X-22465Y-3975D01*
X-22309Y-3910D01*
X-22189Y-3791D01*
X-22125Y-3634D01*
X-22124Y-3465D01*
X-22124Y-17750D01*
X-22749Y-17750D01*
X-22749Y-6590D01*
X-22814Y-6434D01*
X-22933Y-6314D01*
X-23090Y-6250D01*
X-23259Y-6249D01*
X-23415Y-6314D01*
X-23535Y-6433D01*
X-23599Y-6590D01*
X-23600Y-6759D01*
X-23535Y-6915D01*
X-23416Y-7035D01*
X-23259Y-7099D01*
X-23090Y-7100D01*
X-22934Y-7035D01*
X-22814Y-6916D01*
X-22750Y-6759D01*
X-22749Y-6590D01*
X-22749Y-17750D01*
X-22824Y-17750D01*
X-22824Y-11990D01*
X-22889Y-11834D01*
X-23008Y-11714D01*
X-23165Y-11650D01*
X-23334Y-11649D01*
X-23490Y-11714D01*
X-23610Y-11833D01*
X-23674Y-11990D01*
X-23675Y-12159D01*
X-23610Y-12315D01*
X-23491Y-12435D01*
X-23334Y-12499D01*
X-23165Y-12500D01*
X-23009Y-12435D01*
X-22889Y-12316D01*
X-22825Y-12159D01*
X-22824Y-11990D01*
X-22824Y-17750D01*
X-24204Y-17750D01*
X-24424Y-17529D01*
X-24424Y-15315D01*
X-24424Y-3190D01*
X-24489Y-3034D01*
X-24608Y-2914D01*
X-24765Y-2850D01*
X-24934Y-2849D01*
X-25090Y-2914D01*
X-25210Y-3033D01*
X-25274Y-3190D01*
X-25275Y-3359D01*
X-25210Y-3515D01*
X-25091Y-3635D01*
X-24934Y-3699D01*
X-24765Y-3700D01*
X-24609Y-3635D01*
X-24489Y-3516D01*
X-24425Y-3359D01*
X-24424Y-3190D01*
X-24424Y-15315D01*
X-24489Y-15159D01*
X-24608Y-15039D01*
X-24765Y-14975D01*
X-24774Y-14975D01*
X-24774Y-6315D01*
X-24839Y-6159D01*
X-24958Y-6039D01*
X-25115Y-5975D01*
X-25284Y-5974D01*
X-25440Y-6039D01*
X-25560Y-6158D01*
X-25624Y-6315D01*
X-25625Y-6484D01*
X-25560Y-6640D01*
X-25441Y-6760D01*
X-25284Y-6824D01*
X-25115Y-6825D01*
X-24959Y-6760D01*
X-24839Y-6641D01*
X-24775Y-6484D01*
X-24774Y-6315D01*
X-24774Y-14975D01*
X-24799Y-14975D01*
X-24799Y-10340D01*
X-24864Y-10184D01*
X-24874Y-10174D01*
X-24874Y-9340D01*
X-24939Y-9184D01*
X-24974Y-9149D01*
X-24974Y-8215D01*
X-25039Y-8059D01*
X-25158Y-7939D01*
X-25315Y-7875D01*
X-25484Y-7874D01*
X-25640Y-7939D01*
X-25760Y-8058D01*
X-25824Y-8215D01*
X-25825Y-8384D01*
X-25760Y-8540D01*
X-25641Y-8660D01*
X-25484Y-8724D01*
X-25315Y-8725D01*
X-25159Y-8660D01*
X-25039Y-8541D01*
X-24975Y-8384D01*
X-24974Y-8215D01*
X-24974Y-9149D01*
X-25058Y-9064D01*
X-25215Y-9000D01*
X-25384Y-8999D01*
X-25540Y-9064D01*
X-25660Y-9183D01*
X-25724Y-9340D01*
X-25725Y-9509D01*
X-25660Y-9665D01*
X-25541Y-9785D01*
X-25384Y-9849D01*
X-25215Y-9850D01*
X-25059Y-9785D01*
X-24939Y-9666D01*
X-24875Y-9509D01*
X-24874Y-9340D01*
X-24874Y-10174D01*
X-24983Y-10064D01*
X-25140Y-10000D01*
X-25309Y-9999D01*
X-25465Y-10064D01*
X-25585Y-10183D01*
X-25649Y-10340D01*
X-25650Y-10509D01*
X-25585Y-10665D01*
X-25466Y-10785D01*
X-25309Y-10849D01*
X-25140Y-10850D01*
X-24984Y-10785D01*
X-24864Y-10666D01*
X-24800Y-10509D01*
X-24799Y-10340D01*
X-24799Y-14975D01*
X-24934Y-14974D01*
X-24974Y-14991D01*
X-24974Y-13815D01*
X-24974Y-12415D01*
X-25039Y-12259D01*
X-25158Y-12139D01*
X-25199Y-12122D01*
X-25199Y-11315D01*
X-25264Y-11159D01*
X-25383Y-11039D01*
X-25540Y-10975D01*
X-25709Y-10974D01*
X-25865Y-11039D01*
X-25985Y-11158D01*
X-26049Y-11315D01*
X-26050Y-11484D01*
X-25985Y-11640D01*
X-25866Y-11760D01*
X-25709Y-11824D01*
X-25540Y-11825D01*
X-25384Y-11760D01*
X-25264Y-11641D01*
X-25200Y-11484D01*
X-25199Y-11315D01*
X-25199Y-12122D01*
X-25315Y-12075D01*
X-25484Y-12074D01*
X-25640Y-12139D01*
X-25760Y-12258D01*
X-25824Y-12415D01*
X-25825Y-12584D01*
X-25760Y-12740D01*
X-25641Y-12860D01*
X-25484Y-12924D01*
X-25315Y-12925D01*
X-25159Y-12860D01*
X-25039Y-12741D01*
X-24975Y-12584D01*
X-24974Y-12415D01*
X-24974Y-13815D01*
X-25039Y-13659D01*
X-25158Y-13539D01*
X-25315Y-13475D01*
X-25484Y-13474D01*
X-25640Y-13539D01*
X-25760Y-13658D01*
X-25824Y-13815D01*
X-25825Y-13984D01*
X-25760Y-14140D01*
X-25641Y-14260D01*
X-25484Y-14324D01*
X-25315Y-14325D01*
X-25159Y-14260D01*
X-25039Y-14141D01*
X-24975Y-13984D01*
X-24974Y-13815D01*
X-24974Y-14991D01*
X-25090Y-15039D01*
X-25210Y-15158D01*
X-25274Y-15315D01*
X-25275Y-15484D01*
X-25210Y-15640D01*
X-25091Y-15760D01*
X-24934Y-15824D01*
X-24765Y-15825D01*
X-24609Y-15760D01*
X-24489Y-15641D01*
X-24425Y-15484D01*
X-24424Y-15315D01*
X-24424Y-17529D01*
X-24904Y-17049D01*
X-24815Y-17050D01*
X-24659Y-16985D01*
X-24539Y-16866D01*
X-24475Y-16709D01*
X-24474Y-16540D01*
X-24539Y-16384D01*
X-24658Y-16264D01*
X-24815Y-16200D01*
X-24984Y-16199D01*
X-25140Y-16264D01*
X-25260Y-16383D01*
X-25324Y-16540D01*
X-25325Y-16629D01*
X-26154Y-15800D01*
X-26199Y-15800D01*
X-26199Y-13891D01*
X-26283Y-13688D01*
X-26438Y-13534D01*
X-26519Y-13500D01*
X-26438Y-13466D01*
X-26284Y-13311D01*
X-26200Y-13109D01*
X-26199Y-12891D01*
X-26283Y-12688D01*
X-26438Y-12534D01*
X-26519Y-12500D01*
X-26438Y-12466D01*
X-26284Y-12311D01*
X-26200Y-12109D01*
X-26199Y-11891D01*
X-26283Y-11688D01*
X-26438Y-11534D01*
X-26519Y-11500D01*
X-26438Y-11466D01*
X-26284Y-11311D01*
X-26200Y-11109D01*
X-26199Y-10891D01*
X-26283Y-10688D01*
X-26438Y-10534D01*
X-26519Y-10500D01*
X-26438Y-10466D01*
X-26284Y-10311D01*
X-26200Y-10109D01*
X-26199Y-9891D01*
X-26283Y-9688D01*
X-26438Y-9534D01*
X-26519Y-9500D01*
X-26438Y-9466D01*
X-26284Y-9311D01*
X-26200Y-9109D01*
X-26199Y-8891D01*
X-26283Y-8688D01*
X-26438Y-8534D01*
X-26519Y-8500D01*
X-26438Y-8466D01*
X-26284Y-8311D01*
X-26200Y-8109D01*
X-26199Y-7891D01*
X-26283Y-7688D01*
X-26438Y-7534D01*
X-26519Y-7500D01*
X-26438Y-7466D01*
X-26284Y-7311D01*
X-26200Y-7109D01*
X-26199Y-6891D01*
X-26283Y-6688D01*
X-26438Y-6534D01*
X-26519Y-6500D01*
X-26438Y-6466D01*
X-26284Y-6311D01*
X-26200Y-6109D01*
X-26199Y-5891D01*
X-26283Y-5688D01*
X-26438Y-5534D01*
X-26519Y-5500D01*
X-26438Y-5466D01*
X-26284Y-5311D01*
X-26200Y-5109D01*
X-26199Y-4891D01*
X-26283Y-4688D01*
X-26438Y-4534D01*
X-26519Y-4500D01*
X-26438Y-4466D01*
X-26284Y-4311D01*
X-26200Y-4109D01*
X-26199Y-3891D01*
X-26283Y-3688D01*
X-26438Y-3534D01*
X-26640Y-3450D01*
X-26858Y-3449D01*
X-27061Y-3533D01*
X-27215Y-3688D01*
X-27299Y-3890D01*
X-27300Y-4108D01*
X-27216Y-4311D01*
X-27061Y-4465D01*
X-26980Y-4499D01*
X-27061Y-4533D01*
X-27215Y-4688D01*
X-27299Y-4890D01*
X-27300Y-5108D01*
X-27216Y-5311D01*
X-27061Y-5465D01*
X-26980Y-5499D01*
X-27061Y-5533D01*
X-27215Y-5688D01*
X-27299Y-5890D01*
X-27300Y-6108D01*
X-27216Y-6311D01*
X-27061Y-6465D01*
X-26980Y-6499D01*
X-27061Y-6533D01*
X-27215Y-6688D01*
X-27299Y-6890D01*
X-27300Y-7108D01*
X-27216Y-7311D01*
X-27061Y-7465D01*
X-26980Y-7499D01*
X-27061Y-7533D01*
X-27215Y-7688D01*
X-27299Y-7890D01*
X-27300Y-8108D01*
X-27216Y-8311D01*
X-27061Y-8465D01*
X-26980Y-8499D01*
X-27061Y-8533D01*
X-27215Y-8688D01*
X-27299Y-8890D01*
X-27300Y-9108D01*
X-27216Y-9311D01*
X-27061Y-9465D01*
X-26980Y-9499D01*
X-27061Y-9533D01*
X-27215Y-9688D01*
X-27299Y-9890D01*
X-27300Y-10108D01*
X-27216Y-10311D01*
X-27061Y-10465D01*
X-26980Y-10499D01*
X-27061Y-10533D01*
X-27215Y-10688D01*
X-27299Y-10890D01*
X-27300Y-11108D01*
X-27216Y-11311D01*
X-27061Y-11465D01*
X-26980Y-11499D01*
X-27061Y-11533D01*
X-27215Y-11688D01*
X-27299Y-11890D01*
X-27300Y-12108D01*
X-27216Y-12311D01*
X-27061Y-12465D01*
X-26980Y-12499D01*
X-27061Y-12533D01*
X-27215Y-12688D01*
X-27299Y-12890D01*
X-27300Y-13108D01*
X-27216Y-13311D01*
X-27061Y-13465D01*
X-26980Y-13499D01*
X-27061Y-13533D01*
X-27215Y-13688D01*
X-27299Y-13890D01*
X-27300Y-14108D01*
X-27216Y-14311D01*
X-27077Y-14449D01*
X-27099Y-14449D01*
X-27191Y-14487D01*
X-27261Y-14558D01*
X-27299Y-14650D01*
X-27300Y-14749D01*
X-27300Y-15349D01*
X-27262Y-15441D01*
X-27191Y-15511D01*
X-27099Y-15549D01*
X-27000Y-15550D01*
X-26400Y-15550D01*
X-26308Y-15512D01*
X-26238Y-15441D01*
X-26200Y-15349D01*
X-26199Y-15250D01*
X-26199Y-14650D01*
X-26237Y-14558D01*
X-26308Y-14488D01*
X-26400Y-14450D01*
X-26422Y-14450D01*
X-26284Y-14311D01*
X-26200Y-14109D01*
X-26199Y-13891D01*
X-26199Y-15800D01*
X-27550Y-15800D01*
X-27550Y-3175D01*
X-26104Y-3175D01*
X-23979Y-1050D01*
X-23625Y-1050D01*
X-23525Y-1050D01*
X-23094Y-1050D01*
X-23268Y-1122D01*
X-23402Y-1255D01*
X-23474Y-1430D01*
X-23475Y-1619D01*
X-23402Y-1793D01*
X-23269Y-1927D01*
X-23094Y-1999D01*
X-22905Y-2000D01*
X-22731Y-1927D01*
X-22597Y-1794D01*
X-22525Y-1619D01*
X-22524Y-1430D01*
X-22597Y-1256D01*
X-22730Y-1122D01*
X-22905Y-1050D01*
X-23000Y-1050D01*
X-16645Y-1050D01*
X-16450Y-1245D01*
X-16450Y-1695D01*
X-16200Y-1945D01*
X-16200Y-4300D01*
X-14350Y-4300D01*
X-14270Y-4300D01*
X-14025Y-4545D01*
X-14025Y-5479D01*
X-14025Y-5479D01*
G37*
G54D20*
X-14025Y-5479D02*
X-14925Y-6379D01*
X-14925Y-6594D01*
X-14939Y-6559D01*
X-14994Y-6504D01*
X-14994Y-5413D01*
X-15007Y-5225D01*
X-15055Y-5107D01*
X-15143Y-5089D01*
X-15214Y-5159D01*
X-15214Y-5018D01*
X-15232Y-4930D01*
X-15411Y-4869D01*
X-15599Y-4882D01*
X-15717Y-4930D01*
X-15735Y-5018D01*
X-15475Y-5279D01*
X-15214Y-5018D01*
X-15214Y-5159D01*
X-15404Y-5350D01*
X-15143Y-5610D01*
X-15055Y-5592D01*
X-14994Y-5413D01*
X-14994Y-6504D01*
X-15058Y-6439D01*
X-15214Y-6375D01*
X-15214Y-5681D01*
X-15475Y-5420D01*
X-15545Y-5491D01*
X-15545Y-5350D01*
X-15806Y-5089D01*
X-15894Y-5107D01*
X-15955Y-5286D01*
X-15942Y-5474D01*
X-15894Y-5592D01*
X-15806Y-5610D01*
X-15545Y-5350D01*
X-15545Y-5491D01*
X-15735Y-5681D01*
X-15717Y-5769D01*
X-15538Y-5830D01*
X-15350Y-5817D01*
X-15232Y-5769D01*
X-15214Y-5681D01*
X-15214Y-6375D01*
X-15215Y-6375D01*
X-15384Y-6374D01*
X-15540Y-6439D01*
X-15660Y-6558D01*
X-15724Y-6715D01*
X-15725Y-6884D01*
X-15660Y-7040D01*
X-15541Y-7160D01*
X-15505Y-7174D01*
X-15540Y-7189D01*
X-15660Y-7308D01*
X-15724Y-7465D01*
X-15725Y-7634D01*
X-15660Y-7790D01*
X-15541Y-7910D01*
X-15505Y-7925D01*
X-16874Y-7925D01*
X-16874Y-2015D01*
X-16939Y-1859D01*
X-17058Y-1739D01*
X-17215Y-1675D01*
X-17384Y-1674D01*
X-17540Y-1739D01*
X-17660Y-1858D01*
X-17724Y-2015D01*
X-17725Y-2184D01*
X-17660Y-2340D01*
X-17541Y-2460D01*
X-17384Y-2524D01*
X-17215Y-2525D01*
X-17059Y-2460D01*
X-16939Y-2341D01*
X-16875Y-2184D01*
X-16874Y-2015D01*
X-16874Y-7925D01*
X-17220Y-7925D01*
X-17525Y-8229D01*
X-17525Y-9370D01*
X-17520Y-9374D01*
X-17534Y-9374D01*
X-17690Y-9439D01*
X-17810Y-9558D01*
X-17874Y-9715D01*
X-17875Y-9884D01*
X-17810Y-10040D01*
X-17691Y-10160D01*
X-17534Y-10224D01*
X-17365Y-10225D01*
X-17209Y-10160D01*
X-17089Y-10041D01*
X-17075Y-10005D01*
X-17075Y-10129D01*
X-17625Y-10679D01*
X-17625Y-11504D01*
X-17925Y-11804D01*
X-17925Y-12750D01*
X-16945Y-12750D01*
X-16425Y-13270D01*
X-16425Y-14000D01*
X-16251Y-14000D01*
X-16310Y-14058D01*
X-16374Y-14215D01*
X-16375Y-14384D01*
X-16310Y-14540D01*
X-16191Y-14660D01*
X-16034Y-14724D01*
X-15865Y-14725D01*
X-15709Y-14660D01*
X-15589Y-14541D01*
X-15525Y-14384D01*
X-15524Y-14295D01*
X-14550Y-15270D01*
X-14550Y-17529D01*
X-14770Y-17750D01*
X-16274Y-17750D01*
X-16274Y-16415D01*
X-16339Y-16259D01*
X-16458Y-16139D01*
X-16615Y-16075D01*
X-16784Y-16074D01*
X-16940Y-16139D01*
X-17060Y-16258D01*
X-17124Y-16415D01*
X-17125Y-16584D01*
X-17060Y-16740D01*
X-16941Y-16860D01*
X-16784Y-16924D01*
X-16615Y-16925D01*
X-16459Y-16860D01*
X-16339Y-16741D01*
X-16275Y-16584D01*
X-16274Y-16415D01*
X-16274Y-17750D01*
X-18074Y-17750D01*
X-18074Y-7715D01*
X-18139Y-7559D01*
X-18258Y-7439D01*
X-18374Y-7391D01*
X-18374Y-2415D01*
X-18439Y-2259D01*
X-18558Y-2139D01*
X-18715Y-2075D01*
X-18884Y-2074D01*
X-19040Y-2139D01*
X-19160Y-2258D01*
X-19224Y-2415D01*
X-19225Y-2584D01*
X-19160Y-2740D01*
X-19041Y-2860D01*
X-18884Y-2924D01*
X-18715Y-2925D01*
X-18559Y-2860D01*
X-18439Y-2741D01*
X-18375Y-2584D01*
X-18374Y-2415D01*
X-18374Y-7391D01*
X-18415Y-7375D01*
X-18584Y-7374D01*
X-18724Y-7433D01*
X-18724Y-5815D01*
X-18789Y-5659D01*
X-18908Y-5539D01*
X-19065Y-5475D01*
X-19234Y-5474D01*
X-19318Y-5509D01*
X-19339Y-5459D01*
X-19458Y-5339D01*
X-19615Y-5275D01*
X-19733Y-5274D01*
X-19675Y-5134D01*
X-19674Y-4965D01*
X-19739Y-4809D01*
X-19858Y-4689D01*
X-20015Y-4625D01*
X-20174Y-4624D01*
X-20174Y-2365D01*
X-20239Y-2209D01*
X-20358Y-2089D01*
X-20515Y-2025D01*
X-20684Y-2024D01*
X-20840Y-2089D01*
X-20960Y-2208D01*
X-21024Y-2365D01*
X-21025Y-2534D01*
X-20960Y-2690D01*
X-20841Y-2810D01*
X-20684Y-2874D01*
X-20515Y-2875D01*
X-20359Y-2810D01*
X-20239Y-2691D01*
X-20175Y-2534D01*
X-20174Y-2365D01*
X-20174Y-4624D01*
X-20184Y-4624D01*
X-20340Y-4689D01*
X-20460Y-4808D01*
X-20524Y-4965D01*
X-20524Y-4340D01*
X-20589Y-4184D01*
X-20708Y-4064D01*
X-20865Y-4000D01*
X-21034Y-3999D01*
X-21190Y-4064D01*
X-21310Y-4183D01*
X-21374Y-4340D01*
X-21375Y-4509D01*
X-21310Y-4665D01*
X-21191Y-4785D01*
X-21034Y-4849D01*
X-20865Y-4850D01*
X-20709Y-4785D01*
X-20589Y-4666D01*
X-20525Y-4509D01*
X-20524Y-4340D01*
X-20524Y-4965D01*
X-20525Y-5134D01*
X-20460Y-5290D01*
X-20341Y-5410D01*
X-20184Y-5474D01*
X-20066Y-5475D01*
X-20124Y-5615D01*
X-20125Y-5784D01*
X-20060Y-5940D01*
X-19941Y-6060D01*
X-19784Y-6124D01*
X-19615Y-6125D01*
X-19531Y-6090D01*
X-19510Y-6140D01*
X-19391Y-6260D01*
X-19234Y-6324D01*
X-19065Y-6325D01*
X-18909Y-6260D01*
X-18789Y-6141D01*
X-18725Y-5984D01*
X-18724Y-5815D01*
X-18724Y-7433D01*
X-18740Y-7439D01*
X-18860Y-7558D01*
X-18924Y-7715D01*
X-18925Y-7884D01*
X-18860Y-8040D01*
X-18741Y-8160D01*
X-18584Y-8224D01*
X-18415Y-8225D01*
X-18259Y-8160D01*
X-18139Y-8041D01*
X-18075Y-7884D01*
X-18074Y-7715D01*
X-18074Y-17750D01*
X-18349Y-17750D01*
X-18349Y-12465D01*
X-18414Y-12309D01*
X-18533Y-12189D01*
X-18690Y-12125D01*
X-18859Y-12124D01*
X-18874Y-12131D01*
X-18874Y-12115D01*
X-18939Y-11959D01*
X-19058Y-11839D01*
X-19215Y-11775D01*
X-19384Y-11774D01*
X-19540Y-11839D01*
X-19660Y-11958D01*
X-19724Y-12115D01*
X-19725Y-12284D01*
X-19660Y-12440D01*
X-19541Y-12560D01*
X-19384Y-12624D01*
X-19215Y-12625D01*
X-19200Y-12618D01*
X-19200Y-12634D01*
X-19135Y-12790D01*
X-19016Y-12910D01*
X-18859Y-12974D01*
X-18690Y-12975D01*
X-18534Y-12910D01*
X-18414Y-12791D01*
X-18350Y-12634D01*
X-18349Y-12465D01*
X-18349Y-17750D01*
X-21074Y-17750D01*
X-21074Y-6115D01*
X-21139Y-5959D01*
X-21258Y-5839D01*
X-21415Y-5775D01*
X-21584Y-5774D01*
X-21740Y-5839D01*
X-21860Y-5958D01*
X-21924Y-6115D01*
X-21925Y-6284D01*
X-21860Y-6440D01*
X-21741Y-6560D01*
X-21584Y-6624D01*
X-21415Y-6625D01*
X-21259Y-6560D01*
X-21139Y-6441D01*
X-21075Y-6284D01*
X-21074Y-6115D01*
X-21074Y-17750D01*
X-22124Y-17750D01*
X-22124Y-3465D01*
X-22189Y-3309D01*
X-22308Y-3189D01*
X-22465Y-3125D01*
X-22634Y-3124D01*
X-22790Y-3189D01*
X-22900Y-3298D01*
X-23008Y-3189D01*
X-23165Y-3125D01*
X-23334Y-3124D01*
X-23490Y-3189D01*
X-23610Y-3308D01*
X-23674Y-3465D01*
X-23675Y-3634D01*
X-23610Y-3790D01*
X-23491Y-3910D01*
X-23334Y-3974D01*
X-23165Y-3975D01*
X-23009Y-3910D01*
X-22899Y-3801D01*
X-22791Y-3910D01*
X-22634Y-3974D01*
X-22465Y-3975D01*
X-22309Y-3910D01*
X-22189Y-3791D01*
X-22125Y-3634D01*
X-22124Y-3465D01*
X-22124Y-17750D01*
X-22749Y-17750D01*
X-22749Y-6590D01*
X-22814Y-6434D01*
X-22933Y-6314D01*
X-23090Y-6250D01*
X-23259Y-6249D01*
X-23415Y-6314D01*
X-23535Y-6433D01*
X-23599Y-6590D01*
X-23600Y-6759D01*
X-23535Y-6915D01*
X-23416Y-7035D01*
X-23259Y-7099D01*
X-23090Y-7100D01*
X-22934Y-7035D01*
X-22814Y-6916D01*
X-22750Y-6759D01*
X-22749Y-6590D01*
X-22749Y-17750D01*
X-22824Y-17750D01*
X-22824Y-11990D01*
X-22889Y-11834D01*
X-23008Y-11714D01*
X-23165Y-11650D01*
X-23334Y-11649D01*
X-23490Y-11714D01*
X-23610Y-11833D01*
X-23674Y-11990D01*
X-23675Y-12159D01*
X-23610Y-12315D01*
X-23491Y-12435D01*
X-23334Y-12499D01*
X-23165Y-12500D01*
X-23009Y-12435D01*
X-22889Y-12316D01*
X-22825Y-12159D01*
X-22824Y-11990D01*
X-22824Y-17750D01*
X-24204Y-17750D01*
X-24424Y-17529D01*
X-24424Y-15315D01*
X-24424Y-3190D01*
X-24489Y-3034D01*
X-24608Y-2914D01*
X-24765Y-2850D01*
X-24934Y-2849D01*
X-25090Y-2914D01*
X-25210Y-3033D01*
X-25274Y-3190D01*
X-25275Y-3359D01*
X-25210Y-3515D01*
X-25091Y-3635D01*
X-24934Y-3699D01*
X-24765Y-3700D01*
X-24609Y-3635D01*
X-24489Y-3516D01*
X-24425Y-3359D01*
X-24424Y-3190D01*
X-24424Y-15315D01*
X-24489Y-15159D01*
X-24608Y-15039D01*
X-24765Y-14975D01*
X-24774Y-14975D01*
X-24774Y-6315D01*
X-24839Y-6159D01*
X-24958Y-6039D01*
X-25115Y-5975D01*
X-25284Y-5974D01*
X-25440Y-6039D01*
X-25560Y-6158D01*
X-25624Y-6315D01*
X-25625Y-6484D01*
X-25560Y-6640D01*
X-25441Y-6760D01*
X-25284Y-6824D01*
X-25115Y-6825D01*
X-24959Y-6760D01*
X-24839Y-6641D01*
X-24775Y-6484D01*
X-24774Y-6315D01*
X-24774Y-14975D01*
X-24799Y-14975D01*
X-24799Y-10340D01*
X-24864Y-10184D01*
X-24874Y-10174D01*
X-24874Y-9340D01*
X-24939Y-9184D01*
X-24974Y-9149D01*
X-24974Y-8215D01*
X-25039Y-8059D01*
X-25158Y-7939D01*
X-25315Y-7875D01*
X-25484Y-7874D01*
X-25640Y-7939D01*
X-25760Y-8058D01*
X-25824Y-8215D01*
X-25825Y-8384D01*
X-25760Y-8540D01*
X-25641Y-8660D01*
X-25484Y-8724D01*
X-25315Y-8725D01*
X-25159Y-8660D01*
X-25039Y-8541D01*
X-24975Y-8384D01*
X-24974Y-8215D01*
X-24974Y-9149D01*
X-25058Y-9064D01*
X-25215Y-9000D01*
X-25384Y-8999D01*
X-25540Y-9064D01*
X-25660Y-9183D01*
X-25724Y-9340D01*
X-25725Y-9509D01*
X-25660Y-9665D01*
X-25541Y-9785D01*
X-25384Y-9849D01*
X-25215Y-9850D01*
X-25059Y-9785D01*
X-24939Y-9666D01*
X-24875Y-9509D01*
X-24874Y-9340D01*
X-24874Y-10174D01*
X-24983Y-10064D01*
X-25140Y-10000D01*
X-25309Y-9999D01*
X-25465Y-10064D01*
X-25585Y-10183D01*
X-25649Y-10340D01*
X-25650Y-10509D01*
X-25585Y-10665D01*
X-25466Y-10785D01*
X-25309Y-10849D01*
X-25140Y-10850D01*
X-24984Y-10785D01*
X-24864Y-10666D01*
X-24800Y-10509D01*
X-24799Y-10340D01*
X-24799Y-14975D01*
X-24934Y-14974D01*
X-24974Y-14991D01*
X-24974Y-13815D01*
X-24974Y-12415D01*
X-25039Y-12259D01*
X-25158Y-12139D01*
X-25199Y-12122D01*
X-25199Y-11315D01*
X-25264Y-11159D01*
X-25383Y-11039D01*
X-25540Y-10975D01*
X-25709Y-10974D01*
X-25865Y-11039D01*
X-25985Y-11158D01*
X-26049Y-11315D01*
X-26050Y-11484D01*
X-25985Y-11640D01*
X-25866Y-11760D01*
X-25709Y-11824D01*
X-25540Y-11825D01*
X-25384Y-11760D01*
X-25264Y-11641D01*
X-25200Y-11484D01*
X-25199Y-11315D01*
X-25199Y-12122D01*
X-25315Y-12075D01*
X-25484Y-12074D01*
X-25640Y-12139D01*
X-25760Y-12258D01*
X-25824Y-12415D01*
X-25825Y-12584D01*
X-25760Y-12740D01*
X-25641Y-12860D01*
X-25484Y-12924D01*
X-25315Y-12925D01*
X-25159Y-12860D01*
X-25039Y-12741D01*
X-24975Y-12584D01*
X-24974Y-12415D01*
X-24974Y-13815D01*
X-25039Y-13659D01*
X-25158Y-13539D01*
X-25315Y-13475D01*
X-25484Y-13474D01*
X-25640Y-13539D01*
X-25760Y-13658D01*
X-25824Y-13815D01*
X-25825Y-13984D01*
X-25760Y-14140D01*
X-25641Y-14260D01*
X-25484Y-14324D01*
X-25315Y-14325D01*
X-25159Y-14260D01*
X-25039Y-14141D01*
X-24975Y-13984D01*
X-24974Y-13815D01*
X-24974Y-14991D01*
X-25090Y-15039D01*
X-25210Y-15158D01*
X-25274Y-15315D01*
X-25275Y-15484D01*
X-25210Y-15640D01*
X-25091Y-15760D01*
X-24934Y-15824D01*
X-24765Y-15825D01*
X-24609Y-15760D01*
X-24489Y-15641D01*
X-24425Y-15484D01*
X-24424Y-15315D01*
X-24424Y-17529D01*
X-24904Y-17049D01*
X-24815Y-17050D01*
X-24659Y-16985D01*
X-24539Y-16866D01*
X-24475Y-16709D01*
X-24474Y-16540D01*
X-24539Y-16384D01*
X-24658Y-16264D01*
X-24815Y-16200D01*
X-24984Y-16199D01*
X-25140Y-16264D01*
X-25260Y-16383D01*
X-25324Y-16540D01*
X-25325Y-16629D01*
X-26154Y-15800D01*
X-26199Y-15800D01*
X-26199Y-13891D01*
X-26283Y-13688D01*
X-26438Y-13534D01*
X-26519Y-13500D01*
X-26438Y-13466D01*
X-26284Y-13311D01*
X-26200Y-13109D01*
X-26199Y-12891D01*
X-26283Y-12688D01*
X-26438Y-12534D01*
X-26519Y-12500D01*
X-26438Y-12466D01*
X-26284Y-12311D01*
X-26200Y-12109D01*
X-26199Y-11891D01*
X-26283Y-11688D01*
X-26438Y-11534D01*
X-26519Y-11500D01*
X-26438Y-11466D01*
X-26284Y-11311D01*
X-26200Y-11109D01*
X-26199Y-10891D01*
X-26283Y-10688D01*
X-26438Y-10534D01*
X-26519Y-10500D01*
X-26438Y-10466D01*
X-26284Y-10311D01*
X-26200Y-10109D01*
X-26199Y-9891D01*
X-26283Y-9688D01*
X-26438Y-9534D01*
X-26519Y-9500D01*
X-26438Y-9466D01*
X-26284Y-9311D01*
X-26200Y-9109D01*
X-26199Y-8891D01*
X-26283Y-8688D01*
X-26438Y-8534D01*
X-26519Y-8500D01*
X-26438Y-8466D01*
X-26284Y-8311D01*
X-26200Y-8109D01*
X-26199Y-7891D01*
X-26283Y-7688D01*
X-26438Y-7534D01*
X-26519Y-7500D01*
X-26438Y-7466D01*
X-26284Y-7311D01*
X-26200Y-7109D01*
X-26199Y-6891D01*
X-26283Y-6688D01*
X-26438Y-6534D01*
X-26519Y-6500D01*
X-26438Y-6466D01*
X-26284Y-6311D01*
X-26200Y-6109D01*
X-26199Y-5891D01*
X-26283Y-5688D01*
X-26438Y-5534D01*
X-26519Y-5500D01*
X-26438Y-5466D01*
X-26284Y-5311D01*
X-26200Y-5109D01*
X-26199Y-4891D01*
X-26283Y-4688D01*
X-26438Y-4534D01*
X-26519Y-4500D01*
X-26438Y-4466D01*
X-26284Y-4311D01*
X-26200Y-4109D01*
X-26199Y-3891D01*
X-26283Y-3688D01*
X-26438Y-3534D01*
X-26640Y-3450D01*
X-26858Y-3449D01*
X-27061Y-3533D01*
X-27215Y-3688D01*
X-27299Y-3890D01*
X-27300Y-4108D01*
X-27216Y-4311D01*
X-27061Y-4465D01*
X-26980Y-4499D01*
X-27061Y-4533D01*
X-27215Y-4688D01*
X-27299Y-4890D01*
X-27300Y-5108D01*
X-27216Y-5311D01*
X-27061Y-5465D01*
X-26980Y-5499D01*
X-27061Y-5533D01*
X-27215Y-5688D01*
X-27299Y-5890D01*
X-27300Y-6108D01*
X-27216Y-6311D01*
X-27061Y-6465D01*
X-26980Y-6499D01*
X-27061Y-6533D01*
X-27215Y-6688D01*
X-27299Y-6890D01*
X-27300Y-7108D01*
X-27216Y-7311D01*
X-27061Y-7465D01*
X-26980Y-7499D01*
X-27061Y-7533D01*
X-27215Y-7688D01*
X-27299Y-7890D01*
X-27300Y-8108D01*
X-27216Y-8311D01*
X-27061Y-8465D01*
X-26980Y-8499D01*
X-27061Y-8533D01*
X-27215Y-8688D01*
X-27299Y-8890D01*
X-27300Y-9108D01*
X-27216Y-9311D01*
X-27061Y-9465D01*
X-26980Y-9499D01*
X-27061Y-9533D01*
X-27215Y-9688D01*
X-27299Y-9890D01*
X-27300Y-10108D01*
X-27216Y-10311D01*
X-27061Y-10465D01*
X-26980Y-10499D01*
X-27061Y-10533D01*
X-27215Y-10688D01*
X-27299Y-10890D01*
X-27300Y-11108D01*
X-27216Y-11311D01*
X-27061Y-11465D01*
X-26980Y-11499D01*
X-27061Y-11533D01*
X-27215Y-11688D01*
X-27299Y-11890D01*
X-27300Y-12108D01*
X-27216Y-12311D01*
X-27061Y-12465D01*
X-26980Y-12499D01*
X-27061Y-12533D01*
X-27215Y-12688D01*
X-27299Y-12890D01*
X-27300Y-13108D01*
X-27216Y-13311D01*
X-27061Y-13465D01*
X-26980Y-13499D01*
X-27061Y-13533D01*
X-27215Y-13688D01*
X-27299Y-13890D01*
X-27300Y-14108D01*
X-27216Y-14311D01*
X-27077Y-14449D01*
X-27099Y-14449D01*
X-27191Y-14487D01*
X-27261Y-14558D01*
X-27299Y-14650D01*
X-27300Y-14749D01*
X-27300Y-15349D01*
X-27262Y-15441D01*
X-27191Y-15511D01*
X-27099Y-15549D01*
X-27000Y-15550D01*
X-26400Y-15550D01*
X-26308Y-15512D01*
X-26238Y-15441D01*
X-26200Y-15349D01*
X-26199Y-15250D01*
X-26199Y-14650D01*
X-26237Y-14558D01*
X-26308Y-14488D01*
X-26400Y-14450D01*
X-26422Y-14450D01*
X-26284Y-14311D01*
X-26200Y-14109D01*
X-26199Y-13891D01*
X-26199Y-15800D01*
X-27550Y-15800D01*
X-27550Y-3175D01*
X-26104Y-3175D01*
X-23979Y-1050D01*
X-23625Y-1050D01*
X-23525Y-1050D01*
X-23094Y-1050D01*
X-23268Y-1122D01*
X-23402Y-1255D01*
X-23474Y-1430D01*
X-23475Y-1619D01*
X-23402Y-1793D01*
X-23269Y-1927D01*
X-23094Y-1999D01*
X-22905Y-2000D01*
X-22731Y-1927D01*
X-22597Y-1794D01*
X-22525Y-1619D01*
X-22524Y-1430D01*
X-22597Y-1256D01*
X-22730Y-1122D01*
X-22905Y-1050D01*
X-23000Y-1050D01*
X-16645Y-1050D01*
X-16450Y-1245D01*
X-16450Y-1695D01*
X-16200Y-1945D01*
X-16200Y-4300D01*
X-14350Y-4300D01*
X-14270Y-4300D01*
X-14025Y-4545D01*
X-14025Y-5479D01*
G54D10*
G36*
X4725Y-6250D02*
X4554Y-6250D01*
X4554Y-2581D01*
X4543Y-2363D01*
X4481Y-2212D01*
X4385Y-2184D01*
X4070Y-2500D01*
X4385Y-2815D01*
X4481Y-2787D01*
X4554Y-2581D01*
X4554Y-6250D01*
X4550Y-6250D01*
X4550Y-5391D01*
X4466Y-5188D01*
X4311Y-5034D01*
X4230Y-5000D01*
X4311Y-4966D01*
X4465Y-4811D01*
X4549Y-4609D01*
X4550Y-4391D01*
X4466Y-4188D01*
X4311Y-4034D01*
X4230Y-4000D01*
X4311Y-3966D01*
X4465Y-3811D01*
X4549Y-3609D01*
X4550Y-3391D01*
X4466Y-3188D01*
X4311Y-3034D01*
X4236Y-3002D01*
X4287Y-2981D01*
X4315Y-2885D01*
X4000Y-2570D01*
X3684Y-2885D01*
X3712Y-2981D01*
X3767Y-3000D01*
X3688Y-3033D01*
X3534Y-3188D01*
X3500Y-3269D01*
X3466Y-3188D01*
X3311Y-3034D01*
X3230Y-3000D01*
X3311Y-2966D01*
X3465Y-2811D01*
X3497Y-2736D01*
X3518Y-2787D01*
X3614Y-2815D01*
X3929Y-2500D01*
X3614Y-2184D01*
X3518Y-2212D01*
X3499Y-2267D01*
X3466Y-2188D01*
X3327Y-2050D01*
X3349Y-2050D01*
X3441Y-2012D01*
X3511Y-1941D01*
X3549Y-1849D01*
X3549Y-1827D01*
X3688Y-1965D01*
X3763Y-1997D01*
X3712Y-2018D01*
X3684Y-2114D01*
X4000Y-2429D01*
X4315Y-2114D01*
X4287Y-2018D01*
X4232Y-1999D01*
X4311Y-1966D01*
X4465Y-1811D01*
X4549Y-1609D01*
X4550Y-1391D01*
X4466Y-1188D01*
X4311Y-1034D01*
X4109Y-950D01*
X3891Y-949D01*
X3688Y-1033D01*
X3550Y-1172D01*
X3550Y-1150D01*
X3512Y-1058D01*
X3441Y-988D01*
X3349Y-950D01*
X3250Y-949D01*
X2650Y-949D01*
X2558Y-987D01*
X2488Y-1058D01*
X2450Y-1150D01*
X2449Y-1249D01*
X2449Y-1849D01*
X2487Y-1941D01*
X2558Y-2011D01*
X2650Y-2049D01*
X2672Y-2049D01*
X2534Y-2188D01*
X2450Y-2390D01*
X2449Y-2608D01*
X2533Y-2811D01*
X2688Y-2965D01*
X2769Y-2999D01*
X2688Y-3033D01*
X2534Y-3188D01*
X2450Y-3390D01*
X2449Y-3608D01*
X2533Y-3811D01*
X2688Y-3965D01*
X2769Y-3999D01*
X2688Y-4033D01*
X2534Y-4188D01*
X2450Y-4390D01*
X2449Y-4608D01*
X2533Y-4811D01*
X2688Y-4965D01*
X2769Y-4999D01*
X2688Y-5033D01*
X2534Y-5188D01*
X2450Y-5390D01*
X2449Y-5608D01*
X2533Y-5811D01*
X2688Y-5965D01*
X2890Y-6049D01*
X3108Y-6050D01*
X3311Y-5966D01*
X3465Y-5811D01*
X3499Y-5730D01*
X3533Y-5811D01*
X3688Y-5965D01*
X3890Y-6049D01*
X4108Y-6050D01*
X4311Y-5966D01*
X4465Y-5811D01*
X4549Y-5609D01*
X4550Y-5391D01*
X4550Y-6250D01*
X2150Y-6250D01*
X2150Y-5040D01*
X2085Y-4884D01*
X1966Y-4764D01*
X1809Y-4700D01*
X1640Y-4699D01*
X1484Y-4764D01*
X1364Y-4883D01*
X1300Y-5040D01*
X1299Y-5209D01*
X1364Y-5365D01*
X1483Y-5485D01*
X1640Y-5549D01*
X1809Y-5550D01*
X1965Y-5485D01*
X2085Y-5366D01*
X2149Y-5209D01*
X2150Y-5040D01*
X2150Y-6250D01*
X-2519Y-6250D01*
X-2519Y-2188D01*
X-2532Y-2000D01*
X-2580Y-1882D01*
X-2668Y-1864D01*
X-2739Y-1934D01*
X-2739Y-1793D01*
X-2757Y-1705D01*
X-2936Y-1644D01*
X-3124Y-1657D01*
X-3242Y-1705D01*
X-3260Y-1793D01*
X-3000Y-2054D01*
X-2739Y-1793D01*
X-2739Y-1934D01*
X-2929Y-2125D01*
X-2668Y-2385D01*
X-2580Y-2367D01*
X-2519Y-2188D01*
X-2519Y-6250D01*
X-2739Y-6250D01*
X-2739Y-2456D01*
X-3000Y-2195D01*
X-3070Y-2266D01*
X-3070Y-2125D01*
X-3331Y-1864D01*
X-3419Y-1882D01*
X-3480Y-2061D01*
X-3467Y-2249D01*
X-3419Y-2367D01*
X-3331Y-2385D01*
X-3070Y-2125D01*
X-3070Y-2266D01*
X-3260Y-2456D01*
X-3242Y-2544D01*
X-3063Y-2605D01*
X-2875Y-2592D01*
X-2757Y-2544D01*
X-2739Y-2456D01*
X-2739Y-6250D01*
X-2925Y-6250D01*
X-2925Y-11600D01*
X-3424Y-11600D01*
X-3424Y-10955D01*
X-3474Y-10834D01*
X-3474Y-3665D01*
X-3539Y-3509D01*
X-3658Y-3389D01*
X-3815Y-3325D01*
X-3984Y-3324D01*
X-4140Y-3389D01*
X-4260Y-3508D01*
X-4324Y-3665D01*
X-4325Y-3824D01*
X-4334Y-3824D01*
X-4490Y-3889D01*
X-4610Y-4008D01*
X-4674Y-4165D01*
X-4675Y-4262D01*
X-4765Y-4225D01*
X-4934Y-4224D01*
X-5090Y-4289D01*
X-5210Y-4408D01*
X-5262Y-4535D01*
X-5314Y-4409D01*
X-5433Y-4289D01*
X-5590Y-4225D01*
X-5759Y-4224D01*
X-5915Y-4289D01*
X-5923Y-4297D01*
X-5939Y-4259D01*
X-6058Y-4139D01*
X-6215Y-4075D01*
X-6299Y-4074D01*
X-6299Y-3565D01*
X-6364Y-3409D01*
X-6483Y-3289D01*
X-6640Y-3225D01*
X-6809Y-3224D01*
X-6965Y-3289D01*
X-7085Y-3408D01*
X-7149Y-3565D01*
X-7149Y-3600D01*
X-7284Y-3599D01*
X-7440Y-3664D01*
X-7560Y-3783D01*
X-7624Y-3940D01*
X-7625Y-4109D01*
X-7560Y-4265D01*
X-7441Y-4385D01*
X-7284Y-4449D01*
X-7115Y-4450D01*
X-6959Y-4385D01*
X-6839Y-4266D01*
X-6775Y-4109D01*
X-6775Y-4074D01*
X-6640Y-4075D01*
X-6484Y-4010D01*
X-6364Y-3891D01*
X-6300Y-3734D01*
X-6299Y-3565D01*
X-6299Y-4074D01*
X-6384Y-4074D01*
X-6540Y-4139D01*
X-6660Y-4258D01*
X-6724Y-4415D01*
X-6725Y-4584D01*
X-6660Y-4740D01*
X-6541Y-4860D01*
X-6384Y-4924D01*
X-6215Y-4925D01*
X-6059Y-4860D01*
X-6051Y-4852D01*
X-6035Y-4890D01*
X-5916Y-5010D01*
X-5759Y-5074D01*
X-5590Y-5075D01*
X-5434Y-5010D01*
X-5314Y-4891D01*
X-5262Y-4764D01*
X-5210Y-4890D01*
X-5091Y-5010D01*
X-4934Y-5074D01*
X-4765Y-5075D01*
X-4609Y-5010D01*
X-4489Y-4891D01*
X-4425Y-4734D01*
X-4424Y-4637D01*
X-4334Y-4674D01*
X-4165Y-4675D01*
X-4009Y-4610D01*
X-3889Y-4491D01*
X-3825Y-4334D01*
X-3824Y-4175D01*
X-3815Y-4175D01*
X-3659Y-4110D01*
X-3539Y-3991D01*
X-3475Y-3834D01*
X-3474Y-3665D01*
X-3474Y-10834D01*
X-3497Y-10781D01*
X-3630Y-10647D01*
X-3674Y-10629D01*
X-3674Y-9390D01*
X-3739Y-9234D01*
X-3858Y-9114D01*
X-4015Y-9050D01*
X-4184Y-9049D01*
X-4340Y-9114D01*
X-4399Y-9173D01*
X-4424Y-9148D01*
X-4424Y-7665D01*
X-4489Y-7509D01*
X-4608Y-7389D01*
X-4765Y-7325D01*
X-4934Y-7324D01*
X-5090Y-7389D01*
X-5210Y-7508D01*
X-5274Y-7665D01*
X-5275Y-7834D01*
X-5210Y-7990D01*
X-5091Y-8110D01*
X-4934Y-8174D01*
X-4765Y-8175D01*
X-4609Y-8110D01*
X-4489Y-7991D01*
X-4425Y-7834D01*
X-4424Y-7665D01*
X-4424Y-9148D01*
X-4458Y-9114D01*
X-4615Y-9050D01*
X-4784Y-9049D01*
X-4940Y-9114D01*
X-5060Y-9233D01*
X-5124Y-9390D01*
X-5125Y-9559D01*
X-5060Y-9715D01*
X-4941Y-9835D01*
X-4784Y-9899D01*
X-4615Y-9900D01*
X-4459Y-9835D01*
X-4400Y-9776D01*
X-4341Y-9835D01*
X-4184Y-9899D01*
X-4015Y-9900D01*
X-3859Y-9835D01*
X-3739Y-9716D01*
X-3675Y-9559D01*
X-3674Y-9390D01*
X-3674Y-10629D01*
X-3805Y-10575D01*
X-3994Y-10574D01*
X-4168Y-10647D01*
X-4302Y-10780D01*
X-4374Y-10955D01*
X-4375Y-11144D01*
X-4302Y-11318D01*
X-4169Y-11452D01*
X-3994Y-11524D01*
X-3805Y-11525D01*
X-3631Y-11452D01*
X-3497Y-11319D01*
X-3425Y-11144D01*
X-3424Y-10955D01*
X-3424Y-11600D01*
X-5800Y-11600D01*
X-5800Y-17454D01*
X-6024Y-17679D01*
X-6024Y-12765D01*
X-6089Y-12609D01*
X-6208Y-12489D01*
X-6299Y-12452D01*
X-6299Y-7265D01*
X-6364Y-7109D01*
X-6483Y-6989D01*
X-6640Y-6925D01*
X-6809Y-6924D01*
X-6965Y-6989D01*
X-7085Y-7108D01*
X-7149Y-7265D01*
X-7150Y-7434D01*
X-7085Y-7590D01*
X-6966Y-7710D01*
X-6809Y-7774D01*
X-6640Y-7775D01*
X-6484Y-7710D01*
X-6364Y-7591D01*
X-6300Y-7434D01*
X-6299Y-7265D01*
X-6299Y-12452D01*
X-6365Y-12425D01*
X-6499Y-12424D01*
X-6499Y-10840D01*
X-6564Y-10684D01*
X-6683Y-10564D01*
X-6840Y-10500D01*
X-7009Y-10499D01*
X-7165Y-10564D01*
X-7285Y-10683D01*
X-7299Y-10719D01*
X-7299Y-7815D01*
X-7364Y-7659D01*
X-7483Y-7539D01*
X-7640Y-7475D01*
X-7674Y-7475D01*
X-7674Y-6040D01*
X-7739Y-5884D01*
X-7848Y-5774D01*
X-7789Y-5716D01*
X-7725Y-5559D01*
X-7724Y-5390D01*
X-7789Y-5234D01*
X-7908Y-5114D01*
X-8065Y-5050D01*
X-8234Y-5049D01*
X-8390Y-5114D01*
X-8424Y-5148D01*
X-8483Y-5089D01*
X-8640Y-5025D01*
X-8699Y-5025D01*
X-8699Y-4990D01*
X-8764Y-4834D01*
X-8786Y-4812D01*
X-8764Y-4791D01*
X-8700Y-4634D01*
X-8699Y-4465D01*
X-8764Y-4309D01*
X-8883Y-4189D01*
X-9040Y-4125D01*
X-9209Y-4124D01*
X-9365Y-4189D01*
X-9485Y-4308D01*
X-9549Y-4465D01*
X-9550Y-4634D01*
X-9485Y-4790D01*
X-9463Y-4812D01*
X-9485Y-4833D01*
X-9549Y-4990D01*
X-9550Y-5159D01*
X-9485Y-5315D01*
X-9366Y-5435D01*
X-9209Y-5499D01*
X-9150Y-5499D01*
X-9150Y-5534D01*
X-9085Y-5690D01*
X-8966Y-5810D01*
X-8809Y-5874D01*
X-8640Y-5875D01*
X-8484Y-5810D01*
X-8450Y-5776D01*
X-8401Y-5825D01*
X-8460Y-5883D01*
X-8524Y-6040D01*
X-8525Y-6209D01*
X-8460Y-6365D01*
X-8341Y-6485D01*
X-8184Y-6549D01*
X-8015Y-6550D01*
X-7859Y-6485D01*
X-7739Y-6366D01*
X-7675Y-6209D01*
X-7674Y-6040D01*
X-7674Y-7475D01*
X-7809Y-7474D01*
X-7965Y-7539D01*
X-8085Y-7658D01*
X-8149Y-7815D01*
X-8150Y-7984D01*
X-8085Y-8140D01*
X-7966Y-8260D01*
X-7809Y-8324D01*
X-7640Y-8325D01*
X-7484Y-8260D01*
X-7364Y-8141D01*
X-7300Y-7984D01*
X-7299Y-7815D01*
X-7299Y-10719D01*
X-7349Y-10840D01*
X-7350Y-11009D01*
X-7285Y-11165D01*
X-7166Y-11285D01*
X-7009Y-11349D01*
X-6840Y-11350D01*
X-6684Y-11285D01*
X-6564Y-11166D01*
X-6500Y-11009D01*
X-6499Y-10840D01*
X-6499Y-12424D01*
X-6534Y-12424D01*
X-6690Y-12489D01*
X-6810Y-12608D01*
X-6874Y-12765D01*
X-6875Y-12934D01*
X-6810Y-13090D01*
X-6691Y-13210D01*
X-6534Y-13274D01*
X-6365Y-13275D01*
X-6209Y-13210D01*
X-6089Y-13091D01*
X-6025Y-12934D01*
X-6024Y-12765D01*
X-6024Y-17679D01*
X-6120Y-17775D01*
X-6274Y-17775D01*
X-6274Y-16115D01*
X-6339Y-15959D01*
X-6458Y-15839D01*
X-6615Y-15775D01*
X-6784Y-15774D01*
X-6940Y-15839D01*
X-7060Y-15958D01*
X-7124Y-16115D01*
X-7124Y-16148D01*
X-7158Y-16114D01*
X-7315Y-16050D01*
X-7484Y-16049D01*
X-7624Y-16108D01*
X-7624Y-10490D01*
X-7689Y-10334D01*
X-7808Y-10214D01*
X-7965Y-10150D01*
X-8134Y-10149D01*
X-8290Y-10214D01*
X-8410Y-10333D01*
X-8474Y-10490D01*
X-8475Y-10659D01*
X-8410Y-10815D01*
X-8291Y-10935D01*
X-8134Y-10999D01*
X-7965Y-11000D01*
X-7809Y-10935D01*
X-7689Y-10816D01*
X-7625Y-10659D01*
X-7624Y-10490D01*
X-7624Y-16108D01*
X-7640Y-16114D01*
X-7760Y-16233D01*
X-7824Y-16390D01*
X-7825Y-16559D01*
X-7760Y-16715D01*
X-7641Y-16835D01*
X-7484Y-16899D01*
X-7315Y-16900D01*
X-7159Y-16835D01*
X-7039Y-16716D01*
X-6975Y-16559D01*
X-6975Y-16526D01*
X-6941Y-16560D01*
X-6784Y-16624D01*
X-6615Y-16625D01*
X-6459Y-16560D01*
X-6339Y-16441D01*
X-6275Y-16284D01*
X-6274Y-16115D01*
X-6274Y-17775D01*
X-9949Y-17775D01*
X-9949Y-10440D01*
X-10014Y-10284D01*
X-10133Y-10164D01*
X-10290Y-10100D01*
X-10399Y-10099D01*
X-10399Y-9615D01*
X-10424Y-9555D01*
X-10424Y-8165D01*
X-10489Y-8009D01*
X-10549Y-7949D01*
X-10549Y-3490D01*
X-10614Y-3334D01*
X-10733Y-3214D01*
X-10890Y-3150D01*
X-11059Y-3149D01*
X-11215Y-3214D01*
X-11335Y-3333D01*
X-11399Y-3490D01*
X-11400Y-3659D01*
X-11335Y-3815D01*
X-11216Y-3935D01*
X-11059Y-3999D01*
X-10890Y-4000D01*
X-10734Y-3935D01*
X-10614Y-3816D01*
X-10550Y-3659D01*
X-10549Y-3490D01*
X-10549Y-7949D01*
X-10608Y-7889D01*
X-10765Y-7825D01*
X-10934Y-7824D01*
X-11090Y-7889D01*
X-11149Y-7948D01*
X-11149Y-6790D01*
X-11214Y-6634D01*
X-11249Y-6599D01*
X-11249Y-5765D01*
X-11314Y-5609D01*
X-11433Y-5489D01*
X-11590Y-5425D01*
X-11666Y-5425D01*
X-11650Y-5384D01*
X-11649Y-5215D01*
X-11714Y-5059D01*
X-11833Y-4939D01*
X-11990Y-4875D01*
X-12159Y-4874D01*
X-12315Y-4939D01*
X-12435Y-5058D01*
X-12499Y-5215D01*
X-12500Y-5384D01*
X-12435Y-5540D01*
X-12316Y-5660D01*
X-12159Y-5724D01*
X-12083Y-5724D01*
X-12099Y-5765D01*
X-12100Y-5934D01*
X-12035Y-6090D01*
X-11916Y-6210D01*
X-11759Y-6274D01*
X-11590Y-6275D01*
X-11434Y-6210D01*
X-11314Y-6091D01*
X-11250Y-5934D01*
X-11249Y-5765D01*
X-11249Y-6599D01*
X-11333Y-6514D01*
X-11490Y-6450D01*
X-11659Y-6449D01*
X-11815Y-6514D01*
X-11935Y-6633D01*
X-11999Y-6790D01*
X-12000Y-6875D01*
X-12159Y-6874D01*
X-12315Y-6939D01*
X-12435Y-7058D01*
X-12499Y-7215D01*
X-12500Y-7384D01*
X-12435Y-7540D01*
X-12316Y-7660D01*
X-12159Y-7724D01*
X-11990Y-7725D01*
X-11834Y-7660D01*
X-11714Y-7541D01*
X-11650Y-7384D01*
X-11650Y-7299D01*
X-11490Y-7300D01*
X-11334Y-7235D01*
X-11214Y-7116D01*
X-11150Y-6959D01*
X-11149Y-6790D01*
X-11149Y-7948D01*
X-11210Y-8008D01*
X-11274Y-8165D01*
X-11275Y-8334D01*
X-11210Y-8490D01*
X-11091Y-8610D01*
X-10934Y-8674D01*
X-10765Y-8675D01*
X-10609Y-8610D01*
X-10489Y-8491D01*
X-10425Y-8334D01*
X-10424Y-8165D01*
X-10424Y-9555D01*
X-10464Y-9459D01*
X-10583Y-9339D01*
X-10740Y-9275D01*
X-10909Y-9274D01*
X-11065Y-9339D01*
X-11185Y-9458D01*
X-11249Y-9615D01*
X-11250Y-9784D01*
X-11185Y-9940D01*
X-11066Y-10060D01*
X-10909Y-10124D01*
X-10740Y-10125D01*
X-10584Y-10060D01*
X-10464Y-9941D01*
X-10400Y-9784D01*
X-10399Y-9615D01*
X-10399Y-10099D01*
X-10459Y-10099D01*
X-10615Y-10164D01*
X-10735Y-10283D01*
X-10799Y-10440D01*
X-10800Y-10609D01*
X-10735Y-10765D01*
X-10616Y-10885D01*
X-10459Y-10949D01*
X-10290Y-10950D01*
X-10134Y-10885D01*
X-10014Y-10766D01*
X-9950Y-10609D01*
X-9949Y-10440D01*
X-9949Y-17775D01*
X-12574Y-17775D01*
X-12574Y-8790D01*
X-12639Y-8634D01*
X-12758Y-8514D01*
X-12915Y-8450D01*
X-13084Y-8449D01*
X-13240Y-8514D01*
X-13360Y-8633D01*
X-13424Y-8790D01*
X-13425Y-8959D01*
X-13360Y-9115D01*
X-13241Y-9235D01*
X-13084Y-9299D01*
X-12915Y-9300D01*
X-12759Y-9235D01*
X-12639Y-9116D01*
X-12575Y-8959D01*
X-12574Y-8790D01*
X-12574Y-17775D01*
X-13024Y-17775D01*
X-13024Y-11990D01*
X-13089Y-11834D01*
X-13208Y-11714D01*
X-13365Y-11650D01*
X-13534Y-11649D01*
X-13690Y-11714D01*
X-13810Y-11833D01*
X-13874Y-11990D01*
X-13875Y-12159D01*
X-13810Y-12315D01*
X-13691Y-12435D01*
X-13534Y-12499D01*
X-13365Y-12500D01*
X-13209Y-12435D01*
X-13089Y-12316D01*
X-13025Y-12159D01*
X-13024Y-11990D01*
X-13024Y-17775D01*
X-13174Y-17775D01*
X-13174Y-15565D01*
X-13239Y-15409D01*
X-13249Y-15399D01*
X-13249Y-13315D01*
X-13314Y-13159D01*
X-13433Y-13039D01*
X-13590Y-12975D01*
X-13759Y-12974D01*
X-13915Y-13039D01*
X-14035Y-13158D01*
X-14099Y-13315D01*
X-14100Y-13484D01*
X-14035Y-13640D01*
X-13916Y-13760D01*
X-13759Y-13824D01*
X-13590Y-13825D01*
X-13434Y-13760D01*
X-13314Y-13641D01*
X-13250Y-13484D01*
X-13249Y-13315D01*
X-13249Y-15399D01*
X-13358Y-15289D01*
X-13515Y-15225D01*
X-13684Y-15224D01*
X-13840Y-15289D01*
X-13960Y-15408D01*
X-14024Y-15565D01*
X-14025Y-15734D01*
X-13960Y-15890D01*
X-13841Y-16010D01*
X-13684Y-16074D01*
X-13515Y-16075D01*
X-13359Y-16010D01*
X-13239Y-15891D01*
X-13175Y-15734D01*
X-13174Y-15565D01*
X-13174Y-17775D01*
X-13904Y-17775D01*
X-14150Y-17529D01*
X-14150Y-15129D01*
X-14624Y-14654D01*
X-14624Y-11615D01*
X-14689Y-11459D01*
X-14808Y-11339D01*
X-14965Y-11275D01*
X-15134Y-11274D01*
X-15290Y-11339D01*
X-15410Y-11458D01*
X-15474Y-11615D01*
X-15475Y-11784D01*
X-15410Y-11940D01*
X-15291Y-12060D01*
X-15237Y-12082D01*
X-15315Y-12114D01*
X-15435Y-12233D01*
X-15499Y-12390D01*
X-15500Y-12559D01*
X-15435Y-12715D01*
X-15316Y-12835D01*
X-15159Y-12899D01*
X-14990Y-12900D01*
X-14834Y-12835D01*
X-14714Y-12716D01*
X-14650Y-12559D01*
X-14649Y-12390D01*
X-14714Y-12234D01*
X-14833Y-12114D01*
X-14887Y-12092D01*
X-14809Y-12060D01*
X-14689Y-11941D01*
X-14625Y-11784D01*
X-14624Y-11615D01*
X-14624Y-14654D01*
X-15485Y-13793D01*
X-15409Y-13824D01*
X-15240Y-13825D01*
X-15084Y-13760D01*
X-14964Y-13641D01*
X-14900Y-13484D01*
X-14899Y-13315D01*
X-14964Y-13159D01*
X-15083Y-13039D01*
X-15240Y-12975D01*
X-15409Y-12974D01*
X-15565Y-13039D01*
X-15685Y-13158D01*
X-15749Y-13315D01*
X-15750Y-13484D01*
X-15685Y-13640D01*
X-15650Y-13675D01*
X-16075Y-13675D01*
X-16075Y-13154D01*
X-16629Y-12599D01*
X-16515Y-12600D01*
X-16359Y-12535D01*
X-16239Y-12416D01*
X-16175Y-12259D01*
X-16174Y-12090D01*
X-16239Y-11934D01*
X-16299Y-11874D01*
X-16299Y-11190D01*
X-16364Y-11034D01*
X-16483Y-10914D01*
X-16640Y-10850D01*
X-16809Y-10849D01*
X-16965Y-10914D01*
X-17085Y-11033D01*
X-17149Y-11190D01*
X-17150Y-11359D01*
X-17085Y-11515D01*
X-16966Y-11635D01*
X-16809Y-11699D01*
X-16640Y-11700D01*
X-16484Y-11635D01*
X-16364Y-11516D01*
X-16300Y-11359D01*
X-16299Y-11190D01*
X-16299Y-11874D01*
X-16358Y-11814D01*
X-16515Y-11750D01*
X-16684Y-11749D01*
X-16840Y-11814D01*
X-16960Y-11933D01*
X-17024Y-12090D01*
X-17025Y-12259D01*
X-16960Y-12415D01*
X-16925Y-12450D01*
X-17575Y-12450D01*
X-17575Y-11920D01*
X-17300Y-11645D01*
X-17300Y-10845D01*
X-16726Y-10271D01*
X-16698Y-9731D01*
X-17150Y-9255D01*
X-17150Y-8343D01*
X-17051Y-8225D01*
X-16601Y-8225D01*
X-16635Y-8258D01*
X-16699Y-8415D01*
X-16700Y-8584D01*
X-16635Y-8740D01*
X-16516Y-8860D01*
X-16359Y-8924D01*
X-16190Y-8925D01*
X-16034Y-8860D01*
X-15914Y-8741D01*
X-15850Y-8584D01*
X-15849Y-8415D01*
X-15914Y-8259D01*
X-15949Y-8225D01*
X-14575Y-8225D01*
X-14575Y-7709D01*
X-14510Y-7865D01*
X-14391Y-7985D01*
X-14234Y-8049D01*
X-14065Y-8050D01*
X-13909Y-7985D01*
X-13789Y-7866D01*
X-13725Y-7709D01*
X-13724Y-7540D01*
X-13789Y-7384D01*
X-13908Y-7264D01*
X-14065Y-7200D01*
X-14234Y-7199D01*
X-14390Y-7264D01*
X-14510Y-7383D01*
X-14574Y-7540D01*
X-14575Y-7624D01*
X-14575Y-6520D01*
X-13574Y-5520D01*
X-13599Y-4545D01*
X-11475Y-2420D01*
X-11475Y-1850D01*
X-8455Y-1850D01*
X-8490Y-1864D01*
X-8610Y-1983D01*
X-8674Y-2140D01*
X-8674Y-2200D01*
X-8809Y-2199D01*
X-8965Y-2264D01*
X-9085Y-2383D01*
X-9149Y-2540D01*
X-9150Y-2709D01*
X-9085Y-2865D01*
X-8966Y-2985D01*
X-8825Y-3043D01*
X-8825Y-3084D01*
X-8760Y-3240D01*
X-8641Y-3360D01*
X-8484Y-3424D01*
X-8315Y-3425D01*
X-8159Y-3360D01*
X-8039Y-3241D01*
X-7975Y-3084D01*
X-7974Y-2915D01*
X-8039Y-2759D01*
X-8153Y-2645D01*
X-8009Y-2585D01*
X-7889Y-2466D01*
X-7825Y-2309D01*
X-7824Y-2140D01*
X-7889Y-1984D01*
X-7953Y-1920D01*
X-7809Y-1860D01*
X-7799Y-1850D01*
X-3854Y-1850D01*
X-3364Y-1360D01*
X-3354Y-1350D01*
X-2431Y-1350D01*
X-2474Y-1455D01*
X-2475Y-1644D01*
X-2402Y-1818D01*
X-2269Y-1952D01*
X-2094Y-2024D01*
X-1905Y-2025D01*
X-1731Y-1952D01*
X-1597Y-1819D01*
X-1525Y-1644D01*
X-1524Y-1455D01*
X-1568Y-1350D01*
X1845Y-1350D01*
X2575Y-620D01*
X2575Y100D01*
X4029Y100D01*
X4725Y-595D01*
X4725Y-6250D01*
X4725Y-6250D01*
G37*
G54D20*
X4725Y-6250D02*
X4554Y-6250D01*
X4554Y-2581D01*
X4543Y-2363D01*
X4481Y-2212D01*
X4385Y-2184D01*
X4070Y-2500D01*
X4385Y-2815D01*
X4481Y-2787D01*
X4554Y-2581D01*
X4554Y-6250D01*
X4550Y-6250D01*
X4550Y-5391D01*
X4466Y-5188D01*
X4311Y-5034D01*
X4230Y-5000D01*
X4311Y-4966D01*
X4465Y-4811D01*
X4549Y-4609D01*
X4550Y-4391D01*
X4466Y-4188D01*
X4311Y-4034D01*
X4230Y-4000D01*
X4311Y-3966D01*
X4465Y-3811D01*
X4549Y-3609D01*
X4550Y-3391D01*
X4466Y-3188D01*
X4311Y-3034D01*
X4236Y-3002D01*
X4287Y-2981D01*
X4315Y-2885D01*
X4000Y-2570D01*
X3684Y-2885D01*
X3712Y-2981D01*
X3767Y-3000D01*
X3688Y-3033D01*
X3534Y-3188D01*
X3500Y-3269D01*
X3466Y-3188D01*
X3311Y-3034D01*
X3230Y-3000D01*
X3311Y-2966D01*
X3465Y-2811D01*
X3497Y-2736D01*
X3518Y-2787D01*
X3614Y-2815D01*
X3929Y-2500D01*
X3614Y-2184D01*
X3518Y-2212D01*
X3499Y-2267D01*
X3466Y-2188D01*
X3327Y-2050D01*
X3349Y-2050D01*
X3441Y-2012D01*
X3511Y-1941D01*
X3549Y-1849D01*
X3549Y-1827D01*
X3688Y-1965D01*
X3763Y-1997D01*
X3712Y-2018D01*
X3684Y-2114D01*
X4000Y-2429D01*
X4315Y-2114D01*
X4287Y-2018D01*
X4232Y-1999D01*
X4311Y-1966D01*
X4465Y-1811D01*
X4549Y-1609D01*
X4550Y-1391D01*
X4466Y-1188D01*
X4311Y-1034D01*
X4109Y-950D01*
X3891Y-949D01*
X3688Y-1033D01*
X3550Y-1172D01*
X3550Y-1150D01*
X3512Y-1058D01*
X3441Y-988D01*
X3349Y-950D01*
X3250Y-949D01*
X2650Y-949D01*
X2558Y-987D01*
X2488Y-1058D01*
X2450Y-1150D01*
X2449Y-1249D01*
X2449Y-1849D01*
X2487Y-1941D01*
X2558Y-2011D01*
X2650Y-2049D01*
X2672Y-2049D01*
X2534Y-2188D01*
X2450Y-2390D01*
X2449Y-2608D01*
X2533Y-2811D01*
X2688Y-2965D01*
X2769Y-2999D01*
X2688Y-3033D01*
X2534Y-3188D01*
X2450Y-3390D01*
X2449Y-3608D01*
X2533Y-3811D01*
X2688Y-3965D01*
X2769Y-3999D01*
X2688Y-4033D01*
X2534Y-4188D01*
X2450Y-4390D01*
X2449Y-4608D01*
X2533Y-4811D01*
X2688Y-4965D01*
X2769Y-4999D01*
X2688Y-5033D01*
X2534Y-5188D01*
X2450Y-5390D01*
X2449Y-5608D01*
X2533Y-5811D01*
X2688Y-5965D01*
X2890Y-6049D01*
X3108Y-6050D01*
X3311Y-5966D01*
X3465Y-5811D01*
X3499Y-5730D01*
X3533Y-5811D01*
X3688Y-5965D01*
X3890Y-6049D01*
X4108Y-6050D01*
X4311Y-5966D01*
X4465Y-5811D01*
X4549Y-5609D01*
X4550Y-5391D01*
X4550Y-6250D01*
X2150Y-6250D01*
X2150Y-5040D01*
X2085Y-4884D01*
X1966Y-4764D01*
X1809Y-4700D01*
X1640Y-4699D01*
X1484Y-4764D01*
X1364Y-4883D01*
X1300Y-5040D01*
X1299Y-5209D01*
X1364Y-5365D01*
X1483Y-5485D01*
X1640Y-5549D01*
X1809Y-5550D01*
X1965Y-5485D01*
X2085Y-5366D01*
X2149Y-5209D01*
X2150Y-5040D01*
X2150Y-6250D01*
X-2519Y-6250D01*
X-2519Y-2188D01*
X-2532Y-2000D01*
X-2580Y-1882D01*
X-2668Y-1864D01*
X-2739Y-1934D01*
X-2739Y-1793D01*
X-2757Y-1705D01*
X-2936Y-1644D01*
X-3124Y-1657D01*
X-3242Y-1705D01*
X-3260Y-1793D01*
X-3000Y-2054D01*
X-2739Y-1793D01*
X-2739Y-1934D01*
X-2929Y-2125D01*
X-2668Y-2385D01*
X-2580Y-2367D01*
X-2519Y-2188D01*
X-2519Y-6250D01*
X-2739Y-6250D01*
X-2739Y-2456D01*
X-3000Y-2195D01*
X-3070Y-2266D01*
X-3070Y-2125D01*
X-3331Y-1864D01*
X-3419Y-1882D01*
X-3480Y-2061D01*
X-3467Y-2249D01*
X-3419Y-2367D01*
X-3331Y-2385D01*
X-3070Y-2125D01*
X-3070Y-2266D01*
X-3260Y-2456D01*
X-3242Y-2544D01*
X-3063Y-2605D01*
X-2875Y-2592D01*
X-2757Y-2544D01*
X-2739Y-2456D01*
X-2739Y-6250D01*
X-2925Y-6250D01*
X-2925Y-11600D01*
X-3424Y-11600D01*
X-3424Y-10955D01*
X-3474Y-10834D01*
X-3474Y-3665D01*
X-3539Y-3509D01*
X-3658Y-3389D01*
X-3815Y-3325D01*
X-3984Y-3324D01*
X-4140Y-3389D01*
X-4260Y-3508D01*
X-4324Y-3665D01*
X-4325Y-3824D01*
X-4334Y-3824D01*
X-4490Y-3889D01*
X-4610Y-4008D01*
X-4674Y-4165D01*
X-4675Y-4262D01*
X-4765Y-4225D01*
X-4934Y-4224D01*
X-5090Y-4289D01*
X-5210Y-4408D01*
X-5262Y-4535D01*
X-5314Y-4409D01*
X-5433Y-4289D01*
X-5590Y-4225D01*
X-5759Y-4224D01*
X-5915Y-4289D01*
X-5923Y-4297D01*
X-5939Y-4259D01*
X-6058Y-4139D01*
X-6215Y-4075D01*
X-6299Y-4074D01*
X-6299Y-3565D01*
X-6364Y-3409D01*
X-6483Y-3289D01*
X-6640Y-3225D01*
X-6809Y-3224D01*
X-6965Y-3289D01*
X-7085Y-3408D01*
X-7149Y-3565D01*
X-7149Y-3600D01*
X-7284Y-3599D01*
X-7440Y-3664D01*
X-7560Y-3783D01*
X-7624Y-3940D01*
X-7625Y-4109D01*
X-7560Y-4265D01*
X-7441Y-4385D01*
X-7284Y-4449D01*
X-7115Y-4450D01*
X-6959Y-4385D01*
X-6839Y-4266D01*
X-6775Y-4109D01*
X-6775Y-4074D01*
X-6640Y-4075D01*
X-6484Y-4010D01*
X-6364Y-3891D01*
X-6300Y-3734D01*
X-6299Y-3565D01*
X-6299Y-4074D01*
X-6384Y-4074D01*
X-6540Y-4139D01*
X-6660Y-4258D01*
X-6724Y-4415D01*
X-6725Y-4584D01*
X-6660Y-4740D01*
X-6541Y-4860D01*
X-6384Y-4924D01*
X-6215Y-4925D01*
X-6059Y-4860D01*
X-6051Y-4852D01*
X-6035Y-4890D01*
X-5916Y-5010D01*
X-5759Y-5074D01*
X-5590Y-5075D01*
X-5434Y-5010D01*
X-5314Y-4891D01*
X-5262Y-4764D01*
X-5210Y-4890D01*
X-5091Y-5010D01*
X-4934Y-5074D01*
X-4765Y-5075D01*
X-4609Y-5010D01*
X-4489Y-4891D01*
X-4425Y-4734D01*
X-4424Y-4637D01*
X-4334Y-4674D01*
X-4165Y-4675D01*
X-4009Y-4610D01*
X-3889Y-4491D01*
X-3825Y-4334D01*
X-3824Y-4175D01*
X-3815Y-4175D01*
X-3659Y-4110D01*
X-3539Y-3991D01*
X-3475Y-3834D01*
X-3474Y-3665D01*
X-3474Y-10834D01*
X-3497Y-10781D01*
X-3630Y-10647D01*
X-3674Y-10629D01*
X-3674Y-9390D01*
X-3739Y-9234D01*
X-3858Y-9114D01*
X-4015Y-9050D01*
X-4184Y-9049D01*
X-4340Y-9114D01*
X-4399Y-9173D01*
X-4424Y-9148D01*
X-4424Y-7665D01*
X-4489Y-7509D01*
X-4608Y-7389D01*
X-4765Y-7325D01*
X-4934Y-7324D01*
X-5090Y-7389D01*
X-5210Y-7508D01*
X-5274Y-7665D01*
X-5275Y-7834D01*
X-5210Y-7990D01*
X-5091Y-8110D01*
X-4934Y-8174D01*
X-4765Y-8175D01*
X-4609Y-8110D01*
X-4489Y-7991D01*
X-4425Y-7834D01*
X-4424Y-7665D01*
X-4424Y-9148D01*
X-4458Y-9114D01*
X-4615Y-9050D01*
X-4784Y-9049D01*
X-4940Y-9114D01*
X-5060Y-9233D01*
X-5124Y-9390D01*
X-5125Y-9559D01*
X-5060Y-9715D01*
X-4941Y-9835D01*
X-4784Y-9899D01*
X-4615Y-9900D01*
X-4459Y-9835D01*
X-4400Y-9776D01*
X-4341Y-9835D01*
X-4184Y-9899D01*
X-4015Y-9900D01*
X-3859Y-9835D01*
X-3739Y-9716D01*
X-3675Y-9559D01*
X-3674Y-9390D01*
X-3674Y-10629D01*
X-3805Y-10575D01*
X-3994Y-10574D01*
X-4168Y-10647D01*
X-4302Y-10780D01*
X-4374Y-10955D01*
X-4375Y-11144D01*
X-4302Y-11318D01*
X-4169Y-11452D01*
X-3994Y-11524D01*
X-3805Y-11525D01*
X-3631Y-11452D01*
X-3497Y-11319D01*
X-3425Y-11144D01*
X-3424Y-10955D01*
X-3424Y-11600D01*
X-5800Y-11600D01*
X-5800Y-17454D01*
X-6024Y-17679D01*
X-6024Y-12765D01*
X-6089Y-12609D01*
X-6208Y-12489D01*
X-6299Y-12452D01*
X-6299Y-7265D01*
X-6364Y-7109D01*
X-6483Y-6989D01*
X-6640Y-6925D01*
X-6809Y-6924D01*
X-6965Y-6989D01*
X-7085Y-7108D01*
X-7149Y-7265D01*
X-7150Y-7434D01*
X-7085Y-7590D01*
X-6966Y-7710D01*
X-6809Y-7774D01*
X-6640Y-7775D01*
X-6484Y-7710D01*
X-6364Y-7591D01*
X-6300Y-7434D01*
X-6299Y-7265D01*
X-6299Y-12452D01*
X-6365Y-12425D01*
X-6499Y-12424D01*
X-6499Y-10840D01*
X-6564Y-10684D01*
X-6683Y-10564D01*
X-6840Y-10500D01*
X-7009Y-10499D01*
X-7165Y-10564D01*
X-7285Y-10683D01*
X-7299Y-10719D01*
X-7299Y-7815D01*
X-7364Y-7659D01*
X-7483Y-7539D01*
X-7640Y-7475D01*
X-7674Y-7475D01*
X-7674Y-6040D01*
X-7739Y-5884D01*
X-7848Y-5774D01*
X-7789Y-5716D01*
X-7725Y-5559D01*
X-7724Y-5390D01*
X-7789Y-5234D01*
X-7908Y-5114D01*
X-8065Y-5050D01*
X-8234Y-5049D01*
X-8390Y-5114D01*
X-8424Y-5148D01*
X-8483Y-5089D01*
X-8640Y-5025D01*
X-8699Y-5025D01*
X-8699Y-4990D01*
X-8764Y-4834D01*
X-8786Y-4812D01*
X-8764Y-4791D01*
X-8700Y-4634D01*
X-8699Y-4465D01*
X-8764Y-4309D01*
X-8883Y-4189D01*
X-9040Y-4125D01*
X-9209Y-4124D01*
X-9365Y-4189D01*
X-9485Y-4308D01*
X-9549Y-4465D01*
X-9550Y-4634D01*
X-9485Y-4790D01*
X-9463Y-4812D01*
X-9485Y-4833D01*
X-9549Y-4990D01*
X-9550Y-5159D01*
X-9485Y-5315D01*
X-9366Y-5435D01*
X-9209Y-5499D01*
X-9150Y-5499D01*
X-9150Y-5534D01*
X-9085Y-5690D01*
X-8966Y-5810D01*
X-8809Y-5874D01*
X-8640Y-5875D01*
X-8484Y-5810D01*
X-8450Y-5776D01*
X-8401Y-5825D01*
X-8460Y-5883D01*
X-8524Y-6040D01*
X-8525Y-6209D01*
X-8460Y-6365D01*
X-8341Y-6485D01*
X-8184Y-6549D01*
X-8015Y-6550D01*
X-7859Y-6485D01*
X-7739Y-6366D01*
X-7675Y-6209D01*
X-7674Y-6040D01*
X-7674Y-7475D01*
X-7809Y-7474D01*
X-7965Y-7539D01*
X-8085Y-7658D01*
X-8149Y-7815D01*
X-8150Y-7984D01*
X-8085Y-8140D01*
X-7966Y-8260D01*
X-7809Y-8324D01*
X-7640Y-8325D01*
X-7484Y-8260D01*
X-7364Y-8141D01*
X-7300Y-7984D01*
X-7299Y-7815D01*
X-7299Y-10719D01*
X-7349Y-10840D01*
X-7350Y-11009D01*
X-7285Y-11165D01*
X-7166Y-11285D01*
X-7009Y-11349D01*
X-6840Y-11350D01*
X-6684Y-11285D01*
X-6564Y-11166D01*
X-6500Y-11009D01*
X-6499Y-10840D01*
X-6499Y-12424D01*
X-6534Y-12424D01*
X-6690Y-12489D01*
X-6810Y-12608D01*
X-6874Y-12765D01*
X-6875Y-12934D01*
X-6810Y-13090D01*
X-6691Y-13210D01*
X-6534Y-13274D01*
X-6365Y-13275D01*
X-6209Y-13210D01*
X-6089Y-13091D01*
X-6025Y-12934D01*
X-6024Y-12765D01*
X-6024Y-17679D01*
X-6120Y-17775D01*
X-6274Y-17775D01*
X-6274Y-16115D01*
X-6339Y-15959D01*
X-6458Y-15839D01*
X-6615Y-15775D01*
X-6784Y-15774D01*
X-6940Y-15839D01*
X-7060Y-15958D01*
X-7124Y-16115D01*
X-7124Y-16148D01*
X-7158Y-16114D01*
X-7315Y-16050D01*
X-7484Y-16049D01*
X-7624Y-16108D01*
X-7624Y-10490D01*
X-7689Y-10334D01*
X-7808Y-10214D01*
X-7965Y-10150D01*
X-8134Y-10149D01*
X-8290Y-10214D01*
X-8410Y-10333D01*
X-8474Y-10490D01*
X-8475Y-10659D01*
X-8410Y-10815D01*
X-8291Y-10935D01*
X-8134Y-10999D01*
X-7965Y-11000D01*
X-7809Y-10935D01*
X-7689Y-10816D01*
X-7625Y-10659D01*
X-7624Y-10490D01*
X-7624Y-16108D01*
X-7640Y-16114D01*
X-7760Y-16233D01*
X-7824Y-16390D01*
X-7825Y-16559D01*
X-7760Y-16715D01*
X-7641Y-16835D01*
X-7484Y-16899D01*
X-7315Y-16900D01*
X-7159Y-16835D01*
X-7039Y-16716D01*
X-6975Y-16559D01*
X-6975Y-16526D01*
X-6941Y-16560D01*
X-6784Y-16624D01*
X-6615Y-16625D01*
X-6459Y-16560D01*
X-6339Y-16441D01*
X-6275Y-16284D01*
X-6274Y-16115D01*
X-6274Y-17775D01*
X-9949Y-17775D01*
X-9949Y-10440D01*
X-10014Y-10284D01*
X-10133Y-10164D01*
X-10290Y-10100D01*
X-10399Y-10099D01*
X-10399Y-9615D01*
X-10424Y-9555D01*
X-10424Y-8165D01*
X-10489Y-8009D01*
X-10549Y-7949D01*
X-10549Y-3490D01*
X-10614Y-3334D01*
X-10733Y-3214D01*
X-10890Y-3150D01*
X-11059Y-3149D01*
X-11215Y-3214D01*
X-11335Y-3333D01*
X-11399Y-3490D01*
X-11400Y-3659D01*
X-11335Y-3815D01*
X-11216Y-3935D01*
X-11059Y-3999D01*
X-10890Y-4000D01*
X-10734Y-3935D01*
X-10614Y-3816D01*
X-10550Y-3659D01*
X-10549Y-3490D01*
X-10549Y-7949D01*
X-10608Y-7889D01*
X-10765Y-7825D01*
X-10934Y-7824D01*
X-11090Y-7889D01*
X-11149Y-7948D01*
X-11149Y-6790D01*
X-11214Y-6634D01*
X-11249Y-6599D01*
X-11249Y-5765D01*
X-11314Y-5609D01*
X-11433Y-5489D01*
X-11590Y-5425D01*
X-11666Y-5425D01*
X-11650Y-5384D01*
X-11649Y-5215D01*
X-11714Y-5059D01*
X-11833Y-4939D01*
X-11990Y-4875D01*
X-12159Y-4874D01*
X-12315Y-4939D01*
X-12435Y-5058D01*
X-12499Y-5215D01*
X-12500Y-5384D01*
X-12435Y-5540D01*
X-12316Y-5660D01*
X-12159Y-5724D01*
X-12083Y-5724D01*
X-12099Y-5765D01*
X-12100Y-5934D01*
X-12035Y-6090D01*
X-11916Y-6210D01*
X-11759Y-6274D01*
X-11590Y-6275D01*
X-11434Y-6210D01*
X-11314Y-6091D01*
X-11250Y-5934D01*
X-11249Y-5765D01*
X-11249Y-6599D01*
X-11333Y-6514D01*
X-11490Y-6450D01*
X-11659Y-6449D01*
X-11815Y-6514D01*
X-11935Y-6633D01*
X-11999Y-6790D01*
X-12000Y-6875D01*
X-12159Y-6874D01*
X-12315Y-6939D01*
X-12435Y-7058D01*
X-12499Y-7215D01*
X-12500Y-7384D01*
X-12435Y-7540D01*
X-12316Y-7660D01*
X-12159Y-7724D01*
X-11990Y-7725D01*
X-11834Y-7660D01*
X-11714Y-7541D01*
X-11650Y-7384D01*
X-11650Y-7299D01*
X-11490Y-7300D01*
X-11334Y-7235D01*
X-11214Y-7116D01*
X-11150Y-6959D01*
X-11149Y-6790D01*
X-11149Y-7948D01*
X-11210Y-8008D01*
X-11274Y-8165D01*
X-11275Y-8334D01*
X-11210Y-8490D01*
X-11091Y-8610D01*
X-10934Y-8674D01*
X-10765Y-8675D01*
X-10609Y-8610D01*
X-10489Y-8491D01*
X-10425Y-8334D01*
X-10424Y-8165D01*
X-10424Y-9555D01*
X-10464Y-9459D01*
X-10583Y-9339D01*
X-10740Y-9275D01*
X-10909Y-9274D01*
X-11065Y-9339D01*
X-11185Y-9458D01*
X-11249Y-9615D01*
X-11250Y-9784D01*
X-11185Y-9940D01*
X-11066Y-10060D01*
X-10909Y-10124D01*
X-10740Y-10125D01*
X-10584Y-10060D01*
X-10464Y-9941D01*
X-10400Y-9784D01*
X-10399Y-9615D01*
X-10399Y-10099D01*
X-10459Y-10099D01*
X-10615Y-10164D01*
X-10735Y-10283D01*
X-10799Y-10440D01*
X-10800Y-10609D01*
X-10735Y-10765D01*
X-10616Y-10885D01*
X-10459Y-10949D01*
X-10290Y-10950D01*
X-10134Y-10885D01*
X-10014Y-10766D01*
X-9950Y-10609D01*
X-9949Y-10440D01*
X-9949Y-17775D01*
X-12574Y-17775D01*
X-12574Y-8790D01*
X-12639Y-8634D01*
X-12758Y-8514D01*
X-12915Y-8450D01*
X-13084Y-8449D01*
X-13240Y-8514D01*
X-13360Y-8633D01*
X-13424Y-8790D01*
X-13425Y-8959D01*
X-13360Y-9115D01*
X-13241Y-9235D01*
X-13084Y-9299D01*
X-12915Y-9300D01*
X-12759Y-9235D01*
X-12639Y-9116D01*
X-12575Y-8959D01*
X-12574Y-8790D01*
X-12574Y-17775D01*
X-13024Y-17775D01*
X-13024Y-11990D01*
X-13089Y-11834D01*
X-13208Y-11714D01*
X-13365Y-11650D01*
X-13534Y-11649D01*
X-13690Y-11714D01*
X-13810Y-11833D01*
X-13874Y-11990D01*
X-13875Y-12159D01*
X-13810Y-12315D01*
X-13691Y-12435D01*
X-13534Y-12499D01*
X-13365Y-12500D01*
X-13209Y-12435D01*
X-13089Y-12316D01*
X-13025Y-12159D01*
X-13024Y-11990D01*
X-13024Y-17775D01*
X-13174Y-17775D01*
X-13174Y-15565D01*
X-13239Y-15409D01*
X-13249Y-15399D01*
X-13249Y-13315D01*
X-13314Y-13159D01*
X-13433Y-13039D01*
X-13590Y-12975D01*
X-13759Y-12974D01*
X-13915Y-13039D01*
X-14035Y-13158D01*
X-14099Y-13315D01*
X-14100Y-13484D01*
X-14035Y-13640D01*
X-13916Y-13760D01*
X-13759Y-13824D01*
X-13590Y-13825D01*
X-13434Y-13760D01*
X-13314Y-13641D01*
X-13250Y-13484D01*
X-13249Y-13315D01*
X-13249Y-15399D01*
X-13358Y-15289D01*
X-13515Y-15225D01*
X-13684Y-15224D01*
X-13840Y-15289D01*
X-13960Y-15408D01*
X-14024Y-15565D01*
X-14025Y-15734D01*
X-13960Y-15890D01*
X-13841Y-16010D01*
X-13684Y-16074D01*
X-13515Y-16075D01*
X-13359Y-16010D01*
X-13239Y-15891D01*
X-13175Y-15734D01*
X-13174Y-15565D01*
X-13174Y-17775D01*
X-13904Y-17775D01*
X-14150Y-17529D01*
X-14150Y-15129D01*
X-14624Y-14654D01*
X-14624Y-11615D01*
X-14689Y-11459D01*
X-14808Y-11339D01*
X-14965Y-11275D01*
X-15134Y-11274D01*
X-15290Y-11339D01*
X-15410Y-11458D01*
X-15474Y-11615D01*
X-15475Y-11784D01*
X-15410Y-11940D01*
X-15291Y-12060D01*
X-15237Y-12082D01*
X-15315Y-12114D01*
X-15435Y-12233D01*
X-15499Y-12390D01*
X-15500Y-12559D01*
X-15435Y-12715D01*
X-15316Y-12835D01*
X-15159Y-12899D01*
X-14990Y-12900D01*
X-14834Y-12835D01*
X-14714Y-12716D01*
X-14650Y-12559D01*
X-14649Y-12390D01*
X-14714Y-12234D01*
X-14833Y-12114D01*
X-14887Y-12092D01*
X-14809Y-12060D01*
X-14689Y-11941D01*
X-14625Y-11784D01*
X-14624Y-11615D01*
X-14624Y-14654D01*
X-15485Y-13793D01*
X-15409Y-13824D01*
X-15240Y-13825D01*
X-15084Y-13760D01*
X-14964Y-13641D01*
X-14900Y-13484D01*
X-14899Y-13315D01*
X-14964Y-13159D01*
X-15083Y-13039D01*
X-15240Y-12975D01*
X-15409Y-12974D01*
X-15565Y-13039D01*
X-15685Y-13158D01*
X-15749Y-13315D01*
X-15750Y-13484D01*
X-15685Y-13640D01*
X-15650Y-13675D01*
X-16075Y-13675D01*
X-16075Y-13154D01*
X-16629Y-12599D01*
X-16515Y-12600D01*
X-16359Y-12535D01*
X-16239Y-12416D01*
X-16175Y-12259D01*
X-16174Y-12090D01*
X-16239Y-11934D01*
X-16299Y-11874D01*
X-16299Y-11190D01*
X-16364Y-11034D01*
X-16483Y-10914D01*
X-16640Y-10850D01*
X-16809Y-10849D01*
X-16965Y-10914D01*
X-17085Y-11033D01*
X-17149Y-11190D01*
X-17150Y-11359D01*
X-17085Y-11515D01*
X-16966Y-11635D01*
X-16809Y-11699D01*
X-16640Y-11700D01*
X-16484Y-11635D01*
X-16364Y-11516D01*
X-16300Y-11359D01*
X-16299Y-11190D01*
X-16299Y-11874D01*
X-16358Y-11814D01*
X-16515Y-11750D01*
X-16684Y-11749D01*
X-16840Y-11814D01*
X-16960Y-11933D01*
X-17024Y-12090D01*
X-17025Y-12259D01*
X-16960Y-12415D01*
X-16925Y-12450D01*
X-17575Y-12450D01*
X-17575Y-11920D01*
X-17300Y-11645D01*
X-17300Y-10845D01*
X-16726Y-10271D01*
X-16698Y-9731D01*
X-17150Y-9255D01*
X-17150Y-8343D01*
X-17051Y-8225D01*
X-16601Y-8225D01*
X-16635Y-8258D01*
X-16699Y-8415D01*
X-16700Y-8584D01*
X-16635Y-8740D01*
X-16516Y-8860D01*
X-16359Y-8924D01*
X-16190Y-8925D01*
X-16034Y-8860D01*
X-15914Y-8741D01*
X-15850Y-8584D01*
X-15849Y-8415D01*
X-15914Y-8259D01*
X-15949Y-8225D01*
X-14575Y-8225D01*
X-14575Y-7709D01*
X-14510Y-7865D01*
X-14391Y-7985D01*
X-14234Y-8049D01*
X-14065Y-8050D01*
X-13909Y-7985D01*
X-13789Y-7866D01*
X-13725Y-7709D01*
X-13724Y-7540D01*
X-13789Y-7384D01*
X-13908Y-7264D01*
X-14065Y-7200D01*
X-14234Y-7199D01*
X-14390Y-7264D01*
X-14510Y-7383D01*
X-14574Y-7540D01*
X-14575Y-7624D01*
X-14575Y-6520D01*
X-13574Y-5520D01*
X-13599Y-4545D01*
X-11475Y-2420D01*
X-11475Y-1850D01*
X-8455Y-1850D01*
X-8490Y-1864D01*
X-8610Y-1983D01*
X-8674Y-2140D01*
X-8674Y-2200D01*
X-8809Y-2199D01*
X-8965Y-2264D01*
X-9085Y-2383D01*
X-9149Y-2540D01*
X-9150Y-2709D01*
X-9085Y-2865D01*
X-8966Y-2985D01*
X-8825Y-3043D01*
X-8825Y-3084D01*
X-8760Y-3240D01*
X-8641Y-3360D01*
X-8484Y-3424D01*
X-8315Y-3425D01*
X-8159Y-3360D01*
X-8039Y-3241D01*
X-7975Y-3084D01*
X-7974Y-2915D01*
X-8039Y-2759D01*
X-8153Y-2645D01*
X-8009Y-2585D01*
X-7889Y-2466D01*
X-7825Y-2309D01*
X-7824Y-2140D01*
X-7889Y-1984D01*
X-7953Y-1920D01*
X-7809Y-1860D01*
X-7799Y-1850D01*
X-3854Y-1850D01*
X-3364Y-1360D01*
X-3354Y-1350D01*
X-2431Y-1350D01*
X-2474Y-1455D01*
X-2475Y-1644D01*
X-2402Y-1818D01*
X-2269Y-1952D01*
X-2094Y-2024D01*
X-1905Y-2025D01*
X-1731Y-1952D01*
X-1597Y-1819D01*
X-1525Y-1644D01*
X-1524Y-1455D01*
X-1568Y-1350D01*
X1845Y-1350D01*
X2575Y-620D01*
X2575Y100D01*
X4029Y100D01*
X4725Y-595D01*
X4725Y-6250D01*
G54D10*
G36*
X-11850Y-2304D02*
X-12019Y-2474D01*
X-12019Y-1938D01*
X-12032Y-1750D01*
X-12080Y-1632D01*
X-12168Y-1614D01*
X-12239Y-1684D01*
X-12239Y-1543D01*
X-12257Y-1455D01*
X-12436Y-1394D01*
X-12624Y-1407D01*
X-12742Y-1455D01*
X-12760Y-1543D01*
X-12500Y-1804D01*
X-12239Y-1543D01*
X-12239Y-1684D01*
X-12429Y-1875D01*
X-12168Y-2135D01*
X-12080Y-2117D01*
X-12019Y-1938D01*
X-12019Y-2474D01*
X-12239Y-2693D01*
X-12239Y-2206D01*
X-12500Y-1945D01*
X-12570Y-2016D01*
X-12570Y-1875D01*
X-12831Y-1614D01*
X-12919Y-1632D01*
X-12980Y-1811D01*
X-12967Y-1999D01*
X-12919Y-2117D01*
X-12831Y-2135D01*
X-12570Y-1875D01*
X-12570Y-2016D01*
X-12760Y-2206D01*
X-12742Y-2294D01*
X-12563Y-2355D01*
X-12375Y-2342D01*
X-12257Y-2294D01*
X-12239Y-2206D01*
X-12239Y-2693D01*
X-13470Y-3925D01*
X-14049Y-3925D01*
X-14049Y-2040D01*
X-14114Y-1884D01*
X-14233Y-1764D01*
X-14390Y-1700D01*
X-14559Y-1699D01*
X-14715Y-1764D01*
X-14835Y-1883D01*
X-14899Y-2040D01*
X-14900Y-2209D01*
X-14835Y-2365D01*
X-14716Y-2485D01*
X-14559Y-2549D01*
X-14390Y-2550D01*
X-14234Y-2485D01*
X-14114Y-2366D01*
X-14050Y-2209D01*
X-14049Y-2040D01*
X-14049Y-3925D01*
X-15775Y-3925D01*
X-15775Y-1946D01*
X-15130Y-1350D01*
X-11850Y-1350D01*
X-11850Y-2304D01*
X-11850Y-2304D01*
G37*
G54D20*
X-11850Y-2304D02*
X-12019Y-2474D01*
X-12019Y-1938D01*
X-12032Y-1750D01*
X-12080Y-1632D01*
X-12168Y-1614D01*
X-12239Y-1684D01*
X-12239Y-1543D01*
X-12257Y-1455D01*
X-12436Y-1394D01*
X-12624Y-1407D01*
X-12742Y-1455D01*
X-12760Y-1543D01*
X-12500Y-1804D01*
X-12239Y-1543D01*
X-12239Y-1684D01*
X-12429Y-1875D01*
X-12168Y-2135D01*
X-12080Y-2117D01*
X-12019Y-1938D01*
X-12019Y-2474D01*
X-12239Y-2693D01*
X-12239Y-2206D01*
X-12500Y-1945D01*
X-12570Y-2016D01*
X-12570Y-1875D01*
X-12831Y-1614D01*
X-12919Y-1632D01*
X-12980Y-1811D01*
X-12967Y-1999D01*
X-12919Y-2117D01*
X-12831Y-2135D01*
X-12570Y-1875D01*
X-12570Y-2016D01*
X-12760Y-2206D01*
X-12742Y-2294D01*
X-12563Y-2355D01*
X-12375Y-2342D01*
X-12257Y-2294D01*
X-12239Y-2206D01*
X-12239Y-2693D01*
X-13470Y-3925D01*
X-14049Y-3925D01*
X-14049Y-2040D01*
X-14114Y-1884D01*
X-14233Y-1764D01*
X-14390Y-1700D01*
X-14559Y-1699D01*
X-14715Y-1764D01*
X-14835Y-1883D01*
X-14899Y-2040D01*
X-14900Y-2209D01*
X-14835Y-2365D01*
X-14716Y-2485D01*
X-14559Y-2549D01*
X-14390Y-2550D01*
X-14234Y-2485D01*
X-14114Y-2366D01*
X-14050Y-2209D01*
X-14049Y-2040D01*
X-14049Y-3925D01*
X-15775Y-3925D01*
X-15775Y-1946D01*
X-15130Y-1350D01*
X-11850Y-1350D01*
X-11850Y-2304D01*
M02*
