G04 (created by PCBNEW (2013-05-31 BZR 4019)-stable) date 7/19/2013 4:54:48 PM*
%MOIN*%
G04 Gerber Fmt 3.4, Leading zero omitted, Abs format*
%FSLAX34Y34*%
G01*
G70*
G90*
G04 APERTURE LIST*
%ADD10C,0.00590551*%
%ADD11R,0.037X0.062*%
%ADD12R,0.028X0.062*%
%ADD13R,0.062X0.037*%
%ADD14R,0.057X0.037*%
%ADD15R,0.037X0.057*%
%ADD16R,0.072X0.072*%
%ADD17C,0.072*%
%ADD18C,0.057*%
%ADD19C,0.192*%
%ADD20R,0.077X0.077*%
%ADD21C,0.0632*%
%ADD22R,0.0316X0.0434*%
G04 APERTURE END LIST*
G54D10*
G54D11*
X-2818Y-5050D03*
X-3137Y-5050D03*
X-2843Y-4050D03*
X-3162Y-4050D03*
X-21180Y-3500D03*
X-21500Y-3500D03*
X-21820Y-3500D03*
X-16680Y-3500D03*
X-17000Y-3500D03*
X-17320Y-3500D03*
G54D12*
X-990Y-4425D03*
X-1245Y-4425D03*
X-1505Y-4425D03*
X-1760Y-4425D03*
X-1760Y-2675D03*
X-1505Y-2675D03*
X-1245Y-2675D03*
X-990Y-2675D03*
G54D13*
X-21500Y-5173D03*
X-21500Y-5527D03*
G54D14*
X-23350Y-5100D03*
X-23350Y-4500D03*
X-23350Y-13700D03*
X-23350Y-13100D03*
X-23350Y-9100D03*
X-23350Y-8500D03*
G54D15*
X275Y-2425D03*
X-325Y-2425D03*
X275Y-4225D03*
X-325Y-4225D03*
X275Y-3325D03*
X-325Y-3325D03*
X275Y-5050D03*
X-325Y-5050D03*
G54D16*
X3000Y-1500D03*
G54D17*
X4000Y-1500D03*
X3000Y-2500D03*
X4000Y-2500D03*
X3000Y-3500D03*
X4000Y-3500D03*
X3000Y-4500D03*
X4000Y-4500D03*
X3000Y-5500D03*
X4000Y-5500D03*
X-26750Y-4000D03*
X-26750Y-5000D03*
X-26750Y-6000D03*
X-26750Y-7000D03*
X-26750Y-8000D03*
X-26750Y-9000D03*
G54D16*
X-26750Y-15000D03*
G54D17*
X-26750Y-14000D03*
X-26750Y-13000D03*
X-26750Y-12000D03*
X-26750Y-11000D03*
X-26750Y-10000D03*
G54D18*
X-2000Y-1550D03*
G54D19*
X-26000Y-1250D03*
X0Y0D03*
X0Y-19000D03*
X-26000Y-17750D03*
G54D20*
X-2000Y500D03*
G54D21*
X-2000Y-500D03*
X-3000Y500D03*
X-3000Y-500D03*
X-4000Y500D03*
X-4000Y-500D03*
X-5000Y500D03*
X-5000Y-500D03*
X-6000Y500D03*
X-6000Y-500D03*
X-7000Y500D03*
X-7000Y-500D03*
X-8000Y500D03*
X-8000Y-500D03*
X-9000Y500D03*
X-9000Y-500D03*
X-10000Y500D03*
X-10000Y-500D03*
X-11000Y500D03*
X-11000Y-500D03*
X-12000Y500D03*
X-12000Y-500D03*
X-13000Y500D03*
X-13000Y-500D03*
X-14000Y500D03*
X-14000Y-500D03*
X-15000Y500D03*
X-15000Y-500D03*
X-16000Y500D03*
X-16000Y-500D03*
X-17000Y500D03*
X-17000Y-500D03*
X-18000Y500D03*
X-18000Y-500D03*
X-19000Y500D03*
X-19000Y-500D03*
X-20000Y500D03*
X-20000Y-500D03*
X-21000Y500D03*
X-21000Y-500D03*
X-22000Y500D03*
X-22000Y-500D03*
X-23000Y500D03*
X-23000Y-500D03*
X-24000Y500D03*
X-24000Y-500D03*
G54D20*
X-2000Y-18500D03*
G54D21*
X-2000Y-19500D03*
X-3000Y-18500D03*
X-3000Y-19500D03*
X-4000Y-18500D03*
X-4000Y-19500D03*
X-5000Y-18500D03*
X-5000Y-19500D03*
X-6000Y-18500D03*
X-6000Y-19500D03*
X-7000Y-18500D03*
X-7000Y-19500D03*
X-8000Y-18500D03*
X-8000Y-19500D03*
X-9000Y-18500D03*
X-9000Y-19500D03*
X-10000Y-18500D03*
X-10000Y-19500D03*
X-11000Y-18500D03*
X-11000Y-19500D03*
X-12000Y-18500D03*
X-12000Y-19500D03*
X-13000Y-18500D03*
X-13000Y-19500D03*
X-14000Y-18500D03*
X-14000Y-19500D03*
X-15000Y-18500D03*
X-15000Y-19500D03*
X-16000Y-18500D03*
X-16000Y-19500D03*
X-17000Y-18500D03*
X-17000Y-19500D03*
X-18000Y-18500D03*
X-18000Y-19500D03*
X-19000Y-18500D03*
X-19000Y-19500D03*
X-20000Y-18500D03*
X-20000Y-19500D03*
X-21000Y-18500D03*
X-21000Y-19500D03*
X-22000Y-18500D03*
X-22000Y-19500D03*
X-23000Y-18500D03*
X-23000Y-19500D03*
X-24000Y-18500D03*
X-24000Y-19500D03*
G54D18*
X-12500Y-1875D03*
X-3000Y-2125D03*
X-23000Y-1525D03*
X-15475Y-5350D03*
X-3900Y-11050D03*
G54D22*
X-24775Y-9300D03*
X-24400Y-9300D03*
X-24025Y-9300D03*
X-24025Y-8300D03*
X-24400Y-8300D03*
X-24775Y-8300D03*
X-24775Y-5300D03*
X-24400Y-5300D03*
X-24025Y-5300D03*
X-24025Y-4300D03*
X-24400Y-4300D03*
X-24775Y-4300D03*
X-24775Y-13900D03*
X-24400Y-13900D03*
X-24025Y-13900D03*
X-24025Y-12900D03*
X-24400Y-12900D03*
X-24775Y-12900D03*
M02*
