G04 (created by PCBNEW (2013-05-31 BZR 4019)-stable) date 1/2/2014 5:42:18 PM*
%MOIN*%
G04 Gerber Fmt 3.4, Leading zero omitted, Abs format*
%FSLAX34Y34*%
G01*
G70*
G90*
G04 APERTURE LIST*
%ADD10C,0.00590551*%
%ADD11R,0.025X0.05*%
%ADD12R,0.016X0.05*%
%ADD13R,0.025X0.045*%
%ADD14C,0.045*%
%ADD15R,0.0276X0.0394*%
%ADD16R,0.045X0.025*%
%ADD17R,0.0866X0.06*%
%ADD18O,0.0866X0.06*%
%ADD19C,0.0512*%
%ADD20C,0.18*%
%ADD21R,0.065X0.065*%
%ADD22R,0.0401575X0.135827*%
%ADD23R,0.05X0.025*%
%ADD24C,0.024*%
%ADD25C,0.014*%
%ADD26C,0.016*%
%ADD27C,0.008*%
%ADD28C,0.01*%
G04 APERTURE END LIST*
G54D10*
G54D11*
X-23182Y-12700D03*
X-22863Y-12700D03*
X-23157Y-13700D03*
X-22838Y-13700D03*
X-4770Y-12000D03*
X-4450Y-12000D03*
X-4130Y-12000D03*
G54D12*
X-25010Y-13325D03*
X-24755Y-13325D03*
X-24495Y-13325D03*
X-24240Y-13325D03*
X-24240Y-15075D03*
X-24495Y-15075D03*
X-24755Y-15075D03*
X-25010Y-15075D03*
G54D11*
X-6202Y-11550D03*
X-5848Y-11550D03*
G54D13*
X-26275Y-15325D03*
X-25675Y-15325D03*
X-26275Y-13525D03*
X-25675Y-13525D03*
X-26275Y-14425D03*
X-25675Y-14425D03*
X-26275Y-12700D03*
X-25675Y-12700D03*
G54D14*
X-23000Y-14940D03*
X-9159Y-14340D03*
X-13350Y-15450D03*
X-7190Y-15760D03*
X-12825Y-11425D03*
X-25080Y-300D03*
G54D15*
X-1900Y-8050D03*
X-2275Y-8050D03*
X-2650Y-8050D03*
X-2650Y-9050D03*
X-2275Y-9050D03*
X-1900Y-9050D03*
X-1825Y-11600D03*
X-2200Y-11600D03*
X-2575Y-11600D03*
X-2575Y-12600D03*
X-2200Y-12600D03*
X-1825Y-12600D03*
X-1900Y-3900D03*
X-2275Y-3900D03*
X-2650Y-3900D03*
X-2650Y-4900D03*
X-2275Y-4900D03*
X-1900Y-4900D03*
G54D11*
X-16290Y-11070D03*
X-16610Y-11070D03*
X-16930Y-11070D03*
G54D16*
X-24030Y-310D03*
X-24030Y-910D03*
G54D14*
X-10275Y-11625D03*
G54D16*
X-3350Y-8275D03*
X-3350Y-8875D03*
X-3350Y-4100D03*
X-3350Y-4700D03*
X-3325Y-11825D03*
X-3325Y-12425D03*
G54D17*
X750Y-1750D03*
G54D18*
X750Y-2750D03*
X750Y-3750D03*
X750Y-4750D03*
X750Y-5750D03*
X750Y-6750D03*
X750Y-7750D03*
X750Y-8750D03*
X750Y-9750D03*
X750Y-10750D03*
X750Y-11750D03*
X750Y-12750D03*
X750Y-13750D03*
X750Y-14750D03*
G54D19*
X-11937Y1750D03*
X-11937Y750D03*
X-12937Y1750D03*
X-12937Y750D03*
X-13921Y750D03*
X-13921Y1750D03*
X-14905Y1750D03*
X-14905Y750D03*
X-10968Y750D03*
X-10968Y1750D03*
X-9984Y1750D03*
X-9984Y750D03*
G54D20*
X0Y-16500D03*
X-26000Y-17750D03*
X0Y0D03*
G54D21*
X-24000Y-18250D03*
G54D19*
X-24000Y-17250D03*
X-23000Y-18250D03*
X-23000Y-17250D03*
X-22000Y-18250D03*
X-22000Y-17250D03*
X-21000Y-18250D03*
X-21000Y-17250D03*
X-20000Y-18250D03*
X-20000Y-17250D03*
X-19000Y-18250D03*
X-19000Y-17250D03*
X-18000Y-18250D03*
X-18000Y-17250D03*
X-17000Y-18250D03*
X-17000Y-17250D03*
X-16000Y-18250D03*
X-16000Y-17250D03*
X-15000Y-18250D03*
X-15000Y-17250D03*
X-14000Y-18250D03*
X-14000Y-17250D03*
X-13000Y-18250D03*
X-13000Y-17250D03*
X-12000Y-18250D03*
X-12000Y-17250D03*
X-11000Y-18250D03*
X-11000Y-17250D03*
X-10000Y-18250D03*
X-10000Y-17250D03*
X-9000Y-18250D03*
X-9000Y-17250D03*
X-8000Y-18250D03*
X-8000Y-17250D03*
X-7000Y-18250D03*
X-7000Y-17250D03*
X-6000Y-18250D03*
X-6000Y-17250D03*
X-5000Y-18250D03*
X-5000Y-17250D03*
X-4000Y-18250D03*
X-4000Y-17250D03*
X-3000Y-18250D03*
X-3000Y-17250D03*
X-2000Y-18250D03*
X-2000Y-17250D03*
X-9000Y750D03*
X-9000Y1750D03*
X-8000Y750D03*
X-8000Y1750D03*
X-7000Y750D03*
X-7000Y1750D03*
X-6000Y750D03*
X-6000Y1750D03*
X-5000Y750D03*
X-5000Y1750D03*
X-4000Y750D03*
X-4000Y1750D03*
X-3000Y750D03*
X-3000Y1750D03*
X-2000Y750D03*
X-2000Y1750D03*
G54D22*
X-12750Y-1077D03*
X-12750Y-3222D03*
X-11750Y-1077D03*
X-11750Y-3222D03*
G54D23*
X-13825Y-7370D03*
X-13825Y-7050D03*
X-13825Y-6730D03*
G54D11*
X-13780Y-4375D03*
X-14100Y-4375D03*
X-14420Y-4375D03*
X-13780Y-650D03*
X-14100Y-650D03*
X-14420Y-650D03*
G54D23*
X-9275Y-7620D03*
X-9275Y-7300D03*
X-9275Y-6980D03*
G54D24*
X-6850Y-14200D03*
X-7150Y-5200D03*
X-7310Y-7950D03*
X-3940Y-4090D03*
X-5340Y-3140D03*
X-9500Y-5700D03*
X-17550Y-2550D03*
X-9950Y-8800D03*
X-21100Y-5500D03*
X-14250Y-12150D03*
X-17150Y-12100D03*
X-16630Y-10530D03*
X-20525Y-14875D03*
X-15190Y-8820D03*
X-15630Y-10530D03*
X-15490Y-9470D03*
X-21660Y-3810D03*
X-20370Y-6630D03*
X-18910Y-14870D03*
X-7650Y-11550D03*
X-9300Y-12150D03*
X-4150Y-10850D03*
X-4120Y-8890D03*
X-8990Y-920D03*
X-7230Y-1960D03*
X-6550Y-1960D03*
X-3960Y-4710D03*
X-5870Y-1950D03*
X-13350Y-7050D03*
X-12150Y-5875D03*
X-6800Y-11350D03*
X-5550Y-11025D03*
X-8700Y-7325D03*
X-11775Y-4450D03*
X-14100Y-4925D03*
X-5550Y-8875D03*
X-6850Y-12025D03*
G54D25*
X-6450Y-5050D03*
G54D24*
X-23925Y1225D03*
X-19400Y1200D03*
X-17955Y1840D03*
X-25025Y1225D03*
X-15410Y-11650D03*
X-18075Y-3825D03*
X-19750Y-6875D03*
X-16275Y-5400D03*
X-15750Y-4175D03*
X-13512Y-5037D03*
X-13025Y-4275D03*
X-15800Y-6775D03*
X-13525Y-5675D03*
X-18500Y-5675D03*
X-17525Y-4350D03*
X-17775Y-4050D03*
X-18700Y-5925D03*
X-11410Y-10310D03*
X-13970Y-9070D03*
X-14730Y-8550D03*
X-14375Y-7375D03*
X-14375Y-6725D03*
X-16650Y-7750D03*
X-13325Y-7925D03*
X-11100Y-5550D03*
X-15050Y-9250D03*
X-14250Y-10600D03*
X-1150Y-13250D03*
X-1350Y-12025D03*
X-1200Y-10775D03*
X-1325Y-9600D03*
X-1325Y-8450D03*
X-1075Y-7225D03*
X-1325Y-6050D03*
X-1075Y-4300D03*
X-600Y-2225D03*
X-9850Y-10700D03*
X-6950Y-11700D03*
X-8650Y-6950D03*
X-9550Y-6150D03*
X-10800Y-4900D03*
X-8900Y-5000D03*
X-9850Y-10050D03*
X-10950Y-6750D03*
X-11450Y-7400D03*
X-11250Y-7650D03*
X-10900Y-7650D03*
X-10900Y-9950D03*
X-15250Y-7770D03*
X-11770Y-2130D03*
X-17310Y-1030D03*
X-16750Y50D03*
X-26190Y-2350D03*
X-19330Y-1760D03*
X-17000Y-13550D03*
X-16550Y-14550D03*
X-16450Y-13800D03*
X-14600Y-13900D03*
X-16300Y-11750D03*
X-17410Y-11270D03*
X-19750Y-6450D03*
X-21660Y-7460D03*
X-19710Y-13060D03*
X-21870Y-13570D03*
X-20750Y-3550D03*
X-18370Y-8770D03*
X-13200Y-13650D03*
X-12800Y-15900D03*
X-10900Y-16490D03*
X-19250Y-4920D03*
X-12875Y-2225D03*
X-15490Y-14110D03*
X-18370Y-16110D03*
X-17200Y-16100D03*
X-18020Y-8390D03*
X-18070Y-10910D03*
X-14850Y-14110D03*
X-14830Y-15750D03*
X-18270Y-7450D03*
X-17710Y-6610D03*
X-21030Y-15650D03*
X-17150Y-15650D03*
X-16400Y-8350D03*
X-15900Y-11000D03*
X-17000Y-8450D03*
X-14450Y-4925D03*
X-11450Y-5275D03*
X-15880Y-5740D03*
X-8480Y-16410D03*
X-8700Y-6010D03*
X-4450Y-13750D03*
X-2900Y-13250D03*
X-17250Y-7350D03*
X-18337Y-2562D03*
X-9100Y-6350D03*
X-15050Y-16350D03*
X-20200Y-9810D03*
X-21980Y-1460D03*
X-23050Y-2190D03*
X-17425Y-15400D03*
X-20160Y-11140D03*
X-17150Y-15200D03*
X-22790Y-4220D03*
X-20170Y-10680D03*
X-21275Y-950D03*
X-19200Y-4060D03*
X-20190Y-10250D03*
X-21250Y-325D03*
X-18015Y-11395D03*
X-17380Y-8890D03*
G54D26*
X-4620Y-4770D02*
X-6720Y-4770D01*
X-6720Y-4770D02*
X-7150Y-5200D01*
X-3325Y-11825D02*
X-3325Y-10775D01*
X-4125Y-8275D02*
X-3350Y-8275D01*
X-4450Y-8600D02*
X-4125Y-8275D01*
X-4450Y-10250D02*
X-4450Y-8600D01*
X-4250Y-10450D02*
X-4450Y-10250D01*
X-3650Y-10450D02*
X-4250Y-10450D01*
X-3325Y-10775D02*
X-3650Y-10450D01*
X-3350Y-8275D02*
X-3350Y-6420D01*
X-3350Y-6420D02*
X-3860Y-5910D01*
X-3860Y-5910D02*
X-4350Y-5910D01*
X-4350Y-5910D02*
X-4620Y-5640D01*
X-4620Y-5640D02*
X-4620Y-4770D01*
X-4620Y-4770D02*
X-3940Y-4090D01*
X-3350Y-4100D02*
X-3930Y-4100D01*
X-3930Y-4100D02*
X-3940Y-4090D01*
G54D27*
X-2275Y-8050D02*
X-2275Y-8375D01*
X-2275Y-8375D02*
X-2350Y-8450D01*
X-2350Y-8450D02*
X-3175Y-8450D01*
X-3175Y-8450D02*
X-3350Y-8275D01*
X-2200Y-11600D02*
X-2200Y-11825D01*
X-3175Y-11975D02*
X-3325Y-11825D01*
X-2350Y-11975D02*
X-3175Y-11975D01*
X-2200Y-11825D02*
X-2350Y-11975D01*
X-2275Y-3900D02*
X-2275Y-4175D01*
X-3150Y-4300D02*
X-3350Y-4100D01*
X-2400Y-4300D02*
X-3150Y-4300D01*
X-2275Y-4175D02*
X-2400Y-4300D01*
X-23000Y-17250D02*
X-23000Y-17240D01*
X-26275Y-15685D02*
X-26275Y-15325D01*
X-26120Y-15840D02*
X-26275Y-15685D01*
X-24400Y-15840D02*
X-26120Y-15840D01*
X-23000Y-17240D02*
X-24400Y-15840D01*
X-25010Y-15075D02*
X-25095Y-15075D01*
X-25095Y-15075D02*
X-25280Y-14890D01*
X-25280Y-14890D02*
X-25840Y-14890D01*
X-25840Y-14890D02*
X-26275Y-15325D01*
X-26275Y-13525D02*
X-26275Y-12700D01*
X-26275Y-14425D02*
X-26275Y-13525D01*
X-26275Y-15325D02*
X-26275Y-14425D01*
X-9275Y-8125D02*
X-9950Y-8800D01*
X-9275Y-8125D02*
X-9275Y-7620D01*
X-16290Y-11070D02*
X-16290Y-10690D01*
X-16450Y-10530D02*
X-16630Y-10530D01*
X-16290Y-10690D02*
X-16450Y-10530D01*
G54D26*
X-3325Y-12425D02*
X-3675Y-12425D01*
X-3675Y-12425D02*
X-3800Y-12300D01*
X-3800Y-12300D02*
X-3800Y-11500D01*
X-3800Y-11500D02*
X-3900Y-11400D01*
X-3900Y-11400D02*
X-4050Y-11400D01*
X-4050Y-11400D02*
X-4150Y-11300D01*
X-4150Y-11300D02*
X-4150Y-10850D01*
X-3350Y-8875D02*
X-4105Y-8875D01*
X-4105Y-8875D02*
X-4120Y-8890D01*
X-3350Y-4700D02*
X-3950Y-4700D01*
X-3950Y-4700D02*
X-3960Y-4710D01*
G54D27*
X-2275Y-9050D02*
X-2275Y-8775D01*
X-3175Y-8700D02*
X-3350Y-8875D01*
X-2350Y-8700D02*
X-3175Y-8700D01*
X-2275Y-8775D02*
X-2350Y-8700D01*
X-2200Y-12600D02*
X-2200Y-12400D01*
X-3125Y-12225D02*
X-3325Y-12425D01*
X-2375Y-12225D02*
X-3125Y-12225D01*
X-2200Y-12400D02*
X-2375Y-12225D01*
X-2275Y-4900D02*
X-2275Y-4600D01*
X-3150Y-4500D02*
X-3350Y-4700D01*
X-2375Y-4500D02*
X-3150Y-4500D01*
X-2275Y-4600D02*
X-2375Y-4500D01*
X-25010Y-13325D02*
X-25010Y-14060D01*
X-25375Y-14425D02*
X-25675Y-14425D01*
X-25010Y-14060D02*
X-25375Y-14425D01*
X-24755Y-13325D02*
X-24755Y-12885D01*
X-25370Y-13220D02*
X-25675Y-13525D01*
X-25370Y-12990D02*
X-25370Y-13220D01*
X-25230Y-12850D02*
X-25370Y-12990D01*
X-24790Y-12850D02*
X-25230Y-12850D01*
X-24755Y-12885D02*
X-24790Y-12850D01*
X-24755Y-13325D02*
X-24755Y-14145D01*
X-23157Y-14037D02*
X-23157Y-13700D01*
X-23440Y-14320D02*
X-23157Y-14037D01*
X-24580Y-14320D02*
X-23440Y-14320D01*
X-24755Y-14145D02*
X-24580Y-14320D01*
X-23520Y-13038D02*
X-23182Y-12700D01*
X-25675Y-12700D02*
X-25470Y-12700D01*
X-24495Y-12785D02*
X-24495Y-13325D01*
X-24730Y-12550D02*
X-24495Y-12785D01*
X-25320Y-12550D02*
X-24730Y-12550D01*
X-25470Y-12700D02*
X-25320Y-12550D01*
X-24495Y-13325D02*
X-24495Y-13985D01*
X-23520Y-13760D02*
X-23520Y-13038D01*
X-23840Y-14080D02*
X-23520Y-13760D01*
X-24400Y-14080D02*
X-23840Y-14080D01*
X-24495Y-13985D02*
X-24400Y-14080D01*
X-13350Y-6875D02*
X-13350Y-7050D01*
X-12350Y-5875D02*
X-13350Y-6875D01*
X-12150Y-5875D02*
X-12350Y-5875D01*
X-13825Y-7050D02*
X-13350Y-7050D01*
X-6202Y-11550D02*
X-6600Y-11550D01*
X-6600Y-11550D02*
X-6800Y-11350D01*
X-5550Y-11275D02*
X-5550Y-11475D01*
X-5550Y-11025D02*
X-5550Y-11275D01*
X-5625Y-11550D02*
X-5848Y-11550D01*
X-5550Y-11475D02*
X-5625Y-11550D01*
X-8725Y-7300D02*
X-9275Y-7300D01*
X-8700Y-7325D02*
X-8725Y-7300D01*
X-12275Y-4175D02*
X-12275Y-4200D01*
X-12275Y-4175D02*
X-12275Y-2175D01*
X-14100Y-1850D02*
X-14100Y-650D01*
X-14000Y-1950D02*
X-14100Y-1850D01*
X-12500Y-1950D02*
X-14000Y-1950D01*
X-12275Y-2175D02*
X-12500Y-1950D01*
X-12025Y-4450D02*
X-11775Y-4450D01*
X-12275Y-4200D02*
X-12025Y-4450D01*
X-13780Y-650D02*
X-13177Y-650D01*
X-13177Y-650D02*
X-12750Y-1077D01*
X-14100Y-4375D02*
X-14100Y-4925D01*
G54D28*
X-5125Y-9300D02*
X-5550Y-8875D01*
X-5125Y-11475D02*
X-5125Y-9300D01*
X-5650Y-12000D02*
X-5125Y-11475D01*
X-6825Y-12000D02*
X-5650Y-12000D01*
X-6850Y-12025D02*
X-6825Y-12000D01*
G54D27*
X-4770Y-12000D02*
X-4770Y-8930D01*
X-5450Y-6050D02*
X-6450Y-5050D01*
X-5450Y-8250D02*
X-5450Y-6050D01*
X-4770Y-8930D02*
X-5450Y-8250D01*
G54D28*
X750Y-12750D02*
X50Y-12750D01*
X-2575Y-13300D02*
X-2575Y-12600D01*
X-2225Y-13650D02*
X-2575Y-13300D01*
X-850Y-13650D02*
X-2225Y-13650D01*
X50Y-12750D02*
X-850Y-13650D01*
G54D27*
X750Y-2750D02*
X-325Y-2750D01*
X-1475Y-3900D02*
X-1900Y-3900D01*
X-325Y-2750D02*
X-1475Y-3900D01*
X750Y-1750D02*
X-950Y-1750D01*
X-2650Y-3450D02*
X-2650Y-3900D01*
X-950Y-1750D02*
X-2650Y-3450D01*
X750Y-4750D02*
X150Y-4750D01*
X-2650Y-5125D02*
X-2650Y-4900D01*
X-2525Y-5250D02*
X-2650Y-5125D01*
X-350Y-5250D02*
X-2525Y-5250D01*
X150Y-4750D02*
X-350Y-5250D01*
X750Y-3750D02*
X200Y-3750D01*
X-950Y-4900D02*
X-1900Y-4900D01*
X200Y-3750D02*
X-950Y-4900D01*
X750Y-5750D02*
X-275Y-5750D01*
X-2650Y-7350D02*
X-2650Y-8050D01*
X-2025Y-6725D02*
X-2650Y-7350D01*
X-1250Y-6725D02*
X-2025Y-6725D01*
X-275Y-5750D02*
X-1250Y-6725D01*
X750Y-6750D02*
X525Y-6750D01*
X-775Y-8050D02*
X-1900Y-8050D01*
X525Y-6750D02*
X-775Y-8050D01*
X750Y-7750D02*
X350Y-7750D01*
X-950Y-9050D02*
X-1900Y-9050D01*
X350Y-7750D02*
X-950Y-9050D01*
X750Y-8750D02*
X250Y-8750D01*
X-2650Y-9750D02*
X-2650Y-9050D01*
X-2375Y-10025D02*
X-2650Y-9750D01*
X-1025Y-10025D02*
X-2375Y-10025D01*
X250Y-8750D02*
X-1025Y-10025D01*
X750Y-9750D02*
X500Y-9750D01*
X-2575Y-11325D02*
X-2575Y-11600D01*
X-2400Y-11150D02*
X-2575Y-11325D01*
X-900Y-11150D02*
X-2400Y-11150D01*
X500Y-9750D02*
X-900Y-11150D01*
X750Y-10750D02*
X25Y-10750D01*
X-825Y-11600D02*
X-1825Y-11600D01*
X25Y-10750D02*
X-825Y-11600D01*
X750Y-11750D02*
X-250Y-11750D01*
X-1100Y-12600D02*
X-1825Y-12600D01*
X-250Y-11750D02*
X-1100Y-12600D01*
X-24030Y-310D02*
X-25070Y-310D01*
X-25070Y-310D02*
X-25080Y-300D01*
X-19425Y1225D02*
X-23925Y1225D01*
X-19400Y1200D02*
X-19425Y1225D01*
X-17955Y1840D02*
X-18260Y1840D01*
X-19155Y660D02*
X-24760Y660D01*
X-24760Y660D02*
X-25025Y925D01*
X-25025Y925D02*
X-25025Y1225D01*
X-18610Y1205D02*
X-19155Y660D01*
X-18610Y1490D02*
X-18610Y1205D01*
X-18260Y1840D02*
X-18610Y1490D01*
X-16610Y-11070D02*
X-16610Y-11330D01*
X-15610Y-11450D02*
X-15410Y-11650D01*
X-16490Y-11450D02*
X-15610Y-11450D01*
X-16610Y-11330D02*
X-16490Y-11450D01*
X-18075Y-4123D02*
X-18075Y-3825D01*
X-19000Y-5048D02*
X-18075Y-4123D01*
X-19000Y-6125D02*
X-19000Y-5048D01*
X-19750Y-6875D02*
X-19000Y-6125D01*
X-15750Y-4875D02*
X-16275Y-5400D01*
X-15750Y-4300D02*
X-15750Y-4875D01*
X-15750Y-4175D02*
X-15750Y-4300D01*
X-13025Y-4275D02*
X-13300Y-4550D01*
X-13300Y-4550D02*
X-13300Y-4825D01*
X-13300Y-4825D02*
X-13512Y-5037D01*
X-15025Y-6000D02*
X-15800Y-6775D01*
X-13850Y-6000D02*
X-15025Y-6000D01*
X-13525Y-5675D02*
X-13850Y-6000D01*
X-18500Y-5675D02*
X-18525Y-5675D01*
X-18664Y-5166D02*
X-17848Y-4350D01*
X-18664Y-5535D02*
X-18664Y-5166D01*
X-18525Y-5675D02*
X-18664Y-5535D01*
X-17848Y-4350D02*
X-17525Y-4350D01*
X-18825Y-5100D02*
X-17775Y-4050D01*
X-18700Y-5925D02*
X-18825Y-5800D01*
X-18825Y-5800D02*
X-18825Y-5100D01*
X-4000Y-17250D02*
X-4000Y-17440D01*
X-4000Y-17440D02*
X-4350Y-17790D01*
X-4350Y-17790D02*
X-7190Y-17790D01*
X-7190Y-17790D02*
X-7530Y-17450D01*
X-7530Y-17450D02*
X-7530Y-16970D01*
X-7530Y-16970D02*
X-8350Y-16150D01*
X-8350Y-16150D02*
X-9530Y-16150D01*
X-9530Y-16150D02*
X-11410Y-14270D01*
X-11410Y-14270D02*
X-11410Y-10310D01*
X-13970Y-9070D02*
X-14090Y-9190D01*
X-14090Y-9190D02*
X-14490Y-9190D01*
X-14490Y-9190D02*
X-14730Y-8950D01*
X-14730Y-8950D02*
X-14730Y-8550D01*
X-13825Y-7370D02*
X-14370Y-7370D01*
X-14370Y-7370D02*
X-14375Y-7375D01*
X-13825Y-6730D02*
X-14370Y-6730D01*
X-14370Y-6730D02*
X-14375Y-6725D01*
X-11250Y-17000D02*
X-11000Y-17250D01*
X-11250Y-15550D02*
X-11250Y-17000D01*
X-12075Y-14725D02*
X-11250Y-15550D01*
X-12075Y-9100D02*
X-12075Y-14725D01*
X-13000Y-8175D02*
X-12075Y-9100D01*
X-16225Y-8175D02*
X-13000Y-8175D01*
X-16650Y-7750D02*
X-16225Y-8175D01*
X-11100Y-5550D02*
X-11100Y-6350D01*
X-12900Y-7925D02*
X-13325Y-7925D01*
X-12800Y-7825D02*
X-12900Y-7925D01*
X-12800Y-7075D02*
X-12800Y-7825D01*
X-12200Y-6475D02*
X-12800Y-7075D01*
X-11225Y-6475D02*
X-12200Y-6475D01*
X-11100Y-6350D02*
X-11225Y-6475D01*
X-11100Y-5550D02*
X-11100Y-275D01*
X-12462Y1225D02*
X-12937Y750D01*
X-11575Y1225D02*
X-12462Y1225D01*
X-11450Y1100D02*
X-11575Y1225D01*
X-11450Y75D02*
X-11450Y1100D01*
X-11100Y-275D02*
X-11450Y75D01*
X-24755Y-15075D02*
X-24755Y-14655D01*
X-23350Y-14590D02*
X-23000Y-14940D01*
X-24690Y-14590D02*
X-23350Y-14590D01*
X-24755Y-14655D02*
X-24690Y-14590D01*
X-24755Y-15075D02*
X-24755Y-15565D01*
X-25430Y-15570D02*
X-25675Y-15325D01*
X-24760Y-15570D02*
X-25430Y-15570D01*
X-24755Y-15565D02*
X-24760Y-15570D01*
X-8680Y-6980D02*
X-9275Y-6980D01*
X-8650Y-6950D02*
X-8680Y-6980D01*
X-14420Y-650D02*
X-14420Y-280D01*
X-14750Y50D02*
X-16750Y50D01*
X-14420Y-280D02*
X-14750Y50D01*
X-24030Y-910D02*
X-24030Y-1960D01*
X-24420Y-2350D02*
X-26190Y-2350D01*
X-24030Y-1960D02*
X-24420Y-2350D01*
X-22838Y-13700D02*
X-22000Y-13700D01*
X-22000Y-13700D02*
X-21870Y-13570D01*
X-24240Y-13325D02*
X-24240Y-12890D01*
X-22863Y-12287D02*
X-22863Y-12700D01*
X-23000Y-12150D02*
X-22863Y-12287D01*
X-23500Y-12150D02*
X-23000Y-12150D01*
X-24240Y-12890D02*
X-23500Y-12150D01*
X-22838Y-13700D02*
X-22838Y-12725D01*
X-22838Y-12725D02*
X-22863Y-12700D01*
X-16930Y-11070D02*
X-17210Y-11070D01*
X-17210Y-11070D02*
X-17410Y-11270D01*
X-13600Y-2250D02*
X-13780Y-2430D01*
X-13780Y-2430D02*
X-13780Y-4375D01*
X-12900Y-2250D02*
X-13600Y-2250D01*
X-12875Y-2225D02*
X-12900Y-2250D01*
X-18330Y-11170D02*
X-18070Y-10910D01*
X-18330Y-12970D02*
X-18330Y-11170D01*
X-17210Y-14090D02*
X-18330Y-12970D01*
X-15510Y-14090D02*
X-17210Y-14090D01*
X-15490Y-14110D02*
X-15510Y-14090D01*
X-18370Y-16110D02*
X-23800Y-16110D01*
X-17200Y-16100D02*
X-18360Y-16100D01*
X-18360Y-16100D02*
X-18370Y-16110D01*
X-24495Y-15075D02*
X-24495Y-15415D01*
X-24495Y-15415D02*
X-23800Y-16110D01*
X-18020Y-8390D02*
X-17960Y-8450D01*
X-17960Y-8450D02*
X-17960Y-10800D01*
X-17960Y-10800D02*
X-18070Y-10910D01*
X-14790Y-14170D02*
X-14850Y-14110D01*
X-14790Y-15710D02*
X-14790Y-14170D01*
X-14830Y-15750D02*
X-14790Y-15710D01*
X-18270Y-7450D02*
X-17710Y-6890D01*
X-17710Y-6890D02*
X-17710Y-6610D01*
X-21030Y-15650D02*
X-23970Y-15650D01*
X-23970Y-15650D02*
X-24240Y-15380D01*
X-24240Y-15380D02*
X-24240Y-15075D01*
X-17150Y-15650D02*
X-21030Y-15650D01*
X-16400Y-8350D02*
X-17000Y-7750D01*
X-17000Y-7750D02*
X-17100Y-7750D01*
X-17100Y-7750D02*
X-17250Y-7900D01*
X-15900Y-11000D02*
X-16000Y-10900D01*
X-16000Y-10900D02*
X-16000Y-10750D01*
X-16000Y-10750D02*
X-16100Y-10650D01*
X-16100Y-10650D02*
X-16100Y-9700D01*
X-16100Y-9700D02*
X-17250Y-8550D01*
X-17250Y-8550D02*
X-17250Y-7900D01*
X-14450Y-4405D02*
X-14420Y-4375D01*
X-14700Y-11800D02*
X-14700Y-12050D01*
X-15910Y-9640D02*
X-17000Y-8550D01*
X-17000Y-8550D02*
X-17000Y-8450D01*
X-10000Y-17250D02*
X-10460Y-17710D01*
X-11270Y-17710D02*
X-10460Y-17710D01*
X-11490Y-17490D02*
X-11270Y-17710D01*
X-11490Y-16890D02*
X-11490Y-17490D01*
X-11850Y-16530D02*
X-11490Y-16890D01*
X-14130Y-16530D02*
X-11850Y-16530D01*
X-14330Y-16330D02*
X-14130Y-16530D01*
X-15910Y-10590D02*
X-14700Y-11800D01*
X-15910Y-9650D02*
X-15910Y-10590D01*
X-15910Y-9650D02*
X-15910Y-9640D01*
X-14330Y-13820D02*
X-14330Y-16330D01*
X-14600Y-13550D02*
X-14330Y-13820D01*
X-14600Y-12150D02*
X-14600Y-13550D01*
X-14700Y-12050D02*
X-14600Y-12150D01*
X-14450Y-4925D02*
X-14450Y-4405D01*
X-14450Y-4925D02*
X-14420Y-4895D01*
X-11450Y-5275D02*
X-11550Y-5375D01*
X-15880Y-5740D02*
X-15515Y-5375D01*
X-15515Y-5375D02*
X-11725Y-5375D01*
X-11550Y-5375D02*
X-11725Y-5375D01*
X-9630Y-16410D02*
X-8480Y-16410D01*
X-11675Y-14365D02*
X-9630Y-16410D01*
X-11675Y-9275D02*
X-11675Y-14365D01*
X-9600Y-9275D02*
X-11675Y-9275D01*
X-8125Y-7800D02*
X-9600Y-9275D01*
X-8125Y-6745D02*
X-8125Y-7800D01*
X-8410Y-6460D02*
X-8125Y-6745D01*
X-8560Y-6460D02*
X-8410Y-6460D01*
X-8670Y-6350D02*
X-8560Y-6460D01*
X-8670Y-6040D02*
X-8670Y-6350D01*
X-8700Y-6010D02*
X-8670Y-6040D01*
X-4450Y-13750D02*
X-4450Y-12000D01*
X-4130Y-12970D02*
X-4130Y-12000D01*
X-3850Y-13250D02*
X-4130Y-12970D01*
X-2900Y-13250D02*
X-3850Y-13250D01*
X-17250Y-7350D02*
X-17080Y-7180D01*
X-17080Y-7180D02*
X-16590Y-6690D01*
X-16590Y-6690D02*
X-16590Y-4310D01*
X-16590Y-4310D02*
X-18337Y-2562D01*
X-8480Y-16940D02*
X-8480Y-17730D01*
X-8710Y-16710D02*
X-8480Y-16940D01*
X-9680Y-16710D02*
X-8710Y-16710D01*
X-11870Y-14520D02*
X-9680Y-16710D01*
X-11870Y-9140D02*
X-11870Y-14520D01*
X-11810Y-9080D02*
X-11870Y-9140D01*
X-9690Y-9080D02*
X-11810Y-9080D01*
X-8330Y-7720D02*
X-9690Y-9080D01*
X-8330Y-6830D02*
X-8330Y-7720D01*
X-8490Y-6670D02*
X-8330Y-6830D01*
X-8580Y-6670D02*
X-8490Y-6670D01*
X-8480Y-17730D02*
X-9000Y-18250D01*
X-8875Y-6375D02*
X-8580Y-6670D01*
X-8900Y-6350D02*
X-8875Y-6375D01*
X-9100Y-6350D02*
X-8900Y-6350D01*
X-18575Y-13100D02*
X-16375Y-15300D01*
X-19840Y-9810D02*
X-18575Y-11075D01*
X-18575Y-11075D02*
X-18575Y-13100D01*
X-20200Y-9810D02*
X-19840Y-9810D01*
X-15050Y-15925D02*
X-15050Y-16350D01*
X-15675Y-15300D02*
X-15050Y-15925D01*
X-16375Y-15300D02*
X-15675Y-15300D01*
X-22070Y-9820D02*
X-22170Y-9720D01*
X-20210Y-9820D02*
X-22070Y-9820D01*
X-20200Y-9810D02*
X-20210Y-9820D01*
X-22170Y-1660D02*
X-22170Y-1650D01*
X-22170Y-9720D02*
X-22170Y-1660D01*
X-22170Y-1650D02*
X-21980Y-1460D01*
X-23050Y-9880D02*
X-23050Y-3810D01*
X-23050Y-10150D02*
X-23050Y-9880D01*
X-23050Y-3810D02*
X-23050Y-2190D01*
X-22030Y-11170D02*
X-23050Y-10150D01*
X-20160Y-11140D02*
X-19460Y-11140D01*
X-17425Y-15275D02*
X-17425Y-15400D01*
X-19275Y-13425D02*
X-17425Y-15275D01*
X-19275Y-11325D02*
X-19275Y-13425D01*
X-19460Y-11140D02*
X-19275Y-11325D01*
X-20190Y-11170D02*
X-22030Y-11170D01*
X-20160Y-11140D02*
X-20190Y-11170D01*
X-20170Y-10680D02*
X-19570Y-10680D01*
X-19050Y-13300D02*
X-17150Y-15200D01*
X-19050Y-11200D02*
X-19050Y-13300D01*
X-19570Y-10680D02*
X-19050Y-11200D01*
X-22790Y-4220D02*
X-22730Y-4280D01*
X-20170Y-10680D02*
X-20180Y-10690D01*
X-20180Y-10690D02*
X-22130Y-10690D01*
X-22130Y-10690D02*
X-22730Y-10090D01*
X-22730Y-10090D02*
X-22730Y-4280D01*
X-21275Y-950D02*
X-19170Y-950D01*
X-19200Y-4060D02*
X-18900Y-3760D01*
X-18900Y-3760D02*
X-18900Y-1220D01*
X-18900Y-1220D02*
X-19170Y-950D01*
X-20190Y-10250D02*
X-19700Y-10250D01*
X-13550Y-16700D02*
X-13000Y-17250D01*
X-15275Y-16700D02*
X-13550Y-16700D01*
X-15450Y-16525D02*
X-15275Y-16700D01*
X-15450Y-15925D02*
X-15450Y-16525D01*
X-15875Y-15500D02*
X-15450Y-15925D01*
X-16475Y-15500D02*
X-15875Y-15500D01*
X-18800Y-13175D02*
X-16475Y-15500D01*
X-18800Y-11150D02*
X-18800Y-13175D01*
X-19700Y-10250D02*
X-18800Y-11150D01*
X-22090Y-10250D02*
X-22460Y-9880D01*
X-20190Y-10250D02*
X-22090Y-10250D01*
X-22460Y-790D02*
X-21995Y-325D01*
X-22460Y-9880D02*
X-22460Y-790D01*
X-21995Y-325D02*
X-21250Y-325D01*
X-18015Y-11395D02*
X-17380Y-10760D01*
X-17380Y-10760D02*
X-17380Y-9880D01*
X-17380Y-9880D02*
X-17380Y-8890D01*
X-17380Y-8890D02*
X-17370Y-8900D01*
G54D10*
G36*
X-17791Y-15318D02*
X-17794Y-15326D01*
X-17794Y-15360D01*
X-18539Y-15360D01*
X-18539Y-14796D01*
X-18596Y-14660D01*
X-18700Y-14556D01*
X-18836Y-14500D01*
X-18983Y-14499D01*
X-19119Y-14556D01*
X-19223Y-14660D01*
X-19279Y-14796D01*
X-19280Y-14943D01*
X-19223Y-15079D01*
X-19119Y-15183D01*
X-18983Y-15239D01*
X-18836Y-15240D01*
X-18700Y-15183D01*
X-18596Y-15079D01*
X-18540Y-14943D01*
X-18539Y-14796D01*
X-18539Y-15360D01*
X-20154Y-15360D01*
X-20154Y-14801D01*
X-20211Y-14665D01*
X-20315Y-14561D01*
X-20451Y-14505D01*
X-20598Y-14504D01*
X-20734Y-14561D01*
X-20838Y-14665D01*
X-20894Y-14801D01*
X-20895Y-14948D01*
X-20838Y-15084D01*
X-20734Y-15188D01*
X-20598Y-15244D01*
X-20451Y-15245D01*
X-20315Y-15188D01*
X-20211Y-15084D01*
X-20155Y-14948D01*
X-20154Y-14801D01*
X-20154Y-15360D01*
X-20796Y-15360D01*
X-20820Y-15336D01*
X-20956Y-15280D01*
X-21103Y-15279D01*
X-21239Y-15336D01*
X-21263Y-15360D01*
X-22772Y-15360D01*
X-22731Y-15342D01*
X-22597Y-15209D01*
X-22525Y-15034D01*
X-22524Y-14845D01*
X-22597Y-14671D01*
X-22730Y-14537D01*
X-22905Y-14465D01*
X-23064Y-14464D01*
X-23119Y-14410D01*
X-22951Y-14242D01*
X-22951Y-14242D01*
X-22951Y-14242D01*
X-22901Y-14166D01*
X-22890Y-14162D01*
X-22820Y-14091D01*
X-22788Y-14014D01*
X-22788Y-14137D01*
X-22725Y-14200D01*
X-22663Y-14200D01*
X-22571Y-14162D01*
X-22501Y-14091D01*
X-22463Y-13999D01*
X-22462Y-13900D01*
X-22463Y-13812D01*
X-22525Y-13750D01*
X-22781Y-13750D01*
X-22781Y-13650D01*
X-22525Y-13650D01*
X-22463Y-13587D01*
X-22462Y-13499D01*
X-22463Y-13400D01*
X-22501Y-13308D01*
X-22571Y-13237D01*
X-22663Y-13199D01*
X-22688Y-13199D01*
X-22596Y-13162D01*
X-22526Y-13091D01*
X-22488Y-12999D01*
X-22487Y-12900D01*
X-22488Y-12812D01*
X-22550Y-12750D01*
X-22806Y-12750D01*
X-22806Y-12650D01*
X-22550Y-12650D01*
X-22488Y-12587D01*
X-22487Y-12499D01*
X-22488Y-12400D01*
X-22526Y-12308D01*
X-22596Y-12237D01*
X-22688Y-12199D01*
X-22750Y-12200D01*
X-22813Y-12262D01*
X-22813Y-12385D01*
X-22844Y-12308D01*
X-22915Y-12238D01*
X-22953Y-12222D01*
X-22975Y-12200D01*
X-23037Y-12199D01*
X-23037Y-12200D01*
X-23106Y-12199D01*
X-23356Y-12199D01*
X-23448Y-12237D01*
X-23518Y-12308D01*
X-23556Y-12400D01*
X-23557Y-12499D01*
X-23557Y-12664D01*
X-23725Y-12832D01*
X-23787Y-12927D01*
X-23810Y-13038D01*
X-23810Y-13639D01*
X-23960Y-13790D01*
X-24025Y-13790D01*
X-24018Y-13787D01*
X-23948Y-13716D01*
X-23910Y-13624D01*
X-23909Y-13525D01*
X-23910Y-13437D01*
X-23972Y-13375D01*
X-24164Y-13375D01*
X-24164Y-13275D01*
X-23972Y-13275D01*
X-23910Y-13212D01*
X-23909Y-13124D01*
X-23910Y-13025D01*
X-23948Y-12933D01*
X-24018Y-12862D01*
X-24110Y-12824D01*
X-24137Y-12825D01*
X-24189Y-12877D01*
X-24189Y-12825D01*
X-24205Y-12825D01*
X-24205Y-12785D01*
X-24227Y-12674D01*
X-24289Y-12579D01*
X-24524Y-12344D01*
X-24619Y-12282D01*
X-24730Y-12260D01*
X-25320Y-12260D01*
X-25396Y-12275D01*
X-25408Y-12263D01*
X-25500Y-12225D01*
X-25599Y-12224D01*
X-25849Y-12224D01*
X-25941Y-12262D01*
X-25974Y-12296D01*
X-26008Y-12263D01*
X-26100Y-12225D01*
X-26199Y-12224D01*
X-26449Y-12224D01*
X-26541Y-12262D01*
X-26611Y-12333D01*
X-26649Y-12425D01*
X-26650Y-12524D01*
X-26650Y-12974D01*
X-26612Y-13066D01*
X-26566Y-13112D01*
X-26611Y-13158D01*
X-26649Y-13250D01*
X-26650Y-13349D01*
X-26650Y-13799D01*
X-26612Y-13891D01*
X-26565Y-13938D01*
X-26565Y-14011D01*
X-26611Y-14058D01*
X-26649Y-14150D01*
X-26650Y-14249D01*
X-26650Y-14699D01*
X-26612Y-14791D01*
X-26565Y-14838D01*
X-26565Y-14911D01*
X-26611Y-14958D01*
X-26649Y-15050D01*
X-26650Y-15149D01*
X-26650Y-15599D01*
X-26612Y-15691D01*
X-26551Y-15751D01*
X-26542Y-15795D01*
X-26480Y-15890D01*
X-26325Y-16045D01*
X-26325Y-16045D01*
X-26230Y-16107D01*
X-26120Y-16130D01*
X-26120Y-16129D01*
X-26120Y-16130D01*
X-24520Y-16130D01*
X-23901Y-16748D01*
X-23928Y-16739D01*
X-24129Y-16750D01*
X-24261Y-16805D01*
X-24283Y-16895D01*
X-24000Y-17179D01*
X-23994Y-17173D01*
X-23923Y-17244D01*
X-23929Y-17250D01*
X-23645Y-17533D01*
X-23555Y-17511D01*
X-23502Y-17359D01*
X-23500Y-17364D01*
X-23500Y-17746D01*
X-23533Y-17712D01*
X-23625Y-17674D01*
X-23733Y-17674D01*
X-23716Y-17604D01*
X-24000Y-17320D01*
X-24070Y-17391D01*
X-24070Y-17250D01*
X-24354Y-16966D01*
X-24444Y-16988D01*
X-24510Y-17178D01*
X-24499Y-17379D01*
X-24444Y-17511D01*
X-24354Y-17533D01*
X-24070Y-17250D01*
X-24070Y-17391D01*
X-24283Y-17604D01*
X-24266Y-17674D01*
X-24374Y-17674D01*
X-24466Y-17712D01*
X-24536Y-17783D01*
X-24574Y-17875D01*
X-24575Y-17974D01*
X-24575Y-18137D01*
X-24512Y-18200D01*
X-24050Y-18200D01*
X-24050Y-18192D01*
X-23950Y-18192D01*
X-23950Y-18200D01*
X-23942Y-18200D01*
X-23942Y-18300D01*
X-23950Y-18300D01*
X-23950Y-18307D01*
X-24050Y-18307D01*
X-24050Y-18300D01*
X-24512Y-18300D01*
X-24575Y-18362D01*
X-24575Y-18525D01*
X-24574Y-18624D01*
X-24543Y-18700D01*
X-25323Y-18700D01*
X-25025Y-18402D01*
X-24850Y-17979D01*
X-24849Y-17522D01*
X-25024Y-17099D01*
X-25347Y-16775D01*
X-25770Y-16600D01*
X-26227Y-16599D01*
X-26650Y-16774D01*
X-26974Y-17097D01*
X-27149Y-17520D01*
X-27150Y-17977D01*
X-26975Y-18400D01*
X-26676Y-18700D01*
X-29329Y-18700D01*
X-31300Y-16729D01*
X-31300Y-11400D01*
X-23300Y-11400D01*
X-23300Y-10287D01*
X-23255Y-10355D01*
X-22235Y-11375D01*
X-22140Y-11437D01*
X-22030Y-11460D01*
X-20354Y-11460D01*
X-20233Y-11509D01*
X-20086Y-11510D01*
X-19950Y-11453D01*
X-19926Y-11430D01*
X-19580Y-11430D01*
X-19565Y-11445D01*
X-19565Y-13425D01*
X-19542Y-13535D01*
X-19480Y-13630D01*
X-17791Y-15318D01*
X-17791Y-15318D01*
G37*
G54D28*
X-17791Y-15318D02*
X-17794Y-15326D01*
X-17794Y-15360D01*
X-18539Y-15360D01*
X-18539Y-14796D01*
X-18596Y-14660D01*
X-18700Y-14556D01*
X-18836Y-14500D01*
X-18983Y-14499D01*
X-19119Y-14556D01*
X-19223Y-14660D01*
X-19279Y-14796D01*
X-19280Y-14943D01*
X-19223Y-15079D01*
X-19119Y-15183D01*
X-18983Y-15239D01*
X-18836Y-15240D01*
X-18700Y-15183D01*
X-18596Y-15079D01*
X-18540Y-14943D01*
X-18539Y-14796D01*
X-18539Y-15360D01*
X-20154Y-15360D01*
X-20154Y-14801D01*
X-20211Y-14665D01*
X-20315Y-14561D01*
X-20451Y-14505D01*
X-20598Y-14504D01*
X-20734Y-14561D01*
X-20838Y-14665D01*
X-20894Y-14801D01*
X-20895Y-14948D01*
X-20838Y-15084D01*
X-20734Y-15188D01*
X-20598Y-15244D01*
X-20451Y-15245D01*
X-20315Y-15188D01*
X-20211Y-15084D01*
X-20155Y-14948D01*
X-20154Y-14801D01*
X-20154Y-15360D01*
X-20796Y-15360D01*
X-20820Y-15336D01*
X-20956Y-15280D01*
X-21103Y-15279D01*
X-21239Y-15336D01*
X-21263Y-15360D01*
X-22772Y-15360D01*
X-22731Y-15342D01*
X-22597Y-15209D01*
X-22525Y-15034D01*
X-22524Y-14845D01*
X-22597Y-14671D01*
X-22730Y-14537D01*
X-22905Y-14465D01*
X-23064Y-14464D01*
X-23119Y-14410D01*
X-22951Y-14242D01*
X-22951Y-14242D01*
X-22951Y-14242D01*
X-22901Y-14166D01*
X-22890Y-14162D01*
X-22820Y-14091D01*
X-22788Y-14014D01*
X-22788Y-14137D01*
X-22725Y-14200D01*
X-22663Y-14200D01*
X-22571Y-14162D01*
X-22501Y-14091D01*
X-22463Y-13999D01*
X-22462Y-13900D01*
X-22463Y-13812D01*
X-22525Y-13750D01*
X-22781Y-13750D01*
X-22781Y-13650D01*
X-22525Y-13650D01*
X-22463Y-13587D01*
X-22462Y-13499D01*
X-22463Y-13400D01*
X-22501Y-13308D01*
X-22571Y-13237D01*
X-22663Y-13199D01*
X-22688Y-13199D01*
X-22596Y-13162D01*
X-22526Y-13091D01*
X-22488Y-12999D01*
X-22487Y-12900D01*
X-22488Y-12812D01*
X-22550Y-12750D01*
X-22806Y-12750D01*
X-22806Y-12650D01*
X-22550Y-12650D01*
X-22488Y-12587D01*
X-22487Y-12499D01*
X-22488Y-12400D01*
X-22526Y-12308D01*
X-22596Y-12237D01*
X-22688Y-12199D01*
X-22750Y-12200D01*
X-22813Y-12262D01*
X-22813Y-12385D01*
X-22844Y-12308D01*
X-22915Y-12238D01*
X-22953Y-12222D01*
X-22975Y-12200D01*
X-23037Y-12199D01*
X-23037Y-12200D01*
X-23106Y-12199D01*
X-23356Y-12199D01*
X-23448Y-12237D01*
X-23518Y-12308D01*
X-23556Y-12400D01*
X-23557Y-12499D01*
X-23557Y-12664D01*
X-23725Y-12832D01*
X-23787Y-12927D01*
X-23810Y-13038D01*
X-23810Y-13639D01*
X-23960Y-13790D01*
X-24025Y-13790D01*
X-24018Y-13787D01*
X-23948Y-13716D01*
X-23910Y-13624D01*
X-23909Y-13525D01*
X-23910Y-13437D01*
X-23972Y-13375D01*
X-24164Y-13375D01*
X-24164Y-13275D01*
X-23972Y-13275D01*
X-23910Y-13212D01*
X-23909Y-13124D01*
X-23910Y-13025D01*
X-23948Y-12933D01*
X-24018Y-12862D01*
X-24110Y-12824D01*
X-24137Y-12825D01*
X-24189Y-12877D01*
X-24189Y-12825D01*
X-24205Y-12825D01*
X-24205Y-12785D01*
X-24227Y-12674D01*
X-24289Y-12579D01*
X-24524Y-12344D01*
X-24619Y-12282D01*
X-24730Y-12260D01*
X-25320Y-12260D01*
X-25396Y-12275D01*
X-25408Y-12263D01*
X-25500Y-12225D01*
X-25599Y-12224D01*
X-25849Y-12224D01*
X-25941Y-12262D01*
X-25974Y-12296D01*
X-26008Y-12263D01*
X-26100Y-12225D01*
X-26199Y-12224D01*
X-26449Y-12224D01*
X-26541Y-12262D01*
X-26611Y-12333D01*
X-26649Y-12425D01*
X-26650Y-12524D01*
X-26650Y-12974D01*
X-26612Y-13066D01*
X-26566Y-13112D01*
X-26611Y-13158D01*
X-26649Y-13250D01*
X-26650Y-13349D01*
X-26650Y-13799D01*
X-26612Y-13891D01*
X-26565Y-13938D01*
X-26565Y-14011D01*
X-26611Y-14058D01*
X-26649Y-14150D01*
X-26650Y-14249D01*
X-26650Y-14699D01*
X-26612Y-14791D01*
X-26565Y-14838D01*
X-26565Y-14911D01*
X-26611Y-14958D01*
X-26649Y-15050D01*
X-26650Y-15149D01*
X-26650Y-15599D01*
X-26612Y-15691D01*
X-26551Y-15751D01*
X-26542Y-15795D01*
X-26480Y-15890D01*
X-26325Y-16045D01*
X-26325Y-16045D01*
X-26230Y-16107D01*
X-26120Y-16130D01*
X-26120Y-16129D01*
X-26120Y-16130D01*
X-24520Y-16130D01*
X-23901Y-16748D01*
X-23928Y-16739D01*
X-24129Y-16750D01*
X-24261Y-16805D01*
X-24283Y-16895D01*
X-24000Y-17179D01*
X-23994Y-17173D01*
X-23923Y-17244D01*
X-23929Y-17250D01*
X-23645Y-17533D01*
X-23555Y-17511D01*
X-23502Y-17359D01*
X-23500Y-17364D01*
X-23500Y-17746D01*
X-23533Y-17712D01*
X-23625Y-17674D01*
X-23733Y-17674D01*
X-23716Y-17604D01*
X-24000Y-17320D01*
X-24070Y-17391D01*
X-24070Y-17250D01*
X-24354Y-16966D01*
X-24444Y-16988D01*
X-24510Y-17178D01*
X-24499Y-17379D01*
X-24444Y-17511D01*
X-24354Y-17533D01*
X-24070Y-17250D01*
X-24070Y-17391D01*
X-24283Y-17604D01*
X-24266Y-17674D01*
X-24374Y-17674D01*
X-24466Y-17712D01*
X-24536Y-17783D01*
X-24574Y-17875D01*
X-24575Y-17974D01*
X-24575Y-18137D01*
X-24512Y-18200D01*
X-24050Y-18200D01*
X-24050Y-18192D01*
X-23950Y-18192D01*
X-23950Y-18200D01*
X-23942Y-18200D01*
X-23942Y-18300D01*
X-23950Y-18300D01*
X-23950Y-18307D01*
X-24050Y-18307D01*
X-24050Y-18300D01*
X-24512Y-18300D01*
X-24575Y-18362D01*
X-24575Y-18525D01*
X-24574Y-18624D01*
X-24543Y-18700D01*
X-25323Y-18700D01*
X-25025Y-18402D01*
X-24850Y-17979D01*
X-24849Y-17522D01*
X-25024Y-17099D01*
X-25347Y-16775D01*
X-25770Y-16600D01*
X-26227Y-16599D01*
X-26650Y-16774D01*
X-26974Y-17097D01*
X-27149Y-17520D01*
X-27150Y-17977D01*
X-26975Y-18400D01*
X-26676Y-18700D01*
X-29329Y-18700D01*
X-31300Y-16729D01*
X-31300Y-11400D01*
X-23300Y-11400D01*
X-23300Y-10287D01*
X-23255Y-10355D01*
X-22235Y-11375D01*
X-22140Y-11437D01*
X-22030Y-11460D01*
X-20354Y-11460D01*
X-20233Y-11509D01*
X-20086Y-11510D01*
X-19950Y-11453D01*
X-19926Y-11430D01*
X-19580Y-11430D01*
X-19565Y-11445D01*
X-19565Y-13425D01*
X-19542Y-13535D01*
X-19480Y-13630D01*
X-17791Y-15318D01*
G54D10*
G36*
X-16880Y-6569D02*
X-17285Y-6974D01*
X-17290Y-6979D01*
X-17323Y-6979D01*
X-17459Y-7036D01*
X-17478Y-7054D01*
X-17442Y-7000D01*
X-17420Y-6890D01*
X-17420Y-6843D01*
X-17396Y-6819D01*
X-17340Y-6683D01*
X-17339Y-6536D01*
X-17396Y-6400D01*
X-17500Y-6296D01*
X-17636Y-6240D01*
X-17783Y-6239D01*
X-17919Y-6296D01*
X-18023Y-6400D01*
X-18079Y-6536D01*
X-18080Y-6683D01*
X-18031Y-6801D01*
X-18310Y-7079D01*
X-18343Y-7079D01*
X-18479Y-7136D01*
X-18583Y-7240D01*
X-18639Y-7376D01*
X-18640Y-7523D01*
X-18583Y-7659D01*
X-18479Y-7763D01*
X-18343Y-7819D01*
X-18196Y-7820D01*
X-18060Y-7763D01*
X-17956Y-7659D01*
X-17900Y-7523D01*
X-17900Y-7490D01*
X-17573Y-7163D01*
X-17619Y-7276D01*
X-17620Y-7423D01*
X-17563Y-7559D01*
X-17459Y-7663D01*
X-17434Y-7674D01*
X-17455Y-7694D01*
X-17517Y-7789D01*
X-17540Y-7900D01*
X-17540Y-8550D01*
X-17538Y-8555D01*
X-17589Y-8576D01*
X-17670Y-8656D01*
X-17670Y-8511D01*
X-17650Y-8463D01*
X-17649Y-8316D01*
X-17706Y-8180D01*
X-17810Y-8076D01*
X-17946Y-8020D01*
X-18093Y-8019D01*
X-18229Y-8076D01*
X-18333Y-8180D01*
X-18389Y-8316D01*
X-18390Y-8463D01*
X-18333Y-8599D01*
X-18250Y-8683D01*
X-18250Y-10584D01*
X-18279Y-10596D01*
X-18383Y-10700D01*
X-18429Y-10810D01*
X-19634Y-9604D01*
X-19729Y-9542D01*
X-19840Y-9520D01*
X-19966Y-9520D01*
X-19990Y-9496D01*
X-20126Y-9440D01*
X-20273Y-9439D01*
X-20409Y-9496D01*
X-20443Y-9530D01*
X-21880Y-9530D01*
X-21880Y-4113D01*
X-21869Y-4123D01*
X-21733Y-4179D01*
X-21586Y-4180D01*
X-21450Y-4123D01*
X-21346Y-4019D01*
X-21290Y-3883D01*
X-21289Y-3736D01*
X-21346Y-3600D01*
X-21450Y-3496D01*
X-21586Y-3440D01*
X-21733Y-3439D01*
X-21869Y-3496D01*
X-21880Y-3506D01*
X-21880Y-1819D01*
X-21770Y-1773D01*
X-21666Y-1669D01*
X-21610Y-1533D01*
X-21609Y-1386D01*
X-21666Y-1250D01*
X-21770Y-1146D01*
X-21906Y-1090D01*
X-22053Y-1089D01*
X-22170Y-1138D01*
X-22170Y-910D01*
X-21874Y-615D01*
X-21483Y-615D01*
X-21468Y-629D01*
X-21484Y-636D01*
X-21588Y-740D01*
X-21644Y-876D01*
X-21645Y-1023D01*
X-21588Y-1159D01*
X-21484Y-1263D01*
X-21348Y-1319D01*
X-21201Y-1320D01*
X-21065Y-1263D01*
X-21041Y-1240D01*
X-19290Y-1240D01*
X-19190Y-1340D01*
X-19190Y-3639D01*
X-19240Y-3689D01*
X-19273Y-3689D01*
X-19409Y-3746D01*
X-19513Y-3850D01*
X-19569Y-3986D01*
X-19570Y-4133D01*
X-19513Y-4269D01*
X-19409Y-4373D01*
X-19273Y-4429D01*
X-19126Y-4430D01*
X-18990Y-4373D01*
X-18886Y-4269D01*
X-18830Y-4133D01*
X-18830Y-4100D01*
X-18694Y-3965D01*
X-18694Y-3965D01*
X-18694Y-3965D01*
X-18632Y-3870D01*
X-18610Y-3760D01*
X-18610Y-3760D01*
X-18610Y-3760D01*
X-18610Y-2813D01*
X-18547Y-2875D01*
X-18411Y-2932D01*
X-18377Y-2932D01*
X-17579Y-3730D01*
X-17701Y-3680D01*
X-17734Y-3680D01*
X-17761Y-3615D01*
X-17865Y-3511D01*
X-18001Y-3455D01*
X-18148Y-3454D01*
X-18284Y-3511D01*
X-18388Y-3615D01*
X-18444Y-3751D01*
X-18445Y-3898D01*
X-18390Y-4029D01*
X-19205Y-4843D01*
X-19267Y-4937D01*
X-19290Y-5048D01*
X-19290Y-6004D01*
X-19790Y-6504D01*
X-19823Y-6504D01*
X-19959Y-6561D01*
X-19999Y-6601D01*
X-19999Y-6556D01*
X-20056Y-6420D01*
X-20160Y-6316D01*
X-20296Y-6260D01*
X-20443Y-6259D01*
X-20579Y-6316D01*
X-20683Y-6420D01*
X-20729Y-6531D01*
X-20729Y-5426D01*
X-20786Y-5290D01*
X-20890Y-5186D01*
X-21026Y-5130D01*
X-21173Y-5129D01*
X-21309Y-5186D01*
X-21413Y-5290D01*
X-21469Y-5426D01*
X-21470Y-5573D01*
X-21413Y-5709D01*
X-21309Y-5813D01*
X-21173Y-5869D01*
X-21026Y-5870D01*
X-20890Y-5813D01*
X-20786Y-5709D01*
X-20730Y-5573D01*
X-20729Y-5426D01*
X-20729Y-6531D01*
X-20739Y-6556D01*
X-20740Y-6703D01*
X-20683Y-6839D01*
X-20579Y-6943D01*
X-20443Y-6999D01*
X-20296Y-7000D01*
X-20160Y-6943D01*
X-20120Y-6903D01*
X-20120Y-6948D01*
X-20063Y-7084D01*
X-19959Y-7188D01*
X-19823Y-7244D01*
X-19676Y-7245D01*
X-19540Y-7188D01*
X-19436Y-7084D01*
X-19380Y-6948D01*
X-19380Y-6915D01*
X-18794Y-6330D01*
X-18794Y-6330D01*
X-18794Y-6330D01*
X-18771Y-6294D01*
X-18771Y-6294D01*
X-18626Y-6295D01*
X-18490Y-6238D01*
X-18386Y-6134D01*
X-18333Y-6006D01*
X-18290Y-5988D01*
X-18186Y-5884D01*
X-18130Y-5748D01*
X-18129Y-5601D01*
X-18186Y-5465D01*
X-18290Y-5361D01*
X-18374Y-5326D01*
X-18374Y-5286D01*
X-17743Y-4654D01*
X-17734Y-4663D01*
X-17598Y-4719D01*
X-17451Y-4720D01*
X-17315Y-4663D01*
X-17211Y-4559D01*
X-17155Y-4423D01*
X-17154Y-4276D01*
X-17211Y-4140D01*
X-17315Y-4036D01*
X-17404Y-3999D01*
X-17404Y-3976D01*
X-17455Y-3854D01*
X-16880Y-4430D01*
X-16880Y-6569D01*
X-16880Y-6569D01*
G37*
G54D28*
X-16880Y-6569D02*
X-17285Y-6974D01*
X-17290Y-6979D01*
X-17323Y-6979D01*
X-17459Y-7036D01*
X-17478Y-7054D01*
X-17442Y-7000D01*
X-17420Y-6890D01*
X-17420Y-6843D01*
X-17396Y-6819D01*
X-17340Y-6683D01*
X-17339Y-6536D01*
X-17396Y-6400D01*
X-17500Y-6296D01*
X-17636Y-6240D01*
X-17783Y-6239D01*
X-17919Y-6296D01*
X-18023Y-6400D01*
X-18079Y-6536D01*
X-18080Y-6683D01*
X-18031Y-6801D01*
X-18310Y-7079D01*
X-18343Y-7079D01*
X-18479Y-7136D01*
X-18583Y-7240D01*
X-18639Y-7376D01*
X-18640Y-7523D01*
X-18583Y-7659D01*
X-18479Y-7763D01*
X-18343Y-7819D01*
X-18196Y-7820D01*
X-18060Y-7763D01*
X-17956Y-7659D01*
X-17900Y-7523D01*
X-17900Y-7490D01*
X-17573Y-7163D01*
X-17619Y-7276D01*
X-17620Y-7423D01*
X-17563Y-7559D01*
X-17459Y-7663D01*
X-17434Y-7674D01*
X-17455Y-7694D01*
X-17517Y-7789D01*
X-17540Y-7900D01*
X-17540Y-8550D01*
X-17538Y-8555D01*
X-17589Y-8576D01*
X-17670Y-8656D01*
X-17670Y-8511D01*
X-17650Y-8463D01*
X-17649Y-8316D01*
X-17706Y-8180D01*
X-17810Y-8076D01*
X-17946Y-8020D01*
X-18093Y-8019D01*
X-18229Y-8076D01*
X-18333Y-8180D01*
X-18389Y-8316D01*
X-18390Y-8463D01*
X-18333Y-8599D01*
X-18250Y-8683D01*
X-18250Y-10584D01*
X-18279Y-10596D01*
X-18383Y-10700D01*
X-18429Y-10810D01*
X-19634Y-9604D01*
X-19729Y-9542D01*
X-19840Y-9520D01*
X-19966Y-9520D01*
X-19990Y-9496D01*
X-20126Y-9440D01*
X-20273Y-9439D01*
X-20409Y-9496D01*
X-20443Y-9530D01*
X-21880Y-9530D01*
X-21880Y-4113D01*
X-21869Y-4123D01*
X-21733Y-4179D01*
X-21586Y-4180D01*
X-21450Y-4123D01*
X-21346Y-4019D01*
X-21290Y-3883D01*
X-21289Y-3736D01*
X-21346Y-3600D01*
X-21450Y-3496D01*
X-21586Y-3440D01*
X-21733Y-3439D01*
X-21869Y-3496D01*
X-21880Y-3506D01*
X-21880Y-1819D01*
X-21770Y-1773D01*
X-21666Y-1669D01*
X-21610Y-1533D01*
X-21609Y-1386D01*
X-21666Y-1250D01*
X-21770Y-1146D01*
X-21906Y-1090D01*
X-22053Y-1089D01*
X-22170Y-1138D01*
X-22170Y-910D01*
X-21874Y-615D01*
X-21483Y-615D01*
X-21468Y-629D01*
X-21484Y-636D01*
X-21588Y-740D01*
X-21644Y-876D01*
X-21645Y-1023D01*
X-21588Y-1159D01*
X-21484Y-1263D01*
X-21348Y-1319D01*
X-21201Y-1320D01*
X-21065Y-1263D01*
X-21041Y-1240D01*
X-19290Y-1240D01*
X-19190Y-1340D01*
X-19190Y-3639D01*
X-19240Y-3689D01*
X-19273Y-3689D01*
X-19409Y-3746D01*
X-19513Y-3850D01*
X-19569Y-3986D01*
X-19570Y-4133D01*
X-19513Y-4269D01*
X-19409Y-4373D01*
X-19273Y-4429D01*
X-19126Y-4430D01*
X-18990Y-4373D01*
X-18886Y-4269D01*
X-18830Y-4133D01*
X-18830Y-4100D01*
X-18694Y-3965D01*
X-18694Y-3965D01*
X-18694Y-3965D01*
X-18632Y-3870D01*
X-18610Y-3760D01*
X-18610Y-3760D01*
X-18610Y-3760D01*
X-18610Y-2813D01*
X-18547Y-2875D01*
X-18411Y-2932D01*
X-18377Y-2932D01*
X-17579Y-3730D01*
X-17701Y-3680D01*
X-17734Y-3680D01*
X-17761Y-3615D01*
X-17865Y-3511D01*
X-18001Y-3455D01*
X-18148Y-3454D01*
X-18284Y-3511D01*
X-18388Y-3615D01*
X-18444Y-3751D01*
X-18445Y-3898D01*
X-18390Y-4029D01*
X-19205Y-4843D01*
X-19267Y-4937D01*
X-19290Y-5048D01*
X-19290Y-6004D01*
X-19790Y-6504D01*
X-19823Y-6504D01*
X-19959Y-6561D01*
X-19999Y-6601D01*
X-19999Y-6556D01*
X-20056Y-6420D01*
X-20160Y-6316D01*
X-20296Y-6260D01*
X-20443Y-6259D01*
X-20579Y-6316D01*
X-20683Y-6420D01*
X-20729Y-6531D01*
X-20729Y-5426D01*
X-20786Y-5290D01*
X-20890Y-5186D01*
X-21026Y-5130D01*
X-21173Y-5129D01*
X-21309Y-5186D01*
X-21413Y-5290D01*
X-21469Y-5426D01*
X-21470Y-5573D01*
X-21413Y-5709D01*
X-21309Y-5813D01*
X-21173Y-5869D01*
X-21026Y-5870D01*
X-20890Y-5813D01*
X-20786Y-5709D01*
X-20730Y-5573D01*
X-20729Y-5426D01*
X-20729Y-6531D01*
X-20739Y-6556D01*
X-20740Y-6703D01*
X-20683Y-6839D01*
X-20579Y-6943D01*
X-20443Y-6999D01*
X-20296Y-7000D01*
X-20160Y-6943D01*
X-20120Y-6903D01*
X-20120Y-6948D01*
X-20063Y-7084D01*
X-19959Y-7188D01*
X-19823Y-7244D01*
X-19676Y-7245D01*
X-19540Y-7188D01*
X-19436Y-7084D01*
X-19380Y-6948D01*
X-19380Y-6915D01*
X-18794Y-6330D01*
X-18794Y-6330D01*
X-18794Y-6330D01*
X-18771Y-6294D01*
X-18771Y-6294D01*
X-18626Y-6295D01*
X-18490Y-6238D01*
X-18386Y-6134D01*
X-18333Y-6006D01*
X-18290Y-5988D01*
X-18186Y-5884D01*
X-18130Y-5748D01*
X-18129Y-5601D01*
X-18186Y-5465D01*
X-18290Y-5361D01*
X-18374Y-5326D01*
X-18374Y-5286D01*
X-17743Y-4654D01*
X-17734Y-4663D01*
X-17598Y-4719D01*
X-17451Y-4720D01*
X-17315Y-4663D01*
X-17211Y-4559D01*
X-17155Y-4423D01*
X-17154Y-4276D01*
X-17211Y-4140D01*
X-17315Y-4036D01*
X-17404Y-3999D01*
X-17404Y-3976D01*
X-17455Y-3854D01*
X-16880Y-4430D01*
X-16880Y-6569D01*
G54D10*
G36*
X-15080Y-15476D02*
X-15084Y-15480D01*
X-15469Y-15094D01*
X-15564Y-15032D01*
X-15675Y-15010D01*
X-16254Y-15010D01*
X-16884Y-14380D01*
X-15743Y-14380D01*
X-15699Y-14423D01*
X-15563Y-14479D01*
X-15416Y-14480D01*
X-15280Y-14423D01*
X-15176Y-14319D01*
X-15170Y-14304D01*
X-15163Y-14319D01*
X-15080Y-14403D01*
X-15080Y-15476D01*
X-15080Y-15476D01*
G37*
G54D28*
X-15080Y-15476D02*
X-15084Y-15480D01*
X-15469Y-15094D01*
X-15564Y-15032D01*
X-15675Y-15010D01*
X-16254Y-15010D01*
X-16884Y-14380D01*
X-15743Y-14380D01*
X-15699Y-14423D01*
X-15563Y-14479D01*
X-15416Y-14480D01*
X-15280Y-14423D01*
X-15176Y-14319D01*
X-15170Y-14304D01*
X-15163Y-14319D01*
X-15080Y-14403D01*
X-15080Y-15476D01*
G54D10*
G36*
X-14815Y-13740D02*
X-14923Y-13739D01*
X-15059Y-13796D01*
X-15163Y-13900D01*
X-15169Y-13915D01*
X-15176Y-13900D01*
X-15280Y-13796D01*
X-15416Y-13740D01*
X-15563Y-13739D01*
X-15699Y-13796D01*
X-15703Y-13800D01*
X-16779Y-13800D01*
X-16779Y-12026D01*
X-16836Y-11890D01*
X-16940Y-11786D01*
X-17076Y-11730D01*
X-17223Y-11729D01*
X-17359Y-11786D01*
X-17463Y-11890D01*
X-17519Y-12026D01*
X-17520Y-12173D01*
X-17463Y-12309D01*
X-17359Y-12413D01*
X-17223Y-12469D01*
X-17076Y-12470D01*
X-16940Y-12413D01*
X-16836Y-12309D01*
X-16780Y-12173D01*
X-16779Y-12026D01*
X-16779Y-13800D01*
X-17089Y-13800D01*
X-18040Y-12849D01*
X-18040Y-11764D01*
X-17941Y-11765D01*
X-17805Y-11708D01*
X-17701Y-11604D01*
X-17645Y-11468D01*
X-17645Y-11435D01*
X-17305Y-11095D01*
X-17305Y-11120D01*
X-17242Y-11120D01*
X-17305Y-11182D01*
X-17305Y-11270D01*
X-17304Y-11369D01*
X-17266Y-11461D01*
X-17196Y-11532D01*
X-17104Y-11570D01*
X-17042Y-11570D01*
X-16980Y-11507D01*
X-16980Y-11381D01*
X-16947Y-11461D01*
X-16876Y-11531D01*
X-16840Y-11546D01*
X-16817Y-11570D01*
X-16780Y-11570D01*
X-16695Y-11655D01*
X-16600Y-11717D01*
X-16490Y-11740D01*
X-15773Y-11740D01*
X-15723Y-11859D01*
X-15619Y-11963D01*
X-15483Y-12019D01*
X-15336Y-12020D01*
X-15200Y-11963D01*
X-15096Y-11859D01*
X-15082Y-11827D01*
X-14990Y-11920D01*
X-14990Y-12050D01*
X-14967Y-12160D01*
X-14905Y-12255D01*
X-14890Y-12270D01*
X-14890Y-13550D01*
X-14867Y-13660D01*
X-14815Y-13740D01*
X-14815Y-13740D01*
G37*
G54D28*
X-14815Y-13740D02*
X-14923Y-13739D01*
X-15059Y-13796D01*
X-15163Y-13900D01*
X-15169Y-13915D01*
X-15176Y-13900D01*
X-15280Y-13796D01*
X-15416Y-13740D01*
X-15563Y-13739D01*
X-15699Y-13796D01*
X-15703Y-13800D01*
X-16779Y-13800D01*
X-16779Y-12026D01*
X-16836Y-11890D01*
X-16940Y-11786D01*
X-17076Y-11730D01*
X-17223Y-11729D01*
X-17359Y-11786D01*
X-17463Y-11890D01*
X-17519Y-12026D01*
X-17520Y-12173D01*
X-17463Y-12309D01*
X-17359Y-12413D01*
X-17223Y-12469D01*
X-17076Y-12470D01*
X-16940Y-12413D01*
X-16836Y-12309D01*
X-16780Y-12173D01*
X-16779Y-12026D01*
X-16779Y-13800D01*
X-17089Y-13800D01*
X-18040Y-12849D01*
X-18040Y-11764D01*
X-17941Y-11765D01*
X-17805Y-11708D01*
X-17701Y-11604D01*
X-17645Y-11468D01*
X-17645Y-11435D01*
X-17305Y-11095D01*
X-17305Y-11120D01*
X-17242Y-11120D01*
X-17305Y-11182D01*
X-17305Y-11270D01*
X-17304Y-11369D01*
X-17266Y-11461D01*
X-17196Y-11532D01*
X-17104Y-11570D01*
X-17042Y-11570D01*
X-16980Y-11507D01*
X-16980Y-11381D01*
X-16947Y-11461D01*
X-16876Y-11531D01*
X-16840Y-11546D01*
X-16817Y-11570D01*
X-16780Y-11570D01*
X-16695Y-11655D01*
X-16600Y-11717D01*
X-16490Y-11740D01*
X-15773Y-11740D01*
X-15723Y-11859D01*
X-15619Y-11963D01*
X-15483Y-12019D01*
X-15336Y-12020D01*
X-15200Y-11963D01*
X-15096Y-11859D01*
X-15082Y-11827D01*
X-14990Y-11920D01*
X-14990Y-12050D01*
X-14967Y-12160D01*
X-14905Y-12255D01*
X-14890Y-12270D01*
X-14890Y-13550D01*
X-14867Y-13660D01*
X-14815Y-13740D01*
G54D10*
G36*
X-12547Y-5665D02*
X-12555Y-5669D01*
X-13358Y-6473D01*
X-13362Y-6463D01*
X-13433Y-6393D01*
X-13525Y-6355D01*
X-13624Y-6354D01*
X-14124Y-6354D01*
X-14213Y-6391D01*
X-14301Y-6355D01*
X-14448Y-6354D01*
X-14584Y-6411D01*
X-14688Y-6515D01*
X-14744Y-6651D01*
X-14745Y-6798D01*
X-14688Y-6934D01*
X-14584Y-7038D01*
X-14557Y-7049D01*
X-14584Y-7061D01*
X-14688Y-7165D01*
X-14744Y-7301D01*
X-14745Y-7448D01*
X-14688Y-7584D01*
X-14584Y-7688D01*
X-14448Y-7744D01*
X-14301Y-7745D01*
X-14212Y-7708D01*
X-14124Y-7744D01*
X-14025Y-7745D01*
X-13650Y-7745D01*
X-13694Y-7851D01*
X-13694Y-7885D01*
X-16104Y-7885D01*
X-16279Y-7709D01*
X-16279Y-7676D01*
X-16336Y-7540D01*
X-16440Y-7436D01*
X-16576Y-7380D01*
X-16723Y-7379D01*
X-16859Y-7436D01*
X-16902Y-7479D01*
X-16903Y-7479D01*
X-16880Y-7423D01*
X-16880Y-7390D01*
X-16874Y-7385D01*
X-16384Y-6895D01*
X-16322Y-6800D01*
X-16300Y-6690D01*
X-16300Y-5769D01*
X-16250Y-5770D01*
X-16250Y-5813D01*
X-16193Y-5949D01*
X-16089Y-6053D01*
X-15953Y-6109D01*
X-15806Y-6110D01*
X-15670Y-6053D01*
X-15566Y-5949D01*
X-15510Y-5813D01*
X-15510Y-5780D01*
X-15394Y-5665D01*
X-13925Y-5665D01*
X-13970Y-5710D01*
X-15025Y-5710D01*
X-15135Y-5732D01*
X-15230Y-5794D01*
X-15840Y-6404D01*
X-15873Y-6404D01*
X-16009Y-6461D01*
X-16113Y-6565D01*
X-16169Y-6701D01*
X-16170Y-6848D01*
X-16113Y-6984D01*
X-16009Y-7088D01*
X-15873Y-7144D01*
X-15726Y-7145D01*
X-15590Y-7088D01*
X-15486Y-6984D01*
X-15430Y-6848D01*
X-15430Y-6815D01*
X-14904Y-6290D01*
X-13850Y-6290D01*
X-13739Y-6267D01*
X-13644Y-6205D01*
X-13484Y-6045D01*
X-13451Y-6045D01*
X-13315Y-5988D01*
X-13211Y-5884D01*
X-13155Y-5748D01*
X-13154Y-5665D01*
X-12547Y-5665D01*
X-12547Y-5665D01*
G37*
G54D28*
X-12547Y-5665D02*
X-12555Y-5669D01*
X-13358Y-6473D01*
X-13362Y-6463D01*
X-13433Y-6393D01*
X-13525Y-6355D01*
X-13624Y-6354D01*
X-14124Y-6354D01*
X-14213Y-6391D01*
X-14301Y-6355D01*
X-14448Y-6354D01*
X-14584Y-6411D01*
X-14688Y-6515D01*
X-14744Y-6651D01*
X-14745Y-6798D01*
X-14688Y-6934D01*
X-14584Y-7038D01*
X-14557Y-7049D01*
X-14584Y-7061D01*
X-14688Y-7165D01*
X-14744Y-7301D01*
X-14745Y-7448D01*
X-14688Y-7584D01*
X-14584Y-7688D01*
X-14448Y-7744D01*
X-14301Y-7745D01*
X-14212Y-7708D01*
X-14124Y-7744D01*
X-14025Y-7745D01*
X-13650Y-7745D01*
X-13694Y-7851D01*
X-13694Y-7885D01*
X-16104Y-7885D01*
X-16279Y-7709D01*
X-16279Y-7676D01*
X-16336Y-7540D01*
X-16440Y-7436D01*
X-16576Y-7380D01*
X-16723Y-7379D01*
X-16859Y-7436D01*
X-16902Y-7479D01*
X-16903Y-7479D01*
X-16880Y-7423D01*
X-16880Y-7390D01*
X-16874Y-7385D01*
X-16384Y-6895D01*
X-16322Y-6800D01*
X-16300Y-6690D01*
X-16300Y-5769D01*
X-16250Y-5770D01*
X-16250Y-5813D01*
X-16193Y-5949D01*
X-16089Y-6053D01*
X-15953Y-6109D01*
X-15806Y-6110D01*
X-15670Y-6053D01*
X-15566Y-5949D01*
X-15510Y-5813D01*
X-15510Y-5780D01*
X-15394Y-5665D01*
X-13925Y-5665D01*
X-13970Y-5710D01*
X-15025Y-5710D01*
X-15135Y-5732D01*
X-15230Y-5794D01*
X-15840Y-6404D01*
X-15873Y-6404D01*
X-16009Y-6461D01*
X-16113Y-6565D01*
X-16169Y-6701D01*
X-16170Y-6848D01*
X-16113Y-6984D01*
X-16009Y-7088D01*
X-15873Y-7144D01*
X-15726Y-7145D01*
X-15590Y-7088D01*
X-15486Y-6984D01*
X-15430Y-6848D01*
X-15430Y-6815D01*
X-14904Y-6290D01*
X-13850Y-6290D01*
X-13739Y-6267D01*
X-13644Y-6205D01*
X-13484Y-6045D01*
X-13451Y-6045D01*
X-13315Y-5988D01*
X-13211Y-5884D01*
X-13155Y-5748D01*
X-13154Y-5665D01*
X-12547Y-5665D01*
G54D10*
G36*
X-12365Y-10900D02*
X-13170Y-10900D01*
X-13500Y-11229D01*
X-13500Y-11700D01*
X-13900Y-11700D01*
X-13900Y-11829D01*
X-13973Y-11903D01*
X-14040Y-11836D01*
X-14176Y-11780D01*
X-14323Y-11779D01*
X-14410Y-11815D01*
X-14410Y-11800D01*
X-14410Y-11799D01*
X-14410Y-11799D01*
X-14413Y-11781D01*
X-14432Y-11689D01*
X-14494Y-11594D01*
X-14494Y-11594D01*
X-15333Y-10756D01*
X-15316Y-10739D01*
X-15260Y-10603D01*
X-15259Y-10456D01*
X-15316Y-10320D01*
X-15420Y-10216D01*
X-15556Y-10160D01*
X-15620Y-10160D01*
X-15620Y-9816D01*
X-15563Y-9839D01*
X-15416Y-9840D01*
X-15280Y-9783D01*
X-15176Y-9679D01*
X-15120Y-9543D01*
X-15119Y-9396D01*
X-15176Y-9260D01*
X-15246Y-9189D01*
X-15116Y-9190D01*
X-14980Y-9133D01*
X-14961Y-9115D01*
X-14935Y-9155D01*
X-14695Y-9395D01*
X-14695Y-9395D01*
X-14600Y-9457D01*
X-14490Y-9480D01*
X-14090Y-9480D01*
X-13979Y-9457D01*
X-13952Y-9440D01*
X-13896Y-9440D01*
X-13760Y-9383D01*
X-13656Y-9279D01*
X-13600Y-9143D01*
X-13599Y-8996D01*
X-13656Y-8860D01*
X-13760Y-8756D01*
X-13896Y-8700D01*
X-14043Y-8699D01*
X-14179Y-8756D01*
X-14283Y-8860D01*
X-14300Y-8900D01*
X-14369Y-8900D01*
X-14440Y-8829D01*
X-14440Y-8783D01*
X-14416Y-8759D01*
X-14360Y-8623D01*
X-14359Y-8476D01*
X-14364Y-8465D01*
X-13120Y-8465D01*
X-12365Y-9220D01*
X-12365Y-10900D01*
X-12365Y-10900D01*
G37*
G54D28*
X-12365Y-10900D02*
X-13170Y-10900D01*
X-13500Y-11229D01*
X-13500Y-11700D01*
X-13900Y-11700D01*
X-13900Y-11829D01*
X-13973Y-11903D01*
X-14040Y-11836D01*
X-14176Y-11780D01*
X-14323Y-11779D01*
X-14410Y-11815D01*
X-14410Y-11800D01*
X-14410Y-11799D01*
X-14410Y-11799D01*
X-14413Y-11781D01*
X-14432Y-11689D01*
X-14494Y-11594D01*
X-14494Y-11594D01*
X-15333Y-10756D01*
X-15316Y-10739D01*
X-15260Y-10603D01*
X-15259Y-10456D01*
X-15316Y-10320D01*
X-15420Y-10216D01*
X-15556Y-10160D01*
X-15620Y-10160D01*
X-15620Y-9816D01*
X-15563Y-9839D01*
X-15416Y-9840D01*
X-15280Y-9783D01*
X-15176Y-9679D01*
X-15120Y-9543D01*
X-15119Y-9396D01*
X-15176Y-9260D01*
X-15246Y-9189D01*
X-15116Y-9190D01*
X-14980Y-9133D01*
X-14961Y-9115D01*
X-14935Y-9155D01*
X-14695Y-9395D01*
X-14695Y-9395D01*
X-14600Y-9457D01*
X-14490Y-9480D01*
X-14090Y-9480D01*
X-13979Y-9457D01*
X-13952Y-9440D01*
X-13896Y-9440D01*
X-13760Y-9383D01*
X-13656Y-9279D01*
X-13600Y-9143D01*
X-13599Y-8996D01*
X-13656Y-8860D01*
X-13760Y-8756D01*
X-13896Y-8700D01*
X-14043Y-8699D01*
X-14179Y-8756D01*
X-14283Y-8860D01*
X-14300Y-8900D01*
X-14369Y-8900D01*
X-14440Y-8829D01*
X-14440Y-8783D01*
X-14416Y-8759D01*
X-14360Y-8623D01*
X-14359Y-8476D01*
X-14364Y-8465D01*
X-13120Y-8465D01*
X-12365Y-9220D01*
X-12365Y-10900D01*
G54D10*
G36*
X-11637Y-147D02*
X-12000Y-147D01*
X-12092Y-185D01*
X-12162Y-256D01*
X-12200Y-348D01*
X-12200Y-447D01*
X-12200Y-1805D01*
X-12177Y-1862D01*
X-12294Y-1744D01*
X-12299Y-1742D01*
X-12299Y-1706D01*
X-12299Y-348D01*
X-12337Y-256D01*
X-12407Y-186D01*
X-12499Y-148D01*
X-12598Y-147D01*
X-13000Y-147D01*
X-13092Y-185D01*
X-13162Y-256D01*
X-13200Y-348D01*
X-13200Y-360D01*
X-13404Y-360D01*
X-13404Y-350D01*
X-13442Y-258D01*
X-13513Y-188D01*
X-13605Y-150D01*
X-13704Y-149D01*
X-13954Y-149D01*
X-13954Y-150D01*
X-14024Y-149D01*
X-14245Y-149D01*
X-14274Y-149D01*
X-14274Y-149D01*
X-14307Y-150D01*
X-14330Y-173D01*
X-14366Y-187D01*
X-14436Y-258D01*
X-14470Y-338D01*
X-14470Y-212D01*
X-14532Y-150D01*
X-14594Y-149D01*
X-14686Y-187D01*
X-14756Y-258D01*
X-14794Y-350D01*
X-14795Y-449D01*
X-14795Y-537D01*
X-14732Y-600D01*
X-14475Y-600D01*
X-14475Y-700D01*
X-14732Y-700D01*
X-14795Y-762D01*
X-14795Y-850D01*
X-14794Y-949D01*
X-14756Y-1041D01*
X-14686Y-1112D01*
X-14594Y-1150D01*
X-14532Y-1150D01*
X-14470Y-1087D01*
X-14470Y-961D01*
X-14437Y-1041D01*
X-14390Y-1088D01*
X-14390Y-1850D01*
X-14367Y-1960D01*
X-14305Y-2055D01*
X-14205Y-2155D01*
X-14110Y-2217D01*
X-14000Y-2240D01*
X-13995Y-2240D01*
X-14047Y-2319D01*
X-14070Y-2430D01*
X-14070Y-3874D01*
X-14274Y-3874D01*
X-14274Y-3875D01*
X-14344Y-3874D01*
X-14594Y-3874D01*
X-14686Y-3912D01*
X-14756Y-3983D01*
X-14794Y-4075D01*
X-14795Y-4174D01*
X-14795Y-4674D01*
X-14770Y-4732D01*
X-14819Y-4851D01*
X-14820Y-4998D01*
X-14784Y-5085D01*
X-15515Y-5085D01*
X-15558Y-5093D01*
X-15544Y-5080D01*
X-15544Y-5080D01*
X-15544Y-5080D01*
X-15482Y-4985D01*
X-15460Y-4875D01*
X-15460Y-4875D01*
X-15460Y-4875D01*
X-15460Y-4408D01*
X-15436Y-4384D01*
X-15380Y-4248D01*
X-15379Y-4101D01*
X-15436Y-3965D01*
X-15540Y-3861D01*
X-15676Y-3805D01*
X-15823Y-3804D01*
X-15959Y-3861D01*
X-16063Y-3965D01*
X-16119Y-4101D01*
X-16120Y-4248D01*
X-16063Y-4384D01*
X-16040Y-4408D01*
X-16040Y-4754D01*
X-16300Y-5014D01*
X-16300Y-4310D01*
X-16322Y-4199D01*
X-16384Y-4104D01*
X-17569Y-2919D01*
X-17476Y-2920D01*
X-17340Y-2863D01*
X-17236Y-2759D01*
X-17180Y-2623D01*
X-17179Y-2476D01*
X-17236Y-2340D01*
X-17340Y-2236D01*
X-17476Y-2180D01*
X-17623Y-2179D01*
X-17759Y-2236D01*
X-17863Y-2340D01*
X-17919Y-2476D01*
X-17920Y-2569D01*
X-17967Y-2522D01*
X-17967Y-2489D01*
X-18023Y-2353D01*
X-18127Y-2249D01*
X-18263Y-2192D01*
X-18410Y-2192D01*
X-18546Y-2248D01*
X-18610Y-2311D01*
X-18610Y-1220D01*
X-18632Y-1109D01*
X-18694Y-1014D01*
X-18694Y-1014D01*
X-18964Y-744D01*
X-19059Y-682D01*
X-19170Y-660D01*
X-21041Y-660D01*
X-21056Y-645D01*
X-21040Y-638D01*
X-20936Y-534D01*
X-20880Y-398D01*
X-20879Y-251D01*
X-20936Y-115D01*
X-21040Y-11D01*
X-21176Y44D01*
X-21323Y45D01*
X-21459Y-11D01*
X-21483Y-35D01*
X-21995Y-35D01*
X-22105Y-57D01*
X-22200Y-119D01*
X-22200Y-119D01*
X-22665Y-584D01*
X-22727Y-679D01*
X-22750Y-790D01*
X-22750Y-1966D01*
X-22840Y-1876D01*
X-22976Y-1820D01*
X-23123Y-1819D01*
X-23259Y-1876D01*
X-23363Y-1980D01*
X-23419Y-2116D01*
X-23420Y-2263D01*
X-23363Y-2399D01*
X-23340Y-2423D01*
X-23340Y-3300D01*
X-23554Y-3300D01*
X-23554Y-1084D01*
X-23554Y-735D01*
X-23592Y-643D01*
X-23626Y-610D01*
X-23593Y-576D01*
X-23555Y-484D01*
X-23554Y-385D01*
X-23554Y-135D01*
X-23592Y-43D01*
X-23663Y26D01*
X-23755Y64D01*
X-23854Y65D01*
X-24304Y65D01*
X-24396Y27D01*
X-24443Y-20D01*
X-24688Y-20D01*
X-24810Y102D01*
X-24985Y174D01*
X-25174Y175D01*
X-25348Y102D01*
X-25482Y-30D01*
X-25554Y-205D01*
X-25555Y-394D01*
X-25482Y-568D01*
X-25349Y-702D01*
X-25174Y-774D01*
X-24985Y-775D01*
X-24811Y-702D01*
X-24708Y-600D01*
X-24443Y-600D01*
X-24433Y-610D01*
X-24467Y-643D01*
X-24505Y-735D01*
X-24505Y-797D01*
X-24442Y-860D01*
X-24080Y-860D01*
X-24080Y-852D01*
X-23980Y-852D01*
X-23980Y-860D01*
X-23617Y-860D01*
X-23555Y-797D01*
X-23554Y-735D01*
X-23554Y-1084D01*
X-23555Y-1022D01*
X-23617Y-960D01*
X-23980Y-960D01*
X-23980Y-1222D01*
X-23917Y-1285D01*
X-23854Y-1285D01*
X-23755Y-1284D01*
X-23663Y-1246D01*
X-23592Y-1176D01*
X-23554Y-1084D01*
X-23554Y-3300D01*
X-24080Y-3300D01*
X-24080Y-1222D01*
X-24080Y-960D01*
X-24442Y-960D01*
X-24505Y-1022D01*
X-24505Y-1084D01*
X-24467Y-1176D01*
X-24396Y-1246D01*
X-24304Y-1284D01*
X-24205Y-1285D01*
X-24142Y-1285D01*
X-24080Y-1222D01*
X-24080Y-3300D01*
X-26600Y-3300D01*
X-26600Y2200D01*
X-18052Y2200D01*
X-18164Y2153D01*
X-18188Y2130D01*
X-18260Y2130D01*
X-18260Y2130D01*
X-18370Y2107D01*
X-18465Y2045D01*
X-18465Y2045D01*
X-18815Y1695D01*
X-18877Y1600D01*
X-18900Y1490D01*
X-18900Y1325D01*
X-19030Y1195D01*
X-19029Y1273D01*
X-19086Y1409D01*
X-19190Y1513D01*
X-19326Y1569D01*
X-19473Y1570D01*
X-19606Y1515D01*
X-23691Y1515D01*
X-23715Y1538D01*
X-23851Y1594D01*
X-23998Y1595D01*
X-24134Y1538D01*
X-24238Y1434D01*
X-24294Y1298D01*
X-24295Y1151D01*
X-24238Y1015D01*
X-24173Y950D01*
X-24639Y950D01*
X-24709Y1019D01*
X-24655Y1151D01*
X-24654Y1298D01*
X-24711Y1434D01*
X-24815Y1538D01*
X-24951Y1594D01*
X-25098Y1595D01*
X-25234Y1538D01*
X-25338Y1434D01*
X-25394Y1298D01*
X-25395Y1151D01*
X-25338Y1015D01*
X-25315Y991D01*
X-25315Y925D01*
X-25292Y814D01*
X-25230Y719D01*
X-24965Y454D01*
X-24870Y392D01*
X-24760Y370D01*
X-19155Y370D01*
X-19044Y392D01*
X-18949Y454D01*
X-18404Y999D01*
X-18404Y999D01*
X-18404Y999D01*
X-18342Y1094D01*
X-18320Y1204D01*
X-18320Y1205D01*
X-18320Y1205D01*
X-18320Y1369D01*
X-18163Y1526D01*
X-18028Y1470D01*
X-17881Y1469D01*
X-17745Y1526D01*
X-17641Y1630D01*
X-17585Y1766D01*
X-17584Y1913D01*
X-17641Y2049D01*
X-17745Y2153D01*
X-17857Y2200D01*
X-15141Y2200D01*
X-15191Y2179D01*
X-15334Y2037D01*
X-15411Y1851D01*
X-15411Y1649D01*
X-15334Y1463D01*
X-15192Y1321D01*
X-15020Y1249D01*
X-15191Y1179D01*
X-15334Y1037D01*
X-15411Y851D01*
X-15411Y649D01*
X-15334Y463D01*
X-15192Y321D01*
X-15006Y244D01*
X-14805Y243D01*
X-14619Y320D01*
X-14476Y463D01*
X-14413Y615D01*
X-14350Y463D01*
X-14208Y321D01*
X-14022Y244D01*
X-13821Y243D01*
X-13635Y320D01*
X-13492Y463D01*
X-13429Y615D01*
X-13366Y463D01*
X-13224Y321D01*
X-13038Y244D01*
X-12836Y243D01*
X-12650Y320D01*
X-12508Y463D01*
X-12436Y634D01*
X-12366Y463D01*
X-12224Y321D01*
X-12038Y244D01*
X-11836Y243D01*
X-11740Y283D01*
X-11740Y75D01*
X-11717Y-35D01*
X-11655Y-130D01*
X-11637Y-147D01*
X-11637Y-147D01*
G37*
G54D28*
X-11637Y-147D02*
X-12000Y-147D01*
X-12092Y-185D01*
X-12162Y-256D01*
X-12200Y-348D01*
X-12200Y-447D01*
X-12200Y-1805D01*
X-12177Y-1862D01*
X-12294Y-1744D01*
X-12299Y-1742D01*
X-12299Y-1706D01*
X-12299Y-348D01*
X-12337Y-256D01*
X-12407Y-186D01*
X-12499Y-148D01*
X-12598Y-147D01*
X-13000Y-147D01*
X-13092Y-185D01*
X-13162Y-256D01*
X-13200Y-348D01*
X-13200Y-360D01*
X-13404Y-360D01*
X-13404Y-350D01*
X-13442Y-258D01*
X-13513Y-188D01*
X-13605Y-150D01*
X-13704Y-149D01*
X-13954Y-149D01*
X-13954Y-150D01*
X-14024Y-149D01*
X-14245Y-149D01*
X-14274Y-149D01*
X-14274Y-149D01*
X-14307Y-150D01*
X-14330Y-173D01*
X-14366Y-187D01*
X-14436Y-258D01*
X-14470Y-338D01*
X-14470Y-212D01*
X-14532Y-150D01*
X-14594Y-149D01*
X-14686Y-187D01*
X-14756Y-258D01*
X-14794Y-350D01*
X-14795Y-449D01*
X-14795Y-537D01*
X-14732Y-600D01*
X-14475Y-600D01*
X-14475Y-700D01*
X-14732Y-700D01*
X-14795Y-762D01*
X-14795Y-850D01*
X-14794Y-949D01*
X-14756Y-1041D01*
X-14686Y-1112D01*
X-14594Y-1150D01*
X-14532Y-1150D01*
X-14470Y-1087D01*
X-14470Y-961D01*
X-14437Y-1041D01*
X-14390Y-1088D01*
X-14390Y-1850D01*
X-14367Y-1960D01*
X-14305Y-2055D01*
X-14205Y-2155D01*
X-14110Y-2217D01*
X-14000Y-2240D01*
X-13995Y-2240D01*
X-14047Y-2319D01*
X-14070Y-2430D01*
X-14070Y-3874D01*
X-14274Y-3874D01*
X-14274Y-3875D01*
X-14344Y-3874D01*
X-14594Y-3874D01*
X-14686Y-3912D01*
X-14756Y-3983D01*
X-14794Y-4075D01*
X-14795Y-4174D01*
X-14795Y-4674D01*
X-14770Y-4732D01*
X-14819Y-4851D01*
X-14820Y-4998D01*
X-14784Y-5085D01*
X-15515Y-5085D01*
X-15558Y-5093D01*
X-15544Y-5080D01*
X-15544Y-5080D01*
X-15544Y-5080D01*
X-15482Y-4985D01*
X-15460Y-4875D01*
X-15460Y-4875D01*
X-15460Y-4875D01*
X-15460Y-4408D01*
X-15436Y-4384D01*
X-15380Y-4248D01*
X-15379Y-4101D01*
X-15436Y-3965D01*
X-15540Y-3861D01*
X-15676Y-3805D01*
X-15823Y-3804D01*
X-15959Y-3861D01*
X-16063Y-3965D01*
X-16119Y-4101D01*
X-16120Y-4248D01*
X-16063Y-4384D01*
X-16040Y-4408D01*
X-16040Y-4754D01*
X-16300Y-5014D01*
X-16300Y-4310D01*
X-16322Y-4199D01*
X-16384Y-4104D01*
X-17569Y-2919D01*
X-17476Y-2920D01*
X-17340Y-2863D01*
X-17236Y-2759D01*
X-17180Y-2623D01*
X-17179Y-2476D01*
X-17236Y-2340D01*
X-17340Y-2236D01*
X-17476Y-2180D01*
X-17623Y-2179D01*
X-17759Y-2236D01*
X-17863Y-2340D01*
X-17919Y-2476D01*
X-17920Y-2569D01*
X-17967Y-2522D01*
X-17967Y-2489D01*
X-18023Y-2353D01*
X-18127Y-2249D01*
X-18263Y-2192D01*
X-18410Y-2192D01*
X-18546Y-2248D01*
X-18610Y-2311D01*
X-18610Y-1220D01*
X-18632Y-1109D01*
X-18694Y-1014D01*
X-18694Y-1014D01*
X-18964Y-744D01*
X-19059Y-682D01*
X-19170Y-660D01*
X-21041Y-660D01*
X-21056Y-645D01*
X-21040Y-638D01*
X-20936Y-534D01*
X-20880Y-398D01*
X-20879Y-251D01*
X-20936Y-115D01*
X-21040Y-11D01*
X-21176Y44D01*
X-21323Y45D01*
X-21459Y-11D01*
X-21483Y-35D01*
X-21995Y-35D01*
X-22105Y-57D01*
X-22200Y-119D01*
X-22200Y-119D01*
X-22665Y-584D01*
X-22727Y-679D01*
X-22750Y-790D01*
X-22750Y-1966D01*
X-22840Y-1876D01*
X-22976Y-1820D01*
X-23123Y-1819D01*
X-23259Y-1876D01*
X-23363Y-1980D01*
X-23419Y-2116D01*
X-23420Y-2263D01*
X-23363Y-2399D01*
X-23340Y-2423D01*
X-23340Y-3300D01*
X-23554Y-3300D01*
X-23554Y-1084D01*
X-23554Y-735D01*
X-23592Y-643D01*
X-23626Y-610D01*
X-23593Y-576D01*
X-23555Y-484D01*
X-23554Y-385D01*
X-23554Y-135D01*
X-23592Y-43D01*
X-23663Y26D01*
X-23755Y64D01*
X-23854Y65D01*
X-24304Y65D01*
X-24396Y27D01*
X-24443Y-20D01*
X-24688Y-20D01*
X-24810Y102D01*
X-24985Y174D01*
X-25174Y175D01*
X-25348Y102D01*
X-25482Y-30D01*
X-25554Y-205D01*
X-25555Y-394D01*
X-25482Y-568D01*
X-25349Y-702D01*
X-25174Y-774D01*
X-24985Y-775D01*
X-24811Y-702D01*
X-24708Y-600D01*
X-24443Y-600D01*
X-24433Y-610D01*
X-24467Y-643D01*
X-24505Y-735D01*
X-24505Y-797D01*
X-24442Y-860D01*
X-24080Y-860D01*
X-24080Y-852D01*
X-23980Y-852D01*
X-23980Y-860D01*
X-23617Y-860D01*
X-23555Y-797D01*
X-23554Y-735D01*
X-23554Y-1084D01*
X-23555Y-1022D01*
X-23617Y-960D01*
X-23980Y-960D01*
X-23980Y-1222D01*
X-23917Y-1285D01*
X-23854Y-1285D01*
X-23755Y-1284D01*
X-23663Y-1246D01*
X-23592Y-1176D01*
X-23554Y-1084D01*
X-23554Y-3300D01*
X-24080Y-3300D01*
X-24080Y-1222D01*
X-24080Y-960D01*
X-24442Y-960D01*
X-24505Y-1022D01*
X-24505Y-1084D01*
X-24467Y-1176D01*
X-24396Y-1246D01*
X-24304Y-1284D01*
X-24205Y-1285D01*
X-24142Y-1285D01*
X-24080Y-1222D01*
X-24080Y-3300D01*
X-26600Y-3300D01*
X-26600Y2200D01*
X-18052Y2200D01*
X-18164Y2153D01*
X-18188Y2130D01*
X-18260Y2130D01*
X-18260Y2130D01*
X-18370Y2107D01*
X-18465Y2045D01*
X-18465Y2045D01*
X-18815Y1695D01*
X-18877Y1600D01*
X-18900Y1490D01*
X-18900Y1325D01*
X-19030Y1195D01*
X-19029Y1273D01*
X-19086Y1409D01*
X-19190Y1513D01*
X-19326Y1569D01*
X-19473Y1570D01*
X-19606Y1515D01*
X-23691Y1515D01*
X-23715Y1538D01*
X-23851Y1594D01*
X-23998Y1595D01*
X-24134Y1538D01*
X-24238Y1434D01*
X-24294Y1298D01*
X-24295Y1151D01*
X-24238Y1015D01*
X-24173Y950D01*
X-24639Y950D01*
X-24709Y1019D01*
X-24655Y1151D01*
X-24654Y1298D01*
X-24711Y1434D01*
X-24815Y1538D01*
X-24951Y1594D01*
X-25098Y1595D01*
X-25234Y1538D01*
X-25338Y1434D01*
X-25394Y1298D01*
X-25395Y1151D01*
X-25338Y1015D01*
X-25315Y991D01*
X-25315Y925D01*
X-25292Y814D01*
X-25230Y719D01*
X-24965Y454D01*
X-24870Y392D01*
X-24760Y370D01*
X-19155Y370D01*
X-19044Y392D01*
X-18949Y454D01*
X-18404Y999D01*
X-18404Y999D01*
X-18404Y999D01*
X-18342Y1094D01*
X-18320Y1204D01*
X-18320Y1205D01*
X-18320Y1205D01*
X-18320Y1369D01*
X-18163Y1526D01*
X-18028Y1470D01*
X-17881Y1469D01*
X-17745Y1526D01*
X-17641Y1630D01*
X-17585Y1766D01*
X-17584Y1913D01*
X-17641Y2049D01*
X-17745Y2153D01*
X-17857Y2200D01*
X-15141Y2200D01*
X-15191Y2179D01*
X-15334Y2037D01*
X-15411Y1851D01*
X-15411Y1649D01*
X-15334Y1463D01*
X-15192Y1321D01*
X-15020Y1249D01*
X-15191Y1179D01*
X-15334Y1037D01*
X-15411Y851D01*
X-15411Y649D01*
X-15334Y463D01*
X-15192Y321D01*
X-15006Y244D01*
X-14805Y243D01*
X-14619Y320D01*
X-14476Y463D01*
X-14413Y615D01*
X-14350Y463D01*
X-14208Y321D01*
X-14022Y244D01*
X-13821Y243D01*
X-13635Y320D01*
X-13492Y463D01*
X-13429Y615D01*
X-13366Y463D01*
X-13224Y321D01*
X-13038Y244D01*
X-12836Y243D01*
X-12650Y320D01*
X-12508Y463D01*
X-12436Y634D01*
X-12366Y463D01*
X-12224Y321D01*
X-12038Y244D01*
X-11836Y243D01*
X-11740Y283D01*
X-11740Y75D01*
X-11717Y-35D01*
X-11655Y-130D01*
X-11637Y-147D01*
G54D10*
G36*
X-11390Y-2349D02*
X-11407Y-2331D01*
X-11499Y-2293D01*
X-11598Y-2293D01*
X-11985Y-2293D01*
X-11985Y-2175D01*
X-12007Y-2064D01*
X-12062Y-1980D01*
X-12000Y-2006D01*
X-11901Y-2006D01*
X-11499Y-2006D01*
X-11407Y-1968D01*
X-11390Y-1950D01*
X-11390Y-2349D01*
X-11390Y-2349D01*
G37*
G54D28*
X-11390Y-2349D02*
X-11407Y-2331D01*
X-11499Y-2293D01*
X-11598Y-2293D01*
X-11985Y-2293D01*
X-11985Y-2175D01*
X-12007Y-2064D01*
X-12062Y-1980D01*
X-12000Y-2006D01*
X-11901Y-2006D01*
X-11499Y-2006D01*
X-11407Y-1968D01*
X-11390Y-1950D01*
X-11390Y-2349D01*
G54D10*
G36*
X-10235Y-9565D02*
X-11040Y-10369D01*
X-11039Y-10236D01*
X-11096Y-10100D01*
X-11200Y-9996D01*
X-11336Y-9940D01*
X-11385Y-9940D01*
X-11385Y-9565D01*
X-10235Y-9565D01*
X-10235Y-9565D01*
G37*
G54D28*
X-10235Y-9565D02*
X-11040Y-10369D01*
X-11039Y-10236D01*
X-11096Y-10100D01*
X-11200Y-9996D01*
X-11336Y-9940D01*
X-11385Y-9940D01*
X-11385Y-9565D01*
X-10235Y-9565D01*
G54D10*
G36*
X-8620Y-6957D02*
X-8626Y-6955D01*
X-8773Y-6954D01*
X-8775Y-6955D01*
X-8775Y-6929D01*
X-8837Y-6929D01*
X-8783Y-6876D01*
X-8690Y-6937D01*
X-8620Y-6952D01*
X-8620Y-6957D01*
X-8620Y-6957D01*
G37*
G54D28*
X-8620Y-6957D02*
X-8626Y-6955D01*
X-8773Y-6954D01*
X-8775Y-6955D01*
X-8775Y-6929D01*
X-8837Y-6929D01*
X-8783Y-6876D01*
X-8690Y-6937D01*
X-8620Y-6952D01*
X-8620Y-6957D01*
G54D10*
G36*
X-793Y-11883D02*
X-1220Y-12310D01*
X-1454Y-12310D01*
X-1474Y-12261D01*
X-1545Y-12191D01*
X-1637Y-12153D01*
X-1736Y-12152D01*
X-2012Y-12152D01*
X-2012Y-12153D01*
X-2036Y-12153D01*
X-2077Y-12112D01*
X-2011Y-12046D01*
X-1913Y-12047D01*
X-1637Y-12047D01*
X-1545Y-12009D01*
X-1475Y-11938D01*
X-1454Y-11890D01*
X-825Y-11890D01*
X-793Y-11883D01*
X-793Y-11883D01*
G37*
G54D28*
X-793Y-11883D02*
X-1220Y-12310D01*
X-1454Y-12310D01*
X-1474Y-12261D01*
X-1545Y-12191D01*
X-1637Y-12153D01*
X-1736Y-12152D01*
X-2012Y-12152D01*
X-2012Y-12153D01*
X-2036Y-12153D01*
X-2077Y-12112D01*
X-2011Y-12046D01*
X-1913Y-12047D01*
X-1637Y-12047D01*
X-1545Y-12009D01*
X-1475Y-11938D01*
X-1454Y-11890D01*
X-825Y-11890D01*
X-793Y-11883D01*
G54D10*
G36*
X-472Y-5540D02*
X-480Y-5544D01*
X-480Y-5544D01*
X-1370Y-6435D01*
X-2025Y-6435D01*
X-2135Y-6457D01*
X-2230Y-6519D01*
X-2855Y-7144D01*
X-2917Y-7239D01*
X-2940Y-7350D01*
X-2940Y-7651D01*
X-2999Y-7711D01*
X-3020Y-7759D01*
X-3020Y-6420D01*
X-3045Y-6293D01*
X-3045Y-6293D01*
X-3116Y-6186D01*
X-3626Y-5676D01*
X-3733Y-5605D01*
X-3860Y-5580D01*
X-4213Y-5580D01*
X-4290Y-5503D01*
X-4290Y-4906D01*
X-4282Y-4898D01*
X-4273Y-4919D01*
X-4169Y-5023D01*
X-4033Y-5079D01*
X-3886Y-5080D01*
X-3765Y-5030D01*
X-3723Y-5030D01*
X-3716Y-5036D01*
X-3624Y-5074D01*
X-3525Y-5075D01*
X-3075Y-5075D01*
X-3038Y-5059D01*
X-3038Y-5146D01*
X-3000Y-5238D01*
X-2929Y-5308D01*
X-2838Y-5346D01*
X-2730Y-5455D01*
X-2730Y-5455D01*
X-2635Y-5517D01*
X-2525Y-5540D01*
X-2525Y-5539D01*
X-2525Y-5540D01*
X-472Y-5540D01*
X-472Y-5540D01*
G37*
G54D28*
X-472Y-5540D02*
X-480Y-5544D01*
X-480Y-5544D01*
X-1370Y-6435D01*
X-2025Y-6435D01*
X-2135Y-6457D01*
X-2230Y-6519D01*
X-2855Y-7144D01*
X-2917Y-7239D01*
X-2940Y-7350D01*
X-2940Y-7651D01*
X-2999Y-7711D01*
X-3020Y-7759D01*
X-3020Y-6420D01*
X-3045Y-6293D01*
X-3045Y-6293D01*
X-3116Y-6186D01*
X-3626Y-5676D01*
X-3733Y-5605D01*
X-3860Y-5580D01*
X-4213Y-5580D01*
X-4290Y-5503D01*
X-4290Y-4906D01*
X-4282Y-4898D01*
X-4273Y-4919D01*
X-4169Y-5023D01*
X-4033Y-5079D01*
X-3886Y-5080D01*
X-3765Y-5030D01*
X-3723Y-5030D01*
X-3716Y-5036D01*
X-3624Y-5074D01*
X-3525Y-5075D01*
X-3075Y-5075D01*
X-3038Y-5059D01*
X-3038Y-5146D01*
X-3000Y-5238D01*
X-2929Y-5308D01*
X-2838Y-5346D01*
X-2730Y-5455D01*
X-2730Y-5455D01*
X-2635Y-5517D01*
X-2525Y-5540D01*
X-2525Y-5539D01*
X-2525Y-5540D01*
X-472Y-5540D01*
G54D10*
G36*
X83Y-7602D02*
X81Y-7608D01*
X-1070Y-8760D01*
X-1529Y-8760D01*
X-1549Y-8711D01*
X-1620Y-8641D01*
X-1712Y-8603D01*
X-1811Y-8602D01*
X-2047Y-8602D01*
X-2066Y-8575D01*
X-2014Y-8497D01*
X-1988Y-8497D01*
X-1712Y-8497D01*
X-1620Y-8459D01*
X-1550Y-8388D01*
X-1529Y-8340D01*
X-775Y-8340D01*
X-664Y-8317D01*
X-569Y-8255D01*
X83Y-7602D01*
X83Y-7602D01*
G37*
G54D28*
X83Y-7602D02*
X81Y-7608D01*
X-1070Y-8760D01*
X-1529Y-8760D01*
X-1549Y-8711D01*
X-1620Y-8641D01*
X-1712Y-8603D01*
X-1811Y-8602D01*
X-2047Y-8602D01*
X-2066Y-8575D01*
X-2014Y-8497D01*
X-1988Y-8497D01*
X-1712Y-8497D01*
X-1620Y-8459D01*
X-1550Y-8388D01*
X-1529Y-8340D01*
X-775Y-8340D01*
X-664Y-8317D01*
X-569Y-8255D01*
X83Y-7602D01*
G54D10*
G36*
X306Y-2299D02*
X214Y-2361D01*
X148Y-2460D01*
X-325Y-2460D01*
X-325Y-2460D01*
X-435Y-2482D01*
X-530Y-2544D01*
X-530Y-2544D01*
X-1548Y-3563D01*
X-1549Y-3561D01*
X-1620Y-3491D01*
X-1712Y-3453D01*
X-1811Y-3452D01*
X-2087Y-3452D01*
X-2087Y-3453D01*
X-2186Y-3452D01*
X-2242Y-3452D01*
X-829Y-2040D01*
X66Y-2040D01*
X66Y-2099D01*
X104Y-2191D01*
X175Y-2261D01*
X267Y-2299D01*
X306Y-2299D01*
X306Y-2299D01*
G37*
G54D28*
X306Y-2299D02*
X214Y-2361D01*
X148Y-2460D01*
X-325Y-2460D01*
X-325Y-2460D01*
X-435Y-2482D01*
X-530Y-2544D01*
X-530Y-2544D01*
X-1548Y-3563D01*
X-1549Y-3561D01*
X-1620Y-3491D01*
X-1712Y-3453D01*
X-1811Y-3452D01*
X-2087Y-3452D01*
X-2087Y-3453D01*
X-2186Y-3452D01*
X-2242Y-3452D01*
X-829Y-2040D01*
X66Y-2040D01*
X66Y-2099D01*
X104Y-2191D01*
X175Y-2261D01*
X267Y-2299D01*
X306Y-2299D01*
G54D10*
G36*
X380Y-3250D02*
X214Y-3361D01*
X140Y-3471D01*
X89Y-3482D01*
X-5Y-3544D01*
X-5Y-3544D01*
X-1070Y-4610D01*
X-1529Y-4610D01*
X-1549Y-4561D01*
X-1620Y-4491D01*
X-1712Y-4453D01*
X-1811Y-4452D01*
X-2031Y-4452D01*
X-2069Y-4394D01*
X-2077Y-4387D01*
X-2069Y-4380D01*
X-2069Y-4380D01*
X-2069Y-4380D01*
X-2047Y-4346D01*
X-2047Y-4346D01*
X-1988Y-4347D01*
X-1712Y-4347D01*
X-1620Y-4309D01*
X-1550Y-4238D01*
X-1529Y-4190D01*
X-1475Y-4190D01*
X-1364Y-4167D01*
X-1269Y-4105D01*
X-204Y-3040D01*
X148Y-3040D01*
X214Y-3138D01*
X380Y-3250D01*
X380Y-3250D01*
G37*
G54D28*
X380Y-3250D02*
X214Y-3361D01*
X140Y-3471D01*
X89Y-3482D01*
X-5Y-3544D01*
X-5Y-3544D01*
X-1070Y-4610D01*
X-1529Y-4610D01*
X-1549Y-4561D01*
X-1620Y-4491D01*
X-1712Y-4453D01*
X-1811Y-4452D01*
X-2031Y-4452D01*
X-2069Y-4394D01*
X-2077Y-4387D01*
X-2069Y-4380D01*
X-2069Y-4380D01*
X-2069Y-4380D01*
X-2047Y-4346D01*
X-2047Y-4346D01*
X-1988Y-4347D01*
X-1712Y-4347D01*
X-1620Y-4309D01*
X-1550Y-4238D01*
X-1529Y-4190D01*
X-1475Y-4190D01*
X-1364Y-4167D01*
X-1269Y-4105D01*
X-204Y-3040D01*
X148Y-3040D01*
X214Y-3138D01*
X380Y-3250D01*
G54D10*
G36*
X380Y-6250D02*
X214Y-6361D01*
X95Y-6539D01*
X53Y-6750D01*
X63Y-6801D01*
X-895Y-7760D01*
X-1529Y-7760D01*
X-1549Y-7711D01*
X-1620Y-7641D01*
X-1712Y-7603D01*
X-1811Y-7602D01*
X-2087Y-7602D01*
X-2087Y-7603D01*
X-2186Y-7602D01*
X-2360Y-7602D01*
X-2360Y-7470D01*
X-1904Y-7015D01*
X-1250Y-7015D01*
X-1139Y-6992D01*
X-1044Y-6930D01*
X-154Y-6040D01*
X148Y-6040D01*
X214Y-6138D01*
X380Y-6250D01*
X380Y-6250D01*
G37*
G54D28*
X380Y-6250D02*
X214Y-6361D01*
X95Y-6539D01*
X53Y-6750D01*
X63Y-6801D01*
X-895Y-7760D01*
X-1529Y-7760D01*
X-1549Y-7711D01*
X-1620Y-7641D01*
X-1712Y-7603D01*
X-1811Y-7602D01*
X-2087Y-7602D01*
X-2087Y-7603D01*
X-2186Y-7602D01*
X-2360Y-7602D01*
X-2360Y-7470D01*
X-1904Y-7015D01*
X-1250Y-7015D01*
X-1139Y-6992D01*
X-1044Y-6930D01*
X-154Y-6040D01*
X148Y-6040D01*
X214Y-6138D01*
X380Y-6250D01*
G54D10*
G36*
X380Y-8250D02*
X214Y-8361D01*
X129Y-8488D01*
X44Y-8544D01*
X44Y-8544D01*
X-1145Y-9735D01*
X-2254Y-9735D01*
X-2360Y-9629D01*
X-2360Y-9497D01*
X-2087Y-9497D01*
X-2087Y-9496D01*
X-1988Y-9497D01*
X-1712Y-9497D01*
X-1620Y-9459D01*
X-1550Y-9388D01*
X-1529Y-9340D01*
X-950Y-9340D01*
X-839Y-9317D01*
X-744Y-9255D01*
X308Y-8201D01*
X380Y-8250D01*
X380Y-8250D01*
G37*
G54D28*
X380Y-8250D02*
X214Y-8361D01*
X129Y-8488D01*
X44Y-8544D01*
X44Y-8544D01*
X-1145Y-9735D01*
X-2254Y-9735D01*
X-2360Y-9629D01*
X-2360Y-9497D01*
X-2087Y-9497D01*
X-2087Y-9496D01*
X-1988Y-9497D01*
X-1712Y-9497D01*
X-1620Y-9459D01*
X-1550Y-9388D01*
X-1529Y-9340D01*
X-950Y-9340D01*
X-839Y-9317D01*
X-744Y-9255D01*
X308Y-8201D01*
X380Y-8250D01*
G54D10*
G36*
X380Y-9250D02*
X214Y-9361D01*
X95Y-9539D01*
X53Y-9750D01*
X59Y-9780D01*
X-1020Y-10860D01*
X-2400Y-10860D01*
X-2400Y-10860D01*
X-2510Y-10882D01*
X-2605Y-10944D01*
X-2605Y-10944D01*
X-2605Y-10944D01*
X-2780Y-11119D01*
X-2817Y-11175D01*
X-2854Y-11190D01*
X-2924Y-11261D01*
X-2962Y-11353D01*
X-2963Y-11452D01*
X-2963Y-11486D01*
X-2995Y-11472D01*
X-2995Y-10775D01*
X-3020Y-10648D01*
X-3020Y-10648D01*
X-3091Y-10541D01*
X-3416Y-10216D01*
X-3523Y-10145D01*
X-3650Y-10120D01*
X-4113Y-10120D01*
X-4120Y-10113D01*
X-4120Y-9260D01*
X-4046Y-9260D01*
X-3913Y-9205D01*
X-3723Y-9205D01*
X-3716Y-9211D01*
X-3624Y-9249D01*
X-3525Y-9250D01*
X-3075Y-9250D01*
X-3038Y-9234D01*
X-3038Y-9296D01*
X-3000Y-9388D01*
X-2940Y-9448D01*
X-2940Y-9750D01*
X-2917Y-9860D01*
X-2855Y-9955D01*
X-2580Y-10230D01*
X-2485Y-10292D01*
X-2375Y-10315D01*
X-1025Y-10315D01*
X-914Y-10292D01*
X-819Y-10230D01*
X248Y-9161D01*
X380Y-9250D01*
X380Y-9250D01*
G37*
G54D28*
X380Y-9250D02*
X214Y-9361D01*
X95Y-9539D01*
X53Y-9750D01*
X59Y-9780D01*
X-1020Y-10860D01*
X-2400Y-10860D01*
X-2400Y-10860D01*
X-2510Y-10882D01*
X-2605Y-10944D01*
X-2605Y-10944D01*
X-2605Y-10944D01*
X-2780Y-11119D01*
X-2817Y-11175D01*
X-2854Y-11190D01*
X-2924Y-11261D01*
X-2962Y-11353D01*
X-2963Y-11452D01*
X-2963Y-11486D01*
X-2995Y-11472D01*
X-2995Y-10775D01*
X-3020Y-10648D01*
X-3020Y-10648D01*
X-3091Y-10541D01*
X-3416Y-10216D01*
X-3523Y-10145D01*
X-3650Y-10120D01*
X-4113Y-10120D01*
X-4120Y-10113D01*
X-4120Y-9260D01*
X-4046Y-9260D01*
X-3913Y-9205D01*
X-3723Y-9205D01*
X-3716Y-9211D01*
X-3624Y-9249D01*
X-3525Y-9250D01*
X-3075Y-9250D01*
X-3038Y-9234D01*
X-3038Y-9296D01*
X-3000Y-9388D01*
X-2940Y-9448D01*
X-2940Y-9750D01*
X-2917Y-9860D01*
X-2855Y-9955D01*
X-2580Y-10230D01*
X-2485Y-10292D01*
X-2375Y-10315D01*
X-1025Y-10315D01*
X-914Y-10292D01*
X-819Y-10230D01*
X248Y-9161D01*
X380Y-9250D01*
G54D10*
G36*
X380Y-12250D02*
X214Y-12361D01*
X155Y-12450D01*
X50Y-12450D01*
X-64Y-12472D01*
X-162Y-12537D01*
X-974Y-13350D01*
X-2100Y-13350D01*
X-2275Y-13175D01*
X-2275Y-13047D01*
X-2012Y-13047D01*
X-2012Y-13046D01*
X-1913Y-13047D01*
X-1637Y-13047D01*
X-1545Y-13009D01*
X-1475Y-12938D01*
X-1454Y-12890D01*
X-1100Y-12890D01*
X-989Y-12867D01*
X-894Y-12805D01*
X-129Y-12040D01*
X148Y-12040D01*
X214Y-12138D01*
X380Y-12250D01*
X380Y-12250D01*
G37*
G54D28*
X380Y-12250D02*
X214Y-12361D01*
X155Y-12450D01*
X50Y-12450D01*
X-64Y-12472D01*
X-162Y-12537D01*
X-974Y-13350D01*
X-2100Y-13350D01*
X-2275Y-13175D01*
X-2275Y-13047D01*
X-2012Y-13047D01*
X-2012Y-13046D01*
X-1913Y-13047D01*
X-1637Y-13047D01*
X-1545Y-13009D01*
X-1475Y-12938D01*
X-1454Y-12890D01*
X-1100Y-12890D01*
X-989Y-12867D01*
X-894Y-12805D01*
X-129Y-12040D01*
X148Y-12040D01*
X214Y-12138D01*
X380Y-12250D01*
G54D10*
G36*
X1500Y-15529D02*
X1446Y-15582D01*
X1446Y-13750D01*
X1404Y-13539D01*
X1285Y-13361D01*
X1119Y-13250D01*
X1285Y-13138D01*
X1404Y-12960D01*
X1446Y-12750D01*
X1404Y-12539D01*
X1285Y-12361D01*
X1119Y-12250D01*
X1285Y-12138D01*
X1404Y-11960D01*
X1446Y-11750D01*
X1404Y-11539D01*
X1285Y-11361D01*
X1119Y-11250D01*
X1285Y-11138D01*
X1404Y-10960D01*
X1446Y-10750D01*
X1404Y-10539D01*
X1285Y-10361D01*
X1119Y-10250D01*
X1285Y-10138D01*
X1404Y-9960D01*
X1446Y-9750D01*
X1404Y-9539D01*
X1285Y-9361D01*
X1119Y-9250D01*
X1285Y-9138D01*
X1404Y-8960D01*
X1446Y-8750D01*
X1404Y-8539D01*
X1285Y-8361D01*
X1119Y-8250D01*
X1285Y-8138D01*
X1404Y-7960D01*
X1446Y-7750D01*
X1404Y-7539D01*
X1285Y-7361D01*
X1119Y-7250D01*
X1285Y-7138D01*
X1404Y-6960D01*
X1446Y-6750D01*
X1404Y-6539D01*
X1285Y-6361D01*
X1119Y-6250D01*
X1285Y-6138D01*
X1404Y-5960D01*
X1446Y-5750D01*
X1404Y-5539D01*
X1285Y-5361D01*
X1119Y-5250D01*
X1285Y-5138D01*
X1404Y-4960D01*
X1446Y-4750D01*
X1404Y-4539D01*
X1285Y-4361D01*
X1119Y-4250D01*
X1285Y-4138D01*
X1404Y-3960D01*
X1446Y-3750D01*
X1404Y-3539D01*
X1285Y-3361D01*
X1119Y-3250D01*
X1285Y-3138D01*
X1404Y-2960D01*
X1446Y-2750D01*
X1404Y-2539D01*
X1285Y-2361D01*
X1193Y-2300D01*
X1232Y-2300D01*
X1324Y-2262D01*
X1394Y-2191D01*
X1432Y-2099D01*
X1433Y-2000D01*
X1433Y-1400D01*
X1395Y-1308D01*
X1324Y-1238D01*
X1232Y-1200D01*
X1133Y-1199D01*
X267Y-1199D01*
X175Y-1237D01*
X105Y-1308D01*
X67Y-1400D01*
X66Y-1460D01*
X-950Y-1460D01*
X-1060Y-1482D01*
X-1155Y-1544D01*
X-2855Y-3244D01*
X-2917Y-3339D01*
X-2940Y-3450D01*
X-2940Y-3501D01*
X-2999Y-3561D01*
X-3037Y-3653D01*
X-3038Y-3740D01*
X-3075Y-3725D01*
X-3174Y-3724D01*
X-3624Y-3724D01*
X-3716Y-3762D01*
X-3723Y-3770D01*
X-3745Y-3770D01*
X-3866Y-3720D01*
X-4013Y-3719D01*
X-4149Y-3776D01*
X-4253Y-3880D01*
X-4293Y-3977D01*
X-4756Y-4440D01*
X-4969Y-4440D01*
X-4969Y-3066D01*
X-5026Y-2930D01*
X-5130Y-2826D01*
X-5266Y-2770D01*
X-5413Y-2769D01*
X-5499Y-2805D01*
X-5499Y-1876D01*
X-5556Y-1740D01*
X-5660Y-1636D01*
X-5796Y-1580D01*
X-5943Y-1579D01*
X-6079Y-1636D01*
X-6183Y-1740D01*
X-6212Y-1808D01*
X-6236Y-1750D01*
X-6340Y-1646D01*
X-6476Y-1590D01*
X-6623Y-1589D01*
X-6759Y-1646D01*
X-6863Y-1750D01*
X-6889Y-1813D01*
X-6916Y-1750D01*
X-7020Y-1646D01*
X-7156Y-1590D01*
X-7303Y-1589D01*
X-7439Y-1646D01*
X-7543Y-1750D01*
X-7599Y-1886D01*
X-7600Y-2033D01*
X-7543Y-2169D01*
X-7439Y-2273D01*
X-7303Y-2329D01*
X-7156Y-2330D01*
X-7020Y-2273D01*
X-6916Y-2169D01*
X-6890Y-2106D01*
X-6863Y-2169D01*
X-6759Y-2273D01*
X-6623Y-2329D01*
X-6476Y-2330D01*
X-6340Y-2273D01*
X-6236Y-2169D01*
X-6207Y-2101D01*
X-6183Y-2159D01*
X-6079Y-2263D01*
X-5943Y-2319D01*
X-5796Y-2320D01*
X-5660Y-2263D01*
X-5556Y-2159D01*
X-5500Y-2023D01*
X-5499Y-1876D01*
X-5499Y-2805D01*
X-5549Y-2826D01*
X-5653Y-2930D01*
X-5709Y-3066D01*
X-5710Y-3213D01*
X-5653Y-3349D01*
X-5549Y-3453D01*
X-5413Y-3509D01*
X-5266Y-3510D01*
X-5130Y-3453D01*
X-5026Y-3349D01*
X-4970Y-3213D01*
X-4969Y-3066D01*
X-4969Y-4440D01*
X-6720Y-4440D01*
X-6846Y-4465D01*
X-6953Y-4536D01*
X-7263Y-4846D01*
X-7359Y-4886D01*
X-7463Y-4990D01*
X-7519Y-5126D01*
X-7520Y-5273D01*
X-7463Y-5409D01*
X-7359Y-5513D01*
X-7223Y-5569D01*
X-7076Y-5570D01*
X-6940Y-5513D01*
X-6836Y-5409D01*
X-6796Y-5312D01*
X-6717Y-5234D01*
X-6631Y-5321D01*
X-6558Y-5351D01*
X-5740Y-6170D01*
X-5740Y-8250D01*
X-5717Y-8360D01*
X-5655Y-8455D01*
X-5605Y-8504D01*
X-5623Y-8504D01*
X-5759Y-8561D01*
X-5863Y-8665D01*
X-5919Y-8801D01*
X-5920Y-8948D01*
X-5863Y-9084D01*
X-5759Y-9188D01*
X-5623Y-9244D01*
X-5604Y-9244D01*
X-5425Y-9424D01*
X-5425Y-10676D01*
X-5476Y-10655D01*
X-5623Y-10654D01*
X-5759Y-10711D01*
X-5863Y-10815D01*
X-5919Y-10951D01*
X-5920Y-11049D01*
X-6022Y-11049D01*
X-6024Y-11050D01*
X-6027Y-11050D01*
X-6126Y-11049D01*
X-6376Y-11049D01*
X-6468Y-11087D01*
X-6503Y-11123D01*
X-6590Y-11036D01*
X-6726Y-10980D01*
X-6873Y-10979D01*
X-6939Y-11007D01*
X-6939Y-7876D01*
X-6996Y-7740D01*
X-7100Y-7636D01*
X-7236Y-7580D01*
X-7383Y-7579D01*
X-7519Y-7636D01*
X-7623Y-7740D01*
X-7679Y-7876D01*
X-7680Y-8023D01*
X-7623Y-8159D01*
X-7519Y-8263D01*
X-7383Y-8319D01*
X-7236Y-8320D01*
X-7100Y-8263D01*
X-6996Y-8159D01*
X-6940Y-8023D01*
X-6939Y-7876D01*
X-6939Y-11007D01*
X-7009Y-11036D01*
X-7113Y-11140D01*
X-7169Y-11276D01*
X-7170Y-11423D01*
X-7113Y-11559D01*
X-7009Y-11663D01*
X-6976Y-11677D01*
X-7059Y-11711D01*
X-7163Y-11815D01*
X-7219Y-11951D01*
X-7220Y-12098D01*
X-7163Y-12234D01*
X-7059Y-12338D01*
X-6923Y-12394D01*
X-6776Y-12395D01*
X-6640Y-12338D01*
X-6601Y-12300D01*
X-5650Y-12300D01*
X-5650Y-12299D01*
X-5535Y-12277D01*
X-5535Y-12277D01*
X-5437Y-12212D01*
X-5145Y-11919D01*
X-5145Y-12299D01*
X-5107Y-12391D01*
X-5036Y-12461D01*
X-4944Y-12499D01*
X-4845Y-12500D01*
X-4740Y-12500D01*
X-4740Y-13516D01*
X-4763Y-13540D01*
X-4819Y-13676D01*
X-4820Y-13823D01*
X-4763Y-13959D01*
X-4659Y-14063D01*
X-4523Y-14119D01*
X-4376Y-14120D01*
X-4240Y-14063D01*
X-4136Y-13959D01*
X-4080Y-13823D01*
X-4079Y-13676D01*
X-4136Y-13540D01*
X-4160Y-13516D01*
X-4160Y-13350D01*
X-4055Y-13455D01*
X-4055Y-13455D01*
X-3960Y-13517D01*
X-3850Y-13540D01*
X-3133Y-13540D01*
X-3109Y-13563D01*
X-2973Y-13619D01*
X-2826Y-13620D01*
X-2722Y-13576D01*
X-2437Y-13862D01*
X-2437Y-13862D01*
X-2339Y-13927D01*
X-2225Y-13949D01*
X-2225Y-13950D01*
X-850Y-13950D01*
X-850Y-13949D01*
X-735Y-13927D01*
X-735Y-13927D01*
X-637Y-13862D01*
X162Y-13061D01*
X214Y-13138D01*
X380Y-13250D01*
X214Y-13361D01*
X95Y-13539D01*
X53Y-13750D01*
X95Y-13960D01*
X214Y-14138D01*
X386Y-14253D01*
X360Y-14261D01*
X192Y-14396D01*
X89Y-14585D01*
X83Y-14614D01*
X132Y-14700D01*
X700Y-14700D01*
X700Y-14692D01*
X800Y-14692D01*
X800Y-14700D01*
X1367Y-14700D01*
X1416Y-14614D01*
X1410Y-14585D01*
X1307Y-14396D01*
X1139Y-14261D01*
X1113Y-14253D01*
X1285Y-14138D01*
X1404Y-13960D01*
X1446Y-13750D01*
X1446Y-15582D01*
X1416Y-15613D01*
X1416Y-14885D01*
X1367Y-14800D01*
X800Y-14800D01*
X800Y-15300D01*
X933Y-15300D01*
X1139Y-15238D01*
X1307Y-15103D01*
X1410Y-14914D01*
X1416Y-14885D01*
X1416Y-15613D01*
X1035Y-15994D01*
X975Y-15849D01*
X700Y-15573D01*
X700Y-15300D01*
X700Y-14800D01*
X132Y-14800D01*
X83Y-14885D01*
X89Y-14914D01*
X192Y-15103D01*
X360Y-15238D01*
X567Y-15300D01*
X700Y-15300D01*
X700Y-15573D01*
X652Y-15525D01*
X229Y-15350D01*
X-227Y-15349D01*
X-650Y-15524D01*
X-974Y-15847D01*
X-1149Y-16270D01*
X-1150Y-16727D01*
X-975Y-17150D01*
X-652Y-17474D01*
X-505Y-17535D01*
X-1489Y-18518D01*
X-1570Y-18600D01*
X-1621Y-18600D01*
X-1600Y-18578D01*
X-1645Y-18533D01*
X-1555Y-18511D01*
X-1489Y-18321D01*
X-1489Y-17321D01*
X-1500Y-17120D01*
X-1555Y-16988D01*
X-1645Y-16966D01*
X-1716Y-17037D01*
X-1716Y-16895D01*
X-1738Y-16805D01*
X-1928Y-16739D01*
X-2129Y-16750D01*
X-2261Y-16805D01*
X-2283Y-16895D01*
X-2000Y-17179D01*
X-1716Y-16895D01*
X-1716Y-17037D01*
X-1929Y-17250D01*
X-1645Y-17533D01*
X-1555Y-17511D01*
X-1489Y-17321D01*
X-1489Y-18321D01*
X-1500Y-18120D01*
X-1555Y-17988D01*
X-1645Y-17966D01*
X-1716Y-18037D01*
X-1716Y-17895D01*
X-1738Y-17805D01*
X-1895Y-17750D01*
X-1870Y-17749D01*
X-1738Y-17694D01*
X-1716Y-17604D01*
X-2000Y-17320D01*
X-2070Y-17391D01*
X-2070Y-17250D01*
X-2354Y-16966D01*
X-2444Y-16988D01*
X-2499Y-17145D01*
X-2500Y-17120D01*
X-2555Y-16988D01*
X-2645Y-16966D01*
X-2716Y-17037D01*
X-2716Y-16895D01*
X-2738Y-16805D01*
X-2928Y-16739D01*
X-3129Y-16750D01*
X-3261Y-16805D01*
X-3283Y-16895D01*
X-3000Y-17179D01*
X-2716Y-16895D01*
X-2716Y-17037D01*
X-2929Y-17250D01*
X-2645Y-17533D01*
X-2555Y-17511D01*
X-2500Y-17354D01*
X-2499Y-17379D01*
X-2444Y-17511D01*
X-2354Y-17533D01*
X-2070Y-17250D01*
X-2070Y-17391D01*
X-2283Y-17604D01*
X-2261Y-17694D01*
X-2104Y-17749D01*
X-2129Y-17750D01*
X-2261Y-17805D01*
X-2283Y-17895D01*
X-2000Y-18179D01*
X-1716Y-17895D01*
X-1716Y-18037D01*
X-1929Y-18250D01*
X-1923Y-18255D01*
X-1994Y-18326D01*
X-2000Y-18320D01*
X-2005Y-18326D01*
X-2070Y-18261D01*
X-2076Y-18255D01*
X-2070Y-18250D01*
X-2354Y-17966D01*
X-2444Y-17988D01*
X-2499Y-18145D01*
X-2500Y-18120D01*
X-2555Y-17988D01*
X-2645Y-17966D01*
X-2716Y-18037D01*
X-2716Y-17895D01*
X-2738Y-17805D01*
X-2895Y-17750D01*
X-2870Y-17749D01*
X-2738Y-17694D01*
X-2716Y-17604D01*
X-3000Y-17320D01*
X-3283Y-17604D01*
X-3261Y-17694D01*
X-3104Y-17749D01*
X-3129Y-17750D01*
X-3261Y-17805D01*
X-3283Y-17895D01*
X-3000Y-18179D01*
X-2716Y-17895D01*
X-2716Y-18037D01*
X-2929Y-18250D01*
X-2923Y-18255D01*
X-2994Y-18326D01*
X-3000Y-18320D01*
X-3005Y-18326D01*
X-3076Y-18255D01*
X-3070Y-18250D01*
X-3354Y-17966D01*
X-3444Y-17988D01*
X-3497Y-18140D01*
X-3500Y-18135D01*
X-3500Y-17368D01*
X-3499Y-17379D01*
X-3444Y-17511D01*
X-3354Y-17533D01*
X-3070Y-17250D01*
X-3354Y-16966D01*
X-3444Y-16988D01*
X-3497Y-17140D01*
X-3500Y-17135D01*
X-3500Y-16700D01*
X-6300Y-16700D01*
X-6300Y-14700D01*
X-5950Y-14700D01*
X-5950Y-13700D01*
X-6329Y-13700D01*
X-7279Y-12749D01*
X-7279Y-11476D01*
X-7336Y-11340D01*
X-7440Y-11236D01*
X-7576Y-11180D01*
X-7723Y-11179D01*
X-7859Y-11236D01*
X-7963Y-11340D01*
X-8019Y-11476D01*
X-8020Y-11623D01*
X-7963Y-11759D01*
X-7859Y-11863D01*
X-7723Y-11919D01*
X-7576Y-11920D01*
X-7440Y-11863D01*
X-7336Y-11759D01*
X-7280Y-11623D01*
X-7279Y-11476D01*
X-7279Y-12749D01*
X-8800Y-11229D01*
X-8800Y-9729D01*
X-8979Y-9550D01*
X-8600Y-9170D01*
X-8600Y-8770D01*
X-7800Y-7970D01*
X-7800Y-5400D01*
X-8100Y-5400D01*
X-8100Y-6359D01*
X-8204Y-6254D01*
X-8299Y-6192D01*
X-8369Y-6178D01*
X-8330Y-6083D01*
X-8329Y-5936D01*
X-8386Y-5800D01*
X-8490Y-5696D01*
X-8626Y-5640D01*
X-8773Y-5639D01*
X-8909Y-5696D01*
X-9013Y-5800D01*
X-9069Y-5936D01*
X-9069Y-5980D01*
X-9129Y-5979D01*
X-9129Y-5626D01*
X-9186Y-5490D01*
X-9290Y-5386D01*
X-9426Y-5330D01*
X-9573Y-5329D01*
X-9709Y-5386D01*
X-9813Y-5490D01*
X-9869Y-5626D01*
X-9870Y-5773D01*
X-9813Y-5909D01*
X-9709Y-6013D01*
X-9573Y-6069D01*
X-9426Y-6070D01*
X-9290Y-6013D01*
X-9186Y-5909D01*
X-9130Y-5773D01*
X-9129Y-5626D01*
X-9129Y-5979D01*
X-9173Y-5979D01*
X-9309Y-6036D01*
X-9413Y-6140D01*
X-9469Y-6276D01*
X-9470Y-6423D01*
X-9413Y-6559D01*
X-9325Y-6648D01*
X-9325Y-6667D01*
X-9387Y-6605D01*
X-9475Y-6604D01*
X-9574Y-6605D01*
X-9666Y-6643D01*
X-9737Y-6713D01*
X-9775Y-6805D01*
X-9775Y-6867D01*
X-9712Y-6930D01*
X-9586Y-6930D01*
X-9666Y-6962D01*
X-9736Y-7033D01*
X-9751Y-7069D01*
X-9775Y-7092D01*
X-9775Y-7154D01*
X-9774Y-7154D01*
X-9775Y-7224D01*
X-9775Y-7474D01*
X-9774Y-7474D01*
X-9775Y-7544D01*
X-9775Y-7794D01*
X-9737Y-7886D01*
X-9666Y-7956D01*
X-9574Y-7994D01*
X-9565Y-7994D01*
X-9565Y-8004D01*
X-9990Y-8429D01*
X-10023Y-8429D01*
X-10159Y-8486D01*
X-10263Y-8590D01*
X-10319Y-8726D01*
X-10319Y-8790D01*
X-11810Y-8790D01*
X-11920Y-8812D01*
X-11940Y-8824D01*
X-12664Y-8100D01*
X-12594Y-8030D01*
X-12532Y-7935D01*
X-12510Y-7825D01*
X-12510Y-7195D01*
X-12079Y-6765D01*
X-11225Y-6765D01*
X-11114Y-6742D01*
X-11019Y-6680D01*
X-10894Y-6555D01*
X-10894Y-6555D01*
X-10894Y-6555D01*
X-10832Y-6460D01*
X-10810Y-6350D01*
X-10810Y-6350D01*
X-10810Y-6350D01*
X-10810Y-5783D01*
X-10786Y-5759D01*
X-10730Y-5623D01*
X-10729Y-5476D01*
X-10786Y-5340D01*
X-10810Y-5316D01*
X-10810Y-3660D01*
X-10270Y-4200D01*
X-9800Y-4200D01*
X-9800Y-4700D01*
X-8200Y-4700D01*
X-8200Y-5100D01*
X-7900Y-5100D01*
X-7900Y-4400D01*
X-8619Y-4400D01*
X-8619Y-846D01*
X-8676Y-710D01*
X-8780Y-606D01*
X-8916Y-550D01*
X-9063Y-549D01*
X-9199Y-606D01*
X-9303Y-710D01*
X-9359Y-846D01*
X-9360Y-993D01*
X-9303Y-1129D01*
X-9199Y-1233D01*
X-9063Y-1289D01*
X-8916Y-1290D01*
X-8780Y-1233D01*
X-8676Y-1129D01*
X-8620Y-993D01*
X-8619Y-846D01*
X-8619Y-4400D01*
X-9500Y-4400D01*
X-9500Y-3900D01*
X-10129Y-3900D01*
X-10800Y-3229D01*
X-10800Y200D01*
X-1149Y200D01*
X-1150Y-227D01*
X-975Y-650D01*
X-652Y-974D01*
X-229Y-1149D01*
X227Y-1150D01*
X650Y-975D01*
X974Y-652D01*
X1035Y-505D01*
X1500Y-970D01*
X1500Y-15529D01*
X1500Y-15529D01*
G37*
G54D28*
X1500Y-15529D02*
X1446Y-15582D01*
X1446Y-13750D01*
X1404Y-13539D01*
X1285Y-13361D01*
X1119Y-13250D01*
X1285Y-13138D01*
X1404Y-12960D01*
X1446Y-12750D01*
X1404Y-12539D01*
X1285Y-12361D01*
X1119Y-12250D01*
X1285Y-12138D01*
X1404Y-11960D01*
X1446Y-11750D01*
X1404Y-11539D01*
X1285Y-11361D01*
X1119Y-11250D01*
X1285Y-11138D01*
X1404Y-10960D01*
X1446Y-10750D01*
X1404Y-10539D01*
X1285Y-10361D01*
X1119Y-10250D01*
X1285Y-10138D01*
X1404Y-9960D01*
X1446Y-9750D01*
X1404Y-9539D01*
X1285Y-9361D01*
X1119Y-9250D01*
X1285Y-9138D01*
X1404Y-8960D01*
X1446Y-8750D01*
X1404Y-8539D01*
X1285Y-8361D01*
X1119Y-8250D01*
X1285Y-8138D01*
X1404Y-7960D01*
X1446Y-7750D01*
X1404Y-7539D01*
X1285Y-7361D01*
X1119Y-7250D01*
X1285Y-7138D01*
X1404Y-6960D01*
X1446Y-6750D01*
X1404Y-6539D01*
X1285Y-6361D01*
X1119Y-6250D01*
X1285Y-6138D01*
X1404Y-5960D01*
X1446Y-5750D01*
X1404Y-5539D01*
X1285Y-5361D01*
X1119Y-5250D01*
X1285Y-5138D01*
X1404Y-4960D01*
X1446Y-4750D01*
X1404Y-4539D01*
X1285Y-4361D01*
X1119Y-4250D01*
X1285Y-4138D01*
X1404Y-3960D01*
X1446Y-3750D01*
X1404Y-3539D01*
X1285Y-3361D01*
X1119Y-3250D01*
X1285Y-3138D01*
X1404Y-2960D01*
X1446Y-2750D01*
X1404Y-2539D01*
X1285Y-2361D01*
X1193Y-2300D01*
X1232Y-2300D01*
X1324Y-2262D01*
X1394Y-2191D01*
X1432Y-2099D01*
X1433Y-2000D01*
X1433Y-1400D01*
X1395Y-1308D01*
X1324Y-1238D01*
X1232Y-1200D01*
X1133Y-1199D01*
X267Y-1199D01*
X175Y-1237D01*
X105Y-1308D01*
X67Y-1400D01*
X66Y-1460D01*
X-950Y-1460D01*
X-1060Y-1482D01*
X-1155Y-1544D01*
X-2855Y-3244D01*
X-2917Y-3339D01*
X-2940Y-3450D01*
X-2940Y-3501D01*
X-2999Y-3561D01*
X-3037Y-3653D01*
X-3038Y-3740D01*
X-3075Y-3725D01*
X-3174Y-3724D01*
X-3624Y-3724D01*
X-3716Y-3762D01*
X-3723Y-3770D01*
X-3745Y-3770D01*
X-3866Y-3720D01*
X-4013Y-3719D01*
X-4149Y-3776D01*
X-4253Y-3880D01*
X-4293Y-3977D01*
X-4756Y-4440D01*
X-4969Y-4440D01*
X-4969Y-3066D01*
X-5026Y-2930D01*
X-5130Y-2826D01*
X-5266Y-2770D01*
X-5413Y-2769D01*
X-5499Y-2805D01*
X-5499Y-1876D01*
X-5556Y-1740D01*
X-5660Y-1636D01*
X-5796Y-1580D01*
X-5943Y-1579D01*
X-6079Y-1636D01*
X-6183Y-1740D01*
X-6212Y-1808D01*
X-6236Y-1750D01*
X-6340Y-1646D01*
X-6476Y-1590D01*
X-6623Y-1589D01*
X-6759Y-1646D01*
X-6863Y-1750D01*
X-6889Y-1813D01*
X-6916Y-1750D01*
X-7020Y-1646D01*
X-7156Y-1590D01*
X-7303Y-1589D01*
X-7439Y-1646D01*
X-7543Y-1750D01*
X-7599Y-1886D01*
X-7600Y-2033D01*
X-7543Y-2169D01*
X-7439Y-2273D01*
X-7303Y-2329D01*
X-7156Y-2330D01*
X-7020Y-2273D01*
X-6916Y-2169D01*
X-6890Y-2106D01*
X-6863Y-2169D01*
X-6759Y-2273D01*
X-6623Y-2329D01*
X-6476Y-2330D01*
X-6340Y-2273D01*
X-6236Y-2169D01*
X-6207Y-2101D01*
X-6183Y-2159D01*
X-6079Y-2263D01*
X-5943Y-2319D01*
X-5796Y-2320D01*
X-5660Y-2263D01*
X-5556Y-2159D01*
X-5500Y-2023D01*
X-5499Y-1876D01*
X-5499Y-2805D01*
X-5549Y-2826D01*
X-5653Y-2930D01*
X-5709Y-3066D01*
X-5710Y-3213D01*
X-5653Y-3349D01*
X-5549Y-3453D01*
X-5413Y-3509D01*
X-5266Y-3510D01*
X-5130Y-3453D01*
X-5026Y-3349D01*
X-4970Y-3213D01*
X-4969Y-3066D01*
X-4969Y-4440D01*
X-6720Y-4440D01*
X-6846Y-4465D01*
X-6953Y-4536D01*
X-7263Y-4846D01*
X-7359Y-4886D01*
X-7463Y-4990D01*
X-7519Y-5126D01*
X-7520Y-5273D01*
X-7463Y-5409D01*
X-7359Y-5513D01*
X-7223Y-5569D01*
X-7076Y-5570D01*
X-6940Y-5513D01*
X-6836Y-5409D01*
X-6796Y-5312D01*
X-6717Y-5234D01*
X-6631Y-5321D01*
X-6558Y-5351D01*
X-5740Y-6170D01*
X-5740Y-8250D01*
X-5717Y-8360D01*
X-5655Y-8455D01*
X-5605Y-8504D01*
X-5623Y-8504D01*
X-5759Y-8561D01*
X-5863Y-8665D01*
X-5919Y-8801D01*
X-5920Y-8948D01*
X-5863Y-9084D01*
X-5759Y-9188D01*
X-5623Y-9244D01*
X-5604Y-9244D01*
X-5425Y-9424D01*
X-5425Y-10676D01*
X-5476Y-10655D01*
X-5623Y-10654D01*
X-5759Y-10711D01*
X-5863Y-10815D01*
X-5919Y-10951D01*
X-5920Y-11049D01*
X-6022Y-11049D01*
X-6024Y-11050D01*
X-6027Y-11050D01*
X-6126Y-11049D01*
X-6376Y-11049D01*
X-6468Y-11087D01*
X-6503Y-11123D01*
X-6590Y-11036D01*
X-6726Y-10980D01*
X-6873Y-10979D01*
X-6939Y-11007D01*
X-6939Y-7876D01*
X-6996Y-7740D01*
X-7100Y-7636D01*
X-7236Y-7580D01*
X-7383Y-7579D01*
X-7519Y-7636D01*
X-7623Y-7740D01*
X-7679Y-7876D01*
X-7680Y-8023D01*
X-7623Y-8159D01*
X-7519Y-8263D01*
X-7383Y-8319D01*
X-7236Y-8320D01*
X-7100Y-8263D01*
X-6996Y-8159D01*
X-6940Y-8023D01*
X-6939Y-7876D01*
X-6939Y-11007D01*
X-7009Y-11036D01*
X-7113Y-11140D01*
X-7169Y-11276D01*
X-7170Y-11423D01*
X-7113Y-11559D01*
X-7009Y-11663D01*
X-6976Y-11677D01*
X-7059Y-11711D01*
X-7163Y-11815D01*
X-7219Y-11951D01*
X-7220Y-12098D01*
X-7163Y-12234D01*
X-7059Y-12338D01*
X-6923Y-12394D01*
X-6776Y-12395D01*
X-6640Y-12338D01*
X-6601Y-12300D01*
X-5650Y-12300D01*
X-5650Y-12299D01*
X-5535Y-12277D01*
X-5535Y-12277D01*
X-5437Y-12212D01*
X-5145Y-11919D01*
X-5145Y-12299D01*
X-5107Y-12391D01*
X-5036Y-12461D01*
X-4944Y-12499D01*
X-4845Y-12500D01*
X-4740Y-12500D01*
X-4740Y-13516D01*
X-4763Y-13540D01*
X-4819Y-13676D01*
X-4820Y-13823D01*
X-4763Y-13959D01*
X-4659Y-14063D01*
X-4523Y-14119D01*
X-4376Y-14120D01*
X-4240Y-14063D01*
X-4136Y-13959D01*
X-4080Y-13823D01*
X-4079Y-13676D01*
X-4136Y-13540D01*
X-4160Y-13516D01*
X-4160Y-13350D01*
X-4055Y-13455D01*
X-4055Y-13455D01*
X-3960Y-13517D01*
X-3850Y-13540D01*
X-3133Y-13540D01*
X-3109Y-13563D01*
X-2973Y-13619D01*
X-2826Y-13620D01*
X-2722Y-13576D01*
X-2437Y-13862D01*
X-2437Y-13862D01*
X-2339Y-13927D01*
X-2225Y-13949D01*
X-2225Y-13950D01*
X-850Y-13950D01*
X-850Y-13949D01*
X-735Y-13927D01*
X-735Y-13927D01*
X-637Y-13862D01*
X162Y-13061D01*
X214Y-13138D01*
X380Y-13250D01*
X214Y-13361D01*
X95Y-13539D01*
X53Y-13750D01*
X95Y-13960D01*
X214Y-14138D01*
X386Y-14253D01*
X360Y-14261D01*
X192Y-14396D01*
X89Y-14585D01*
X83Y-14614D01*
X132Y-14700D01*
X700Y-14700D01*
X700Y-14692D01*
X800Y-14692D01*
X800Y-14700D01*
X1367Y-14700D01*
X1416Y-14614D01*
X1410Y-14585D01*
X1307Y-14396D01*
X1139Y-14261D01*
X1113Y-14253D01*
X1285Y-14138D01*
X1404Y-13960D01*
X1446Y-13750D01*
X1446Y-15582D01*
X1416Y-15613D01*
X1416Y-14885D01*
X1367Y-14800D01*
X800Y-14800D01*
X800Y-15300D01*
X933Y-15300D01*
X1139Y-15238D01*
X1307Y-15103D01*
X1410Y-14914D01*
X1416Y-14885D01*
X1416Y-15613D01*
X1035Y-15994D01*
X975Y-15849D01*
X700Y-15573D01*
X700Y-15300D01*
X700Y-14800D01*
X132Y-14800D01*
X83Y-14885D01*
X89Y-14914D01*
X192Y-15103D01*
X360Y-15238D01*
X567Y-15300D01*
X700Y-15300D01*
X700Y-15573D01*
X652Y-15525D01*
X229Y-15350D01*
X-227Y-15349D01*
X-650Y-15524D01*
X-974Y-15847D01*
X-1149Y-16270D01*
X-1150Y-16727D01*
X-975Y-17150D01*
X-652Y-17474D01*
X-505Y-17535D01*
X-1489Y-18518D01*
X-1570Y-18600D01*
X-1621Y-18600D01*
X-1600Y-18578D01*
X-1645Y-18533D01*
X-1555Y-18511D01*
X-1489Y-18321D01*
X-1489Y-17321D01*
X-1500Y-17120D01*
X-1555Y-16988D01*
X-1645Y-16966D01*
X-1716Y-17037D01*
X-1716Y-16895D01*
X-1738Y-16805D01*
X-1928Y-16739D01*
X-2129Y-16750D01*
X-2261Y-16805D01*
X-2283Y-16895D01*
X-2000Y-17179D01*
X-1716Y-16895D01*
X-1716Y-17037D01*
X-1929Y-17250D01*
X-1645Y-17533D01*
X-1555Y-17511D01*
X-1489Y-17321D01*
X-1489Y-18321D01*
X-1500Y-18120D01*
X-1555Y-17988D01*
X-1645Y-17966D01*
X-1716Y-18037D01*
X-1716Y-17895D01*
X-1738Y-17805D01*
X-1895Y-17750D01*
X-1870Y-17749D01*
X-1738Y-17694D01*
X-1716Y-17604D01*
X-2000Y-17320D01*
X-2070Y-17391D01*
X-2070Y-17250D01*
X-2354Y-16966D01*
X-2444Y-16988D01*
X-2499Y-17145D01*
X-2500Y-17120D01*
X-2555Y-16988D01*
X-2645Y-16966D01*
X-2716Y-17037D01*
X-2716Y-16895D01*
X-2738Y-16805D01*
X-2928Y-16739D01*
X-3129Y-16750D01*
X-3261Y-16805D01*
X-3283Y-16895D01*
X-3000Y-17179D01*
X-2716Y-16895D01*
X-2716Y-17037D01*
X-2929Y-17250D01*
X-2645Y-17533D01*
X-2555Y-17511D01*
X-2500Y-17354D01*
X-2499Y-17379D01*
X-2444Y-17511D01*
X-2354Y-17533D01*
X-2070Y-17250D01*
X-2070Y-17391D01*
X-2283Y-17604D01*
X-2261Y-17694D01*
X-2104Y-17749D01*
X-2129Y-17750D01*
X-2261Y-17805D01*
X-2283Y-17895D01*
X-2000Y-18179D01*
X-1716Y-17895D01*
X-1716Y-18037D01*
X-1929Y-18250D01*
X-1923Y-18255D01*
X-1994Y-18326D01*
X-2000Y-18320D01*
X-2005Y-18326D01*
X-2070Y-18261D01*
X-2076Y-18255D01*
X-2070Y-18250D01*
X-2354Y-17966D01*
X-2444Y-17988D01*
X-2499Y-18145D01*
X-2500Y-18120D01*
X-2555Y-17988D01*
X-2645Y-17966D01*
X-2716Y-18037D01*
X-2716Y-17895D01*
X-2738Y-17805D01*
X-2895Y-17750D01*
X-2870Y-17749D01*
X-2738Y-17694D01*
X-2716Y-17604D01*
X-3000Y-17320D01*
X-3283Y-17604D01*
X-3261Y-17694D01*
X-3104Y-17749D01*
X-3129Y-17750D01*
X-3261Y-17805D01*
X-3283Y-17895D01*
X-3000Y-18179D01*
X-2716Y-17895D01*
X-2716Y-18037D01*
X-2929Y-18250D01*
X-2923Y-18255D01*
X-2994Y-18326D01*
X-3000Y-18320D01*
X-3005Y-18326D01*
X-3076Y-18255D01*
X-3070Y-18250D01*
X-3354Y-17966D01*
X-3444Y-17988D01*
X-3497Y-18140D01*
X-3500Y-18135D01*
X-3500Y-17368D01*
X-3499Y-17379D01*
X-3444Y-17511D01*
X-3354Y-17533D01*
X-3070Y-17250D01*
X-3354Y-16966D01*
X-3444Y-16988D01*
X-3497Y-17140D01*
X-3500Y-17135D01*
X-3500Y-16700D01*
X-6300Y-16700D01*
X-6300Y-14700D01*
X-5950Y-14700D01*
X-5950Y-13700D01*
X-6329Y-13700D01*
X-7279Y-12749D01*
X-7279Y-11476D01*
X-7336Y-11340D01*
X-7440Y-11236D01*
X-7576Y-11180D01*
X-7723Y-11179D01*
X-7859Y-11236D01*
X-7963Y-11340D01*
X-8019Y-11476D01*
X-8020Y-11623D01*
X-7963Y-11759D01*
X-7859Y-11863D01*
X-7723Y-11919D01*
X-7576Y-11920D01*
X-7440Y-11863D01*
X-7336Y-11759D01*
X-7280Y-11623D01*
X-7279Y-11476D01*
X-7279Y-12749D01*
X-8800Y-11229D01*
X-8800Y-9729D01*
X-8979Y-9550D01*
X-8600Y-9170D01*
X-8600Y-8770D01*
X-7800Y-7970D01*
X-7800Y-5400D01*
X-8100Y-5400D01*
X-8100Y-6359D01*
X-8204Y-6254D01*
X-8299Y-6192D01*
X-8369Y-6178D01*
X-8330Y-6083D01*
X-8329Y-5936D01*
X-8386Y-5800D01*
X-8490Y-5696D01*
X-8626Y-5640D01*
X-8773Y-5639D01*
X-8909Y-5696D01*
X-9013Y-5800D01*
X-9069Y-5936D01*
X-9069Y-5980D01*
X-9129Y-5979D01*
X-9129Y-5626D01*
X-9186Y-5490D01*
X-9290Y-5386D01*
X-9426Y-5330D01*
X-9573Y-5329D01*
X-9709Y-5386D01*
X-9813Y-5490D01*
X-9869Y-5626D01*
X-9870Y-5773D01*
X-9813Y-5909D01*
X-9709Y-6013D01*
X-9573Y-6069D01*
X-9426Y-6070D01*
X-9290Y-6013D01*
X-9186Y-5909D01*
X-9130Y-5773D01*
X-9129Y-5626D01*
X-9129Y-5979D01*
X-9173Y-5979D01*
X-9309Y-6036D01*
X-9413Y-6140D01*
X-9469Y-6276D01*
X-9470Y-6423D01*
X-9413Y-6559D01*
X-9325Y-6648D01*
X-9325Y-6667D01*
X-9387Y-6605D01*
X-9475Y-6604D01*
X-9574Y-6605D01*
X-9666Y-6643D01*
X-9737Y-6713D01*
X-9775Y-6805D01*
X-9775Y-6867D01*
X-9712Y-6930D01*
X-9586Y-6930D01*
X-9666Y-6962D01*
X-9736Y-7033D01*
X-9751Y-7069D01*
X-9775Y-7092D01*
X-9775Y-7154D01*
X-9774Y-7154D01*
X-9775Y-7224D01*
X-9775Y-7474D01*
X-9774Y-7474D01*
X-9775Y-7544D01*
X-9775Y-7794D01*
X-9737Y-7886D01*
X-9666Y-7956D01*
X-9574Y-7994D01*
X-9565Y-7994D01*
X-9565Y-8004D01*
X-9990Y-8429D01*
X-10023Y-8429D01*
X-10159Y-8486D01*
X-10263Y-8590D01*
X-10319Y-8726D01*
X-10319Y-8790D01*
X-11810Y-8790D01*
X-11920Y-8812D01*
X-11940Y-8824D01*
X-12664Y-8100D01*
X-12594Y-8030D01*
X-12532Y-7935D01*
X-12510Y-7825D01*
X-12510Y-7195D01*
X-12079Y-6765D01*
X-11225Y-6765D01*
X-11114Y-6742D01*
X-11019Y-6680D01*
X-10894Y-6555D01*
X-10894Y-6555D01*
X-10894Y-6555D01*
X-10832Y-6460D01*
X-10810Y-6350D01*
X-10810Y-6350D01*
X-10810Y-6350D01*
X-10810Y-5783D01*
X-10786Y-5759D01*
X-10730Y-5623D01*
X-10729Y-5476D01*
X-10786Y-5340D01*
X-10810Y-5316D01*
X-10810Y-3660D01*
X-10270Y-4200D01*
X-9800Y-4200D01*
X-9800Y-4700D01*
X-8200Y-4700D01*
X-8200Y-5100D01*
X-7900Y-5100D01*
X-7900Y-4400D01*
X-8619Y-4400D01*
X-8619Y-846D01*
X-8676Y-710D01*
X-8780Y-606D01*
X-8916Y-550D01*
X-9063Y-549D01*
X-9199Y-606D01*
X-9303Y-710D01*
X-9359Y-846D01*
X-9360Y-993D01*
X-9303Y-1129D01*
X-9199Y-1233D01*
X-9063Y-1289D01*
X-8916Y-1290D01*
X-8780Y-1233D01*
X-8676Y-1129D01*
X-8620Y-993D01*
X-8619Y-846D01*
X-8619Y-4400D01*
X-9500Y-4400D01*
X-9500Y-3900D01*
X-10129Y-3900D01*
X-10800Y-3229D01*
X-10800Y200D01*
X-1149Y200D01*
X-1150Y-227D01*
X-975Y-650D01*
X-652Y-974D01*
X-229Y-1149D01*
X227Y-1150D01*
X650Y-975D01*
X974Y-652D01*
X1035Y-505D01*
X1500Y-970D01*
X1500Y-15529D01*
M02*
