G04 (created by PCBNEW (2013-05-31 BZR 4019)-stable) date 12/30/2013 3:52:41 PM*
%MOIN*%
G04 Gerber Fmt 3.4, Leading zero omitted, Abs format*
%FSLAX34Y34*%
G01*
G70*
G90*
G04 APERTURE LIST*
%ADD10C,0.00590551*%
%ADD11C,0.045*%
%ADD12R,0.0866X0.06*%
%ADD13O,0.0866X0.06*%
%ADD14C,0.0512*%
%ADD15C,0.18*%
%ADD16R,0.065X0.065*%
%ADD17C,0.024*%
%ADD18C,0.014*%
%ADD19C,0.016*%
%ADD20C,0.008*%
%ADD21C,0.01*%
G04 APERTURE END LIST*
G54D10*
G54D11*
X-23000Y-14940D03*
X-9159Y-14340D03*
X-13350Y-15450D03*
X-7190Y-15760D03*
X-12825Y-11425D03*
X-25080Y-300D03*
X-10275Y-11625D03*
G54D12*
X750Y-1750D03*
G54D13*
X750Y-2750D03*
X750Y-3750D03*
X750Y-4750D03*
X750Y-5750D03*
X750Y-6750D03*
X750Y-7750D03*
X750Y-8750D03*
X750Y-9750D03*
X750Y-10750D03*
X750Y-11750D03*
X750Y-12750D03*
X750Y-13750D03*
X750Y-14750D03*
G54D14*
X-11937Y1750D03*
X-11937Y750D03*
X-12937Y1750D03*
X-12937Y750D03*
X-13921Y750D03*
X-13921Y1750D03*
X-14905Y1750D03*
X-14905Y750D03*
X-10968Y750D03*
X-10968Y1750D03*
X-9984Y1750D03*
X-9984Y750D03*
G54D15*
X0Y-16500D03*
X-26000Y-17750D03*
X0Y0D03*
G54D16*
X-24000Y-18250D03*
G54D14*
X-24000Y-17250D03*
X-23000Y-18250D03*
X-23000Y-17250D03*
X-22000Y-18250D03*
X-22000Y-17250D03*
X-21000Y-18250D03*
X-21000Y-17250D03*
X-20000Y-18250D03*
X-20000Y-17250D03*
X-19000Y-18250D03*
X-19000Y-17250D03*
X-18000Y-18250D03*
X-18000Y-17250D03*
X-17000Y-18250D03*
X-17000Y-17250D03*
X-16000Y-18250D03*
X-16000Y-17250D03*
X-15000Y-18250D03*
X-15000Y-17250D03*
X-14000Y-18250D03*
X-14000Y-17250D03*
X-13000Y-18250D03*
X-13000Y-17250D03*
X-12000Y-18250D03*
X-12000Y-17250D03*
X-11000Y-18250D03*
X-11000Y-17250D03*
X-10000Y-18250D03*
X-10000Y-17250D03*
X-9000Y-18250D03*
X-9000Y-17250D03*
X-8000Y-18250D03*
X-8000Y-17250D03*
X-7000Y-18250D03*
X-7000Y-17250D03*
X-6000Y-18250D03*
X-6000Y-17250D03*
X-5000Y-18250D03*
X-5000Y-17250D03*
X-4000Y-18250D03*
X-4000Y-17250D03*
X-3000Y-18250D03*
X-3000Y-17250D03*
X-2000Y-18250D03*
X-2000Y-17250D03*
X-9000Y750D03*
X-9000Y1750D03*
X-8000Y750D03*
X-8000Y1750D03*
X-7000Y750D03*
X-7000Y1750D03*
X-6000Y750D03*
X-6000Y1750D03*
X-5000Y750D03*
X-5000Y1750D03*
X-4000Y750D03*
X-4000Y1750D03*
X-3000Y750D03*
X-3000Y1750D03*
X-2000Y750D03*
X-2000Y1750D03*
G54D17*
X-6850Y-14200D03*
X-7150Y-5200D03*
X-7310Y-7950D03*
X-3940Y-4090D03*
X-5340Y-3140D03*
X-9500Y-5700D03*
X-17550Y-2550D03*
X-9950Y-8800D03*
X-21100Y-5500D03*
X-14250Y-12150D03*
X-17150Y-12100D03*
X-16630Y-10530D03*
X-20525Y-14875D03*
X-15190Y-8820D03*
X-15630Y-10530D03*
X-15490Y-9470D03*
X-21660Y-3810D03*
X-20370Y-6630D03*
X-18910Y-14870D03*
X-7650Y-11550D03*
X-9300Y-12150D03*
X-4150Y-10850D03*
X-4120Y-8890D03*
X-8990Y-920D03*
X-7230Y-1960D03*
X-6550Y-1960D03*
X-3960Y-4710D03*
X-5870Y-1950D03*
X-13350Y-7050D03*
X-12150Y-5875D03*
X-6800Y-11350D03*
X-5550Y-11025D03*
X-8700Y-7325D03*
X-11775Y-4450D03*
X-14100Y-4925D03*
X-5550Y-8875D03*
X-6850Y-12025D03*
G54D18*
X-6450Y-5050D03*
G54D17*
X-23925Y1225D03*
X-19400Y1200D03*
X-17955Y1840D03*
X-25025Y1225D03*
X-15410Y-11650D03*
X-18075Y-3825D03*
X-19750Y-6875D03*
X-16275Y-5400D03*
X-15750Y-4175D03*
X-13512Y-5037D03*
X-13025Y-4275D03*
X-15800Y-6775D03*
X-13525Y-5675D03*
X-18500Y-5675D03*
X-17525Y-4350D03*
X-17775Y-4050D03*
X-18700Y-5925D03*
X-11410Y-10310D03*
X-13970Y-9070D03*
X-14730Y-8550D03*
X-14375Y-7375D03*
X-14375Y-6725D03*
X-16650Y-7750D03*
X-13325Y-7925D03*
X-11100Y-5550D03*
X-15050Y-9250D03*
X-14250Y-10600D03*
X-1150Y-13250D03*
X-1350Y-12025D03*
X-1200Y-10775D03*
X-1325Y-9600D03*
X-1325Y-8450D03*
X-1075Y-7225D03*
X-1325Y-6050D03*
X-1075Y-4300D03*
X-600Y-2225D03*
X-9850Y-10700D03*
X-6950Y-11700D03*
X-8650Y-6950D03*
X-9550Y-6150D03*
X-10800Y-4900D03*
X-8900Y-5000D03*
X-9850Y-10050D03*
X-10950Y-6750D03*
X-11450Y-7400D03*
X-11250Y-7650D03*
X-10900Y-7650D03*
X-10900Y-9950D03*
X-15250Y-7770D03*
X-11770Y-2130D03*
X-17310Y-1030D03*
X-16750Y50D03*
X-26190Y-2350D03*
X-19330Y-1760D03*
X-17000Y-13550D03*
X-16550Y-14550D03*
X-16450Y-13800D03*
X-14600Y-13900D03*
X-16300Y-11750D03*
X-17410Y-11270D03*
X-19750Y-6450D03*
X-21660Y-7460D03*
X-19710Y-13060D03*
X-21870Y-13570D03*
X-20750Y-3550D03*
X-18370Y-8770D03*
X-13200Y-13650D03*
X-12800Y-15900D03*
X-10900Y-16490D03*
X-19250Y-4920D03*
X-12875Y-2225D03*
X-15490Y-14110D03*
X-18370Y-16110D03*
X-17200Y-16100D03*
X-18020Y-8390D03*
X-18070Y-10910D03*
X-14850Y-14110D03*
X-14830Y-15750D03*
X-18270Y-7450D03*
X-17710Y-6610D03*
X-21030Y-15650D03*
X-17150Y-15650D03*
X-16400Y-8350D03*
X-15900Y-11000D03*
X-17000Y-8450D03*
X-14450Y-4925D03*
X-11450Y-5275D03*
X-15880Y-5740D03*
X-8480Y-16410D03*
X-8700Y-6010D03*
X-4450Y-13750D03*
X-2900Y-13250D03*
X-17250Y-7350D03*
X-18337Y-2562D03*
X-9100Y-6350D03*
X-15050Y-16350D03*
X-20200Y-9810D03*
X-21980Y-1460D03*
X-23050Y-2190D03*
X-17425Y-15400D03*
X-20160Y-11140D03*
X-17150Y-15200D03*
X-22790Y-4220D03*
X-20170Y-10680D03*
X-21275Y-950D03*
X-19200Y-4060D03*
X-20190Y-10250D03*
X-21250Y-325D03*
X-18015Y-11395D03*
X-17380Y-8890D03*
G54D19*
X-7310Y-7950D02*
X-7310Y-13740D01*
X-7310Y-13740D02*
X-6850Y-14200D01*
X-7310Y-5360D02*
X-7310Y-7950D01*
X-7150Y-5200D02*
X-7310Y-5360D01*
X-12825Y-11425D02*
X-11305Y-11425D01*
X-11305Y-11425D02*
X-11190Y-11310D01*
X-11190Y-11310D02*
X-11190Y-10960D01*
X-11190Y-10960D02*
X-9840Y-9610D01*
X-9840Y-9610D02*
X-9460Y-9610D01*
X-9460Y-9610D02*
X-7800Y-7950D01*
X-7800Y-7950D02*
X-7310Y-7950D01*
X-3940Y-4090D02*
X-3990Y-4040D01*
X-3990Y-4040D02*
X-3990Y-3560D01*
X-3990Y-3560D02*
X-4190Y-3360D01*
X-4190Y-3360D02*
X-5120Y-3360D01*
X-5120Y-3360D02*
X-5340Y-3140D01*
X-21050Y-5450D02*
X-21050Y-5200D01*
X-21100Y-5500D02*
X-21050Y-5450D01*
G54D20*
X-14300Y-12100D02*
X-17150Y-12100D01*
X-14250Y-12150D02*
X-14300Y-12100D01*
X-17250Y-12000D02*
X-18810Y-12000D01*
X-17150Y-12100D02*
X-17250Y-12000D01*
X-20525Y-14875D02*
X-20525Y-14870D01*
G54D19*
X-15630Y-10530D02*
X-16630Y-10530D01*
X-16630Y-10530D02*
X-18810Y-10530D01*
G54D20*
X-15490Y-9340D02*
X-15490Y-9470D01*
X-15190Y-9040D02*
X-15490Y-9340D01*
X-15190Y-8820D02*
X-15190Y-9040D01*
X-15630Y-9610D02*
X-15630Y-10530D01*
X-15490Y-9470D02*
X-15630Y-9610D01*
X-18810Y-8190D02*
X-18810Y-10530D01*
X-18810Y-10530D02*
X-18810Y-12000D01*
X-18810Y-12000D02*
X-18810Y-14770D01*
X-18810Y-14770D02*
X-18910Y-14870D01*
G54D19*
X-18910Y-14870D02*
X-15090Y-14870D01*
X-15090Y-14870D02*
X-14510Y-15450D01*
X-14510Y-15450D02*
X-13350Y-15450D01*
X-23000Y-17250D02*
X-23000Y-16350D01*
X-23000Y-16350D02*
X-23000Y-16330D01*
X-21540Y-14870D02*
X-20525Y-14870D01*
X-20525Y-14870D02*
X-18910Y-14870D01*
X-23000Y-16330D02*
X-21540Y-14870D01*
X-21050Y-5200D02*
X-20660Y-4810D01*
G54D20*
X-19060Y-3810D02*
X-21660Y-3810D01*
X-20370Y-5100D02*
X-20370Y-6630D01*
X-20660Y-4810D02*
X-20370Y-5100D01*
X-21660Y-3810D02*
X-20660Y-4810D01*
X-20370Y-6630D02*
X-18810Y-8190D01*
G54D19*
X-10275Y-11625D02*
X-7725Y-11625D01*
X-7725Y-11625D02*
X-7650Y-11550D01*
X-4150Y-11300D02*
X-4150Y-10850D01*
X-3950Y-11500D02*
X-4150Y-11300D01*
X-3950Y-14100D02*
X-3950Y-11500D01*
X-4550Y-14700D02*
X-3950Y-14100D01*
X-7250Y-14700D02*
X-4550Y-14700D01*
X-7900Y-14050D02*
X-7250Y-14700D01*
X-7900Y-13550D02*
X-7900Y-14050D01*
X-8150Y-13300D02*
X-7900Y-13550D01*
X-8900Y-13300D02*
X-8150Y-13300D01*
X-9300Y-12900D02*
X-8900Y-13300D01*
X-9300Y-12150D02*
X-9300Y-12900D01*
X-4120Y-10820D02*
X-4120Y-8890D01*
X-4150Y-10850D02*
X-4120Y-10820D01*
X-4470Y-5220D02*
X-3960Y-4710D01*
X-4120Y-8890D02*
X-4470Y-8540D01*
X-4470Y-8540D02*
X-4470Y-5220D01*
X-7510Y-1960D02*
X-7230Y-1960D01*
X-8560Y-910D02*
X-7510Y-1960D01*
X-8980Y-910D02*
X-8560Y-910D01*
X-8990Y-920D02*
X-8980Y-910D01*
X-7230Y-1960D02*
X-6550Y-1960D01*
X-6540Y-1950D02*
X-5870Y-1950D01*
X-6550Y-1960D02*
X-6540Y-1950D01*
X-3960Y-4710D02*
X-3970Y-4700D01*
X-5870Y-3950D02*
X-5870Y-1950D01*
X-5120Y-4700D02*
X-5870Y-3950D01*
X-3970Y-4700D02*
X-5120Y-4700D01*
G54D10*
G36*
X-8100Y-7783D02*
X-8279Y-7963D01*
X-8279Y-6876D01*
X-8329Y-6755D01*
X-8329Y-5936D01*
X-8386Y-5800D01*
X-8490Y-5696D01*
X-8626Y-5640D01*
X-8773Y-5639D01*
X-8909Y-5696D01*
X-9013Y-5800D01*
X-9069Y-5936D01*
X-9069Y-5980D01*
X-9173Y-5979D01*
X-9213Y-5996D01*
X-9236Y-5940D01*
X-9340Y-5836D01*
X-9476Y-5780D01*
X-9623Y-5779D01*
X-9759Y-5836D01*
X-9863Y-5940D01*
X-9919Y-6076D01*
X-9920Y-6223D01*
X-9863Y-6359D01*
X-9759Y-6463D01*
X-9623Y-6519D01*
X-9476Y-6520D01*
X-9436Y-6503D01*
X-9413Y-6559D01*
X-9309Y-6663D01*
X-9173Y-6719D01*
X-9026Y-6720D01*
X-8890Y-6663D01*
X-8786Y-6559D01*
X-8730Y-6423D01*
X-8730Y-6379D01*
X-8626Y-6380D01*
X-8490Y-6323D01*
X-8386Y-6219D01*
X-8330Y-6083D01*
X-8329Y-5936D01*
X-8329Y-6755D01*
X-8336Y-6740D01*
X-8440Y-6636D01*
X-8576Y-6580D01*
X-8723Y-6579D01*
X-8859Y-6636D01*
X-8963Y-6740D01*
X-9019Y-6876D01*
X-9020Y-7023D01*
X-8991Y-7092D01*
X-9013Y-7115D01*
X-9069Y-7251D01*
X-9070Y-7398D01*
X-9013Y-7534D01*
X-8909Y-7638D01*
X-8773Y-7694D01*
X-8626Y-7695D01*
X-8490Y-7638D01*
X-8386Y-7534D01*
X-8330Y-7398D01*
X-8329Y-7251D01*
X-8358Y-7182D01*
X-8336Y-7159D01*
X-8280Y-7023D01*
X-8279Y-6876D01*
X-8279Y-7963D01*
X-9596Y-9280D01*
X-9840Y-9280D01*
X-9966Y-9305D01*
X-10073Y-9376D01*
X-10429Y-9733D01*
X-10429Y-4826D01*
X-10486Y-4690D01*
X-10590Y-4586D01*
X-10726Y-4530D01*
X-10873Y-4529D01*
X-11009Y-4586D01*
X-11113Y-4690D01*
X-11169Y-4826D01*
X-11170Y-4973D01*
X-11113Y-5109D01*
X-11043Y-5180D01*
X-11088Y-5180D01*
X-11136Y-5065D01*
X-11240Y-4961D01*
X-11376Y-4905D01*
X-11399Y-4905D01*
X-11399Y-2056D01*
X-11456Y-1920D01*
X-11560Y-1816D01*
X-11696Y-1760D01*
X-11843Y-1759D01*
X-11979Y-1816D01*
X-12083Y-1920D01*
X-12139Y-2056D01*
X-12140Y-2203D01*
X-12083Y-2339D01*
X-11979Y-2443D01*
X-11843Y-2499D01*
X-11696Y-2500D01*
X-11560Y-2443D01*
X-11456Y-2339D01*
X-11400Y-2203D01*
X-11399Y-2056D01*
X-11399Y-4905D01*
X-11404Y-4905D01*
X-11404Y-4376D01*
X-11461Y-4240D01*
X-11565Y-4136D01*
X-11701Y-4080D01*
X-11848Y-4079D01*
X-11984Y-4136D01*
X-12088Y-4240D01*
X-12144Y-4376D01*
X-12145Y-4523D01*
X-12088Y-4659D01*
X-11984Y-4763D01*
X-11848Y-4819D01*
X-11701Y-4820D01*
X-11565Y-4763D01*
X-11461Y-4659D01*
X-11405Y-4523D01*
X-11404Y-4376D01*
X-11404Y-4905D01*
X-11523Y-4904D01*
X-11659Y-4961D01*
X-11763Y-5065D01*
X-11819Y-5201D01*
X-11820Y-5348D01*
X-11763Y-5484D01*
X-11659Y-5588D01*
X-11523Y-5644D01*
X-11461Y-5644D01*
X-11413Y-5759D01*
X-11309Y-5863D01*
X-11173Y-5919D01*
X-11026Y-5920D01*
X-10890Y-5863D01*
X-10786Y-5759D01*
X-10730Y-5623D01*
X-10729Y-5476D01*
X-10786Y-5340D01*
X-10856Y-5269D01*
X-10726Y-5270D01*
X-10590Y-5213D01*
X-10486Y-5109D01*
X-10430Y-4973D01*
X-10429Y-4826D01*
X-10429Y-9733D01*
X-10529Y-9833D01*
X-10529Y-7576D01*
X-10579Y-7455D01*
X-10579Y-6676D01*
X-10636Y-6540D01*
X-10740Y-6436D01*
X-10876Y-6380D01*
X-11023Y-6379D01*
X-11159Y-6436D01*
X-11263Y-6540D01*
X-11319Y-6676D01*
X-11320Y-6823D01*
X-11263Y-6959D01*
X-11159Y-7063D01*
X-11023Y-7119D01*
X-10876Y-7120D01*
X-10740Y-7063D01*
X-10636Y-6959D01*
X-10580Y-6823D01*
X-10579Y-6676D01*
X-10579Y-7455D01*
X-10586Y-7440D01*
X-10690Y-7336D01*
X-10826Y-7280D01*
X-10973Y-7279D01*
X-11075Y-7322D01*
X-11083Y-7318D01*
X-11136Y-7190D01*
X-11240Y-7086D01*
X-11376Y-7030D01*
X-11523Y-7029D01*
X-11659Y-7086D01*
X-11763Y-7190D01*
X-11779Y-7229D01*
X-11779Y-5801D01*
X-11836Y-5665D01*
X-11940Y-5561D01*
X-12076Y-5505D01*
X-12223Y-5504D01*
X-12359Y-5561D01*
X-12463Y-5665D01*
X-12504Y-5764D01*
X-12504Y-2151D01*
X-12561Y-2015D01*
X-12665Y-1911D01*
X-12801Y-1855D01*
X-12948Y-1854D01*
X-13084Y-1911D01*
X-13188Y-2015D01*
X-13244Y-2151D01*
X-13245Y-2298D01*
X-13188Y-2434D01*
X-13084Y-2538D01*
X-12948Y-2594D01*
X-12801Y-2595D01*
X-12665Y-2538D01*
X-12561Y-2434D01*
X-12505Y-2298D01*
X-12504Y-2151D01*
X-12504Y-5764D01*
X-12519Y-5801D01*
X-12520Y-5948D01*
X-12463Y-6084D01*
X-12359Y-6188D01*
X-12223Y-6244D01*
X-12076Y-6245D01*
X-11940Y-6188D01*
X-11836Y-6084D01*
X-11780Y-5948D01*
X-11779Y-5801D01*
X-11779Y-7229D01*
X-11819Y-7326D01*
X-11820Y-7473D01*
X-11763Y-7609D01*
X-11659Y-7713D01*
X-11616Y-7731D01*
X-11563Y-7859D01*
X-11459Y-7963D01*
X-11323Y-8019D01*
X-11176Y-8020D01*
X-11074Y-7977D01*
X-10973Y-8019D01*
X-10826Y-8020D01*
X-10690Y-7963D01*
X-10586Y-7859D01*
X-10530Y-7723D01*
X-10529Y-7576D01*
X-10529Y-9833D01*
X-10542Y-9845D01*
X-10586Y-9740D01*
X-10690Y-9636D01*
X-10826Y-9580D01*
X-10973Y-9579D01*
X-11109Y-9636D01*
X-11213Y-9740D01*
X-11269Y-9876D01*
X-11270Y-9967D01*
X-11336Y-9940D01*
X-11483Y-9939D01*
X-11619Y-9996D01*
X-11723Y-10100D01*
X-11779Y-10236D01*
X-11780Y-10383D01*
X-11723Y-10519D01*
X-11619Y-10623D01*
X-11483Y-10679D01*
X-11376Y-10680D01*
X-11423Y-10726D01*
X-11475Y-10804D01*
X-11475Y-10804D01*
X-11600Y-10929D01*
X-11600Y-11000D01*
X-12229Y-11000D01*
X-12329Y-10900D01*
X-12654Y-10900D01*
X-12654Y-4201D01*
X-12711Y-4065D01*
X-12815Y-3961D01*
X-12951Y-3905D01*
X-13098Y-3904D01*
X-13234Y-3961D01*
X-13338Y-4065D01*
X-13394Y-4201D01*
X-13395Y-4348D01*
X-13338Y-4484D01*
X-13234Y-4588D01*
X-13098Y-4644D01*
X-12951Y-4645D01*
X-12815Y-4588D01*
X-12711Y-4484D01*
X-12655Y-4348D01*
X-12654Y-4201D01*
X-12654Y-10900D01*
X-12954Y-10900D01*
X-12954Y-7851D01*
X-12979Y-7791D01*
X-12979Y-6976D01*
X-13036Y-6840D01*
X-13140Y-6736D01*
X-13142Y-6735D01*
X-13142Y-4964D01*
X-13198Y-4828D01*
X-13302Y-4724D01*
X-13438Y-4667D01*
X-13585Y-4667D01*
X-13721Y-4723D01*
X-13765Y-4766D01*
X-13786Y-4715D01*
X-13890Y-4611D01*
X-14026Y-4555D01*
X-14173Y-4554D01*
X-14275Y-4597D01*
X-14376Y-4555D01*
X-14523Y-4554D01*
X-14659Y-4611D01*
X-14763Y-4715D01*
X-14819Y-4851D01*
X-14820Y-4998D01*
X-14763Y-5134D01*
X-14659Y-5238D01*
X-14523Y-5294D01*
X-14376Y-5295D01*
X-14274Y-5252D01*
X-14173Y-5294D01*
X-14026Y-5295D01*
X-13890Y-5238D01*
X-13847Y-5195D01*
X-13826Y-5246D01*
X-13722Y-5350D01*
X-13716Y-5353D01*
X-13734Y-5361D01*
X-13838Y-5465D01*
X-13894Y-5601D01*
X-13895Y-5748D01*
X-13838Y-5884D01*
X-13734Y-5988D01*
X-13598Y-6044D01*
X-13451Y-6045D01*
X-13315Y-5988D01*
X-13211Y-5884D01*
X-13155Y-5748D01*
X-13154Y-5601D01*
X-13211Y-5465D01*
X-13315Y-5361D01*
X-13321Y-5358D01*
X-13303Y-5351D01*
X-13199Y-5247D01*
X-13142Y-5111D01*
X-13142Y-4964D01*
X-13142Y-6735D01*
X-13276Y-6680D01*
X-13423Y-6679D01*
X-13559Y-6736D01*
X-13663Y-6840D01*
X-13719Y-6976D01*
X-13720Y-7123D01*
X-13663Y-7259D01*
X-13559Y-7363D01*
X-13423Y-7419D01*
X-13276Y-7420D01*
X-13140Y-7363D01*
X-13036Y-7259D01*
X-12980Y-7123D01*
X-12979Y-6976D01*
X-12979Y-7791D01*
X-13011Y-7715D01*
X-13115Y-7611D01*
X-13251Y-7555D01*
X-13398Y-7554D01*
X-13534Y-7611D01*
X-13638Y-7715D01*
X-13694Y-7851D01*
X-13695Y-7998D01*
X-13638Y-8134D01*
X-13534Y-8238D01*
X-13398Y-8294D01*
X-13251Y-8295D01*
X-13115Y-8238D01*
X-13011Y-8134D01*
X-12955Y-7998D01*
X-12954Y-7851D01*
X-12954Y-10900D01*
X-13170Y-10900D01*
X-13500Y-11229D01*
X-13500Y-11700D01*
X-13599Y-11700D01*
X-13599Y-8996D01*
X-13656Y-8860D01*
X-13760Y-8756D01*
X-13896Y-8700D01*
X-14004Y-8699D01*
X-14004Y-7301D01*
X-14061Y-7165D01*
X-14165Y-7061D01*
X-14192Y-7050D01*
X-14165Y-7038D01*
X-14061Y-6934D01*
X-14005Y-6798D01*
X-14004Y-6651D01*
X-14061Y-6515D01*
X-14165Y-6411D01*
X-14301Y-6355D01*
X-14448Y-6354D01*
X-14584Y-6411D01*
X-14688Y-6515D01*
X-14744Y-6651D01*
X-14745Y-6798D01*
X-14688Y-6934D01*
X-14584Y-7038D01*
X-14557Y-7049D01*
X-14584Y-7061D01*
X-14688Y-7165D01*
X-14744Y-7301D01*
X-14745Y-7448D01*
X-14688Y-7584D01*
X-14584Y-7688D01*
X-14448Y-7744D01*
X-14301Y-7745D01*
X-14165Y-7688D01*
X-14061Y-7584D01*
X-14005Y-7448D01*
X-14004Y-7301D01*
X-14004Y-8699D01*
X-14043Y-8699D01*
X-14179Y-8756D01*
X-14283Y-8860D01*
X-14339Y-8996D01*
X-14340Y-9143D01*
X-14283Y-9279D01*
X-14179Y-9383D01*
X-14043Y-9439D01*
X-13896Y-9440D01*
X-13760Y-9383D01*
X-13656Y-9279D01*
X-13600Y-9143D01*
X-13599Y-8996D01*
X-13599Y-11700D01*
X-13879Y-11700D01*
X-13879Y-10526D01*
X-13936Y-10390D01*
X-14040Y-10286D01*
X-14176Y-10230D01*
X-14323Y-10229D01*
X-14359Y-10245D01*
X-14359Y-8476D01*
X-14416Y-8340D01*
X-14520Y-8236D01*
X-14656Y-8180D01*
X-14803Y-8179D01*
X-14879Y-8211D01*
X-14879Y-7696D01*
X-14936Y-7560D01*
X-15040Y-7456D01*
X-15176Y-7400D01*
X-15323Y-7399D01*
X-15379Y-7423D01*
X-15379Y-4101D01*
X-15436Y-3965D01*
X-15540Y-3861D01*
X-15676Y-3805D01*
X-15823Y-3804D01*
X-15959Y-3861D01*
X-16063Y-3965D01*
X-16119Y-4101D01*
X-16120Y-4248D01*
X-16063Y-4384D01*
X-15959Y-4488D01*
X-15823Y-4544D01*
X-15676Y-4545D01*
X-15540Y-4488D01*
X-15436Y-4384D01*
X-15380Y-4248D01*
X-15379Y-4101D01*
X-15379Y-7423D01*
X-15429Y-7444D01*
X-15429Y-6701D01*
X-15486Y-6565D01*
X-15509Y-6541D01*
X-15509Y-5666D01*
X-15566Y-5530D01*
X-15670Y-5426D01*
X-15806Y-5370D01*
X-15904Y-5369D01*
X-15904Y-5326D01*
X-15961Y-5190D01*
X-16065Y-5086D01*
X-16201Y-5030D01*
X-16348Y-5029D01*
X-16379Y-5043D01*
X-16379Y123D01*
X-16436Y259D01*
X-16540Y363D01*
X-16676Y419D01*
X-16823Y420D01*
X-16959Y363D01*
X-17063Y259D01*
X-17119Y123D01*
X-17120Y-23D01*
X-17063Y-159D01*
X-16959Y-263D01*
X-16823Y-319D01*
X-16676Y-320D01*
X-16540Y-263D01*
X-16436Y-159D01*
X-16380Y-23D01*
X-16379Y123D01*
X-16379Y-5043D01*
X-16484Y-5086D01*
X-16588Y-5190D01*
X-16644Y-5326D01*
X-16645Y-5473D01*
X-16588Y-5609D01*
X-16484Y-5713D01*
X-16348Y-5769D01*
X-16250Y-5770D01*
X-16250Y-5813D01*
X-16193Y-5949D01*
X-16089Y-6053D01*
X-15953Y-6109D01*
X-15806Y-6110D01*
X-15670Y-6053D01*
X-15566Y-5949D01*
X-15510Y-5813D01*
X-15509Y-5666D01*
X-15509Y-6541D01*
X-15590Y-6461D01*
X-15726Y-6405D01*
X-15873Y-6404D01*
X-16009Y-6461D01*
X-16113Y-6565D01*
X-16169Y-6701D01*
X-16170Y-6848D01*
X-16113Y-6984D01*
X-16009Y-7088D01*
X-15873Y-7144D01*
X-15726Y-7145D01*
X-15590Y-7088D01*
X-15486Y-6984D01*
X-15430Y-6848D01*
X-15429Y-6701D01*
X-15429Y-7444D01*
X-15459Y-7456D01*
X-15563Y-7560D01*
X-15619Y-7696D01*
X-15620Y-7843D01*
X-15563Y-7979D01*
X-15459Y-8083D01*
X-15323Y-8139D01*
X-15176Y-8140D01*
X-15040Y-8083D01*
X-14936Y-7979D01*
X-14880Y-7843D01*
X-14879Y-7696D01*
X-14879Y-8211D01*
X-14939Y-8236D01*
X-15043Y-8340D01*
X-15099Y-8476D01*
X-15100Y-8623D01*
X-15043Y-8759D01*
X-14939Y-8863D01*
X-14803Y-8919D01*
X-14656Y-8920D01*
X-14520Y-8863D01*
X-14416Y-8759D01*
X-14360Y-8623D01*
X-14359Y-8476D01*
X-14359Y-10245D01*
X-14459Y-10286D01*
X-14563Y-10390D01*
X-14619Y-10526D01*
X-14620Y-10673D01*
X-14563Y-10809D01*
X-14459Y-10913D01*
X-14323Y-10969D01*
X-14176Y-10970D01*
X-14040Y-10913D01*
X-13936Y-10809D01*
X-13880Y-10673D01*
X-13879Y-10526D01*
X-13879Y-11700D01*
X-13900Y-11700D01*
X-13900Y-11829D01*
X-14000Y-11929D01*
X-14000Y-12400D01*
X-14300Y-12400D01*
X-14300Y-13676D01*
X-14390Y-13586D01*
X-14526Y-13530D01*
X-14673Y-13529D01*
X-14679Y-13532D01*
X-14679Y-9176D01*
X-14736Y-9040D01*
X-14840Y-8936D01*
X-14976Y-8880D01*
X-15123Y-8879D01*
X-15259Y-8936D01*
X-15363Y-9040D01*
X-15419Y-9176D01*
X-15420Y-9323D01*
X-15363Y-9459D01*
X-15259Y-9563D01*
X-15123Y-9619D01*
X-14976Y-9620D01*
X-14840Y-9563D01*
X-14736Y-9459D01*
X-14680Y-9323D01*
X-14679Y-9176D01*
X-14679Y-13532D01*
X-14809Y-13586D01*
X-14913Y-13690D01*
X-14936Y-13745D01*
X-15039Y-13788D01*
X-15039Y-11576D01*
X-15096Y-11440D01*
X-15200Y-11336D01*
X-15336Y-11280D01*
X-15483Y-11279D01*
X-15529Y-11299D01*
X-15529Y-10926D01*
X-15586Y-10790D01*
X-15690Y-10686D01*
X-15826Y-10630D01*
X-15973Y-10629D01*
X-16029Y-10653D01*
X-16029Y-8276D01*
X-16086Y-8140D01*
X-16190Y-8036D01*
X-16326Y-7980D01*
X-16356Y-7980D01*
X-16336Y-7959D01*
X-16280Y-7823D01*
X-16279Y-7676D01*
X-16336Y-7540D01*
X-16440Y-7436D01*
X-16576Y-7380D01*
X-16723Y-7379D01*
X-16859Y-7436D01*
X-16903Y-7480D01*
X-16880Y-7423D01*
X-16879Y-7276D01*
X-16936Y-7140D01*
X-16939Y-7136D01*
X-16939Y-956D01*
X-16996Y-820D01*
X-17100Y-716D01*
X-17236Y-660D01*
X-17383Y-659D01*
X-17519Y-716D01*
X-17623Y-820D01*
X-17679Y-956D01*
X-17680Y-1103D01*
X-17623Y-1239D01*
X-17519Y-1343D01*
X-17383Y-1399D01*
X-17236Y-1400D01*
X-17100Y-1343D01*
X-16996Y-1239D01*
X-16940Y-1103D01*
X-16939Y-956D01*
X-16939Y-7136D01*
X-17040Y-7036D01*
X-17154Y-6988D01*
X-17154Y-4276D01*
X-17211Y-4140D01*
X-17315Y-4036D01*
X-17404Y-3999D01*
X-17404Y-3976D01*
X-17461Y-3840D01*
X-17565Y-3736D01*
X-17701Y-3680D01*
X-17734Y-3680D01*
X-17761Y-3615D01*
X-17865Y-3511D01*
X-17967Y-3469D01*
X-17967Y-2489D01*
X-18023Y-2353D01*
X-18127Y-2249D01*
X-18263Y-2192D01*
X-18410Y-2192D01*
X-18546Y-2248D01*
X-18650Y-2352D01*
X-18707Y-2488D01*
X-18707Y-2635D01*
X-18651Y-2771D01*
X-18547Y-2875D01*
X-18411Y-2932D01*
X-18264Y-2932D01*
X-18128Y-2876D01*
X-18024Y-2772D01*
X-17967Y-2636D01*
X-17967Y-2489D01*
X-17967Y-3469D01*
X-18001Y-3455D01*
X-18148Y-3454D01*
X-18284Y-3511D01*
X-18388Y-3615D01*
X-18444Y-3751D01*
X-18445Y-3898D01*
X-18388Y-4034D01*
X-18284Y-4138D01*
X-18148Y-4194D01*
X-18115Y-4194D01*
X-18088Y-4259D01*
X-17984Y-4363D01*
X-17895Y-4400D01*
X-17895Y-4423D01*
X-17838Y-4559D01*
X-17734Y-4663D01*
X-17598Y-4719D01*
X-17451Y-4720D01*
X-17315Y-4663D01*
X-17211Y-4559D01*
X-17155Y-4423D01*
X-17154Y-4276D01*
X-17154Y-6988D01*
X-17176Y-6980D01*
X-17323Y-6979D01*
X-17339Y-6986D01*
X-17339Y-6536D01*
X-17396Y-6400D01*
X-17500Y-6296D01*
X-17636Y-6240D01*
X-17783Y-6239D01*
X-17919Y-6296D01*
X-18023Y-6400D01*
X-18079Y-6536D01*
X-18080Y-6683D01*
X-18023Y-6819D01*
X-17919Y-6923D01*
X-17783Y-6979D01*
X-17636Y-6980D01*
X-17500Y-6923D01*
X-17396Y-6819D01*
X-17340Y-6683D01*
X-17339Y-6536D01*
X-17339Y-6986D01*
X-17459Y-7036D01*
X-17563Y-7140D01*
X-17619Y-7276D01*
X-17620Y-7423D01*
X-17563Y-7559D01*
X-17459Y-7663D01*
X-17323Y-7719D01*
X-17176Y-7720D01*
X-17040Y-7663D01*
X-16996Y-7619D01*
X-17019Y-7676D01*
X-17020Y-7823D01*
X-16963Y-7959D01*
X-16859Y-8063D01*
X-16723Y-8119D01*
X-16693Y-8119D01*
X-16713Y-8140D01*
X-16734Y-8191D01*
X-16790Y-8136D01*
X-16926Y-8080D01*
X-17073Y-8079D01*
X-17209Y-8136D01*
X-17313Y-8240D01*
X-17369Y-8376D01*
X-17370Y-8520D01*
X-17453Y-8519D01*
X-17589Y-8576D01*
X-17649Y-8636D01*
X-17649Y-8316D01*
X-17706Y-8180D01*
X-17810Y-8076D01*
X-17899Y-8039D01*
X-17899Y-7376D01*
X-17956Y-7240D01*
X-18060Y-7136D01*
X-18129Y-7107D01*
X-18129Y-5601D01*
X-18186Y-5465D01*
X-18290Y-5361D01*
X-18426Y-5305D01*
X-18573Y-5304D01*
X-18709Y-5361D01*
X-18813Y-5465D01*
X-18829Y-5504D01*
X-18829Y-3986D01*
X-18886Y-3850D01*
X-18959Y-3776D01*
X-18959Y-1686D01*
X-19016Y-1550D01*
X-19029Y-1536D01*
X-19029Y1273D01*
X-19086Y1409D01*
X-19190Y1513D01*
X-19326Y1569D01*
X-19473Y1570D01*
X-19609Y1513D01*
X-19713Y1409D01*
X-19769Y1273D01*
X-19770Y1126D01*
X-19713Y990D01*
X-19609Y886D01*
X-19473Y830D01*
X-19326Y829D01*
X-19190Y886D01*
X-19086Y990D01*
X-19030Y1126D01*
X-19029Y1273D01*
X-19029Y-1536D01*
X-19120Y-1446D01*
X-19256Y-1390D01*
X-19403Y-1389D01*
X-19539Y-1446D01*
X-19643Y-1550D01*
X-19699Y-1686D01*
X-19700Y-1833D01*
X-19643Y-1969D01*
X-19539Y-2073D01*
X-19403Y-2129D01*
X-19256Y-2130D01*
X-19120Y-2073D01*
X-19016Y-1969D01*
X-18960Y-1833D01*
X-18959Y-1686D01*
X-18959Y-3776D01*
X-18990Y-3746D01*
X-19126Y-3690D01*
X-19273Y-3689D01*
X-19409Y-3746D01*
X-19513Y-3850D01*
X-19569Y-3986D01*
X-19570Y-4133D01*
X-19513Y-4269D01*
X-19409Y-4373D01*
X-19273Y-4429D01*
X-19126Y-4430D01*
X-18990Y-4373D01*
X-18886Y-4269D01*
X-18830Y-4133D01*
X-18829Y-3986D01*
X-18829Y-5504D01*
X-18866Y-5593D01*
X-18879Y-5599D01*
X-18879Y-4846D01*
X-18936Y-4710D01*
X-19040Y-4606D01*
X-19176Y-4550D01*
X-19323Y-4549D01*
X-19459Y-4606D01*
X-19563Y-4710D01*
X-19619Y-4846D01*
X-19620Y-4993D01*
X-19563Y-5129D01*
X-19459Y-5233D01*
X-19323Y-5289D01*
X-19176Y-5290D01*
X-19040Y-5233D01*
X-18936Y-5129D01*
X-18880Y-4993D01*
X-18879Y-4846D01*
X-18879Y-5599D01*
X-18909Y-5611D01*
X-19013Y-5715D01*
X-19069Y-5851D01*
X-19070Y-5998D01*
X-19013Y-6134D01*
X-18909Y-6238D01*
X-18773Y-6294D01*
X-18626Y-6295D01*
X-18490Y-6238D01*
X-18386Y-6134D01*
X-18333Y-6006D01*
X-18290Y-5988D01*
X-18186Y-5884D01*
X-18130Y-5748D01*
X-18129Y-5601D01*
X-18129Y-7107D01*
X-18196Y-7080D01*
X-18343Y-7079D01*
X-18479Y-7136D01*
X-18583Y-7240D01*
X-18639Y-7376D01*
X-18640Y-7523D01*
X-18583Y-7659D01*
X-18479Y-7763D01*
X-18343Y-7819D01*
X-18196Y-7820D01*
X-18060Y-7763D01*
X-17956Y-7659D01*
X-17900Y-7523D01*
X-17899Y-7376D01*
X-17899Y-8039D01*
X-17946Y-8020D01*
X-18093Y-8019D01*
X-18229Y-8076D01*
X-18333Y-8180D01*
X-18389Y-8316D01*
X-18390Y-8399D01*
X-18443Y-8399D01*
X-18579Y-8456D01*
X-18683Y-8560D01*
X-18739Y-8696D01*
X-18740Y-8843D01*
X-18683Y-8979D01*
X-18579Y-9083D01*
X-18443Y-9139D01*
X-18296Y-9140D01*
X-18160Y-9083D01*
X-18056Y-8979D01*
X-18000Y-8843D01*
X-17999Y-8760D01*
X-17946Y-8760D01*
X-17810Y-8703D01*
X-17706Y-8599D01*
X-17650Y-8463D01*
X-17649Y-8316D01*
X-17649Y-8636D01*
X-17693Y-8680D01*
X-17749Y-8816D01*
X-17750Y-8963D01*
X-17693Y-9099D01*
X-17589Y-9203D01*
X-17453Y-9259D01*
X-17306Y-9260D01*
X-17170Y-9203D01*
X-17066Y-9099D01*
X-17010Y-8963D01*
X-17009Y-8819D01*
X-16926Y-8820D01*
X-16790Y-8763D01*
X-16686Y-8659D01*
X-16665Y-8608D01*
X-16609Y-8663D01*
X-16473Y-8719D01*
X-16326Y-8720D01*
X-16190Y-8663D01*
X-16086Y-8559D01*
X-16030Y-8423D01*
X-16029Y-8276D01*
X-16029Y-10653D01*
X-16109Y-10686D01*
X-16213Y-10790D01*
X-16269Y-10926D01*
X-16270Y-11073D01*
X-16213Y-11209D01*
X-16109Y-11313D01*
X-15973Y-11369D01*
X-15826Y-11370D01*
X-15690Y-11313D01*
X-15586Y-11209D01*
X-15530Y-11073D01*
X-15529Y-10926D01*
X-15529Y-11299D01*
X-15619Y-11336D01*
X-15723Y-11440D01*
X-15779Y-11576D01*
X-15780Y-11723D01*
X-15723Y-11859D01*
X-15619Y-11963D01*
X-15483Y-12019D01*
X-15336Y-12020D01*
X-15200Y-11963D01*
X-15096Y-11859D01*
X-15040Y-11723D01*
X-15039Y-11576D01*
X-15039Y-13788D01*
X-15059Y-13796D01*
X-15163Y-13900D01*
X-15169Y-13915D01*
X-15176Y-13900D01*
X-15280Y-13796D01*
X-15416Y-13740D01*
X-15563Y-13739D01*
X-15699Y-13796D01*
X-15803Y-13900D01*
X-15859Y-14036D01*
X-15860Y-14183D01*
X-15803Y-14319D01*
X-15699Y-14423D01*
X-15563Y-14479D01*
X-15416Y-14480D01*
X-15280Y-14423D01*
X-15176Y-14319D01*
X-15170Y-14304D01*
X-15163Y-14319D01*
X-15059Y-14423D01*
X-14923Y-14479D01*
X-14776Y-14480D01*
X-14640Y-14423D01*
X-14536Y-14319D01*
X-14513Y-14264D01*
X-14390Y-14213D01*
X-14300Y-14123D01*
X-14300Y-15670D01*
X-13570Y-16400D01*
X-12870Y-16400D01*
X-12700Y-16570D01*
X-12700Y-16700D01*
X-14928Y-16700D01*
X-14840Y-16663D01*
X-14736Y-16559D01*
X-14680Y-16423D01*
X-14679Y-16276D01*
X-14736Y-16140D01*
X-14756Y-16120D01*
X-14756Y-16120D01*
X-14620Y-16063D01*
X-14516Y-15959D01*
X-14460Y-15823D01*
X-14459Y-15676D01*
X-14516Y-15540D01*
X-14620Y-15436D01*
X-14756Y-15380D01*
X-14903Y-15379D01*
X-15039Y-15436D01*
X-15143Y-15540D01*
X-15199Y-15676D01*
X-15200Y-15823D01*
X-15143Y-15959D01*
X-15123Y-15979D01*
X-15123Y-15979D01*
X-15259Y-16036D01*
X-15363Y-16140D01*
X-15419Y-16276D01*
X-15420Y-16423D01*
X-15363Y-16559D01*
X-15259Y-16663D01*
X-15171Y-16700D01*
X-15929Y-16700D01*
X-15929Y-11676D01*
X-15986Y-11540D01*
X-16090Y-11436D01*
X-16226Y-11380D01*
X-16373Y-11379D01*
X-16509Y-11436D01*
X-16613Y-11540D01*
X-16669Y-11676D01*
X-16670Y-11823D01*
X-16613Y-11959D01*
X-16509Y-12063D01*
X-16373Y-12119D01*
X-16226Y-12120D01*
X-16090Y-12063D01*
X-15986Y-11959D01*
X-15930Y-11823D01*
X-15929Y-11676D01*
X-15929Y-16700D01*
X-16079Y-16700D01*
X-16079Y-13726D01*
X-16136Y-13590D01*
X-16240Y-13486D01*
X-16376Y-13430D01*
X-16523Y-13429D01*
X-16630Y-13474D01*
X-16686Y-13340D01*
X-16790Y-13236D01*
X-16926Y-13180D01*
X-17039Y-13179D01*
X-17039Y-11196D01*
X-17096Y-11060D01*
X-17200Y-10956D01*
X-17336Y-10900D01*
X-17483Y-10899D01*
X-17619Y-10956D01*
X-17723Y-11060D01*
X-17753Y-11132D01*
X-17761Y-11125D01*
X-17756Y-11119D01*
X-17700Y-10983D01*
X-17699Y-10836D01*
X-17756Y-10700D01*
X-17860Y-10596D01*
X-17996Y-10540D01*
X-18143Y-10539D01*
X-18279Y-10596D01*
X-18383Y-10700D01*
X-18439Y-10836D01*
X-18440Y-10983D01*
X-18383Y-11119D01*
X-18323Y-11179D01*
X-18328Y-11185D01*
X-18384Y-11321D01*
X-18385Y-11468D01*
X-18328Y-11604D01*
X-18224Y-11708D01*
X-18088Y-11764D01*
X-17941Y-11765D01*
X-17805Y-11708D01*
X-17701Y-11604D01*
X-17671Y-11532D01*
X-17619Y-11583D01*
X-17483Y-11639D01*
X-17336Y-11640D01*
X-17200Y-11583D01*
X-17096Y-11479D01*
X-17040Y-11343D01*
X-17039Y-11196D01*
X-17039Y-13179D01*
X-17073Y-13179D01*
X-17209Y-13236D01*
X-17313Y-13340D01*
X-17369Y-13476D01*
X-17370Y-13623D01*
X-17313Y-13759D01*
X-17209Y-13863D01*
X-17073Y-13919D01*
X-16926Y-13920D01*
X-16819Y-13875D01*
X-16763Y-14009D01*
X-16659Y-14113D01*
X-16523Y-14169D01*
X-16376Y-14170D01*
X-16240Y-14113D01*
X-16136Y-14009D01*
X-16080Y-13873D01*
X-16079Y-13726D01*
X-16079Y-16700D01*
X-16179Y-16700D01*
X-16179Y-14476D01*
X-16236Y-14340D01*
X-16340Y-14236D01*
X-16476Y-14180D01*
X-16623Y-14179D01*
X-16759Y-14236D01*
X-16863Y-14340D01*
X-16919Y-14476D01*
X-16920Y-14623D01*
X-16863Y-14759D01*
X-16759Y-14863D01*
X-16623Y-14919D01*
X-16476Y-14920D01*
X-16340Y-14863D01*
X-16236Y-14759D01*
X-16180Y-14623D01*
X-16179Y-14476D01*
X-16179Y-16700D01*
X-16779Y-16700D01*
X-16779Y-15576D01*
X-16836Y-15440D01*
X-16851Y-15425D01*
X-16836Y-15409D01*
X-16780Y-15273D01*
X-16779Y-15126D01*
X-16836Y-14990D01*
X-16940Y-14886D01*
X-17076Y-14830D01*
X-17223Y-14829D01*
X-17359Y-14886D01*
X-17463Y-14990D01*
X-17480Y-15029D01*
X-17498Y-15029D01*
X-17634Y-15086D01*
X-17738Y-15190D01*
X-17794Y-15326D01*
X-17795Y-15473D01*
X-17738Y-15609D01*
X-17634Y-15713D01*
X-17501Y-15769D01*
X-17469Y-15846D01*
X-17513Y-15890D01*
X-17569Y-16026D01*
X-17570Y-16173D01*
X-17513Y-16309D01*
X-17409Y-16413D01*
X-17273Y-16469D01*
X-17126Y-16470D01*
X-16990Y-16413D01*
X-16886Y-16309D01*
X-16830Y-16173D01*
X-16829Y-16026D01*
X-16880Y-15903D01*
X-16836Y-15859D01*
X-16780Y-15723D01*
X-16779Y-15576D01*
X-16779Y-16700D01*
X-17999Y-16700D01*
X-17999Y-16036D01*
X-18056Y-15900D01*
X-18160Y-15796D01*
X-18296Y-15740D01*
X-18443Y-15739D01*
X-18579Y-15796D01*
X-18683Y-15900D01*
X-18739Y-16036D01*
X-18740Y-16183D01*
X-18683Y-16319D01*
X-18579Y-16423D01*
X-18443Y-16479D01*
X-18296Y-16480D01*
X-18160Y-16423D01*
X-18056Y-16319D01*
X-18000Y-16183D01*
X-17999Y-16036D01*
X-17999Y-16700D01*
X-19339Y-16700D01*
X-19339Y-12986D01*
X-19379Y-12889D01*
X-19379Y-6801D01*
X-19436Y-6665D01*
X-19439Y-6662D01*
X-19436Y-6659D01*
X-19380Y-6523D01*
X-19379Y-6376D01*
X-19436Y-6240D01*
X-19540Y-6136D01*
X-19676Y-6080D01*
X-19823Y-6079D01*
X-19959Y-6136D01*
X-20063Y-6240D01*
X-20119Y-6376D01*
X-20120Y-6523D01*
X-20063Y-6659D01*
X-20060Y-6662D01*
X-20063Y-6665D01*
X-20119Y-6801D01*
X-20120Y-6948D01*
X-20063Y-7084D01*
X-19959Y-7188D01*
X-19823Y-7244D01*
X-19676Y-7245D01*
X-19540Y-7188D01*
X-19436Y-7084D01*
X-19380Y-6948D01*
X-19379Y-6801D01*
X-19379Y-12889D01*
X-19396Y-12850D01*
X-19500Y-12746D01*
X-19636Y-12690D01*
X-19783Y-12689D01*
X-19789Y-12692D01*
X-19789Y-11066D01*
X-19846Y-10930D01*
X-19871Y-10905D01*
X-19856Y-10889D01*
X-19800Y-10753D01*
X-19799Y-10606D01*
X-19856Y-10470D01*
X-19873Y-10453D01*
X-19820Y-10323D01*
X-19819Y-10176D01*
X-19876Y-10040D01*
X-19891Y-10025D01*
X-19886Y-10019D01*
X-19830Y-9883D01*
X-19829Y-9736D01*
X-19886Y-9600D01*
X-19990Y-9496D01*
X-20126Y-9440D01*
X-20273Y-9439D01*
X-20379Y-9484D01*
X-20379Y-3476D01*
X-20436Y-3340D01*
X-20540Y-3236D01*
X-20676Y-3180D01*
X-20823Y-3179D01*
X-20879Y-3203D01*
X-20879Y-251D01*
X-20936Y-115D01*
X-21040Y-11D01*
X-21176Y44D01*
X-21323Y45D01*
X-21459Y-11D01*
X-21563Y-115D01*
X-21619Y-251D01*
X-21620Y-398D01*
X-21563Y-534D01*
X-21468Y-629D01*
X-21484Y-636D01*
X-21588Y-740D01*
X-21644Y-876D01*
X-21645Y-1023D01*
X-21588Y-1159D01*
X-21484Y-1263D01*
X-21348Y-1319D01*
X-21201Y-1320D01*
X-21065Y-1263D01*
X-20961Y-1159D01*
X-20905Y-1023D01*
X-20904Y-876D01*
X-20961Y-740D01*
X-21056Y-645D01*
X-21040Y-638D01*
X-20936Y-534D01*
X-20880Y-398D01*
X-20879Y-251D01*
X-20879Y-3203D01*
X-20959Y-3236D01*
X-21063Y-3340D01*
X-21119Y-3476D01*
X-21120Y-3623D01*
X-21063Y-3759D01*
X-20959Y-3863D01*
X-20823Y-3919D01*
X-20676Y-3920D01*
X-20540Y-3863D01*
X-20436Y-3759D01*
X-20380Y-3623D01*
X-20379Y-3476D01*
X-20379Y-9484D01*
X-20409Y-9496D01*
X-20513Y-9600D01*
X-20569Y-9736D01*
X-20570Y-9883D01*
X-20513Y-10019D01*
X-20498Y-10034D01*
X-20503Y-10040D01*
X-20559Y-10176D01*
X-20560Y-10323D01*
X-20503Y-10459D01*
X-20486Y-10476D01*
X-20539Y-10606D01*
X-20540Y-10753D01*
X-20483Y-10889D01*
X-20458Y-10914D01*
X-20473Y-10930D01*
X-20529Y-11066D01*
X-20530Y-11213D01*
X-20473Y-11349D01*
X-20369Y-11453D01*
X-20233Y-11509D01*
X-20086Y-11510D01*
X-19950Y-11453D01*
X-19846Y-11349D01*
X-19790Y-11213D01*
X-19789Y-11066D01*
X-19789Y-12692D01*
X-19919Y-12746D01*
X-20023Y-12850D01*
X-20079Y-12986D01*
X-20080Y-13133D01*
X-20023Y-13269D01*
X-19919Y-13373D01*
X-19783Y-13429D01*
X-19636Y-13430D01*
X-19500Y-13373D01*
X-19396Y-13269D01*
X-19340Y-13133D01*
X-19339Y-12986D01*
X-19339Y-16700D01*
X-20659Y-16700D01*
X-20659Y-15576D01*
X-20716Y-15440D01*
X-20820Y-15336D01*
X-20956Y-15280D01*
X-21103Y-15279D01*
X-21239Y-15336D01*
X-21289Y-15386D01*
X-21289Y-7386D01*
X-21346Y-7250D01*
X-21450Y-7146D01*
X-21586Y-7090D01*
X-21609Y-7090D01*
X-21609Y-1386D01*
X-21666Y-1250D01*
X-21770Y-1146D01*
X-21906Y-1090D01*
X-22053Y-1089D01*
X-22189Y-1146D01*
X-22293Y-1250D01*
X-22349Y-1386D01*
X-22350Y-1533D01*
X-22293Y-1669D01*
X-22189Y-1773D01*
X-22053Y-1829D01*
X-21906Y-1830D01*
X-21770Y-1773D01*
X-21666Y-1669D01*
X-21610Y-1533D01*
X-21609Y-1386D01*
X-21609Y-7090D01*
X-21733Y-7089D01*
X-21869Y-7146D01*
X-21973Y-7250D01*
X-22029Y-7386D01*
X-22030Y-7533D01*
X-21973Y-7669D01*
X-21869Y-7773D01*
X-21733Y-7829D01*
X-21586Y-7830D01*
X-21450Y-7773D01*
X-21346Y-7669D01*
X-21290Y-7533D01*
X-21289Y-7386D01*
X-21289Y-15386D01*
X-21343Y-15440D01*
X-21399Y-15576D01*
X-21400Y-15723D01*
X-21343Y-15859D01*
X-21239Y-15963D01*
X-21103Y-16019D01*
X-20956Y-16020D01*
X-20820Y-15963D01*
X-20716Y-15859D01*
X-20660Y-15723D01*
X-20659Y-15576D01*
X-20659Y-16700D01*
X-21499Y-16700D01*
X-21499Y-13496D01*
X-21556Y-13360D01*
X-21660Y-13256D01*
X-21796Y-13200D01*
X-21943Y-13199D01*
X-22079Y-13256D01*
X-22183Y-13360D01*
X-22239Y-13496D01*
X-22240Y-13643D01*
X-22183Y-13779D01*
X-22079Y-13883D01*
X-21943Y-13939D01*
X-21796Y-13940D01*
X-21660Y-13883D01*
X-21556Y-13779D01*
X-21500Y-13643D01*
X-21499Y-13496D01*
X-21499Y-16700D01*
X-22370Y-16700D01*
X-22419Y-16749D01*
X-22419Y-4146D01*
X-22476Y-4010D01*
X-22580Y-3906D01*
X-22679Y-3865D01*
X-22679Y-2116D01*
X-22736Y-1980D01*
X-22840Y-1876D01*
X-22976Y-1820D01*
X-23123Y-1819D01*
X-23259Y-1876D01*
X-23363Y-1980D01*
X-23419Y-2116D01*
X-23420Y-2263D01*
X-23363Y-2399D01*
X-23259Y-2503D01*
X-23123Y-2559D01*
X-22976Y-2560D01*
X-22840Y-2503D01*
X-22736Y-2399D01*
X-22680Y-2263D01*
X-22679Y-2116D01*
X-22679Y-3865D01*
X-22716Y-3850D01*
X-22863Y-3849D01*
X-22999Y-3906D01*
X-23103Y-4010D01*
X-23159Y-4146D01*
X-23160Y-4293D01*
X-23103Y-4429D01*
X-22999Y-4533D01*
X-22863Y-4589D01*
X-22716Y-4590D01*
X-22580Y-4533D01*
X-22476Y-4429D01*
X-22420Y-4293D01*
X-22419Y-4146D01*
X-22419Y-16749D01*
X-22524Y-16854D01*
X-22524Y-14845D01*
X-22597Y-14671D01*
X-22730Y-14537D01*
X-22905Y-14465D01*
X-23094Y-14464D01*
X-23268Y-14537D01*
X-23402Y-14670D01*
X-23474Y-14845D01*
X-23475Y-15034D01*
X-23402Y-15208D01*
X-23269Y-15342D01*
X-23094Y-15414D01*
X-22905Y-15415D01*
X-22731Y-15342D01*
X-22597Y-15209D01*
X-22525Y-15034D01*
X-22524Y-14845D01*
X-22524Y-16854D01*
X-22600Y-16929D01*
X-22600Y-16977D01*
X-22645Y-16966D01*
X-22716Y-17037D01*
X-22716Y-16895D01*
X-22738Y-16805D01*
X-22928Y-16739D01*
X-23129Y-16750D01*
X-23261Y-16805D01*
X-23283Y-16895D01*
X-23000Y-17179D01*
X-22716Y-16895D01*
X-22716Y-17037D01*
X-22929Y-17250D01*
X-22645Y-17533D01*
X-22600Y-17522D01*
X-22600Y-17977D01*
X-22645Y-17966D01*
X-22716Y-18037D01*
X-22716Y-17895D01*
X-22738Y-17805D01*
X-22895Y-17750D01*
X-22870Y-17749D01*
X-22738Y-17694D01*
X-22716Y-17604D01*
X-23000Y-17320D01*
X-23283Y-17604D01*
X-23261Y-17694D01*
X-23104Y-17749D01*
X-23129Y-17750D01*
X-23261Y-17805D01*
X-23283Y-17895D01*
X-23000Y-18179D01*
X-22716Y-17895D01*
X-22716Y-18037D01*
X-22929Y-18250D01*
X-22923Y-18255D01*
X-22994Y-18326D01*
X-23000Y-18320D01*
X-23005Y-18326D01*
X-23076Y-18255D01*
X-23070Y-18250D01*
X-23354Y-17966D01*
X-23400Y-17977D01*
X-23400Y-17522D01*
X-23354Y-17533D01*
X-23070Y-17250D01*
X-23354Y-16966D01*
X-23400Y-16977D01*
X-23400Y-16929D01*
X-23629Y-16700D01*
X-24600Y-16700D01*
X-24600Y-18700D01*
X-25323Y-18700D01*
X-25025Y-18402D01*
X-24850Y-17979D01*
X-24849Y-17522D01*
X-25024Y-17099D01*
X-25347Y-16775D01*
X-25770Y-16600D01*
X-26227Y-16599D01*
X-26650Y-16774D01*
X-26974Y-17097D01*
X-27149Y-17520D01*
X-27150Y-17977D01*
X-26975Y-18400D01*
X-26676Y-18700D01*
X-29329Y-18700D01*
X-31300Y-16729D01*
X-31300Y-11400D01*
X-23300Y-11400D01*
X-23300Y-3300D01*
X-23554Y-3300D01*
X-23554Y1298D01*
X-23611Y1434D01*
X-23715Y1538D01*
X-23851Y1594D01*
X-23998Y1595D01*
X-24134Y1538D01*
X-24238Y1434D01*
X-24294Y1298D01*
X-24295Y1151D01*
X-24238Y1015D01*
X-24134Y911D01*
X-23998Y855D01*
X-23851Y854D01*
X-23715Y911D01*
X-23611Y1015D01*
X-23555Y1151D01*
X-23554Y1298D01*
X-23554Y-3300D01*
X-24604Y-3300D01*
X-24604Y-205D01*
X-24654Y-84D01*
X-24654Y1298D01*
X-24711Y1434D01*
X-24815Y1538D01*
X-24951Y1594D01*
X-25098Y1595D01*
X-25234Y1538D01*
X-25338Y1434D01*
X-25394Y1298D01*
X-25395Y1151D01*
X-25338Y1015D01*
X-25234Y911D01*
X-25098Y855D01*
X-24951Y854D01*
X-24815Y911D01*
X-24711Y1015D01*
X-24655Y1151D01*
X-24654Y1298D01*
X-24654Y-84D01*
X-24677Y-31D01*
X-24810Y102D01*
X-24985Y174D01*
X-25174Y175D01*
X-25348Y102D01*
X-25482Y-30D01*
X-25554Y-205D01*
X-25555Y-394D01*
X-25482Y-568D01*
X-25349Y-702D01*
X-25174Y-774D01*
X-24985Y-775D01*
X-24811Y-702D01*
X-24677Y-569D01*
X-24605Y-394D01*
X-24604Y-205D01*
X-24604Y-3300D01*
X-25819Y-3300D01*
X-25819Y-2276D01*
X-25876Y-2140D01*
X-25980Y-2036D01*
X-26116Y-1980D01*
X-26263Y-1979D01*
X-26399Y-2036D01*
X-26503Y-2140D01*
X-26559Y-2276D01*
X-26560Y-2423D01*
X-26503Y-2559D01*
X-26399Y-2663D01*
X-26263Y-2719D01*
X-26116Y-2720D01*
X-25980Y-2663D01*
X-25876Y-2559D01*
X-25820Y-2423D01*
X-25819Y-2276D01*
X-25819Y-3300D01*
X-26600Y-3300D01*
X-26600Y2200D01*
X-18052Y2200D01*
X-18164Y2153D01*
X-18268Y2049D01*
X-18324Y1913D01*
X-18325Y1766D01*
X-18268Y1630D01*
X-18164Y1526D01*
X-18028Y1470D01*
X-17881Y1469D01*
X-17745Y1526D01*
X-17641Y1630D01*
X-17585Y1766D01*
X-17584Y1913D01*
X-17641Y2049D01*
X-17745Y2153D01*
X-17857Y2200D01*
X-15141Y2200D01*
X-15191Y2179D01*
X-15334Y2037D01*
X-15411Y1851D01*
X-15411Y1649D01*
X-15334Y1463D01*
X-15192Y1321D01*
X-15020Y1249D01*
X-15191Y1179D01*
X-15334Y1037D01*
X-15411Y851D01*
X-15411Y649D01*
X-15334Y463D01*
X-15192Y321D01*
X-15006Y244D01*
X-14805Y243D01*
X-14619Y320D01*
X-14476Y463D01*
X-14413Y615D01*
X-14350Y463D01*
X-14208Y321D01*
X-14022Y244D01*
X-13821Y243D01*
X-13635Y320D01*
X-13492Y463D01*
X-13429Y615D01*
X-13366Y463D01*
X-13224Y321D01*
X-13038Y244D01*
X-12836Y243D01*
X-12650Y320D01*
X-12508Y463D01*
X-12436Y634D01*
X-12366Y463D01*
X-12224Y321D01*
X-12038Y244D01*
X-11836Y243D01*
X-11650Y320D01*
X-11508Y463D01*
X-11452Y596D01*
X-11397Y463D01*
X-11255Y321D01*
X-11100Y256D01*
X-11100Y-3370D01*
X-10270Y-4200D01*
X-9800Y-4200D01*
X-9800Y-4700D01*
X-9123Y-4700D01*
X-9213Y-4790D01*
X-9269Y-4926D01*
X-9270Y-5073D01*
X-9213Y-5209D01*
X-9109Y-5313D01*
X-8973Y-5369D01*
X-8826Y-5370D01*
X-8690Y-5313D01*
X-8586Y-5209D01*
X-8530Y-5073D01*
X-8529Y-4926D01*
X-8586Y-4790D01*
X-8676Y-4700D01*
X-8200Y-4700D01*
X-8200Y-5370D01*
X-8100Y-5470D01*
X-8100Y-7783D01*
X-8100Y-7783D01*
G37*
G54D21*
X-8100Y-7783D02*
X-8279Y-7963D01*
X-8279Y-6876D01*
X-8329Y-6755D01*
X-8329Y-5936D01*
X-8386Y-5800D01*
X-8490Y-5696D01*
X-8626Y-5640D01*
X-8773Y-5639D01*
X-8909Y-5696D01*
X-9013Y-5800D01*
X-9069Y-5936D01*
X-9069Y-5980D01*
X-9173Y-5979D01*
X-9213Y-5996D01*
X-9236Y-5940D01*
X-9340Y-5836D01*
X-9476Y-5780D01*
X-9623Y-5779D01*
X-9759Y-5836D01*
X-9863Y-5940D01*
X-9919Y-6076D01*
X-9920Y-6223D01*
X-9863Y-6359D01*
X-9759Y-6463D01*
X-9623Y-6519D01*
X-9476Y-6520D01*
X-9436Y-6503D01*
X-9413Y-6559D01*
X-9309Y-6663D01*
X-9173Y-6719D01*
X-9026Y-6720D01*
X-8890Y-6663D01*
X-8786Y-6559D01*
X-8730Y-6423D01*
X-8730Y-6379D01*
X-8626Y-6380D01*
X-8490Y-6323D01*
X-8386Y-6219D01*
X-8330Y-6083D01*
X-8329Y-5936D01*
X-8329Y-6755D01*
X-8336Y-6740D01*
X-8440Y-6636D01*
X-8576Y-6580D01*
X-8723Y-6579D01*
X-8859Y-6636D01*
X-8963Y-6740D01*
X-9019Y-6876D01*
X-9020Y-7023D01*
X-8991Y-7092D01*
X-9013Y-7115D01*
X-9069Y-7251D01*
X-9070Y-7398D01*
X-9013Y-7534D01*
X-8909Y-7638D01*
X-8773Y-7694D01*
X-8626Y-7695D01*
X-8490Y-7638D01*
X-8386Y-7534D01*
X-8330Y-7398D01*
X-8329Y-7251D01*
X-8358Y-7182D01*
X-8336Y-7159D01*
X-8280Y-7023D01*
X-8279Y-6876D01*
X-8279Y-7963D01*
X-9596Y-9280D01*
X-9840Y-9280D01*
X-9966Y-9305D01*
X-10073Y-9376D01*
X-10429Y-9733D01*
X-10429Y-4826D01*
X-10486Y-4690D01*
X-10590Y-4586D01*
X-10726Y-4530D01*
X-10873Y-4529D01*
X-11009Y-4586D01*
X-11113Y-4690D01*
X-11169Y-4826D01*
X-11170Y-4973D01*
X-11113Y-5109D01*
X-11043Y-5180D01*
X-11088Y-5180D01*
X-11136Y-5065D01*
X-11240Y-4961D01*
X-11376Y-4905D01*
X-11399Y-4905D01*
X-11399Y-2056D01*
X-11456Y-1920D01*
X-11560Y-1816D01*
X-11696Y-1760D01*
X-11843Y-1759D01*
X-11979Y-1816D01*
X-12083Y-1920D01*
X-12139Y-2056D01*
X-12140Y-2203D01*
X-12083Y-2339D01*
X-11979Y-2443D01*
X-11843Y-2499D01*
X-11696Y-2500D01*
X-11560Y-2443D01*
X-11456Y-2339D01*
X-11400Y-2203D01*
X-11399Y-2056D01*
X-11399Y-4905D01*
X-11404Y-4905D01*
X-11404Y-4376D01*
X-11461Y-4240D01*
X-11565Y-4136D01*
X-11701Y-4080D01*
X-11848Y-4079D01*
X-11984Y-4136D01*
X-12088Y-4240D01*
X-12144Y-4376D01*
X-12145Y-4523D01*
X-12088Y-4659D01*
X-11984Y-4763D01*
X-11848Y-4819D01*
X-11701Y-4820D01*
X-11565Y-4763D01*
X-11461Y-4659D01*
X-11405Y-4523D01*
X-11404Y-4376D01*
X-11404Y-4905D01*
X-11523Y-4904D01*
X-11659Y-4961D01*
X-11763Y-5065D01*
X-11819Y-5201D01*
X-11820Y-5348D01*
X-11763Y-5484D01*
X-11659Y-5588D01*
X-11523Y-5644D01*
X-11461Y-5644D01*
X-11413Y-5759D01*
X-11309Y-5863D01*
X-11173Y-5919D01*
X-11026Y-5920D01*
X-10890Y-5863D01*
X-10786Y-5759D01*
X-10730Y-5623D01*
X-10729Y-5476D01*
X-10786Y-5340D01*
X-10856Y-5269D01*
X-10726Y-5270D01*
X-10590Y-5213D01*
X-10486Y-5109D01*
X-10430Y-4973D01*
X-10429Y-4826D01*
X-10429Y-9733D01*
X-10529Y-9833D01*
X-10529Y-7576D01*
X-10579Y-7455D01*
X-10579Y-6676D01*
X-10636Y-6540D01*
X-10740Y-6436D01*
X-10876Y-6380D01*
X-11023Y-6379D01*
X-11159Y-6436D01*
X-11263Y-6540D01*
X-11319Y-6676D01*
X-11320Y-6823D01*
X-11263Y-6959D01*
X-11159Y-7063D01*
X-11023Y-7119D01*
X-10876Y-7120D01*
X-10740Y-7063D01*
X-10636Y-6959D01*
X-10580Y-6823D01*
X-10579Y-6676D01*
X-10579Y-7455D01*
X-10586Y-7440D01*
X-10690Y-7336D01*
X-10826Y-7280D01*
X-10973Y-7279D01*
X-11075Y-7322D01*
X-11083Y-7318D01*
X-11136Y-7190D01*
X-11240Y-7086D01*
X-11376Y-7030D01*
X-11523Y-7029D01*
X-11659Y-7086D01*
X-11763Y-7190D01*
X-11779Y-7229D01*
X-11779Y-5801D01*
X-11836Y-5665D01*
X-11940Y-5561D01*
X-12076Y-5505D01*
X-12223Y-5504D01*
X-12359Y-5561D01*
X-12463Y-5665D01*
X-12504Y-5764D01*
X-12504Y-2151D01*
X-12561Y-2015D01*
X-12665Y-1911D01*
X-12801Y-1855D01*
X-12948Y-1854D01*
X-13084Y-1911D01*
X-13188Y-2015D01*
X-13244Y-2151D01*
X-13245Y-2298D01*
X-13188Y-2434D01*
X-13084Y-2538D01*
X-12948Y-2594D01*
X-12801Y-2595D01*
X-12665Y-2538D01*
X-12561Y-2434D01*
X-12505Y-2298D01*
X-12504Y-2151D01*
X-12504Y-5764D01*
X-12519Y-5801D01*
X-12520Y-5948D01*
X-12463Y-6084D01*
X-12359Y-6188D01*
X-12223Y-6244D01*
X-12076Y-6245D01*
X-11940Y-6188D01*
X-11836Y-6084D01*
X-11780Y-5948D01*
X-11779Y-5801D01*
X-11779Y-7229D01*
X-11819Y-7326D01*
X-11820Y-7473D01*
X-11763Y-7609D01*
X-11659Y-7713D01*
X-11616Y-7731D01*
X-11563Y-7859D01*
X-11459Y-7963D01*
X-11323Y-8019D01*
X-11176Y-8020D01*
X-11074Y-7977D01*
X-10973Y-8019D01*
X-10826Y-8020D01*
X-10690Y-7963D01*
X-10586Y-7859D01*
X-10530Y-7723D01*
X-10529Y-7576D01*
X-10529Y-9833D01*
X-10542Y-9845D01*
X-10586Y-9740D01*
X-10690Y-9636D01*
X-10826Y-9580D01*
X-10973Y-9579D01*
X-11109Y-9636D01*
X-11213Y-9740D01*
X-11269Y-9876D01*
X-11270Y-9967D01*
X-11336Y-9940D01*
X-11483Y-9939D01*
X-11619Y-9996D01*
X-11723Y-10100D01*
X-11779Y-10236D01*
X-11780Y-10383D01*
X-11723Y-10519D01*
X-11619Y-10623D01*
X-11483Y-10679D01*
X-11376Y-10680D01*
X-11423Y-10726D01*
X-11475Y-10804D01*
X-11475Y-10804D01*
X-11600Y-10929D01*
X-11600Y-11000D01*
X-12229Y-11000D01*
X-12329Y-10900D01*
X-12654Y-10900D01*
X-12654Y-4201D01*
X-12711Y-4065D01*
X-12815Y-3961D01*
X-12951Y-3905D01*
X-13098Y-3904D01*
X-13234Y-3961D01*
X-13338Y-4065D01*
X-13394Y-4201D01*
X-13395Y-4348D01*
X-13338Y-4484D01*
X-13234Y-4588D01*
X-13098Y-4644D01*
X-12951Y-4645D01*
X-12815Y-4588D01*
X-12711Y-4484D01*
X-12655Y-4348D01*
X-12654Y-4201D01*
X-12654Y-10900D01*
X-12954Y-10900D01*
X-12954Y-7851D01*
X-12979Y-7791D01*
X-12979Y-6976D01*
X-13036Y-6840D01*
X-13140Y-6736D01*
X-13142Y-6735D01*
X-13142Y-4964D01*
X-13198Y-4828D01*
X-13302Y-4724D01*
X-13438Y-4667D01*
X-13585Y-4667D01*
X-13721Y-4723D01*
X-13765Y-4766D01*
X-13786Y-4715D01*
X-13890Y-4611D01*
X-14026Y-4555D01*
X-14173Y-4554D01*
X-14275Y-4597D01*
X-14376Y-4555D01*
X-14523Y-4554D01*
X-14659Y-4611D01*
X-14763Y-4715D01*
X-14819Y-4851D01*
X-14820Y-4998D01*
X-14763Y-5134D01*
X-14659Y-5238D01*
X-14523Y-5294D01*
X-14376Y-5295D01*
X-14274Y-5252D01*
X-14173Y-5294D01*
X-14026Y-5295D01*
X-13890Y-5238D01*
X-13847Y-5195D01*
X-13826Y-5246D01*
X-13722Y-5350D01*
X-13716Y-5353D01*
X-13734Y-5361D01*
X-13838Y-5465D01*
X-13894Y-5601D01*
X-13895Y-5748D01*
X-13838Y-5884D01*
X-13734Y-5988D01*
X-13598Y-6044D01*
X-13451Y-6045D01*
X-13315Y-5988D01*
X-13211Y-5884D01*
X-13155Y-5748D01*
X-13154Y-5601D01*
X-13211Y-5465D01*
X-13315Y-5361D01*
X-13321Y-5358D01*
X-13303Y-5351D01*
X-13199Y-5247D01*
X-13142Y-5111D01*
X-13142Y-4964D01*
X-13142Y-6735D01*
X-13276Y-6680D01*
X-13423Y-6679D01*
X-13559Y-6736D01*
X-13663Y-6840D01*
X-13719Y-6976D01*
X-13720Y-7123D01*
X-13663Y-7259D01*
X-13559Y-7363D01*
X-13423Y-7419D01*
X-13276Y-7420D01*
X-13140Y-7363D01*
X-13036Y-7259D01*
X-12980Y-7123D01*
X-12979Y-6976D01*
X-12979Y-7791D01*
X-13011Y-7715D01*
X-13115Y-7611D01*
X-13251Y-7555D01*
X-13398Y-7554D01*
X-13534Y-7611D01*
X-13638Y-7715D01*
X-13694Y-7851D01*
X-13695Y-7998D01*
X-13638Y-8134D01*
X-13534Y-8238D01*
X-13398Y-8294D01*
X-13251Y-8295D01*
X-13115Y-8238D01*
X-13011Y-8134D01*
X-12955Y-7998D01*
X-12954Y-7851D01*
X-12954Y-10900D01*
X-13170Y-10900D01*
X-13500Y-11229D01*
X-13500Y-11700D01*
X-13599Y-11700D01*
X-13599Y-8996D01*
X-13656Y-8860D01*
X-13760Y-8756D01*
X-13896Y-8700D01*
X-14004Y-8699D01*
X-14004Y-7301D01*
X-14061Y-7165D01*
X-14165Y-7061D01*
X-14192Y-7050D01*
X-14165Y-7038D01*
X-14061Y-6934D01*
X-14005Y-6798D01*
X-14004Y-6651D01*
X-14061Y-6515D01*
X-14165Y-6411D01*
X-14301Y-6355D01*
X-14448Y-6354D01*
X-14584Y-6411D01*
X-14688Y-6515D01*
X-14744Y-6651D01*
X-14745Y-6798D01*
X-14688Y-6934D01*
X-14584Y-7038D01*
X-14557Y-7049D01*
X-14584Y-7061D01*
X-14688Y-7165D01*
X-14744Y-7301D01*
X-14745Y-7448D01*
X-14688Y-7584D01*
X-14584Y-7688D01*
X-14448Y-7744D01*
X-14301Y-7745D01*
X-14165Y-7688D01*
X-14061Y-7584D01*
X-14005Y-7448D01*
X-14004Y-7301D01*
X-14004Y-8699D01*
X-14043Y-8699D01*
X-14179Y-8756D01*
X-14283Y-8860D01*
X-14339Y-8996D01*
X-14340Y-9143D01*
X-14283Y-9279D01*
X-14179Y-9383D01*
X-14043Y-9439D01*
X-13896Y-9440D01*
X-13760Y-9383D01*
X-13656Y-9279D01*
X-13600Y-9143D01*
X-13599Y-8996D01*
X-13599Y-11700D01*
X-13879Y-11700D01*
X-13879Y-10526D01*
X-13936Y-10390D01*
X-14040Y-10286D01*
X-14176Y-10230D01*
X-14323Y-10229D01*
X-14359Y-10245D01*
X-14359Y-8476D01*
X-14416Y-8340D01*
X-14520Y-8236D01*
X-14656Y-8180D01*
X-14803Y-8179D01*
X-14879Y-8211D01*
X-14879Y-7696D01*
X-14936Y-7560D01*
X-15040Y-7456D01*
X-15176Y-7400D01*
X-15323Y-7399D01*
X-15379Y-7423D01*
X-15379Y-4101D01*
X-15436Y-3965D01*
X-15540Y-3861D01*
X-15676Y-3805D01*
X-15823Y-3804D01*
X-15959Y-3861D01*
X-16063Y-3965D01*
X-16119Y-4101D01*
X-16120Y-4248D01*
X-16063Y-4384D01*
X-15959Y-4488D01*
X-15823Y-4544D01*
X-15676Y-4545D01*
X-15540Y-4488D01*
X-15436Y-4384D01*
X-15380Y-4248D01*
X-15379Y-4101D01*
X-15379Y-7423D01*
X-15429Y-7444D01*
X-15429Y-6701D01*
X-15486Y-6565D01*
X-15509Y-6541D01*
X-15509Y-5666D01*
X-15566Y-5530D01*
X-15670Y-5426D01*
X-15806Y-5370D01*
X-15904Y-5369D01*
X-15904Y-5326D01*
X-15961Y-5190D01*
X-16065Y-5086D01*
X-16201Y-5030D01*
X-16348Y-5029D01*
X-16379Y-5043D01*
X-16379Y123D01*
X-16436Y259D01*
X-16540Y363D01*
X-16676Y419D01*
X-16823Y420D01*
X-16959Y363D01*
X-17063Y259D01*
X-17119Y123D01*
X-17120Y-23D01*
X-17063Y-159D01*
X-16959Y-263D01*
X-16823Y-319D01*
X-16676Y-320D01*
X-16540Y-263D01*
X-16436Y-159D01*
X-16380Y-23D01*
X-16379Y123D01*
X-16379Y-5043D01*
X-16484Y-5086D01*
X-16588Y-5190D01*
X-16644Y-5326D01*
X-16645Y-5473D01*
X-16588Y-5609D01*
X-16484Y-5713D01*
X-16348Y-5769D01*
X-16250Y-5770D01*
X-16250Y-5813D01*
X-16193Y-5949D01*
X-16089Y-6053D01*
X-15953Y-6109D01*
X-15806Y-6110D01*
X-15670Y-6053D01*
X-15566Y-5949D01*
X-15510Y-5813D01*
X-15509Y-5666D01*
X-15509Y-6541D01*
X-15590Y-6461D01*
X-15726Y-6405D01*
X-15873Y-6404D01*
X-16009Y-6461D01*
X-16113Y-6565D01*
X-16169Y-6701D01*
X-16170Y-6848D01*
X-16113Y-6984D01*
X-16009Y-7088D01*
X-15873Y-7144D01*
X-15726Y-7145D01*
X-15590Y-7088D01*
X-15486Y-6984D01*
X-15430Y-6848D01*
X-15429Y-6701D01*
X-15429Y-7444D01*
X-15459Y-7456D01*
X-15563Y-7560D01*
X-15619Y-7696D01*
X-15620Y-7843D01*
X-15563Y-7979D01*
X-15459Y-8083D01*
X-15323Y-8139D01*
X-15176Y-8140D01*
X-15040Y-8083D01*
X-14936Y-7979D01*
X-14880Y-7843D01*
X-14879Y-7696D01*
X-14879Y-8211D01*
X-14939Y-8236D01*
X-15043Y-8340D01*
X-15099Y-8476D01*
X-15100Y-8623D01*
X-15043Y-8759D01*
X-14939Y-8863D01*
X-14803Y-8919D01*
X-14656Y-8920D01*
X-14520Y-8863D01*
X-14416Y-8759D01*
X-14360Y-8623D01*
X-14359Y-8476D01*
X-14359Y-10245D01*
X-14459Y-10286D01*
X-14563Y-10390D01*
X-14619Y-10526D01*
X-14620Y-10673D01*
X-14563Y-10809D01*
X-14459Y-10913D01*
X-14323Y-10969D01*
X-14176Y-10970D01*
X-14040Y-10913D01*
X-13936Y-10809D01*
X-13880Y-10673D01*
X-13879Y-10526D01*
X-13879Y-11700D01*
X-13900Y-11700D01*
X-13900Y-11829D01*
X-14000Y-11929D01*
X-14000Y-12400D01*
X-14300Y-12400D01*
X-14300Y-13676D01*
X-14390Y-13586D01*
X-14526Y-13530D01*
X-14673Y-13529D01*
X-14679Y-13532D01*
X-14679Y-9176D01*
X-14736Y-9040D01*
X-14840Y-8936D01*
X-14976Y-8880D01*
X-15123Y-8879D01*
X-15259Y-8936D01*
X-15363Y-9040D01*
X-15419Y-9176D01*
X-15420Y-9323D01*
X-15363Y-9459D01*
X-15259Y-9563D01*
X-15123Y-9619D01*
X-14976Y-9620D01*
X-14840Y-9563D01*
X-14736Y-9459D01*
X-14680Y-9323D01*
X-14679Y-9176D01*
X-14679Y-13532D01*
X-14809Y-13586D01*
X-14913Y-13690D01*
X-14936Y-13745D01*
X-15039Y-13788D01*
X-15039Y-11576D01*
X-15096Y-11440D01*
X-15200Y-11336D01*
X-15336Y-11280D01*
X-15483Y-11279D01*
X-15529Y-11299D01*
X-15529Y-10926D01*
X-15586Y-10790D01*
X-15690Y-10686D01*
X-15826Y-10630D01*
X-15973Y-10629D01*
X-16029Y-10653D01*
X-16029Y-8276D01*
X-16086Y-8140D01*
X-16190Y-8036D01*
X-16326Y-7980D01*
X-16356Y-7980D01*
X-16336Y-7959D01*
X-16280Y-7823D01*
X-16279Y-7676D01*
X-16336Y-7540D01*
X-16440Y-7436D01*
X-16576Y-7380D01*
X-16723Y-7379D01*
X-16859Y-7436D01*
X-16903Y-7480D01*
X-16880Y-7423D01*
X-16879Y-7276D01*
X-16936Y-7140D01*
X-16939Y-7136D01*
X-16939Y-956D01*
X-16996Y-820D01*
X-17100Y-716D01*
X-17236Y-660D01*
X-17383Y-659D01*
X-17519Y-716D01*
X-17623Y-820D01*
X-17679Y-956D01*
X-17680Y-1103D01*
X-17623Y-1239D01*
X-17519Y-1343D01*
X-17383Y-1399D01*
X-17236Y-1400D01*
X-17100Y-1343D01*
X-16996Y-1239D01*
X-16940Y-1103D01*
X-16939Y-956D01*
X-16939Y-7136D01*
X-17040Y-7036D01*
X-17154Y-6988D01*
X-17154Y-4276D01*
X-17211Y-4140D01*
X-17315Y-4036D01*
X-17404Y-3999D01*
X-17404Y-3976D01*
X-17461Y-3840D01*
X-17565Y-3736D01*
X-17701Y-3680D01*
X-17734Y-3680D01*
X-17761Y-3615D01*
X-17865Y-3511D01*
X-17967Y-3469D01*
X-17967Y-2489D01*
X-18023Y-2353D01*
X-18127Y-2249D01*
X-18263Y-2192D01*
X-18410Y-2192D01*
X-18546Y-2248D01*
X-18650Y-2352D01*
X-18707Y-2488D01*
X-18707Y-2635D01*
X-18651Y-2771D01*
X-18547Y-2875D01*
X-18411Y-2932D01*
X-18264Y-2932D01*
X-18128Y-2876D01*
X-18024Y-2772D01*
X-17967Y-2636D01*
X-17967Y-2489D01*
X-17967Y-3469D01*
X-18001Y-3455D01*
X-18148Y-3454D01*
X-18284Y-3511D01*
X-18388Y-3615D01*
X-18444Y-3751D01*
X-18445Y-3898D01*
X-18388Y-4034D01*
X-18284Y-4138D01*
X-18148Y-4194D01*
X-18115Y-4194D01*
X-18088Y-4259D01*
X-17984Y-4363D01*
X-17895Y-4400D01*
X-17895Y-4423D01*
X-17838Y-4559D01*
X-17734Y-4663D01*
X-17598Y-4719D01*
X-17451Y-4720D01*
X-17315Y-4663D01*
X-17211Y-4559D01*
X-17155Y-4423D01*
X-17154Y-4276D01*
X-17154Y-6988D01*
X-17176Y-6980D01*
X-17323Y-6979D01*
X-17339Y-6986D01*
X-17339Y-6536D01*
X-17396Y-6400D01*
X-17500Y-6296D01*
X-17636Y-6240D01*
X-17783Y-6239D01*
X-17919Y-6296D01*
X-18023Y-6400D01*
X-18079Y-6536D01*
X-18080Y-6683D01*
X-18023Y-6819D01*
X-17919Y-6923D01*
X-17783Y-6979D01*
X-17636Y-6980D01*
X-17500Y-6923D01*
X-17396Y-6819D01*
X-17340Y-6683D01*
X-17339Y-6536D01*
X-17339Y-6986D01*
X-17459Y-7036D01*
X-17563Y-7140D01*
X-17619Y-7276D01*
X-17620Y-7423D01*
X-17563Y-7559D01*
X-17459Y-7663D01*
X-17323Y-7719D01*
X-17176Y-7720D01*
X-17040Y-7663D01*
X-16996Y-7619D01*
X-17019Y-7676D01*
X-17020Y-7823D01*
X-16963Y-7959D01*
X-16859Y-8063D01*
X-16723Y-8119D01*
X-16693Y-8119D01*
X-16713Y-8140D01*
X-16734Y-8191D01*
X-16790Y-8136D01*
X-16926Y-8080D01*
X-17073Y-8079D01*
X-17209Y-8136D01*
X-17313Y-8240D01*
X-17369Y-8376D01*
X-17370Y-8520D01*
X-17453Y-8519D01*
X-17589Y-8576D01*
X-17649Y-8636D01*
X-17649Y-8316D01*
X-17706Y-8180D01*
X-17810Y-8076D01*
X-17899Y-8039D01*
X-17899Y-7376D01*
X-17956Y-7240D01*
X-18060Y-7136D01*
X-18129Y-7107D01*
X-18129Y-5601D01*
X-18186Y-5465D01*
X-18290Y-5361D01*
X-18426Y-5305D01*
X-18573Y-5304D01*
X-18709Y-5361D01*
X-18813Y-5465D01*
X-18829Y-5504D01*
X-18829Y-3986D01*
X-18886Y-3850D01*
X-18959Y-3776D01*
X-18959Y-1686D01*
X-19016Y-1550D01*
X-19029Y-1536D01*
X-19029Y1273D01*
X-19086Y1409D01*
X-19190Y1513D01*
X-19326Y1569D01*
X-19473Y1570D01*
X-19609Y1513D01*
X-19713Y1409D01*
X-19769Y1273D01*
X-19770Y1126D01*
X-19713Y990D01*
X-19609Y886D01*
X-19473Y830D01*
X-19326Y829D01*
X-19190Y886D01*
X-19086Y990D01*
X-19030Y1126D01*
X-19029Y1273D01*
X-19029Y-1536D01*
X-19120Y-1446D01*
X-19256Y-1390D01*
X-19403Y-1389D01*
X-19539Y-1446D01*
X-19643Y-1550D01*
X-19699Y-1686D01*
X-19700Y-1833D01*
X-19643Y-1969D01*
X-19539Y-2073D01*
X-19403Y-2129D01*
X-19256Y-2130D01*
X-19120Y-2073D01*
X-19016Y-1969D01*
X-18960Y-1833D01*
X-18959Y-1686D01*
X-18959Y-3776D01*
X-18990Y-3746D01*
X-19126Y-3690D01*
X-19273Y-3689D01*
X-19409Y-3746D01*
X-19513Y-3850D01*
X-19569Y-3986D01*
X-19570Y-4133D01*
X-19513Y-4269D01*
X-19409Y-4373D01*
X-19273Y-4429D01*
X-19126Y-4430D01*
X-18990Y-4373D01*
X-18886Y-4269D01*
X-18830Y-4133D01*
X-18829Y-3986D01*
X-18829Y-5504D01*
X-18866Y-5593D01*
X-18879Y-5599D01*
X-18879Y-4846D01*
X-18936Y-4710D01*
X-19040Y-4606D01*
X-19176Y-4550D01*
X-19323Y-4549D01*
X-19459Y-4606D01*
X-19563Y-4710D01*
X-19619Y-4846D01*
X-19620Y-4993D01*
X-19563Y-5129D01*
X-19459Y-5233D01*
X-19323Y-5289D01*
X-19176Y-5290D01*
X-19040Y-5233D01*
X-18936Y-5129D01*
X-18880Y-4993D01*
X-18879Y-4846D01*
X-18879Y-5599D01*
X-18909Y-5611D01*
X-19013Y-5715D01*
X-19069Y-5851D01*
X-19070Y-5998D01*
X-19013Y-6134D01*
X-18909Y-6238D01*
X-18773Y-6294D01*
X-18626Y-6295D01*
X-18490Y-6238D01*
X-18386Y-6134D01*
X-18333Y-6006D01*
X-18290Y-5988D01*
X-18186Y-5884D01*
X-18130Y-5748D01*
X-18129Y-5601D01*
X-18129Y-7107D01*
X-18196Y-7080D01*
X-18343Y-7079D01*
X-18479Y-7136D01*
X-18583Y-7240D01*
X-18639Y-7376D01*
X-18640Y-7523D01*
X-18583Y-7659D01*
X-18479Y-7763D01*
X-18343Y-7819D01*
X-18196Y-7820D01*
X-18060Y-7763D01*
X-17956Y-7659D01*
X-17900Y-7523D01*
X-17899Y-7376D01*
X-17899Y-8039D01*
X-17946Y-8020D01*
X-18093Y-8019D01*
X-18229Y-8076D01*
X-18333Y-8180D01*
X-18389Y-8316D01*
X-18390Y-8399D01*
X-18443Y-8399D01*
X-18579Y-8456D01*
X-18683Y-8560D01*
X-18739Y-8696D01*
X-18740Y-8843D01*
X-18683Y-8979D01*
X-18579Y-9083D01*
X-18443Y-9139D01*
X-18296Y-9140D01*
X-18160Y-9083D01*
X-18056Y-8979D01*
X-18000Y-8843D01*
X-17999Y-8760D01*
X-17946Y-8760D01*
X-17810Y-8703D01*
X-17706Y-8599D01*
X-17650Y-8463D01*
X-17649Y-8316D01*
X-17649Y-8636D01*
X-17693Y-8680D01*
X-17749Y-8816D01*
X-17750Y-8963D01*
X-17693Y-9099D01*
X-17589Y-9203D01*
X-17453Y-9259D01*
X-17306Y-9260D01*
X-17170Y-9203D01*
X-17066Y-9099D01*
X-17010Y-8963D01*
X-17009Y-8819D01*
X-16926Y-8820D01*
X-16790Y-8763D01*
X-16686Y-8659D01*
X-16665Y-8608D01*
X-16609Y-8663D01*
X-16473Y-8719D01*
X-16326Y-8720D01*
X-16190Y-8663D01*
X-16086Y-8559D01*
X-16030Y-8423D01*
X-16029Y-8276D01*
X-16029Y-10653D01*
X-16109Y-10686D01*
X-16213Y-10790D01*
X-16269Y-10926D01*
X-16270Y-11073D01*
X-16213Y-11209D01*
X-16109Y-11313D01*
X-15973Y-11369D01*
X-15826Y-11370D01*
X-15690Y-11313D01*
X-15586Y-11209D01*
X-15530Y-11073D01*
X-15529Y-10926D01*
X-15529Y-11299D01*
X-15619Y-11336D01*
X-15723Y-11440D01*
X-15779Y-11576D01*
X-15780Y-11723D01*
X-15723Y-11859D01*
X-15619Y-11963D01*
X-15483Y-12019D01*
X-15336Y-12020D01*
X-15200Y-11963D01*
X-15096Y-11859D01*
X-15040Y-11723D01*
X-15039Y-11576D01*
X-15039Y-13788D01*
X-15059Y-13796D01*
X-15163Y-13900D01*
X-15169Y-13915D01*
X-15176Y-13900D01*
X-15280Y-13796D01*
X-15416Y-13740D01*
X-15563Y-13739D01*
X-15699Y-13796D01*
X-15803Y-13900D01*
X-15859Y-14036D01*
X-15860Y-14183D01*
X-15803Y-14319D01*
X-15699Y-14423D01*
X-15563Y-14479D01*
X-15416Y-14480D01*
X-15280Y-14423D01*
X-15176Y-14319D01*
X-15170Y-14304D01*
X-15163Y-14319D01*
X-15059Y-14423D01*
X-14923Y-14479D01*
X-14776Y-14480D01*
X-14640Y-14423D01*
X-14536Y-14319D01*
X-14513Y-14264D01*
X-14390Y-14213D01*
X-14300Y-14123D01*
X-14300Y-15670D01*
X-13570Y-16400D01*
X-12870Y-16400D01*
X-12700Y-16570D01*
X-12700Y-16700D01*
X-14928Y-16700D01*
X-14840Y-16663D01*
X-14736Y-16559D01*
X-14680Y-16423D01*
X-14679Y-16276D01*
X-14736Y-16140D01*
X-14756Y-16120D01*
X-14756Y-16120D01*
X-14620Y-16063D01*
X-14516Y-15959D01*
X-14460Y-15823D01*
X-14459Y-15676D01*
X-14516Y-15540D01*
X-14620Y-15436D01*
X-14756Y-15380D01*
X-14903Y-15379D01*
X-15039Y-15436D01*
X-15143Y-15540D01*
X-15199Y-15676D01*
X-15200Y-15823D01*
X-15143Y-15959D01*
X-15123Y-15979D01*
X-15123Y-15979D01*
X-15259Y-16036D01*
X-15363Y-16140D01*
X-15419Y-16276D01*
X-15420Y-16423D01*
X-15363Y-16559D01*
X-15259Y-16663D01*
X-15171Y-16700D01*
X-15929Y-16700D01*
X-15929Y-11676D01*
X-15986Y-11540D01*
X-16090Y-11436D01*
X-16226Y-11380D01*
X-16373Y-11379D01*
X-16509Y-11436D01*
X-16613Y-11540D01*
X-16669Y-11676D01*
X-16670Y-11823D01*
X-16613Y-11959D01*
X-16509Y-12063D01*
X-16373Y-12119D01*
X-16226Y-12120D01*
X-16090Y-12063D01*
X-15986Y-11959D01*
X-15930Y-11823D01*
X-15929Y-11676D01*
X-15929Y-16700D01*
X-16079Y-16700D01*
X-16079Y-13726D01*
X-16136Y-13590D01*
X-16240Y-13486D01*
X-16376Y-13430D01*
X-16523Y-13429D01*
X-16630Y-13474D01*
X-16686Y-13340D01*
X-16790Y-13236D01*
X-16926Y-13180D01*
X-17039Y-13179D01*
X-17039Y-11196D01*
X-17096Y-11060D01*
X-17200Y-10956D01*
X-17336Y-10900D01*
X-17483Y-10899D01*
X-17619Y-10956D01*
X-17723Y-11060D01*
X-17753Y-11132D01*
X-17761Y-11125D01*
X-17756Y-11119D01*
X-17700Y-10983D01*
X-17699Y-10836D01*
X-17756Y-10700D01*
X-17860Y-10596D01*
X-17996Y-10540D01*
X-18143Y-10539D01*
X-18279Y-10596D01*
X-18383Y-10700D01*
X-18439Y-10836D01*
X-18440Y-10983D01*
X-18383Y-11119D01*
X-18323Y-11179D01*
X-18328Y-11185D01*
X-18384Y-11321D01*
X-18385Y-11468D01*
X-18328Y-11604D01*
X-18224Y-11708D01*
X-18088Y-11764D01*
X-17941Y-11765D01*
X-17805Y-11708D01*
X-17701Y-11604D01*
X-17671Y-11532D01*
X-17619Y-11583D01*
X-17483Y-11639D01*
X-17336Y-11640D01*
X-17200Y-11583D01*
X-17096Y-11479D01*
X-17040Y-11343D01*
X-17039Y-11196D01*
X-17039Y-13179D01*
X-17073Y-13179D01*
X-17209Y-13236D01*
X-17313Y-13340D01*
X-17369Y-13476D01*
X-17370Y-13623D01*
X-17313Y-13759D01*
X-17209Y-13863D01*
X-17073Y-13919D01*
X-16926Y-13920D01*
X-16819Y-13875D01*
X-16763Y-14009D01*
X-16659Y-14113D01*
X-16523Y-14169D01*
X-16376Y-14170D01*
X-16240Y-14113D01*
X-16136Y-14009D01*
X-16080Y-13873D01*
X-16079Y-13726D01*
X-16079Y-16700D01*
X-16179Y-16700D01*
X-16179Y-14476D01*
X-16236Y-14340D01*
X-16340Y-14236D01*
X-16476Y-14180D01*
X-16623Y-14179D01*
X-16759Y-14236D01*
X-16863Y-14340D01*
X-16919Y-14476D01*
X-16920Y-14623D01*
X-16863Y-14759D01*
X-16759Y-14863D01*
X-16623Y-14919D01*
X-16476Y-14920D01*
X-16340Y-14863D01*
X-16236Y-14759D01*
X-16180Y-14623D01*
X-16179Y-14476D01*
X-16179Y-16700D01*
X-16779Y-16700D01*
X-16779Y-15576D01*
X-16836Y-15440D01*
X-16851Y-15425D01*
X-16836Y-15409D01*
X-16780Y-15273D01*
X-16779Y-15126D01*
X-16836Y-14990D01*
X-16940Y-14886D01*
X-17076Y-14830D01*
X-17223Y-14829D01*
X-17359Y-14886D01*
X-17463Y-14990D01*
X-17480Y-15029D01*
X-17498Y-15029D01*
X-17634Y-15086D01*
X-17738Y-15190D01*
X-17794Y-15326D01*
X-17795Y-15473D01*
X-17738Y-15609D01*
X-17634Y-15713D01*
X-17501Y-15769D01*
X-17469Y-15846D01*
X-17513Y-15890D01*
X-17569Y-16026D01*
X-17570Y-16173D01*
X-17513Y-16309D01*
X-17409Y-16413D01*
X-17273Y-16469D01*
X-17126Y-16470D01*
X-16990Y-16413D01*
X-16886Y-16309D01*
X-16830Y-16173D01*
X-16829Y-16026D01*
X-16880Y-15903D01*
X-16836Y-15859D01*
X-16780Y-15723D01*
X-16779Y-15576D01*
X-16779Y-16700D01*
X-17999Y-16700D01*
X-17999Y-16036D01*
X-18056Y-15900D01*
X-18160Y-15796D01*
X-18296Y-15740D01*
X-18443Y-15739D01*
X-18579Y-15796D01*
X-18683Y-15900D01*
X-18739Y-16036D01*
X-18740Y-16183D01*
X-18683Y-16319D01*
X-18579Y-16423D01*
X-18443Y-16479D01*
X-18296Y-16480D01*
X-18160Y-16423D01*
X-18056Y-16319D01*
X-18000Y-16183D01*
X-17999Y-16036D01*
X-17999Y-16700D01*
X-19339Y-16700D01*
X-19339Y-12986D01*
X-19379Y-12889D01*
X-19379Y-6801D01*
X-19436Y-6665D01*
X-19439Y-6662D01*
X-19436Y-6659D01*
X-19380Y-6523D01*
X-19379Y-6376D01*
X-19436Y-6240D01*
X-19540Y-6136D01*
X-19676Y-6080D01*
X-19823Y-6079D01*
X-19959Y-6136D01*
X-20063Y-6240D01*
X-20119Y-6376D01*
X-20120Y-6523D01*
X-20063Y-6659D01*
X-20060Y-6662D01*
X-20063Y-6665D01*
X-20119Y-6801D01*
X-20120Y-6948D01*
X-20063Y-7084D01*
X-19959Y-7188D01*
X-19823Y-7244D01*
X-19676Y-7245D01*
X-19540Y-7188D01*
X-19436Y-7084D01*
X-19380Y-6948D01*
X-19379Y-6801D01*
X-19379Y-12889D01*
X-19396Y-12850D01*
X-19500Y-12746D01*
X-19636Y-12690D01*
X-19783Y-12689D01*
X-19789Y-12692D01*
X-19789Y-11066D01*
X-19846Y-10930D01*
X-19871Y-10905D01*
X-19856Y-10889D01*
X-19800Y-10753D01*
X-19799Y-10606D01*
X-19856Y-10470D01*
X-19873Y-10453D01*
X-19820Y-10323D01*
X-19819Y-10176D01*
X-19876Y-10040D01*
X-19891Y-10025D01*
X-19886Y-10019D01*
X-19830Y-9883D01*
X-19829Y-9736D01*
X-19886Y-9600D01*
X-19990Y-9496D01*
X-20126Y-9440D01*
X-20273Y-9439D01*
X-20379Y-9484D01*
X-20379Y-3476D01*
X-20436Y-3340D01*
X-20540Y-3236D01*
X-20676Y-3180D01*
X-20823Y-3179D01*
X-20879Y-3203D01*
X-20879Y-251D01*
X-20936Y-115D01*
X-21040Y-11D01*
X-21176Y44D01*
X-21323Y45D01*
X-21459Y-11D01*
X-21563Y-115D01*
X-21619Y-251D01*
X-21620Y-398D01*
X-21563Y-534D01*
X-21468Y-629D01*
X-21484Y-636D01*
X-21588Y-740D01*
X-21644Y-876D01*
X-21645Y-1023D01*
X-21588Y-1159D01*
X-21484Y-1263D01*
X-21348Y-1319D01*
X-21201Y-1320D01*
X-21065Y-1263D01*
X-20961Y-1159D01*
X-20905Y-1023D01*
X-20904Y-876D01*
X-20961Y-740D01*
X-21056Y-645D01*
X-21040Y-638D01*
X-20936Y-534D01*
X-20880Y-398D01*
X-20879Y-251D01*
X-20879Y-3203D01*
X-20959Y-3236D01*
X-21063Y-3340D01*
X-21119Y-3476D01*
X-21120Y-3623D01*
X-21063Y-3759D01*
X-20959Y-3863D01*
X-20823Y-3919D01*
X-20676Y-3920D01*
X-20540Y-3863D01*
X-20436Y-3759D01*
X-20380Y-3623D01*
X-20379Y-3476D01*
X-20379Y-9484D01*
X-20409Y-9496D01*
X-20513Y-9600D01*
X-20569Y-9736D01*
X-20570Y-9883D01*
X-20513Y-10019D01*
X-20498Y-10034D01*
X-20503Y-10040D01*
X-20559Y-10176D01*
X-20560Y-10323D01*
X-20503Y-10459D01*
X-20486Y-10476D01*
X-20539Y-10606D01*
X-20540Y-10753D01*
X-20483Y-10889D01*
X-20458Y-10914D01*
X-20473Y-10930D01*
X-20529Y-11066D01*
X-20530Y-11213D01*
X-20473Y-11349D01*
X-20369Y-11453D01*
X-20233Y-11509D01*
X-20086Y-11510D01*
X-19950Y-11453D01*
X-19846Y-11349D01*
X-19790Y-11213D01*
X-19789Y-11066D01*
X-19789Y-12692D01*
X-19919Y-12746D01*
X-20023Y-12850D01*
X-20079Y-12986D01*
X-20080Y-13133D01*
X-20023Y-13269D01*
X-19919Y-13373D01*
X-19783Y-13429D01*
X-19636Y-13430D01*
X-19500Y-13373D01*
X-19396Y-13269D01*
X-19340Y-13133D01*
X-19339Y-12986D01*
X-19339Y-16700D01*
X-20659Y-16700D01*
X-20659Y-15576D01*
X-20716Y-15440D01*
X-20820Y-15336D01*
X-20956Y-15280D01*
X-21103Y-15279D01*
X-21239Y-15336D01*
X-21289Y-15386D01*
X-21289Y-7386D01*
X-21346Y-7250D01*
X-21450Y-7146D01*
X-21586Y-7090D01*
X-21609Y-7090D01*
X-21609Y-1386D01*
X-21666Y-1250D01*
X-21770Y-1146D01*
X-21906Y-1090D01*
X-22053Y-1089D01*
X-22189Y-1146D01*
X-22293Y-1250D01*
X-22349Y-1386D01*
X-22350Y-1533D01*
X-22293Y-1669D01*
X-22189Y-1773D01*
X-22053Y-1829D01*
X-21906Y-1830D01*
X-21770Y-1773D01*
X-21666Y-1669D01*
X-21610Y-1533D01*
X-21609Y-1386D01*
X-21609Y-7090D01*
X-21733Y-7089D01*
X-21869Y-7146D01*
X-21973Y-7250D01*
X-22029Y-7386D01*
X-22030Y-7533D01*
X-21973Y-7669D01*
X-21869Y-7773D01*
X-21733Y-7829D01*
X-21586Y-7830D01*
X-21450Y-7773D01*
X-21346Y-7669D01*
X-21290Y-7533D01*
X-21289Y-7386D01*
X-21289Y-15386D01*
X-21343Y-15440D01*
X-21399Y-15576D01*
X-21400Y-15723D01*
X-21343Y-15859D01*
X-21239Y-15963D01*
X-21103Y-16019D01*
X-20956Y-16020D01*
X-20820Y-15963D01*
X-20716Y-15859D01*
X-20660Y-15723D01*
X-20659Y-15576D01*
X-20659Y-16700D01*
X-21499Y-16700D01*
X-21499Y-13496D01*
X-21556Y-13360D01*
X-21660Y-13256D01*
X-21796Y-13200D01*
X-21943Y-13199D01*
X-22079Y-13256D01*
X-22183Y-13360D01*
X-22239Y-13496D01*
X-22240Y-13643D01*
X-22183Y-13779D01*
X-22079Y-13883D01*
X-21943Y-13939D01*
X-21796Y-13940D01*
X-21660Y-13883D01*
X-21556Y-13779D01*
X-21500Y-13643D01*
X-21499Y-13496D01*
X-21499Y-16700D01*
X-22370Y-16700D01*
X-22419Y-16749D01*
X-22419Y-4146D01*
X-22476Y-4010D01*
X-22580Y-3906D01*
X-22679Y-3865D01*
X-22679Y-2116D01*
X-22736Y-1980D01*
X-22840Y-1876D01*
X-22976Y-1820D01*
X-23123Y-1819D01*
X-23259Y-1876D01*
X-23363Y-1980D01*
X-23419Y-2116D01*
X-23420Y-2263D01*
X-23363Y-2399D01*
X-23259Y-2503D01*
X-23123Y-2559D01*
X-22976Y-2560D01*
X-22840Y-2503D01*
X-22736Y-2399D01*
X-22680Y-2263D01*
X-22679Y-2116D01*
X-22679Y-3865D01*
X-22716Y-3850D01*
X-22863Y-3849D01*
X-22999Y-3906D01*
X-23103Y-4010D01*
X-23159Y-4146D01*
X-23160Y-4293D01*
X-23103Y-4429D01*
X-22999Y-4533D01*
X-22863Y-4589D01*
X-22716Y-4590D01*
X-22580Y-4533D01*
X-22476Y-4429D01*
X-22420Y-4293D01*
X-22419Y-4146D01*
X-22419Y-16749D01*
X-22524Y-16854D01*
X-22524Y-14845D01*
X-22597Y-14671D01*
X-22730Y-14537D01*
X-22905Y-14465D01*
X-23094Y-14464D01*
X-23268Y-14537D01*
X-23402Y-14670D01*
X-23474Y-14845D01*
X-23475Y-15034D01*
X-23402Y-15208D01*
X-23269Y-15342D01*
X-23094Y-15414D01*
X-22905Y-15415D01*
X-22731Y-15342D01*
X-22597Y-15209D01*
X-22525Y-15034D01*
X-22524Y-14845D01*
X-22524Y-16854D01*
X-22600Y-16929D01*
X-22600Y-16977D01*
X-22645Y-16966D01*
X-22716Y-17037D01*
X-22716Y-16895D01*
X-22738Y-16805D01*
X-22928Y-16739D01*
X-23129Y-16750D01*
X-23261Y-16805D01*
X-23283Y-16895D01*
X-23000Y-17179D01*
X-22716Y-16895D01*
X-22716Y-17037D01*
X-22929Y-17250D01*
X-22645Y-17533D01*
X-22600Y-17522D01*
X-22600Y-17977D01*
X-22645Y-17966D01*
X-22716Y-18037D01*
X-22716Y-17895D01*
X-22738Y-17805D01*
X-22895Y-17750D01*
X-22870Y-17749D01*
X-22738Y-17694D01*
X-22716Y-17604D01*
X-23000Y-17320D01*
X-23283Y-17604D01*
X-23261Y-17694D01*
X-23104Y-17749D01*
X-23129Y-17750D01*
X-23261Y-17805D01*
X-23283Y-17895D01*
X-23000Y-18179D01*
X-22716Y-17895D01*
X-22716Y-18037D01*
X-22929Y-18250D01*
X-22923Y-18255D01*
X-22994Y-18326D01*
X-23000Y-18320D01*
X-23005Y-18326D01*
X-23076Y-18255D01*
X-23070Y-18250D01*
X-23354Y-17966D01*
X-23400Y-17977D01*
X-23400Y-17522D01*
X-23354Y-17533D01*
X-23070Y-17250D01*
X-23354Y-16966D01*
X-23400Y-16977D01*
X-23400Y-16929D01*
X-23629Y-16700D01*
X-24600Y-16700D01*
X-24600Y-18700D01*
X-25323Y-18700D01*
X-25025Y-18402D01*
X-24850Y-17979D01*
X-24849Y-17522D01*
X-25024Y-17099D01*
X-25347Y-16775D01*
X-25770Y-16600D01*
X-26227Y-16599D01*
X-26650Y-16774D01*
X-26974Y-17097D01*
X-27149Y-17520D01*
X-27150Y-17977D01*
X-26975Y-18400D01*
X-26676Y-18700D01*
X-29329Y-18700D01*
X-31300Y-16729D01*
X-31300Y-11400D01*
X-23300Y-11400D01*
X-23300Y-3300D01*
X-23554Y-3300D01*
X-23554Y1298D01*
X-23611Y1434D01*
X-23715Y1538D01*
X-23851Y1594D01*
X-23998Y1595D01*
X-24134Y1538D01*
X-24238Y1434D01*
X-24294Y1298D01*
X-24295Y1151D01*
X-24238Y1015D01*
X-24134Y911D01*
X-23998Y855D01*
X-23851Y854D01*
X-23715Y911D01*
X-23611Y1015D01*
X-23555Y1151D01*
X-23554Y1298D01*
X-23554Y-3300D01*
X-24604Y-3300D01*
X-24604Y-205D01*
X-24654Y-84D01*
X-24654Y1298D01*
X-24711Y1434D01*
X-24815Y1538D01*
X-24951Y1594D01*
X-25098Y1595D01*
X-25234Y1538D01*
X-25338Y1434D01*
X-25394Y1298D01*
X-25395Y1151D01*
X-25338Y1015D01*
X-25234Y911D01*
X-25098Y855D01*
X-24951Y854D01*
X-24815Y911D01*
X-24711Y1015D01*
X-24655Y1151D01*
X-24654Y1298D01*
X-24654Y-84D01*
X-24677Y-31D01*
X-24810Y102D01*
X-24985Y174D01*
X-25174Y175D01*
X-25348Y102D01*
X-25482Y-30D01*
X-25554Y-205D01*
X-25555Y-394D01*
X-25482Y-568D01*
X-25349Y-702D01*
X-25174Y-774D01*
X-24985Y-775D01*
X-24811Y-702D01*
X-24677Y-569D01*
X-24605Y-394D01*
X-24604Y-205D01*
X-24604Y-3300D01*
X-25819Y-3300D01*
X-25819Y-2276D01*
X-25876Y-2140D01*
X-25980Y-2036D01*
X-26116Y-1980D01*
X-26263Y-1979D01*
X-26399Y-2036D01*
X-26503Y-2140D01*
X-26559Y-2276D01*
X-26560Y-2423D01*
X-26503Y-2559D01*
X-26399Y-2663D01*
X-26263Y-2719D01*
X-26116Y-2720D01*
X-25980Y-2663D01*
X-25876Y-2559D01*
X-25820Y-2423D01*
X-25819Y-2276D01*
X-25819Y-3300D01*
X-26600Y-3300D01*
X-26600Y2200D01*
X-18052Y2200D01*
X-18164Y2153D01*
X-18268Y2049D01*
X-18324Y1913D01*
X-18325Y1766D01*
X-18268Y1630D01*
X-18164Y1526D01*
X-18028Y1470D01*
X-17881Y1469D01*
X-17745Y1526D01*
X-17641Y1630D01*
X-17585Y1766D01*
X-17584Y1913D01*
X-17641Y2049D01*
X-17745Y2153D01*
X-17857Y2200D01*
X-15141Y2200D01*
X-15191Y2179D01*
X-15334Y2037D01*
X-15411Y1851D01*
X-15411Y1649D01*
X-15334Y1463D01*
X-15192Y1321D01*
X-15020Y1249D01*
X-15191Y1179D01*
X-15334Y1037D01*
X-15411Y851D01*
X-15411Y649D01*
X-15334Y463D01*
X-15192Y321D01*
X-15006Y244D01*
X-14805Y243D01*
X-14619Y320D01*
X-14476Y463D01*
X-14413Y615D01*
X-14350Y463D01*
X-14208Y321D01*
X-14022Y244D01*
X-13821Y243D01*
X-13635Y320D01*
X-13492Y463D01*
X-13429Y615D01*
X-13366Y463D01*
X-13224Y321D01*
X-13038Y244D01*
X-12836Y243D01*
X-12650Y320D01*
X-12508Y463D01*
X-12436Y634D01*
X-12366Y463D01*
X-12224Y321D01*
X-12038Y244D01*
X-11836Y243D01*
X-11650Y320D01*
X-11508Y463D01*
X-11452Y596D01*
X-11397Y463D01*
X-11255Y321D01*
X-11100Y256D01*
X-11100Y-3370D01*
X-10270Y-4200D01*
X-9800Y-4200D01*
X-9800Y-4700D01*
X-9123Y-4700D01*
X-9213Y-4790D01*
X-9269Y-4926D01*
X-9270Y-5073D01*
X-9213Y-5209D01*
X-9109Y-5313D01*
X-8973Y-5369D01*
X-8826Y-5370D01*
X-8690Y-5313D01*
X-8586Y-5209D01*
X-8530Y-5073D01*
X-8529Y-4926D01*
X-8586Y-4790D01*
X-8676Y-4700D01*
X-8200Y-4700D01*
X-8200Y-5370D01*
X-8100Y-5470D01*
X-8100Y-7783D01*
G54D10*
G36*
X-10032Y-10374D02*
X-10059Y-10386D01*
X-10163Y-10490D01*
X-10219Y-10626D01*
X-10220Y-10773D01*
X-10212Y-10791D01*
X-10485Y-11064D01*
X-11020Y-11600D01*
X-12382Y-11600D01*
X-12344Y-11488D01*
X-12347Y-11450D01*
X-11479Y-11450D01*
X-11150Y-11120D01*
X-11150Y-10970D01*
X-10300Y-10120D01*
X-10225Y-10195D01*
X-10200Y-10171D01*
X-10163Y-10259D01*
X-10059Y-10363D01*
X-10032Y-10374D01*
X-10032Y-10374D01*
G37*
G54D21*
X-10032Y-10374D02*
X-10059Y-10386D01*
X-10163Y-10490D01*
X-10219Y-10626D01*
X-10220Y-10773D01*
X-10212Y-10791D01*
X-10485Y-11064D01*
X-11020Y-11600D01*
X-12382Y-11600D01*
X-12344Y-11488D01*
X-12347Y-11450D01*
X-11479Y-11450D01*
X-11150Y-11120D01*
X-11150Y-10970D01*
X-10300Y-10120D01*
X-10225Y-10195D01*
X-10200Y-10171D01*
X-10163Y-10259D01*
X-10059Y-10363D01*
X-10032Y-10374D01*
G54D10*
G36*
X-5950Y-14370D02*
X-7059Y-14370D01*
X-7500Y-13929D01*
X-7500Y-12470D01*
X-7300Y-12270D01*
X-7300Y-11821D01*
X-7263Y-11909D01*
X-7219Y-11953D01*
X-7220Y-12098D01*
X-7163Y-12234D01*
X-7059Y-12338D01*
X-6923Y-12394D01*
X-6776Y-12395D01*
X-6640Y-12338D01*
X-6536Y-12234D01*
X-6480Y-12098D01*
X-6479Y-11951D01*
X-6536Y-11815D01*
X-6580Y-11771D01*
X-6579Y-11653D01*
X-6486Y-11559D01*
X-6430Y-11423D01*
X-6430Y-11390D01*
X-6000Y-11820D01*
X-6000Y-13320D01*
X-5950Y-13370D01*
X-5950Y-14370D01*
X-5950Y-14370D01*
G37*
G54D21*
X-5950Y-14370D02*
X-7059Y-14370D01*
X-7500Y-13929D01*
X-7500Y-12470D01*
X-7300Y-12270D01*
X-7300Y-11821D01*
X-7263Y-11909D01*
X-7219Y-11953D01*
X-7220Y-12098D01*
X-7163Y-12234D01*
X-7059Y-12338D01*
X-6923Y-12394D01*
X-6776Y-12395D01*
X-6640Y-12338D01*
X-6536Y-12234D01*
X-6480Y-12098D01*
X-6479Y-11951D01*
X-6536Y-11815D01*
X-6580Y-11771D01*
X-6579Y-11653D01*
X-6486Y-11559D01*
X-6430Y-11423D01*
X-6430Y-11390D01*
X-6000Y-11820D01*
X-6000Y-13320D01*
X-5950Y-13370D01*
X-5950Y-14370D01*
G54D10*
G36*
X-5936Y-4350D02*
X-6050Y-4350D01*
X-6050Y-4979D01*
X-6130Y-5059D01*
X-6129Y-4986D01*
X-6178Y-4868D01*
X-6268Y-4778D01*
X-6386Y-4730D01*
X-6513Y-4729D01*
X-6631Y-4778D01*
X-6721Y-4868D01*
X-6769Y-4986D01*
X-6770Y-5113D01*
X-6721Y-5231D01*
X-6631Y-5321D01*
X-6513Y-5369D01*
X-6440Y-5370D01*
X-6800Y-5729D01*
X-6800Y-10979D01*
X-6873Y-10979D01*
X-7009Y-11036D01*
X-7113Y-11140D01*
X-7169Y-11276D01*
X-7170Y-11396D01*
X-7263Y-11490D01*
X-7279Y-11529D01*
X-7279Y-11476D01*
X-7300Y-11428D01*
X-7300Y-11250D01*
X-7426Y-11250D01*
X-7440Y-11236D01*
X-7576Y-11180D01*
X-7723Y-11179D01*
X-7859Y-11236D01*
X-7873Y-11250D01*
X-8350Y-11250D01*
X-8350Y-10750D01*
X-9480Y-10750D01*
X-9479Y-10626D01*
X-9536Y-10490D01*
X-9640Y-10386D01*
X-9667Y-10375D01*
X-9640Y-10363D01*
X-9536Y-10259D01*
X-9480Y-10123D01*
X-9479Y-9976D01*
X-9536Y-9840D01*
X-9626Y-9750D01*
X-9600Y-9750D01*
X-9600Y-9700D01*
X-9429Y-9700D01*
X-7779Y-8050D01*
X-7700Y-8050D01*
X-7700Y-5420D01*
X-7350Y-5070D01*
X-7350Y-4970D01*
X-7250Y-4870D01*
X-7250Y-3820D01*
X-6979Y-3550D01*
X-6850Y-3550D01*
X-6850Y-2950D01*
X-6200Y-2950D01*
X-6200Y-3950D01*
X-6174Y-4076D01*
X-6103Y-4183D01*
X-5936Y-4350D01*
X-5936Y-4350D01*
G37*
G54D21*
X-5936Y-4350D02*
X-6050Y-4350D01*
X-6050Y-4979D01*
X-6130Y-5059D01*
X-6129Y-4986D01*
X-6178Y-4868D01*
X-6268Y-4778D01*
X-6386Y-4730D01*
X-6513Y-4729D01*
X-6631Y-4778D01*
X-6721Y-4868D01*
X-6769Y-4986D01*
X-6770Y-5113D01*
X-6721Y-5231D01*
X-6631Y-5321D01*
X-6513Y-5369D01*
X-6440Y-5370D01*
X-6800Y-5729D01*
X-6800Y-10979D01*
X-6873Y-10979D01*
X-7009Y-11036D01*
X-7113Y-11140D01*
X-7169Y-11276D01*
X-7170Y-11396D01*
X-7263Y-11490D01*
X-7279Y-11529D01*
X-7279Y-11476D01*
X-7300Y-11428D01*
X-7300Y-11250D01*
X-7426Y-11250D01*
X-7440Y-11236D01*
X-7576Y-11180D01*
X-7723Y-11179D01*
X-7859Y-11236D01*
X-7873Y-11250D01*
X-8350Y-11250D01*
X-8350Y-10750D01*
X-9480Y-10750D01*
X-9479Y-10626D01*
X-9536Y-10490D01*
X-9640Y-10386D01*
X-9667Y-10375D01*
X-9640Y-10363D01*
X-9536Y-10259D01*
X-9480Y-10123D01*
X-9479Y-9976D01*
X-9536Y-9840D01*
X-9626Y-9750D01*
X-9600Y-9750D01*
X-9600Y-9700D01*
X-9429Y-9700D01*
X-7779Y-8050D01*
X-7700Y-8050D01*
X-7700Y-5420D01*
X-7350Y-5070D01*
X-7350Y-4970D01*
X-7250Y-4870D01*
X-7250Y-3820D01*
X-6979Y-3550D01*
X-6850Y-3550D01*
X-6850Y-2950D01*
X-6200Y-2950D01*
X-6200Y-3950D01*
X-6174Y-4076D01*
X-6103Y-4183D01*
X-5936Y-4350D01*
G54D10*
G36*
X-3050Y-4350D02*
X-3862Y-4350D01*
X-3886Y-4340D01*
X-4033Y-4339D01*
X-4057Y-4350D01*
X-5003Y-4350D01*
X-5540Y-3813D01*
X-5540Y-2950D01*
X-5529Y-2950D01*
X-5429Y-2850D01*
X-5220Y-2850D01*
X-5020Y-3050D01*
X-4120Y-3050D01*
X-3700Y-3470D01*
X-3700Y-3850D01*
X-3050Y-3850D01*
X-3050Y-4350D01*
X-3050Y-4350D01*
G37*
G54D21*
X-3050Y-4350D02*
X-3862Y-4350D01*
X-3886Y-4340D01*
X-4033Y-4339D01*
X-4057Y-4350D01*
X-5003Y-4350D01*
X-5540Y-3813D01*
X-5540Y-2950D01*
X-5529Y-2950D01*
X-5429Y-2850D01*
X-5220Y-2850D01*
X-5020Y-3050D01*
X-4120Y-3050D01*
X-3700Y-3470D01*
X-3700Y-3850D01*
X-3050Y-3850D01*
X-3050Y-4350D01*
G54D10*
G36*
X-10198Y-11630D02*
X-10269Y-11701D01*
X-10275Y-11695D01*
X-10280Y-11701D01*
X-10351Y-11630D01*
X-10345Y-11625D01*
X-10351Y-11619D01*
X-10280Y-11548D01*
X-10275Y-11554D01*
X-10269Y-11548D01*
X-10198Y-11619D01*
X-10204Y-11625D01*
X-10198Y-11630D01*
X-10198Y-11630D01*
G37*
G54D21*
X-10198Y-11630D02*
X-10269Y-11701D01*
X-10275Y-11695D01*
X-10280Y-11701D01*
X-10351Y-11630D01*
X-10345Y-11625D01*
X-10351Y-11619D01*
X-10280Y-11548D01*
X-10275Y-11554D01*
X-10269Y-11548D01*
X-10198Y-11619D01*
X-10204Y-11625D01*
X-10198Y-11630D01*
G54D10*
G36*
X-3150Y-5879D02*
X-4100Y-6829D01*
X-4100Y-7970D01*
X-3800Y-8270D01*
X-3800Y-14279D01*
X-4079Y-14559D01*
X-4079Y-13676D01*
X-4136Y-13540D01*
X-4240Y-13436D01*
X-4376Y-13380D01*
X-4523Y-13379D01*
X-4659Y-13436D01*
X-4763Y-13540D01*
X-4819Y-13676D01*
X-4820Y-13823D01*
X-4763Y-13959D01*
X-4659Y-14063D01*
X-4523Y-14119D01*
X-4376Y-14120D01*
X-4240Y-14063D01*
X-4136Y-13959D01*
X-4080Y-13823D01*
X-4079Y-13676D01*
X-4079Y-14559D01*
X-4470Y-14950D01*
X-7379Y-14950D01*
X-7950Y-14379D01*
X-7950Y-13429D01*
X-8179Y-13200D01*
X-8929Y-13200D01*
X-9300Y-12829D01*
X-9300Y-12350D01*
X-9529Y-12350D01*
X-9922Y-11956D01*
X-9897Y-11931D01*
X-9943Y-11885D01*
X-9855Y-11867D01*
X-9794Y-11688D01*
X-9807Y-11500D01*
X-9827Y-11450D01*
X-9470Y-11450D01*
X-9320Y-11600D01*
X-7900Y-11600D01*
X-7900Y-14120D01*
X-7270Y-14750D01*
X-5200Y-14750D01*
X-5200Y-12450D01*
X-5200Y-11520D01*
X-5150Y-11470D01*
X-5150Y-11070D01*
X-4700Y-10620D01*
X-4700Y-5979D01*
X-4850Y-5829D01*
X-4850Y-4979D01*
X-5129Y-4700D01*
X-3150Y-4700D01*
X-3150Y-5879D01*
X-3150Y-5879D01*
G37*
G54D21*
X-3150Y-5879D02*
X-4100Y-6829D01*
X-4100Y-7970D01*
X-3800Y-8270D01*
X-3800Y-14279D01*
X-4079Y-14559D01*
X-4079Y-13676D01*
X-4136Y-13540D01*
X-4240Y-13436D01*
X-4376Y-13380D01*
X-4523Y-13379D01*
X-4659Y-13436D01*
X-4763Y-13540D01*
X-4819Y-13676D01*
X-4820Y-13823D01*
X-4763Y-13959D01*
X-4659Y-14063D01*
X-4523Y-14119D01*
X-4376Y-14120D01*
X-4240Y-14063D01*
X-4136Y-13959D01*
X-4080Y-13823D01*
X-4079Y-13676D01*
X-4079Y-14559D01*
X-4470Y-14950D01*
X-7379Y-14950D01*
X-7950Y-14379D01*
X-7950Y-13429D01*
X-8179Y-13200D01*
X-8929Y-13200D01*
X-9300Y-12829D01*
X-9300Y-12350D01*
X-9529Y-12350D01*
X-9922Y-11956D01*
X-9897Y-11931D01*
X-9943Y-11885D01*
X-9855Y-11867D01*
X-9794Y-11688D01*
X-9807Y-11500D01*
X-9827Y-11450D01*
X-9470Y-11450D01*
X-9320Y-11600D01*
X-7900Y-11600D01*
X-7900Y-14120D01*
X-7270Y-14750D01*
X-5200Y-14750D01*
X-5200Y-12450D01*
X-5200Y-11520D01*
X-5150Y-11470D01*
X-5150Y-11070D01*
X-4700Y-10620D01*
X-4700Y-5979D01*
X-4850Y-5829D01*
X-4850Y-4979D01*
X-5129Y-4700D01*
X-3150Y-4700D01*
X-3150Y-5879D01*
M02*
