G04 (created by PCBNEW (2013-05-31 BZR 4019)-stable) date 12/30/2013 4:19:26 PM*
%MOIN*%
G04 Gerber Fmt 3.4, Leading zero omitted, Abs format*
%FSLAX34Y34*%
G01*
G70*
G90*
G04 APERTURE LIST*
%ADD10C,0.00590551*%
%ADD11R,0.037X0.062*%
%ADD12R,0.028X0.062*%
%ADD13R,0.037X0.057*%
%ADD14C,0.057*%
%ADD15R,0.0316X0.0434*%
%ADD16R,0.057X0.037*%
%ADD17R,0.0986X0.072*%
%ADD18O,0.0986X0.072*%
%ADD19C,0.0632*%
%ADD20C,0.192*%
%ADD21R,0.077X0.077*%
%ADD22R,0.0521575X0.147827*%
%ADD23R,0.062X0.037*%
G04 APERTURE END LIST*
G54D10*
G54D11*
X-23182Y-12700D03*
X-22863Y-12700D03*
X-23157Y-13700D03*
X-22838Y-13700D03*
X-4770Y-12000D03*
X-4450Y-12000D03*
X-4130Y-12000D03*
G54D12*
X-25010Y-13325D03*
X-24755Y-13325D03*
X-24495Y-13325D03*
X-24240Y-13325D03*
X-24240Y-15075D03*
X-24495Y-15075D03*
X-24755Y-15075D03*
X-25010Y-15075D03*
G54D11*
X-6202Y-11550D03*
X-5848Y-11550D03*
G54D13*
X-26275Y-15325D03*
X-25675Y-15325D03*
X-26275Y-13525D03*
X-25675Y-13525D03*
X-26275Y-14425D03*
X-25675Y-14425D03*
X-26275Y-12700D03*
X-25675Y-12700D03*
G54D14*
X-23000Y-14940D03*
X-9159Y-14340D03*
X-13350Y-15450D03*
X-7190Y-15760D03*
X-12825Y-11425D03*
X-25080Y-300D03*
G54D15*
X-1900Y-8050D03*
X-2275Y-8050D03*
X-2650Y-8050D03*
X-2650Y-9050D03*
X-2275Y-9050D03*
X-1900Y-9050D03*
X-1825Y-11600D03*
X-2200Y-11600D03*
X-2575Y-11600D03*
X-2575Y-12600D03*
X-2200Y-12600D03*
X-1825Y-12600D03*
X-1900Y-3900D03*
X-2275Y-3900D03*
X-2650Y-3900D03*
X-2650Y-4900D03*
X-2275Y-4900D03*
X-1900Y-4900D03*
G54D11*
X-16290Y-11070D03*
X-16610Y-11070D03*
X-16930Y-11070D03*
G54D16*
X-24030Y-310D03*
X-24030Y-910D03*
G54D14*
X-10275Y-11625D03*
G54D16*
X-3350Y-8275D03*
X-3350Y-8875D03*
X-3350Y-4100D03*
X-3350Y-4700D03*
X-3325Y-11825D03*
X-3325Y-12425D03*
G54D17*
X750Y-1750D03*
G54D18*
X750Y-2750D03*
X750Y-3750D03*
X750Y-4750D03*
X750Y-5750D03*
X750Y-6750D03*
X750Y-7750D03*
X750Y-8750D03*
X750Y-9750D03*
X750Y-10750D03*
X750Y-11750D03*
X750Y-12750D03*
X750Y-13750D03*
X750Y-14750D03*
G54D19*
X-11937Y1750D03*
X-11937Y750D03*
X-12937Y1750D03*
X-12937Y750D03*
X-13921Y750D03*
X-13921Y1750D03*
X-14905Y1750D03*
X-14905Y750D03*
X-10968Y750D03*
X-10968Y1750D03*
X-9984Y1750D03*
X-9984Y750D03*
G54D20*
X0Y-16500D03*
X-26000Y-17750D03*
X0Y0D03*
G54D21*
X-24000Y-18250D03*
G54D19*
X-24000Y-17250D03*
X-23000Y-18250D03*
X-23000Y-17250D03*
X-22000Y-18250D03*
X-22000Y-17250D03*
X-21000Y-18250D03*
X-21000Y-17250D03*
X-20000Y-18250D03*
X-20000Y-17250D03*
X-19000Y-18250D03*
X-19000Y-17250D03*
X-18000Y-18250D03*
X-18000Y-17250D03*
X-17000Y-18250D03*
X-17000Y-17250D03*
X-16000Y-18250D03*
X-16000Y-17250D03*
X-15000Y-18250D03*
X-15000Y-17250D03*
X-14000Y-18250D03*
X-14000Y-17250D03*
X-13000Y-18250D03*
X-13000Y-17250D03*
X-12000Y-18250D03*
X-12000Y-17250D03*
X-11000Y-18250D03*
X-11000Y-17250D03*
X-10000Y-18250D03*
X-10000Y-17250D03*
X-9000Y-18250D03*
X-9000Y-17250D03*
X-8000Y-18250D03*
X-8000Y-17250D03*
X-7000Y-18250D03*
X-7000Y-17250D03*
X-6000Y-18250D03*
X-6000Y-17250D03*
X-5000Y-18250D03*
X-5000Y-17250D03*
X-4000Y-18250D03*
X-4000Y-17250D03*
X-3000Y-18250D03*
X-3000Y-17250D03*
X-2000Y-18250D03*
X-2000Y-17250D03*
X-9000Y750D03*
X-9000Y1750D03*
X-8000Y750D03*
X-8000Y1750D03*
X-7000Y750D03*
X-7000Y1750D03*
X-6000Y750D03*
X-6000Y1750D03*
X-5000Y750D03*
X-5000Y1750D03*
X-4000Y750D03*
X-4000Y1750D03*
X-3000Y750D03*
X-3000Y1750D03*
X-2000Y750D03*
X-2000Y1750D03*
G54D22*
X-12750Y-1077D03*
X-12750Y-3222D03*
X-11750Y-1077D03*
X-11750Y-3222D03*
G54D23*
X-13825Y-7370D03*
X-13825Y-7050D03*
X-13825Y-6730D03*
G54D11*
X-13780Y-4375D03*
X-14100Y-4375D03*
X-14420Y-4375D03*
X-13780Y-650D03*
X-14100Y-650D03*
X-14420Y-650D03*
G54D23*
X-9275Y-7620D03*
X-9275Y-7300D03*
X-9275Y-6980D03*
M02*
