G04 (created by PCBNEW (2013-05-31 BZR 4019)-stable) date 12/30/2013 4:19:26 PM*
%MOIN*%
G04 Gerber Fmt 3.4, Leading zero omitted, Abs format*
%FSLAX34Y34*%
G01*
G70*
G90*
G04 APERTURE LIST*
%ADD10C,0.00590551*%
%ADD11R,0.025X0.05*%
%ADD12R,0.016X0.05*%
%ADD13R,0.025X0.045*%
%ADD14C,0.045*%
%ADD15R,0.0276X0.0394*%
%ADD16R,0.045X0.025*%
%ADD17R,0.0866X0.06*%
%ADD18O,0.0866X0.06*%
%ADD19C,0.0512*%
%ADD20C,0.18*%
%ADD21R,0.065X0.065*%
%ADD22R,0.0401575X0.135827*%
%ADD23R,0.05X0.025*%
%ADD24C,0.024*%
%ADD25C,0.014*%
%ADD26C,0.016*%
%ADD27C,0.008*%
%ADD28C,0.01*%
G04 APERTURE END LIST*
G54D10*
G54D11*
X-23182Y-12700D03*
X-22863Y-12700D03*
X-23157Y-13700D03*
X-22838Y-13700D03*
X-4770Y-12000D03*
X-4450Y-12000D03*
X-4130Y-12000D03*
G54D12*
X-25010Y-13325D03*
X-24755Y-13325D03*
X-24495Y-13325D03*
X-24240Y-13325D03*
X-24240Y-15075D03*
X-24495Y-15075D03*
X-24755Y-15075D03*
X-25010Y-15075D03*
G54D11*
X-6202Y-11550D03*
X-5848Y-11550D03*
G54D13*
X-26275Y-15325D03*
X-25675Y-15325D03*
X-26275Y-13525D03*
X-25675Y-13525D03*
X-26275Y-14425D03*
X-25675Y-14425D03*
X-26275Y-12700D03*
X-25675Y-12700D03*
G54D14*
X-23000Y-14940D03*
X-9159Y-14340D03*
X-13350Y-15450D03*
X-7190Y-15760D03*
X-12825Y-11425D03*
X-25080Y-300D03*
G54D15*
X-1900Y-8050D03*
X-2275Y-8050D03*
X-2650Y-8050D03*
X-2650Y-9050D03*
X-2275Y-9050D03*
X-1900Y-9050D03*
X-1825Y-11600D03*
X-2200Y-11600D03*
X-2575Y-11600D03*
X-2575Y-12600D03*
X-2200Y-12600D03*
X-1825Y-12600D03*
X-1900Y-3900D03*
X-2275Y-3900D03*
X-2650Y-3900D03*
X-2650Y-4900D03*
X-2275Y-4900D03*
X-1900Y-4900D03*
G54D11*
X-16290Y-11070D03*
X-16610Y-11070D03*
X-16930Y-11070D03*
G54D16*
X-24030Y-310D03*
X-24030Y-910D03*
G54D14*
X-10275Y-11625D03*
G54D16*
X-3350Y-8275D03*
X-3350Y-8875D03*
X-3350Y-4100D03*
X-3350Y-4700D03*
X-3325Y-11825D03*
X-3325Y-12425D03*
G54D17*
X750Y-1750D03*
G54D18*
X750Y-2750D03*
X750Y-3750D03*
X750Y-4750D03*
X750Y-5750D03*
X750Y-6750D03*
X750Y-7750D03*
X750Y-8750D03*
X750Y-9750D03*
X750Y-10750D03*
X750Y-11750D03*
X750Y-12750D03*
X750Y-13750D03*
X750Y-14750D03*
G54D19*
X-11937Y1750D03*
X-11937Y750D03*
X-12937Y1750D03*
X-12937Y750D03*
X-13921Y750D03*
X-13921Y1750D03*
X-14905Y1750D03*
X-14905Y750D03*
X-10968Y750D03*
X-10968Y1750D03*
X-9984Y1750D03*
X-9984Y750D03*
G54D20*
X0Y-16500D03*
X-26000Y-17750D03*
X0Y0D03*
G54D21*
X-24000Y-18250D03*
G54D19*
X-24000Y-17250D03*
X-23000Y-18250D03*
X-23000Y-17250D03*
X-22000Y-18250D03*
X-22000Y-17250D03*
X-21000Y-18250D03*
X-21000Y-17250D03*
X-20000Y-18250D03*
X-20000Y-17250D03*
X-19000Y-18250D03*
X-19000Y-17250D03*
X-18000Y-18250D03*
X-18000Y-17250D03*
X-17000Y-18250D03*
X-17000Y-17250D03*
X-16000Y-18250D03*
X-16000Y-17250D03*
X-15000Y-18250D03*
X-15000Y-17250D03*
X-14000Y-18250D03*
X-14000Y-17250D03*
X-13000Y-18250D03*
X-13000Y-17250D03*
X-12000Y-18250D03*
X-12000Y-17250D03*
X-11000Y-18250D03*
X-11000Y-17250D03*
X-10000Y-18250D03*
X-10000Y-17250D03*
X-9000Y-18250D03*
X-9000Y-17250D03*
X-8000Y-18250D03*
X-8000Y-17250D03*
X-7000Y-18250D03*
X-7000Y-17250D03*
X-6000Y-18250D03*
X-6000Y-17250D03*
X-5000Y-18250D03*
X-5000Y-17250D03*
X-4000Y-18250D03*
X-4000Y-17250D03*
X-3000Y-18250D03*
X-3000Y-17250D03*
X-2000Y-18250D03*
X-2000Y-17250D03*
X-9000Y750D03*
X-9000Y1750D03*
X-8000Y750D03*
X-8000Y1750D03*
X-7000Y750D03*
X-7000Y1750D03*
X-6000Y750D03*
X-6000Y1750D03*
X-5000Y750D03*
X-5000Y1750D03*
X-4000Y750D03*
X-4000Y1750D03*
X-3000Y750D03*
X-3000Y1750D03*
X-2000Y750D03*
X-2000Y1750D03*
G54D22*
X-12750Y-1077D03*
X-12750Y-3222D03*
X-11750Y-1077D03*
X-11750Y-3222D03*
G54D23*
X-13825Y-7370D03*
X-13825Y-7050D03*
X-13825Y-6730D03*
G54D11*
X-13780Y-4375D03*
X-14100Y-4375D03*
X-14420Y-4375D03*
X-13780Y-650D03*
X-14100Y-650D03*
X-14420Y-650D03*
G54D23*
X-9275Y-7620D03*
X-9275Y-7300D03*
X-9275Y-6980D03*
G54D24*
X-6850Y-14200D03*
X-7150Y-5200D03*
X-7310Y-7950D03*
X-3940Y-4090D03*
X-5340Y-3140D03*
X-9500Y-5700D03*
X-17550Y-2550D03*
X-9950Y-8800D03*
X-21100Y-5500D03*
X-14250Y-12150D03*
X-17150Y-12100D03*
X-16630Y-10530D03*
X-20525Y-14875D03*
X-15190Y-8820D03*
X-15630Y-10530D03*
X-15490Y-9470D03*
X-21660Y-3810D03*
X-20370Y-6630D03*
X-18910Y-14870D03*
X-7650Y-11550D03*
X-9300Y-12150D03*
X-4150Y-10850D03*
X-4120Y-8890D03*
X-8990Y-920D03*
X-7230Y-1960D03*
X-6550Y-1960D03*
X-3960Y-4710D03*
X-5870Y-1950D03*
X-13350Y-7050D03*
X-12150Y-5875D03*
X-6800Y-11350D03*
X-5550Y-11025D03*
X-8700Y-7325D03*
X-11775Y-4450D03*
X-14100Y-4925D03*
X-5550Y-8875D03*
X-6850Y-12025D03*
G54D25*
X-6450Y-5050D03*
G54D24*
X-23925Y1225D03*
X-19400Y1200D03*
X-17955Y1840D03*
X-25025Y1225D03*
X-15410Y-11650D03*
X-18075Y-3825D03*
X-19750Y-6875D03*
X-16275Y-5400D03*
X-15750Y-4175D03*
X-13512Y-5037D03*
X-13025Y-4275D03*
X-15800Y-6775D03*
X-13525Y-5675D03*
X-18500Y-5675D03*
X-17525Y-4350D03*
X-17775Y-4050D03*
X-18700Y-5925D03*
X-11410Y-10310D03*
X-13970Y-9070D03*
X-14730Y-8550D03*
X-14375Y-7375D03*
X-14375Y-6725D03*
X-16650Y-7750D03*
X-13325Y-7925D03*
X-11100Y-5550D03*
X-15050Y-9250D03*
X-14250Y-10600D03*
X-1150Y-13250D03*
X-1350Y-12025D03*
X-1200Y-10775D03*
X-1325Y-9600D03*
X-1325Y-8450D03*
X-1075Y-7225D03*
X-1325Y-6050D03*
X-1075Y-4300D03*
X-600Y-2225D03*
X-9850Y-10700D03*
X-6950Y-11700D03*
X-8650Y-6950D03*
X-9550Y-6150D03*
X-10800Y-4900D03*
X-8900Y-5000D03*
X-9850Y-10050D03*
X-10950Y-6750D03*
X-11450Y-7400D03*
X-11250Y-7650D03*
X-10900Y-7650D03*
X-10900Y-9950D03*
X-15250Y-7770D03*
X-11770Y-2130D03*
X-17310Y-1030D03*
X-16750Y50D03*
X-26190Y-2350D03*
X-19330Y-1760D03*
X-17000Y-13550D03*
X-16550Y-14550D03*
X-16450Y-13800D03*
X-14600Y-13900D03*
X-16300Y-11750D03*
X-17410Y-11270D03*
X-19750Y-6450D03*
X-21660Y-7460D03*
X-19710Y-13060D03*
X-21870Y-13570D03*
X-20750Y-3550D03*
X-18370Y-8770D03*
X-13200Y-13650D03*
X-12800Y-15900D03*
X-10900Y-16490D03*
X-19250Y-4920D03*
X-12875Y-2225D03*
X-15490Y-14110D03*
X-18370Y-16110D03*
X-17200Y-16100D03*
X-18020Y-8390D03*
X-18070Y-10910D03*
X-14850Y-14110D03*
X-14830Y-15750D03*
X-18270Y-7450D03*
X-17710Y-6610D03*
X-21030Y-15650D03*
X-17150Y-15650D03*
X-16400Y-8350D03*
X-15900Y-11000D03*
X-17000Y-8450D03*
X-14450Y-4925D03*
X-11450Y-5275D03*
X-15880Y-5740D03*
X-8480Y-16410D03*
X-8700Y-6010D03*
X-4450Y-13750D03*
X-2900Y-13250D03*
X-17250Y-7350D03*
X-18337Y-2562D03*
X-9100Y-6350D03*
X-15050Y-16350D03*
X-20200Y-9810D03*
X-21980Y-1460D03*
X-23050Y-2190D03*
X-17425Y-15400D03*
X-20160Y-11140D03*
X-17150Y-15200D03*
X-22790Y-4220D03*
X-20170Y-10680D03*
X-21275Y-950D03*
X-19200Y-4060D03*
X-20190Y-10250D03*
X-21250Y-325D03*
X-18015Y-11395D03*
X-17380Y-8890D03*
G54D26*
X-4620Y-4770D02*
X-6720Y-4770D01*
X-6720Y-4770D02*
X-7150Y-5200D01*
X-3325Y-11825D02*
X-3325Y-10775D01*
X-4125Y-8275D02*
X-3350Y-8275D01*
X-4450Y-8600D02*
X-4125Y-8275D01*
X-4450Y-10250D02*
X-4450Y-8600D01*
X-4250Y-10450D02*
X-4450Y-10250D01*
X-3650Y-10450D02*
X-4250Y-10450D01*
X-3325Y-10775D02*
X-3650Y-10450D01*
X-3350Y-8275D02*
X-3350Y-6420D01*
X-3350Y-6420D02*
X-3860Y-5910D01*
X-3860Y-5910D02*
X-4350Y-5910D01*
X-4350Y-5910D02*
X-4620Y-5640D01*
X-4620Y-5640D02*
X-4620Y-4770D01*
X-4620Y-4770D02*
X-3940Y-4090D01*
X-3350Y-4100D02*
X-3930Y-4100D01*
X-3930Y-4100D02*
X-3940Y-4090D01*
G54D27*
X-2275Y-8050D02*
X-2275Y-8375D01*
X-2275Y-8375D02*
X-2350Y-8450D01*
X-2350Y-8450D02*
X-3175Y-8450D01*
X-3175Y-8450D02*
X-3350Y-8275D01*
X-2200Y-11600D02*
X-2200Y-11825D01*
X-3175Y-11975D02*
X-3325Y-11825D01*
X-2350Y-11975D02*
X-3175Y-11975D01*
X-2200Y-11825D02*
X-2350Y-11975D01*
X-2275Y-3900D02*
X-2275Y-4175D01*
X-3150Y-4300D02*
X-3350Y-4100D01*
X-2400Y-4300D02*
X-3150Y-4300D01*
X-2275Y-4175D02*
X-2400Y-4300D01*
X-23000Y-17250D02*
X-23000Y-17240D01*
X-26275Y-15685D02*
X-26275Y-15325D01*
X-26120Y-15840D02*
X-26275Y-15685D01*
X-24400Y-15840D02*
X-26120Y-15840D01*
X-23000Y-17240D02*
X-24400Y-15840D01*
X-25010Y-15075D02*
X-25095Y-15075D01*
X-25095Y-15075D02*
X-25280Y-14890D01*
X-25280Y-14890D02*
X-25840Y-14890D01*
X-25840Y-14890D02*
X-26275Y-15325D01*
X-26275Y-13525D02*
X-26275Y-12700D01*
X-26275Y-14425D02*
X-26275Y-13525D01*
X-26275Y-15325D02*
X-26275Y-14425D01*
X-9275Y-8125D02*
X-9950Y-8800D01*
X-9275Y-8125D02*
X-9275Y-7620D01*
X-16290Y-11070D02*
X-16290Y-10690D01*
X-16450Y-10530D02*
X-16630Y-10530D01*
X-16290Y-10690D02*
X-16450Y-10530D01*
G54D26*
X-3325Y-12425D02*
X-3675Y-12425D01*
X-3675Y-12425D02*
X-3800Y-12300D01*
X-3800Y-12300D02*
X-3800Y-11500D01*
X-3800Y-11500D02*
X-3900Y-11400D01*
X-3900Y-11400D02*
X-4050Y-11400D01*
X-4050Y-11400D02*
X-4150Y-11300D01*
X-4150Y-11300D02*
X-4150Y-10850D01*
X-3350Y-8875D02*
X-4105Y-8875D01*
X-4105Y-8875D02*
X-4120Y-8890D01*
X-3350Y-4700D02*
X-3950Y-4700D01*
X-3950Y-4700D02*
X-3960Y-4710D01*
G54D27*
X-2275Y-9050D02*
X-2275Y-8775D01*
X-3175Y-8700D02*
X-3350Y-8875D01*
X-2350Y-8700D02*
X-3175Y-8700D01*
X-2275Y-8775D02*
X-2350Y-8700D01*
X-2200Y-12600D02*
X-2200Y-12400D01*
X-3125Y-12225D02*
X-3325Y-12425D01*
X-2375Y-12225D02*
X-3125Y-12225D01*
X-2200Y-12400D02*
X-2375Y-12225D01*
X-2275Y-4900D02*
X-2275Y-4600D01*
X-3150Y-4500D02*
X-3350Y-4700D01*
X-2375Y-4500D02*
X-3150Y-4500D01*
X-2275Y-4600D02*
X-2375Y-4500D01*
X-25010Y-13325D02*
X-25010Y-14060D01*
X-25375Y-14425D02*
X-25675Y-14425D01*
X-25010Y-14060D02*
X-25375Y-14425D01*
X-24755Y-13325D02*
X-24755Y-12885D01*
X-25370Y-13220D02*
X-25675Y-13525D01*
X-25370Y-12990D02*
X-25370Y-13220D01*
X-25230Y-12850D02*
X-25370Y-12990D01*
X-24790Y-12850D02*
X-25230Y-12850D01*
X-24755Y-12885D02*
X-24790Y-12850D01*
X-24755Y-13325D02*
X-24755Y-14145D01*
X-23157Y-14037D02*
X-23157Y-13700D01*
X-23440Y-14320D02*
X-23157Y-14037D01*
X-24580Y-14320D02*
X-23440Y-14320D01*
X-24755Y-14145D02*
X-24580Y-14320D01*
X-23520Y-13038D02*
X-23182Y-12700D01*
X-25675Y-12700D02*
X-25470Y-12700D01*
X-24495Y-12785D02*
X-24495Y-13325D01*
X-24730Y-12550D02*
X-24495Y-12785D01*
X-25320Y-12550D02*
X-24730Y-12550D01*
X-25470Y-12700D02*
X-25320Y-12550D01*
X-24495Y-13325D02*
X-24495Y-13985D01*
X-23520Y-13760D02*
X-23520Y-13038D01*
X-23840Y-14080D02*
X-23520Y-13760D01*
X-24400Y-14080D02*
X-23840Y-14080D01*
X-24495Y-13985D02*
X-24400Y-14080D01*
X-13350Y-6875D02*
X-13350Y-7050D01*
X-12350Y-5875D02*
X-13350Y-6875D01*
X-12150Y-5875D02*
X-12350Y-5875D01*
X-13825Y-7050D02*
X-13350Y-7050D01*
X-6202Y-11550D02*
X-6600Y-11550D01*
X-6600Y-11550D02*
X-6800Y-11350D01*
X-5550Y-11275D02*
X-5550Y-11475D01*
X-5550Y-11025D02*
X-5550Y-11275D01*
X-5625Y-11550D02*
X-5848Y-11550D01*
X-5550Y-11475D02*
X-5625Y-11550D01*
X-8725Y-7300D02*
X-9275Y-7300D01*
X-8700Y-7325D02*
X-8725Y-7300D01*
X-12275Y-4175D02*
X-12275Y-4200D01*
X-12275Y-4175D02*
X-12275Y-2175D01*
X-14100Y-1850D02*
X-14100Y-650D01*
X-14000Y-1950D02*
X-14100Y-1850D01*
X-12500Y-1950D02*
X-14000Y-1950D01*
X-12275Y-2175D02*
X-12500Y-1950D01*
X-12025Y-4450D02*
X-11775Y-4450D01*
X-12275Y-4200D02*
X-12025Y-4450D01*
X-13780Y-650D02*
X-13177Y-650D01*
X-13177Y-650D02*
X-12750Y-1077D01*
X-14100Y-4375D02*
X-14100Y-4925D01*
G54D28*
X-5125Y-9300D02*
X-5550Y-8875D01*
X-5125Y-11475D02*
X-5125Y-9300D01*
X-5650Y-12000D02*
X-5125Y-11475D01*
X-6825Y-12000D02*
X-5650Y-12000D01*
X-6850Y-12025D02*
X-6825Y-12000D01*
G54D27*
X-4770Y-12000D02*
X-4770Y-8930D01*
X-5450Y-6050D02*
X-6450Y-5050D01*
X-5450Y-8250D02*
X-5450Y-6050D01*
X-4770Y-8930D02*
X-5450Y-8250D01*
G54D28*
X750Y-12750D02*
X50Y-12750D01*
X-2575Y-13300D02*
X-2575Y-12600D01*
X-2225Y-13650D02*
X-2575Y-13300D01*
X-850Y-13650D02*
X-2225Y-13650D01*
X50Y-12750D02*
X-850Y-13650D01*
G54D27*
X750Y-2750D02*
X-325Y-2750D01*
X-1475Y-3900D02*
X-1900Y-3900D01*
X-325Y-2750D02*
X-1475Y-3900D01*
X750Y-1750D02*
X-950Y-1750D01*
X-2650Y-3450D02*
X-2650Y-3900D01*
X-950Y-1750D02*
X-2650Y-3450D01*
X750Y-4750D02*
X150Y-4750D01*
X-2650Y-5125D02*
X-2650Y-4900D01*
X-2525Y-5250D02*
X-2650Y-5125D01*
X-350Y-5250D02*
X-2525Y-5250D01*
X150Y-4750D02*
X-350Y-5250D01*
X750Y-3750D02*
X200Y-3750D01*
X-950Y-4900D02*
X-1900Y-4900D01*
X200Y-3750D02*
X-950Y-4900D01*
X750Y-5750D02*
X-275Y-5750D01*
X-2650Y-7350D02*
X-2650Y-8050D01*
X-2025Y-6725D02*
X-2650Y-7350D01*
X-1250Y-6725D02*
X-2025Y-6725D01*
X-275Y-5750D02*
X-1250Y-6725D01*
X750Y-6750D02*
X525Y-6750D01*
X-775Y-8050D02*
X-1900Y-8050D01*
X525Y-6750D02*
X-775Y-8050D01*
X750Y-7750D02*
X350Y-7750D01*
X-950Y-9050D02*
X-1900Y-9050D01*
X350Y-7750D02*
X-950Y-9050D01*
X750Y-8750D02*
X250Y-8750D01*
X-2650Y-9750D02*
X-2650Y-9050D01*
X-2375Y-10025D02*
X-2650Y-9750D01*
X-1025Y-10025D02*
X-2375Y-10025D01*
X250Y-8750D02*
X-1025Y-10025D01*
X750Y-9750D02*
X500Y-9750D01*
X-2575Y-11325D02*
X-2575Y-11600D01*
X-2400Y-11150D02*
X-2575Y-11325D01*
X-900Y-11150D02*
X-2400Y-11150D01*
X500Y-9750D02*
X-900Y-11150D01*
X750Y-10750D02*
X25Y-10750D01*
X-825Y-11600D02*
X-1825Y-11600D01*
X25Y-10750D02*
X-825Y-11600D01*
X750Y-11750D02*
X-250Y-11750D01*
X-1100Y-12600D02*
X-1825Y-12600D01*
X-250Y-11750D02*
X-1100Y-12600D01*
X-24030Y-310D02*
X-25070Y-310D01*
X-25070Y-310D02*
X-25080Y-300D01*
X-19425Y1225D02*
X-23925Y1225D01*
X-19400Y1200D02*
X-19425Y1225D01*
X-17955Y1840D02*
X-18260Y1840D01*
X-19155Y660D02*
X-24760Y660D01*
X-24760Y660D02*
X-25025Y925D01*
X-25025Y925D02*
X-25025Y1225D01*
X-18610Y1205D02*
X-19155Y660D01*
X-18610Y1490D02*
X-18610Y1205D01*
X-18260Y1840D02*
X-18610Y1490D01*
X-16610Y-11070D02*
X-16610Y-11330D01*
X-15610Y-11450D02*
X-15410Y-11650D01*
X-16490Y-11450D02*
X-15610Y-11450D01*
X-16610Y-11330D02*
X-16490Y-11450D01*
X-18075Y-4123D02*
X-18075Y-3825D01*
X-19000Y-5048D02*
X-18075Y-4123D01*
X-19000Y-6125D02*
X-19000Y-5048D01*
X-19750Y-6875D02*
X-19000Y-6125D01*
X-15750Y-4875D02*
X-16275Y-5400D01*
X-15750Y-4300D02*
X-15750Y-4875D01*
X-15750Y-4175D02*
X-15750Y-4300D01*
X-13025Y-4275D02*
X-13300Y-4550D01*
X-13300Y-4550D02*
X-13300Y-4825D01*
X-13300Y-4825D02*
X-13512Y-5037D01*
X-15025Y-6000D02*
X-15800Y-6775D01*
X-13850Y-6000D02*
X-15025Y-6000D01*
X-13525Y-5675D02*
X-13850Y-6000D01*
X-18500Y-5675D02*
X-18525Y-5675D01*
X-18664Y-5166D02*
X-17848Y-4350D01*
X-18664Y-5535D02*
X-18664Y-5166D01*
X-18525Y-5675D02*
X-18664Y-5535D01*
X-17848Y-4350D02*
X-17525Y-4350D01*
X-18825Y-5100D02*
X-17775Y-4050D01*
X-18700Y-5925D02*
X-18825Y-5800D01*
X-18825Y-5800D02*
X-18825Y-5100D01*
X-4000Y-17250D02*
X-4000Y-17440D01*
X-4000Y-17440D02*
X-4350Y-17790D01*
X-4350Y-17790D02*
X-7190Y-17790D01*
X-7190Y-17790D02*
X-7530Y-17450D01*
X-7530Y-17450D02*
X-7530Y-16970D01*
X-7530Y-16970D02*
X-8350Y-16150D01*
X-8350Y-16150D02*
X-9530Y-16150D01*
X-9530Y-16150D02*
X-11410Y-14270D01*
X-11410Y-14270D02*
X-11410Y-10310D01*
X-13970Y-9070D02*
X-14090Y-9190D01*
X-14090Y-9190D02*
X-14490Y-9190D01*
X-14490Y-9190D02*
X-14730Y-8950D01*
X-14730Y-8950D02*
X-14730Y-8550D01*
X-13825Y-7370D02*
X-14370Y-7370D01*
X-14370Y-7370D02*
X-14375Y-7375D01*
X-13825Y-6730D02*
X-14370Y-6730D01*
X-14370Y-6730D02*
X-14375Y-6725D01*
X-11250Y-17000D02*
X-11000Y-17250D01*
X-11250Y-15550D02*
X-11250Y-17000D01*
X-12075Y-14725D02*
X-11250Y-15550D01*
X-12075Y-9100D02*
X-12075Y-14725D01*
X-13000Y-8175D02*
X-12075Y-9100D01*
X-16225Y-8175D02*
X-13000Y-8175D01*
X-16650Y-7750D02*
X-16225Y-8175D01*
X-11100Y-5550D02*
X-11100Y-6350D01*
X-12900Y-7925D02*
X-13325Y-7925D01*
X-12800Y-7825D02*
X-12900Y-7925D01*
X-12800Y-7075D02*
X-12800Y-7825D01*
X-12200Y-6475D02*
X-12800Y-7075D01*
X-11225Y-6475D02*
X-12200Y-6475D01*
X-11100Y-6350D02*
X-11225Y-6475D01*
X-11100Y-5550D02*
X-11100Y-275D01*
X-12462Y1225D02*
X-12937Y750D01*
X-11575Y1225D02*
X-12462Y1225D01*
X-11450Y1100D02*
X-11575Y1225D01*
X-11450Y75D02*
X-11450Y1100D01*
X-11100Y-275D02*
X-11450Y75D01*
X-24755Y-15075D02*
X-24755Y-14655D01*
X-23350Y-14590D02*
X-23000Y-14940D01*
X-24690Y-14590D02*
X-23350Y-14590D01*
X-24755Y-14655D02*
X-24690Y-14590D01*
X-24755Y-15075D02*
X-24755Y-15565D01*
X-25430Y-15570D02*
X-25675Y-15325D01*
X-24760Y-15570D02*
X-25430Y-15570D01*
X-24755Y-15565D02*
X-24760Y-15570D01*
X-8680Y-6980D02*
X-9275Y-6980D01*
X-8650Y-6950D02*
X-8680Y-6980D01*
X-14420Y-650D02*
X-14420Y-280D01*
X-14750Y50D02*
X-16750Y50D01*
X-14420Y-280D02*
X-14750Y50D01*
X-24030Y-910D02*
X-24030Y-1960D01*
X-24420Y-2350D02*
X-26190Y-2350D01*
X-24030Y-1960D02*
X-24420Y-2350D01*
X-22838Y-13700D02*
X-22000Y-13700D01*
X-22000Y-13700D02*
X-21870Y-13570D01*
X-24240Y-13325D02*
X-24240Y-12890D01*
X-22863Y-12287D02*
X-22863Y-12700D01*
X-23000Y-12150D02*
X-22863Y-12287D01*
X-23500Y-12150D02*
X-23000Y-12150D01*
X-24240Y-12890D02*
X-23500Y-12150D01*
X-22838Y-13700D02*
X-22838Y-12725D01*
X-22838Y-12725D02*
X-22863Y-12700D01*
X-16930Y-11070D02*
X-17210Y-11070D01*
X-17210Y-11070D02*
X-17410Y-11270D01*
X-13600Y-2250D02*
X-13780Y-2430D01*
X-13780Y-2430D02*
X-13780Y-4375D01*
X-12900Y-2250D02*
X-13600Y-2250D01*
X-12875Y-2225D02*
X-12900Y-2250D01*
X-18330Y-11170D02*
X-18070Y-10910D01*
X-18330Y-12970D02*
X-18330Y-11170D01*
X-17210Y-14090D02*
X-18330Y-12970D01*
X-15510Y-14090D02*
X-17210Y-14090D01*
X-15490Y-14110D02*
X-15510Y-14090D01*
X-18370Y-16110D02*
X-23800Y-16110D01*
X-17200Y-16100D02*
X-18360Y-16100D01*
X-18360Y-16100D02*
X-18370Y-16110D01*
X-24495Y-15075D02*
X-24495Y-15415D01*
X-24495Y-15415D02*
X-23800Y-16110D01*
X-18020Y-8390D02*
X-17960Y-8450D01*
X-17960Y-8450D02*
X-17960Y-10800D01*
X-17960Y-10800D02*
X-18070Y-10910D01*
X-14790Y-14170D02*
X-14850Y-14110D01*
X-14790Y-15710D02*
X-14790Y-14170D01*
X-14830Y-15750D02*
X-14790Y-15710D01*
X-18270Y-7450D02*
X-17710Y-6890D01*
X-17710Y-6890D02*
X-17710Y-6610D01*
X-21030Y-15650D02*
X-23970Y-15650D01*
X-23970Y-15650D02*
X-24240Y-15380D01*
X-24240Y-15380D02*
X-24240Y-15075D01*
X-17150Y-15650D02*
X-21030Y-15650D01*
X-16400Y-8350D02*
X-17000Y-7750D01*
X-17000Y-7750D02*
X-17100Y-7750D01*
X-17100Y-7750D02*
X-17250Y-7900D01*
X-15900Y-11000D02*
X-16000Y-10900D01*
X-16000Y-10900D02*
X-16000Y-10750D01*
X-16000Y-10750D02*
X-16100Y-10650D01*
X-16100Y-10650D02*
X-16100Y-9700D01*
X-16100Y-9700D02*
X-17250Y-8550D01*
X-17250Y-8550D02*
X-17250Y-7900D01*
X-14450Y-4405D02*
X-14420Y-4375D01*
X-14700Y-11800D02*
X-14700Y-12050D01*
X-15910Y-9640D02*
X-17000Y-8550D01*
X-17000Y-8550D02*
X-17000Y-8450D01*
X-10000Y-17250D02*
X-10460Y-17710D01*
X-11270Y-17710D02*
X-10460Y-17710D01*
X-11490Y-17490D02*
X-11270Y-17710D01*
X-11490Y-16890D02*
X-11490Y-17490D01*
X-11850Y-16530D02*
X-11490Y-16890D01*
X-14130Y-16530D02*
X-11850Y-16530D01*
X-14330Y-16330D02*
X-14130Y-16530D01*
X-15910Y-10590D02*
X-14700Y-11800D01*
X-15910Y-9650D02*
X-15910Y-10590D01*
X-15910Y-9650D02*
X-15910Y-9640D01*
X-14330Y-13820D02*
X-14330Y-16330D01*
X-14600Y-13550D02*
X-14330Y-13820D01*
X-14600Y-12150D02*
X-14600Y-13550D01*
X-14700Y-12050D02*
X-14600Y-12150D01*
X-14450Y-4925D02*
X-14450Y-4405D01*
X-14450Y-4925D02*
X-14420Y-4895D01*
X-11450Y-5275D02*
X-11550Y-5375D01*
X-15880Y-5740D02*
X-15515Y-5375D01*
X-15515Y-5375D02*
X-11725Y-5375D01*
X-11550Y-5375D02*
X-11725Y-5375D01*
X-9630Y-16410D02*
X-8480Y-16410D01*
X-11675Y-14365D02*
X-9630Y-16410D01*
X-11675Y-9275D02*
X-11675Y-14365D01*
X-9600Y-9275D02*
X-11675Y-9275D01*
X-8125Y-7800D02*
X-9600Y-9275D01*
X-8125Y-6745D02*
X-8125Y-7800D01*
X-8410Y-6460D02*
X-8125Y-6745D01*
X-8560Y-6460D02*
X-8410Y-6460D01*
X-8670Y-6350D02*
X-8560Y-6460D01*
X-8670Y-6040D02*
X-8670Y-6350D01*
X-8700Y-6010D02*
X-8670Y-6040D01*
X-4450Y-13750D02*
X-4450Y-12000D01*
X-4130Y-12970D02*
X-4130Y-12000D01*
X-3850Y-13250D02*
X-4130Y-12970D01*
X-2900Y-13250D02*
X-3850Y-13250D01*
X-17250Y-7350D02*
X-17080Y-7180D01*
X-17080Y-7180D02*
X-16590Y-6690D01*
X-16590Y-6690D02*
X-16590Y-4310D01*
X-16590Y-4310D02*
X-18337Y-2562D01*
X-8480Y-16940D02*
X-8480Y-17730D01*
X-8710Y-16710D02*
X-8480Y-16940D01*
X-9680Y-16710D02*
X-8710Y-16710D01*
X-11870Y-14520D02*
X-9680Y-16710D01*
X-11870Y-9140D02*
X-11870Y-14520D01*
X-11810Y-9080D02*
X-11870Y-9140D01*
X-9690Y-9080D02*
X-11810Y-9080D01*
X-8330Y-7720D02*
X-9690Y-9080D01*
X-8330Y-6830D02*
X-8330Y-7720D01*
X-8490Y-6670D02*
X-8330Y-6830D01*
X-8580Y-6670D02*
X-8490Y-6670D01*
X-8480Y-17730D02*
X-9000Y-18250D01*
X-8875Y-6375D02*
X-8580Y-6670D01*
X-8900Y-6350D02*
X-8875Y-6375D01*
X-9100Y-6350D02*
X-8900Y-6350D01*
X-18575Y-13100D02*
X-16375Y-15300D01*
X-19840Y-9810D02*
X-18575Y-11075D01*
X-18575Y-11075D02*
X-18575Y-13100D01*
X-20200Y-9810D02*
X-19840Y-9810D01*
X-15050Y-15925D02*
X-15050Y-16350D01*
X-15675Y-15300D02*
X-15050Y-15925D01*
X-16375Y-15300D02*
X-15675Y-15300D01*
X-22070Y-9820D02*
X-22170Y-9720D01*
X-20210Y-9820D02*
X-22070Y-9820D01*
X-20200Y-9810D02*
X-20210Y-9820D01*
X-22170Y-1660D02*
X-22170Y-1650D01*
X-22170Y-9720D02*
X-22170Y-1660D01*
X-22170Y-1650D02*
X-21980Y-1460D01*
X-23050Y-9880D02*
X-23050Y-3810D01*
X-23050Y-10150D02*
X-23050Y-9880D01*
X-23050Y-3810D02*
X-23050Y-2190D01*
X-22030Y-11170D02*
X-23050Y-10150D01*
X-20160Y-11140D02*
X-19460Y-11140D01*
X-17425Y-15275D02*
X-17425Y-15400D01*
X-19275Y-13425D02*
X-17425Y-15275D01*
X-19275Y-11325D02*
X-19275Y-13425D01*
X-19460Y-11140D02*
X-19275Y-11325D01*
X-20190Y-11170D02*
X-22030Y-11170D01*
X-20160Y-11140D02*
X-20190Y-11170D01*
X-20170Y-10680D02*
X-19570Y-10680D01*
X-19050Y-13300D02*
X-17150Y-15200D01*
X-19050Y-11200D02*
X-19050Y-13300D01*
X-19570Y-10680D02*
X-19050Y-11200D01*
X-22790Y-4220D02*
X-22730Y-4280D01*
X-20170Y-10680D02*
X-20180Y-10690D01*
X-20180Y-10690D02*
X-22130Y-10690D01*
X-22130Y-10690D02*
X-22730Y-10090D01*
X-22730Y-10090D02*
X-22730Y-4280D01*
X-21275Y-950D02*
X-19170Y-950D01*
X-19200Y-4060D02*
X-18900Y-3760D01*
X-18900Y-3760D02*
X-18900Y-1220D01*
X-18900Y-1220D02*
X-19170Y-950D01*
X-20190Y-10250D02*
X-19700Y-10250D01*
X-13550Y-16700D02*
X-13000Y-17250D01*
X-15275Y-16700D02*
X-13550Y-16700D01*
X-15450Y-16525D02*
X-15275Y-16700D01*
X-15450Y-15925D02*
X-15450Y-16525D01*
X-15875Y-15500D02*
X-15450Y-15925D01*
X-16475Y-15500D02*
X-15875Y-15500D01*
X-18800Y-13175D02*
X-16475Y-15500D01*
X-18800Y-11150D02*
X-18800Y-13175D01*
X-19700Y-10250D02*
X-18800Y-11150D01*
X-22090Y-10250D02*
X-22460Y-9880D01*
X-20190Y-10250D02*
X-22090Y-10250D01*
X-22460Y-790D02*
X-21995Y-325D01*
X-22460Y-9880D02*
X-22460Y-790D01*
X-21995Y-325D02*
X-21250Y-325D01*
X-18015Y-11395D02*
X-17380Y-10760D01*
X-17380Y-10760D02*
X-17380Y-9880D01*
X-17380Y-9880D02*
X-17380Y-8890D01*
X-17380Y-8890D02*
X-17370Y-8900D01*
M02*
