M48
;DRILL file {Pcbnew (2013-05-31 BZR 4019)-stable} date 12/30/2013 4:06:56 PM
;FORMAT={-:-/ absolute / inch / decimal}
FMAT,2
INCH,TZ
T1C0.012
T2C0.025
T3C0.032
T4C0.039
T5C0.040
%
G90
G05
M72
T1
X-2.619Y-0.235
X-2.5025Y0.1225
X-2.3925Y0.1225
X-2.305Y-0.219
X-2.279Y-0.422
X-2.198Y-0.146
X-2.187Y-1.357
X-2.166Y-0.381
X-2.166Y-0.746
X-2.1275Y-0.095
X-2.125Y-0.0325
X-2.11Y-0.55
X-2.103Y-1.565
X-2.075Y-0.355
X-2.0525Y-1.4875
X-2.037Y-0.663
X-2.02Y-0.981
X-2.019Y-1.025
X-2.017Y-1.068
X-2.016Y-1.114
X-1.975Y-0.645
X-1.975Y-0.6875
X-1.971Y-1.306
X-1.94Y0.12
X-1.933Y-0.176
X-1.925Y-0.492
X-1.92Y-0.406
X-1.891Y-1.487
X-1.87Y-0.5925
X-1.85Y-0.5675
X-1.837Y-0.877
X-1.837Y-1.611
X-1.8337Y-0.2562
X-1.827Y-0.745
X-1.8075Y-0.3825
X-1.807Y-1.091
X-1.802Y-0.839
X-1.8015Y-1.1395
X-1.7955Y0.184
X-1.7775Y-0.405
X-1.771Y-0.661
X-1.755Y-0.255
X-1.7525Y-0.435
X-1.7425Y-1.54
X-1.741Y-1.127
X-1.738Y-0.889
X-1.731Y-0.103
X-1.725Y-0.735
X-1.72Y-1.61
X-1.715Y-1.21
X-1.715Y-1.52
X-1.715Y-1.565
X-1.7Y-0.845
X-1.7Y-1.355
X-1.675Y0.005
X-1.665Y-0.775
X-1.663Y-1.053
X-1.655Y-1.455
X-1.645Y-1.38
X-1.64Y-0.835
X-1.63Y-1.175
X-1.6275Y-0.54
X-1.59Y-1.1
X-1.588Y-0.574
X-1.58Y-0.6775
X-1.575Y-0.4175
X-1.563Y-1.053
X-1.549Y-0.947
X-1.549Y-1.411
X-1.541Y-1.165
X-1.525Y-0.777
X-1.519Y-0.882
X-1.505Y-0.925
X-1.505Y-1.635
X-1.485Y-1.411
X-1.483Y-1.575
X-1.473Y-0.855
X-1.46Y-1.39
X-1.445Y-0.4925
X-1.4375Y-0.6725
X-1.4375Y-0.7375
X-1.425Y-1.06
X-1.425Y-1.215
X-1.41Y-0.4925
X-1.397Y-0.907
X-1.3525Y-0.5675
X-1.3513Y-0.5038
X-1.335Y-0.705
X-1.3325Y-0.7925
X-1.32Y-1.365
X-1.3025Y-0.4275
X-1.2875Y-0.2225
X-1.28Y-1.59
X-1.215Y-0.5875
X-1.1775Y-0.445
X-1.177Y-0.213
X-1.145Y-0.5275
X-1.145Y-0.74
X-1.141Y-1.031
X-1.125Y-0.765
X-1.11Y-0.555
X-1.095Y-0.675
X-1.09Y-0.765
X-1.09Y-0.995
X-1.09Y-1.649
X-1.08Y-0.49
X-0.995Y-0.88
X-0.985Y-1.005
X-0.985Y-1.07
X-0.955Y-0.615
X-0.95Y-0.57
X-0.93Y-1.215
X-0.91Y-0.635
X-0.899Y-0.092
X-0.89Y-0.5
X-0.87Y-0.601
X-0.87Y-0.7325
X-0.865Y-0.695
X-0.848Y-1.641
X-0.765Y-1.155
X-0.731Y-0.795
X-0.723Y-0.196
X-0.715Y-0.52
X-0.695Y-1.17
X-0.685Y-1.2025
X-0.685Y-1.42
X-0.68Y-1.135
X-0.655Y-0.196
X-0.645Y-0.505
X-0.587Y-0.195
X-0.555Y-0.8875
X-0.555Y-1.1025
X-0.534Y-0.314
X-0.445Y-1.375
X-0.415Y-1.085
X-0.412Y-0.889
X-0.396Y-0.471
X-0.394Y-0.409
X-0.29Y-1.325
X-0.135Y-1.2025
X-0.1325Y-0.605
X-0.1325Y-0.845
X-0.1325Y-0.96
X-0.12Y-1.0775
X-0.115Y-1.325
X-0.1075Y-0.43
X-0.1075Y-0.7225
X-0.06Y-0.2225
T2
X-2.508Y-0.03
X-2.3Y-1.494
X-1.335Y-1.545
X-1.2825Y-1.1425
X-1.0275Y-1.1625
X-0.916Y-1.4341
X-0.719Y-1.576
T3
X-2.4Y-1.725
X-2.3Y-1.725
X-2.3Y-1.825
X-2.2Y-1.725
X-2.2Y-1.825
X-2.1Y-1.725
X-2.1Y-1.825
X-2.Y-1.725
X-2.Y-1.825
X-1.9Y-1.725
X-1.9Y-1.825
X-1.8Y-1.725
X-1.8Y-1.825
X-1.7Y-1.725
X-1.7Y-1.825
X-1.6Y-1.725
X-1.6Y-1.825
X-1.5Y-1.725
X-1.5Y-1.825
X-1.4906Y0.175
X-1.4906Y0.075
X-1.4Y-1.725
X-1.4Y-1.825
X-1.3921Y0.175
X-1.3921Y0.075
X-1.3Y-1.725
X-1.3Y-1.825
X-1.2937Y0.175
X-1.2937Y0.075
X-1.2Y-1.725
X-1.2Y-1.825
X-1.1937Y0.175
X-1.1937Y0.075
X-1.1Y-1.725
X-1.1Y-1.825
X-1.0969Y0.175
X-1.0969Y0.075
X-1.Y-1.725
X-1.Y-1.825
X-0.9984Y0.175
X-0.9984Y0.075
X-0.9Y0.175
X-0.9Y0.075
X-0.9Y-1.725
X-0.9Y-1.825
X-0.8Y0.175
X-0.8Y0.075
X-0.8Y-1.725
X-0.8Y-1.825
X-0.7Y0.175
X-0.7Y0.075
X-0.7Y-1.725
X-0.7Y-1.825
X-0.6Y0.175
X-0.6Y0.075
X-0.6Y-1.725
X-0.6Y-1.825
X-0.5Y0.175
X-0.5Y0.075
X-0.5Y-1.725
X-0.5Y-1.825
X-0.4Y0.175
X-0.4Y0.075
X-0.4Y-1.725
X-0.4Y-1.825
X-0.3Y0.175
X-0.3Y0.075
X-0.3Y-1.725
X-0.3Y-1.825
X-0.2Y0.175
X-0.2Y0.075
X-0.2Y-1.725
X-0.2Y-1.825
T4
X0.075Y-0.175
X0.075Y-0.275
X0.075Y-0.375
X0.075Y-0.475
X0.075Y-0.575
X0.075Y-0.675
X0.075Y-0.775
X0.075Y-0.875
X0.075Y-0.975
X0.075Y-1.075
X0.075Y-1.175
X0.075Y-1.275
X0.075Y-1.375
X0.075Y-1.475
T5
X-2.4Y-1.825
T0
M30
