G04 (created by PCBNEW (2013-05-31 BZR 4019)-stable) date 12/30/2013 4:31:45 PM*
%MOIN*%
G04 Gerber Fmt 3.4, Leading zero omitted, Abs format*
%FSLAX34Y34*%
G01*
G70*
G90*
G04 APERTURE LIST*
%ADD10C,0.00590551*%
%ADD11R,0.06X0.0098*%
%ADD12R,0.0098X0.06*%
%ADD13R,0.055X0.035*%
%ADD14R,0.02X0.03*%
%ADD15R,0.035X0.055*%
%ADD16R,0.025X0.045*%
%ADD17R,0.045X0.025*%
%ADD18R,0.05X0.015*%
%ADD19C,0.045*%
%ADD20R,0.0393701X0.0354331*%
%ADD21R,0.0314X0.0314*%
%ADD22R,0.0314X0.0629*%
%ADD23R,0.0629X0.0314*%
%ADD24R,0.0275X0.0098*%
%ADD25R,0.0098X0.0275*%
%ADD26R,0.0866X0.06*%
%ADD27O,0.0866X0.06*%
%ADD28R,0.08X0.06*%
%ADD29R,0.0401575X0.135827*%
%ADD30C,0.0512*%
%ADD31C,0.18*%
%ADD32R,0.065X0.065*%
%ADD33C,0.024*%
%ADD34C,0.014*%
%ADD35C,0.016*%
%ADD36C,0.008*%
%ADD37C,0.01*%
G04 APERTURE END LIST*
G54D10*
G54D11*
X-5439Y-8026D03*
X-5439Y-7829D03*
X-5439Y-7632D03*
X-5439Y-7435D03*
X-5439Y-7238D03*
X-5439Y-7042D03*
X-5439Y-6845D03*
X-5439Y-6648D03*
X-5439Y-6451D03*
X-5439Y-6254D03*
X-5439Y-6057D03*
X-5439Y-5861D03*
X-5439Y-5664D03*
X-5439Y-5467D03*
X-5439Y-5270D03*
X-5439Y-5073D03*
G54D12*
X-6274Y-4175D03*
X-6471Y-4175D03*
X-6668Y-4175D03*
X-6865Y-4175D03*
X-7062Y-4175D03*
X-7258Y-4175D03*
X-7455Y-4175D03*
X-7652Y-4175D03*
X-7849Y-4175D03*
X-8046Y-4175D03*
X-8243Y-4175D03*
X-8439Y-4175D03*
X-8636Y-4175D03*
X-8833Y-4175D03*
X-9030Y-4175D03*
X-9227Y-4175D03*
G54D11*
X-10125Y-5073D03*
X-10125Y-5270D03*
X-10125Y-5467D03*
X-10125Y-5664D03*
X-10125Y-5861D03*
X-10125Y-6057D03*
X-10125Y-6254D03*
X-10125Y-6451D03*
X-10125Y-6648D03*
X-10125Y-6845D03*
X-10125Y-7042D03*
X-10125Y-7238D03*
X-10125Y-7435D03*
X-10125Y-7632D03*
X-10125Y-7829D03*
X-10125Y-8026D03*
G54D12*
X-9227Y-8861D03*
X-9030Y-8861D03*
X-8636Y-8861D03*
X-8833Y-8861D03*
X-8439Y-8861D03*
X-8243Y-8861D03*
X-8046Y-8861D03*
X-7849Y-8861D03*
X-7652Y-8861D03*
X-7455Y-8861D03*
X-7261Y-8861D03*
X-7064Y-8861D03*
X-6867Y-8861D03*
X-6670Y-8861D03*
X-6474Y-8861D03*
X-6277Y-8861D03*
G54D13*
X-7238Y-2449D03*
X-7238Y-3199D03*
G54D14*
X-9965Y-15021D03*
X-10715Y-15021D03*
X-9965Y-16021D03*
X-10340Y-15021D03*
X-10715Y-16021D03*
G54D15*
X-6125Y-10000D03*
X-6875Y-10000D03*
G54D16*
X-1900Y-3650D03*
X-2500Y-3650D03*
X-1900Y-12650D03*
X-2500Y-12650D03*
X-1900Y-5450D03*
X-2500Y-5450D03*
X-1900Y-6650D03*
X-2500Y-6650D03*
X-1900Y-7850D03*
X-2500Y-7850D03*
X-1900Y-9050D03*
X-2500Y-9050D03*
X-1900Y-10250D03*
X-2500Y-10250D03*
X-1900Y-11450D03*
X-2500Y-11450D03*
X-1900Y-14450D03*
X-2500Y-14450D03*
X-1900Y-15050D03*
X-2500Y-15050D03*
X-1900Y-13850D03*
X-2500Y-13850D03*
X-17726Y117D03*
X-17126Y117D03*
G54D17*
X-20510Y-15300D03*
X-20510Y-15900D03*
X-19740Y-15300D03*
X-19740Y-15900D03*
X-15100Y-10530D03*
X-15100Y-9930D03*
X-13840Y-8520D03*
X-13840Y-7920D03*
X-12800Y-8525D03*
X-12800Y-7925D03*
G54D18*
X-5100Y-13484D03*
X-5100Y-13228D03*
X-5100Y-12972D03*
X-5100Y-12716D03*
X-6800Y-12716D03*
X-6800Y-12972D03*
X-6800Y-13228D03*
X-6800Y-13484D03*
G54D19*
X-23000Y-14940D03*
G54D13*
X-19850Y-5650D03*
X-19850Y-4900D03*
G54D20*
X-26286Y-14757D03*
X-25656Y-14757D03*
X-26286Y-13142D03*
X-25656Y-13142D03*
G54D16*
X-1900Y-3050D03*
X-2500Y-3050D03*
X-1900Y-1250D03*
X-2500Y-1250D03*
G54D21*
X-17721Y1200D03*
X-17131Y1200D03*
X-18902Y1200D03*
X-18312Y1200D03*
G54D19*
X-9159Y-14340D03*
X-13350Y-15450D03*
X-7190Y-15760D03*
X-12825Y-11425D03*
X-25080Y-300D03*
G54D10*
G36*
X-15472Y-7456D02*
X-15890Y-7873D01*
X-15973Y-7790D01*
X-15556Y-7373D01*
X-15472Y-7456D01*
X-15472Y-7456D01*
G37*
G36*
X-15612Y-7317D02*
X-16029Y-7734D01*
X-16112Y-7651D01*
X-15695Y-7233D01*
X-15612Y-7317D01*
X-15612Y-7317D01*
G37*
G36*
X-15751Y-7177D02*
X-16168Y-7595D01*
X-16252Y-7511D01*
X-15834Y-7094D01*
X-15751Y-7177D01*
X-15751Y-7177D01*
G37*
G36*
X-15890Y-7039D02*
X-16307Y-7456D01*
X-16390Y-7373D01*
X-15973Y-6955D01*
X-15890Y-7039D01*
X-15890Y-7039D01*
G37*
G36*
X-16029Y-6900D02*
X-16446Y-7317D01*
X-16529Y-7233D01*
X-16112Y-6816D01*
X-16029Y-6900D01*
X-16029Y-6900D01*
G37*
G36*
X-16168Y-6760D02*
X-16585Y-7177D01*
X-16669Y-7094D01*
X-16252Y-6677D01*
X-16168Y-6760D01*
X-16168Y-6760D01*
G37*
G36*
X-16307Y-6622D02*
X-16724Y-7039D01*
X-16807Y-6955D01*
X-16390Y-6538D01*
X-16307Y-6622D01*
X-16307Y-6622D01*
G37*
G36*
X-16446Y-6482D02*
X-16863Y-6900D01*
X-16947Y-6816D01*
X-16529Y-6399D01*
X-16446Y-6482D01*
X-16446Y-6482D01*
G37*
G36*
X-16585Y-6343D02*
X-17003Y-6760D01*
X-17086Y-6677D01*
X-16669Y-6260D01*
X-16585Y-6343D01*
X-16585Y-6343D01*
G37*
G36*
X-16724Y-6204D02*
X-17141Y-6622D01*
X-17225Y-6538D01*
X-16807Y-6121D01*
X-16724Y-6204D01*
X-16724Y-6204D01*
G37*
G36*
X-16863Y-6065D02*
X-17280Y-6482D01*
X-17364Y-6399D01*
X-16947Y-5982D01*
X-16863Y-6065D01*
X-16863Y-6065D01*
G37*
G36*
X-17003Y-5926D02*
X-17420Y-6343D01*
X-17503Y-6260D01*
X-17086Y-5842D01*
X-17003Y-5926D01*
X-17003Y-5926D01*
G37*
G36*
X-17838Y-6260D02*
X-17922Y-6343D01*
X-18339Y-5926D01*
X-18256Y-5842D01*
X-17838Y-6260D01*
X-17838Y-6260D01*
G37*
G36*
X-17978Y-6399D02*
X-18061Y-6482D01*
X-18478Y-6065D01*
X-18395Y-5982D01*
X-17978Y-6399D01*
X-17978Y-6399D01*
G37*
G36*
X-18117Y-6538D02*
X-18200Y-6622D01*
X-18618Y-6204D01*
X-18534Y-6121D01*
X-18117Y-6538D01*
X-18117Y-6538D01*
G37*
G36*
X-18256Y-6677D02*
X-18339Y-6760D01*
X-18756Y-6343D01*
X-18673Y-6260D01*
X-18256Y-6677D01*
X-18256Y-6677D01*
G37*
G36*
X-18395Y-6816D02*
X-18478Y-6900D01*
X-18895Y-6482D01*
X-18812Y-6399D01*
X-18395Y-6816D01*
X-18395Y-6816D01*
G37*
G36*
X-18534Y-6955D02*
X-18618Y-7039D01*
X-19035Y-6622D01*
X-18951Y-6538D01*
X-18534Y-6955D01*
X-18534Y-6955D01*
G37*
G36*
X-18673Y-7094D02*
X-18756Y-7177D01*
X-19173Y-6760D01*
X-19090Y-6677D01*
X-18673Y-7094D01*
X-18673Y-7094D01*
G37*
G36*
X-18812Y-7233D02*
X-18895Y-7317D01*
X-19313Y-6900D01*
X-19229Y-6816D01*
X-18812Y-7233D01*
X-18812Y-7233D01*
G37*
G36*
X-18951Y-7373D02*
X-19035Y-7456D01*
X-19452Y-7039D01*
X-19369Y-6955D01*
X-18951Y-7373D01*
X-18951Y-7373D01*
G37*
G36*
X-19090Y-7511D02*
X-19173Y-7595D01*
X-19591Y-7177D01*
X-19507Y-7094D01*
X-19090Y-7511D01*
X-19090Y-7511D01*
G37*
G36*
X-19229Y-7651D02*
X-19313Y-7734D01*
X-19730Y-7317D01*
X-19646Y-7233D01*
X-19229Y-7651D01*
X-19229Y-7651D01*
G37*
G36*
X-19369Y-7790D02*
X-19452Y-7873D01*
X-19869Y-7456D01*
X-19786Y-7373D01*
X-19369Y-7790D01*
X-19369Y-7790D01*
G37*
G36*
X-19369Y-8292D02*
X-19786Y-8709D01*
X-19869Y-8626D01*
X-19452Y-8208D01*
X-19369Y-8292D01*
X-19369Y-8292D01*
G37*
G36*
X-19229Y-8431D02*
X-19646Y-8848D01*
X-19730Y-8765D01*
X-19313Y-8348D01*
X-19229Y-8431D01*
X-19229Y-8431D01*
G37*
G36*
X-19090Y-8570D02*
X-19507Y-8988D01*
X-19591Y-8904D01*
X-19173Y-8487D01*
X-19090Y-8570D01*
X-19090Y-8570D01*
G37*
G36*
X-18951Y-8709D02*
X-19369Y-9126D01*
X-19452Y-9043D01*
X-19035Y-8626D01*
X-18951Y-8709D01*
X-18951Y-8709D01*
G37*
G36*
X-18812Y-8848D02*
X-19229Y-9266D01*
X-19313Y-9182D01*
X-18895Y-8765D01*
X-18812Y-8848D01*
X-18812Y-8848D01*
G37*
G36*
X-18673Y-8988D02*
X-19090Y-9405D01*
X-19173Y-9321D01*
X-18756Y-8904D01*
X-18673Y-8988D01*
X-18673Y-8988D01*
G37*
G36*
X-18534Y-9126D02*
X-18951Y-9543D01*
X-19035Y-9460D01*
X-18618Y-9043D01*
X-18534Y-9126D01*
X-18534Y-9126D01*
G37*
G36*
X-18395Y-9266D02*
X-18812Y-9683D01*
X-18895Y-9599D01*
X-18478Y-9182D01*
X-18395Y-9266D01*
X-18395Y-9266D01*
G37*
G36*
X-18256Y-9405D02*
X-18673Y-9822D01*
X-18756Y-9739D01*
X-18339Y-9321D01*
X-18256Y-9405D01*
X-18256Y-9405D01*
G37*
G36*
X-18117Y-9543D02*
X-18534Y-9961D01*
X-18618Y-9877D01*
X-18200Y-9460D01*
X-18117Y-9543D01*
X-18117Y-9543D01*
G37*
G36*
X-17978Y-9683D02*
X-18395Y-10100D01*
X-18478Y-10016D01*
X-18061Y-9599D01*
X-17978Y-9683D01*
X-17978Y-9683D01*
G37*
G36*
X-17838Y-9822D02*
X-18256Y-10239D01*
X-18339Y-10156D01*
X-17922Y-9739D01*
X-17838Y-9822D01*
X-17838Y-9822D01*
G37*
G36*
X-17003Y-10156D02*
X-17086Y-10239D01*
X-17503Y-9822D01*
X-17420Y-9739D01*
X-17003Y-10156D01*
X-17003Y-10156D01*
G37*
G36*
X-16863Y-10016D02*
X-16947Y-10100D01*
X-17364Y-9683D01*
X-17280Y-9599D01*
X-16863Y-10016D01*
X-16863Y-10016D01*
G37*
G36*
X-16724Y-9877D02*
X-16807Y-9961D01*
X-17225Y-9543D01*
X-17141Y-9460D01*
X-16724Y-9877D01*
X-16724Y-9877D01*
G37*
G36*
X-16585Y-9739D02*
X-16669Y-9822D01*
X-17086Y-9405D01*
X-17003Y-9321D01*
X-16585Y-9739D01*
X-16585Y-9739D01*
G37*
G36*
X-16446Y-9599D02*
X-16529Y-9683D01*
X-16947Y-9266D01*
X-16863Y-9182D01*
X-16446Y-9599D01*
X-16446Y-9599D01*
G37*
G36*
X-16307Y-9460D02*
X-16390Y-9543D01*
X-16807Y-9126D01*
X-16724Y-9043D01*
X-16307Y-9460D01*
X-16307Y-9460D01*
G37*
G36*
X-16168Y-9321D02*
X-16252Y-9405D01*
X-16669Y-8988D01*
X-16585Y-8904D01*
X-16168Y-9321D01*
X-16168Y-9321D01*
G37*
G36*
X-16029Y-9182D02*
X-16112Y-9266D01*
X-16529Y-8848D01*
X-16446Y-8765D01*
X-16029Y-9182D01*
X-16029Y-9182D01*
G37*
G36*
X-15890Y-9043D02*
X-15973Y-9126D01*
X-16390Y-8709D01*
X-16307Y-8626D01*
X-15890Y-9043D01*
X-15890Y-9043D01*
G37*
G36*
X-15751Y-8904D02*
X-15834Y-8988D01*
X-16252Y-8570D01*
X-16168Y-8487D01*
X-15751Y-8904D01*
X-15751Y-8904D01*
G37*
G36*
X-15612Y-8765D02*
X-15695Y-8848D01*
X-16112Y-8431D01*
X-16029Y-8348D01*
X-15612Y-8765D01*
X-15612Y-8765D01*
G37*
G36*
X-15472Y-8626D02*
X-15556Y-8709D01*
X-15973Y-8292D01*
X-15890Y-8208D01*
X-15472Y-8626D01*
X-15472Y-8626D01*
G37*
G54D22*
X-26448Y-3148D03*
X-25975Y-3148D03*
X-25503Y-3148D03*
X-25031Y-3148D03*
X-24558Y-3148D03*
X-24086Y-3148D03*
X-23614Y-3148D03*
X-23142Y-3148D03*
X-22669Y-3148D03*
X-22197Y-3148D03*
X-21725Y-3148D03*
X-21252Y-3148D03*
X-21252Y2048D03*
X-21725Y2048D03*
X-22197Y2048D03*
X-22669Y2048D03*
X-23142Y2048D03*
X-23614Y2048D03*
X-24086Y2048D03*
X-24558Y2048D03*
X-25031Y2048D03*
X-25503Y2048D03*
X-25975Y2048D03*
X-26448Y2048D03*
G54D23*
X-20150Y670D03*
X-20150Y-1770D03*
X-20150Y-2172D03*
X-20150Y-1298D03*
X-20150Y-825D03*
X-20150Y-275D03*
X-20150Y198D03*
X-20150Y1072D03*
G54D14*
X-9584Y-13690D03*
X-8834Y-13690D03*
X-9584Y-12690D03*
X-9209Y-13690D03*
X-8834Y-12690D03*
X-12734Y-14773D03*
X-11984Y-14773D03*
X-12734Y-13773D03*
X-12359Y-14773D03*
X-11984Y-13773D03*
G54D13*
X-8864Y-15146D03*
X-8864Y-15896D03*
X-10292Y-12422D03*
X-10292Y-13172D03*
G54D15*
X-12771Y-12993D03*
X-13521Y-12993D03*
G54D17*
X-11276Y-13973D03*
X-11276Y-14573D03*
X-16990Y-12550D03*
X-16990Y-13150D03*
X-14230Y-11590D03*
X-14230Y-10990D03*
G54D16*
X-5650Y-12000D03*
X-6250Y-12000D03*
G54D17*
X-11875Y-13025D03*
X-11875Y-12425D03*
G54D16*
X-8230Y-13781D03*
X-7630Y-13781D03*
X-15430Y-11090D03*
X-14830Y-11090D03*
G54D17*
X-10975Y-12575D03*
X-10975Y-13175D03*
G54D16*
X-12846Y-12304D03*
X-13446Y-12304D03*
X-8230Y-12797D03*
X-7630Y-12797D03*
G54D17*
X-13737Y-14671D03*
X-13737Y-14071D03*
X-8175Y-15200D03*
X-8175Y-15800D03*
X-12250Y-15400D03*
X-12250Y-16000D03*
G54D16*
X-10040Y-14340D03*
X-10640Y-14340D03*
X-15530Y-14670D03*
X-16130Y-14670D03*
X-18907Y117D03*
X-18307Y117D03*
G54D24*
X-14762Y-13322D03*
X-14762Y-13125D03*
X-14762Y-12928D03*
X-14762Y-12732D03*
X-14762Y-12535D03*
X-14762Y-12338D03*
G54D25*
X-15018Y-12082D03*
X-15215Y-12082D03*
X-15412Y-12082D03*
X-15608Y-12082D03*
X-15805Y-12082D03*
X-16002Y-12082D03*
G54D24*
X-16258Y-12338D03*
X-16258Y-12535D03*
X-16258Y-12732D03*
X-16258Y-12928D03*
X-16258Y-13125D03*
X-16258Y-13322D03*
G54D25*
X-16002Y-13578D03*
X-15805Y-13578D03*
X-15608Y-13578D03*
X-15412Y-13578D03*
X-15215Y-13578D03*
X-15018Y-13578D03*
G54D19*
X-10275Y-11625D03*
G54D16*
X-2500Y-13250D03*
X-1900Y-13250D03*
X-2500Y-12050D03*
X-1900Y-12050D03*
X-2500Y-10850D03*
X-1900Y-10850D03*
X-2500Y-9650D03*
X-1900Y-9650D03*
X-2500Y-8450D03*
X-1900Y-8450D03*
X-2500Y-6050D03*
X-1900Y-6050D03*
X-2500Y-4850D03*
X-1900Y-4850D03*
X-2500Y-2450D03*
X-1900Y-2450D03*
X-2500Y-7250D03*
X-1900Y-7250D03*
X-9890Y-2726D03*
X-10490Y-2726D03*
G54D17*
X-5860Y-3124D03*
X-5860Y-2524D03*
G54D16*
X-8100Y-11350D03*
X-8700Y-11350D03*
G54D17*
X-10675Y-8825D03*
X-10675Y-9425D03*
G54D16*
X-8750Y-10050D03*
X-9350Y-10050D03*
X-8050Y-10700D03*
X-7450Y-10700D03*
G54D17*
X-8025Y-3124D03*
X-8025Y-2524D03*
G54D16*
X-20850Y-6125D03*
X-21450Y-6125D03*
G54D17*
X-6549Y-3124D03*
X-6549Y-2524D03*
G54D16*
X-6200Y-14200D03*
X-5600Y-14200D03*
X-8100Y-12025D03*
X-8700Y-12025D03*
X-8050Y-10050D03*
X-7450Y-10050D03*
X-8750Y-10700D03*
X-9350Y-10700D03*
G54D17*
X-17310Y-1950D03*
X-17310Y-1350D03*
X-19030Y-11670D03*
X-19030Y-12270D03*
X-19630Y-11670D03*
X-19630Y-12270D03*
X-20575Y-5575D03*
X-20575Y-4975D03*
X-11325Y-8825D03*
X-11325Y-9425D03*
G54D16*
X-20850Y-6775D03*
X-21450Y-6775D03*
G54D26*
X750Y-1750D03*
G54D27*
X750Y-2750D03*
X750Y-3750D03*
X750Y-4750D03*
X750Y-5750D03*
X750Y-6750D03*
X750Y-7750D03*
X750Y-8750D03*
X750Y-9750D03*
X750Y-10750D03*
X750Y-11750D03*
X750Y-12750D03*
X750Y-13750D03*
X750Y-14750D03*
G54D28*
X-9009Y-2785D03*
X-9009Y-1485D03*
G54D13*
X-11546Y-15346D03*
X-11546Y-16096D03*
G54D16*
X-6800Y-10700D03*
X-6200Y-10700D03*
G54D29*
X-12750Y-1077D03*
X-12750Y-3222D03*
X-13750Y-1077D03*
X-13750Y-3222D03*
X-15750Y-3222D03*
X-15750Y-1077D03*
X-14750Y-3222D03*
X-14750Y-1077D03*
X-11750Y-1077D03*
X-11750Y-3222D03*
G54D16*
X-2500Y-4250D03*
X-1900Y-4250D03*
X-2500Y-1850D03*
X-1900Y-1850D03*
G54D30*
X-11937Y1750D03*
X-11937Y750D03*
X-12937Y1750D03*
X-12937Y750D03*
X-13921Y750D03*
X-13921Y1750D03*
X-14905Y1750D03*
X-14905Y750D03*
X-10968Y750D03*
X-10968Y1750D03*
X-9984Y1750D03*
X-9984Y750D03*
G54D31*
X0Y-16500D03*
X-26000Y-17750D03*
X0Y0D03*
G54D32*
X-24000Y-18250D03*
G54D30*
X-24000Y-17250D03*
X-23000Y-18250D03*
X-23000Y-17250D03*
X-22000Y-18250D03*
X-22000Y-17250D03*
X-21000Y-18250D03*
X-21000Y-17250D03*
X-20000Y-18250D03*
X-20000Y-17250D03*
X-19000Y-18250D03*
X-19000Y-17250D03*
X-18000Y-18250D03*
X-18000Y-17250D03*
X-17000Y-18250D03*
X-17000Y-17250D03*
X-16000Y-18250D03*
X-16000Y-17250D03*
X-15000Y-18250D03*
X-15000Y-17250D03*
X-14000Y-18250D03*
X-14000Y-17250D03*
X-13000Y-18250D03*
X-13000Y-17250D03*
X-12000Y-18250D03*
X-12000Y-17250D03*
X-11000Y-18250D03*
X-11000Y-17250D03*
X-10000Y-18250D03*
X-10000Y-17250D03*
X-9000Y-18250D03*
X-9000Y-17250D03*
X-8000Y-18250D03*
X-8000Y-17250D03*
X-7000Y-18250D03*
X-7000Y-17250D03*
X-6000Y-18250D03*
X-6000Y-17250D03*
X-5000Y-18250D03*
X-5000Y-17250D03*
X-4000Y-18250D03*
X-4000Y-17250D03*
X-3000Y-18250D03*
X-3000Y-17250D03*
X-2000Y-18250D03*
X-2000Y-17250D03*
X-9000Y750D03*
X-9000Y1750D03*
X-8000Y750D03*
X-8000Y1750D03*
X-7000Y750D03*
X-7000Y1750D03*
X-6000Y750D03*
X-6000Y1750D03*
X-5000Y750D03*
X-5000Y1750D03*
X-4000Y750D03*
X-4000Y1750D03*
X-3000Y750D03*
X-3000Y1750D03*
X-2000Y750D03*
X-2000Y1750D03*
G54D33*
X-6850Y-14200D03*
X-7150Y-5200D03*
X-7310Y-7950D03*
X-3940Y-4090D03*
X-5340Y-3140D03*
X-9500Y-5700D03*
X-17550Y-2550D03*
X-9950Y-8800D03*
X-21100Y-5500D03*
X-14250Y-12150D03*
X-17150Y-12100D03*
X-16630Y-10530D03*
X-20525Y-14875D03*
X-15190Y-8820D03*
X-15630Y-10530D03*
X-15490Y-9470D03*
X-21660Y-3810D03*
X-20370Y-6630D03*
X-18910Y-14870D03*
X-7650Y-11550D03*
X-9300Y-12150D03*
X-4150Y-10850D03*
X-4120Y-8890D03*
X-8990Y-920D03*
X-7230Y-1960D03*
X-6550Y-1960D03*
X-3960Y-4710D03*
X-5870Y-1950D03*
X-13350Y-7050D03*
X-12150Y-5875D03*
X-6800Y-11350D03*
X-5550Y-11025D03*
X-8700Y-7325D03*
X-11775Y-4450D03*
X-14100Y-4925D03*
X-5550Y-8875D03*
X-6850Y-12025D03*
G54D34*
X-6450Y-5050D03*
G54D33*
X-23925Y1225D03*
X-19400Y1200D03*
X-17955Y1840D03*
X-25025Y1225D03*
X-15410Y-11650D03*
X-18075Y-3825D03*
X-19750Y-6875D03*
X-16275Y-5400D03*
X-15750Y-4175D03*
X-13512Y-5037D03*
X-13025Y-4275D03*
X-15800Y-6775D03*
X-13525Y-5675D03*
X-18500Y-5675D03*
X-17525Y-4350D03*
X-17775Y-4050D03*
X-18700Y-5925D03*
X-11410Y-10310D03*
X-13970Y-9070D03*
X-14730Y-8550D03*
X-14375Y-7375D03*
X-14375Y-6725D03*
X-16650Y-7750D03*
X-13325Y-7925D03*
X-11100Y-5550D03*
X-15050Y-9250D03*
X-14250Y-10600D03*
X-1150Y-13250D03*
X-1350Y-12025D03*
X-1200Y-10775D03*
X-1325Y-9600D03*
X-1325Y-8450D03*
X-1075Y-7225D03*
X-1325Y-6050D03*
X-1075Y-4300D03*
X-600Y-2225D03*
X-9850Y-10700D03*
X-6950Y-11700D03*
X-8650Y-6950D03*
X-9550Y-6150D03*
X-10800Y-4900D03*
X-8900Y-5000D03*
X-9850Y-10050D03*
X-10950Y-6750D03*
X-11450Y-7400D03*
X-11250Y-7650D03*
X-10900Y-7650D03*
X-10900Y-9950D03*
X-15250Y-7770D03*
X-11770Y-2130D03*
X-17310Y-1030D03*
X-16750Y50D03*
X-26190Y-2350D03*
X-19330Y-1760D03*
X-17000Y-13550D03*
X-16550Y-14550D03*
X-16450Y-13800D03*
X-14600Y-13900D03*
X-16300Y-11750D03*
X-17410Y-11270D03*
X-19750Y-6450D03*
X-21660Y-7460D03*
X-19710Y-13060D03*
X-21870Y-13570D03*
X-20750Y-3550D03*
X-18370Y-8770D03*
X-13200Y-13650D03*
X-12800Y-15900D03*
X-10900Y-16490D03*
X-19250Y-4920D03*
X-12875Y-2225D03*
X-15490Y-14110D03*
X-18370Y-16110D03*
X-17200Y-16100D03*
X-18020Y-8390D03*
X-18070Y-10910D03*
X-14850Y-14110D03*
X-14830Y-15750D03*
X-18270Y-7450D03*
X-17710Y-6610D03*
X-21030Y-15650D03*
X-17150Y-15650D03*
X-16400Y-8350D03*
X-15900Y-11000D03*
X-17000Y-8450D03*
X-14450Y-4925D03*
X-11450Y-5275D03*
X-15880Y-5740D03*
X-8480Y-16410D03*
X-8700Y-6010D03*
X-4450Y-13750D03*
X-2900Y-13250D03*
X-17250Y-7350D03*
X-18337Y-2562D03*
X-9100Y-6350D03*
X-15050Y-16350D03*
X-20200Y-9810D03*
X-21980Y-1460D03*
X-23050Y-2190D03*
X-17425Y-15400D03*
X-20160Y-11140D03*
X-17150Y-15200D03*
X-22790Y-4220D03*
X-20170Y-10680D03*
X-21275Y-950D03*
X-19200Y-4060D03*
X-20190Y-10250D03*
X-21250Y-325D03*
X-18015Y-11395D03*
X-17380Y-8890D03*
G54D35*
X-12846Y-12304D02*
X-12846Y-11446D01*
X-12846Y-11446D02*
X-12825Y-11425D01*
X-11875Y-13025D02*
X-12740Y-13025D01*
X-12740Y-13025D02*
X-12771Y-12993D01*
X-12771Y-12993D02*
X-12771Y-12379D01*
X-12771Y-12379D02*
X-12846Y-12304D01*
X-12734Y-13773D02*
X-12734Y-13031D01*
X-12734Y-13031D02*
X-12771Y-12993D01*
G54D36*
X-7750Y-11075D02*
X-7750Y-10850D01*
X-8100Y-11350D02*
X-8025Y-11350D01*
X-8025Y-11350D02*
X-7750Y-11075D01*
G54D35*
X-8100Y-12025D02*
X-8100Y-11350D01*
G54D36*
X-7849Y-9351D02*
X-7750Y-9450D01*
X-7750Y-9450D02*
X-7750Y-10825D01*
X-7750Y-10825D02*
X-7750Y-10850D01*
X-7849Y-9351D02*
X-7849Y-8861D01*
X-7849Y-8401D02*
X-7849Y-8861D01*
G54D35*
X-6850Y-14200D02*
X-6200Y-14200D01*
X-7300Y-7960D02*
X-7300Y-8350D01*
X-7310Y-7950D02*
X-7300Y-7960D01*
X-5355Y-3124D02*
X-5860Y-3124D01*
X-5340Y-3140D02*
X-5355Y-3124D01*
G54D36*
X-7261Y-8861D02*
X-7261Y-8389D01*
X-7261Y-8389D02*
X-7300Y-8350D01*
X-7300Y-8350D02*
X-7900Y-8350D01*
X-8243Y-8861D02*
X-8243Y-8443D01*
X-7900Y-8350D02*
X-7849Y-8401D01*
X-8150Y-8350D02*
X-7900Y-8350D01*
X-8243Y-8443D02*
X-8150Y-8350D01*
X-6800Y-13484D02*
X-6316Y-13484D01*
X-6316Y-13484D02*
X-6200Y-13600D01*
X-6200Y-13600D02*
X-6200Y-14200D01*
X-8750Y-10050D02*
X-8750Y-10700D01*
X-8243Y-8861D02*
X-8243Y-9293D01*
X-8500Y-10050D02*
X-8750Y-10050D01*
X-8400Y-9950D02*
X-8500Y-10050D01*
X-8400Y-9450D02*
X-8400Y-9950D01*
X-8243Y-9293D02*
X-8400Y-9450D01*
G54D35*
X-5860Y-3124D02*
X-6549Y-3124D01*
G54D36*
X-6668Y-4175D02*
X-6668Y-3829D01*
X-6668Y-3829D02*
X-6253Y-3415D01*
X-6253Y-3415D02*
X-6150Y-3415D01*
X-6150Y-3415D02*
X-5860Y-3124D01*
X-7062Y-4175D02*
X-7062Y-3731D01*
X-7062Y-3731D02*
X-6942Y-3612D01*
X-6942Y-3612D02*
X-6746Y-3612D01*
X-6746Y-3612D02*
X-6549Y-3415D01*
X-6549Y-3415D02*
X-6549Y-3124D01*
X-7258Y-4175D02*
X-7062Y-4175D01*
X-10125Y-5664D02*
X-9536Y-5664D01*
X-9536Y-5664D02*
X-9500Y-5700D01*
X-17310Y-1950D02*
X-17310Y-2310D01*
X-17310Y-2310D02*
X-17550Y-2550D01*
G54D35*
X-23000Y-18250D02*
X-23000Y-17250D01*
G54D36*
X-14850Y-1950D02*
X-17310Y-1950D01*
X-14750Y-1850D02*
X-14850Y-1950D01*
X-14750Y-1077D02*
X-14750Y-1850D01*
G54D35*
X-12550Y-15400D02*
X-13300Y-15400D01*
X-13300Y-15400D02*
X-13350Y-15450D01*
X-12734Y-14773D02*
X-12734Y-15215D01*
X-12734Y-15215D02*
X-12550Y-15400D01*
X-10340Y-15021D02*
X-10340Y-15215D01*
X-10471Y-15346D02*
X-11546Y-15346D01*
X-10340Y-15215D02*
X-10471Y-15346D01*
X-11546Y-15346D02*
X-11546Y-15210D01*
X-11546Y-15210D02*
X-11984Y-14773D01*
X-12250Y-15400D02*
X-12550Y-15400D01*
X-11546Y-15346D02*
X-12196Y-15346D01*
X-12196Y-15346D02*
X-12250Y-15400D01*
X-12734Y-14773D02*
X-12941Y-14773D01*
X-13043Y-14671D02*
X-13737Y-14671D01*
X-12941Y-14773D02*
X-13043Y-14671D01*
G54D36*
X-10675Y-8825D02*
X-9975Y-8825D01*
X-9975Y-8825D02*
X-9950Y-8800D01*
X-10675Y-8825D02*
X-11325Y-8825D01*
X-10125Y-8026D02*
X-10501Y-8026D01*
X-10675Y-8200D02*
X-10675Y-8825D01*
X-10501Y-8026D02*
X-10675Y-8200D01*
X-9030Y-8861D02*
X-9030Y-8320D01*
X-9324Y-8026D02*
X-10125Y-8026D01*
X-9030Y-8320D02*
X-9324Y-8026D01*
G54D35*
X-19850Y-5650D02*
X-20500Y-5650D01*
G54D36*
X-20500Y-5650D02*
X-20575Y-5575D01*
X-18645Y-6649D02*
X-18700Y-6649D01*
X-19700Y-5650D02*
X-19850Y-5650D01*
X-18700Y-6649D02*
X-19700Y-5650D01*
X-18785Y-6789D02*
X-19450Y-6125D01*
X-18785Y-6789D02*
X-18784Y-6789D01*
G54D35*
X-20575Y-5575D02*
X-20975Y-5575D01*
X-20975Y-5575D02*
X-21050Y-5500D01*
G54D36*
X-20850Y-6125D02*
X-19450Y-6125D01*
X-20850Y-6775D02*
X-20515Y-6775D01*
G54D35*
X-20850Y-6125D02*
X-20850Y-6775D01*
X-21050Y-5500D02*
X-21100Y-5500D01*
G54D36*
X-14230Y-11590D02*
X-14230Y-12130D01*
X-14230Y-12130D02*
X-14250Y-12150D01*
X-16990Y-12550D02*
X-16990Y-12260D01*
X-16990Y-12260D02*
X-17150Y-12100D01*
X-15215Y-12082D02*
X-15215Y-11895D01*
X-14910Y-11590D02*
X-14230Y-11590D01*
X-15215Y-11895D02*
X-14910Y-11590D01*
X-16258Y-12338D02*
X-16778Y-12338D01*
X-16778Y-12338D02*
X-16990Y-12550D01*
X-20510Y-15300D02*
X-20510Y-14890D01*
X-20510Y-14890D02*
X-20525Y-14875D01*
X-12800Y-8525D02*
X-13835Y-8525D01*
X-13835Y-8525D02*
X-13840Y-8520D01*
X-15723Y-8459D02*
X-15720Y-8459D01*
X-15360Y-8820D02*
X-15190Y-8820D01*
X-15720Y-8459D02*
X-15360Y-8820D01*
X-19630Y-11670D02*
X-20070Y-11670D01*
X-20120Y-11720D02*
X-20120Y-13260D01*
X-20070Y-11670D02*
X-20120Y-11720D01*
X-16557Y-9293D02*
X-16557Y-9302D01*
X-15630Y-10530D02*
X-15100Y-10530D01*
X-15860Y-9840D02*
X-15490Y-9470D01*
X-16020Y-9840D02*
X-15860Y-9840D01*
X-16557Y-9302D02*
X-16020Y-9840D01*
X-19030Y-11670D02*
X-19630Y-11670D01*
X-18367Y-9710D02*
X-18370Y-9710D01*
X-19030Y-10370D02*
X-19030Y-11670D01*
X-18370Y-9710D02*
X-19030Y-10370D01*
X-15100Y-10530D02*
X-14640Y-10530D01*
X-14240Y-8920D02*
X-13840Y-8520D01*
X-14240Y-10130D02*
X-14240Y-8920D01*
X-14640Y-10530D02*
X-14240Y-10130D01*
X-18228Y-9850D02*
X-18367Y-9710D01*
X-21725Y-3148D02*
X-21725Y-3745D01*
X-21725Y-3745D02*
X-21660Y-3810D01*
X-20515Y-6775D02*
X-20370Y-6630D01*
X-18910Y-14470D02*
X-18910Y-14870D01*
X-20120Y-13260D02*
X-18910Y-14470D01*
X-19340Y-15300D02*
X-19740Y-15300D01*
X-18910Y-14870D02*
X-19340Y-15300D01*
G54D35*
X-7450Y-11350D02*
X-7450Y-10700D01*
X-7650Y-11550D02*
X-7450Y-11350D01*
G54D36*
X-7450Y-10050D02*
X-7450Y-8866D01*
X-7450Y-8866D02*
X-7455Y-8861D01*
X-7450Y-10700D02*
X-7450Y-10050D01*
X-7455Y-8861D02*
X-7652Y-8861D01*
G54D35*
X-8700Y-12025D02*
X-9175Y-12025D01*
X-9175Y-12025D02*
X-9300Y-12150D01*
X-8700Y-11350D02*
X-8900Y-11350D01*
X-8900Y-11350D02*
X-9075Y-11175D01*
X-8700Y-11350D02*
X-8700Y-12025D01*
X-5650Y-12000D02*
X-5450Y-12000D01*
X-4650Y-10850D02*
X-4150Y-10850D01*
X-4950Y-11150D02*
X-4650Y-10850D01*
X-4950Y-11500D02*
X-4950Y-11150D01*
X-5450Y-12000D02*
X-4950Y-11500D01*
G54D36*
X-7849Y-4175D02*
X-7849Y-4601D01*
X-7755Y-4694D02*
X-7336Y-4694D01*
X-7849Y-4601D02*
X-7755Y-4694D01*
G54D35*
X-9009Y-1485D02*
X-9009Y-939D01*
X-9009Y-939D02*
X-8990Y-920D01*
X-7238Y-2449D02*
X-7238Y-1968D01*
X-7238Y-1968D02*
X-7230Y-1960D01*
X-6549Y-2524D02*
X-6549Y-1960D01*
X-6549Y-1960D02*
X-6550Y-1960D01*
X-5860Y-1959D02*
X-5860Y-2524D01*
X-5870Y-1950D02*
X-5860Y-1959D01*
X-10275Y-11625D02*
X-9525Y-11625D01*
X-9525Y-11625D02*
X-9075Y-11175D01*
X-9075Y-11175D02*
X-9050Y-11150D01*
G54D36*
X-8800Y-9600D02*
X-8439Y-9239D01*
X-8950Y-9600D02*
X-8800Y-9600D01*
X-9050Y-9700D02*
X-8950Y-9600D01*
X-9050Y-11150D02*
X-9050Y-9700D01*
X-8439Y-9239D02*
X-8439Y-8861D01*
G54D35*
X-10292Y-12422D02*
X-10292Y-11642D01*
X-10292Y-11642D02*
X-10275Y-11625D01*
G54D36*
X-5100Y-12716D02*
X-5484Y-12716D01*
X-5650Y-12550D02*
X-5650Y-12000D01*
X-5484Y-12716D02*
X-5650Y-12550D01*
X-7650Y-2449D02*
X-7650Y-3350D01*
X-7849Y-3549D02*
X-7849Y-4175D01*
X-7650Y-3350D02*
X-7849Y-3549D01*
G54D35*
X-9009Y-1485D02*
X-9335Y-1485D01*
X-9335Y-1485D02*
X-9900Y-2050D01*
X-9900Y-2050D02*
X-10350Y-2050D01*
X-10350Y-2050D02*
X-10490Y-2190D01*
X-10490Y-2190D02*
X-10490Y-2726D01*
X-9009Y-1485D02*
X-8614Y-1485D01*
X-7238Y-2449D02*
X-7650Y-2449D01*
X-7650Y-2449D02*
X-7950Y-2449D01*
X-6549Y-2524D02*
X-7163Y-2524D01*
X-7163Y-2524D02*
X-7238Y-2449D01*
X-5860Y-2524D02*
X-6549Y-2524D01*
G54D36*
X-9227Y-4175D02*
X-9227Y-3823D01*
X-10490Y-3109D02*
X-10490Y-2726D01*
X-9900Y-3700D02*
X-10490Y-3109D01*
X-9350Y-3700D02*
X-9900Y-3700D01*
X-9227Y-3823D02*
X-9350Y-3700D01*
G54D35*
X-11875Y-12425D02*
X-11125Y-12425D01*
X-11125Y-12425D02*
X-10975Y-12575D01*
X-10292Y-12422D02*
X-10522Y-12422D01*
X-10675Y-12575D02*
X-10975Y-12575D01*
X-10522Y-12422D02*
X-10675Y-12575D01*
G54D36*
X-7455Y-4175D02*
X-7455Y-4576D01*
X-7455Y-4576D02*
X-7336Y-4694D01*
X-6865Y-4565D02*
X-6865Y-4175D01*
X-7336Y-4694D02*
X-6994Y-4694D01*
X-6994Y-4694D02*
X-6865Y-4565D01*
G54D35*
X-10292Y-12422D02*
X-9853Y-12422D01*
X-9853Y-12422D02*
X-9584Y-12690D01*
G54D36*
X-7950Y-2449D02*
X-8025Y-2524D01*
G54D35*
X-8025Y-2074D02*
X-8025Y-2524D01*
X-8614Y-1485D02*
X-8025Y-2074D01*
X-9209Y-13690D02*
X-9209Y-14290D01*
X-9209Y-14290D02*
X-9159Y-14340D01*
X-8175Y-15200D02*
X-8811Y-15200D01*
X-8811Y-15200D02*
X-8864Y-15146D01*
X-9159Y-14340D02*
X-9159Y-14438D01*
X-9159Y-14438D02*
X-8864Y-14734D01*
X-8864Y-14734D02*
X-8864Y-15146D01*
X-9965Y-15021D02*
X-9965Y-15343D01*
X-9965Y-15343D02*
X-10340Y-15718D01*
X-10340Y-15718D02*
X-10340Y-16309D01*
X-10340Y-16309D02*
X-10242Y-16407D01*
X-10242Y-16407D02*
X-9750Y-16407D01*
X-9750Y-16407D02*
X-9356Y-16013D01*
X-9356Y-16013D02*
X-9356Y-15226D01*
X-9356Y-15226D02*
X-9276Y-15146D01*
X-9276Y-15146D02*
X-8864Y-15146D01*
X-8834Y-13690D02*
X-8320Y-13690D01*
X-8320Y-13690D02*
X-8230Y-13781D01*
X-8834Y-13690D02*
X-9209Y-13690D01*
G54D36*
X-12800Y-7925D02*
X-12800Y-7325D01*
X-13075Y-7050D02*
X-13350Y-7050D01*
X-12800Y-7325D02*
X-13075Y-7050D01*
X-11625Y-6050D02*
X-11975Y-6050D01*
X-10646Y-6254D02*
X-10850Y-6050D01*
X-10850Y-6050D02*
X-11625Y-6050D01*
X-10125Y-6254D02*
X-10646Y-6254D01*
X-11975Y-6050D02*
X-12150Y-5875D01*
X-6800Y-10700D02*
X-6800Y-11350D01*
X-6875Y-10000D02*
X-6875Y-10275D01*
X-6800Y-10350D02*
X-6800Y-10700D01*
X-6875Y-10275D02*
X-6800Y-10350D01*
X-6867Y-8861D02*
X-6867Y-9217D01*
X-6875Y-9225D02*
X-6875Y-10000D01*
X-6867Y-9217D02*
X-6875Y-9225D01*
X-5875Y-10700D02*
X-5550Y-11025D01*
X-6200Y-10700D02*
X-5875Y-10700D01*
X-6125Y-10000D02*
X-6125Y-10275D01*
X-6200Y-10350D02*
X-6200Y-10700D01*
X-6125Y-10275D02*
X-6200Y-10350D01*
X-6474Y-8861D02*
X-6474Y-9226D01*
X-6100Y-9975D02*
X-6125Y-10000D01*
X-6100Y-9600D02*
X-6100Y-9975D01*
X-6474Y-9226D02*
X-6100Y-9600D01*
X-8636Y-8861D02*
X-8636Y-7389D01*
X-8636Y-7389D02*
X-8700Y-7325D01*
X-10125Y-6648D02*
X-8873Y-6648D01*
X-10675Y-4450D02*
X-11775Y-4450D01*
X-10275Y-4850D02*
X-10675Y-4450D01*
X-9500Y-4850D02*
X-10275Y-4850D01*
X-8450Y-5900D02*
X-9500Y-4850D01*
X-8450Y-6225D02*
X-8450Y-5900D01*
X-8873Y-6648D02*
X-8450Y-6225D01*
X-14100Y-4925D02*
X-14100Y-5500D01*
X-14100Y-5500D02*
X-12558Y-7042D01*
X-12558Y-7042D02*
X-10125Y-7042D01*
G54D37*
X-6800Y-12972D02*
X-7228Y-12972D01*
X-5950Y-8475D02*
X-5950Y-7950D01*
X-5550Y-8875D02*
X-5950Y-8475D01*
X-7250Y-12425D02*
X-6850Y-12025D01*
X-7250Y-12950D02*
X-7250Y-12425D01*
X-7228Y-12972D02*
X-7250Y-12950D01*
X-6800Y-13228D02*
X-6800Y-12972D01*
X-6274Y-4175D02*
X-6274Y-4526D01*
X-5950Y-4850D02*
X-5950Y-6150D01*
X-6274Y-4526D02*
X-5950Y-4850D01*
X-5439Y-7632D02*
X-5950Y-7632D01*
X-5950Y-7632D02*
X-5950Y-7650D01*
X-5439Y-7238D02*
X-5950Y-7238D01*
X-5950Y-7238D02*
X-5950Y-7250D01*
X-5439Y-6845D02*
X-5950Y-6845D01*
X-5950Y-6845D02*
X-5950Y-6850D01*
X-5439Y-6451D02*
X-5950Y-6451D01*
X-5950Y-6451D02*
X-5950Y-6450D01*
X-5439Y-6057D02*
X-5857Y-6057D01*
X-5874Y-8026D02*
X-5439Y-8026D01*
X-5950Y-7950D02*
X-5874Y-8026D01*
X-5950Y-6150D02*
X-5950Y-6450D01*
X-5950Y-6450D02*
X-5950Y-6850D01*
X-5950Y-6850D02*
X-5950Y-7250D01*
X-5950Y-7250D02*
X-5950Y-7650D01*
X-5950Y-7650D02*
X-5950Y-7950D01*
X-5857Y-6057D02*
X-5950Y-6150D01*
G54D36*
X-6471Y-5029D02*
X-6471Y-4175D01*
X-6450Y-5050D02*
X-6471Y-5029D01*
X-8439Y-4175D02*
X-8439Y-3494D01*
X-9009Y-3316D02*
X-9009Y-2785D01*
X-8911Y-3415D02*
X-9009Y-3316D01*
X-8517Y-3415D02*
X-8911Y-3415D01*
X-8439Y-3494D02*
X-8517Y-3415D01*
X-9890Y-2726D02*
X-9890Y-3026D01*
X-8833Y-3789D02*
X-8833Y-4175D01*
X-9206Y-3415D02*
X-8833Y-3789D01*
X-9501Y-3415D02*
X-9206Y-3415D01*
X-9890Y-3026D02*
X-9501Y-3415D01*
G54D37*
X-8050Y-10050D02*
X-8050Y-8865D01*
X-8050Y-8865D02*
X-8046Y-8861D01*
X-8050Y-10700D02*
X-8050Y-10050D01*
G54D36*
X-8046Y-4175D02*
X-8046Y-3145D01*
X-8046Y-3145D02*
X-8025Y-3124D01*
X-7652Y-4175D02*
X-7652Y-3613D01*
X-7652Y-3613D02*
X-7238Y-3199D01*
G54D37*
X750Y-12750D02*
X200Y-12750D01*
X-850Y-14450D02*
X-1900Y-14450D01*
X-150Y-13750D02*
X-850Y-14450D01*
X-150Y-13100D02*
X-150Y-13750D01*
X200Y-12750D02*
X-150Y-13100D01*
X750Y-13750D02*
X700Y-13750D01*
X-600Y-15050D02*
X-1900Y-15050D01*
X700Y-13750D02*
X-600Y-15050D01*
G54D36*
X750Y-2750D02*
X-950Y-2750D01*
X-1250Y-3050D02*
X-1900Y-3050D01*
X-950Y-2750D02*
X-1250Y-3050D01*
X750Y-1750D02*
X-950Y-1750D01*
X-1450Y-1250D02*
X-1900Y-1250D01*
X-950Y-1750D02*
X-1450Y-1250D01*
X750Y-4750D02*
X-300Y-4750D01*
X-1000Y-5450D02*
X-1900Y-5450D01*
X-300Y-4750D02*
X-1000Y-5450D01*
X750Y-3750D02*
X-1100Y-3750D01*
X-1200Y-3650D02*
X-1900Y-3650D01*
X-1100Y-3750D02*
X-1200Y-3650D01*
X750Y-5750D02*
X-150Y-5750D01*
X-1050Y-6650D02*
X-1900Y-6650D01*
X-150Y-5750D02*
X-1050Y-6650D01*
X750Y-6750D02*
X50Y-6750D01*
X-1050Y-7850D02*
X-1900Y-7850D01*
X50Y-6750D02*
X-1050Y-7850D01*
X750Y-7750D02*
X350Y-7750D01*
X-950Y-9050D02*
X-1900Y-9050D01*
X350Y-7750D02*
X-950Y-9050D01*
X750Y-8750D02*
X450Y-8750D01*
X-1050Y-10250D02*
X-1900Y-10250D01*
X450Y-8750D02*
X-1050Y-10250D01*
X750Y-9750D02*
X500Y-9750D01*
X-1200Y-11450D02*
X-1900Y-11450D01*
X500Y-9750D02*
X-1200Y-11450D01*
X750Y-10750D02*
X400Y-10750D01*
X-950Y-12650D02*
X-1900Y-12650D01*
X-450Y-12150D02*
X-950Y-12650D01*
X-450Y-11600D02*
X-450Y-12150D01*
X400Y-10750D02*
X-450Y-11600D01*
X750Y-11750D02*
X500Y-11750D01*
X-1050Y-13850D02*
X-1900Y-13850D01*
X-650Y-13450D02*
X-1050Y-13850D01*
X-650Y-12900D02*
X-650Y-13450D01*
X500Y-11750D02*
X-650Y-12900D01*
G54D35*
X-25503Y2048D02*
X-25503Y123D01*
X-25503Y123D02*
X-25080Y-300D01*
G54D36*
X-19400Y1200D02*
X-18902Y1200D01*
X-18902Y1200D02*
X-18902Y1200D01*
G54D35*
X-24086Y1386D02*
X-24086Y2048D01*
X-23925Y1225D02*
X-24086Y1386D01*
G54D36*
X-19389Y1210D02*
X-19400Y1200D01*
X-17721Y1606D02*
X-17955Y1840D01*
X-25025Y1225D02*
X-25031Y1231D01*
G54D35*
X-25031Y2048D02*
X-25031Y1231D01*
G54D36*
X-17721Y1606D02*
X-17721Y1200D01*
X-15410Y-11650D02*
X-15412Y-11652D01*
X-15412Y-11652D02*
X-15412Y-12082D01*
X-15805Y-13578D02*
X-15805Y-14595D01*
X-15730Y-14670D02*
X-15530Y-14670D01*
X-15805Y-14595D02*
X-15730Y-14670D01*
X-15430Y-11090D02*
X-15570Y-11090D01*
X-15608Y-11812D02*
X-15608Y-12082D01*
X-15750Y-11670D02*
X-15608Y-11812D01*
X-15750Y-11270D02*
X-15750Y-11670D01*
X-15570Y-11090D02*
X-15750Y-11270D01*
X-19340Y-7344D02*
X-19355Y-7344D01*
X-13750Y-1850D02*
X-13750Y-1077D01*
X-14050Y-2150D02*
X-13750Y-1850D01*
X-16400Y-2150D02*
X-14050Y-2150D01*
X-18075Y-3825D02*
X-16400Y-2150D01*
X-19750Y-6950D02*
X-19750Y-6875D01*
X-19355Y-7344D02*
X-19750Y-6950D01*
X-15750Y-3222D02*
X-15750Y-4175D01*
X-16275Y-5400D02*
X-17101Y-6226D01*
X-17114Y-6214D02*
X-17114Y-6232D01*
X-11750Y-3875D02*
X-12000Y-4125D01*
X-12000Y-4125D02*
X-12875Y-4125D01*
X-12875Y-4125D02*
X-13025Y-4275D01*
X-11750Y-3222D02*
X-11750Y-3875D01*
X-15875Y-6940D02*
X-16140Y-7206D01*
X-15875Y-6850D02*
X-15875Y-6940D01*
X-15800Y-6775D02*
X-15875Y-6850D01*
X-13525Y-5050D02*
X-13525Y-5675D01*
X-13512Y-5037D02*
X-13525Y-5050D01*
X-18089Y-6085D02*
X-18089Y-6093D01*
X-18500Y-5675D02*
X-18089Y-6085D01*
X-14750Y-3222D02*
X-14750Y-4150D01*
X-17450Y-4425D02*
X-17525Y-4350D01*
X-15025Y-4425D02*
X-17450Y-4425D01*
X-14750Y-4150D02*
X-15025Y-4425D01*
X-14152Y-3222D02*
X-13750Y-3222D01*
X-14250Y-3125D02*
X-14250Y-2400D01*
X-14152Y-3222D02*
X-14250Y-3125D01*
X-16075Y-2325D02*
X-16075Y-2350D01*
X-14325Y-2325D02*
X-16075Y-2325D01*
X-14250Y-2400D02*
X-14325Y-2325D01*
X-16075Y-2350D02*
X-17775Y-4050D01*
X-18228Y-6221D02*
X-18525Y-5925D01*
X-18525Y-5925D02*
X-18700Y-5925D01*
X-18228Y-6232D02*
X-18228Y-6221D01*
X-11410Y-10310D02*
X-11630Y-10090D01*
X-11630Y-10090D02*
X-12210Y-10090D01*
X-12210Y-10090D02*
X-12310Y-9990D01*
X-12310Y-9990D02*
X-12310Y-9190D01*
X-12310Y-9190D02*
X-12610Y-8890D01*
X-12610Y-8890D02*
X-13790Y-8890D01*
X-13790Y-8890D02*
X-13970Y-9070D01*
X-14730Y-8550D02*
X-15230Y-8050D01*
X-15230Y-8050D02*
X-16110Y-8050D01*
X-16110Y-8050D02*
X-16330Y-7830D01*
X-16330Y-7830D02*
X-16330Y-7673D01*
X-16330Y-7673D02*
X-16001Y-7344D01*
X-15606Y-6950D02*
X-16001Y-7344D01*
X-14950Y-6950D02*
X-15606Y-6950D01*
X-14525Y-7375D02*
X-14950Y-6950D01*
X-14375Y-7375D02*
X-14525Y-7375D01*
X-16016Y-6525D02*
X-16418Y-6927D01*
X-14575Y-6525D02*
X-16016Y-6525D01*
X-14375Y-6725D02*
X-14575Y-6525D01*
X-16418Y-6927D02*
X-16427Y-6927D01*
X-16800Y-7600D02*
X-16650Y-7750D01*
X-16800Y-7300D02*
X-16800Y-7600D01*
X-16427Y-6927D02*
X-16800Y-7300D01*
X-12000Y-18250D02*
X-11990Y-18250D01*
X-11990Y-18250D02*
X-11490Y-17750D01*
X-11490Y-17750D02*
X-11490Y-16890D01*
X-11490Y-16890D02*
X-11850Y-16530D01*
X-11850Y-16530D02*
X-13890Y-16530D01*
X-13890Y-16530D02*
X-14330Y-16090D01*
X-14330Y-16090D02*
X-14330Y-15470D01*
X-14330Y-15470D02*
X-14590Y-15210D01*
X-14590Y-15210D02*
X-16230Y-15210D01*
X-16230Y-15210D02*
X-17470Y-13970D01*
X-17470Y-13970D02*
X-17470Y-11780D01*
X-17470Y-11780D02*
X-15900Y-10210D01*
X-16696Y-9432D02*
X-16677Y-9432D01*
X-10639Y-7829D02*
X-10125Y-7829D01*
X-14700Y-10210D02*
X-15900Y-10210D01*
X-14440Y-9950D02*
X-14700Y-10210D01*
X-14440Y-8490D02*
X-14440Y-9950D01*
X-14170Y-8220D02*
X-14440Y-8490D01*
X-11030Y-8220D02*
X-14170Y-8220D01*
X-10639Y-7829D02*
X-11030Y-8220D01*
X-16677Y-9432D02*
X-15900Y-10210D01*
X-13330Y-7920D02*
X-13840Y-7920D01*
X-13325Y-7925D02*
X-13330Y-7920D01*
X-15050Y-7150D02*
X-15025Y-7150D01*
X-15025Y-7150D02*
X-14255Y-7920D01*
X-14255Y-7920D02*
X-13840Y-7920D01*
X-15862Y-7484D02*
X-15859Y-7484D01*
X-15525Y-7150D02*
X-15050Y-7150D01*
X-15859Y-7484D02*
X-15525Y-7150D01*
X-11017Y-5467D02*
X-11100Y-5550D01*
X-11017Y-5467D02*
X-10125Y-5467D01*
X-15862Y-7482D02*
X-15862Y-7484D01*
X-14230Y-10990D02*
X-14230Y-10620D01*
X-15740Y-9240D02*
X-15650Y-9150D01*
X-15650Y-9150D02*
X-15150Y-9150D01*
X-15150Y-9150D02*
X-15050Y-9250D01*
X-15740Y-9240D02*
X-15780Y-9240D01*
X-14230Y-10620D02*
X-14250Y-10600D01*
X-14230Y-10990D02*
X-14730Y-10990D01*
X-14730Y-10990D02*
X-14830Y-11090D01*
G54D35*
X-13446Y-12304D02*
X-13446Y-12918D01*
X-13446Y-12918D02*
X-13521Y-12993D01*
X-7630Y-13781D02*
X-7630Y-12797D01*
X-8000Y-17250D02*
X-8000Y-17290D01*
X-8000Y-17290D02*
X-7500Y-17790D01*
X-7500Y-17790D02*
X-3460Y-17790D01*
X-3460Y-17790D02*
X-3000Y-18250D01*
X-2000Y-18250D02*
X-3000Y-18250D01*
X-3000Y-17250D02*
X-2000Y-17250D01*
X-2000Y-17250D02*
X-2000Y-18250D01*
X-24000Y-18250D02*
X-24000Y-17250D01*
X-7190Y-15760D02*
X-7190Y-16440D01*
X-7190Y-16440D02*
X-8000Y-17250D01*
X-7190Y-15760D02*
X-8135Y-15760D01*
X-8135Y-15760D02*
X-8175Y-15800D01*
G54D36*
X-15780Y-9230D02*
X-15780Y-9240D01*
X-16073Y-8936D02*
X-15780Y-9230D01*
X-16064Y-9510D02*
X-16418Y-9155D01*
X-15780Y-9240D02*
X-16050Y-9510D01*
X-16050Y-9510D02*
X-16064Y-9510D01*
X-16140Y-8876D02*
X-16133Y-8876D01*
X-1150Y-13250D02*
X-1900Y-13250D01*
X-1375Y-12050D02*
X-1900Y-12050D01*
X-1350Y-12025D02*
X-1375Y-12050D01*
X-1275Y-10850D02*
X-1900Y-10850D01*
X-1200Y-10775D02*
X-1275Y-10850D01*
X-1375Y-9650D02*
X-1900Y-9650D01*
X-1325Y-9600D02*
X-1375Y-9650D01*
X-1325Y-8450D02*
X-1900Y-8450D01*
X-1100Y-7250D02*
X-1900Y-7250D01*
X-1075Y-7225D02*
X-1100Y-7250D01*
X-1325Y-6050D02*
X-1900Y-6050D01*
X-1900Y-1850D02*
X-1600Y-1850D01*
X-1125Y-4250D02*
X-1900Y-4250D01*
X-1075Y-4300D02*
X-1125Y-4250D01*
X-1225Y-2225D02*
X-600Y-2225D01*
X-1600Y-1850D02*
X-1225Y-2225D01*
X-1900Y-4250D02*
X-1900Y-4850D01*
X-1900Y-1850D02*
X-1900Y-2450D01*
G54D35*
X-8175Y-15800D02*
X-8767Y-15800D01*
X-8767Y-15800D02*
X-8864Y-15896D01*
X-10292Y-13172D02*
X-10972Y-13172D01*
X-10972Y-13172D02*
X-10975Y-13175D01*
X-10292Y-13172D02*
X-9818Y-13172D01*
X-9584Y-13406D02*
X-9584Y-13690D01*
X-9818Y-13172D02*
X-9584Y-13406D01*
G54D36*
X-25656Y-13142D02*
X-26286Y-13142D01*
G54D35*
X-6250Y-12000D02*
X-6250Y-11850D01*
G54D36*
X-9850Y-10700D02*
X-9350Y-10700D01*
G54D35*
X-6400Y-11700D02*
X-6950Y-11700D01*
X-6250Y-11850D02*
X-6400Y-11700D01*
G54D36*
X-10125Y-6057D02*
X-9643Y-6057D01*
X-9643Y-6057D02*
X-9550Y-6150D01*
X-10627Y-5073D02*
X-10800Y-4900D01*
X-10627Y-5073D02*
X-10125Y-5073D01*
X-9030Y-4870D02*
X-8900Y-5000D01*
X-9030Y-4175D02*
X-9030Y-4870D01*
X-9850Y-10050D02*
X-9350Y-10050D01*
X-9350Y-10050D02*
X-9350Y-10700D01*
X-10125Y-6845D02*
X-10855Y-6845D01*
X-10855Y-6845D02*
X-10950Y-6750D01*
X-10125Y-7238D02*
X-11288Y-7238D01*
X-11288Y-7238D02*
X-11450Y-7400D01*
X-10125Y-7435D02*
X-11035Y-7435D01*
X-11035Y-7435D02*
X-11250Y-7650D01*
X-10125Y-7632D02*
X-10882Y-7632D01*
X-10882Y-7632D02*
X-10900Y-7650D01*
X-10675Y-9425D02*
X-10675Y-9725D01*
X-10675Y-9725D02*
X-10900Y-9950D01*
X-18923Y-6927D02*
X-18923Y-6926D01*
X-18923Y-6926D02*
X-19400Y-6450D01*
X-15696Y-7623D02*
X-15550Y-7770D01*
X-15723Y-7623D02*
X-15696Y-7623D01*
X-15550Y-7770D02*
X-15250Y-7770D01*
X-9227Y-8861D02*
X-9227Y-9350D01*
X-9227Y-9350D02*
X-9225Y-9350D01*
X-8833Y-8861D02*
X-8833Y-9258D01*
X-10225Y-9425D02*
X-10675Y-9425D01*
X-10150Y-9350D02*
X-10225Y-9425D01*
X-8925Y-9350D02*
X-9225Y-9350D01*
X-9225Y-9350D02*
X-10150Y-9350D01*
X-8833Y-9258D02*
X-8925Y-9350D01*
X-11325Y-9425D02*
X-10675Y-9425D01*
X-11750Y-1077D02*
X-11750Y-2110D01*
X-11750Y-2110D02*
X-11770Y-2130D01*
X-17310Y-1350D02*
X-16022Y-1350D01*
X-16022Y-1350D02*
X-15750Y-1077D01*
X-17310Y-1350D02*
X-17310Y-1030D01*
X-17126Y117D02*
X-16817Y117D01*
X-16817Y117D02*
X-16750Y50D01*
X-20150Y670D02*
X-19650Y670D01*
X-18245Y-320D02*
X-18245Y-335D01*
X-19190Y-320D02*
X-18245Y-320D01*
X-19330Y-180D02*
X-19190Y-320D01*
X-19330Y350D02*
X-19330Y-180D01*
X-19650Y670D02*
X-19330Y350D01*
X-20150Y670D02*
X-20680Y670D01*
X-20680Y670D02*
X-20800Y550D01*
X-18307Y117D02*
X-18307Y-257D01*
X-18307Y-257D02*
X-18230Y-335D01*
X-18230Y-335D02*
X-18245Y-335D01*
X-17579Y-335D02*
X-17126Y117D01*
X-18245Y-335D02*
X-17579Y-335D01*
X-26448Y-2608D02*
X-26448Y-3148D01*
X-26190Y-2350D02*
X-26448Y-2608D01*
X-19340Y-1770D02*
X-20150Y-1770D01*
X-19330Y-1760D02*
X-19340Y-1770D01*
X-20605Y-1770D02*
X-20150Y-1770D01*
X-20800Y-1575D02*
X-20605Y-1770D01*
X-20800Y550D02*
X-20800Y-1575D01*
G54D35*
X-21450Y-6775D02*
X-21450Y-7250D01*
X-21450Y-7250D02*
X-21660Y-7460D01*
X-21450Y-6775D02*
X-21450Y-6125D01*
G54D36*
X-16990Y-13150D02*
X-16990Y-13540D01*
X-16990Y-13540D02*
X-17000Y-13550D01*
X-16130Y-14670D02*
X-16430Y-14670D01*
X-16430Y-14670D02*
X-16550Y-14550D01*
X-16258Y-13322D02*
X-16258Y-13608D01*
X-16258Y-13608D02*
X-16450Y-13800D01*
X-14762Y-13322D02*
X-14762Y-13738D01*
X-14762Y-13738D02*
X-14600Y-13900D01*
X-15805Y-12082D02*
X-15805Y-11845D01*
X-15805Y-11845D02*
X-15900Y-11750D01*
X-15900Y-11750D02*
X-16300Y-11750D01*
X-19400Y-6450D02*
X-19750Y-6450D01*
X-19630Y-12270D02*
X-19630Y-12980D01*
X-19630Y-12980D02*
X-19710Y-13060D01*
X-21252Y-3148D02*
X-21152Y-3148D01*
X-21152Y-3148D02*
X-20750Y-3550D01*
X-19030Y-12270D02*
X-19630Y-12270D01*
X-12250Y-16000D02*
X-12700Y-16000D01*
X-13700Y-14034D02*
X-13737Y-14071D01*
X-13700Y-13750D02*
X-13700Y-14034D01*
X-13600Y-13650D02*
X-13700Y-13750D01*
X-13200Y-13650D02*
X-13600Y-13650D01*
X-12700Y-16000D02*
X-12800Y-15900D01*
G54D35*
X-10715Y-16021D02*
X-10715Y-16305D01*
X-10715Y-16305D02*
X-10900Y-16490D01*
X-11276Y-14573D02*
X-11601Y-14573D01*
X-11825Y-14350D02*
X-12359Y-14350D01*
X-11601Y-14573D02*
X-11825Y-14350D01*
X-10715Y-16021D02*
X-11021Y-16021D01*
X-11096Y-16096D02*
X-11546Y-16096D01*
X-11021Y-16021D02*
X-11096Y-16096D01*
X-11546Y-16096D02*
X-12153Y-16096D01*
X-12153Y-16096D02*
X-12250Y-16000D01*
X-12359Y-14773D02*
X-12359Y-14350D01*
X-12359Y-14350D02*
X-12359Y-14273D01*
X-12359Y-14273D02*
X-12457Y-14175D01*
X-12457Y-14175D02*
X-13634Y-14175D01*
X-13634Y-14175D02*
X-13737Y-14071D01*
G54D36*
X-18492Y-9572D02*
X-18220Y-9300D01*
X-18220Y-9300D02*
X-18220Y-8920D01*
X-18220Y-8920D02*
X-18370Y-8770D01*
X-18492Y-9572D02*
X-18506Y-9572D01*
G54D35*
X-19850Y-4900D02*
X-19270Y-4900D01*
X-19270Y-4900D02*
X-19250Y-4920D01*
X-20575Y-4975D02*
X-19925Y-4975D01*
G54D36*
X-19925Y-4975D02*
X-19850Y-4900D01*
X-5439Y-5270D02*
X-4920Y-5270D01*
X-4450Y-3050D02*
X-2500Y-3050D01*
X-4700Y-3300D02*
X-4450Y-3050D01*
X-4700Y-5050D02*
X-4700Y-3300D01*
X-4750Y-5100D02*
X-4700Y-5050D01*
X-4920Y-5270D02*
X-4750Y-5100D01*
X-2500Y-3050D02*
X-2500Y-2450D01*
X-5439Y-5073D02*
X-5023Y-5073D01*
X-3150Y-1250D02*
X-2500Y-1250D01*
X-4950Y-3050D02*
X-3150Y-1250D01*
X-4950Y-5000D02*
X-4950Y-3050D01*
X-5023Y-5073D02*
X-4950Y-5000D01*
X-2500Y-1250D02*
X-2500Y-1850D01*
X-5439Y-5664D02*
X-4664Y-5664D01*
X-4450Y-5450D02*
X-2500Y-5450D01*
X-4664Y-5664D02*
X-4450Y-5450D01*
X-2500Y-5450D02*
X-2500Y-4850D01*
X-5439Y-5467D02*
X-4767Y-5467D01*
X-4300Y-3650D02*
X-2500Y-3650D01*
X-4450Y-3800D02*
X-4300Y-3650D01*
X-4450Y-5150D02*
X-4450Y-3800D01*
X-4767Y-5467D02*
X-4450Y-5150D01*
X-2500Y-4250D02*
X-2500Y-3650D01*
X-2500Y-6650D02*
X-3850Y-6650D01*
X-4639Y-5861D02*
X-5439Y-5861D01*
X-3850Y-6650D02*
X-4639Y-5861D01*
X-2500Y-6650D02*
X-2500Y-6050D01*
X-2500Y-7850D02*
X-2900Y-7850D01*
X-4596Y-6254D02*
X-5439Y-6254D01*
X-3950Y-6900D02*
X-4596Y-6254D01*
X-3300Y-6900D02*
X-3950Y-6900D01*
X-3150Y-7050D02*
X-3300Y-6900D01*
X-3150Y-7600D02*
X-3150Y-7050D01*
X-2900Y-7850D02*
X-3150Y-7600D01*
X-2500Y-7250D02*
X-2500Y-7850D01*
X-5439Y-6648D02*
X-4552Y-6648D01*
X-2700Y-9050D02*
X-2500Y-9050D01*
X-2950Y-8800D02*
X-2700Y-9050D01*
X-2950Y-8150D02*
X-2950Y-8800D01*
X-3400Y-7700D02*
X-2950Y-8150D01*
X-3400Y-7250D02*
X-3400Y-7700D01*
X-3500Y-7150D02*
X-3400Y-7250D01*
X-4050Y-7150D02*
X-3500Y-7150D01*
X-4552Y-6648D02*
X-4050Y-7150D01*
X-2500Y-9050D02*
X-2500Y-8450D01*
X-2500Y-10250D02*
X-2700Y-10250D01*
X-4558Y-7042D02*
X-5439Y-7042D01*
X-4200Y-7400D02*
X-4558Y-7042D01*
X-3700Y-7400D02*
X-4200Y-7400D01*
X-3650Y-7450D02*
X-3700Y-7400D01*
X-3650Y-7800D02*
X-3650Y-7450D01*
X-3250Y-8200D02*
X-3650Y-7800D01*
X-3250Y-8850D02*
X-3250Y-8200D01*
X-2850Y-9250D02*
X-3250Y-8850D01*
X-2850Y-10100D02*
X-2850Y-9250D01*
X-2700Y-10250D02*
X-2850Y-10100D01*
X-2500Y-10250D02*
X-2500Y-9650D01*
X-5439Y-7435D02*
X-4540Y-7435D01*
X-2800Y-11450D02*
X-2500Y-11450D01*
X-3150Y-11100D02*
X-2800Y-11450D01*
X-3150Y-9325D02*
X-3150Y-11100D01*
X-3500Y-8975D02*
X-3150Y-9325D01*
X-3500Y-8325D02*
X-3500Y-8975D01*
X-4175Y-7650D02*
X-3500Y-8325D01*
X-4325Y-7650D02*
X-4175Y-7650D01*
X-4540Y-7435D02*
X-4325Y-7650D01*
X-2500Y-11450D02*
X-2500Y-10850D01*
X-5439Y-7829D02*
X-4471Y-7829D01*
X-2750Y-12650D02*
X-2500Y-12650D01*
X-2950Y-12450D02*
X-2750Y-12650D01*
X-2950Y-11700D02*
X-2950Y-12450D01*
X-3400Y-11250D02*
X-2950Y-11700D01*
X-3400Y-9400D02*
X-3400Y-11250D01*
X-3750Y-9050D02*
X-3400Y-9400D01*
X-3750Y-8400D02*
X-3750Y-9050D01*
X-4250Y-7900D02*
X-3750Y-8400D01*
X-4400Y-7900D02*
X-4250Y-7900D01*
X-4471Y-7829D02*
X-4400Y-7900D01*
X-2500Y-12650D02*
X-2500Y-12050D01*
X-2500Y-14450D02*
X-3100Y-14450D01*
X-4128Y-12972D02*
X-5100Y-12972D01*
X-3325Y-13775D02*
X-4128Y-12972D01*
X-3325Y-14225D02*
X-3325Y-13775D01*
X-3100Y-14450D02*
X-3325Y-14225D01*
X-5100Y-12972D02*
X-5578Y-12972D01*
X-6670Y-9380D02*
X-6670Y-8861D01*
X-6500Y-9550D02*
X-6670Y-9380D01*
X-6500Y-11100D02*
X-6500Y-9550D01*
X-5950Y-11650D02*
X-6500Y-11100D01*
X-5950Y-12600D02*
X-5950Y-11650D01*
X-5578Y-12972D02*
X-5950Y-12600D01*
X-12537Y150D02*
X-11937Y750D01*
X-13000Y150D02*
X-12537Y150D01*
X-13325Y-4350D02*
X-13325Y-175D01*
X-13150Y-4525D02*
X-13325Y-4350D01*
X-12325Y-4525D02*
X-13150Y-4525D01*
X-11825Y-5025D02*
X-12325Y-4525D01*
X-11825Y-5500D02*
X-11825Y-5025D01*
X-13325Y-175D02*
X-13000Y150D01*
X-10125Y-5861D02*
X-11464Y-5861D01*
X-11464Y-5861D02*
X-11825Y-5500D01*
X-12750Y-1077D02*
X-12750Y-2100D01*
X-12750Y-2100D02*
X-12875Y-2225D01*
X-15215Y-13578D02*
X-15215Y-13975D01*
X-15350Y-14110D02*
X-15490Y-14110D01*
X-15215Y-13975D02*
X-15350Y-14110D01*
X-20125Y-14550D02*
X-20125Y-15825D01*
X-20125Y-15825D02*
X-20050Y-15900D01*
X-20050Y-15900D02*
X-19740Y-15900D01*
X-19202Y-8876D02*
X-19202Y-8877D01*
X-19202Y-8877D02*
X-19850Y-9525D01*
X-19850Y-9525D02*
X-20425Y-9525D01*
X-20425Y-9525D02*
X-20500Y-9600D01*
X-20500Y-9600D02*
X-20500Y-14175D01*
X-20500Y-14175D02*
X-20125Y-14550D01*
X-14000Y-18170D02*
X-14000Y-18250D01*
X-15990Y-16100D02*
X-17200Y-16100D01*
X-15510Y-16580D02*
X-15990Y-16100D01*
X-15510Y-17440D02*
X-15510Y-16580D01*
X-15200Y-17750D02*
X-15510Y-17440D01*
X-14420Y-17750D02*
X-15200Y-17750D01*
X-14000Y-18170D02*
X-14420Y-17750D01*
X-18410Y-16070D02*
X-18410Y-11250D01*
X-19202Y-8862D02*
X-18730Y-8390D01*
X-18730Y-8390D02*
X-18020Y-8390D01*
X-18070Y-10910D02*
X-18410Y-11250D01*
X-19202Y-8862D02*
X-19202Y-8876D01*
X-18410Y-16070D02*
X-18370Y-16110D01*
X-18370Y-16110D02*
X-18410Y-16070D01*
X-15040Y-15940D02*
X-15020Y-15940D01*
X-15018Y-13942D02*
X-15018Y-13578D01*
X-14850Y-14110D02*
X-15018Y-13942D01*
X-15020Y-15940D02*
X-14830Y-15750D01*
X-21030Y-15650D02*
X-21030Y-14510D01*
X-21030Y-14510D02*
X-20710Y-14190D01*
X-20710Y-14190D02*
X-20710Y-9130D01*
X-20710Y-9130D02*
X-19610Y-8030D01*
X-19610Y-8030D02*
X-18850Y-8030D01*
X-18850Y-8030D02*
X-18270Y-7450D01*
X-17710Y-6610D02*
X-17710Y-6530D01*
X-17710Y-6530D02*
X-17273Y-6093D01*
X-17273Y-6093D02*
X-17253Y-6093D01*
X-20510Y-15900D02*
X-20920Y-15900D01*
X-20920Y-15900D02*
X-21030Y-15790D01*
X-21030Y-15790D02*
X-21030Y-15650D01*
X-14000Y-17250D02*
X-14000Y-17200D01*
X-14000Y-17200D02*
X-14750Y-16450D01*
X-14750Y-16450D02*
X-14750Y-16230D01*
X-14750Y-16230D02*
X-15040Y-15940D01*
X-15040Y-15940D02*
X-15330Y-15650D01*
X-15330Y-15650D02*
X-17150Y-15650D01*
X-16400Y-8350D02*
X-16389Y-8350D01*
X-16000Y-11300D02*
X-15900Y-11200D01*
X-15900Y-11200D02*
X-15900Y-11000D01*
X-16389Y-8350D02*
X-16001Y-8737D01*
X-16002Y-12082D02*
X-16518Y-12082D01*
X-16500Y-11300D02*
X-16000Y-11300D01*
X-16600Y-11400D02*
X-16500Y-11300D01*
X-16600Y-12000D02*
X-16600Y-11400D01*
X-16518Y-12082D02*
X-16600Y-12000D01*
X-16001Y-8737D02*
X-16012Y-8737D01*
X-16002Y-11302D02*
X-16000Y-11300D01*
X-17000Y-8450D02*
X-17154Y-8295D01*
X-17154Y-8295D02*
X-17154Y-7604D01*
X-17154Y-7604D02*
X-16970Y-7420D01*
X-16970Y-7420D02*
X-16970Y-7190D01*
X-16569Y-6789D02*
X-16970Y-7190D01*
X-16569Y-6789D02*
X-16557Y-6789D01*
X-16557Y-6789D02*
X-16557Y-6782D01*
X-14450Y-5450D02*
X-14450Y-4925D01*
X-14525Y-5525D02*
X-14450Y-5450D01*
X-15300Y-5525D02*
X-14525Y-5525D01*
X-16557Y-6782D02*
X-15300Y-5525D01*
X-11445Y-5270D02*
X-11450Y-5275D01*
X-16696Y-6646D02*
X-16180Y-6130D01*
X-16180Y-6130D02*
X-16180Y-6040D01*
X-16180Y-6040D02*
X-15880Y-5740D01*
X-16696Y-6649D02*
X-16696Y-6646D01*
X-11445Y-5270D02*
X-10125Y-5270D01*
X-10125Y-5270D02*
X-9440Y-5270D01*
X-9520Y-17770D02*
X-10000Y-18250D01*
X-8610Y-17770D02*
X-9520Y-17770D01*
X-8450Y-17610D02*
X-8610Y-17770D01*
X-8450Y-16440D02*
X-8450Y-17610D01*
X-8480Y-16410D02*
X-8450Y-16440D01*
X-9440Y-5270D02*
X-8700Y-6010D01*
X-18907Y117D02*
X-18907Y387D01*
X-18312Y982D02*
X-18312Y1200D01*
X-18907Y387D02*
X-18312Y982D01*
X-17726Y117D02*
X-17726Y393D01*
X-17131Y988D02*
X-17131Y1200D01*
X-17726Y393D02*
X-17131Y988D01*
X-11276Y-13973D02*
X-11784Y-13973D01*
X-11784Y-13973D02*
X-11984Y-13773D01*
X-9965Y-16021D02*
X-9856Y-16021D01*
X-9651Y-14729D02*
X-10040Y-14340D01*
X-9651Y-15816D02*
X-9651Y-14729D01*
X-9856Y-16021D02*
X-9651Y-15816D01*
X-10715Y-15021D02*
X-10715Y-14415D01*
X-10715Y-14415D02*
X-10640Y-14340D01*
G54D35*
X-8834Y-12690D02*
X-8336Y-12690D01*
X-8336Y-12690D02*
X-8230Y-12797D01*
G54D36*
X-6800Y-12716D02*
X-6284Y-12716D01*
X-5550Y-13750D02*
X-4450Y-13750D01*
X-5700Y-13600D02*
X-5550Y-13750D01*
X-5700Y-13300D02*
X-5700Y-13600D01*
X-6284Y-12716D02*
X-5700Y-13300D01*
X-25656Y-14757D02*
X-26286Y-14757D01*
X-20000Y-18250D02*
X-20000Y-18220D01*
X-24573Y-15840D02*
X-25656Y-14757D01*
X-21660Y-15840D02*
X-24573Y-15840D01*
X-21540Y-15960D02*
X-21660Y-15840D01*
X-21540Y-17520D02*
X-21540Y-15960D01*
X-21300Y-17760D02*
X-21540Y-17520D01*
X-20460Y-17760D02*
X-21300Y-17760D01*
X-20000Y-18220D02*
X-20460Y-17760D01*
X-2500Y-13250D02*
X-2900Y-13250D01*
G54D37*
X-2500Y-13850D02*
X-2500Y-13250D01*
G54D36*
X-16279Y-9015D02*
X-16284Y-9015D01*
X-17339Y-7439D02*
X-17250Y-7350D01*
X-17339Y-8550D02*
X-17339Y-7439D01*
X-16989Y-8900D02*
X-17339Y-8550D01*
X-16900Y-8900D02*
X-16989Y-8900D01*
X-16700Y-8700D02*
X-16900Y-8900D01*
X-16600Y-8700D02*
X-16700Y-8700D01*
X-16284Y-9015D02*
X-16600Y-8700D01*
X-18337Y-2562D02*
X-18345Y-2570D01*
G54D35*
X-18730Y-2570D02*
X-18940Y-2570D01*
X-24558Y-2658D02*
X-24470Y-2570D01*
X-24470Y-2570D02*
X-18940Y-2570D01*
X-24558Y-2658D02*
X-24558Y-3148D01*
X-18345Y-2570D02*
X-18730Y-2570D01*
G54D36*
X-17315Y-7415D02*
X-17250Y-7350D01*
X-16279Y-9015D02*
X-16279Y-9000D01*
X-18514Y-6510D02*
X-18506Y-6510D01*
X-18514Y-6510D02*
X-18950Y-6075D01*
X-18506Y-6493D02*
X-18506Y-6510D01*
X-10125Y-6451D02*
X-9201Y-6451D01*
X-9201Y-6451D02*
X-9100Y-6350D01*
X-13300Y-4650D02*
X-13250Y-4700D01*
X-13250Y-4700D02*
X-12925Y-4700D01*
X-13425Y-4650D02*
X-13300Y-4650D01*
X-13425Y-4650D02*
X-18125Y-4650D01*
X-12650Y-5775D02*
X-12175Y-6250D01*
X-10125Y-6451D02*
X-10749Y-6451D01*
X-10749Y-6451D02*
X-10950Y-6250D01*
X-12925Y-4700D02*
X-12650Y-4975D01*
X-12650Y-4975D02*
X-12650Y-5775D01*
X-18950Y-5475D02*
X-18125Y-4650D01*
X-18950Y-6075D02*
X-18950Y-5475D01*
X-12175Y-6250D02*
X-10950Y-6250D01*
X-2500Y-15050D02*
X-2875Y-15050D01*
X-4272Y-13228D02*
X-5100Y-13228D01*
X-3700Y-13800D02*
X-4272Y-13228D01*
X-3700Y-14225D02*
X-3700Y-13800D01*
X-2875Y-15050D02*
X-3700Y-14225D01*
G54D37*
X-5100Y-13484D02*
X-5100Y-13228D01*
G54D36*
X-15000Y-16400D02*
X-15000Y-17250D01*
X-15050Y-16350D02*
X-15000Y-16400D01*
X-19860Y-9810D02*
X-20200Y-9810D01*
G54D35*
X-21980Y-1460D02*
X-21980Y810D01*
X-21980Y810D02*
X-22200Y1030D01*
G54D36*
X-19062Y-9015D02*
X-19065Y-9015D01*
X-19065Y-9015D02*
X-19860Y-9810D01*
X-22200Y2045D02*
X-22197Y2048D01*
G54D35*
X-22200Y1030D02*
X-22200Y2045D01*
X-23050Y-2190D02*
X-23050Y1340D01*
X-23050Y1340D02*
X-22860Y1530D01*
X-22860Y1530D02*
X-22740Y1530D01*
X-22740Y1530D02*
X-22669Y1601D01*
X-22669Y2048D02*
X-22669Y1601D01*
G54D36*
X-15525Y-17725D02*
X-15000Y-18250D01*
X-16350Y-17725D02*
X-15525Y-17725D01*
X-16475Y-17600D02*
X-16350Y-17725D01*
X-16475Y-16900D02*
X-16475Y-17600D01*
X-16700Y-16675D02*
X-16475Y-16900D01*
X-17050Y-16675D02*
X-16700Y-16675D01*
X-17475Y-16250D02*
X-17050Y-16675D01*
X-17475Y-15450D02*
X-17475Y-16250D01*
X-17425Y-15400D02*
X-17475Y-15450D01*
X-18645Y-9435D02*
X-18645Y-9432D01*
X-19800Y-10780D02*
X-20160Y-11140D01*
X-19800Y-10590D02*
X-19800Y-10780D01*
X-18645Y-9435D02*
X-19800Y-10590D01*
X-12550Y-16700D02*
X-12000Y-17250D01*
X-14075Y-16700D02*
X-12550Y-16700D01*
X-14550Y-16225D02*
X-14075Y-16700D01*
X-14550Y-15530D02*
X-14550Y-16225D01*
X-14680Y-15400D02*
X-14550Y-15530D01*
X-16950Y-15400D02*
X-14680Y-15400D01*
X-17150Y-15200D02*
X-16950Y-15400D01*
X-22790Y-4220D02*
X-21340Y-4220D01*
G54D35*
X-21725Y-500D02*
X-21275Y-950D01*
X-21725Y2048D02*
X-21725Y-500D01*
G54D36*
X-18784Y-9294D02*
X-20170Y-10680D01*
X-18784Y-9294D02*
X-18784Y-9293D01*
X-21180Y-4060D02*
X-19200Y-4060D01*
X-21340Y-4220D02*
X-21180Y-4060D01*
X-20020Y-10250D02*
X-20190Y-10250D01*
X-21252Y-323D02*
X-21250Y-325D01*
X-18923Y-9155D02*
X-18925Y-9155D01*
X-18925Y-9155D02*
X-20020Y-10250D01*
G54D35*
X-21252Y2048D02*
X-21252Y-323D01*
G54D36*
X-18000Y-18250D02*
X-17990Y-18250D01*
X-18367Y-6382D02*
X-18367Y-6371D01*
X-18100Y-7200D02*
X-17680Y-7620D01*
X-18100Y-6650D02*
X-18100Y-7200D01*
X-18367Y-6382D02*
X-18100Y-6650D01*
X-17680Y-16320D02*
X-17680Y-7620D01*
X-17480Y-16520D02*
X-17680Y-16320D01*
X-17480Y-17740D02*
X-17480Y-16520D01*
X-17990Y-18250D02*
X-17480Y-17740D01*
X-17380Y-8890D02*
X-17429Y-8890D01*
X-16974Y-6374D02*
X-17380Y-6780D01*
X-16974Y-6374D02*
X-16974Y-6371D01*
X-17500Y-6900D02*
X-17380Y-6780D01*
X-17500Y-8819D02*
X-17500Y-6900D01*
X-17429Y-8890D02*
X-17500Y-8819D01*
X-18000Y-16310D02*
X-18000Y-11960D01*
X-18000Y-16310D02*
X-18500Y-16810D01*
X-18500Y-16810D02*
X-18500Y-17750D01*
X-19000Y-18250D02*
X-18500Y-17750D01*
X-18000Y-11410D02*
X-18000Y-11960D01*
X-18015Y-11395D02*
X-18000Y-11410D01*
X-17380Y-8890D02*
X-17380Y-8900D01*
G54D10*
G36*
X-13388Y-12354D02*
X-13396Y-12354D01*
X-13396Y-12362D01*
X-13496Y-12362D01*
X-13496Y-12354D01*
X-13504Y-12354D01*
X-13504Y-12254D01*
X-13496Y-12254D01*
X-13496Y-12247D01*
X-13396Y-12247D01*
X-13396Y-12254D01*
X-13388Y-12254D01*
X-13388Y-12354D01*
X-13388Y-12354D01*
G37*
G54D37*
X-13388Y-12354D02*
X-13396Y-12354D01*
X-13396Y-12362D01*
X-13496Y-12362D01*
X-13496Y-12354D01*
X-13504Y-12354D01*
X-13504Y-12254D01*
X-13496Y-12254D01*
X-13496Y-12247D01*
X-13396Y-12247D01*
X-13396Y-12254D01*
X-13388Y-12254D01*
X-13388Y-12354D01*
G54D10*
G36*
X-12192Y-16050D02*
X-12200Y-16050D01*
X-12200Y-16057D01*
X-12300Y-16057D01*
X-12300Y-16050D01*
X-12662Y-16050D01*
X-12720Y-16108D01*
X-12729Y-16100D01*
X-13429Y-16100D01*
X-14000Y-15529D01*
X-14000Y-15046D01*
X-13912Y-15046D01*
X-13618Y-15046D01*
X-13618Y-15047D01*
X-13752Y-15180D01*
X-13824Y-15355D01*
X-13825Y-15544D01*
X-13752Y-15718D01*
X-13619Y-15852D01*
X-13444Y-15924D01*
X-13255Y-15925D01*
X-13081Y-15852D01*
X-12958Y-15730D01*
X-12683Y-15730D01*
X-12687Y-15733D01*
X-12725Y-15825D01*
X-12725Y-15887D01*
X-12662Y-15950D01*
X-12300Y-15950D01*
X-12300Y-15942D01*
X-12200Y-15942D01*
X-12200Y-15950D01*
X-12192Y-15950D01*
X-12192Y-16050D01*
X-12192Y-16050D01*
G37*
G54D37*
X-12192Y-16050D02*
X-12200Y-16050D01*
X-12200Y-16057D01*
X-12300Y-16057D01*
X-12300Y-16050D01*
X-12662Y-16050D01*
X-12720Y-16108D01*
X-12729Y-16100D01*
X-13429Y-16100D01*
X-14000Y-15529D01*
X-14000Y-15046D01*
X-13912Y-15046D01*
X-13618Y-15046D01*
X-13618Y-15047D01*
X-13752Y-15180D01*
X-13824Y-15355D01*
X-13825Y-15544D01*
X-13752Y-15718D01*
X-13619Y-15852D01*
X-13444Y-15924D01*
X-13255Y-15925D01*
X-13081Y-15852D01*
X-12958Y-15730D01*
X-12683Y-15730D01*
X-12687Y-15733D01*
X-12725Y-15825D01*
X-12725Y-15887D01*
X-12662Y-15950D01*
X-12300Y-15950D01*
X-12300Y-15942D01*
X-12200Y-15942D01*
X-12200Y-15950D01*
X-12192Y-15950D01*
X-12192Y-16050D01*
G54D10*
G36*
X-11680Y-14273D02*
X-11713Y-14306D01*
X-11751Y-14398D01*
X-11751Y-14407D01*
X-11834Y-14373D01*
X-11933Y-14373D01*
X-12133Y-14373D01*
X-12171Y-14389D01*
X-12209Y-14373D01*
X-12246Y-14373D01*
X-12309Y-14435D01*
X-12309Y-14513D01*
X-12334Y-14573D01*
X-12334Y-14672D01*
X-12334Y-14831D01*
X-12384Y-14831D01*
X-12384Y-14573D01*
X-12409Y-14513D01*
X-12409Y-14435D01*
X-12471Y-14373D01*
X-12508Y-14373D01*
X-12546Y-14389D01*
X-12584Y-14373D01*
X-12683Y-14373D01*
X-12883Y-14373D01*
X-12898Y-14379D01*
X-12917Y-14366D01*
X-13043Y-14341D01*
X-13303Y-14341D01*
X-13300Y-14338D01*
X-13262Y-14246D01*
X-13262Y-13897D01*
X-13300Y-13805D01*
X-13370Y-13735D01*
X-13462Y-13696D01*
X-13561Y-13696D01*
X-13571Y-13696D01*
X-13571Y-13456D01*
X-13571Y-13043D01*
X-13884Y-13043D01*
X-13946Y-13106D01*
X-13946Y-13219D01*
X-13946Y-13318D01*
X-13908Y-13410D01*
X-13838Y-13480D01*
X-13746Y-13518D01*
X-13634Y-13518D01*
X-13571Y-13456D01*
X-13571Y-13696D01*
X-13624Y-13696D01*
X-13687Y-13759D01*
X-13687Y-14021D01*
X-13324Y-14021D01*
X-13262Y-13959D01*
X-13262Y-13897D01*
X-13262Y-14246D01*
X-13262Y-14184D01*
X-13324Y-14121D01*
X-13687Y-14121D01*
X-13687Y-14129D01*
X-13787Y-14129D01*
X-13787Y-14121D01*
X-13795Y-14121D01*
X-13795Y-14021D01*
X-13787Y-14021D01*
X-13787Y-13759D01*
X-13849Y-13696D01*
X-13912Y-13696D01*
X-14000Y-13696D01*
X-14000Y-12600D01*
X-13917Y-12600D01*
X-13946Y-12668D01*
X-13946Y-12768D01*
X-13946Y-12881D01*
X-13884Y-12943D01*
X-13571Y-12943D01*
X-13571Y-12936D01*
X-13471Y-12936D01*
X-13471Y-12943D01*
X-13463Y-12943D01*
X-13463Y-13043D01*
X-13471Y-13043D01*
X-13471Y-13456D01*
X-13409Y-13518D01*
X-13297Y-13518D01*
X-13205Y-13480D01*
X-13146Y-13422D01*
X-13088Y-13480D01*
X-13064Y-13490D01*
X-13064Y-13525D01*
X-13084Y-13573D01*
X-13084Y-13672D01*
X-13084Y-13972D01*
X-13046Y-14064D01*
X-12976Y-14135D01*
X-12884Y-14173D01*
X-12784Y-14173D01*
X-12584Y-14173D01*
X-12492Y-14135D01*
X-12422Y-14065D01*
X-12384Y-13973D01*
X-12384Y-13873D01*
X-12384Y-13573D01*
X-12404Y-13525D01*
X-12404Y-13430D01*
X-12384Y-13410D01*
X-12361Y-13355D01*
X-12248Y-13355D01*
X-12241Y-13361D01*
X-12173Y-13389D01*
X-12225Y-13411D01*
X-12296Y-13481D01*
X-12334Y-13573D01*
X-12334Y-13672D01*
X-12334Y-13972D01*
X-12296Y-14064D01*
X-12226Y-14135D01*
X-12134Y-14173D01*
X-12034Y-14173D01*
X-11994Y-14173D01*
X-11989Y-14178D01*
X-11895Y-14241D01*
X-11784Y-14263D01*
X-11690Y-14263D01*
X-11680Y-14273D01*
X-11680Y-14273D01*
G37*
G54D37*
X-11680Y-14273D02*
X-11713Y-14306D01*
X-11751Y-14398D01*
X-11751Y-14407D01*
X-11834Y-14373D01*
X-11933Y-14373D01*
X-12133Y-14373D01*
X-12171Y-14389D01*
X-12209Y-14373D01*
X-12246Y-14373D01*
X-12309Y-14435D01*
X-12309Y-14513D01*
X-12334Y-14573D01*
X-12334Y-14672D01*
X-12334Y-14831D01*
X-12384Y-14831D01*
X-12384Y-14573D01*
X-12409Y-14513D01*
X-12409Y-14435D01*
X-12471Y-14373D01*
X-12508Y-14373D01*
X-12546Y-14389D01*
X-12584Y-14373D01*
X-12683Y-14373D01*
X-12883Y-14373D01*
X-12898Y-14379D01*
X-12917Y-14366D01*
X-13043Y-14341D01*
X-13303Y-14341D01*
X-13300Y-14338D01*
X-13262Y-14246D01*
X-13262Y-13897D01*
X-13300Y-13805D01*
X-13370Y-13735D01*
X-13462Y-13696D01*
X-13561Y-13696D01*
X-13571Y-13696D01*
X-13571Y-13456D01*
X-13571Y-13043D01*
X-13884Y-13043D01*
X-13946Y-13106D01*
X-13946Y-13219D01*
X-13946Y-13318D01*
X-13908Y-13410D01*
X-13838Y-13480D01*
X-13746Y-13518D01*
X-13634Y-13518D01*
X-13571Y-13456D01*
X-13571Y-13696D01*
X-13624Y-13696D01*
X-13687Y-13759D01*
X-13687Y-14021D01*
X-13324Y-14021D01*
X-13262Y-13959D01*
X-13262Y-13897D01*
X-13262Y-14246D01*
X-13262Y-14184D01*
X-13324Y-14121D01*
X-13687Y-14121D01*
X-13687Y-14129D01*
X-13787Y-14129D01*
X-13787Y-14121D01*
X-13795Y-14121D01*
X-13795Y-14021D01*
X-13787Y-14021D01*
X-13787Y-13759D01*
X-13849Y-13696D01*
X-13912Y-13696D01*
X-14000Y-13696D01*
X-14000Y-12600D01*
X-13917Y-12600D01*
X-13946Y-12668D01*
X-13946Y-12768D01*
X-13946Y-12881D01*
X-13884Y-12943D01*
X-13571Y-12943D01*
X-13571Y-12936D01*
X-13471Y-12936D01*
X-13471Y-12943D01*
X-13463Y-12943D01*
X-13463Y-13043D01*
X-13471Y-13043D01*
X-13471Y-13456D01*
X-13409Y-13518D01*
X-13297Y-13518D01*
X-13205Y-13480D01*
X-13146Y-13422D01*
X-13088Y-13480D01*
X-13064Y-13490D01*
X-13064Y-13525D01*
X-13084Y-13573D01*
X-13084Y-13672D01*
X-13084Y-13972D01*
X-13046Y-14064D01*
X-12976Y-14135D01*
X-12884Y-14173D01*
X-12784Y-14173D01*
X-12584Y-14173D01*
X-12492Y-14135D01*
X-12422Y-14065D01*
X-12384Y-13973D01*
X-12384Y-13873D01*
X-12384Y-13573D01*
X-12404Y-13525D01*
X-12404Y-13430D01*
X-12384Y-13410D01*
X-12361Y-13355D01*
X-12248Y-13355D01*
X-12241Y-13361D01*
X-12173Y-13389D01*
X-12225Y-13411D01*
X-12296Y-13481D01*
X-12334Y-13573D01*
X-12334Y-13672D01*
X-12334Y-13972D01*
X-12296Y-14064D01*
X-12226Y-14135D01*
X-12134Y-14173D01*
X-12034Y-14173D01*
X-11994Y-14173D01*
X-11989Y-14178D01*
X-11895Y-14241D01*
X-11784Y-14263D01*
X-11690Y-14263D01*
X-11680Y-14273D01*
G54D10*
G36*
X-11488Y-16146D02*
X-11496Y-16146D01*
X-11496Y-16154D01*
X-11596Y-16154D01*
X-11596Y-16146D01*
X-11604Y-16146D01*
X-11604Y-16046D01*
X-11596Y-16046D01*
X-11596Y-16038D01*
X-11496Y-16038D01*
X-11496Y-16046D01*
X-11488Y-16046D01*
X-11488Y-16146D01*
X-11488Y-16146D01*
G37*
G54D37*
X-11488Y-16146D02*
X-11496Y-16146D01*
X-11496Y-16154D01*
X-11596Y-16154D01*
X-11596Y-16146D01*
X-11604Y-16146D01*
X-11604Y-16046D01*
X-11596Y-16046D01*
X-11596Y-16038D01*
X-11496Y-16038D01*
X-11496Y-16046D01*
X-11488Y-16046D01*
X-11488Y-16146D01*
G54D10*
G36*
X-11218Y-14623D02*
X-11226Y-14623D01*
X-11226Y-14631D01*
X-11326Y-14631D01*
X-11326Y-14623D01*
X-11334Y-14623D01*
X-11334Y-14523D01*
X-11326Y-14523D01*
X-11326Y-14515D01*
X-11226Y-14515D01*
X-11226Y-14523D01*
X-11218Y-14523D01*
X-11218Y-14623D01*
X-11218Y-14623D01*
G37*
G54D37*
X-11218Y-14623D02*
X-11226Y-14623D01*
X-11226Y-14631D01*
X-11326Y-14631D01*
X-11326Y-14623D01*
X-11334Y-14623D01*
X-11334Y-14523D01*
X-11326Y-14523D01*
X-11326Y-14515D01*
X-11226Y-14515D01*
X-11226Y-14523D01*
X-11218Y-14523D01*
X-11218Y-14623D01*
G54D10*
G36*
X-10387Y-16700D02*
X-10765Y-16700D01*
X-11274Y-16700D01*
X-11284Y-16684D01*
X-11284Y-16684D01*
X-11496Y-16473D01*
X-11496Y-16459D01*
X-11434Y-16521D01*
X-11321Y-16521D01*
X-11221Y-16521D01*
X-11130Y-16483D01*
X-11059Y-16413D01*
X-11021Y-16321D01*
X-11021Y-16319D01*
X-10957Y-16383D01*
X-10865Y-16421D01*
X-10828Y-16421D01*
X-10765Y-16359D01*
X-10765Y-16071D01*
X-10773Y-16071D01*
X-10773Y-15971D01*
X-10765Y-15971D01*
X-10765Y-15963D01*
X-10670Y-15963D01*
X-10670Y-16309D01*
X-10665Y-16334D01*
X-10665Y-16359D01*
X-10659Y-16365D01*
X-10659Y-16365D01*
X-10645Y-16435D01*
X-10574Y-16542D01*
X-10475Y-16640D01*
X-10387Y-16700D01*
X-10387Y-16700D01*
G37*
G54D37*
X-10387Y-16700D02*
X-10765Y-16700D01*
X-11274Y-16700D01*
X-11284Y-16684D01*
X-11284Y-16684D01*
X-11496Y-16473D01*
X-11496Y-16459D01*
X-11434Y-16521D01*
X-11321Y-16521D01*
X-11221Y-16521D01*
X-11130Y-16483D01*
X-11059Y-16413D01*
X-11021Y-16321D01*
X-11021Y-16319D01*
X-10957Y-16383D01*
X-10865Y-16421D01*
X-10828Y-16421D01*
X-10765Y-16359D01*
X-10765Y-16071D01*
X-10773Y-16071D01*
X-10773Y-15971D01*
X-10765Y-15971D01*
X-10765Y-15963D01*
X-10670Y-15963D01*
X-10670Y-16309D01*
X-10665Y-16334D01*
X-10665Y-16359D01*
X-10659Y-16365D01*
X-10659Y-16365D01*
X-10645Y-16435D01*
X-10574Y-16542D01*
X-10475Y-16640D01*
X-10387Y-16700D01*
G54D10*
G36*
X-9340Y-10757D02*
X-9400Y-10757D01*
X-9400Y-10750D01*
X-9400Y-10650D01*
X-9400Y-10462D01*
X-9400Y-10287D01*
X-9400Y-10100D01*
X-9662Y-10100D01*
X-9725Y-10162D01*
X-9725Y-10225D01*
X-9724Y-10324D01*
X-9704Y-10375D01*
X-9724Y-10425D01*
X-9725Y-10524D01*
X-9725Y-10587D01*
X-9662Y-10650D01*
X-9400Y-10650D01*
X-9400Y-10750D01*
X-9662Y-10750D01*
X-9725Y-10812D01*
X-9725Y-10875D01*
X-9724Y-10974D01*
X-9686Y-11066D01*
X-9616Y-11137D01*
X-9536Y-11170D01*
X-9661Y-11295D01*
X-9933Y-11295D01*
X-10005Y-11222D01*
X-10180Y-11150D01*
X-10369Y-11149D01*
X-10543Y-11222D01*
X-10677Y-11355D01*
X-10749Y-11530D01*
X-10750Y-11719D01*
X-10677Y-11893D01*
X-10622Y-11949D01*
X-10622Y-11999D01*
X-10708Y-12034D01*
X-10779Y-12105D01*
X-10817Y-12197D01*
X-10817Y-12199D01*
X-10883Y-12199D01*
X-10891Y-12191D01*
X-10998Y-12120D01*
X-11125Y-12095D01*
X-11501Y-12095D01*
X-11508Y-12088D01*
X-11600Y-12050D01*
X-11699Y-12049D01*
X-12149Y-12049D01*
X-12241Y-12087D01*
X-12311Y-12158D01*
X-12349Y-12250D01*
X-12350Y-12349D01*
X-12350Y-12599D01*
X-12312Y-12691D01*
X-12308Y-12695D01*
X-12346Y-12695D01*
X-12346Y-12669D01*
X-12384Y-12577D01*
X-12441Y-12520D01*
X-12441Y-12379D01*
X-12466Y-12253D01*
X-12466Y-12253D01*
X-12471Y-12246D01*
X-12471Y-12246D01*
X-12471Y-12030D01*
X-12509Y-11938D01*
X-12516Y-11931D01*
X-12516Y-11788D01*
X-12422Y-11694D01*
X-12350Y-11519D01*
X-12349Y-11330D01*
X-12362Y-11300D01*
X-11300Y-11300D01*
X-11300Y-10970D01*
X-10029Y-9700D01*
X-9693Y-9700D01*
X-9724Y-9775D01*
X-9725Y-9874D01*
X-9725Y-9937D01*
X-9662Y-10000D01*
X-9400Y-10000D01*
X-9400Y-9992D01*
X-9340Y-9992D01*
X-9340Y-10757D01*
X-9340Y-10757D01*
G37*
G54D37*
X-9340Y-10757D02*
X-9400Y-10757D01*
X-9400Y-10750D01*
X-9400Y-10650D01*
X-9400Y-10462D01*
X-9400Y-10287D01*
X-9400Y-10100D01*
X-9662Y-10100D01*
X-9725Y-10162D01*
X-9725Y-10225D01*
X-9724Y-10324D01*
X-9704Y-10375D01*
X-9724Y-10425D01*
X-9725Y-10524D01*
X-9725Y-10587D01*
X-9662Y-10650D01*
X-9400Y-10650D01*
X-9400Y-10750D01*
X-9662Y-10750D01*
X-9725Y-10812D01*
X-9725Y-10875D01*
X-9724Y-10974D01*
X-9686Y-11066D01*
X-9616Y-11137D01*
X-9536Y-11170D01*
X-9661Y-11295D01*
X-9933Y-11295D01*
X-10005Y-11222D01*
X-10180Y-11150D01*
X-10369Y-11149D01*
X-10543Y-11222D01*
X-10677Y-11355D01*
X-10749Y-11530D01*
X-10750Y-11719D01*
X-10677Y-11893D01*
X-10622Y-11949D01*
X-10622Y-11999D01*
X-10708Y-12034D01*
X-10779Y-12105D01*
X-10817Y-12197D01*
X-10817Y-12199D01*
X-10883Y-12199D01*
X-10891Y-12191D01*
X-10998Y-12120D01*
X-11125Y-12095D01*
X-11501Y-12095D01*
X-11508Y-12088D01*
X-11600Y-12050D01*
X-11699Y-12049D01*
X-12149Y-12049D01*
X-12241Y-12087D01*
X-12311Y-12158D01*
X-12349Y-12250D01*
X-12350Y-12349D01*
X-12350Y-12599D01*
X-12312Y-12691D01*
X-12308Y-12695D01*
X-12346Y-12695D01*
X-12346Y-12669D01*
X-12384Y-12577D01*
X-12441Y-12520D01*
X-12441Y-12379D01*
X-12466Y-12253D01*
X-12466Y-12253D01*
X-12471Y-12246D01*
X-12471Y-12246D01*
X-12471Y-12030D01*
X-12509Y-11938D01*
X-12516Y-11931D01*
X-12516Y-11788D01*
X-12422Y-11694D01*
X-12350Y-11519D01*
X-12349Y-11330D01*
X-12362Y-11300D01*
X-11300Y-11300D01*
X-11300Y-10970D01*
X-10029Y-9700D01*
X-9693Y-9700D01*
X-9724Y-9775D01*
X-9725Y-9874D01*
X-9725Y-9937D01*
X-9662Y-10000D01*
X-9400Y-10000D01*
X-9400Y-9992D01*
X-9340Y-9992D01*
X-9340Y-10757D01*
G54D10*
G36*
X-8740Y-16700D02*
X-9605Y-16700D01*
X-9516Y-16640D01*
X-9195Y-16319D01*
X-9189Y-16321D01*
X-9089Y-16321D01*
X-8976Y-16321D01*
X-8914Y-16259D01*
X-8914Y-15946D01*
X-8922Y-15946D01*
X-8922Y-15846D01*
X-8914Y-15846D01*
X-8914Y-15838D01*
X-8814Y-15838D01*
X-8814Y-15846D01*
X-8806Y-15846D01*
X-8806Y-15946D01*
X-8814Y-15946D01*
X-8814Y-16250D01*
X-8849Y-16336D01*
X-8850Y-16483D01*
X-8793Y-16619D01*
X-8740Y-16673D01*
X-8740Y-16700D01*
X-8740Y-16700D01*
G37*
G54D37*
X-8740Y-16700D02*
X-9605Y-16700D01*
X-9516Y-16640D01*
X-9195Y-16319D01*
X-9189Y-16321D01*
X-9089Y-16321D01*
X-8976Y-16321D01*
X-8914Y-16259D01*
X-8914Y-15946D01*
X-8922Y-15946D01*
X-8922Y-15846D01*
X-8914Y-15846D01*
X-8914Y-15838D01*
X-8814Y-15838D01*
X-8814Y-15846D01*
X-8806Y-15846D01*
X-8806Y-15946D01*
X-8814Y-15946D01*
X-8814Y-16250D01*
X-8849Y-16336D01*
X-8850Y-16483D01*
X-8793Y-16619D01*
X-8740Y-16673D01*
X-8740Y-16700D01*
G54D10*
G36*
X-6700Y-16700D02*
X-6709Y-16700D01*
X-6709Y-15823D01*
X-6722Y-15635D01*
X-6770Y-15517D01*
X-6858Y-15499D01*
X-6929Y-15569D01*
X-6929Y-15428D01*
X-6947Y-15340D01*
X-7126Y-15279D01*
X-7255Y-15288D01*
X-7255Y-13956D01*
X-7255Y-13893D01*
X-7317Y-13831D01*
X-7580Y-13831D01*
X-7580Y-14193D01*
X-7517Y-14256D01*
X-7455Y-14256D01*
X-7363Y-14218D01*
X-7293Y-14148D01*
X-7255Y-14056D01*
X-7255Y-13956D01*
X-7255Y-15288D01*
X-7314Y-15292D01*
X-7432Y-15340D01*
X-7450Y-15428D01*
X-7190Y-15689D01*
X-6929Y-15428D01*
X-6929Y-15569D01*
X-7119Y-15760D01*
X-6858Y-16020D01*
X-6770Y-16002D01*
X-6709Y-15823D01*
X-6709Y-16700D01*
X-6929Y-16700D01*
X-6929Y-16091D01*
X-7190Y-15830D01*
X-7260Y-15901D01*
X-7260Y-15760D01*
X-7521Y-15499D01*
X-7609Y-15517D01*
X-7670Y-15696D01*
X-7657Y-15884D01*
X-7609Y-16002D01*
X-7521Y-16020D01*
X-7260Y-15760D01*
X-7260Y-15901D01*
X-7450Y-16091D01*
X-7432Y-16179D01*
X-7253Y-16240D01*
X-7065Y-16227D01*
X-6947Y-16179D01*
X-6929Y-16091D01*
X-6929Y-16700D01*
X-7699Y-16700D01*
X-7699Y-15974D01*
X-7700Y-15912D01*
X-7762Y-15850D01*
X-8125Y-15850D01*
X-8125Y-16112D01*
X-8062Y-16175D01*
X-7999Y-16175D01*
X-7900Y-16174D01*
X-7808Y-16136D01*
X-7737Y-16066D01*
X-7699Y-15974D01*
X-7699Y-16700D01*
X-8160Y-16700D01*
X-8160Y-16604D01*
X-8110Y-16483D01*
X-8109Y-16336D01*
X-8166Y-16200D01*
X-8239Y-16127D01*
X-8225Y-16112D01*
X-8225Y-15850D01*
X-8232Y-15850D01*
X-8232Y-15750D01*
X-8225Y-15750D01*
X-8225Y-15742D01*
X-8125Y-15742D01*
X-8125Y-15750D01*
X-7762Y-15750D01*
X-7700Y-15687D01*
X-7699Y-15625D01*
X-7737Y-15533D01*
X-7771Y-15500D01*
X-7738Y-15466D01*
X-7700Y-15374D01*
X-7699Y-15275D01*
X-7699Y-15025D01*
X-7737Y-14933D01*
X-7808Y-14863D01*
X-7900Y-14825D01*
X-7999Y-14824D01*
X-8382Y-14824D01*
X-8447Y-14759D01*
X-8536Y-14722D01*
X-8559Y-14607D01*
X-8559Y-14607D01*
X-8631Y-14500D01*
X-8688Y-14443D01*
X-8684Y-14435D01*
X-8684Y-14246D01*
X-8748Y-14090D01*
X-8685Y-14090D01*
X-8604Y-14057D01*
X-8567Y-14147D01*
X-8496Y-14218D01*
X-8405Y-14256D01*
X-8305Y-14256D01*
X-8055Y-14256D01*
X-7963Y-14218D01*
X-7930Y-14184D01*
X-7896Y-14218D01*
X-7804Y-14256D01*
X-7742Y-14256D01*
X-7680Y-14193D01*
X-7680Y-13831D01*
X-7687Y-13831D01*
X-7687Y-13731D01*
X-7680Y-13731D01*
X-7680Y-13368D01*
X-7742Y-13306D01*
X-7804Y-13306D01*
X-7896Y-13344D01*
X-7930Y-13377D01*
X-7963Y-13344D01*
X-8055Y-13306D01*
X-8154Y-13306D01*
X-8404Y-13306D01*
X-8496Y-13344D01*
X-8513Y-13360D01*
X-8561Y-13360D01*
X-8592Y-13328D01*
X-8684Y-13290D01*
X-8784Y-13290D01*
X-8984Y-13290D01*
X-9022Y-13306D01*
X-9059Y-13290D01*
X-9159Y-13290D01*
X-9359Y-13290D01*
X-9397Y-13306D01*
X-9435Y-13290D01*
X-9472Y-13290D01*
X-9534Y-13353D01*
X-9534Y-13430D01*
X-9559Y-13490D01*
X-9559Y-13590D01*
X-9559Y-13890D01*
X-9539Y-13938D01*
X-9539Y-14048D01*
X-9562Y-14071D01*
X-9634Y-14245D01*
X-9634Y-14336D01*
X-9665Y-14305D01*
X-9665Y-14066D01*
X-9667Y-14061D01*
X-9634Y-14028D01*
X-9634Y-13740D01*
X-9634Y-13640D01*
X-9634Y-13353D01*
X-9697Y-13290D01*
X-9734Y-13290D01*
X-9767Y-13304D01*
X-9767Y-13284D01*
X-9829Y-13222D01*
X-10242Y-13222D01*
X-10242Y-13534D01*
X-10179Y-13597D01*
X-10066Y-13597D01*
X-9967Y-13597D01*
X-9934Y-13583D01*
X-9934Y-13590D01*
X-9934Y-13583D01*
X-9930Y-13581D01*
X-9872Y-13640D01*
X-9634Y-13640D01*
X-9634Y-13740D01*
X-9872Y-13740D01*
X-9934Y-13803D01*
X-9934Y-13791D01*
X-9934Y-13865D01*
X-9965Y-13865D01*
X-10215Y-13865D01*
X-10307Y-13903D01*
X-10340Y-13936D01*
X-10342Y-13935D01*
X-10342Y-13534D01*
X-10342Y-13222D01*
X-10754Y-13222D01*
X-10757Y-13225D01*
X-10925Y-13225D01*
X-10925Y-13487D01*
X-10862Y-13550D01*
X-10799Y-13550D01*
X-10717Y-13549D01*
X-10709Y-13558D01*
X-10617Y-13597D01*
X-10517Y-13597D01*
X-10404Y-13597D01*
X-10342Y-13534D01*
X-10342Y-13935D01*
X-10373Y-13903D01*
X-10465Y-13865D01*
X-10565Y-13865D01*
X-10801Y-13865D01*
X-10801Y-13798D01*
X-10839Y-13706D01*
X-10909Y-13636D01*
X-11001Y-13598D01*
X-11101Y-13598D01*
X-11551Y-13598D01*
X-11634Y-13632D01*
X-11634Y-13573D01*
X-11672Y-13481D01*
X-11742Y-13411D01*
X-11770Y-13400D01*
X-11600Y-13400D01*
X-11508Y-13362D01*
X-11450Y-13303D01*
X-11450Y-13349D01*
X-11412Y-13441D01*
X-11341Y-13511D01*
X-11249Y-13549D01*
X-11150Y-13550D01*
X-11087Y-13550D01*
X-11025Y-13487D01*
X-11025Y-13225D01*
X-11032Y-13225D01*
X-11032Y-13125D01*
X-11025Y-13125D01*
X-11025Y-13117D01*
X-10925Y-13117D01*
X-10925Y-13125D01*
X-10562Y-13125D01*
X-10559Y-13122D01*
X-10342Y-13122D01*
X-10342Y-13114D01*
X-10242Y-13114D01*
X-10242Y-13122D01*
X-9829Y-13122D01*
X-9779Y-13071D01*
X-9734Y-13090D01*
X-9635Y-13090D01*
X-9435Y-13090D01*
X-9343Y-13052D01*
X-9272Y-12982D01*
X-9234Y-12890D01*
X-9234Y-12791D01*
X-9234Y-12520D01*
X-9226Y-12520D01*
X-9184Y-12502D01*
X-9184Y-12590D01*
X-9184Y-12890D01*
X-9146Y-12982D01*
X-9076Y-13052D01*
X-8984Y-13090D01*
X-8885Y-13090D01*
X-8685Y-13090D01*
X-8605Y-13057D01*
X-8605Y-13071D01*
X-8567Y-13163D01*
X-8496Y-13233D01*
X-8405Y-13272D01*
X-8305Y-13272D01*
X-8055Y-13272D01*
X-7963Y-13234D01*
X-7930Y-13200D01*
X-7896Y-13234D01*
X-7804Y-13272D01*
X-7742Y-13272D01*
X-7680Y-13209D01*
X-7680Y-12847D01*
X-7687Y-12847D01*
X-7687Y-12782D01*
X-7580Y-12890D01*
X-7580Y-13209D01*
X-7517Y-13272D01*
X-7455Y-13272D01*
X-7364Y-13234D01*
X-7342Y-13249D01*
X-7300Y-13257D01*
X-7300Y-13352D01*
X-7298Y-13355D01*
X-7299Y-13359D01*
X-7299Y-13407D01*
X-7363Y-13344D01*
X-7455Y-13306D01*
X-7517Y-13306D01*
X-7580Y-13368D01*
X-7580Y-13731D01*
X-7317Y-13731D01*
X-7269Y-13682D01*
X-7262Y-13700D01*
X-7191Y-13770D01*
X-7099Y-13808D01*
X-7000Y-13809D01*
X-6700Y-13809D01*
X-6700Y-13861D01*
X-6776Y-13830D01*
X-6923Y-13829D01*
X-7059Y-13886D01*
X-7163Y-13990D01*
X-7219Y-14126D01*
X-7220Y-14273D01*
X-7163Y-14409D01*
X-7059Y-14513D01*
X-6923Y-14569D01*
X-6776Y-14570D01*
X-6700Y-14538D01*
X-6700Y-16700D01*
X-6700Y-16700D01*
G37*
G54D37*
X-6700Y-16700D02*
X-6709Y-16700D01*
X-6709Y-15823D01*
X-6722Y-15635D01*
X-6770Y-15517D01*
X-6858Y-15499D01*
X-6929Y-15569D01*
X-6929Y-15428D01*
X-6947Y-15340D01*
X-7126Y-15279D01*
X-7255Y-15288D01*
X-7255Y-13956D01*
X-7255Y-13893D01*
X-7317Y-13831D01*
X-7580Y-13831D01*
X-7580Y-14193D01*
X-7517Y-14256D01*
X-7455Y-14256D01*
X-7363Y-14218D01*
X-7293Y-14148D01*
X-7255Y-14056D01*
X-7255Y-13956D01*
X-7255Y-15288D01*
X-7314Y-15292D01*
X-7432Y-15340D01*
X-7450Y-15428D01*
X-7190Y-15689D01*
X-6929Y-15428D01*
X-6929Y-15569D01*
X-7119Y-15760D01*
X-6858Y-16020D01*
X-6770Y-16002D01*
X-6709Y-15823D01*
X-6709Y-16700D01*
X-6929Y-16700D01*
X-6929Y-16091D01*
X-7190Y-15830D01*
X-7260Y-15901D01*
X-7260Y-15760D01*
X-7521Y-15499D01*
X-7609Y-15517D01*
X-7670Y-15696D01*
X-7657Y-15884D01*
X-7609Y-16002D01*
X-7521Y-16020D01*
X-7260Y-15760D01*
X-7260Y-15901D01*
X-7450Y-16091D01*
X-7432Y-16179D01*
X-7253Y-16240D01*
X-7065Y-16227D01*
X-6947Y-16179D01*
X-6929Y-16091D01*
X-6929Y-16700D01*
X-7699Y-16700D01*
X-7699Y-15974D01*
X-7700Y-15912D01*
X-7762Y-15850D01*
X-8125Y-15850D01*
X-8125Y-16112D01*
X-8062Y-16175D01*
X-7999Y-16175D01*
X-7900Y-16174D01*
X-7808Y-16136D01*
X-7737Y-16066D01*
X-7699Y-15974D01*
X-7699Y-16700D01*
X-8160Y-16700D01*
X-8160Y-16604D01*
X-8110Y-16483D01*
X-8109Y-16336D01*
X-8166Y-16200D01*
X-8239Y-16127D01*
X-8225Y-16112D01*
X-8225Y-15850D01*
X-8232Y-15850D01*
X-8232Y-15750D01*
X-8225Y-15750D01*
X-8225Y-15742D01*
X-8125Y-15742D01*
X-8125Y-15750D01*
X-7762Y-15750D01*
X-7700Y-15687D01*
X-7699Y-15625D01*
X-7737Y-15533D01*
X-7771Y-15500D01*
X-7738Y-15466D01*
X-7700Y-15374D01*
X-7699Y-15275D01*
X-7699Y-15025D01*
X-7737Y-14933D01*
X-7808Y-14863D01*
X-7900Y-14825D01*
X-7999Y-14824D01*
X-8382Y-14824D01*
X-8447Y-14759D01*
X-8536Y-14722D01*
X-8559Y-14607D01*
X-8559Y-14607D01*
X-8631Y-14500D01*
X-8688Y-14443D01*
X-8684Y-14435D01*
X-8684Y-14246D01*
X-8748Y-14090D01*
X-8685Y-14090D01*
X-8604Y-14057D01*
X-8567Y-14147D01*
X-8496Y-14218D01*
X-8405Y-14256D01*
X-8305Y-14256D01*
X-8055Y-14256D01*
X-7963Y-14218D01*
X-7930Y-14184D01*
X-7896Y-14218D01*
X-7804Y-14256D01*
X-7742Y-14256D01*
X-7680Y-14193D01*
X-7680Y-13831D01*
X-7687Y-13831D01*
X-7687Y-13731D01*
X-7680Y-13731D01*
X-7680Y-13368D01*
X-7742Y-13306D01*
X-7804Y-13306D01*
X-7896Y-13344D01*
X-7930Y-13377D01*
X-7963Y-13344D01*
X-8055Y-13306D01*
X-8154Y-13306D01*
X-8404Y-13306D01*
X-8496Y-13344D01*
X-8513Y-13360D01*
X-8561Y-13360D01*
X-8592Y-13328D01*
X-8684Y-13290D01*
X-8784Y-13290D01*
X-8984Y-13290D01*
X-9022Y-13306D01*
X-9059Y-13290D01*
X-9159Y-13290D01*
X-9359Y-13290D01*
X-9397Y-13306D01*
X-9435Y-13290D01*
X-9472Y-13290D01*
X-9534Y-13353D01*
X-9534Y-13430D01*
X-9559Y-13490D01*
X-9559Y-13590D01*
X-9559Y-13890D01*
X-9539Y-13938D01*
X-9539Y-14048D01*
X-9562Y-14071D01*
X-9634Y-14245D01*
X-9634Y-14336D01*
X-9665Y-14305D01*
X-9665Y-14066D01*
X-9667Y-14061D01*
X-9634Y-14028D01*
X-9634Y-13740D01*
X-9634Y-13640D01*
X-9634Y-13353D01*
X-9697Y-13290D01*
X-9734Y-13290D01*
X-9767Y-13304D01*
X-9767Y-13284D01*
X-9829Y-13222D01*
X-10242Y-13222D01*
X-10242Y-13534D01*
X-10179Y-13597D01*
X-10066Y-13597D01*
X-9967Y-13597D01*
X-9934Y-13583D01*
X-9934Y-13590D01*
X-9934Y-13583D01*
X-9930Y-13581D01*
X-9872Y-13640D01*
X-9634Y-13640D01*
X-9634Y-13740D01*
X-9872Y-13740D01*
X-9934Y-13803D01*
X-9934Y-13791D01*
X-9934Y-13865D01*
X-9965Y-13865D01*
X-10215Y-13865D01*
X-10307Y-13903D01*
X-10340Y-13936D01*
X-10342Y-13935D01*
X-10342Y-13534D01*
X-10342Y-13222D01*
X-10754Y-13222D01*
X-10757Y-13225D01*
X-10925Y-13225D01*
X-10925Y-13487D01*
X-10862Y-13550D01*
X-10799Y-13550D01*
X-10717Y-13549D01*
X-10709Y-13558D01*
X-10617Y-13597D01*
X-10517Y-13597D01*
X-10404Y-13597D01*
X-10342Y-13534D01*
X-10342Y-13935D01*
X-10373Y-13903D01*
X-10465Y-13865D01*
X-10565Y-13865D01*
X-10801Y-13865D01*
X-10801Y-13798D01*
X-10839Y-13706D01*
X-10909Y-13636D01*
X-11001Y-13598D01*
X-11101Y-13598D01*
X-11551Y-13598D01*
X-11634Y-13632D01*
X-11634Y-13573D01*
X-11672Y-13481D01*
X-11742Y-13411D01*
X-11770Y-13400D01*
X-11600Y-13400D01*
X-11508Y-13362D01*
X-11450Y-13303D01*
X-11450Y-13349D01*
X-11412Y-13441D01*
X-11341Y-13511D01*
X-11249Y-13549D01*
X-11150Y-13550D01*
X-11087Y-13550D01*
X-11025Y-13487D01*
X-11025Y-13225D01*
X-11032Y-13225D01*
X-11032Y-13125D01*
X-11025Y-13125D01*
X-11025Y-13117D01*
X-10925Y-13117D01*
X-10925Y-13125D01*
X-10562Y-13125D01*
X-10559Y-13122D01*
X-10342Y-13122D01*
X-10342Y-13114D01*
X-10242Y-13114D01*
X-10242Y-13122D01*
X-9829Y-13122D01*
X-9779Y-13071D01*
X-9734Y-13090D01*
X-9635Y-13090D01*
X-9435Y-13090D01*
X-9343Y-13052D01*
X-9272Y-12982D01*
X-9234Y-12890D01*
X-9234Y-12791D01*
X-9234Y-12520D01*
X-9226Y-12520D01*
X-9184Y-12502D01*
X-9184Y-12590D01*
X-9184Y-12890D01*
X-9146Y-12982D01*
X-9076Y-13052D01*
X-8984Y-13090D01*
X-8885Y-13090D01*
X-8685Y-13090D01*
X-8605Y-13057D01*
X-8605Y-13071D01*
X-8567Y-13163D01*
X-8496Y-13233D01*
X-8405Y-13272D01*
X-8305Y-13272D01*
X-8055Y-13272D01*
X-7963Y-13234D01*
X-7930Y-13200D01*
X-7896Y-13234D01*
X-7804Y-13272D01*
X-7742Y-13272D01*
X-7680Y-13209D01*
X-7680Y-12847D01*
X-7687Y-12847D01*
X-7687Y-12782D01*
X-7580Y-12890D01*
X-7580Y-13209D01*
X-7517Y-13272D01*
X-7455Y-13272D01*
X-7364Y-13234D01*
X-7342Y-13249D01*
X-7300Y-13257D01*
X-7300Y-13352D01*
X-7298Y-13355D01*
X-7299Y-13359D01*
X-7299Y-13407D01*
X-7363Y-13344D01*
X-7455Y-13306D01*
X-7517Y-13306D01*
X-7580Y-13368D01*
X-7580Y-13731D01*
X-7317Y-13731D01*
X-7269Y-13682D01*
X-7262Y-13700D01*
X-7191Y-13770D01*
X-7099Y-13808D01*
X-7000Y-13809D01*
X-6700Y-13809D01*
X-6700Y-13861D01*
X-6776Y-13830D01*
X-6923Y-13829D01*
X-7059Y-13886D01*
X-7163Y-13990D01*
X-7219Y-14126D01*
X-7220Y-14273D01*
X-7163Y-14409D01*
X-7059Y-14513D01*
X-6923Y-14569D01*
X-6776Y-14570D01*
X-6700Y-14538D01*
X-6700Y-16700D01*
G54D10*
G36*
X-23343Y1483D02*
X-23354Y1466D01*
X-23380Y1340D01*
X-23380Y-2019D01*
X-23419Y-2116D01*
X-23420Y-2240D01*
X-24470Y-2240D01*
X-24596Y-2265D01*
X-24703Y-2336D01*
X-24791Y-2424D01*
X-24862Y-2531D01*
X-24873Y-2583D01*
X-24923Y-2583D01*
X-25237Y-2583D01*
X-25266Y-2595D01*
X-25296Y-2583D01*
X-25395Y-2583D01*
X-25709Y-2583D01*
X-25738Y-2595D01*
X-25768Y-2583D01*
X-25867Y-2583D01*
X-26181Y-2583D01*
X-26211Y-2595D01*
X-26241Y-2583D01*
X-26335Y-2583D01*
X-26398Y-2646D01*
X-26398Y-3098D01*
X-26390Y-3098D01*
X-26390Y-3198D01*
X-26398Y-3198D01*
X-26398Y-3205D01*
X-26498Y-3205D01*
X-26498Y-3198D01*
X-26505Y-3198D01*
X-26505Y-3098D01*
X-26498Y-3098D01*
X-26498Y-2646D01*
X-26560Y-2583D01*
X-26600Y-2583D01*
X-26600Y1483D01*
X-26555Y1483D01*
X-26241Y1483D01*
X-26211Y1495D01*
X-26181Y1483D01*
X-26082Y1483D01*
X-25833Y1483D01*
X-25833Y123D01*
X-25807Y-3D01*
X-25736Y-110D01*
X-25554Y-291D01*
X-25555Y-394D01*
X-25482Y-568D01*
X-25349Y-702D01*
X-25174Y-774D01*
X-24985Y-775D01*
X-24811Y-702D01*
X-24677Y-569D01*
X-24605Y-394D01*
X-24604Y-205D01*
X-24677Y-31D01*
X-24810Y102D01*
X-24985Y174D01*
X-25088Y175D01*
X-25173Y259D01*
X-25173Y885D01*
X-25098Y855D01*
X-24951Y854D01*
X-24815Y911D01*
X-24711Y1015D01*
X-24655Y1151D01*
X-24654Y1298D01*
X-24701Y1409D01*
X-24701Y1483D01*
X-24665Y1483D01*
X-24416Y1483D01*
X-24416Y1386D01*
X-24390Y1259D01*
X-24319Y1152D01*
X-24278Y1111D01*
X-24238Y1015D01*
X-24134Y911D01*
X-23998Y855D01*
X-23851Y854D01*
X-23715Y911D01*
X-23611Y1015D01*
X-23555Y1151D01*
X-23554Y1298D01*
X-23611Y1434D01*
X-23660Y1483D01*
X-23407Y1483D01*
X-23378Y1495D01*
X-23348Y1483D01*
X-23343Y1483D01*
X-23343Y1483D01*
G37*
G54D37*
X-23343Y1483D02*
X-23354Y1466D01*
X-23380Y1340D01*
X-23380Y-2019D01*
X-23419Y-2116D01*
X-23420Y-2240D01*
X-24470Y-2240D01*
X-24596Y-2265D01*
X-24703Y-2336D01*
X-24791Y-2424D01*
X-24862Y-2531D01*
X-24873Y-2583D01*
X-24923Y-2583D01*
X-25237Y-2583D01*
X-25266Y-2595D01*
X-25296Y-2583D01*
X-25395Y-2583D01*
X-25709Y-2583D01*
X-25738Y-2595D01*
X-25768Y-2583D01*
X-25867Y-2583D01*
X-26181Y-2583D01*
X-26211Y-2595D01*
X-26241Y-2583D01*
X-26335Y-2583D01*
X-26398Y-2646D01*
X-26398Y-3098D01*
X-26390Y-3098D01*
X-26390Y-3198D01*
X-26398Y-3198D01*
X-26398Y-3205D01*
X-26498Y-3205D01*
X-26498Y-3198D01*
X-26505Y-3198D01*
X-26505Y-3098D01*
X-26498Y-3098D01*
X-26498Y-2646D01*
X-26560Y-2583D01*
X-26600Y-2583D01*
X-26600Y1483D01*
X-26555Y1483D01*
X-26241Y1483D01*
X-26211Y1495D01*
X-26181Y1483D01*
X-26082Y1483D01*
X-25833Y1483D01*
X-25833Y123D01*
X-25807Y-3D01*
X-25736Y-110D01*
X-25554Y-291D01*
X-25555Y-394D01*
X-25482Y-568D01*
X-25349Y-702D01*
X-25174Y-774D01*
X-24985Y-775D01*
X-24811Y-702D01*
X-24677Y-569D01*
X-24605Y-394D01*
X-24604Y-205D01*
X-24677Y-31D01*
X-24810Y102D01*
X-24985Y174D01*
X-25088Y175D01*
X-25173Y259D01*
X-25173Y885D01*
X-25098Y855D01*
X-24951Y854D01*
X-24815Y911D01*
X-24711Y1015D01*
X-24655Y1151D01*
X-24654Y1298D01*
X-24701Y1409D01*
X-24701Y1483D01*
X-24665Y1483D01*
X-24416Y1483D01*
X-24416Y1386D01*
X-24390Y1259D01*
X-24319Y1152D01*
X-24278Y1111D01*
X-24238Y1015D01*
X-24134Y911D01*
X-23998Y855D01*
X-23851Y854D01*
X-23715Y911D01*
X-23611Y1015D01*
X-23555Y1151D01*
X-23554Y1298D01*
X-23611Y1434D01*
X-23660Y1483D01*
X-23407Y1483D01*
X-23378Y1495D01*
X-23348Y1483D01*
X-23343Y1483D01*
G54D10*
G36*
X-19375Y-6609D02*
X-19378Y-6611D01*
X-19435Y-6668D01*
X-19436Y-6665D01*
X-19540Y-6561D01*
X-19676Y-6505D01*
X-19823Y-6504D01*
X-19959Y-6561D01*
X-19999Y-6601D01*
X-19999Y-6556D01*
X-20056Y-6420D01*
X-20061Y-6415D01*
X-19570Y-6415D01*
X-19375Y-6609D01*
X-19375Y-6609D01*
G37*
G54D37*
X-19375Y-6609D02*
X-19378Y-6611D01*
X-19435Y-6668D01*
X-19436Y-6665D01*
X-19540Y-6561D01*
X-19676Y-6505D01*
X-19823Y-6504D01*
X-19959Y-6561D01*
X-19999Y-6601D01*
X-19999Y-6556D01*
X-20056Y-6420D01*
X-20061Y-6415D01*
X-19570Y-6415D01*
X-19375Y-6609D01*
G54D10*
G36*
X-18700Y-14272D02*
X-18704Y-14264D01*
X-18704Y-14264D01*
X-19080Y-13889D01*
X-19080Y-12582D01*
X-19080Y-12320D01*
X-19217Y-12320D01*
X-19442Y-12320D01*
X-19580Y-12320D01*
X-19580Y-12582D01*
X-19517Y-12645D01*
X-19454Y-12645D01*
X-19355Y-12644D01*
X-19330Y-12634D01*
X-19304Y-12644D01*
X-19205Y-12645D01*
X-19142Y-12645D01*
X-19080Y-12582D01*
X-19080Y-13889D01*
X-19830Y-13139D01*
X-19830Y-12645D01*
X-19805Y-12645D01*
X-19742Y-12645D01*
X-19680Y-12582D01*
X-19680Y-12320D01*
X-19687Y-12320D01*
X-19687Y-12220D01*
X-19680Y-12220D01*
X-19680Y-12212D01*
X-19580Y-12212D01*
X-19580Y-12220D01*
X-19442Y-12220D01*
X-19217Y-12220D01*
X-19080Y-12220D01*
X-19080Y-12212D01*
X-18980Y-12212D01*
X-18980Y-12220D01*
X-18972Y-12220D01*
X-18972Y-12320D01*
X-18980Y-12320D01*
X-18980Y-12582D01*
X-18917Y-12645D01*
X-18854Y-12645D01*
X-18755Y-12644D01*
X-18700Y-12622D01*
X-18700Y-14272D01*
X-18700Y-14272D01*
G37*
G54D37*
X-18700Y-14272D02*
X-18704Y-14264D01*
X-18704Y-14264D01*
X-19080Y-13889D01*
X-19080Y-12582D01*
X-19080Y-12320D01*
X-19217Y-12320D01*
X-19442Y-12320D01*
X-19580Y-12320D01*
X-19580Y-12582D01*
X-19517Y-12645D01*
X-19454Y-12645D01*
X-19355Y-12644D01*
X-19330Y-12634D01*
X-19304Y-12644D01*
X-19205Y-12645D01*
X-19142Y-12645D01*
X-19080Y-12582D01*
X-19080Y-13889D01*
X-19830Y-13139D01*
X-19830Y-12645D01*
X-19805Y-12645D01*
X-19742Y-12645D01*
X-19680Y-12582D01*
X-19680Y-12320D01*
X-19687Y-12320D01*
X-19687Y-12220D01*
X-19680Y-12220D01*
X-19680Y-12212D01*
X-19580Y-12212D01*
X-19580Y-12220D01*
X-19442Y-12220D01*
X-19217Y-12220D01*
X-19080Y-12220D01*
X-19080Y-12212D01*
X-18980Y-12212D01*
X-18980Y-12220D01*
X-18972Y-12220D01*
X-18972Y-12320D01*
X-18980Y-12320D01*
X-18980Y-12582D01*
X-18917Y-12645D01*
X-18854Y-12645D01*
X-18755Y-12644D01*
X-18700Y-12622D01*
X-18700Y-14272D01*
G54D10*
G36*
X-17970Y-9337D02*
X-17975Y-9332D01*
X-18044Y-9263D01*
X-18059Y-9248D01*
X-18147Y-9212D01*
X-18183Y-9124D01*
X-18186Y-9121D01*
X-18186Y-9121D01*
X-18197Y-9110D01*
X-18197Y-9110D01*
X-18253Y-9054D01*
X-18336Y-8970D01*
X-18337Y-8970D01*
X-18392Y-8914D01*
X-18476Y-8831D01*
X-18476Y-8831D01*
X-18531Y-8776D01*
X-18614Y-8692D01*
X-18615Y-8692D01*
X-18618Y-8688D01*
X-18609Y-8680D01*
X-18253Y-8680D01*
X-18229Y-8703D01*
X-18093Y-8759D01*
X-17970Y-8760D01*
X-17970Y-9337D01*
X-17970Y-9337D01*
G37*
G54D37*
X-17970Y-9337D02*
X-17975Y-9332D01*
X-18044Y-9263D01*
X-18059Y-9248D01*
X-18147Y-9212D01*
X-18183Y-9124D01*
X-18186Y-9121D01*
X-18186Y-9121D01*
X-18197Y-9110D01*
X-18197Y-9110D01*
X-18253Y-9054D01*
X-18336Y-8970D01*
X-18337Y-8970D01*
X-18392Y-8914D01*
X-18476Y-8831D01*
X-18476Y-8831D01*
X-18531Y-8776D01*
X-18614Y-8692D01*
X-18615Y-8692D01*
X-18618Y-8688D01*
X-18609Y-8680D01*
X-18253Y-8680D01*
X-18229Y-8703D01*
X-18093Y-8759D01*
X-17970Y-8760D01*
X-17970Y-9337D01*
G54D10*
G36*
X-16072Y-14720D02*
X-16080Y-14720D01*
X-16080Y-14727D01*
X-16180Y-14727D01*
X-16180Y-14720D01*
X-16187Y-14720D01*
X-16187Y-14620D01*
X-16180Y-14620D01*
X-16180Y-14257D01*
X-16242Y-14195D01*
X-16304Y-14194D01*
X-16396Y-14232D01*
X-16466Y-14303D01*
X-16504Y-14395D01*
X-16505Y-14494D01*
X-16505Y-14524D01*
X-17180Y-13849D01*
X-17180Y-13525D01*
X-17165Y-13525D01*
X-17102Y-13525D01*
X-17040Y-13462D01*
X-17040Y-13200D01*
X-17047Y-13200D01*
X-17047Y-13100D01*
X-17040Y-13100D01*
X-17040Y-13092D01*
X-16940Y-13092D01*
X-16940Y-13100D01*
X-16932Y-13100D01*
X-16932Y-13200D01*
X-16940Y-13200D01*
X-16940Y-13462D01*
X-16877Y-13525D01*
X-16814Y-13525D01*
X-16715Y-13524D01*
X-16623Y-13486D01*
X-16619Y-13483D01*
X-16607Y-13512D01*
X-16537Y-13582D01*
X-16445Y-13620D01*
X-16345Y-13621D01*
X-16370Y-13621D01*
X-16308Y-13558D01*
X-16308Y-13621D01*
X-16301Y-13621D01*
X-16301Y-13765D01*
X-16263Y-13856D01*
X-16192Y-13927D01*
X-16100Y-13965D01*
X-16095Y-13965D01*
X-16095Y-14595D01*
X-16072Y-14705D01*
X-16072Y-14707D01*
X-16072Y-14720D01*
X-16072Y-14720D01*
G37*
G54D37*
X-16072Y-14720D02*
X-16080Y-14720D01*
X-16080Y-14727D01*
X-16180Y-14727D01*
X-16180Y-14720D01*
X-16187Y-14720D01*
X-16187Y-14620D01*
X-16180Y-14620D01*
X-16180Y-14257D01*
X-16242Y-14195D01*
X-16304Y-14194D01*
X-16396Y-14232D01*
X-16466Y-14303D01*
X-16504Y-14395D01*
X-16505Y-14494D01*
X-16505Y-14524D01*
X-17180Y-13849D01*
X-17180Y-13525D01*
X-17165Y-13525D01*
X-17102Y-13525D01*
X-17040Y-13462D01*
X-17040Y-13200D01*
X-17047Y-13200D01*
X-17047Y-13100D01*
X-17040Y-13100D01*
X-17040Y-13092D01*
X-16940Y-13092D01*
X-16940Y-13100D01*
X-16932Y-13100D01*
X-16932Y-13200D01*
X-16940Y-13200D01*
X-16940Y-13462D01*
X-16877Y-13525D01*
X-16814Y-13525D01*
X-16715Y-13524D01*
X-16623Y-13486D01*
X-16619Y-13483D01*
X-16607Y-13512D01*
X-16537Y-13582D01*
X-16445Y-13620D01*
X-16345Y-13621D01*
X-16370Y-13621D01*
X-16308Y-13558D01*
X-16308Y-13621D01*
X-16301Y-13621D01*
X-16301Y-13765D01*
X-16263Y-13856D01*
X-16192Y-13927D01*
X-16100Y-13965D01*
X-16095Y-13965D01*
X-16095Y-14595D01*
X-16072Y-14705D01*
X-16072Y-14707D01*
X-16072Y-14720D01*
G54D10*
G36*
X-16035Y-11694D02*
X-16100Y-11694D01*
X-16192Y-11732D01*
X-16252Y-11792D01*
X-16310Y-11792D01*
X-16310Y-11590D01*
X-16040Y-11590D01*
X-16040Y-11670D01*
X-16035Y-11694D01*
X-16035Y-11694D01*
G37*
G54D37*
X-16035Y-11694D02*
X-16100Y-11694D01*
X-16192Y-11732D01*
X-16252Y-11792D01*
X-16310Y-11792D01*
X-16310Y-11590D01*
X-16040Y-11590D01*
X-16040Y-11670D01*
X-16035Y-11694D01*
G54D10*
G36*
X-14772Y-11140D02*
X-14780Y-11140D01*
X-14780Y-11147D01*
X-14880Y-11147D01*
X-14880Y-11140D01*
X-14887Y-11140D01*
X-14887Y-11040D01*
X-14880Y-11040D01*
X-14880Y-11032D01*
X-14780Y-11032D01*
X-14780Y-11040D01*
X-14772Y-11040D01*
X-14772Y-11140D01*
X-14772Y-11140D01*
G37*
G54D37*
X-14772Y-11140D02*
X-14780Y-11140D01*
X-14780Y-11147D01*
X-14880Y-11147D01*
X-14880Y-11140D01*
X-14887Y-11140D01*
X-14887Y-11040D01*
X-14880Y-11040D01*
X-14880Y-11032D01*
X-14780Y-11032D01*
X-14780Y-11040D01*
X-14772Y-11040D01*
X-14772Y-11140D01*
G54D10*
G36*
X-14730Y-9596D02*
X-14733Y-9593D01*
X-14825Y-9555D01*
X-14924Y-9554D01*
X-15124Y-9554D01*
X-15120Y-9543D01*
X-15119Y-9396D01*
X-15176Y-9260D01*
X-15246Y-9189D01*
X-15116Y-9190D01*
X-14980Y-9133D01*
X-14876Y-9029D01*
X-14826Y-8910D01*
X-14803Y-8919D01*
X-14730Y-8920D01*
X-14730Y-9596D01*
X-14730Y-9596D01*
G37*
G54D37*
X-14730Y-9596D02*
X-14733Y-9593D01*
X-14825Y-9555D01*
X-14924Y-9554D01*
X-15124Y-9554D01*
X-15120Y-9543D01*
X-15119Y-9396D01*
X-15176Y-9260D01*
X-15246Y-9189D01*
X-15116Y-9190D01*
X-14980Y-9133D01*
X-14876Y-9029D01*
X-14826Y-8910D01*
X-14803Y-8919D01*
X-14730Y-8920D01*
X-14730Y-9596D01*
G54D10*
G36*
X-13231Y328D02*
X-13530Y30D01*
X-13592Y-64D01*
X-13609Y-147D01*
X-14000Y-147D01*
X-14092Y-185D01*
X-14162Y-256D01*
X-14200Y-348D01*
X-14200Y-447D01*
X-14200Y-1805D01*
X-14178Y-1860D01*
X-14321Y-1860D01*
X-14299Y-1806D01*
X-14299Y-1706D01*
X-14299Y-348D01*
X-14337Y-256D01*
X-14407Y-186D01*
X-14499Y-148D01*
X-14598Y-147D01*
X-15000Y-147D01*
X-15092Y-185D01*
X-15162Y-256D01*
X-15200Y-348D01*
X-15200Y-447D01*
X-15200Y-1660D01*
X-15299Y-1660D01*
X-15299Y-447D01*
X-15299Y-348D01*
X-15337Y-256D01*
X-15407Y-185D01*
X-15499Y-147D01*
X-15637Y-148D01*
X-15700Y-210D01*
X-15700Y-1027D01*
X-15361Y-1027D01*
X-15299Y-964D01*
X-15299Y-447D01*
X-15299Y-1660D01*
X-15299Y-1660D01*
X-15299Y-1189D01*
X-15361Y-1127D01*
X-15700Y-1127D01*
X-15700Y-1135D01*
X-15800Y-1135D01*
X-15800Y-1127D01*
X-15800Y-1027D01*
X-15800Y-210D01*
X-15862Y-148D01*
X-16000Y-147D01*
X-16092Y-185D01*
X-16162Y-256D01*
X-16200Y-348D01*
X-16200Y-447D01*
X-16200Y-964D01*
X-16138Y-1027D01*
X-15800Y-1027D01*
X-15800Y-1127D01*
X-16138Y-1127D01*
X-16200Y-1189D01*
X-16200Y-1660D01*
X-16751Y-1660D01*
X-16751Y-57D01*
X-16751Y5D01*
X-16813Y67D01*
X-17076Y67D01*
X-17076Y-294D01*
X-17013Y-357D01*
X-16951Y-357D01*
X-16859Y-319D01*
X-16789Y-248D01*
X-16751Y-156D01*
X-16751Y-57D01*
X-16751Y-1660D01*
X-16896Y-1660D01*
X-16906Y-1650D01*
X-16872Y-1616D01*
X-16834Y-1524D01*
X-16834Y-1175D01*
X-16872Y-1083D01*
X-16943Y-1013D01*
X-17035Y-975D01*
X-17134Y-974D01*
X-17197Y-975D01*
X-17260Y-1037D01*
X-17260Y-1300D01*
X-16897Y-1300D01*
X-16835Y-1237D01*
X-16834Y-1175D01*
X-16834Y-1524D01*
X-16835Y-1462D01*
X-16897Y-1400D01*
X-17260Y-1400D01*
X-17260Y-1407D01*
X-17360Y-1407D01*
X-17360Y-1400D01*
X-17360Y-1300D01*
X-17360Y-1037D01*
X-17422Y-975D01*
X-17485Y-974D01*
X-17584Y-975D01*
X-17676Y-1013D01*
X-17747Y-1083D01*
X-17785Y-1175D01*
X-17785Y-1237D01*
X-17722Y-1300D01*
X-17360Y-1300D01*
X-17360Y-1400D01*
X-17722Y-1400D01*
X-17785Y-1462D01*
X-17785Y-1524D01*
X-17747Y-1616D01*
X-17713Y-1649D01*
X-17746Y-1683D01*
X-17784Y-1775D01*
X-17785Y-1874D01*
X-17785Y-2124D01*
X-17747Y-2216D01*
X-17736Y-2226D01*
X-17759Y-2236D01*
X-17863Y-2340D01*
X-17919Y-2476D01*
X-17920Y-2623D01*
X-17863Y-2759D01*
X-17759Y-2863D01*
X-17623Y-2919D01*
X-17580Y-2919D01*
X-18115Y-3454D01*
X-18148Y-3454D01*
X-18284Y-3511D01*
X-18388Y-3615D01*
X-18444Y-3751D01*
X-18445Y-3898D01*
X-18388Y-4034D01*
X-18284Y-4138D01*
X-18148Y-4194D01*
X-18115Y-4194D01*
X-18088Y-4259D01*
X-17988Y-4360D01*
X-18125Y-4360D01*
X-18235Y-4382D01*
X-18330Y-4444D01*
X-18330Y-4444D01*
X-19155Y-5269D01*
X-19217Y-5364D01*
X-19240Y-5475D01*
X-19240Y-5699D01*
X-19324Y-5614D01*
X-19324Y-5425D01*
X-19362Y-5333D01*
X-19421Y-5275D01*
X-19362Y-5216D01*
X-19324Y-5124D01*
X-19324Y-4675D01*
X-19362Y-4583D01*
X-19433Y-4513D01*
X-19525Y-4475D01*
X-19624Y-4474D01*
X-19737Y-4475D01*
X-19800Y-4537D01*
X-19800Y-4850D01*
X-19387Y-4850D01*
X-19325Y-4787D01*
X-19324Y-4675D01*
X-19324Y-5124D01*
X-19325Y-5012D01*
X-19387Y-4950D01*
X-19800Y-4950D01*
X-19800Y-4957D01*
X-19900Y-4957D01*
X-19900Y-4950D01*
X-19907Y-4950D01*
X-19907Y-4850D01*
X-19900Y-4850D01*
X-19900Y-4537D01*
X-19962Y-4475D01*
X-20075Y-4474D01*
X-20174Y-4475D01*
X-20266Y-4513D01*
X-20337Y-4583D01*
X-20343Y-4600D01*
X-20399Y-4599D01*
X-20462Y-4600D01*
X-20525Y-4662D01*
X-20525Y-4925D01*
X-20517Y-4925D01*
X-20517Y-5025D01*
X-20525Y-5025D01*
X-20525Y-5032D01*
X-20625Y-5032D01*
X-20625Y-5025D01*
X-20625Y-4925D01*
X-20625Y-4662D01*
X-20687Y-4600D01*
X-20750Y-4599D01*
X-20849Y-4600D01*
X-20941Y-4638D01*
X-21012Y-4708D01*
X-21050Y-4800D01*
X-21050Y-4862D01*
X-20987Y-4925D01*
X-20625Y-4925D01*
X-20625Y-5025D01*
X-20987Y-5025D01*
X-21050Y-5087D01*
X-21050Y-5130D01*
X-21173Y-5129D01*
X-21309Y-5186D01*
X-21413Y-5290D01*
X-21469Y-5426D01*
X-21470Y-5573D01*
X-21413Y-5709D01*
X-21400Y-5723D01*
X-21400Y-6075D01*
X-21392Y-6075D01*
X-21392Y-6175D01*
X-21400Y-6175D01*
X-21400Y-6362D01*
X-21400Y-6537D01*
X-21400Y-6725D01*
X-21392Y-6725D01*
X-21392Y-6825D01*
X-21400Y-6825D01*
X-21400Y-7187D01*
X-21337Y-7250D01*
X-21275Y-7250D01*
X-21183Y-7212D01*
X-21150Y-7178D01*
X-21116Y-7211D01*
X-21024Y-7249D01*
X-20925Y-7250D01*
X-20675Y-7250D01*
X-20583Y-7212D01*
X-20513Y-7141D01*
X-20478Y-7057D01*
X-20404Y-7042D01*
X-20339Y-7000D01*
X-20296Y-7000D01*
X-20160Y-6943D01*
X-20120Y-6903D01*
X-20120Y-6948D01*
X-20063Y-7084D01*
X-19959Y-7188D01*
X-19956Y-7189D01*
X-19998Y-7231D01*
X-20081Y-7314D01*
X-20119Y-7406D01*
X-20119Y-7506D01*
X-20081Y-7597D01*
X-20011Y-7668D01*
X-19834Y-7844D01*
X-20915Y-8924D01*
X-20977Y-9019D01*
X-21000Y-9130D01*
X-21000Y-14069D01*
X-21235Y-14304D01*
X-21297Y-14399D01*
X-21320Y-14510D01*
X-21320Y-15416D01*
X-21343Y-15440D01*
X-21399Y-15576D01*
X-21400Y-15689D01*
X-21454Y-15634D01*
X-21500Y-15604D01*
X-21500Y-7187D01*
X-21500Y-6825D01*
X-21500Y-6725D01*
X-21500Y-6537D01*
X-21500Y-6362D01*
X-21500Y-6175D01*
X-21500Y-6075D01*
X-21500Y-5712D01*
X-21562Y-5650D01*
X-21624Y-5649D01*
X-21716Y-5687D01*
X-21786Y-5758D01*
X-21824Y-5850D01*
X-21825Y-5949D01*
X-21825Y-6012D01*
X-21762Y-6075D01*
X-21500Y-6075D01*
X-21500Y-6175D01*
X-21762Y-6175D01*
X-21825Y-6237D01*
X-21825Y-6300D01*
X-21824Y-6399D01*
X-21804Y-6450D01*
X-21824Y-6500D01*
X-21825Y-6599D01*
X-21825Y-6662D01*
X-21762Y-6725D01*
X-21500Y-6725D01*
X-21500Y-6825D01*
X-21762Y-6825D01*
X-21825Y-6887D01*
X-21825Y-6950D01*
X-21824Y-7049D01*
X-21786Y-7141D01*
X-21716Y-7212D01*
X-21624Y-7250D01*
X-21562Y-7250D01*
X-21500Y-7187D01*
X-21500Y-15604D01*
X-21549Y-15572D01*
X-21660Y-15550D01*
X-22524Y-15550D01*
X-22524Y-14845D01*
X-22597Y-14671D01*
X-22730Y-14537D01*
X-22905Y-14465D01*
X-23094Y-14464D01*
X-23268Y-14537D01*
X-23402Y-14670D01*
X-23474Y-14845D01*
X-23475Y-15034D01*
X-23402Y-15208D01*
X-23269Y-15342D01*
X-23094Y-15414D01*
X-22905Y-15415D01*
X-22731Y-15342D01*
X-22597Y-15209D01*
X-22525Y-15034D01*
X-22524Y-14845D01*
X-22524Y-15550D01*
X-24453Y-15550D01*
X-25209Y-14793D01*
X-25209Y-14530D01*
X-25209Y-13369D01*
X-25209Y-12916D01*
X-25247Y-12824D01*
X-25317Y-12753D01*
X-25409Y-12715D01*
X-25508Y-12715D01*
X-25543Y-12715D01*
X-25606Y-12778D01*
X-25606Y-13092D01*
X-25271Y-13092D01*
X-25209Y-13030D01*
X-25209Y-12916D01*
X-25209Y-13369D01*
X-25209Y-13255D01*
X-25271Y-13192D01*
X-25606Y-13192D01*
X-25606Y-13507D01*
X-25543Y-13570D01*
X-25508Y-13570D01*
X-25409Y-13570D01*
X-25317Y-13531D01*
X-25247Y-13461D01*
X-25209Y-13369D01*
X-25209Y-14530D01*
X-25247Y-14438D01*
X-25317Y-14368D01*
X-25409Y-14329D01*
X-25508Y-14329D01*
X-25706Y-14329D01*
X-25706Y-13507D01*
X-25706Y-13192D01*
X-25706Y-13092D01*
X-25706Y-12778D01*
X-25768Y-12715D01*
X-25803Y-12715D01*
X-25903Y-12715D01*
X-25971Y-12744D01*
X-26039Y-12715D01*
X-26138Y-12715D01*
X-26173Y-12715D01*
X-26236Y-12778D01*
X-26236Y-13092D01*
X-26040Y-13092D01*
X-25901Y-13092D01*
X-25706Y-13092D01*
X-25706Y-13192D01*
X-25901Y-13192D01*
X-26040Y-13192D01*
X-26236Y-13192D01*
X-26236Y-13507D01*
X-26173Y-13570D01*
X-26138Y-13570D01*
X-26039Y-13570D01*
X-25971Y-13541D01*
X-25903Y-13570D01*
X-25803Y-13570D01*
X-25768Y-13570D01*
X-25706Y-13507D01*
X-25706Y-14329D01*
X-25902Y-14329D01*
X-25971Y-14358D01*
X-26039Y-14329D01*
X-26138Y-14329D01*
X-26336Y-14329D01*
X-26336Y-13507D01*
X-26336Y-13192D01*
X-26336Y-13092D01*
X-26336Y-12778D01*
X-26398Y-12715D01*
X-26433Y-12715D01*
X-26533Y-12715D01*
X-26624Y-12753D01*
X-26695Y-12824D01*
X-26733Y-12916D01*
X-26733Y-13030D01*
X-26670Y-13092D01*
X-26336Y-13092D01*
X-26336Y-13192D01*
X-26670Y-13192D01*
X-26733Y-13255D01*
X-26733Y-13369D01*
X-26695Y-13461D01*
X-26624Y-13531D01*
X-26533Y-13570D01*
X-26433Y-13570D01*
X-26398Y-13570D01*
X-26336Y-13507D01*
X-26336Y-14329D01*
X-26532Y-14329D01*
X-26624Y-14367D01*
X-26694Y-14438D01*
X-26733Y-14529D01*
X-26733Y-14629D01*
X-26733Y-14983D01*
X-26695Y-15075D01*
X-26624Y-15146D01*
X-26533Y-15184D01*
X-26433Y-15184D01*
X-26039Y-15184D01*
X-25971Y-15155D01*
X-25903Y-15184D01*
X-25803Y-15184D01*
X-25639Y-15184D01*
X-24778Y-16045D01*
X-24778Y-16045D01*
X-24684Y-16107D01*
X-24573Y-16130D01*
X-24573Y-16129D01*
X-24573Y-16130D01*
X-21830Y-16130D01*
X-21830Y-16700D01*
X-23500Y-16700D01*
X-23500Y-17131D01*
X-23500Y-17120D01*
X-23555Y-16988D01*
X-23645Y-16966D01*
X-23716Y-17037D01*
X-23716Y-16895D01*
X-23738Y-16805D01*
X-23928Y-16739D01*
X-24129Y-16750D01*
X-24261Y-16805D01*
X-24283Y-16895D01*
X-24000Y-17179D01*
X-23716Y-16895D01*
X-23716Y-17037D01*
X-23929Y-17250D01*
X-23645Y-17533D01*
X-23555Y-17511D01*
X-23502Y-17359D01*
X-23500Y-17364D01*
X-23500Y-17746D01*
X-23533Y-17712D01*
X-23625Y-17674D01*
X-23733Y-17674D01*
X-23716Y-17604D01*
X-24000Y-17320D01*
X-24070Y-17391D01*
X-24070Y-17250D01*
X-24354Y-16966D01*
X-24444Y-16988D01*
X-24510Y-17178D01*
X-24499Y-17379D01*
X-24444Y-17511D01*
X-24354Y-17533D01*
X-24070Y-17250D01*
X-24070Y-17391D01*
X-24283Y-17604D01*
X-24266Y-17674D01*
X-24374Y-17674D01*
X-24466Y-17712D01*
X-24536Y-17783D01*
X-24574Y-17875D01*
X-24575Y-17974D01*
X-24575Y-18137D01*
X-24512Y-18200D01*
X-24050Y-18200D01*
X-24050Y-18192D01*
X-23950Y-18192D01*
X-23950Y-18200D01*
X-23942Y-18200D01*
X-23942Y-18300D01*
X-23950Y-18300D01*
X-23950Y-18307D01*
X-24050Y-18307D01*
X-24050Y-18300D01*
X-24512Y-18300D01*
X-24575Y-18362D01*
X-24575Y-18525D01*
X-24574Y-18624D01*
X-24543Y-18700D01*
X-25323Y-18700D01*
X-25025Y-18402D01*
X-24850Y-17979D01*
X-24849Y-17522D01*
X-25024Y-17099D01*
X-25347Y-16775D01*
X-25770Y-16600D01*
X-26227Y-16599D01*
X-26650Y-16774D01*
X-26974Y-17097D01*
X-27149Y-17520D01*
X-27150Y-17977D01*
X-26975Y-18400D01*
X-26676Y-18700D01*
X-29329Y-18700D01*
X-31300Y-16729D01*
X-31300Y-11400D01*
X-23300Y-11400D01*
X-23300Y-3712D01*
X-23249Y-3712D01*
X-22935Y-3712D01*
X-22905Y-3700D01*
X-22875Y-3712D01*
X-22776Y-3712D01*
X-22462Y-3712D01*
X-22433Y-3700D01*
X-22403Y-3712D01*
X-22304Y-3712D01*
X-22020Y-3712D01*
X-22029Y-3736D01*
X-22030Y-3883D01*
X-22010Y-3930D01*
X-22556Y-3930D01*
X-22580Y-3906D01*
X-22716Y-3850D01*
X-22863Y-3849D01*
X-22999Y-3906D01*
X-23103Y-4010D01*
X-23159Y-4146D01*
X-23160Y-4293D01*
X-23103Y-4429D01*
X-22999Y-4533D01*
X-22863Y-4589D01*
X-22716Y-4590D01*
X-22580Y-4533D01*
X-22556Y-4510D01*
X-21340Y-4510D01*
X-21229Y-4487D01*
X-21134Y-4425D01*
X-21059Y-4350D01*
X-19433Y-4350D01*
X-19409Y-4373D01*
X-19273Y-4429D01*
X-19126Y-4430D01*
X-18990Y-4373D01*
X-18886Y-4269D01*
X-18830Y-4133D01*
X-18829Y-3986D01*
X-18886Y-3850D01*
X-18990Y-3746D01*
X-19126Y-3690D01*
X-19273Y-3689D01*
X-19409Y-3746D01*
X-19433Y-3770D01*
X-20844Y-3770D01*
X-20844Y-3412D01*
X-20845Y-3260D01*
X-20907Y-3198D01*
X-21202Y-3198D01*
X-21202Y-3650D01*
X-21139Y-3712D01*
X-21045Y-3712D01*
X-20953Y-3674D01*
X-20883Y-3604D01*
X-20845Y-3512D01*
X-20844Y-3412D01*
X-20844Y-3770D01*
X-21180Y-3770D01*
X-21289Y-3791D01*
X-21289Y-3736D01*
X-21318Y-3666D01*
X-21302Y-3650D01*
X-21302Y-3198D01*
X-21309Y-3198D01*
X-21309Y-3098D01*
X-21302Y-3098D01*
X-21302Y-3090D01*
X-21202Y-3090D01*
X-21202Y-3098D01*
X-20907Y-3098D01*
X-20845Y-3035D01*
X-20844Y-2900D01*
X-18940Y-2900D01*
X-18730Y-2900D01*
X-18489Y-2900D01*
X-18411Y-2932D01*
X-18264Y-2932D01*
X-18128Y-2876D01*
X-18024Y-2772D01*
X-17967Y-2636D01*
X-17967Y-2489D01*
X-18023Y-2353D01*
X-18127Y-2249D01*
X-18263Y-2192D01*
X-18410Y-2192D01*
X-18525Y-2240D01*
X-18730Y-2240D01*
X-18940Y-2240D01*
X-19585Y-2240D01*
X-19585Y-1976D01*
X-19585Y-1965D01*
X-19585Y-1563D01*
X-19597Y-1534D01*
X-19585Y-1504D01*
X-19585Y-1405D01*
X-19585Y-1091D01*
X-19597Y-1061D01*
X-19585Y-1031D01*
X-19585Y-932D01*
X-19585Y-618D01*
X-19613Y-549D01*
X-19585Y-481D01*
X-19585Y-382D01*
X-19585Y-68D01*
X-19597Y-38D01*
X-19585Y-8D01*
X-19585Y90D01*
X-19585Y404D01*
X-19597Y434D01*
X-19585Y463D01*
X-19585Y557D01*
X-19648Y620D01*
X-20100Y620D01*
X-20100Y612D01*
X-20200Y612D01*
X-20200Y620D01*
X-20652Y620D01*
X-20714Y557D01*
X-20714Y463D01*
X-20702Y434D01*
X-20714Y404D01*
X-20714Y305D01*
X-20714Y-8D01*
X-20702Y-38D01*
X-20714Y-68D01*
X-20714Y-167D01*
X-20714Y-481D01*
X-20686Y-550D01*
X-20714Y-618D01*
X-20714Y-717D01*
X-20714Y-1031D01*
X-20702Y-1061D01*
X-20714Y-1091D01*
X-20714Y-1190D01*
X-20714Y-1504D01*
X-20702Y-1534D01*
X-20714Y-1563D01*
X-20714Y-1657D01*
X-20652Y-1720D01*
X-20200Y-1720D01*
X-20200Y-1712D01*
X-20100Y-1712D01*
X-20100Y-1720D01*
X-19648Y-1720D01*
X-19585Y-1657D01*
X-19585Y-1563D01*
X-19585Y-1965D01*
X-19585Y-1965D01*
X-19585Y-1882D01*
X-19648Y-1820D01*
X-19676Y-1820D01*
X-19693Y-1803D01*
X-19785Y-1765D01*
X-19885Y-1764D01*
X-20514Y-1764D01*
X-20605Y-1802D01*
X-20623Y-1820D01*
X-20652Y-1820D01*
X-20714Y-1882D01*
X-20714Y-1976D01*
X-20714Y-1976D01*
X-20714Y-2064D01*
X-20714Y-2240D01*
X-22680Y-2240D01*
X-22679Y-2116D01*
X-22720Y-2019D01*
X-22720Y1203D01*
X-22719Y1204D01*
X-22613Y1225D01*
X-22613Y1225D01*
X-22530Y1281D01*
X-22530Y1030D01*
X-22504Y903D01*
X-22433Y796D01*
X-22310Y673D01*
X-22310Y-1289D01*
X-22349Y-1386D01*
X-22350Y-1533D01*
X-22293Y-1669D01*
X-22189Y-1773D01*
X-22053Y-1829D01*
X-21906Y-1830D01*
X-21770Y-1773D01*
X-21666Y-1669D01*
X-21610Y-1533D01*
X-21609Y-1386D01*
X-21650Y-1289D01*
X-21650Y-1041D01*
X-21628Y-1063D01*
X-21588Y-1159D01*
X-21484Y-1263D01*
X-21348Y-1319D01*
X-21201Y-1320D01*
X-21065Y-1263D01*
X-20961Y-1159D01*
X-20905Y-1023D01*
X-20904Y-876D01*
X-20961Y-740D01*
X-21056Y-645D01*
X-21040Y-638D01*
X-20936Y-534D01*
X-20880Y-398D01*
X-20879Y-251D01*
X-20922Y-149D01*
X-20922Y1552D01*
X-20883Y1591D01*
X-20845Y1683D01*
X-20844Y1783D01*
X-20844Y2200D01*
X-18052Y2200D01*
X-18164Y2153D01*
X-18268Y2049D01*
X-18324Y1913D01*
X-18325Y1766D01*
X-18268Y1630D01*
X-18245Y1607D01*
X-18518Y1607D01*
X-18607Y1571D01*
X-18695Y1607D01*
X-18794Y1607D01*
X-19108Y1607D01*
X-19200Y1569D01*
X-19237Y1533D01*
X-19326Y1569D01*
X-19473Y1570D01*
X-19609Y1513D01*
X-19688Y1435D01*
X-19693Y1440D01*
X-19785Y1478D01*
X-19885Y1479D01*
X-20514Y1479D01*
X-20605Y1441D01*
X-20676Y1370D01*
X-20714Y1278D01*
X-20714Y1179D01*
X-20714Y876D01*
X-20714Y865D01*
X-20714Y865D01*
X-20714Y782D01*
X-20652Y720D01*
X-20623Y720D01*
X-20606Y703D01*
X-20514Y665D01*
X-20414Y664D01*
X-19785Y664D01*
X-19694Y702D01*
X-19676Y720D01*
X-19648Y720D01*
X-19585Y782D01*
X-19585Y876D01*
X-19473Y830D01*
X-19326Y829D01*
X-19236Y867D01*
X-19201Y831D01*
X-19109Y793D01*
X-19009Y793D01*
X-18911Y793D01*
X-19112Y592D01*
X-19123Y575D01*
X-19173Y555D01*
X-19244Y484D01*
X-19282Y392D01*
X-19282Y293D01*
X-19282Y-156D01*
X-19244Y-248D01*
X-19174Y-318D01*
X-19082Y-357D01*
X-18982Y-357D01*
X-18732Y-357D01*
X-18640Y-319D01*
X-18607Y-285D01*
X-18573Y-319D01*
X-18481Y-357D01*
X-18419Y-357D01*
X-18357Y-294D01*
X-18357Y67D01*
X-18365Y67D01*
X-18365Y167D01*
X-18357Y167D01*
X-18357Y175D01*
X-18257Y175D01*
X-18257Y167D01*
X-18249Y167D01*
X-18249Y67D01*
X-18257Y67D01*
X-18257Y-294D01*
X-18194Y-357D01*
X-18132Y-357D01*
X-18040Y-319D01*
X-18016Y-295D01*
X-17993Y-318D01*
X-17901Y-357D01*
X-17801Y-357D01*
X-17551Y-357D01*
X-17459Y-319D01*
X-17426Y-285D01*
X-17392Y-319D01*
X-17300Y-357D01*
X-17238Y-357D01*
X-17176Y-294D01*
X-17176Y67D01*
X-17184Y67D01*
X-17184Y167D01*
X-17176Y167D01*
X-17176Y175D01*
X-17076Y175D01*
X-17076Y167D01*
X-16813Y167D01*
X-16751Y230D01*
X-16751Y293D01*
X-16751Y392D01*
X-16789Y484D01*
X-16859Y555D01*
X-16951Y592D01*
X-17013Y592D01*
X-17076Y530D01*
X-17076Y592D01*
X-17116Y592D01*
X-16926Y783D01*
X-16926Y783D01*
X-16926Y783D01*
X-16917Y796D01*
X-16917Y796D01*
X-16832Y831D01*
X-16762Y901D01*
X-16724Y993D01*
X-16724Y1093D01*
X-16724Y1407D01*
X-16762Y1499D01*
X-16832Y1569D01*
X-16924Y1607D01*
X-17023Y1607D01*
X-17337Y1607D01*
X-17426Y1571D01*
X-17431Y1573D01*
X-17431Y1606D01*
X-17453Y1717D01*
X-17516Y1811D01*
X-17516Y1811D01*
X-17584Y1880D01*
X-17584Y1913D01*
X-17641Y2049D01*
X-17745Y2153D01*
X-17857Y2200D01*
X-15141Y2200D01*
X-15191Y2179D01*
X-15334Y2037D01*
X-15411Y1851D01*
X-15411Y1649D01*
X-15334Y1463D01*
X-15192Y1321D01*
X-15020Y1249D01*
X-15191Y1179D01*
X-15334Y1037D01*
X-15411Y851D01*
X-15411Y649D01*
X-15334Y463D01*
X-15192Y321D01*
X-15006Y244D01*
X-14805Y243D01*
X-14619Y320D01*
X-14476Y463D01*
X-14413Y615D01*
X-14350Y463D01*
X-14208Y321D01*
X-14022Y244D01*
X-13821Y243D01*
X-13635Y320D01*
X-13492Y463D01*
X-13429Y615D01*
X-13366Y463D01*
X-13231Y328D01*
X-13231Y328D01*
G37*
G54D37*
X-13231Y328D02*
X-13530Y30D01*
X-13592Y-64D01*
X-13609Y-147D01*
X-14000Y-147D01*
X-14092Y-185D01*
X-14162Y-256D01*
X-14200Y-348D01*
X-14200Y-447D01*
X-14200Y-1805D01*
X-14178Y-1860D01*
X-14321Y-1860D01*
X-14299Y-1806D01*
X-14299Y-1706D01*
X-14299Y-348D01*
X-14337Y-256D01*
X-14407Y-186D01*
X-14499Y-148D01*
X-14598Y-147D01*
X-15000Y-147D01*
X-15092Y-185D01*
X-15162Y-256D01*
X-15200Y-348D01*
X-15200Y-447D01*
X-15200Y-1660D01*
X-15299Y-1660D01*
X-15299Y-447D01*
X-15299Y-348D01*
X-15337Y-256D01*
X-15407Y-185D01*
X-15499Y-147D01*
X-15637Y-148D01*
X-15700Y-210D01*
X-15700Y-1027D01*
X-15361Y-1027D01*
X-15299Y-964D01*
X-15299Y-447D01*
X-15299Y-1660D01*
X-15299Y-1660D01*
X-15299Y-1189D01*
X-15361Y-1127D01*
X-15700Y-1127D01*
X-15700Y-1135D01*
X-15800Y-1135D01*
X-15800Y-1127D01*
X-15800Y-1027D01*
X-15800Y-210D01*
X-15862Y-148D01*
X-16000Y-147D01*
X-16092Y-185D01*
X-16162Y-256D01*
X-16200Y-348D01*
X-16200Y-447D01*
X-16200Y-964D01*
X-16138Y-1027D01*
X-15800Y-1027D01*
X-15800Y-1127D01*
X-16138Y-1127D01*
X-16200Y-1189D01*
X-16200Y-1660D01*
X-16751Y-1660D01*
X-16751Y-57D01*
X-16751Y5D01*
X-16813Y67D01*
X-17076Y67D01*
X-17076Y-294D01*
X-17013Y-357D01*
X-16951Y-357D01*
X-16859Y-319D01*
X-16789Y-248D01*
X-16751Y-156D01*
X-16751Y-57D01*
X-16751Y-1660D01*
X-16896Y-1660D01*
X-16906Y-1650D01*
X-16872Y-1616D01*
X-16834Y-1524D01*
X-16834Y-1175D01*
X-16872Y-1083D01*
X-16943Y-1013D01*
X-17035Y-975D01*
X-17134Y-974D01*
X-17197Y-975D01*
X-17260Y-1037D01*
X-17260Y-1300D01*
X-16897Y-1300D01*
X-16835Y-1237D01*
X-16834Y-1175D01*
X-16834Y-1524D01*
X-16835Y-1462D01*
X-16897Y-1400D01*
X-17260Y-1400D01*
X-17260Y-1407D01*
X-17360Y-1407D01*
X-17360Y-1400D01*
X-17360Y-1300D01*
X-17360Y-1037D01*
X-17422Y-975D01*
X-17485Y-974D01*
X-17584Y-975D01*
X-17676Y-1013D01*
X-17747Y-1083D01*
X-17785Y-1175D01*
X-17785Y-1237D01*
X-17722Y-1300D01*
X-17360Y-1300D01*
X-17360Y-1400D01*
X-17722Y-1400D01*
X-17785Y-1462D01*
X-17785Y-1524D01*
X-17747Y-1616D01*
X-17713Y-1649D01*
X-17746Y-1683D01*
X-17784Y-1775D01*
X-17785Y-1874D01*
X-17785Y-2124D01*
X-17747Y-2216D01*
X-17736Y-2226D01*
X-17759Y-2236D01*
X-17863Y-2340D01*
X-17919Y-2476D01*
X-17920Y-2623D01*
X-17863Y-2759D01*
X-17759Y-2863D01*
X-17623Y-2919D01*
X-17580Y-2919D01*
X-18115Y-3454D01*
X-18148Y-3454D01*
X-18284Y-3511D01*
X-18388Y-3615D01*
X-18444Y-3751D01*
X-18445Y-3898D01*
X-18388Y-4034D01*
X-18284Y-4138D01*
X-18148Y-4194D01*
X-18115Y-4194D01*
X-18088Y-4259D01*
X-17988Y-4360D01*
X-18125Y-4360D01*
X-18235Y-4382D01*
X-18330Y-4444D01*
X-18330Y-4444D01*
X-19155Y-5269D01*
X-19217Y-5364D01*
X-19240Y-5475D01*
X-19240Y-5699D01*
X-19324Y-5614D01*
X-19324Y-5425D01*
X-19362Y-5333D01*
X-19421Y-5275D01*
X-19362Y-5216D01*
X-19324Y-5124D01*
X-19324Y-4675D01*
X-19362Y-4583D01*
X-19433Y-4513D01*
X-19525Y-4475D01*
X-19624Y-4474D01*
X-19737Y-4475D01*
X-19800Y-4537D01*
X-19800Y-4850D01*
X-19387Y-4850D01*
X-19325Y-4787D01*
X-19324Y-4675D01*
X-19324Y-5124D01*
X-19325Y-5012D01*
X-19387Y-4950D01*
X-19800Y-4950D01*
X-19800Y-4957D01*
X-19900Y-4957D01*
X-19900Y-4950D01*
X-19907Y-4950D01*
X-19907Y-4850D01*
X-19900Y-4850D01*
X-19900Y-4537D01*
X-19962Y-4475D01*
X-20075Y-4474D01*
X-20174Y-4475D01*
X-20266Y-4513D01*
X-20337Y-4583D01*
X-20343Y-4600D01*
X-20399Y-4599D01*
X-20462Y-4600D01*
X-20525Y-4662D01*
X-20525Y-4925D01*
X-20517Y-4925D01*
X-20517Y-5025D01*
X-20525Y-5025D01*
X-20525Y-5032D01*
X-20625Y-5032D01*
X-20625Y-5025D01*
X-20625Y-4925D01*
X-20625Y-4662D01*
X-20687Y-4600D01*
X-20750Y-4599D01*
X-20849Y-4600D01*
X-20941Y-4638D01*
X-21012Y-4708D01*
X-21050Y-4800D01*
X-21050Y-4862D01*
X-20987Y-4925D01*
X-20625Y-4925D01*
X-20625Y-5025D01*
X-20987Y-5025D01*
X-21050Y-5087D01*
X-21050Y-5130D01*
X-21173Y-5129D01*
X-21309Y-5186D01*
X-21413Y-5290D01*
X-21469Y-5426D01*
X-21470Y-5573D01*
X-21413Y-5709D01*
X-21400Y-5723D01*
X-21400Y-6075D01*
X-21392Y-6075D01*
X-21392Y-6175D01*
X-21400Y-6175D01*
X-21400Y-6362D01*
X-21400Y-6537D01*
X-21400Y-6725D01*
X-21392Y-6725D01*
X-21392Y-6825D01*
X-21400Y-6825D01*
X-21400Y-7187D01*
X-21337Y-7250D01*
X-21275Y-7250D01*
X-21183Y-7212D01*
X-21150Y-7178D01*
X-21116Y-7211D01*
X-21024Y-7249D01*
X-20925Y-7250D01*
X-20675Y-7250D01*
X-20583Y-7212D01*
X-20513Y-7141D01*
X-20478Y-7057D01*
X-20404Y-7042D01*
X-20339Y-7000D01*
X-20296Y-7000D01*
X-20160Y-6943D01*
X-20120Y-6903D01*
X-20120Y-6948D01*
X-20063Y-7084D01*
X-19959Y-7188D01*
X-19956Y-7189D01*
X-19998Y-7231D01*
X-20081Y-7314D01*
X-20119Y-7406D01*
X-20119Y-7506D01*
X-20081Y-7597D01*
X-20011Y-7668D01*
X-19834Y-7844D01*
X-20915Y-8924D01*
X-20977Y-9019D01*
X-21000Y-9130D01*
X-21000Y-14069D01*
X-21235Y-14304D01*
X-21297Y-14399D01*
X-21320Y-14510D01*
X-21320Y-15416D01*
X-21343Y-15440D01*
X-21399Y-15576D01*
X-21400Y-15689D01*
X-21454Y-15634D01*
X-21500Y-15604D01*
X-21500Y-7187D01*
X-21500Y-6825D01*
X-21500Y-6725D01*
X-21500Y-6537D01*
X-21500Y-6362D01*
X-21500Y-6175D01*
X-21500Y-6075D01*
X-21500Y-5712D01*
X-21562Y-5650D01*
X-21624Y-5649D01*
X-21716Y-5687D01*
X-21786Y-5758D01*
X-21824Y-5850D01*
X-21825Y-5949D01*
X-21825Y-6012D01*
X-21762Y-6075D01*
X-21500Y-6075D01*
X-21500Y-6175D01*
X-21762Y-6175D01*
X-21825Y-6237D01*
X-21825Y-6300D01*
X-21824Y-6399D01*
X-21804Y-6450D01*
X-21824Y-6500D01*
X-21825Y-6599D01*
X-21825Y-6662D01*
X-21762Y-6725D01*
X-21500Y-6725D01*
X-21500Y-6825D01*
X-21762Y-6825D01*
X-21825Y-6887D01*
X-21825Y-6950D01*
X-21824Y-7049D01*
X-21786Y-7141D01*
X-21716Y-7212D01*
X-21624Y-7250D01*
X-21562Y-7250D01*
X-21500Y-7187D01*
X-21500Y-15604D01*
X-21549Y-15572D01*
X-21660Y-15550D01*
X-22524Y-15550D01*
X-22524Y-14845D01*
X-22597Y-14671D01*
X-22730Y-14537D01*
X-22905Y-14465D01*
X-23094Y-14464D01*
X-23268Y-14537D01*
X-23402Y-14670D01*
X-23474Y-14845D01*
X-23475Y-15034D01*
X-23402Y-15208D01*
X-23269Y-15342D01*
X-23094Y-15414D01*
X-22905Y-15415D01*
X-22731Y-15342D01*
X-22597Y-15209D01*
X-22525Y-15034D01*
X-22524Y-14845D01*
X-22524Y-15550D01*
X-24453Y-15550D01*
X-25209Y-14793D01*
X-25209Y-14530D01*
X-25209Y-13369D01*
X-25209Y-12916D01*
X-25247Y-12824D01*
X-25317Y-12753D01*
X-25409Y-12715D01*
X-25508Y-12715D01*
X-25543Y-12715D01*
X-25606Y-12778D01*
X-25606Y-13092D01*
X-25271Y-13092D01*
X-25209Y-13030D01*
X-25209Y-12916D01*
X-25209Y-13369D01*
X-25209Y-13255D01*
X-25271Y-13192D01*
X-25606Y-13192D01*
X-25606Y-13507D01*
X-25543Y-13570D01*
X-25508Y-13570D01*
X-25409Y-13570D01*
X-25317Y-13531D01*
X-25247Y-13461D01*
X-25209Y-13369D01*
X-25209Y-14530D01*
X-25247Y-14438D01*
X-25317Y-14368D01*
X-25409Y-14329D01*
X-25508Y-14329D01*
X-25706Y-14329D01*
X-25706Y-13507D01*
X-25706Y-13192D01*
X-25706Y-13092D01*
X-25706Y-12778D01*
X-25768Y-12715D01*
X-25803Y-12715D01*
X-25903Y-12715D01*
X-25971Y-12744D01*
X-26039Y-12715D01*
X-26138Y-12715D01*
X-26173Y-12715D01*
X-26236Y-12778D01*
X-26236Y-13092D01*
X-26040Y-13092D01*
X-25901Y-13092D01*
X-25706Y-13092D01*
X-25706Y-13192D01*
X-25901Y-13192D01*
X-26040Y-13192D01*
X-26236Y-13192D01*
X-26236Y-13507D01*
X-26173Y-13570D01*
X-26138Y-13570D01*
X-26039Y-13570D01*
X-25971Y-13541D01*
X-25903Y-13570D01*
X-25803Y-13570D01*
X-25768Y-13570D01*
X-25706Y-13507D01*
X-25706Y-14329D01*
X-25902Y-14329D01*
X-25971Y-14358D01*
X-26039Y-14329D01*
X-26138Y-14329D01*
X-26336Y-14329D01*
X-26336Y-13507D01*
X-26336Y-13192D01*
X-26336Y-13092D01*
X-26336Y-12778D01*
X-26398Y-12715D01*
X-26433Y-12715D01*
X-26533Y-12715D01*
X-26624Y-12753D01*
X-26695Y-12824D01*
X-26733Y-12916D01*
X-26733Y-13030D01*
X-26670Y-13092D01*
X-26336Y-13092D01*
X-26336Y-13192D01*
X-26670Y-13192D01*
X-26733Y-13255D01*
X-26733Y-13369D01*
X-26695Y-13461D01*
X-26624Y-13531D01*
X-26533Y-13570D01*
X-26433Y-13570D01*
X-26398Y-13570D01*
X-26336Y-13507D01*
X-26336Y-14329D01*
X-26532Y-14329D01*
X-26624Y-14367D01*
X-26694Y-14438D01*
X-26733Y-14529D01*
X-26733Y-14629D01*
X-26733Y-14983D01*
X-26695Y-15075D01*
X-26624Y-15146D01*
X-26533Y-15184D01*
X-26433Y-15184D01*
X-26039Y-15184D01*
X-25971Y-15155D01*
X-25903Y-15184D01*
X-25803Y-15184D01*
X-25639Y-15184D01*
X-24778Y-16045D01*
X-24778Y-16045D01*
X-24684Y-16107D01*
X-24573Y-16130D01*
X-24573Y-16129D01*
X-24573Y-16130D01*
X-21830Y-16130D01*
X-21830Y-16700D01*
X-23500Y-16700D01*
X-23500Y-17131D01*
X-23500Y-17120D01*
X-23555Y-16988D01*
X-23645Y-16966D01*
X-23716Y-17037D01*
X-23716Y-16895D01*
X-23738Y-16805D01*
X-23928Y-16739D01*
X-24129Y-16750D01*
X-24261Y-16805D01*
X-24283Y-16895D01*
X-24000Y-17179D01*
X-23716Y-16895D01*
X-23716Y-17037D01*
X-23929Y-17250D01*
X-23645Y-17533D01*
X-23555Y-17511D01*
X-23502Y-17359D01*
X-23500Y-17364D01*
X-23500Y-17746D01*
X-23533Y-17712D01*
X-23625Y-17674D01*
X-23733Y-17674D01*
X-23716Y-17604D01*
X-24000Y-17320D01*
X-24070Y-17391D01*
X-24070Y-17250D01*
X-24354Y-16966D01*
X-24444Y-16988D01*
X-24510Y-17178D01*
X-24499Y-17379D01*
X-24444Y-17511D01*
X-24354Y-17533D01*
X-24070Y-17250D01*
X-24070Y-17391D01*
X-24283Y-17604D01*
X-24266Y-17674D01*
X-24374Y-17674D01*
X-24466Y-17712D01*
X-24536Y-17783D01*
X-24574Y-17875D01*
X-24575Y-17974D01*
X-24575Y-18137D01*
X-24512Y-18200D01*
X-24050Y-18200D01*
X-24050Y-18192D01*
X-23950Y-18192D01*
X-23950Y-18200D01*
X-23942Y-18200D01*
X-23942Y-18300D01*
X-23950Y-18300D01*
X-23950Y-18307D01*
X-24050Y-18307D01*
X-24050Y-18300D01*
X-24512Y-18300D01*
X-24575Y-18362D01*
X-24575Y-18525D01*
X-24574Y-18624D01*
X-24543Y-18700D01*
X-25323Y-18700D01*
X-25025Y-18402D01*
X-24850Y-17979D01*
X-24849Y-17522D01*
X-25024Y-17099D01*
X-25347Y-16775D01*
X-25770Y-16600D01*
X-26227Y-16599D01*
X-26650Y-16774D01*
X-26974Y-17097D01*
X-27149Y-17520D01*
X-27150Y-17977D01*
X-26975Y-18400D01*
X-26676Y-18700D01*
X-29329Y-18700D01*
X-31300Y-16729D01*
X-31300Y-11400D01*
X-23300Y-11400D01*
X-23300Y-3712D01*
X-23249Y-3712D01*
X-22935Y-3712D01*
X-22905Y-3700D01*
X-22875Y-3712D01*
X-22776Y-3712D01*
X-22462Y-3712D01*
X-22433Y-3700D01*
X-22403Y-3712D01*
X-22304Y-3712D01*
X-22020Y-3712D01*
X-22029Y-3736D01*
X-22030Y-3883D01*
X-22010Y-3930D01*
X-22556Y-3930D01*
X-22580Y-3906D01*
X-22716Y-3850D01*
X-22863Y-3849D01*
X-22999Y-3906D01*
X-23103Y-4010D01*
X-23159Y-4146D01*
X-23160Y-4293D01*
X-23103Y-4429D01*
X-22999Y-4533D01*
X-22863Y-4589D01*
X-22716Y-4590D01*
X-22580Y-4533D01*
X-22556Y-4510D01*
X-21340Y-4510D01*
X-21229Y-4487D01*
X-21134Y-4425D01*
X-21059Y-4350D01*
X-19433Y-4350D01*
X-19409Y-4373D01*
X-19273Y-4429D01*
X-19126Y-4430D01*
X-18990Y-4373D01*
X-18886Y-4269D01*
X-18830Y-4133D01*
X-18829Y-3986D01*
X-18886Y-3850D01*
X-18990Y-3746D01*
X-19126Y-3690D01*
X-19273Y-3689D01*
X-19409Y-3746D01*
X-19433Y-3770D01*
X-20844Y-3770D01*
X-20844Y-3412D01*
X-20845Y-3260D01*
X-20907Y-3198D01*
X-21202Y-3198D01*
X-21202Y-3650D01*
X-21139Y-3712D01*
X-21045Y-3712D01*
X-20953Y-3674D01*
X-20883Y-3604D01*
X-20845Y-3512D01*
X-20844Y-3412D01*
X-20844Y-3770D01*
X-21180Y-3770D01*
X-21289Y-3791D01*
X-21289Y-3736D01*
X-21318Y-3666D01*
X-21302Y-3650D01*
X-21302Y-3198D01*
X-21309Y-3198D01*
X-21309Y-3098D01*
X-21302Y-3098D01*
X-21302Y-3090D01*
X-21202Y-3090D01*
X-21202Y-3098D01*
X-20907Y-3098D01*
X-20845Y-3035D01*
X-20844Y-2900D01*
X-18940Y-2900D01*
X-18730Y-2900D01*
X-18489Y-2900D01*
X-18411Y-2932D01*
X-18264Y-2932D01*
X-18128Y-2876D01*
X-18024Y-2772D01*
X-17967Y-2636D01*
X-17967Y-2489D01*
X-18023Y-2353D01*
X-18127Y-2249D01*
X-18263Y-2192D01*
X-18410Y-2192D01*
X-18525Y-2240D01*
X-18730Y-2240D01*
X-18940Y-2240D01*
X-19585Y-2240D01*
X-19585Y-1976D01*
X-19585Y-1965D01*
X-19585Y-1563D01*
X-19597Y-1534D01*
X-19585Y-1504D01*
X-19585Y-1405D01*
X-19585Y-1091D01*
X-19597Y-1061D01*
X-19585Y-1031D01*
X-19585Y-932D01*
X-19585Y-618D01*
X-19613Y-549D01*
X-19585Y-481D01*
X-19585Y-382D01*
X-19585Y-68D01*
X-19597Y-38D01*
X-19585Y-8D01*
X-19585Y90D01*
X-19585Y404D01*
X-19597Y434D01*
X-19585Y463D01*
X-19585Y557D01*
X-19648Y620D01*
X-20100Y620D01*
X-20100Y612D01*
X-20200Y612D01*
X-20200Y620D01*
X-20652Y620D01*
X-20714Y557D01*
X-20714Y463D01*
X-20702Y434D01*
X-20714Y404D01*
X-20714Y305D01*
X-20714Y-8D01*
X-20702Y-38D01*
X-20714Y-68D01*
X-20714Y-167D01*
X-20714Y-481D01*
X-20686Y-550D01*
X-20714Y-618D01*
X-20714Y-717D01*
X-20714Y-1031D01*
X-20702Y-1061D01*
X-20714Y-1091D01*
X-20714Y-1190D01*
X-20714Y-1504D01*
X-20702Y-1534D01*
X-20714Y-1563D01*
X-20714Y-1657D01*
X-20652Y-1720D01*
X-20200Y-1720D01*
X-20200Y-1712D01*
X-20100Y-1712D01*
X-20100Y-1720D01*
X-19648Y-1720D01*
X-19585Y-1657D01*
X-19585Y-1563D01*
X-19585Y-1965D01*
X-19585Y-1965D01*
X-19585Y-1882D01*
X-19648Y-1820D01*
X-19676Y-1820D01*
X-19693Y-1803D01*
X-19785Y-1765D01*
X-19885Y-1764D01*
X-20514Y-1764D01*
X-20605Y-1802D01*
X-20623Y-1820D01*
X-20652Y-1820D01*
X-20714Y-1882D01*
X-20714Y-1976D01*
X-20714Y-1976D01*
X-20714Y-2064D01*
X-20714Y-2240D01*
X-22680Y-2240D01*
X-22679Y-2116D01*
X-22720Y-2019D01*
X-22720Y1203D01*
X-22719Y1204D01*
X-22613Y1225D01*
X-22613Y1225D01*
X-22530Y1281D01*
X-22530Y1030D01*
X-22504Y903D01*
X-22433Y796D01*
X-22310Y673D01*
X-22310Y-1289D01*
X-22349Y-1386D01*
X-22350Y-1533D01*
X-22293Y-1669D01*
X-22189Y-1773D01*
X-22053Y-1829D01*
X-21906Y-1830D01*
X-21770Y-1773D01*
X-21666Y-1669D01*
X-21610Y-1533D01*
X-21609Y-1386D01*
X-21650Y-1289D01*
X-21650Y-1041D01*
X-21628Y-1063D01*
X-21588Y-1159D01*
X-21484Y-1263D01*
X-21348Y-1319D01*
X-21201Y-1320D01*
X-21065Y-1263D01*
X-20961Y-1159D01*
X-20905Y-1023D01*
X-20904Y-876D01*
X-20961Y-740D01*
X-21056Y-645D01*
X-21040Y-638D01*
X-20936Y-534D01*
X-20880Y-398D01*
X-20879Y-251D01*
X-20922Y-149D01*
X-20922Y1552D01*
X-20883Y1591D01*
X-20845Y1683D01*
X-20844Y1783D01*
X-20844Y2200D01*
X-18052Y2200D01*
X-18164Y2153D01*
X-18268Y2049D01*
X-18324Y1913D01*
X-18325Y1766D01*
X-18268Y1630D01*
X-18245Y1607D01*
X-18518Y1607D01*
X-18607Y1571D01*
X-18695Y1607D01*
X-18794Y1607D01*
X-19108Y1607D01*
X-19200Y1569D01*
X-19237Y1533D01*
X-19326Y1569D01*
X-19473Y1570D01*
X-19609Y1513D01*
X-19688Y1435D01*
X-19693Y1440D01*
X-19785Y1478D01*
X-19885Y1479D01*
X-20514Y1479D01*
X-20605Y1441D01*
X-20676Y1370D01*
X-20714Y1278D01*
X-20714Y1179D01*
X-20714Y876D01*
X-20714Y865D01*
X-20714Y865D01*
X-20714Y782D01*
X-20652Y720D01*
X-20623Y720D01*
X-20606Y703D01*
X-20514Y665D01*
X-20414Y664D01*
X-19785Y664D01*
X-19694Y702D01*
X-19676Y720D01*
X-19648Y720D01*
X-19585Y782D01*
X-19585Y876D01*
X-19473Y830D01*
X-19326Y829D01*
X-19236Y867D01*
X-19201Y831D01*
X-19109Y793D01*
X-19009Y793D01*
X-18911Y793D01*
X-19112Y592D01*
X-19123Y575D01*
X-19173Y555D01*
X-19244Y484D01*
X-19282Y392D01*
X-19282Y293D01*
X-19282Y-156D01*
X-19244Y-248D01*
X-19174Y-318D01*
X-19082Y-357D01*
X-18982Y-357D01*
X-18732Y-357D01*
X-18640Y-319D01*
X-18607Y-285D01*
X-18573Y-319D01*
X-18481Y-357D01*
X-18419Y-357D01*
X-18357Y-294D01*
X-18357Y67D01*
X-18365Y67D01*
X-18365Y167D01*
X-18357Y167D01*
X-18357Y175D01*
X-18257Y175D01*
X-18257Y167D01*
X-18249Y167D01*
X-18249Y67D01*
X-18257Y67D01*
X-18257Y-294D01*
X-18194Y-357D01*
X-18132Y-357D01*
X-18040Y-319D01*
X-18016Y-295D01*
X-17993Y-318D01*
X-17901Y-357D01*
X-17801Y-357D01*
X-17551Y-357D01*
X-17459Y-319D01*
X-17426Y-285D01*
X-17392Y-319D01*
X-17300Y-357D01*
X-17238Y-357D01*
X-17176Y-294D01*
X-17176Y67D01*
X-17184Y67D01*
X-17184Y167D01*
X-17176Y167D01*
X-17176Y175D01*
X-17076Y175D01*
X-17076Y167D01*
X-16813Y167D01*
X-16751Y230D01*
X-16751Y293D01*
X-16751Y392D01*
X-16789Y484D01*
X-16859Y555D01*
X-16951Y592D01*
X-17013Y592D01*
X-17076Y530D01*
X-17076Y592D01*
X-17116Y592D01*
X-16926Y783D01*
X-16926Y783D01*
X-16926Y783D01*
X-16917Y796D01*
X-16917Y796D01*
X-16832Y831D01*
X-16762Y901D01*
X-16724Y993D01*
X-16724Y1093D01*
X-16724Y1407D01*
X-16762Y1499D01*
X-16832Y1569D01*
X-16924Y1607D01*
X-17023Y1607D01*
X-17337Y1607D01*
X-17426Y1571D01*
X-17431Y1573D01*
X-17431Y1606D01*
X-17453Y1717D01*
X-17516Y1811D01*
X-17516Y1811D01*
X-17584Y1880D01*
X-17584Y1913D01*
X-17641Y2049D01*
X-17745Y2153D01*
X-17857Y2200D01*
X-15141Y2200D01*
X-15191Y2179D01*
X-15334Y2037D01*
X-15411Y1851D01*
X-15411Y1649D01*
X-15334Y1463D01*
X-15192Y1321D01*
X-15020Y1249D01*
X-15191Y1179D01*
X-15334Y1037D01*
X-15411Y851D01*
X-15411Y649D01*
X-15334Y463D01*
X-15192Y321D01*
X-15006Y244D01*
X-14805Y243D01*
X-14619Y320D01*
X-14476Y463D01*
X-14413Y615D01*
X-14350Y463D01*
X-14208Y321D01*
X-14022Y244D01*
X-13821Y243D01*
X-13635Y320D01*
X-13492Y463D01*
X-13429Y615D01*
X-13366Y463D01*
X-13231Y328D01*
G54D10*
G36*
X-11350Y-10680D02*
X-11600Y-10929D01*
X-11600Y-11000D01*
X-12229Y-11000D01*
X-12329Y-10900D01*
X-13170Y-10900D01*
X-13500Y-11229D01*
X-13500Y-11700D01*
X-13754Y-11700D01*
X-13754Y-11665D01*
X-13754Y-11415D01*
X-13792Y-11323D01*
X-13826Y-11290D01*
X-13792Y-11256D01*
X-13754Y-11164D01*
X-13754Y-10815D01*
X-13792Y-10723D01*
X-13863Y-10653D01*
X-13955Y-10615D01*
X-14054Y-10614D01*
X-14117Y-10615D01*
X-14180Y-10677D01*
X-14180Y-10940D01*
X-13817Y-10940D01*
X-13755Y-10877D01*
X-13754Y-10815D01*
X-13754Y-11164D01*
X-13755Y-11102D01*
X-13817Y-11040D01*
X-14180Y-11040D01*
X-14180Y-11047D01*
X-14280Y-11047D01*
X-14280Y-11040D01*
X-14287Y-11040D01*
X-14287Y-10940D01*
X-14280Y-10940D01*
X-14280Y-10677D01*
X-14328Y-10628D01*
X-14034Y-10335D01*
X-14034Y-10335D01*
X-14034Y-10335D01*
X-13972Y-10240D01*
X-13972Y-10240D01*
X-13953Y-10148D01*
X-13950Y-10130D01*
X-13950Y-10130D01*
X-13950Y-10130D01*
X-13950Y-9440D01*
X-13896Y-9440D01*
X-13760Y-9383D01*
X-13656Y-9279D01*
X-13615Y-9180D01*
X-12730Y-9180D01*
X-12600Y-9310D01*
X-12600Y-9990D01*
X-12577Y-10100D01*
X-12515Y-10195D01*
X-12415Y-10295D01*
X-12320Y-10357D01*
X-12210Y-10380D01*
X-11780Y-10380D01*
X-11780Y-10383D01*
X-11723Y-10519D01*
X-11619Y-10623D01*
X-11483Y-10679D01*
X-11350Y-10680D01*
X-11350Y-10680D01*
G37*
G54D37*
X-11350Y-10680D02*
X-11600Y-10929D01*
X-11600Y-11000D01*
X-12229Y-11000D01*
X-12329Y-10900D01*
X-13170Y-10900D01*
X-13500Y-11229D01*
X-13500Y-11700D01*
X-13754Y-11700D01*
X-13754Y-11665D01*
X-13754Y-11415D01*
X-13792Y-11323D01*
X-13826Y-11290D01*
X-13792Y-11256D01*
X-13754Y-11164D01*
X-13754Y-10815D01*
X-13792Y-10723D01*
X-13863Y-10653D01*
X-13955Y-10615D01*
X-14054Y-10614D01*
X-14117Y-10615D01*
X-14180Y-10677D01*
X-14180Y-10940D01*
X-13817Y-10940D01*
X-13755Y-10877D01*
X-13754Y-10815D01*
X-13754Y-11164D01*
X-13755Y-11102D01*
X-13817Y-11040D01*
X-14180Y-11040D01*
X-14180Y-11047D01*
X-14280Y-11047D01*
X-14280Y-11040D01*
X-14287Y-11040D01*
X-14287Y-10940D01*
X-14280Y-10940D01*
X-14280Y-10677D01*
X-14328Y-10628D01*
X-14034Y-10335D01*
X-14034Y-10335D01*
X-14034Y-10335D01*
X-13972Y-10240D01*
X-13972Y-10240D01*
X-13953Y-10148D01*
X-13950Y-10130D01*
X-13950Y-10130D01*
X-13950Y-10130D01*
X-13950Y-9440D01*
X-13896Y-9440D01*
X-13760Y-9383D01*
X-13656Y-9279D01*
X-13615Y-9180D01*
X-12730Y-9180D01*
X-12600Y-9310D01*
X-12600Y-9990D01*
X-12577Y-10100D01*
X-12515Y-10195D01*
X-12415Y-10295D01*
X-12320Y-10357D01*
X-12210Y-10380D01*
X-11780Y-10380D01*
X-11780Y-10383D01*
X-11723Y-10519D01*
X-11619Y-10623D01*
X-11483Y-10679D01*
X-11350Y-10680D01*
G54D10*
G36*
X-10675Y-6752D02*
X-12437Y-6752D01*
X-13258Y-5931D01*
X-13211Y-5884D01*
X-13155Y-5748D01*
X-13154Y-5601D01*
X-13211Y-5465D01*
X-13235Y-5441D01*
X-13235Y-5283D01*
X-13199Y-5247D01*
X-13142Y-5111D01*
X-13142Y-4990D01*
X-13045Y-4990D01*
X-12940Y-5095D01*
X-12940Y-5775D01*
X-12917Y-5885D01*
X-12855Y-5980D01*
X-12380Y-6455D01*
X-12380Y-6455D01*
X-12285Y-6517D01*
X-12175Y-6540D01*
X-11070Y-6540D01*
X-10954Y-6656D01*
X-10954Y-6656D01*
X-10859Y-6718D01*
X-10749Y-6741D01*
X-10675Y-6741D01*
X-10675Y-6746D01*
X-10675Y-6746D01*
X-10675Y-6752D01*
X-10675Y-6752D01*
G37*
G54D37*
X-10675Y-6752D02*
X-12437Y-6752D01*
X-13258Y-5931D01*
X-13211Y-5884D01*
X-13155Y-5748D01*
X-13154Y-5601D01*
X-13211Y-5465D01*
X-13235Y-5441D01*
X-13235Y-5283D01*
X-13199Y-5247D01*
X-13142Y-5111D01*
X-13142Y-4990D01*
X-13045Y-4990D01*
X-12940Y-5095D01*
X-12940Y-5775D01*
X-12917Y-5885D01*
X-12855Y-5980D01*
X-12380Y-6455D01*
X-12380Y-6455D01*
X-12285Y-6517D01*
X-12175Y-6540D01*
X-11070Y-6540D01*
X-10954Y-6656D01*
X-10954Y-6656D01*
X-10859Y-6718D01*
X-10749Y-6741D01*
X-10675Y-6741D01*
X-10675Y-6746D01*
X-10675Y-6746D01*
X-10675Y-6752D01*
G54D10*
G36*
X-10641Y-4893D02*
X-10675Y-4974D01*
X-10675Y-4980D01*
X-11221Y-4980D01*
X-11240Y-4961D01*
X-11376Y-4905D01*
X-11523Y-4904D01*
X-11556Y-4918D01*
X-11557Y-4914D01*
X-11619Y-4819D01*
X-11643Y-4796D01*
X-11565Y-4763D01*
X-11541Y-4740D01*
X-10795Y-4740D01*
X-10641Y-4893D01*
X-10641Y-4893D01*
G37*
G54D37*
X-10641Y-4893D02*
X-10675Y-4974D01*
X-10675Y-4980D01*
X-11221Y-4980D01*
X-11240Y-4961D01*
X-11376Y-4905D01*
X-11523Y-4904D01*
X-11556Y-4918D01*
X-11557Y-4914D01*
X-11619Y-4819D01*
X-11643Y-4796D01*
X-11565Y-4763D01*
X-11541Y-4740D01*
X-10795Y-4740D01*
X-10641Y-4893D01*
G54D10*
G36*
X-10630Y-7435D02*
X-10637Y-7441D01*
X-10666Y-7513D01*
X-10675Y-7522D01*
X-10675Y-7533D01*
X-10675Y-7533D01*
X-10675Y-7533D01*
X-10675Y-7533D01*
X-10675Y-7545D01*
X-10674Y-7545D01*
X-10749Y-7561D01*
X-10844Y-7623D01*
X-11150Y-7930D01*
X-12324Y-7930D01*
X-12324Y-7750D01*
X-12362Y-7658D01*
X-12433Y-7588D01*
X-12510Y-7556D01*
X-12510Y-7332D01*
X-10675Y-7332D01*
X-10675Y-7336D01*
X-10675Y-7336D01*
X-10675Y-7336D01*
X-10675Y-7336D01*
X-10675Y-7348D01*
X-10666Y-7356D01*
X-10637Y-7428D01*
X-10630Y-7435D01*
X-10630Y-7435D01*
G37*
G54D37*
X-10630Y-7435D02*
X-10637Y-7441D01*
X-10666Y-7513D01*
X-10675Y-7522D01*
X-10675Y-7533D01*
X-10675Y-7533D01*
X-10675Y-7533D01*
X-10675Y-7533D01*
X-10675Y-7545D01*
X-10674Y-7545D01*
X-10749Y-7561D01*
X-10844Y-7623D01*
X-11150Y-7930D01*
X-12324Y-7930D01*
X-12324Y-7750D01*
X-12362Y-7658D01*
X-12433Y-7588D01*
X-12510Y-7556D01*
X-12510Y-7332D01*
X-10675Y-7332D01*
X-10675Y-7336D01*
X-10675Y-7336D01*
X-10675Y-7336D01*
X-10675Y-7336D01*
X-10675Y-7348D01*
X-10666Y-7356D01*
X-10637Y-7428D01*
X-10630Y-7435D01*
G54D10*
G36*
X-9800Y-4560D02*
X-10154Y-4560D01*
X-10469Y-4244D01*
X-10564Y-4182D01*
X-10675Y-4160D01*
X-11541Y-4160D01*
X-11549Y-4152D01*
X-11499Y-4152D01*
X-11407Y-4114D01*
X-11337Y-4043D01*
X-11299Y-3951D01*
X-11299Y-3852D01*
X-11299Y-2494D01*
X-11299Y-1706D01*
X-11299Y-447D01*
X-11299Y-348D01*
X-11337Y-256D01*
X-11407Y-185D01*
X-11499Y-147D01*
X-11637Y-148D01*
X-11700Y-210D01*
X-11700Y-1027D01*
X-11361Y-1027D01*
X-11299Y-964D01*
X-11299Y-447D01*
X-11299Y-1706D01*
X-11299Y-1189D01*
X-11361Y-1127D01*
X-11700Y-1127D01*
X-11700Y-1943D01*
X-11637Y-2006D01*
X-11499Y-2006D01*
X-11407Y-1968D01*
X-11337Y-1898D01*
X-11299Y-1806D01*
X-11299Y-1706D01*
X-11299Y-2494D01*
X-11337Y-2402D01*
X-11407Y-2331D01*
X-11499Y-2293D01*
X-11598Y-2293D01*
X-11800Y-2293D01*
X-11800Y-1943D01*
X-11800Y-1127D01*
X-11800Y-1027D01*
X-11800Y-210D01*
X-11862Y-148D01*
X-12000Y-147D01*
X-12092Y-185D01*
X-12162Y-256D01*
X-12200Y-348D01*
X-12200Y-447D01*
X-12200Y-964D01*
X-12138Y-1027D01*
X-11800Y-1027D01*
X-11800Y-1127D01*
X-12138Y-1127D01*
X-12200Y-1189D01*
X-12200Y-1706D01*
X-12200Y-1806D01*
X-12162Y-1898D01*
X-12092Y-1968D01*
X-12000Y-2006D01*
X-11862Y-2006D01*
X-11800Y-1943D01*
X-11800Y-2293D01*
X-12000Y-2293D01*
X-12092Y-2331D01*
X-12162Y-2401D01*
X-12200Y-2493D01*
X-12200Y-2593D01*
X-12200Y-3835D01*
X-12299Y-3835D01*
X-12299Y-2494D01*
X-12337Y-2402D01*
X-12407Y-2331D01*
X-12499Y-2293D01*
X-12505Y-2293D01*
X-12505Y-2245D01*
X-12482Y-2210D01*
X-12460Y-2100D01*
X-12460Y-2100D01*
X-12460Y-2100D01*
X-12460Y-1989D01*
X-12407Y-1968D01*
X-12337Y-1898D01*
X-12299Y-1806D01*
X-12299Y-1706D01*
X-12299Y-348D01*
X-12337Y-256D01*
X-12407Y-186D01*
X-12499Y-148D01*
X-12598Y-147D01*
X-12887Y-147D01*
X-12879Y-140D01*
X-12537Y-140D01*
X-12426Y-117D01*
X-12331Y-55D01*
X-12032Y244D01*
X-11836Y243D01*
X-11650Y320D01*
X-11508Y463D01*
X-11452Y596D01*
X-11397Y463D01*
X-11255Y321D01*
X-11100Y256D01*
X-11100Y-3370D01*
X-10270Y-4200D01*
X-9800Y-4200D01*
X-9800Y-4560D01*
X-9800Y-4560D01*
G37*
G54D37*
X-9800Y-4560D02*
X-10154Y-4560D01*
X-10469Y-4244D01*
X-10564Y-4182D01*
X-10675Y-4160D01*
X-11541Y-4160D01*
X-11549Y-4152D01*
X-11499Y-4152D01*
X-11407Y-4114D01*
X-11337Y-4043D01*
X-11299Y-3951D01*
X-11299Y-3852D01*
X-11299Y-2494D01*
X-11299Y-1706D01*
X-11299Y-447D01*
X-11299Y-348D01*
X-11337Y-256D01*
X-11407Y-185D01*
X-11499Y-147D01*
X-11637Y-148D01*
X-11700Y-210D01*
X-11700Y-1027D01*
X-11361Y-1027D01*
X-11299Y-964D01*
X-11299Y-447D01*
X-11299Y-1706D01*
X-11299Y-1189D01*
X-11361Y-1127D01*
X-11700Y-1127D01*
X-11700Y-1943D01*
X-11637Y-2006D01*
X-11499Y-2006D01*
X-11407Y-1968D01*
X-11337Y-1898D01*
X-11299Y-1806D01*
X-11299Y-1706D01*
X-11299Y-2494D01*
X-11337Y-2402D01*
X-11407Y-2331D01*
X-11499Y-2293D01*
X-11598Y-2293D01*
X-11800Y-2293D01*
X-11800Y-1943D01*
X-11800Y-1127D01*
X-11800Y-1027D01*
X-11800Y-210D01*
X-11862Y-148D01*
X-12000Y-147D01*
X-12092Y-185D01*
X-12162Y-256D01*
X-12200Y-348D01*
X-12200Y-447D01*
X-12200Y-964D01*
X-12138Y-1027D01*
X-11800Y-1027D01*
X-11800Y-1127D01*
X-12138Y-1127D01*
X-12200Y-1189D01*
X-12200Y-1706D01*
X-12200Y-1806D01*
X-12162Y-1898D01*
X-12092Y-1968D01*
X-12000Y-2006D01*
X-11862Y-2006D01*
X-11800Y-1943D01*
X-11800Y-2293D01*
X-12000Y-2293D01*
X-12092Y-2331D01*
X-12162Y-2401D01*
X-12200Y-2493D01*
X-12200Y-2593D01*
X-12200Y-3835D01*
X-12299Y-3835D01*
X-12299Y-2494D01*
X-12337Y-2402D01*
X-12407Y-2331D01*
X-12499Y-2293D01*
X-12505Y-2293D01*
X-12505Y-2245D01*
X-12482Y-2210D01*
X-12460Y-2100D01*
X-12460Y-2100D01*
X-12460Y-2100D01*
X-12460Y-1989D01*
X-12407Y-1968D01*
X-12337Y-1898D01*
X-12299Y-1806D01*
X-12299Y-1706D01*
X-12299Y-348D01*
X-12337Y-256D01*
X-12407Y-186D01*
X-12499Y-148D01*
X-12598Y-147D01*
X-12887Y-147D01*
X-12879Y-140D01*
X-12537Y-140D01*
X-12426Y-117D01*
X-12331Y-55D01*
X-12032Y244D01*
X-11836Y243D01*
X-11650Y320D01*
X-11508Y463D01*
X-11452Y596D01*
X-11397Y463D01*
X-11255Y321D01*
X-11100Y256D01*
X-11100Y-3370D01*
X-10270Y-4200D01*
X-9800Y-4200D01*
X-9800Y-4560D01*
G54D10*
G36*
X-9329Y-8911D02*
X-9463Y-8911D01*
X-9526Y-8973D01*
X-9526Y-9210D01*
X-9512Y-9242D01*
X-9670Y-9400D01*
X-10070Y-9400D01*
X-10204Y-9533D01*
X-10262Y-9475D01*
X-10625Y-9475D01*
X-10625Y-9737D01*
X-10562Y-9800D01*
X-10499Y-9800D01*
X-10470Y-9800D01*
X-10725Y-10054D01*
X-10725Y-9737D01*
X-10725Y-9475D01*
X-10912Y-9475D01*
X-11087Y-9475D01*
X-11275Y-9475D01*
X-11275Y-9737D01*
X-11212Y-9800D01*
X-11149Y-9800D01*
X-11050Y-9799D01*
X-11000Y-9779D01*
X-10949Y-9799D01*
X-10850Y-9800D01*
X-10787Y-9800D01*
X-10725Y-9737D01*
X-10725Y-10054D01*
X-11040Y-10369D01*
X-11039Y-10236D01*
X-11096Y-10100D01*
X-11200Y-9996D01*
X-11336Y-9940D01*
X-11369Y-9940D01*
X-11375Y-9934D01*
X-11375Y-9737D01*
X-11375Y-9475D01*
X-11737Y-9475D01*
X-11800Y-9537D01*
X-11800Y-9599D01*
X-11762Y-9691D01*
X-11691Y-9761D01*
X-11599Y-9799D01*
X-11500Y-9800D01*
X-11437Y-9800D01*
X-11375Y-9737D01*
X-11375Y-9934D01*
X-11424Y-9884D01*
X-11519Y-9822D01*
X-11630Y-9800D01*
X-12020Y-9800D01*
X-12020Y-9190D01*
X-12020Y-9189D01*
X-12020Y-9189D01*
X-12042Y-9079D01*
X-12104Y-8984D01*
X-12104Y-8984D01*
X-12344Y-8745D01*
X-12325Y-8699D01*
X-12324Y-8600D01*
X-12324Y-8510D01*
X-11713Y-8510D01*
X-11761Y-8558D01*
X-11799Y-8650D01*
X-11800Y-8749D01*
X-11800Y-8999D01*
X-11762Y-9091D01*
X-11728Y-9125D01*
X-11762Y-9158D01*
X-11800Y-9250D01*
X-11800Y-9312D01*
X-11737Y-9375D01*
X-11375Y-9375D01*
X-11375Y-9367D01*
X-11275Y-9367D01*
X-11275Y-9375D01*
X-11087Y-9375D01*
X-10912Y-9375D01*
X-10725Y-9375D01*
X-10725Y-9367D01*
X-10625Y-9367D01*
X-10625Y-9375D01*
X-10262Y-9375D01*
X-10200Y-9312D01*
X-10199Y-9250D01*
X-10237Y-9158D01*
X-10271Y-9125D01*
X-10261Y-9115D01*
X-10156Y-9115D01*
X-10023Y-9169D01*
X-9876Y-9170D01*
X-9740Y-9113D01*
X-9636Y-9009D01*
X-9580Y-8873D01*
X-9579Y-8726D01*
X-9636Y-8590D01*
X-9740Y-8486D01*
X-9876Y-8430D01*
X-10023Y-8429D01*
X-10159Y-8486D01*
X-10208Y-8535D01*
X-10261Y-8535D01*
X-10308Y-8488D01*
X-10385Y-8456D01*
X-10385Y-8325D01*
X-10375Y-8325D01*
X-9775Y-8325D01*
X-9753Y-8316D01*
X-9444Y-8316D01*
X-9412Y-8347D01*
X-9417Y-8349D01*
X-9488Y-8419D01*
X-9526Y-8511D01*
X-9526Y-8748D01*
X-9463Y-8811D01*
X-9329Y-8811D01*
X-9329Y-8911D01*
X-9329Y-8911D01*
G37*
G54D37*
X-9329Y-8911D02*
X-9463Y-8911D01*
X-9526Y-8973D01*
X-9526Y-9210D01*
X-9512Y-9242D01*
X-9670Y-9400D01*
X-10070Y-9400D01*
X-10204Y-9533D01*
X-10262Y-9475D01*
X-10625Y-9475D01*
X-10625Y-9737D01*
X-10562Y-9800D01*
X-10499Y-9800D01*
X-10470Y-9800D01*
X-10725Y-10054D01*
X-10725Y-9737D01*
X-10725Y-9475D01*
X-10912Y-9475D01*
X-11087Y-9475D01*
X-11275Y-9475D01*
X-11275Y-9737D01*
X-11212Y-9800D01*
X-11149Y-9800D01*
X-11050Y-9799D01*
X-11000Y-9779D01*
X-10949Y-9799D01*
X-10850Y-9800D01*
X-10787Y-9800D01*
X-10725Y-9737D01*
X-10725Y-10054D01*
X-11040Y-10369D01*
X-11039Y-10236D01*
X-11096Y-10100D01*
X-11200Y-9996D01*
X-11336Y-9940D01*
X-11369Y-9940D01*
X-11375Y-9934D01*
X-11375Y-9737D01*
X-11375Y-9475D01*
X-11737Y-9475D01*
X-11800Y-9537D01*
X-11800Y-9599D01*
X-11762Y-9691D01*
X-11691Y-9761D01*
X-11599Y-9799D01*
X-11500Y-9800D01*
X-11437Y-9800D01*
X-11375Y-9737D01*
X-11375Y-9934D01*
X-11424Y-9884D01*
X-11519Y-9822D01*
X-11630Y-9800D01*
X-12020Y-9800D01*
X-12020Y-9190D01*
X-12020Y-9189D01*
X-12020Y-9189D01*
X-12042Y-9079D01*
X-12104Y-8984D01*
X-12104Y-8984D01*
X-12344Y-8745D01*
X-12325Y-8699D01*
X-12324Y-8600D01*
X-12324Y-8510D01*
X-11713Y-8510D01*
X-11761Y-8558D01*
X-11799Y-8650D01*
X-11800Y-8749D01*
X-11800Y-8999D01*
X-11762Y-9091D01*
X-11728Y-9125D01*
X-11762Y-9158D01*
X-11800Y-9250D01*
X-11800Y-9312D01*
X-11737Y-9375D01*
X-11375Y-9375D01*
X-11375Y-9367D01*
X-11275Y-9367D01*
X-11275Y-9375D01*
X-11087Y-9375D01*
X-10912Y-9375D01*
X-10725Y-9375D01*
X-10725Y-9367D01*
X-10625Y-9367D01*
X-10625Y-9375D01*
X-10262Y-9375D01*
X-10200Y-9312D01*
X-10199Y-9250D01*
X-10237Y-9158D01*
X-10271Y-9125D01*
X-10261Y-9115D01*
X-10156Y-9115D01*
X-10023Y-9169D01*
X-9876Y-9170D01*
X-9740Y-9113D01*
X-9636Y-9009D01*
X-9580Y-8873D01*
X-9579Y-8726D01*
X-9636Y-8590D01*
X-9740Y-8486D01*
X-9876Y-8430D01*
X-10023Y-8429D01*
X-10159Y-8486D01*
X-10208Y-8535D01*
X-10261Y-8535D01*
X-10308Y-8488D01*
X-10385Y-8456D01*
X-10385Y-8325D01*
X-10375Y-8325D01*
X-9775Y-8325D01*
X-9753Y-8316D01*
X-9444Y-8316D01*
X-9412Y-8347D01*
X-9417Y-8349D01*
X-9488Y-8419D01*
X-9526Y-8511D01*
X-9526Y-8748D01*
X-9463Y-8811D01*
X-9329Y-8811D01*
X-9329Y-8911D01*
G54D10*
G36*
X-9140Y-5979D02*
X-9173Y-5979D01*
X-9309Y-6036D01*
X-9413Y-6140D01*
X-9422Y-6161D01*
X-9574Y-6161D01*
X-9574Y-6155D01*
X-9574Y-6155D01*
X-9574Y-6155D01*
X-9575Y-6144D01*
X-9583Y-6135D01*
X-9594Y-6107D01*
X-9575Y-6107D01*
X-9575Y-6069D01*
X-9573Y-6069D01*
X-9426Y-6070D01*
X-9290Y-6013D01*
X-9198Y-5921D01*
X-9140Y-5979D01*
X-9140Y-5979D01*
G37*
G54D37*
X-9140Y-5979D02*
X-9173Y-5979D01*
X-9309Y-6036D01*
X-9413Y-6140D01*
X-9422Y-6161D01*
X-9574Y-6161D01*
X-9574Y-6155D01*
X-9574Y-6155D01*
X-9574Y-6155D01*
X-9575Y-6144D01*
X-9583Y-6135D01*
X-9594Y-6107D01*
X-9575Y-6107D01*
X-9575Y-6069D01*
X-9573Y-6069D01*
X-9426Y-6070D01*
X-9290Y-6013D01*
X-9198Y-5921D01*
X-9140Y-5979D01*
G54D10*
G36*
X-6250Y-8310D02*
X-6277Y-8310D01*
X-6375Y-8310D01*
X-6375Y-8311D01*
X-6474Y-8310D01*
X-6572Y-8310D01*
X-6572Y-8311D01*
X-6670Y-8310D01*
X-6768Y-8310D01*
X-6768Y-8311D01*
X-6867Y-8310D01*
X-6965Y-8310D01*
X-6965Y-8311D01*
X-6970Y-8311D01*
X-6970Y-8096D01*
X-6940Y-8023D01*
X-6939Y-7876D01*
X-6996Y-7740D01*
X-7100Y-7636D01*
X-7236Y-7580D01*
X-7383Y-7579D01*
X-7519Y-7636D01*
X-7623Y-7740D01*
X-7679Y-7876D01*
X-7680Y-8023D01*
X-7664Y-8060D01*
X-7889Y-8060D01*
X-7800Y-7970D01*
X-7800Y-5400D01*
X-8100Y-5400D01*
X-8100Y-7829D01*
X-8346Y-8075D01*
X-8346Y-7437D01*
X-8330Y-7398D01*
X-8329Y-7251D01*
X-8386Y-7115D01*
X-8490Y-7011D01*
X-8626Y-6955D01*
X-8773Y-6954D01*
X-8909Y-7011D01*
X-9013Y-7115D01*
X-9069Y-7251D01*
X-9070Y-7398D01*
X-9013Y-7534D01*
X-8926Y-7622D01*
X-8926Y-8013D01*
X-9118Y-7820D01*
X-9213Y-7758D01*
X-9324Y-7736D01*
X-9574Y-7736D01*
X-9574Y-7730D01*
X-9574Y-7730D01*
X-9574Y-7730D01*
X-9575Y-7719D01*
X-9583Y-7710D01*
X-9612Y-7638D01*
X-9619Y-7632D01*
X-9612Y-7625D01*
X-9583Y-7553D01*
X-9575Y-7545D01*
X-9574Y-7533D01*
X-9574Y-7533D01*
X-9574Y-7533D01*
X-9574Y-7533D01*
X-9574Y-7533D01*
X-9575Y-7522D01*
X-9583Y-7513D01*
X-9612Y-7441D01*
X-9619Y-7435D01*
X-9612Y-7428D01*
X-9583Y-7356D01*
X-9575Y-7348D01*
X-9574Y-7336D01*
X-9574Y-7336D01*
X-9574Y-7336D01*
X-9574Y-7336D01*
X-9574Y-7336D01*
X-9575Y-7325D01*
X-9583Y-7316D01*
X-9612Y-7244D01*
X-9618Y-7238D01*
X-9613Y-7232D01*
X-9582Y-7158D01*
X-9575Y-7151D01*
X-9574Y-7139D01*
X-9575Y-7139D01*
X-9574Y-7041D01*
X-9574Y-6943D01*
X-9574Y-6943D01*
X-9574Y-6943D01*
X-9574Y-6938D01*
X-8873Y-6938D01*
X-8762Y-6915D01*
X-8667Y-6853D01*
X-8244Y-6430D01*
X-8182Y-6335D01*
X-8160Y-6225D01*
X-8160Y-5900D01*
X-8182Y-5789D01*
X-8244Y-5694D01*
X-8244Y-5694D01*
X-9214Y-4725D01*
X-9128Y-4725D01*
X-9128Y-4724D01*
X-9116Y-4724D01*
X-9108Y-4716D01*
X-9067Y-4700D01*
X-8992Y-4700D01*
X-8950Y-4717D01*
X-8943Y-4724D01*
X-8931Y-4724D01*
X-8832Y-4725D01*
X-8734Y-4725D01*
X-8734Y-4724D01*
X-8635Y-4725D01*
X-8537Y-4725D01*
X-8537Y-4724D01*
X-8438Y-4725D01*
X-8340Y-4725D01*
X-8340Y-4724D01*
X-8242Y-4725D01*
X-8200Y-4725D01*
X-8200Y-5100D01*
X-7900Y-5100D01*
X-7900Y-4940D01*
X-7866Y-4962D01*
X-7755Y-4984D01*
X-7458Y-4984D01*
X-7463Y-4990D01*
X-7519Y-5126D01*
X-7520Y-5273D01*
X-7463Y-5409D01*
X-7359Y-5513D01*
X-7223Y-5569D01*
X-7076Y-5570D01*
X-6940Y-5513D01*
X-6836Y-5409D01*
X-6780Y-5273D01*
X-6779Y-5126D01*
X-6836Y-4990D01*
X-6871Y-4954D01*
X-6789Y-4899D01*
X-6761Y-4871D01*
X-6761Y-4964D01*
X-6769Y-4986D01*
X-6770Y-5113D01*
X-6721Y-5231D01*
X-6631Y-5321D01*
X-6513Y-5369D01*
X-6386Y-5370D01*
X-6268Y-5321D01*
X-6250Y-5302D01*
X-6250Y-6150D01*
X-6250Y-6450D01*
X-6250Y-6451D01*
X-6250Y-6845D01*
X-6250Y-6850D01*
X-6250Y-7238D01*
X-6250Y-7250D01*
X-6250Y-7632D01*
X-6250Y-7650D01*
X-6250Y-7950D01*
X-6250Y-8310D01*
X-6250Y-8310D01*
G37*
G54D37*
X-6250Y-8310D02*
X-6277Y-8310D01*
X-6375Y-8310D01*
X-6375Y-8311D01*
X-6474Y-8310D01*
X-6572Y-8310D01*
X-6572Y-8311D01*
X-6670Y-8310D01*
X-6768Y-8310D01*
X-6768Y-8311D01*
X-6867Y-8310D01*
X-6965Y-8310D01*
X-6965Y-8311D01*
X-6970Y-8311D01*
X-6970Y-8096D01*
X-6940Y-8023D01*
X-6939Y-7876D01*
X-6996Y-7740D01*
X-7100Y-7636D01*
X-7236Y-7580D01*
X-7383Y-7579D01*
X-7519Y-7636D01*
X-7623Y-7740D01*
X-7679Y-7876D01*
X-7680Y-8023D01*
X-7664Y-8060D01*
X-7889Y-8060D01*
X-7800Y-7970D01*
X-7800Y-5400D01*
X-8100Y-5400D01*
X-8100Y-7829D01*
X-8346Y-8075D01*
X-8346Y-7437D01*
X-8330Y-7398D01*
X-8329Y-7251D01*
X-8386Y-7115D01*
X-8490Y-7011D01*
X-8626Y-6955D01*
X-8773Y-6954D01*
X-8909Y-7011D01*
X-9013Y-7115D01*
X-9069Y-7251D01*
X-9070Y-7398D01*
X-9013Y-7534D01*
X-8926Y-7622D01*
X-8926Y-8013D01*
X-9118Y-7820D01*
X-9213Y-7758D01*
X-9324Y-7736D01*
X-9574Y-7736D01*
X-9574Y-7730D01*
X-9574Y-7730D01*
X-9574Y-7730D01*
X-9575Y-7719D01*
X-9583Y-7710D01*
X-9612Y-7638D01*
X-9619Y-7632D01*
X-9612Y-7625D01*
X-9583Y-7553D01*
X-9575Y-7545D01*
X-9574Y-7533D01*
X-9574Y-7533D01*
X-9574Y-7533D01*
X-9574Y-7533D01*
X-9574Y-7533D01*
X-9575Y-7522D01*
X-9583Y-7513D01*
X-9612Y-7441D01*
X-9619Y-7435D01*
X-9612Y-7428D01*
X-9583Y-7356D01*
X-9575Y-7348D01*
X-9574Y-7336D01*
X-9574Y-7336D01*
X-9574Y-7336D01*
X-9574Y-7336D01*
X-9574Y-7336D01*
X-9575Y-7325D01*
X-9583Y-7316D01*
X-9612Y-7244D01*
X-9618Y-7238D01*
X-9613Y-7232D01*
X-9582Y-7158D01*
X-9575Y-7151D01*
X-9574Y-7139D01*
X-9575Y-7139D01*
X-9574Y-7041D01*
X-9574Y-6943D01*
X-9574Y-6943D01*
X-9574Y-6943D01*
X-9574Y-6938D01*
X-8873Y-6938D01*
X-8762Y-6915D01*
X-8667Y-6853D01*
X-8244Y-6430D01*
X-8182Y-6335D01*
X-8160Y-6225D01*
X-8160Y-5900D01*
X-8182Y-5789D01*
X-8244Y-5694D01*
X-8244Y-5694D01*
X-9214Y-4725D01*
X-9128Y-4725D01*
X-9128Y-4724D01*
X-9116Y-4724D01*
X-9108Y-4716D01*
X-9067Y-4700D01*
X-8992Y-4700D01*
X-8950Y-4717D01*
X-8943Y-4724D01*
X-8931Y-4724D01*
X-8832Y-4725D01*
X-8734Y-4725D01*
X-8734Y-4724D01*
X-8635Y-4725D01*
X-8537Y-4725D01*
X-8537Y-4724D01*
X-8438Y-4725D01*
X-8340Y-4725D01*
X-8340Y-4724D01*
X-8242Y-4725D01*
X-8200Y-4725D01*
X-8200Y-5100D01*
X-7900Y-5100D01*
X-7900Y-4940D01*
X-7866Y-4962D01*
X-7755Y-4984D01*
X-7458Y-4984D01*
X-7463Y-4990D01*
X-7519Y-5126D01*
X-7520Y-5273D01*
X-7463Y-5409D01*
X-7359Y-5513D01*
X-7223Y-5569D01*
X-7076Y-5570D01*
X-6940Y-5513D01*
X-6836Y-5409D01*
X-6780Y-5273D01*
X-6779Y-5126D01*
X-6836Y-4990D01*
X-6871Y-4954D01*
X-6789Y-4899D01*
X-6761Y-4871D01*
X-6761Y-4964D01*
X-6769Y-4986D01*
X-6770Y-5113D01*
X-6721Y-5231D01*
X-6631Y-5321D01*
X-6513Y-5369D01*
X-6386Y-5370D01*
X-6268Y-5321D01*
X-6250Y-5302D01*
X-6250Y-6150D01*
X-6250Y-6450D01*
X-6250Y-6451D01*
X-6250Y-6845D01*
X-6250Y-6850D01*
X-6250Y-7238D01*
X-6250Y-7250D01*
X-6250Y-7632D01*
X-6250Y-7650D01*
X-6250Y-7950D01*
X-6250Y-8310D01*
G54D10*
G36*
X-6240Y-12057D02*
X-6300Y-12057D01*
X-6300Y-12050D01*
X-6307Y-12050D01*
X-6307Y-11950D01*
X-6300Y-11950D01*
X-6300Y-11942D01*
X-6240Y-11942D01*
X-6240Y-12057D01*
X-6240Y-12057D01*
G37*
G54D37*
X-6240Y-12057D02*
X-6300Y-12057D01*
X-6300Y-12050D01*
X-6307Y-12050D01*
X-6307Y-11950D01*
X-6300Y-11950D01*
X-6300Y-11942D01*
X-6240Y-11942D01*
X-6240Y-12057D01*
G54D10*
G36*
X-940Y-13329D02*
X-1170Y-13560D01*
X-1531Y-13560D01*
X-1535Y-13550D01*
X-1525Y-13524D01*
X-1524Y-13425D01*
X-1525Y-13362D01*
X-1587Y-13300D01*
X-1850Y-13300D01*
X-1850Y-13307D01*
X-1950Y-13307D01*
X-1950Y-13300D01*
X-1957Y-13300D01*
X-1957Y-13200D01*
X-1950Y-13200D01*
X-1950Y-13192D01*
X-1850Y-13192D01*
X-1850Y-13200D01*
X-1587Y-13200D01*
X-1525Y-13137D01*
X-1524Y-13074D01*
X-1525Y-12975D01*
X-1535Y-12950D01*
X-1531Y-12940D01*
X-950Y-12940D01*
X-940Y-12938D01*
X-940Y-13329D01*
X-940Y-13329D01*
G37*
G54D37*
X-940Y-13329D02*
X-1170Y-13560D01*
X-1531Y-13560D01*
X-1535Y-13550D01*
X-1525Y-13524D01*
X-1524Y-13425D01*
X-1525Y-13362D01*
X-1587Y-13300D01*
X-1850Y-13300D01*
X-1850Y-13307D01*
X-1950Y-13307D01*
X-1950Y-13300D01*
X-1957Y-13300D01*
X-1957Y-13200D01*
X-1950Y-13200D01*
X-1950Y-13192D01*
X-1850Y-13192D01*
X-1850Y-13200D01*
X-1587Y-13200D01*
X-1525Y-13137D01*
X-1524Y-13074D01*
X-1525Y-12975D01*
X-1535Y-12950D01*
X-1531Y-12940D01*
X-950Y-12940D01*
X-940Y-12938D01*
X-940Y-13329D01*
G54D10*
G36*
X89Y-10570D02*
X69Y-10670D01*
X-655Y-11394D01*
X-717Y-11489D01*
X-740Y-11600D01*
X-740Y-12029D01*
X-1070Y-12360D01*
X-1531Y-12360D01*
X-1535Y-12350D01*
X-1525Y-12324D01*
X-1524Y-12225D01*
X-1525Y-12162D01*
X-1587Y-12100D01*
X-1850Y-12100D01*
X-1850Y-12107D01*
X-1950Y-12107D01*
X-1950Y-12100D01*
X-1957Y-12100D01*
X-1957Y-12000D01*
X-1950Y-12000D01*
X-1950Y-11992D01*
X-1850Y-11992D01*
X-1850Y-12000D01*
X-1587Y-12000D01*
X-1525Y-11937D01*
X-1524Y-11874D01*
X-1525Y-11775D01*
X-1535Y-11750D01*
X-1531Y-11740D01*
X-1200Y-11740D01*
X-1089Y-11717D01*
X-994Y-11655D01*
X89Y-10570D01*
X89Y-10570D01*
G37*
G54D37*
X89Y-10570D02*
X69Y-10670D01*
X-655Y-11394D01*
X-717Y-11489D01*
X-740Y-11600D01*
X-740Y-12029D01*
X-1070Y-12360D01*
X-1531Y-12360D01*
X-1535Y-12350D01*
X-1525Y-12324D01*
X-1524Y-12225D01*
X-1525Y-12162D01*
X-1587Y-12100D01*
X-1850Y-12100D01*
X-1850Y-12107D01*
X-1950Y-12107D01*
X-1950Y-12100D01*
X-1957Y-12100D01*
X-1957Y-12000D01*
X-1950Y-12000D01*
X-1950Y-11992D01*
X-1850Y-11992D01*
X-1850Y-12000D01*
X-1587Y-12000D01*
X-1525Y-11937D01*
X-1524Y-11874D01*
X-1525Y-11775D01*
X-1535Y-11750D01*
X-1531Y-11740D01*
X-1200Y-11740D01*
X-1089Y-11717D01*
X-994Y-11655D01*
X89Y-10570D01*
G54D10*
G36*
X145Y-9464D02*
X95Y-9539D01*
X53Y-9750D01*
X59Y-9780D01*
X-1320Y-11160D01*
X-1531Y-11160D01*
X-1535Y-11150D01*
X-1525Y-11124D01*
X-1524Y-11025D01*
X-1525Y-10962D01*
X-1587Y-10900D01*
X-1850Y-10900D01*
X-1850Y-10907D01*
X-1950Y-10907D01*
X-1950Y-10900D01*
X-1957Y-10900D01*
X-1957Y-10800D01*
X-1950Y-10800D01*
X-1950Y-10792D01*
X-1850Y-10792D01*
X-1850Y-10800D01*
X-1587Y-10800D01*
X-1525Y-10737D01*
X-1524Y-10674D01*
X-1525Y-10575D01*
X-1535Y-10550D01*
X-1531Y-10540D01*
X-1050Y-10540D01*
X-939Y-10517D01*
X-844Y-10455D01*
X145Y-9464D01*
X145Y-9464D01*
G37*
G54D37*
X145Y-9464D02*
X95Y-9539D01*
X53Y-9750D01*
X59Y-9780D01*
X-1320Y-11160D01*
X-1531Y-11160D01*
X-1535Y-11150D01*
X-1525Y-11124D01*
X-1524Y-11025D01*
X-1525Y-10962D01*
X-1587Y-10900D01*
X-1850Y-10900D01*
X-1850Y-10907D01*
X-1950Y-10907D01*
X-1950Y-10900D01*
X-1957Y-10900D01*
X-1957Y-10800D01*
X-1950Y-10800D01*
X-1950Y-10792D01*
X-1850Y-10792D01*
X-1850Y-10800D01*
X-1587Y-10800D01*
X-1525Y-10737D01*
X-1524Y-10674D01*
X-1525Y-10575D01*
X-1535Y-10550D01*
X-1531Y-10540D01*
X-1050Y-10540D01*
X-939Y-10517D01*
X-844Y-10455D01*
X145Y-9464D01*
G54D10*
G36*
X306Y-2299D02*
X214Y-2361D01*
X148Y-2460D01*
X-950Y-2460D01*
X-950Y-2460D01*
X-1060Y-2482D01*
X-1155Y-2544D01*
X-1155Y-2544D01*
X-1370Y-2760D01*
X-1531Y-2760D01*
X-1535Y-2750D01*
X-1525Y-2724D01*
X-1524Y-2625D01*
X-1524Y-2274D01*
X-1525Y-2175D01*
X-1535Y-2150D01*
X-1525Y-2124D01*
X-1524Y-2025D01*
X-1525Y-1962D01*
X-1587Y-1900D01*
X-1850Y-1900D01*
X-1850Y-2037D01*
X-1850Y-2262D01*
X-1850Y-2400D01*
X-1587Y-2400D01*
X-1525Y-2337D01*
X-1524Y-2274D01*
X-1524Y-2625D01*
X-1525Y-2562D01*
X-1587Y-2500D01*
X-1850Y-2500D01*
X-1850Y-2507D01*
X-1950Y-2507D01*
X-1950Y-2500D01*
X-1957Y-2500D01*
X-1957Y-2400D01*
X-1950Y-2400D01*
X-1950Y-2262D01*
X-1950Y-2037D01*
X-1950Y-1900D01*
X-1957Y-1900D01*
X-1957Y-1800D01*
X-1950Y-1800D01*
X-1950Y-1792D01*
X-1850Y-1792D01*
X-1850Y-1800D01*
X-1587Y-1800D01*
X-1525Y-1737D01*
X-1524Y-1674D01*
X-1525Y-1585D01*
X-1155Y-1955D01*
X-1060Y-2017D01*
X-950Y-2040D01*
X66Y-2040D01*
X66Y-2099D01*
X104Y-2191D01*
X175Y-2261D01*
X267Y-2299D01*
X306Y-2299D01*
X306Y-2299D01*
G37*
G54D37*
X306Y-2299D02*
X214Y-2361D01*
X148Y-2460D01*
X-950Y-2460D01*
X-950Y-2460D01*
X-1060Y-2482D01*
X-1155Y-2544D01*
X-1155Y-2544D01*
X-1370Y-2760D01*
X-1531Y-2760D01*
X-1535Y-2750D01*
X-1525Y-2724D01*
X-1524Y-2625D01*
X-1524Y-2274D01*
X-1525Y-2175D01*
X-1535Y-2150D01*
X-1525Y-2124D01*
X-1524Y-2025D01*
X-1525Y-1962D01*
X-1587Y-1900D01*
X-1850Y-1900D01*
X-1850Y-2037D01*
X-1850Y-2262D01*
X-1850Y-2400D01*
X-1587Y-2400D01*
X-1525Y-2337D01*
X-1524Y-2274D01*
X-1524Y-2625D01*
X-1525Y-2562D01*
X-1587Y-2500D01*
X-1850Y-2500D01*
X-1850Y-2507D01*
X-1950Y-2507D01*
X-1950Y-2500D01*
X-1957Y-2500D01*
X-1957Y-2400D01*
X-1950Y-2400D01*
X-1950Y-2262D01*
X-1950Y-2037D01*
X-1950Y-1900D01*
X-1957Y-1900D01*
X-1957Y-1800D01*
X-1950Y-1800D01*
X-1950Y-1792D01*
X-1850Y-1792D01*
X-1850Y-1800D01*
X-1587Y-1800D01*
X-1525Y-1737D01*
X-1524Y-1674D01*
X-1525Y-1585D01*
X-1155Y-1955D01*
X-1060Y-2017D01*
X-950Y-2040D01*
X66Y-2040D01*
X66Y-2099D01*
X104Y-2191D01*
X175Y-2261D01*
X267Y-2299D01*
X306Y-2299D01*
G54D10*
G36*
X380Y-4250D02*
X214Y-4361D01*
X148Y-4460D01*
X-300Y-4460D01*
X-300Y-4460D01*
X-410Y-4482D01*
X-505Y-4544D01*
X-505Y-4544D01*
X-1120Y-5160D01*
X-1531Y-5160D01*
X-1535Y-5150D01*
X-1525Y-5124D01*
X-1524Y-5025D01*
X-1524Y-4674D01*
X-1525Y-4575D01*
X-1535Y-4550D01*
X-1525Y-4524D01*
X-1524Y-4425D01*
X-1525Y-4362D01*
X-1587Y-4300D01*
X-1850Y-4300D01*
X-1850Y-4437D01*
X-1850Y-4662D01*
X-1850Y-4800D01*
X-1587Y-4800D01*
X-1525Y-4737D01*
X-1524Y-4674D01*
X-1524Y-5025D01*
X-1525Y-4962D01*
X-1587Y-4900D01*
X-1850Y-4900D01*
X-1850Y-4907D01*
X-1950Y-4907D01*
X-1950Y-4900D01*
X-1957Y-4900D01*
X-1957Y-4800D01*
X-1950Y-4800D01*
X-1950Y-4662D01*
X-1950Y-4437D01*
X-1950Y-4300D01*
X-1957Y-4300D01*
X-1957Y-4200D01*
X-1950Y-4200D01*
X-1950Y-4192D01*
X-1850Y-4192D01*
X-1850Y-4200D01*
X-1587Y-4200D01*
X-1525Y-4137D01*
X-1524Y-4074D01*
X-1525Y-3975D01*
X-1535Y-3950D01*
X-1531Y-3940D01*
X-1320Y-3940D01*
X-1305Y-3955D01*
X-1210Y-4017D01*
X-1100Y-4040D01*
X148Y-4040D01*
X214Y-4138D01*
X380Y-4250D01*
X380Y-4250D01*
G37*
G54D37*
X380Y-4250D02*
X214Y-4361D01*
X148Y-4460D01*
X-300Y-4460D01*
X-300Y-4460D01*
X-410Y-4482D01*
X-505Y-4544D01*
X-505Y-4544D01*
X-1120Y-5160D01*
X-1531Y-5160D01*
X-1535Y-5150D01*
X-1525Y-5124D01*
X-1524Y-5025D01*
X-1524Y-4674D01*
X-1525Y-4575D01*
X-1535Y-4550D01*
X-1525Y-4524D01*
X-1524Y-4425D01*
X-1525Y-4362D01*
X-1587Y-4300D01*
X-1850Y-4300D01*
X-1850Y-4437D01*
X-1850Y-4662D01*
X-1850Y-4800D01*
X-1587Y-4800D01*
X-1525Y-4737D01*
X-1524Y-4674D01*
X-1524Y-5025D01*
X-1525Y-4962D01*
X-1587Y-4900D01*
X-1850Y-4900D01*
X-1850Y-4907D01*
X-1950Y-4907D01*
X-1950Y-4900D01*
X-1957Y-4900D01*
X-1957Y-4800D01*
X-1950Y-4800D01*
X-1950Y-4662D01*
X-1950Y-4437D01*
X-1950Y-4300D01*
X-1957Y-4300D01*
X-1957Y-4200D01*
X-1950Y-4200D01*
X-1950Y-4192D01*
X-1850Y-4192D01*
X-1850Y-4200D01*
X-1587Y-4200D01*
X-1525Y-4137D01*
X-1524Y-4074D01*
X-1525Y-3975D01*
X-1535Y-3950D01*
X-1531Y-3940D01*
X-1320Y-3940D01*
X-1305Y-3955D01*
X-1210Y-4017D01*
X-1100Y-4040D01*
X148Y-4040D01*
X214Y-4138D01*
X380Y-4250D01*
G54D10*
G36*
X380Y-5250D02*
X214Y-5361D01*
X148Y-5460D01*
X-150Y-5460D01*
X-260Y-5482D01*
X-355Y-5544D01*
X-1170Y-6360D01*
X-1531Y-6360D01*
X-1535Y-6350D01*
X-1525Y-6324D01*
X-1524Y-6225D01*
X-1525Y-6162D01*
X-1587Y-6100D01*
X-1850Y-6100D01*
X-1850Y-6107D01*
X-1950Y-6107D01*
X-1950Y-6100D01*
X-1957Y-6100D01*
X-1957Y-6000D01*
X-1950Y-6000D01*
X-1950Y-5992D01*
X-1850Y-5992D01*
X-1850Y-6000D01*
X-1587Y-6000D01*
X-1525Y-5937D01*
X-1524Y-5874D01*
X-1525Y-5775D01*
X-1535Y-5750D01*
X-1531Y-5740D01*
X-1000Y-5740D01*
X-889Y-5717D01*
X-794Y-5655D01*
X-179Y-5040D01*
X148Y-5040D01*
X214Y-5138D01*
X380Y-5250D01*
X380Y-5250D01*
G37*
G54D37*
X380Y-5250D02*
X214Y-5361D01*
X148Y-5460D01*
X-150Y-5460D01*
X-260Y-5482D01*
X-355Y-5544D01*
X-1170Y-6360D01*
X-1531Y-6360D01*
X-1535Y-6350D01*
X-1525Y-6324D01*
X-1524Y-6225D01*
X-1525Y-6162D01*
X-1587Y-6100D01*
X-1850Y-6100D01*
X-1850Y-6107D01*
X-1950Y-6107D01*
X-1950Y-6100D01*
X-1957Y-6100D01*
X-1957Y-6000D01*
X-1950Y-6000D01*
X-1950Y-5992D01*
X-1850Y-5992D01*
X-1850Y-6000D01*
X-1587Y-6000D01*
X-1525Y-5937D01*
X-1524Y-5874D01*
X-1525Y-5775D01*
X-1535Y-5750D01*
X-1531Y-5740D01*
X-1000Y-5740D01*
X-889Y-5717D01*
X-794Y-5655D01*
X-179Y-5040D01*
X148Y-5040D01*
X214Y-5138D01*
X380Y-5250D01*
G54D10*
G36*
X380Y-6250D02*
X214Y-6361D01*
X148Y-6460D01*
X50Y-6460D01*
X-60Y-6482D01*
X-155Y-6544D01*
X-155Y-6544D01*
X-1170Y-7560D01*
X-1531Y-7560D01*
X-1535Y-7550D01*
X-1525Y-7524D01*
X-1524Y-7425D01*
X-1525Y-7362D01*
X-1587Y-7300D01*
X-1850Y-7300D01*
X-1850Y-7307D01*
X-1950Y-7307D01*
X-1950Y-7300D01*
X-1957Y-7300D01*
X-1957Y-7200D01*
X-1950Y-7200D01*
X-1950Y-7192D01*
X-1850Y-7192D01*
X-1850Y-7200D01*
X-1587Y-7200D01*
X-1525Y-7137D01*
X-1524Y-7074D01*
X-1525Y-6975D01*
X-1535Y-6950D01*
X-1531Y-6940D01*
X-1050Y-6940D01*
X-939Y-6917D01*
X-844Y-6855D01*
X-29Y-6040D01*
X148Y-6040D01*
X214Y-6138D01*
X380Y-6250D01*
X380Y-6250D01*
G37*
G54D37*
X380Y-6250D02*
X214Y-6361D01*
X148Y-6460D01*
X50Y-6460D01*
X-60Y-6482D01*
X-155Y-6544D01*
X-155Y-6544D01*
X-1170Y-7560D01*
X-1531Y-7560D01*
X-1535Y-7550D01*
X-1525Y-7524D01*
X-1524Y-7425D01*
X-1525Y-7362D01*
X-1587Y-7300D01*
X-1850Y-7300D01*
X-1850Y-7307D01*
X-1950Y-7307D01*
X-1950Y-7300D01*
X-1957Y-7300D01*
X-1957Y-7200D01*
X-1950Y-7200D01*
X-1950Y-7192D01*
X-1850Y-7192D01*
X-1850Y-7200D01*
X-1587Y-7200D01*
X-1525Y-7137D01*
X-1524Y-7074D01*
X-1525Y-6975D01*
X-1535Y-6950D01*
X-1531Y-6940D01*
X-1050Y-6940D01*
X-939Y-6917D01*
X-844Y-6855D01*
X-29Y-6040D01*
X148Y-6040D01*
X214Y-6138D01*
X380Y-6250D01*
G54D10*
G36*
X380Y-7250D02*
X214Y-7361D01*
X95Y-7539D01*
X81Y-7608D01*
X-1070Y-8760D01*
X-1531Y-8760D01*
X-1535Y-8750D01*
X-1525Y-8724D01*
X-1524Y-8625D01*
X-1525Y-8562D01*
X-1587Y-8500D01*
X-1850Y-8500D01*
X-1850Y-8507D01*
X-1950Y-8507D01*
X-1950Y-8500D01*
X-1957Y-8500D01*
X-1957Y-8400D01*
X-1950Y-8400D01*
X-1950Y-8392D01*
X-1850Y-8392D01*
X-1850Y-8400D01*
X-1587Y-8400D01*
X-1525Y-8337D01*
X-1524Y-8274D01*
X-1525Y-8175D01*
X-1535Y-8150D01*
X-1531Y-8140D01*
X-1050Y-8140D01*
X-939Y-8117D01*
X-844Y-8055D01*
X157Y-7052D01*
X214Y-7138D01*
X380Y-7250D01*
X380Y-7250D01*
G37*
G54D37*
X380Y-7250D02*
X214Y-7361D01*
X95Y-7539D01*
X81Y-7608D01*
X-1070Y-8760D01*
X-1531Y-8760D01*
X-1535Y-8750D01*
X-1525Y-8724D01*
X-1524Y-8625D01*
X-1525Y-8562D01*
X-1587Y-8500D01*
X-1850Y-8500D01*
X-1850Y-8507D01*
X-1950Y-8507D01*
X-1950Y-8500D01*
X-1957Y-8500D01*
X-1957Y-8400D01*
X-1950Y-8400D01*
X-1950Y-8392D01*
X-1850Y-8392D01*
X-1850Y-8400D01*
X-1587Y-8400D01*
X-1525Y-8337D01*
X-1524Y-8274D01*
X-1525Y-8175D01*
X-1535Y-8150D01*
X-1531Y-8140D01*
X-1050Y-8140D01*
X-939Y-8117D01*
X-844Y-8055D01*
X157Y-7052D01*
X214Y-7138D01*
X380Y-7250D01*
G54D10*
G36*
X380Y-8250D02*
X214Y-8361D01*
X95Y-8539D01*
X57Y-8732D01*
X-1170Y-9960D01*
X-1531Y-9960D01*
X-1535Y-9950D01*
X-1525Y-9924D01*
X-1524Y-9825D01*
X-1525Y-9762D01*
X-1587Y-9700D01*
X-1850Y-9700D01*
X-1850Y-9707D01*
X-1950Y-9707D01*
X-1950Y-9700D01*
X-1957Y-9700D01*
X-1957Y-9600D01*
X-1950Y-9600D01*
X-1950Y-9592D01*
X-1850Y-9592D01*
X-1850Y-9600D01*
X-1587Y-9600D01*
X-1525Y-9537D01*
X-1524Y-9474D01*
X-1525Y-9375D01*
X-1535Y-9350D01*
X-1531Y-9340D01*
X-950Y-9340D01*
X-839Y-9317D01*
X-744Y-9255D01*
X308Y-8201D01*
X380Y-8250D01*
X380Y-8250D01*
G37*
G54D37*
X380Y-8250D02*
X214Y-8361D01*
X95Y-8539D01*
X57Y-8732D01*
X-1170Y-9960D01*
X-1531Y-9960D01*
X-1535Y-9950D01*
X-1525Y-9924D01*
X-1524Y-9825D01*
X-1525Y-9762D01*
X-1587Y-9700D01*
X-1850Y-9700D01*
X-1850Y-9707D01*
X-1950Y-9707D01*
X-1950Y-9700D01*
X-1957Y-9700D01*
X-1957Y-9600D01*
X-1950Y-9600D01*
X-1950Y-9592D01*
X-1850Y-9592D01*
X-1850Y-9600D01*
X-1587Y-9600D01*
X-1525Y-9537D01*
X-1524Y-9474D01*
X-1525Y-9375D01*
X-1535Y-9350D01*
X-1531Y-9340D01*
X-950Y-9340D01*
X-839Y-9317D01*
X-744Y-9255D01*
X308Y-8201D01*
X380Y-8250D01*
G54D10*
G36*
X1500Y-15529D02*
X1416Y-15613D01*
X1416Y-14885D01*
X1367Y-14800D01*
X800Y-14800D01*
X800Y-15300D01*
X933Y-15300D01*
X1139Y-15238D01*
X1307Y-15103D01*
X1410Y-14914D01*
X1416Y-14885D01*
X1416Y-15613D01*
X1035Y-15994D01*
X975Y-15849D01*
X700Y-15573D01*
X652Y-15525D01*
X229Y-15350D01*
X-227Y-15349D01*
X-650Y-15524D01*
X-974Y-15847D01*
X-1149Y-16270D01*
X-1150Y-16727D01*
X-975Y-17150D01*
X-652Y-17474D01*
X-505Y-17535D01*
X-1489Y-18518D01*
X-1570Y-18600D01*
X-1621Y-18600D01*
X-1600Y-18578D01*
X-1645Y-18533D01*
X-1555Y-18511D01*
X-1489Y-18321D01*
X-1489Y-17321D01*
X-1500Y-17120D01*
X-1555Y-16988D01*
X-1645Y-16966D01*
X-1716Y-17037D01*
X-1716Y-16895D01*
X-1738Y-16805D01*
X-1928Y-16739D01*
X-2129Y-16750D01*
X-2261Y-16805D01*
X-2283Y-16895D01*
X-2000Y-17179D01*
X-1716Y-16895D01*
X-1716Y-17037D01*
X-1929Y-17250D01*
X-1645Y-17533D01*
X-1555Y-17511D01*
X-1489Y-17321D01*
X-1489Y-18321D01*
X-1500Y-18120D01*
X-1555Y-17988D01*
X-1645Y-17966D01*
X-1716Y-18037D01*
X-1716Y-17895D01*
X-1738Y-17805D01*
X-1895Y-17750D01*
X-1870Y-17749D01*
X-1738Y-17694D01*
X-1716Y-17604D01*
X-2000Y-17320D01*
X-2070Y-17391D01*
X-2070Y-17250D01*
X-2354Y-16966D01*
X-2444Y-16988D01*
X-2499Y-17145D01*
X-2500Y-17120D01*
X-2555Y-16988D01*
X-2645Y-16966D01*
X-2716Y-17037D01*
X-2716Y-16895D01*
X-2738Y-16805D01*
X-2928Y-16739D01*
X-3129Y-16750D01*
X-3261Y-16805D01*
X-3283Y-16895D01*
X-3000Y-17179D01*
X-2716Y-16895D01*
X-2716Y-17037D01*
X-2929Y-17250D01*
X-2645Y-17533D01*
X-2555Y-17511D01*
X-2500Y-17354D01*
X-2499Y-17379D01*
X-2444Y-17511D01*
X-2354Y-17533D01*
X-2070Y-17250D01*
X-2070Y-17391D01*
X-2283Y-17604D01*
X-2261Y-17694D01*
X-2104Y-17749D01*
X-2129Y-17750D01*
X-2261Y-17805D01*
X-2283Y-17895D01*
X-2000Y-18179D01*
X-1716Y-17895D01*
X-1716Y-18037D01*
X-1929Y-18250D01*
X-1923Y-18255D01*
X-1994Y-18326D01*
X-2000Y-18320D01*
X-2005Y-18326D01*
X-2070Y-18261D01*
X-2076Y-18255D01*
X-2070Y-18250D01*
X-2354Y-17966D01*
X-2444Y-17988D01*
X-2499Y-18145D01*
X-2500Y-18120D01*
X-2555Y-17988D01*
X-2645Y-17966D01*
X-2716Y-18037D01*
X-2716Y-17895D01*
X-2738Y-17805D01*
X-2895Y-17750D01*
X-2870Y-17749D01*
X-2738Y-17694D01*
X-2716Y-17604D01*
X-3000Y-17320D01*
X-3283Y-17604D01*
X-3261Y-17694D01*
X-3104Y-17749D01*
X-3129Y-17750D01*
X-3261Y-17805D01*
X-3283Y-17895D01*
X-3000Y-18179D01*
X-2716Y-17895D01*
X-2716Y-18037D01*
X-2929Y-18250D01*
X-2923Y-18255D01*
X-2994Y-18326D01*
X-3000Y-18320D01*
X-3005Y-18326D01*
X-3076Y-18255D01*
X-3070Y-18250D01*
X-3354Y-17966D01*
X-3444Y-17988D01*
X-3497Y-18140D01*
X-3500Y-18135D01*
X-3500Y-17368D01*
X-3499Y-17379D01*
X-3444Y-17511D01*
X-3354Y-17533D01*
X-3070Y-17250D01*
X-3354Y-16966D01*
X-3444Y-16988D01*
X-3497Y-17140D01*
X-3500Y-17135D01*
X-3500Y-16700D01*
X-5224Y-16700D01*
X-5224Y-14375D01*
X-5225Y-14312D01*
X-5287Y-14250D01*
X-5550Y-14250D01*
X-5550Y-14612D01*
X-5487Y-14675D01*
X-5425Y-14675D01*
X-5333Y-14637D01*
X-5263Y-14566D01*
X-5225Y-14474D01*
X-5224Y-14375D01*
X-5224Y-16700D01*
X-6000Y-16700D01*
X-6300Y-16700D01*
X-6300Y-14700D01*
X-5950Y-14700D01*
X-5950Y-14643D01*
X-5933Y-14637D01*
X-5900Y-14603D01*
X-5866Y-14637D01*
X-5774Y-14675D01*
X-5712Y-14675D01*
X-5650Y-14612D01*
X-5650Y-14250D01*
X-5657Y-14250D01*
X-5657Y-14150D01*
X-5650Y-14150D01*
X-5650Y-14142D01*
X-5550Y-14142D01*
X-5550Y-14150D01*
X-5287Y-14150D01*
X-5225Y-14087D01*
X-5224Y-14040D01*
X-4683Y-14040D01*
X-4659Y-14063D01*
X-4523Y-14119D01*
X-4376Y-14120D01*
X-4240Y-14063D01*
X-4136Y-13959D01*
X-4081Y-13828D01*
X-3990Y-13920D01*
X-3990Y-14225D01*
X-3967Y-14335D01*
X-3905Y-14430D01*
X-3080Y-15255D01*
X-3080Y-15255D01*
X-2985Y-15317D01*
X-2875Y-15340D01*
X-2868Y-15340D01*
X-2837Y-15416D01*
X-2766Y-15486D01*
X-2674Y-15524D01*
X-2575Y-15525D01*
X-2325Y-15525D01*
X-2233Y-15487D01*
X-2200Y-15453D01*
X-2166Y-15486D01*
X-2074Y-15524D01*
X-1975Y-15525D01*
X-1725Y-15525D01*
X-1633Y-15487D01*
X-1563Y-15416D01*
X-1535Y-15350D01*
X-600Y-15350D01*
X-600Y-15349D01*
X-485Y-15327D01*
X-485Y-15327D01*
X-387Y-15262D01*
X74Y-14800D01*
X132Y-14800D01*
X83Y-14885D01*
X89Y-14914D01*
X192Y-15103D01*
X360Y-15238D01*
X567Y-15300D01*
X700Y-15300D01*
X700Y-14800D01*
X692Y-14800D01*
X692Y-14700D01*
X700Y-14700D01*
X700Y-14692D01*
X800Y-14692D01*
X800Y-14700D01*
X1367Y-14700D01*
X1416Y-14614D01*
X1410Y-14585D01*
X1307Y-14396D01*
X1139Y-14261D01*
X1113Y-14253D01*
X1285Y-14138D01*
X1404Y-13960D01*
X1446Y-13750D01*
X1404Y-13539D01*
X1285Y-13361D01*
X1119Y-13250D01*
X1285Y-13138D01*
X1404Y-12960D01*
X1446Y-12750D01*
X1404Y-12539D01*
X1285Y-12361D01*
X1119Y-12250D01*
X1285Y-12138D01*
X1404Y-11960D01*
X1446Y-11750D01*
X1404Y-11539D01*
X1285Y-11361D01*
X1119Y-11250D01*
X1285Y-11138D01*
X1404Y-10960D01*
X1446Y-10750D01*
X1404Y-10539D01*
X1285Y-10361D01*
X1119Y-10250D01*
X1285Y-10138D01*
X1404Y-9960D01*
X1446Y-9750D01*
X1404Y-9539D01*
X1285Y-9361D01*
X1119Y-9250D01*
X1285Y-9138D01*
X1404Y-8960D01*
X1446Y-8750D01*
X1404Y-8539D01*
X1285Y-8361D01*
X1119Y-8250D01*
X1285Y-8138D01*
X1404Y-7960D01*
X1446Y-7750D01*
X1404Y-7539D01*
X1285Y-7361D01*
X1119Y-7250D01*
X1285Y-7138D01*
X1404Y-6960D01*
X1446Y-6750D01*
X1404Y-6539D01*
X1285Y-6361D01*
X1119Y-6250D01*
X1285Y-6138D01*
X1404Y-5960D01*
X1446Y-5750D01*
X1404Y-5539D01*
X1285Y-5361D01*
X1119Y-5250D01*
X1285Y-5138D01*
X1404Y-4960D01*
X1446Y-4750D01*
X1404Y-4539D01*
X1285Y-4361D01*
X1119Y-4250D01*
X1285Y-4138D01*
X1404Y-3960D01*
X1446Y-3750D01*
X1404Y-3539D01*
X1285Y-3361D01*
X1119Y-3250D01*
X1285Y-3138D01*
X1404Y-2960D01*
X1446Y-2750D01*
X1404Y-2539D01*
X1285Y-2361D01*
X1193Y-2300D01*
X1232Y-2300D01*
X1324Y-2262D01*
X1394Y-2191D01*
X1432Y-2099D01*
X1433Y-2000D01*
X1433Y-1400D01*
X1395Y-1308D01*
X1324Y-1238D01*
X1232Y-1200D01*
X1133Y-1199D01*
X267Y-1199D01*
X175Y-1237D01*
X105Y-1308D01*
X67Y-1400D01*
X66Y-1460D01*
X-829Y-1460D01*
X-1244Y-1044D01*
X-1339Y-982D01*
X-1450Y-960D01*
X-1531Y-960D01*
X-1562Y-883D01*
X-1633Y-813D01*
X-1725Y-775D01*
X-1824Y-774D01*
X-2074Y-774D01*
X-2166Y-812D01*
X-2199Y-846D01*
X-2233Y-813D01*
X-2325Y-775D01*
X-2424Y-774D01*
X-2674Y-774D01*
X-2766Y-812D01*
X-2836Y-883D01*
X-2868Y-960D01*
X-3150Y-960D01*
X-3260Y-982D01*
X-3355Y-1044D01*
X-5134Y-2824D01*
X-5266Y-2770D01*
X-5413Y-2769D01*
X-5414Y-2770D01*
X-5385Y-2699D01*
X-5385Y-2600D01*
X-5385Y-2350D01*
X-5423Y-2258D01*
X-5493Y-2187D01*
X-5530Y-2172D01*
X-5530Y-2096D01*
X-5500Y-2023D01*
X-5499Y-1876D01*
X-5556Y-1740D01*
X-5660Y-1636D01*
X-5796Y-1580D01*
X-5943Y-1579D01*
X-6079Y-1636D01*
X-6183Y-1740D01*
X-6212Y-1808D01*
X-6236Y-1750D01*
X-6340Y-1646D01*
X-6476Y-1590D01*
X-6623Y-1589D01*
X-6759Y-1646D01*
X-6863Y-1750D01*
X-6889Y-1813D01*
X-6916Y-1750D01*
X-7020Y-1646D01*
X-7156Y-1590D01*
X-7303Y-1589D01*
X-7439Y-1646D01*
X-7543Y-1750D01*
X-7599Y-1886D01*
X-7600Y-2033D01*
X-7597Y-2039D01*
X-7654Y-2062D01*
X-7695Y-2103D01*
X-7695Y-2074D01*
X-7720Y-1948D01*
X-7720Y-1948D01*
X-7792Y-1841D01*
X-8359Y-1273D01*
X-8359Y-1136D01*
X-8397Y-1044D01*
X-8468Y-974D01*
X-8559Y-935D01*
X-8620Y-935D01*
X-8619Y-846D01*
X-8676Y-710D01*
X-8780Y-606D01*
X-8916Y-550D01*
X-9063Y-549D01*
X-9199Y-606D01*
X-9303Y-710D01*
X-9359Y-846D01*
X-9360Y-935D01*
X-9459Y-935D01*
X-9551Y-973D01*
X-9621Y-1044D01*
X-9659Y-1135D01*
X-9659Y-1235D01*
X-9659Y-1343D01*
X-10036Y-1720D01*
X-10350Y-1720D01*
X-10476Y-1745D01*
X-10583Y-1816D01*
X-10724Y-1957D01*
X-10795Y-2064D01*
X-10800Y-2085D01*
X-10800Y200D01*
X-1149Y200D01*
X-1150Y-227D01*
X-975Y-650D01*
X-652Y-974D01*
X-229Y-1149D01*
X227Y-1150D01*
X650Y-975D01*
X974Y-652D01*
X1035Y-505D01*
X1500Y-970D01*
X1500Y-15529D01*
X1500Y-15529D01*
G37*
G54D37*
X1500Y-15529D02*
X1416Y-15613D01*
X1416Y-14885D01*
X1367Y-14800D01*
X800Y-14800D01*
X800Y-15300D01*
X933Y-15300D01*
X1139Y-15238D01*
X1307Y-15103D01*
X1410Y-14914D01*
X1416Y-14885D01*
X1416Y-15613D01*
X1035Y-15994D01*
X975Y-15849D01*
X700Y-15573D01*
X652Y-15525D01*
X229Y-15350D01*
X-227Y-15349D01*
X-650Y-15524D01*
X-974Y-15847D01*
X-1149Y-16270D01*
X-1150Y-16727D01*
X-975Y-17150D01*
X-652Y-17474D01*
X-505Y-17535D01*
X-1489Y-18518D01*
X-1570Y-18600D01*
X-1621Y-18600D01*
X-1600Y-18578D01*
X-1645Y-18533D01*
X-1555Y-18511D01*
X-1489Y-18321D01*
X-1489Y-17321D01*
X-1500Y-17120D01*
X-1555Y-16988D01*
X-1645Y-16966D01*
X-1716Y-17037D01*
X-1716Y-16895D01*
X-1738Y-16805D01*
X-1928Y-16739D01*
X-2129Y-16750D01*
X-2261Y-16805D01*
X-2283Y-16895D01*
X-2000Y-17179D01*
X-1716Y-16895D01*
X-1716Y-17037D01*
X-1929Y-17250D01*
X-1645Y-17533D01*
X-1555Y-17511D01*
X-1489Y-17321D01*
X-1489Y-18321D01*
X-1500Y-18120D01*
X-1555Y-17988D01*
X-1645Y-17966D01*
X-1716Y-18037D01*
X-1716Y-17895D01*
X-1738Y-17805D01*
X-1895Y-17750D01*
X-1870Y-17749D01*
X-1738Y-17694D01*
X-1716Y-17604D01*
X-2000Y-17320D01*
X-2070Y-17391D01*
X-2070Y-17250D01*
X-2354Y-16966D01*
X-2444Y-16988D01*
X-2499Y-17145D01*
X-2500Y-17120D01*
X-2555Y-16988D01*
X-2645Y-16966D01*
X-2716Y-17037D01*
X-2716Y-16895D01*
X-2738Y-16805D01*
X-2928Y-16739D01*
X-3129Y-16750D01*
X-3261Y-16805D01*
X-3283Y-16895D01*
X-3000Y-17179D01*
X-2716Y-16895D01*
X-2716Y-17037D01*
X-2929Y-17250D01*
X-2645Y-17533D01*
X-2555Y-17511D01*
X-2500Y-17354D01*
X-2499Y-17379D01*
X-2444Y-17511D01*
X-2354Y-17533D01*
X-2070Y-17250D01*
X-2070Y-17391D01*
X-2283Y-17604D01*
X-2261Y-17694D01*
X-2104Y-17749D01*
X-2129Y-17750D01*
X-2261Y-17805D01*
X-2283Y-17895D01*
X-2000Y-18179D01*
X-1716Y-17895D01*
X-1716Y-18037D01*
X-1929Y-18250D01*
X-1923Y-18255D01*
X-1994Y-18326D01*
X-2000Y-18320D01*
X-2005Y-18326D01*
X-2070Y-18261D01*
X-2076Y-18255D01*
X-2070Y-18250D01*
X-2354Y-17966D01*
X-2444Y-17988D01*
X-2499Y-18145D01*
X-2500Y-18120D01*
X-2555Y-17988D01*
X-2645Y-17966D01*
X-2716Y-18037D01*
X-2716Y-17895D01*
X-2738Y-17805D01*
X-2895Y-17750D01*
X-2870Y-17749D01*
X-2738Y-17694D01*
X-2716Y-17604D01*
X-3000Y-17320D01*
X-3283Y-17604D01*
X-3261Y-17694D01*
X-3104Y-17749D01*
X-3129Y-17750D01*
X-3261Y-17805D01*
X-3283Y-17895D01*
X-3000Y-18179D01*
X-2716Y-17895D01*
X-2716Y-18037D01*
X-2929Y-18250D01*
X-2923Y-18255D01*
X-2994Y-18326D01*
X-3000Y-18320D01*
X-3005Y-18326D01*
X-3076Y-18255D01*
X-3070Y-18250D01*
X-3354Y-17966D01*
X-3444Y-17988D01*
X-3497Y-18140D01*
X-3500Y-18135D01*
X-3500Y-17368D01*
X-3499Y-17379D01*
X-3444Y-17511D01*
X-3354Y-17533D01*
X-3070Y-17250D01*
X-3354Y-16966D01*
X-3444Y-16988D01*
X-3497Y-17140D01*
X-3500Y-17135D01*
X-3500Y-16700D01*
X-5224Y-16700D01*
X-5224Y-14375D01*
X-5225Y-14312D01*
X-5287Y-14250D01*
X-5550Y-14250D01*
X-5550Y-14612D01*
X-5487Y-14675D01*
X-5425Y-14675D01*
X-5333Y-14637D01*
X-5263Y-14566D01*
X-5225Y-14474D01*
X-5224Y-14375D01*
X-5224Y-16700D01*
X-6000Y-16700D01*
X-6300Y-16700D01*
X-6300Y-14700D01*
X-5950Y-14700D01*
X-5950Y-14643D01*
X-5933Y-14637D01*
X-5900Y-14603D01*
X-5866Y-14637D01*
X-5774Y-14675D01*
X-5712Y-14675D01*
X-5650Y-14612D01*
X-5650Y-14250D01*
X-5657Y-14250D01*
X-5657Y-14150D01*
X-5650Y-14150D01*
X-5650Y-14142D01*
X-5550Y-14142D01*
X-5550Y-14150D01*
X-5287Y-14150D01*
X-5225Y-14087D01*
X-5224Y-14040D01*
X-4683Y-14040D01*
X-4659Y-14063D01*
X-4523Y-14119D01*
X-4376Y-14120D01*
X-4240Y-14063D01*
X-4136Y-13959D01*
X-4081Y-13828D01*
X-3990Y-13920D01*
X-3990Y-14225D01*
X-3967Y-14335D01*
X-3905Y-14430D01*
X-3080Y-15255D01*
X-3080Y-15255D01*
X-2985Y-15317D01*
X-2875Y-15340D01*
X-2868Y-15340D01*
X-2837Y-15416D01*
X-2766Y-15486D01*
X-2674Y-15524D01*
X-2575Y-15525D01*
X-2325Y-15525D01*
X-2233Y-15487D01*
X-2200Y-15453D01*
X-2166Y-15486D01*
X-2074Y-15524D01*
X-1975Y-15525D01*
X-1725Y-15525D01*
X-1633Y-15487D01*
X-1563Y-15416D01*
X-1535Y-15350D01*
X-600Y-15350D01*
X-600Y-15349D01*
X-485Y-15327D01*
X-485Y-15327D01*
X-387Y-15262D01*
X74Y-14800D01*
X132Y-14800D01*
X83Y-14885D01*
X89Y-14914D01*
X192Y-15103D01*
X360Y-15238D01*
X567Y-15300D01*
X700Y-15300D01*
X700Y-14800D01*
X692Y-14800D01*
X692Y-14700D01*
X700Y-14700D01*
X700Y-14692D01*
X800Y-14692D01*
X800Y-14700D01*
X1367Y-14700D01*
X1416Y-14614D01*
X1410Y-14585D01*
X1307Y-14396D01*
X1139Y-14261D01*
X1113Y-14253D01*
X1285Y-14138D01*
X1404Y-13960D01*
X1446Y-13750D01*
X1404Y-13539D01*
X1285Y-13361D01*
X1119Y-13250D01*
X1285Y-13138D01*
X1404Y-12960D01*
X1446Y-12750D01*
X1404Y-12539D01*
X1285Y-12361D01*
X1119Y-12250D01*
X1285Y-12138D01*
X1404Y-11960D01*
X1446Y-11750D01*
X1404Y-11539D01*
X1285Y-11361D01*
X1119Y-11250D01*
X1285Y-11138D01*
X1404Y-10960D01*
X1446Y-10750D01*
X1404Y-10539D01*
X1285Y-10361D01*
X1119Y-10250D01*
X1285Y-10138D01*
X1404Y-9960D01*
X1446Y-9750D01*
X1404Y-9539D01*
X1285Y-9361D01*
X1119Y-9250D01*
X1285Y-9138D01*
X1404Y-8960D01*
X1446Y-8750D01*
X1404Y-8539D01*
X1285Y-8361D01*
X1119Y-8250D01*
X1285Y-8138D01*
X1404Y-7960D01*
X1446Y-7750D01*
X1404Y-7539D01*
X1285Y-7361D01*
X1119Y-7250D01*
X1285Y-7138D01*
X1404Y-6960D01*
X1446Y-6750D01*
X1404Y-6539D01*
X1285Y-6361D01*
X1119Y-6250D01*
X1285Y-6138D01*
X1404Y-5960D01*
X1446Y-5750D01*
X1404Y-5539D01*
X1285Y-5361D01*
X1119Y-5250D01*
X1285Y-5138D01*
X1404Y-4960D01*
X1446Y-4750D01*
X1404Y-4539D01*
X1285Y-4361D01*
X1119Y-4250D01*
X1285Y-4138D01*
X1404Y-3960D01*
X1446Y-3750D01*
X1404Y-3539D01*
X1285Y-3361D01*
X1119Y-3250D01*
X1285Y-3138D01*
X1404Y-2960D01*
X1446Y-2750D01*
X1404Y-2539D01*
X1285Y-2361D01*
X1193Y-2300D01*
X1232Y-2300D01*
X1324Y-2262D01*
X1394Y-2191D01*
X1432Y-2099D01*
X1433Y-2000D01*
X1433Y-1400D01*
X1395Y-1308D01*
X1324Y-1238D01*
X1232Y-1200D01*
X1133Y-1199D01*
X267Y-1199D01*
X175Y-1237D01*
X105Y-1308D01*
X67Y-1400D01*
X66Y-1460D01*
X-829Y-1460D01*
X-1244Y-1044D01*
X-1339Y-982D01*
X-1450Y-960D01*
X-1531Y-960D01*
X-1562Y-883D01*
X-1633Y-813D01*
X-1725Y-775D01*
X-1824Y-774D01*
X-2074Y-774D01*
X-2166Y-812D01*
X-2199Y-846D01*
X-2233Y-813D01*
X-2325Y-775D01*
X-2424Y-774D01*
X-2674Y-774D01*
X-2766Y-812D01*
X-2836Y-883D01*
X-2868Y-960D01*
X-3150Y-960D01*
X-3260Y-982D01*
X-3355Y-1044D01*
X-5134Y-2824D01*
X-5266Y-2770D01*
X-5413Y-2769D01*
X-5414Y-2770D01*
X-5385Y-2699D01*
X-5385Y-2600D01*
X-5385Y-2350D01*
X-5423Y-2258D01*
X-5493Y-2187D01*
X-5530Y-2172D01*
X-5530Y-2096D01*
X-5500Y-2023D01*
X-5499Y-1876D01*
X-5556Y-1740D01*
X-5660Y-1636D01*
X-5796Y-1580D01*
X-5943Y-1579D01*
X-6079Y-1636D01*
X-6183Y-1740D01*
X-6212Y-1808D01*
X-6236Y-1750D01*
X-6340Y-1646D01*
X-6476Y-1590D01*
X-6623Y-1589D01*
X-6759Y-1646D01*
X-6863Y-1750D01*
X-6889Y-1813D01*
X-6916Y-1750D01*
X-7020Y-1646D01*
X-7156Y-1590D01*
X-7303Y-1589D01*
X-7439Y-1646D01*
X-7543Y-1750D01*
X-7599Y-1886D01*
X-7600Y-2033D01*
X-7597Y-2039D01*
X-7654Y-2062D01*
X-7695Y-2103D01*
X-7695Y-2074D01*
X-7720Y-1948D01*
X-7720Y-1948D01*
X-7792Y-1841D01*
X-8359Y-1273D01*
X-8359Y-1136D01*
X-8397Y-1044D01*
X-8468Y-974D01*
X-8559Y-935D01*
X-8620Y-935D01*
X-8619Y-846D01*
X-8676Y-710D01*
X-8780Y-606D01*
X-8916Y-550D01*
X-9063Y-549D01*
X-9199Y-606D01*
X-9303Y-710D01*
X-9359Y-846D01*
X-9360Y-935D01*
X-9459Y-935D01*
X-9551Y-973D01*
X-9621Y-1044D01*
X-9659Y-1135D01*
X-9659Y-1235D01*
X-9659Y-1343D01*
X-10036Y-1720D01*
X-10350Y-1720D01*
X-10476Y-1745D01*
X-10583Y-1816D01*
X-10724Y-1957D01*
X-10795Y-2064D01*
X-10800Y-2085D01*
X-10800Y200D01*
X-1149Y200D01*
X-1150Y-227D01*
X-975Y-650D01*
X-652Y-974D01*
X-229Y-1149D01*
X227Y-1150D01*
X650Y-975D01*
X974Y-652D01*
X1035Y-505D01*
X1500Y-970D01*
X1500Y-15529D01*
M02*
