G04 (created by PCBNEW (2013-05-31 BZR 4019)-stable) date 3/21/2014 3:32:42 PM*
%MOIN*%
G04 Gerber Fmt 3.4, Leading zero omitted, Abs format*
%FSLAX34Y34*%
G01*
G70*
G90*
G04 APERTURE LIST*
%ADD10C,0.00590551*%
%ADD11C,0.18*%
%ADD12R,0.065X0.065*%
%ADD13C,0.0512*%
%ADD14R,0.0315X0.0394*%
%ADD15R,0.025X0.045*%
%ADD16R,0.045X0.025*%
%ADD17R,0.1377X0.0392*%
%ADD18R,0.1377X0.0393*%
%ADD19R,0.1338X0.059*%
%ADD20R,0.1337X0.059*%
%ADD21C,0.045*%
%ADD22R,0.06X0.06*%
%ADD23C,0.06*%
%ADD24R,0.0906X0.0197*%
%ADD25R,0.0984X0.0787*%
%ADD26C,0.0354*%
%ADD27R,0.055X0.15*%
%ADD28R,0.15X0.055*%
%ADD29R,0.08X0.06*%
%ADD30R,0.055X0.035*%
%ADD31R,0.035X0.055*%
%ADD32R,0.016X0.05*%
%ADD33R,0.0866X0.063*%
%ADD34R,0.0236X0.0394*%
%ADD35R,0.0236X0.0157*%
%ADD36R,0.0188976X0.00944882*%
%ADD37R,0.00944882X0.0188976*%
%ADD38R,0.0314961X0.0314961*%
%ADD39R,0.0240157X0.0866142*%
%ADD40R,0.0275591X0.00984252*%
%ADD41R,0.0314961X0.0543307*%
%ADD42R,0.0275591X0.011811*%
%ADD43R,0.0334646X0.0137795*%
%ADD44R,0.0590551X0.0688976*%
%ADD45R,0.0110236X0.0403543*%
%ADD46C,0.013*%
G04 APERTURE END LIST*
G54D10*
G54D11*
X74350Y-45650D03*
X100350Y-44400D03*
X74350Y-62150D03*
G54D12*
X98350Y-43900D03*
G54D13*
X98350Y-44900D03*
X97350Y-43900D03*
X97350Y-44900D03*
X96350Y-43900D03*
X96350Y-44900D03*
X95350Y-43900D03*
X95350Y-44900D03*
X94350Y-43900D03*
X94350Y-44900D03*
X93350Y-43900D03*
X93350Y-44900D03*
X92350Y-43900D03*
X92350Y-44900D03*
X91350Y-43900D03*
X91350Y-44900D03*
X90350Y-43900D03*
X90350Y-44900D03*
X89350Y-43900D03*
X89350Y-44900D03*
X88350Y-43900D03*
X88350Y-44900D03*
X87350Y-43900D03*
X87350Y-44900D03*
X86350Y-43900D03*
X86350Y-44900D03*
X85350Y-43900D03*
X85350Y-44900D03*
X84350Y-43900D03*
X84350Y-44900D03*
X83350Y-43900D03*
X83350Y-44900D03*
X82350Y-43900D03*
X82350Y-44900D03*
X81350Y-43900D03*
X81350Y-44900D03*
X80350Y-43900D03*
X80350Y-44900D03*
X79350Y-43900D03*
X79350Y-44900D03*
X78350Y-43900D03*
X78350Y-44900D03*
X77350Y-43900D03*
X77350Y-44900D03*
X76350Y-43900D03*
X76350Y-44900D03*
G54D12*
X98350Y-62900D03*
G54D13*
X98350Y-63900D03*
X97350Y-62900D03*
X97350Y-63900D03*
X96350Y-62900D03*
X96350Y-63900D03*
X95350Y-62900D03*
X95350Y-63900D03*
X94350Y-62900D03*
X94350Y-63900D03*
X93350Y-62900D03*
X93350Y-63900D03*
X92350Y-62900D03*
X92350Y-63900D03*
X91350Y-62900D03*
X91350Y-63900D03*
X90350Y-62900D03*
X90350Y-63900D03*
X89350Y-62900D03*
X89350Y-63900D03*
X88350Y-62900D03*
X88350Y-63900D03*
X87350Y-62900D03*
X87350Y-63900D03*
X86350Y-62900D03*
X86350Y-63900D03*
X85350Y-62900D03*
X85350Y-63900D03*
X84350Y-62900D03*
X84350Y-63900D03*
X83350Y-62900D03*
X83350Y-63900D03*
X82350Y-62900D03*
X82350Y-63900D03*
X81350Y-62900D03*
X81350Y-63900D03*
X80350Y-62900D03*
X80350Y-63900D03*
X79350Y-62900D03*
X79350Y-63900D03*
X78350Y-62900D03*
X78350Y-63900D03*
X77350Y-62900D03*
X77350Y-63900D03*
X76350Y-62900D03*
X76350Y-63900D03*
G54D14*
X94200Y-57883D03*
X94575Y-57017D03*
X93825Y-57017D03*
G54D15*
X80900Y-48650D03*
X81500Y-48650D03*
X80900Y-47350D03*
X81500Y-47350D03*
G54D16*
X91100Y-51000D03*
X91100Y-50400D03*
G54D15*
X80900Y-48000D03*
X81500Y-48000D03*
G54D16*
X91050Y-53950D03*
X91050Y-54550D03*
X91050Y-52850D03*
X91050Y-53450D03*
G54D15*
X84750Y-49950D03*
X84150Y-49950D03*
X84750Y-49250D03*
X84150Y-49250D03*
G54D16*
X98100Y-46900D03*
X98100Y-46300D03*
G54D15*
X88700Y-46450D03*
X88100Y-46450D03*
G54D16*
X87600Y-48050D03*
X87600Y-47450D03*
X84250Y-48100D03*
X84250Y-48700D03*
G54D17*
X94750Y-60644D03*
G54D18*
X94750Y-59856D03*
G54D19*
X92487Y-61567D03*
G54D20*
X92487Y-58932D03*
G54D21*
X81500Y-50675D03*
X96500Y-47650D03*
X90350Y-45950D03*
X90050Y-50400D03*
X88300Y-49900D03*
X94150Y-52600D03*
X93250Y-55550D03*
G54D22*
X100300Y-47350D03*
G54D23*
X99300Y-47350D03*
X100300Y-46350D03*
X99300Y-46350D03*
G54D16*
X95150Y-53750D03*
X95150Y-54350D03*
X90350Y-52850D03*
X90350Y-53450D03*
G54D24*
X102942Y-47320D03*
X102942Y-47635D03*
X102942Y-47950D03*
X102942Y-48265D03*
X102942Y-48580D03*
G54D25*
X102981Y-46198D03*
X105146Y-46198D03*
X102981Y-49702D03*
X105146Y-49702D03*
G54D26*
X103965Y-47084D03*
X103965Y-48816D03*
G54D16*
X86900Y-48050D03*
X86900Y-47450D03*
G54D27*
X99700Y-49250D03*
X101500Y-49250D03*
G54D28*
X96150Y-56050D03*
X96150Y-57850D03*
G54D29*
X96500Y-48550D03*
X96500Y-49850D03*
G54D30*
X92150Y-51075D03*
X92150Y-51825D03*
G54D16*
X94025Y-51000D03*
X94025Y-51600D03*
G54D15*
X93800Y-47200D03*
X93200Y-47200D03*
G54D29*
X95400Y-48550D03*
X95400Y-49850D03*
G54D31*
X96175Y-55050D03*
X96925Y-55050D03*
X92575Y-47200D03*
X91825Y-47200D03*
G54D32*
X83385Y-49975D03*
X83130Y-49975D03*
X82870Y-49975D03*
X82615Y-49975D03*
X82615Y-48225D03*
X82870Y-48225D03*
X83130Y-48225D03*
X83385Y-48225D03*
G54D33*
X98100Y-49948D03*
X98100Y-48452D03*
G54D34*
X86150Y-47067D03*
X86150Y-47933D03*
G54D16*
X90350Y-53950D03*
X90350Y-54550D03*
G54D15*
X88650Y-48800D03*
X89250Y-48800D03*
G54D35*
X93350Y-51223D03*
X93350Y-51577D03*
G54D16*
X94650Y-51000D03*
X94650Y-51600D03*
X90750Y-47850D03*
X90750Y-47250D03*
G54D36*
X92314Y-49101D03*
X92314Y-48904D03*
X92314Y-49298D03*
X92314Y-49495D03*
X93385Y-49495D03*
X93385Y-49298D03*
X93385Y-49101D03*
X93385Y-48904D03*
G54D37*
X93145Y-49735D03*
X92948Y-49735D03*
X92751Y-49735D03*
X92554Y-49735D03*
X92554Y-48664D03*
X92751Y-48664D03*
X92948Y-48664D03*
X93145Y-48664D03*
G54D38*
X93007Y-49357D03*
X93007Y-49042D03*
X92692Y-49042D03*
X92692Y-49357D03*
G54D39*
X93650Y-53950D03*
G54D40*
X93285Y-54048D03*
X93285Y-54245D03*
X93285Y-53851D03*
X93285Y-53654D03*
X94014Y-53654D03*
X94014Y-53851D03*
X94014Y-54048D03*
X94014Y-54245D03*
G54D41*
X89000Y-52850D03*
G54D42*
X89389Y-52554D03*
X89389Y-52751D03*
X89389Y-52948D03*
X89389Y-53145D03*
X88610Y-53145D03*
X88610Y-52948D03*
X88610Y-52751D03*
X88610Y-52554D03*
G54D43*
X88669Y-47166D03*
X88669Y-47422D03*
X88669Y-47933D03*
X88669Y-47677D03*
G54D44*
X89250Y-47550D03*
G54D45*
X89377Y-48096D03*
X89122Y-48096D03*
X89122Y-47003D03*
X89377Y-47003D03*
G54D46*
X89250Y-47550D03*
X89407Y-47353D03*
X89092Y-47353D03*
X89407Y-47746D03*
X89092Y-47746D03*
G54D43*
X89830Y-47677D03*
X89830Y-47933D03*
X89830Y-47422D03*
X89830Y-47166D03*
M02*
